<?xml version="1.0" encoding="UTF-8"?><svg id="_레이어_" xmlns="http://www.w3.org/2000/svg" viewBox="0 0 57.99 57.97"><defs><style>.cls-1{fill:#717174;}</style></defs><path class="cls-1" d="m53.79,4.2c-2.71-2.71-6.31-4.2-10.15-4.2s-7.44,1.49-10.15,4.2l-11,11,1.27-.05c2.07-.09,4.16.19,6.14.8l.29.09,7.58-7.58c2.1-2.1,5.12-2.91,8.08-2.16.68.17,1.32.44,1.92.79,2.64,1.55,4.21,4.27,4.21,7.26,0,2.23-.86,4.32-2.44,5.89l-10.11,10.11c-.31.31-.65.6-1.01.86-1.42,1.03-3.1,1.57-4.86,1.57-1,0-2.02-.19-2.96-.54-.26-.1-.54-.24-.87-.45-.89-.56-2.74-1.74-2.9-1.84-1.33-.88-3.15-.92-4.55-.1-.28.16-.55.38-.82.65l-.62.62.18.33c.43.78.93,1.52,1.49,2.19.27.33.57.66.88.97,2.71,2.71,6.31,4.2,10.15,4.2h0c3.84,0,7.44-1.49,10.15-4.2l10.11-10.11c2.71-2.71,4.2-6.31,4.2-10.15s-1.49-7.44-4.2-10.15Z"/><path class="cls-1" d="m28.11,42.02l-.28-.09-7.58,7.58c-1.57,1.57-3.66,2.43-5.89,2.43s-4.32-.86-5.89-2.44c-1.57-1.57-2.44-3.66-2.44-5.89,0-2.23.86-4.32,2.43-5.89l10.11-10.11c.18-.18.37-.35.58-.53.07-.06.14-.11.24-.19,0,0,.31-.23.36-.27.1-.07.21-.14.34-.22.1-.06.19-.12.29-.17.14-.08.27-.15.41-.21.07-.04.14-.07.23-.11.16-.07.32-.14.47-.2l.17-.06c.82-.29,1.68-.45,2.54-.47h.19c.13,0,.25,0,.38,0,0,0,.23,0,.3.01.15.01.29.03.43.05.11.01.22.03.33.05.13.02.27.05.4.08.12.03.24.06.36.09.12.03.24.06.36.1l.2.06s.68.23,1.89.93c.16.09,1.49.99,2.32,1.55l.33.19.04.02c.56.25,1.15.38,1.77.38,1.15,0,2.22-.44,3.02-1.24l.62-.62-.18-.33c-.65-1.17-1.45-2.24-2.37-3.17-2.71-2.71-6.31-4.2-10.15-4.2s-7.44,1.49-10.15,4.2l-10.11,10.11c-.26.26-.53.56-.82.91-.11.13-.22.27-.33.41-.11.15-.22.3-.33.46-4.13,5.74-3.51,13.53,1.49,18.52,2.71,2.71,6.31,4.2,10.15,4.2s7.44-1.49,10.15-4.2l11-11-1.26.05c-2.09.08-4.16-.19-6.14-.8Z"/></svg>