<?xml version="1.0" encoding="utf-8"?>
<!-- Generator: Adobe Illustrator 16.0.0, SVG Export Plug-In . SVG Version: 6.00 Build 0)  -->
<!DOCTYPE svg PUBLIC "-//W3C//DTD SVG 1.1//EN" "http://www.w3.org/Graphics/SVG/1.1/DTD/svg11.dtd">
<svg version="1.1" id="레이어_1" xmlns="http://www.w3.org/2000/svg" xmlns:xlink="http://www.w3.org/1999/xlink" x="0px"
	 y="0px" width="70.871px" height="70.871px" viewBox="0 0 70.871 70.871" enable-background="new 0 0 70.871 70.871"
	 xml:space="preserve">
<circle display="none" fill="#FFFFFF" stroke="#040000" stroke-miterlimit="10" cx="35.233" cy="35.442" r="32.468"/>
<path fill="#747474" d="M239.885,28.352c-2.162,0.99-4.467,1.641-6.828,1.929c2.506-1.544,4.365-3.941,5.237-6.752
	c-2.296,1.399-4.826,2.412-7.551,2.942c-2.226-2.444-5.38-3.838-8.683-3.835c-6.646,0.069-11.98,5.513-11.912,12.159
	c0.008,0.942,0.129,1.881,0.357,2.793c-9.611-0.523-18.533-5.164-24.479-12.733c-3.18,5.563-1.578,12.631,3.688,16.282
	c-1.89-0.072-3.737-0.601-5.378-1.545v0.168c0,5.883,4.102,10.804,9.527,11.938c-1.745,0.479-3.579,0.545-5.355,0.193
	c1.52,4.85,5.909,8.367,11.096,8.465c-4.938,4.006-11.293,5.834-17.605,5.068c5.402,3.559,11.736,5.455,18.209,5.446
	c21.852,0,33.766-18.569,33.766-34.656v-1.569C236.291,32.934,238.294,30.788,239.885,28.352z"/>
<g>
	<path fill="#747474" stroke="#747474" stroke-width="3" stroke-miterlimit="10" d="M59.99,58.015L41.588,31.277l-2.083-3.023
		L26.341,9.127L25.25,7.542H9.072l3.945,5.734l17.505,25.432l2.081,3.021l14.063,20.436l1.092,1.584h16.177L59.99,58.015z
		 M49.682,60.088L35.068,38.858l-2.08-3.023L16.033,11.201h7.293L37.04,31.124l2.08,3.021l17.855,25.942H49.682z"/>
	<polygon fill="#747474" stroke="#747474" stroke-width="3" stroke-miterlimit="10" points="32.989,35.835 35.068,38.858 
		32.604,41.729 13.676,63.748 9.009,63.748 30.522,38.708 	"/>
	<polygon fill="#747474" stroke="#747474" stroke-width="3" stroke-miterlimit="10" points="61.988,7.542 41.588,31.277 
		39.12,34.146 37.04,31.124 39.505,28.253 53.325,12.167 57.322,7.542 	"/>
</g>
</svg>
