<svg width="423" height="61" viewBox="0 0 423 61" fill="none" xmlns="http://www.w3.org/2000/svg">
<g clip-path="url(#clip0_1571_5030)">
<path d="M1.51138 61.1805C1.51138 61.1805 19.3429 53.8912 28.555 48.0007C50.7735 33.7937 76.2841 21.2248 102.382 23.5409C120.082 25.1117 136.694 32.3942 153.325 39.4215C169.957 46.4487 186.515 61.9129 204.511 61.1805" fill="url(#paint1_linear_1571_5030)"/>
<path d="M1.51138 61.1805C1.51138 61.1805 19.3429 53.8912 28.555 48.0007C50.7735 33.7937 76.2841 21.2248 102.382 23.5409C120.082 25.1117 136.694 32.3942 153.325 39.4215C169.957 46.4487 186.515 61.9129 204.511 61.1805" stroke="white" stroke-opacity="0.4" stroke-width="0.5" stroke-miterlimit="10"/>
<path d="M215.5 61.1805C215.5 61.1805 233.331 53.8912 242.544 48.0007C264.762 33.7937 290.273 21.2248 316.371 23.5409C334.07 25.1117 350.683 32.3942 367.314 39.4215C383.945 46.4487 400.504 61.9129 418.5 61.1805" fill="url(#paint2_linear_1571_5030)"/>
<path d="M215.5 61.1805C215.5 61.1805 233.331 53.8912 242.544 48.0007C264.762 33.7937 290.273 21.2248 316.371 23.5409C334.07 25.1117 350.683 32.3942 367.314 39.4215C383.945 46.4487 400.504 61.9129 418.5 61.1805" stroke="white" stroke-opacity="0.4" stroke-width="0.5" stroke-miterlimit="10"/>
</g>
<defs>
<linearGradient id="paint1_linear_1571_5030" x1="112.014" y1="24.7544" x2="45.5083" y2="79.0873" gradientUnits="userSpaceOnUse">
<stop stop-color="white" stop-opacity="0.4"/>
<stop offset="0.701926" stop-color="white" stop-opacity="0"/>
<stop offset="1" stop-color="white" stop-opacity="0.4"/>
</linearGradient>
<linearGradient id="paint2_linear_1571_5030" x1="326.002" y1="24.7544" x2="259.497" y2="79.0873" gradientUnits="userSpaceOnUse">
<stop stop-color="white" stop-opacity="0.4"/>
<stop offset="0.701926" stop-color="white" stop-opacity="0"/>
<stop offset="1" stop-color="white" stop-opacity="0.4"/>
</linearGradient>
<clipPath id="clip0_1571_5030">
<rect width="423" height="61" fill="white"/>
</clipPath>
</defs>
</svg>
