<svg xmlns="http://www.w3.org/2000/svg" width="1920" height="980" viewBox="0 0 1920 980" class="svg_scaled">
	<!-- 배경 + D, O 글자를 evenodd로 뚫음 -->
	<path fill-rule="evenodd" clip-rule="evenodd" d="M0 0H1920V980H0V0ZM1282.09 446.15C1282.09 440.947 1282.61 436.047 1283.66 431.45C1284.71 426.853 1286.23 422.63 1288.21 418.78C1290.19 414.907 1292.6 411.442 1295.42 408.385C1298.27 405.305 1301.46 402.703 1305.01 400.58C1308.56 398.457 1312.43 396.835 1316.63 395.715C1320.85 394.572 1325.32 394 1330.04 394C1334.75 394 1339.21 394.572 1343.41 395.715C1347.63 396.835 1351.51 398.457 1355.06 400.58C1358.61 402.703 1361.79 405.305 1364.62 408.385C1367.46 411.442 1369.88 414.907 1371.86 418.78C1373.84 422.63 1375.36 426.853 1376.41 431.45C1377.48 436.047 1378.02 440.947 1378.02 446.15C1378.02 451.353 1377.48 456.253 1376.41 460.85C1375.36 465.447 1373.84 469.682 1371.86 473.555C1369.88 477.405 1367.46 480.87 1364.62 483.95C1361.79 487.007 1358.61 489.597 1355.06 491.72C1351.51 493.843 1347.63 495.465 1343.41 496.585C1339.21 497.728 1334.75 498.3 1330.04 498.3C1325.32 498.3 1320.85 497.728 1316.63 496.585C1312.43 495.465 1308.56 493.843 1305.01 491.72C1301.46 489.597 1298.27 487.007 1295.42 483.95C1292.6 480.87 1290.19 477.405 1288.21 473.555C1286.23 469.682 1284.71 465.447 1283.66 460.85C1282.61 456.253 1282.09 451.353 1282.09 446.15ZM1300.57 446.15C1300.57 451.82 1301.23 456.883 1302.56 461.34C1303.89 465.773 1305.82 469.53 1308.34 472.61C1310.86 475.667 1313.94 478 1317.58 479.61C1321.24 481.197 1325.39 481.99 1330.04 481.99C1334.68 481.99 1338.82 481.197 1342.46 479.61C1346.12 478 1349.22 475.667 1351.74 472.61C1354.28 469.53 1356.22 465.773 1357.55 461.34C1358.88 456.883 1359.54 451.82 1359.54 446.15C1359.54 440.48 1358.88 435.428 1357.55 430.995C1356.22 426.538 1354.28 422.782 1351.74 419.725C1349.22 416.645 1346.12 414.312 1342.46 412.725C1338.82 411.115 1334.68 410.31 1330.04 410.31C1325.39 410.31 1321.24 411.115 1317.58 412.725C1313.94 414.312 1310.86 416.645 1308.34 419.725C1305.82 422.782 1303.89 426.538 1302.56 430.995C1301.23 435.428 1300.57 440.48 1300.57 446.15ZM1187.71 396.1H1222.43C1227.51 396.1 1232.31 396.637 1236.81 397.71C1241.31 398.783 1245.46 400.335 1249.24 402.365C1253.02 404.395 1256.4 406.88 1259.39 409.82C1262.4 412.737 1264.94 416.05 1267.02 419.76C1269.09 423.47 1270.68 427.542 1271.78 431.975C1272.9 436.385 1273.46 441.11 1273.46 446.15C1273.46 451.19 1272.9 455.927 1271.78 460.36C1270.68 464.77 1269.09 468.83 1267.02 472.54C1264.94 476.25 1262.4 479.575 1259.39 482.515C1256.4 485.432 1253.02 487.905 1249.24 489.935C1245.46 491.965 1241.31 493.517 1236.81 494.59C1232.31 495.663 1227.51 496.2 1222.43 496.2H1187.71V396.1ZM1222.18 479.89C1227.34 479.89 1231.95 479.132 1236.01 477.615C1240.07 476.098 1243.5 473.905 1246.3 471.035C1249.12 468.142 1251.27 464.607 1252.74 460.43C1254.23 456.253 1254.98 451.493 1254.98 446.15C1254.98 440.807 1254.23 436.047 1252.74 431.87C1251.27 427.693 1249.12 424.17 1246.3 421.3C1243.5 418.407 1240.07 416.202 1236.01 414.685C1231.95 413.168 1227.34 412.41 1222.18 412.41H1205.84V479.89H1222.18Z" fill="#040404"/>

	<!-- 나머지 흰색 글자들 (WHATWE) -->
	<path shape-rendering="geometricPrecision" d="M1146.31 394V400.405H1089.29V440.935H1142.11V447.375H1089.29V487.695H1147.71V494.1H1082.43V394H1146.31Z" fill="white"/>
	<path shape-rendering="geometricPrecision" d="M1011.05 394L1040.9 488.185L1071.25 394H1078.42L1046.05 494.1H1036.39L1006.71 401.63L976.678 494.1H967.018L935.098 394H942.378L972.233 488.185L1002.58 394H1011.05Z" fill="white"/>
	<path shape-rendering="geometricPrecision" d="M910.695 400.405H874.61V494.1H867.75V400.405H831.7V394H910.695V400.405Z" fill="white"/>
	<path shape-rendering="geometricPrecision" d="M753.354 494.1L794.969 394H804.594L845.824 494.1H838.475L826.364 464.56H772.849L760.564 494.1H753.354ZM823.774 458.26L799.73 399.775L775.439 458.26H823.774Z" fill="white"/>
	<path shape-rendering="geometricPrecision" d="M749.888 494.1H743.029V447.375H677.193V494.1H670.333V394H677.193V440.935H743.029V394H749.888V494.1Z" fill="white"/>
	<path shape-rendering="geometricPrecision" d="M598.95 394L628.805 488.185L659.15 394H666.325L633.95 494.1H624.29L594.61 401.63L564.58 494.1H554.92L523 394H530.28L560.135 488.185L590.48 394H598.95Z" fill="white"/>
</svg>