<svg width="10" height="10" viewBox="0 0 10 10" fill="none" xmlns="http://www.w3.org/2000/svg">
<path d="M4.9947 6.13481L1.36254 9.76697C1.20013 9.92939 1.01557 10.0069 0.808859 9.99952C0.602151 9.99214 0.417589 9.90724 0.255176 9.74482C0.092762 9.58241 0.0115551 9.39416 0.0115551 9.18007C0.0115551 8.96598 0.092762 8.77772 0.255176 8.61531L3.86519 5.0053L0.233028 1.37313C0.0706147 1.21072 -0.00690098 1.02247 0.000481464 0.808377C0.00786391 0.594287 0.092762 0.406034 0.255176 0.243621C0.417589 0.0812069 0.605842 0 0.819933 0C1.03402 0 1.22228 0.0812069 1.38469 0.243621L4.9947 3.87578L8.62687 0.243621C8.78928 0.0812069 8.97753 0 9.19162 0C9.40571 0 9.59397 0.0812069 9.75638 0.243621C9.91879 0.406034 10 0.594287 10 0.808377C10 1.02247 9.91879 1.21072 9.75638 1.37313L6.12422 5.0053L9.75638 8.63746C9.91879 8.79987 10 8.98443 10 9.19114C10 9.39785 9.91879 9.58241 9.75638 9.74482C9.59397 9.90724 9.40571 9.98844 9.19162 9.98844C8.97753 9.98844 8.78928 9.90724 8.62687 9.74482L4.9947 6.13481Z" fill="#1E2124"/>
</svg>
