<svg width="34" height="34" viewBox="0 0 34 34" fill="none" xmlns="http://www.w3.org/2000/svg">
<path d="M14.5926 25.4538C15.135 25.9673 15.8067 26.2873 16.5185 26.3712L15.7317 24.4453C15.2436 24.506 15.1056 25.1006 14.5926 25.4538Z" fill="#696133"/>
<path d="M11.5246 26.3439L11.5309 25.4856L11.3929 25.4326C9.98159 24.9154 8.68867 24.1368 7.58688 23.1405C6.67493 22.3065 5.9081 21.3361 5.31584 20.2666C4.8854 19.4951 4.5434 18.6806 4.29592 17.8375L4.27876 17.781L4.2351 17.6305L4.22028 17.5808L4 16.7402L11.0868 16.7997L11.5749 18.1386L6.13692 18.0931L5.82073 18.0905L5.93379 18.3739C6.10299 18.8053 6.30188 19.2254 6.52914 19.6312C7.05268 20.5745 7.72878 21.431 8.53194 22.1686C9.54788 23.0847 10.7457 23.7923 12.0529 24.2487L12.9216 24.5551L12.9181 25.0219L14.1025 25.0313L14.5926 26.3699L11.5246 26.3439Z" fill="#BCB36E"/>
<path d="M12.6667 18.4704C12.9565 18.6032 13.2905 18.671 13.6296 18.6658L13.2231 17.7031C13.0673 17.7967 12.9378 17.9127 12.8423 18.0445C12.7468 18.1762 12.6869 18.321 12.6667 18.4704Z" fill="#696133"/>
<path d="M13.6296 22.1678C14.189 22.3654 14.856 22.4865 15.5556 22.5177L14.8922 21.5547C14.5977 21.6077 14.332 21.6901 14.1138 21.796C13.8956 21.902 13.7303 22.0289 13.6296 22.1678Z" fill="#696133"/>
<path d="M24.2223 23.3323C22.6249 24.595 20.8616 25.6176 18.9852 26.3694C18.9852 26.3694 16.8712 24.173 15.009 25.4986L14.5926 24.2843C14.5926 24.2843 17.2766 21.0512 24.2215 23.3323" fill="#BCB36E"/>
<path d="M25.6444 21.6658C26.6549 20.6255 27.479 19.3869 28.0741 18.0139C19.3313 13.9669 13.6296 20.8579 13.6296 20.8579L14.1658 22.518C14.1658 22.518 18.7151 18.0227 25.6444 21.6658Z" fill="#9B8C45"/>
<path d="M29.9983 11.0714C16.3153 6.73074 11.7037 16.9817 11.7037 16.9817L12.3062 18.6667C19.0841 11.2913 29.2328 15.4087 29.2381 15.4105C29.7657 14.0243 30.0236 12.5522 29.9983 11.0714Z" fill="#696133"/>
</svg>
