<svg width="56" height="56" viewBox="0 0 56 56" fill="none" xmlns="http://www.w3.org/2000/svg">
<mask id="mask0_168_3872" style="mask-type:alpha" maskUnits="userSpaceOnUse" x="11" y="9" width="34" height="38">
<g clip-path="url(#clip0_168_3872)">
<path d="M21.1865 19.6132V16.9532C21.1865 13.2857 24.1093 10.3164 27.7193 10.3164C31.3294 10.3164 34.2522 13.2857 34.2522 16.9532V19.6132" stroke="#0099FF" stroke-width="2" stroke-linecap="round" stroke-linejoin="round"/>
<path d="M15.7059 19.8682H39.7408C41.6197 19.8682 43.142 21.4147 43.142 23.3236V42.138C43.142 44.0468 41.6197 45.5933 39.7408 45.5933H15.7059C13.827 45.5933 12.3047 44.0468 12.3047 42.138V23.3147C12.3047 21.4059 13.827 19.8594 15.7059 19.8594V19.8682Z" stroke="#0099FF" stroke-width="2" stroke-linecap="round" stroke-linejoin="round"/>
<path d="M17.8809 26.1719H37.5576" stroke="#0099FF" stroke-width="2" stroke-linecap="round" stroke-linejoin="round"/>
</g>
</mask>
<g mask="url(#mask0_168_3872)">
<rect x="3.66699" y="4" width="48" height="48" fill="url(#paint0_linear_168_3872)"/>
</g>
<defs>
<linearGradient id="paint0_linear_168_3872" x1="27.667" y1="4" x2="27.667" y2="52" gradientUnits="userSpaceOnUse">
<stop stop-color="#FF710D"/>
<stop offset="1" stop-color="white"/>
</linearGradient>
<clipPath id="clip0_168_3872">
<rect width="34" height="38" fill="white" transform="translate(11 9)"/>
</clipPath>
</defs>
</svg>
