<svg width="33" height="42" viewBox="0 0 33 42" fill="none" xmlns="http://www.w3.org/2000/svg">
<g clip-path="url(#clip0_1856_5988)">
<path d="M16.6202 0H16.4549H16.3798C7.34836 0.140865 0 7.51033 0 16.4145C0 21.3818 2.38183 26.8311 7.07036 32.6288C7.33333 32.955 7.60383 33.2812 7.88183 33.6074C7.89686 33.6222 7.90437 33.6371 7.9194 33.6519C8.44536 34.2673 9.00137 34.8974 9.57992 35.5202C9.80533 35.7649 10.0307 36.0095 10.2637 36.2468C10.3313 36.3209 10.3989 36.3876 10.474 36.4618C12.8859 38.9603 15.14 40.8953 16.5 42C17.8675 40.8879 20.1441 38.938 22.5786 36.4173C22.6311 36.3654 22.6837 36.3061 22.7363 36.2542C22.9843 35.9947 23.2322 35.7352 23.4727 35.4683C24.0287 34.8678 24.5697 34.2598 25.0806 33.6593C25.1031 33.6371 25.1182 33.6148 25.1407 33.5926C25.4187 33.2664 25.6892 32.9402 25.9522 32.6065C30.6257 26.8162 33 21.3744 33 16.4145C32.9925 7.51033 25.6516 0.140865 16.6202 0ZM16.5 23.9989C11.6913 23.9989 7.77664 20.1363 7.77664 15.3914C7.77664 10.6464 11.6913 6.78376 16.5 6.78376C21.3087 6.78376 25.2234 10.6464 25.2234 15.3914C25.2234 20.1363 21.3087 23.9989 16.5 23.9989Z" fill="url(#paint0_linear_1856_5988)"/>
</g>
<defs>
<linearGradient id="paint0_linear_1856_5988" x1="0" y1="0" x2="40.3496" y2="8.9815" gradientUnits="userSpaceOnUse">
<stop stop-color="#FF710D"/>
<stop offset="1" stop-color="#0169D8"/>
</linearGradient>
<clipPath id="clip0_1856_5988">
<rect width="33" height="42" fill="white"/>
</clipPath>
</defs>
</svg>
