<svg width="48" height="48" viewBox="0 0 48 48" fill="none" xmlns="http://www.w3.org/2000/svg">
<mask id="mask0_1267_4231" style="mask-type:alpha" maskUnits="userSpaceOnUse" x="7" y="5" width="35" height="38">
<path d="M18.1523 15.3843V10.0548C18.1523 9.55128 18.2564 9.07628 18.4361 8.63928C18.6159 8.20228 18.8807 7.81278 19.2118 7.48978C19.5429 7.15728 19.9307 6.89128 20.3564 6.71078C20.7915 6.53028 21.2645 6.42578 21.7659 6.42578H36.2294C36.7307 6.42578 37.2037 6.53028 37.6388 6.71078C38.074 6.89128 38.4618 7.15728 38.7929 7.48978C39.1145 7.82228 39.3794 8.21178 39.5686 8.63928C39.7483 9.07628 39.8523 9.55128 39.8523 10.0548V37.1678C39.8523 37.6713 39.7483 38.1463 39.5686 38.5833C39.3888 39.0203 39.124 39.4098 38.7929 39.7328C38.4618 40.0653 38.074 40.3218 37.6388 40.5118C37.2037 40.7018 36.7307 40.7968 36.2294 40.7968H21.7659C21.2645 40.7968 20.7915 40.6923 20.3564 40.5118C19.9213 40.3313 19.5334 40.0653 19.2118 39.7328C18.8807 39.4003 18.6159 39.0108 18.4361 38.5833C18.2564 38.1463 18.1523 37.6713 18.1523 37.1678V31.8383" stroke="#FFA600" stroke-width="2" stroke-linecap="round" stroke-linejoin="round"/>
<path d="M27.0732 12.0312H30.9232" stroke="#FFA600" stroke-width="2" stroke-linecap="round" stroke-linejoin="round"/>
<path d="M29.8257 23.9135C29.8257 25.8895 28.2271 27.495 26.2595 27.495H11.9852C10.0176 27.495 8.41895 25.8895 8.41895 23.9135C8.41895 21.9375 10.0176 20.332 11.9852 20.332H26.2595C28.2271 20.332 29.8257 21.9375 29.8257 23.9135Z" stroke="#FFA600" stroke-width="2" stroke-linecap="round" stroke-linejoin="round"/>
</mask>
<g mask="url(#mask0_1267_4231)">
<rect width="48" height="48" fill="url(#paint0_linear_1267_4231)"/>
</g>
<defs>
<linearGradient id="paint0_linear_1267_4231" x1="0" y1="0" x2="48" y2="48" gradientUnits="userSpaceOnUse">
<stop stop-color="#FF6900"/>
<stop offset="1" stop-color="#FFC7A0"/>
</linearGradient>
</defs>
</svg>
