<svg width="32" height="32" viewBox="0 0 32 32" fill="none" xmlns="http://www.w3.org/2000/svg">
<g clip-path="url(#clip0_1071_3599)">
<g clip-path="url(#clip1_1071_3599)">
<path d="M28.2922 15.1965C28.2948 15.2983 28.2961 15.3995 28.2961 15.5013C28.2994 15.6483 28.253 15.7939 28.1538 15.9467C28.0507 16.1059 27.8992 16.2599 27.691 16.4165C27.4763 16.5789 27.2289 16.7252 26.9123 16.8786C26.8882 16.8902 26.8627 16.9012 26.8386 16.9128C26.8268 15.8352 26.7074 14.7434 26.4678 13.6967C26.3673 13.2585 26.2459 12.8305 26.1042 12.409C26.2341 12.3497 26.3595 12.2885 26.4776 12.2247C26.7935 12.0533 27.022 11.8947 27.2171 11.711C27.3921 11.5454 27.5102 11.3778 27.5788 11.209C27.7602 11.7188 27.9097 12.2511 28.0233 12.8009C28.1838 13.5762 28.2746 14.3825 28.2928 15.1971L28.2922 15.1965Z" fill="#C9252B"/>
<path d="M25.8605 21.5304C25.5805 21.6515 25.2652 21.7669 24.9023 21.8822C24.0531 22.151 23.0891 22.3682 21.9546 22.5467C21.924 22.5519 21.8907 22.5557 21.86 22.5603C22.1256 21.3383 22.2653 19.8895 22.2705 18.3633C22.39 18.3453 22.5127 18.3285 22.6289 18.3092C23.9135 18.0991 24.9891 17.8445 25.918 17.53C26.1627 17.4468 26.3866 17.3624 26.5968 17.2754C26.5785 18.7229 26.3605 20.1305 25.933 21.3402C25.9108 21.404 25.8847 21.4665 25.8605 21.5297V21.5304Z" fill="#C9252B"/>
<path d="M23.5372 25.097C23.2362 25.2285 22.9014 25.3471 22.4928 25.4638C21.921 25.6268 21.2905 25.7602 20.5823 25.8737C21.1201 24.9836 21.53 23.9537 21.8022 22.8072C21.8649 22.7975 21.9308 22.7891 21.9922 22.7794C23.139 22.599 24.1148 22.3792 24.9751 22.1066C25.259 22.0164 25.5084 21.9255 25.7427 21.832C25.3243 22.8342 24.7336 23.7726 23.979 24.6266C23.8328 24.7922 23.6853 24.9469 23.5372 25.097Z" fill="#C9252B"/>
<path d="M17.6423 27.8749C17.1097 27.9542 16.5523 27.9941 16.0177 27.9999L16.019 26.4531C17.4459 26.448 18.8453 26.3532 20.1011 26.1812C19.7898 26.6291 19.4752 26.9739 19.1273 27.2388C18.6854 27.5765 18.1717 27.7963 17.6423 27.8749Z" fill="#C9252B"/>
<path d="M14.1573 27.8764C13.628 27.7984 13.1143 27.5786 12.6717 27.2402C12.3245 26.9747 12.0105 26.6299 11.6998 26.1826C12.9596 26.3541 14.359 26.4481 15.7813 26.4533L15.78 27.9021L15.7813 28.0001C15.2474 27.9943 14.6893 27.9543 14.1573 27.8764Z" fill="#C9252B"/>
<path d="M8.26044 25.1026C8.10901 24.9498 7.95823 24.7913 7.80941 24.6218C7.05943 23.7704 6.47198 22.8352 6.05554 21.8369C6.29183 21.9317 6.54508 22.0238 6.83359 22.1147C7.69257 22.3841 8.6684 22.6026 9.81849 22.7824C9.87985 22.7921 9.94055 22.7991 10.0026 22.8088C10.2741 23.9567 10.6834 24.9872 11.2212 25.8779C10.4516 25.7548 9.19188 25.5073 8.2611 25.1032L8.26044 25.1026Z" fill="#C9252B"/>
<path d="M5.86108 21.3351C5.43615 20.128 5.2188 18.7249 5.20117 17.2812C5.41461 17.3695 5.64176 17.4553 5.8911 17.539C6.81927 17.851 7.89496 18.1036 9.18018 18.3124C9.29571 18.3311 9.41711 18.3479 9.53461 18.3653C9.54048 19.8915 9.67951 21.3396 9.94452 22.5616C9.91514 22.5571 9.88577 22.5539 9.85575 22.5487C8.71805 22.3708 7.75332 22.1556 6.90609 21.8894C6.53795 21.7734 6.21942 21.6567 5.93679 21.5343C5.91199 21.4679 5.88457 21.4022 5.86108 21.3351Z" fill="#C9252B"/>
<path d="M5.5647 13.7467C5.6613 13.3259 5.78402 12.9166 5.91913 12.5112C6.05751 12.5692 6.20241 12.6266 6.36168 12.684C6.7866 12.8373 7.25265 12.9759 7.78592 13.108C8.31463 13.2389 8.87075 13.3529 9.48626 13.4567C9.64031 13.4825 9.80153 13.5063 9.9608 13.5302C9.83678 14.1985 9.73691 14.8804 9.66642 15.5913C9.58222 16.4401 9.54175 17.2921 9.53783 18.1254C9.43209 18.1093 9.32308 18.0945 9.2193 18.0777C7.94714 17.8715 6.88386 17.6214 5.96808 17.314C5.68676 17.2199 5.4335 17.1232 5.19983 17.0227C5.2044 15.9264 5.32058 14.8121 5.56535 13.7454L5.5647 13.7467Z" fill="#C9252B"/>
<path d="M21.6085 22.5964C19.9231 22.8406 17.9637 22.9779 16.0225 22.9837L16.0238 21.9512L16.0225 18.8112C18.1066 18.8054 20.2097 18.6604 22.0321 18.3994C22.0243 19.9307 21.8807 21.3828 21.6085 22.597V22.5964Z" fill="#C9252B"/>
<path d="M20.2762 25.9215C18.9825 26.1104 17.5178 26.2122 16.0198 26.218L16.023 23.2205C17.9342 23.2147 19.8695 23.0825 21.5451 22.8447C21.2677 23.9765 20.8584 24.9941 20.3153 25.8629C20.3023 25.8842 20.2892 25.9009 20.2762 25.9215Z" fill="#C9252B"/>
<path d="M9.77258 18.4009C11.5976 18.6613 13.7013 18.8063 15.7835 18.8114L15.7848 21.9514V22.9845C14.373 22.9813 12.3228 22.9059 10.1942 22.5972C9.92336 21.383 9.78042 19.9316 9.77258 18.4009Z" fill="#C9252B"/>
<path d="M13.5293 5.44922C14.3968 5.57232 15.2316 5.60132 15.7786 5.60519L15.7799 9.09191C14.3334 9.08675 12.8916 8.9875 11.6207 8.80898C12.1338 7.58121 12.6716 6.60351 13.3126 5.7328C13.3766 5.64643 13.4523 5.54847 13.5293 5.44922Z" fill="#C9252B"/>
<path d="M18.483 5.7294C19.1259 6.59947 19.6644 7.57717 20.1794 8.80493C18.9158 8.98604 17.4752 9.08529 16.0196 9.09109L16.0183 5.60501C16.5548 5.60179 17.3949 5.57214 18.2669 5.44775C18.344 5.54636 18.4197 5.64368 18.4836 5.73004L18.483 5.7294Z" fill="#C9252B"/>
<path d="M16.0175 5.36912V4.10978C16.0175 3.93061 16.0168 3.75144 16.0155 3.57227C16.1441 3.59805 16.2838 3.65089 16.4385 3.73339C16.6506 3.84618 16.8608 3.99441 17.1003 4.2C17.4737 4.51903 17.8098 4.8909 18.0912 5.23184C17.2844 5.33818 16.5174 5.36525 16.0175 5.36848V5.36912Z" fill="#C9252B"/>
<path d="M17.2569 4.0223C17.0448 3.84055 16.8536 3.70199 16.663 3.58984C16.9495 3.63174 17.2576 3.70456 17.5937 3.81155C18.206 4.00619 18.8594 4.2975 19.5376 4.67775C19.6342 4.73189 19.7229 4.79247 19.8176 4.84854C19.6368 4.91428 19.4325 4.97615 19.1955 5.03351C18.9253 5.09925 18.6466 5.15081 18.3685 5.19335C18.065 4.81568 17.6825 4.3858 17.2569 4.0223Z" fill="#C9252B"/>
<path d="M14.6917 4.20129C14.9365 3.99119 15.1401 3.84747 15.3523 3.73403C15.507 3.65154 15.6466 3.59805 15.7759 3.57227C15.7772 3.75144 15.7778 3.93061 15.7778 4.10978V5.37041C15.2707 5.37105 14.507 5.34141 13.7035 5.23442C13.9835 4.89348 14.319 4.52161 14.6924 4.20129H14.6917Z" fill="#C9252B"/>
<path d="M13.4277 5.19464C13.1666 5.15404 12.9043 5.10699 12.649 5.04705C12.4434 4.99936 12.2111 4.93877 11.9741 4.85177C12.0694 4.79505 12.1588 4.73447 12.2561 4.67969C12.9323 4.29943 13.5857 4.00748 14.1979 3.81219C14.5341 3.70521 14.8428 3.63174 15.1294 3.58984C14.9401 3.70134 14.7521 3.83733 14.5354 4.02359C14.1111 4.38773 13.7299 4.81761 13.4277 5.19464Z" fill="#C9252B"/>
<path d="M15.7798 9.32678L15.7818 13.7132C13.8602 13.7081 11.9255 13.5759 10.2415 13.3355C10.3198 12.9366 10.4053 12.5402 10.5045 12.1484C10.776 11.0798 11.1148 10.0583 11.5312 9.03418C12.8236 9.21851 14.2955 9.32162 15.7798 9.32678Z" fill="#C9252B"/>
<path d="M15.7818 13.9494L15.7838 18.5756C13.7003 18.5704 11.5972 18.4248 9.77612 18.1625C9.77939 17.3253 9.81986 16.4687 9.90406 15.6154C9.9739 14.9084 10.0731 14.2317 10.1971 13.5679C11.8929 13.8102 13.8419 13.9436 15.7825 13.9494H15.7818Z" fill="#C9252B"/>
<path d="M15.7837 23.2206L15.7811 26.2175C14.2929 26.2124 12.8256 26.1118 11.5254 25.923C11.5117 25.9017 11.4986 25.8843 11.4849 25.8624C10.9438 24.9936 10.5352 23.976 10.2584 22.8442C12.3654 23.1433 14.3869 23.2168 15.7837 23.22V23.2206Z" fill="#C9252B"/>
<path d="M16.0223 18.5756L16.0204 13.9494C17.9622 13.9436 19.9139 13.8095 21.6077 13.5659C21.7317 14.2297 21.8309 14.9065 21.9008 15.6128C21.9856 16.4668 22.0261 17.3233 22.0294 18.1612C20.2109 18.4241 18.1078 18.5698 16.0223 18.5756Z" fill="#C9252B"/>
<path d="M16.021 13.7134L16.019 9.32758C17.5014 9.32243 18.9772 9.21931 20.2702 9.03369C20.6873 10.0578 21.0274 11.078 21.2989 12.1447C21.3988 12.5378 21.4843 12.9342 21.5633 13.3344C19.8851 13.5755 17.9511 13.7076 16.021 13.7134Z" fill="#C9252B"/>
<path d="M21.5303 12.087C21.2607 11.0281 20.9239 10.0143 20.5127 8.99791C20.6811 8.97213 20.8475 8.94506 21.0081 8.91606C21.5074 8.82647 21.9565 8.72786 22.3814 8.61314C22.8135 8.49649 23.1686 8.37983 23.5002 8.24385C23.5244 8.23418 23.5446 8.22451 23.5674 8.21484C24.0387 8.83227 24.4773 9.49739 24.8507 10.1677C25.2378 10.8631 25.5472 11.5649 25.8017 12.2829C25.6568 12.3441 25.5041 12.4041 25.335 12.4647C24.9153 12.6155 24.4565 12.7521 23.9323 12.8816C23.4043 13.0125 22.854 13.1253 22.2509 13.2264C22.104 13.2509 21.9506 13.2735 21.7992 13.2967C21.7189 12.89 21.6321 12.4859 21.5303 12.0863V12.087Z" fill="#C9252B"/>
<path d="M23.4085 8.02628C23.0867 8.15776 22.7408 8.27183 22.3185 8.38591C21.9007 8.4987 21.4582 8.59601 20.9654 8.68431C20.7891 8.71589 20.6083 8.74554 20.423 8.7739C20.4151 8.75456 20.4079 8.73458 20.3995 8.71525C19.8773 7.46944 19.3296 6.47691 18.6756 5.59137C18.6338 5.53466 18.581 5.46763 18.5333 5.40576C18.7755 5.3658 19.017 5.32069 19.2526 5.26333C19.5796 5.18405 19.844 5.10027 20.0718 5.00488C21.0085 5.5888 21.8387 6.25778 22.5828 7.04858C22.8668 7.35085 23.1468 7.67954 23.4177 8.0237C23.4144 8.02499 23.4118 8.02628 23.4085 8.02757V8.02628Z" fill="#C9252B"/>
<path d="M20.09 4.73736C19.9451 4.64907 19.8061 4.5569 19.6559 4.47247C18.964 4.08384 18.295 3.78609 17.6671 3.58694C17.3264 3.47866 17.0117 3.40326 16.718 3.35878C17.7513 3.21248 18.966 3.40003 20.0215 3.73968C20.0534 3.75386 20.0887 3.7674 20.1194 3.78286C20.231 3.83829 20.3609 3.9079 20.4764 4.00973C20.6703 4.18116 20.637 4.29717 20.5861 4.37838C20.5502 4.43574 20.5019 4.48601 20.4248 4.54466C20.3446 4.60588 20.2538 4.66002 20.1311 4.71932C20.1181 4.72576 20.1024 4.73156 20.0887 4.73801L20.09 4.73736Z" fill="#C9252B"/>
<path d="M16.0148 3.20366C16.0148 3.13212 16.0148 3.05994 16.0148 3C16.1415 3.00129 16.2656 3.00838 16.3904 3.01289C16.2591 3.06445 16.1324 3.12697 16.0142 3.20366H16.0148Z" fill="#C9252B"/>
<path d="M15.7762 3.20415C15.658 3.1281 15.5325 3.06558 15.4012 3.01402C15.526 3.00887 15.6501 3.00178 15.7768 3.00049V3.20415H15.7762Z" fill="#C9252B"/>
<path d="M11.2868 4.03C11.3893 3.92688 11.5081 3.85857 11.621 3.80056C11.6634 3.77865 11.7124 3.75931 11.7581 3.73869C12.8174 3.39969 14.0354 3.21278 15.0719 3.35973C14.7782 3.4042 14.4636 3.4796 14.1235 3.58788C13.4956 3.78767 12.8272 4.08672 12.1366 4.4747C11.9865 4.55913 11.8468 4.6513 11.7019 4.74024C11.5857 4.6861 11.4918 4.6339 11.4102 4.57589C11.3305 4.51982 11.2757 4.4689 11.2326 4.41154C11.168 4.32454 11.1158 4.20208 11.2861 4.03065L11.2868 4.03Z" fill="#C9252B"/>
<path d="M11.7232 5.00488C12.03 5.13314 12.3335 5.21499 12.594 5.27622C12.8139 5.32778 13.0385 5.36902 13.263 5.40576C13.2147 5.46892 13.1612 5.53659 13.1194 5.59395C12.4667 6.48013 11.9203 7.4733 11.4001 8.71911C11.3923 8.7378 11.3858 8.75649 11.3779 8.77518C11.1828 8.74554 10.9915 8.71396 10.8061 8.68109C10.3088 8.59215 9.86622 8.49418 9.45174 8.38204C9.03465 8.26926 8.69327 8.15582 8.37866 8.02692C8.64954 7.68212 8.92956 7.35278 9.21415 7.04987C9.9576 6.25907 10.7872 5.59009 11.7239 5.00553L11.7232 5.00488Z" fill="#C9252B"/>
<path d="M8.27369 8.23857C8.60136 8.37392 8.95579 8.49186 9.38854 8.60851C9.80955 8.72259 10.2593 8.82184 10.7632 8.91272C10.9335 8.94365 11.1098 8.97201 11.2886 8.99972C10.8781 10.0161 10.5426 11.0305 10.273 12.0914C10.1718 12.4903 10.085 12.8931 10.0054 13.2998C9.8448 13.2753 9.68227 13.2515 9.52627 13.2257C8.91662 13.1226 8.36638 13.0098 7.8442 12.8809C7.31876 12.7507 6.86054 12.6147 6.44345 12.4639C6.28158 12.4059 6.13602 12.3472 5.99634 12.2886C6.2509 11.5687 6.56094 10.8655 6.94801 10.1695C7.32006 9.5005 7.75804 8.83667 8.228 8.21924C8.24367 8.22568 8.25737 8.23213 8.27304 8.23922L8.27369 8.23857Z" fill="#C9252B"/>
<path d="M25.8401 17.3077C24.9243 17.617 23.861 17.869 22.5895 18.0766C22.4844 18.094 22.3741 18.1088 22.267 18.1249C22.2625 17.2909 22.2227 16.4383 22.1378 15.5895C22.0673 14.8786 21.9674 14.1973 21.8428 13.529C21.9929 13.5064 22.1443 13.4839 22.2899 13.4594C22.8989 13.3569 23.455 13.2429 23.9889 13.1107C24.5209 12.9793 24.9876 12.8407 25.4151 12.6867C25.5816 12.6267 25.733 12.5668 25.8773 12.5068C26.013 12.9142 26.1364 13.3253 26.233 13.7481C26.4771 14.8128 26.5926 15.9246 26.5979 17.019C26.3661 17.1182 26.1168 17.2136 25.8401 17.307V17.3077Z" fill="#C9252B"/>
<path d="M27.3539 10.6267C27.4805 10.9284 27.3813 11.2268 27.051 11.54C26.8715 11.7088 26.6594 11.8564 26.3618 12.0176C26.2554 12.0756 26.1425 12.1303 26.0256 12.1845C25.7684 11.4607 25.4493 10.7556 25.0596 10.0551C24.6895 9.39059 24.2554 8.73192 23.79 8.11707C23.9891 8.02361 24.1588 7.92952 24.3135 7.82382C24.5407 7.66914 24.7019 7.51317 24.8044 7.34754C24.869 7.24377 24.9186 7.11359 24.9232 6.96729C25.3546 7.42552 25.7508 7.90567 26.1026 8.4C26.6124 9.11668 27.0334 9.86623 27.3539 10.628V10.6267Z" fill="#C9252B"/>
<path d="M24.4309 6.46731C24.7037 6.73026 24.7579 6.97066 24.6006 7.2233C24.5158 7.36058 24.3774 7.49335 24.1777 7.62869C24.0217 7.73503 23.8506 7.82913 23.6424 7.92451C23.3559 7.55715 23.0589 7.20783 22.7567 6.88688C22.0321 6.11606 21.2286 5.45867 20.3259 4.88249C20.4186 4.83351 20.5009 4.78388 20.5707 4.73104C20.6379 4.67948 20.7234 4.60729 20.7894 4.5016C20.8618 4.38494 20.9088 4.2206 20.8031 4.03369C20.8475 4.05303 20.8938 4.06978 20.9375 4.08912C21.5935 4.38301 22.2195 4.73233 22.7984 5.12933C23.3644 5.51668 23.8989 5.95429 24.4309 6.46795V6.46731Z" fill="#C9252B"/>
<path d="M9.06202 5.07008C9.61684 4.69627 10.2134 4.36565 10.8361 4.08787C10.891 4.06338 10.9458 4.0434 10.998 4.02148C10.9014 4.1955 10.9145 4.37789 11.0417 4.55062C11.1005 4.62924 11.1716 4.69627 11.2728 4.76717C11.3309 4.80841 11.3962 4.84708 11.4667 4.88511C10.5652 5.46129 9.76305 6.11867 9.03918 6.88885C8.73697 7.21045 8.43998 7.56041 8.15343 7.92777C7.93803 7.82852 7.76375 7.73056 7.6058 7.61906C7.41259 7.48307 7.27878 7.34902 7.19784 7.20981C7.04902 6.9533 7.10973 6.7013 7.38191 6.43899C7.92955 5.91115 8.47979 5.46387 9.06267 5.07072L9.06202 5.07008Z" fill="#C9252B"/>
<path d="M5.71162 8.36805C6.06148 7.8763 6.45442 7.40066 6.8813 6.94629C6.88326 7.09259 6.92895 7.22278 6.98966 7.32719C7.08822 7.49669 7.24422 7.65523 7.46615 7.8112C7.62476 7.9227 7.79838 8.02195 8.00595 8.11992C7.54121 8.73412 7.10845 9.39215 6.73901 10.0553C6.34868 10.7565 6.0295 11.4629 5.77167 12.1886C5.64831 12.1313 5.52951 12.0726 5.4179 12.0107C5.12483 11.849 4.91661 11.7001 4.74233 11.5287C4.42184 11.2135 4.32981 10.9093 4.46035 10.5999C4.78215 9.83492 5.20315 9.08473 5.71228 8.36934L5.71162 8.36805Z" fill="#C9252B"/>
<path d="M3.74367 13.0155C3.86116 12.3846 4.02434 11.7755 4.2293 11.1968C4.29457 11.3643 4.40749 11.5306 4.57328 11.6943C4.76388 11.8819 4.98776 12.0424 5.30042 12.2151C5.42443 12.2834 5.55563 12.3485 5.69336 12.4123C5.55237 12.8319 5.43096 13.2579 5.33109 13.6942C5.09089 14.7428 4.97144 15.8365 4.95969 16.916C4.93815 16.9057 4.91531 16.8961 4.89377 16.8857C4.57916 16.7336 4.33308 16.5861 4.11964 16.423C3.90816 16.2619 3.76717 16.1162 3.66143 15.9512C3.56743 15.8043 3.51913 15.6573 3.51652 15.5123C3.51652 15.4994 3.51587 15.4872 3.51587 15.4743C3.51717 14.641 3.5942 13.8134 3.74302 13.0143L3.74367 13.0155Z" fill="#C9252B"/>
<path d="M3.53503 16.1798C3.67668 16.3674 3.84051 16.5079 3.97432 16.6104C4.20081 16.7831 4.45994 16.9384 4.78957 17.0983C4.8457 17.1253 4.9038 17.1517 4.96254 17.1782C4.97103 18.676 5.19099 20.1358 5.62962 21.3906C5.48929 21.3203 5.35613 21.2488 5.23407 21.1734C5.02455 21.0439 4.86463 20.9214 4.73082 20.7867C4.59897 20.6546 4.51608 20.5373 4.4606 20.4052C4.14468 19.6537 3.90382 18.841 3.74456 17.9883C3.6349 17.4012 3.56571 16.7986 3.53569 16.1792L3.53503 16.1798Z" fill="#C9252B"/>
<path d="M4.82849 21.1836C4.91204 21.2468 5.00342 21.3093 5.10655 21.3731C5.2978 21.491 5.51255 21.6006 5.74753 21.7063C6.1718 22.7968 6.79123 23.8151 7.59669 24.738C7.51771 24.6813 7.4433 24.6233 7.37999 24.5627C6.75403 23.9594 6.19203 23.3111 5.71163 22.635C5.37678 22.1652 5.08436 21.6786 4.82849 21.1836Z" fill="#C9252B"/>
<path d="M12.1499 27.4094C11.7067 27.2683 11.2746 27.1046 10.8647 26.9241C10.0781 26.5761 9.37582 26.1205 8.71069 25.5288C9.61276 25.8375 10.6539 26.0322 11.3856 26.1417C11.7485 26.6966 12.114 27.113 12.5252 27.4269C12.6016 27.4849 12.6825 27.5345 12.7628 27.586C12.5572 27.5313 12.3522 27.4733 12.1505 27.4094H12.1499Z" fill="#C9252B"/>
<path d="M19.6384 27.4097C19.4387 27.4735 19.2383 27.5303 19.0392 27.5831C19.1182 27.5322 19.1984 27.4832 19.2742 27.4259C19.686 27.112 20.0522 26.6956 20.4164 26.1401C21.2206 26.0196 21.9229 25.8726 22.5593 25.6915C22.7499 25.6374 22.9216 25.582 23.0854 25.5259C22.4164 26.1207 21.7108 26.5783 20.9203 26.9264C20.5124 27.1062 20.0816 27.2686 19.6384 27.4097Z" fill="#C9252B"/>
<path d="M26.1025 22.626C25.6214 23.3008 25.0601 23.9485 24.4334 24.5511C24.3643 24.6175 24.2814 24.6813 24.1893 24.7451C25 23.8196 25.6234 22.7968 26.0489 21.7031C26.2865 21.5961 26.5039 21.4859 26.6977 21.3673C26.8054 21.3016 26.9007 21.2365 26.9876 21.1714C26.7317 21.667 26.438 22.1549 26.1012 22.626H26.1025Z" fill="#C9252B"/>
<path d="M27.3542 20.4013C27.2987 20.5321 27.2145 20.6494 27.082 20.7802C26.9475 20.913 26.7856 21.0361 26.5735 21.1663C26.4488 21.243 26.3124 21.3158 26.1688 21.3867C26.6075 20.1312 26.8281 18.6714 26.8366 17.173C26.8973 17.1453 26.9586 17.1182 27.0174 17.0899C27.3489 16.9294 27.6094 16.7747 27.8365 16.6033C28.0226 16.4628 28.1675 16.3229 28.2797 16.1772C28.2504 16.7915 28.1805 17.3999 28.0696 17.9934C27.9103 18.8429 27.6701 19.653 27.3548 20.4013H27.3542Z" fill="#C9252B"/>
</g>
<path d="M0 18.4486C0 16.6671 0.390337 15.0826 1.17101 13.6951C1.95168 12.2905 3.03595 11.2028 4.42382 10.4319C5.82903 9.64398 7.4164 9.25 9.18593 9.25C11.3545 9.25 13.2107 9.81528 14.7547 10.9458C16.2987 12.0764 17.331 13.6181 17.8514 15.5708L13.7145 16.8889C13.3502 16.1352 13.0112 14.8056 11.3978 13.8493C10.7386 13.4553 9.98395 13.2583 9.13389 13.2583C7.76337 13.2583 6.65308 13.7294 5.80301 14.6715C4.95294 15.6137 4.52791 16.8727 4.52791 18.4486C4.52791 20.0245 4.95294 21.2836 5.80301 22.2257C6.65308 23.1678 7.76337 23.6389 9.13389 23.6389C9.98395 23.6389 10.7386 23.4419 11.3978 23.0479C12.7736 22.2257 13.7019 20.7676 14.0662 20.0139L17.8514 21.3264C17.331 23.2792 16.2987 24.8208 14.7547 25.9514C13.2107 27.0648 11.3545 27.6215 9.18593 27.6215C7.4164 27.6215 5.82903 27.2361 4.42382 26.4653C3.03595 25.6773 1.95168 24.5896 1.17101 23.2021C0.390337 21.8146 0 20.2301 0 18.4486Z" fill="white"/>
</g>
<defs>
<clipPath id="clip0_1071_3599">
<rect width="32" height="32" rx="16" fill="white"/>
</clipPath>
<clipPath id="clip1_1071_3599">
<rect width="24.7793" height="25" fill="white" transform="translate(3.51648 3)"/>
</clipPath>
</defs>
</svg>
