<svg width="15" height="24" viewBox="0 0 15 24" fill="none" xmlns="http://www.w3.org/2000/svg">
<path d="M14.7793 4.22157C14.573 4.01531 14.2656 3.94526 13.9913 4.0445L0.503284 8.83898C0.217258 8.94016 0.0207369 9.20284 0.00127929 9.50639C-0.0162325 9.80994 0.147211 10.094 0.419617 10.2283L6.00004 12.9991L8.7708 18.5797C8.89922 18.8385 9.1619 19 9.44792 19C9.46349 19 9.47906 19 9.49268 19C9.79427 18.9825 10.0589 18.784 10.1601 18.498L14.9564 5.00962C15.0536 4.73526 14.9855 4.42783 14.7793 4.22157ZM9.33507 16.3109L7.24338 12.0982C7.20641 12.0243 7.15777 11.9581 7.10134 11.8997L13.0009 6.00004L9.33507 16.3109Z" fill="#AA54CF"/>
</svg>
