<svg width="56" height="56" viewBox="0 0 56 56" fill="none" xmlns="http://www.w3.org/2000/svg">
<mask id="mask0_168_3900" style="mask-type:alpha" maskUnits="userSpaceOnUse" x="11" y="9" width="35" height="38">
<path d="M22.1523 19.3843V14.0548C22.1523 13.5513 22.2564 13.0763 22.4361 12.6393C22.6159 12.2023 22.8807 11.8128 23.2118 11.4898C23.5429 11.1573 23.9307 10.8913 24.3564 10.7108C24.7915 10.5303 25.2645 10.4258 25.7659 10.4258H40.2294C40.7307 10.4258 41.2037 10.5303 41.6388 10.7108C42.074 10.8913 42.4618 11.1573 42.7929 11.4898C43.1145 11.8223 43.3794 12.2118 43.5686 12.6393C43.7483 13.0763 43.8523 13.5513 43.8523 14.0548V41.1678C43.8523 41.6713 43.7483 42.1463 43.5686 42.5833C43.3888 43.0203 43.124 43.4098 42.7929 43.7328C42.4618 44.0653 42.074 44.3218 41.6388 44.5118C41.2037 44.7018 40.7307 44.7968 40.2294 44.7968H25.7659C25.2645 44.7968 24.7915 44.6923 24.3564 44.5118C23.9213 44.3313 23.5334 44.0653 23.2118 43.7328C22.8807 43.4003 22.6159 43.0108 22.4361 42.5833C22.2564 42.1463 22.1523 41.6713 22.1523 41.1678V35.8383" stroke="#FFA600" stroke-width="2" stroke-linecap="round" stroke-linejoin="round"/>
<path d="M31.0732 16.0312H34.9232" stroke="#FFA600" stroke-width="2" stroke-linecap="round" stroke-linejoin="round"/>
<path d="M33.8257 27.9135C33.8257 29.8895 32.2271 31.495 30.2595 31.495H15.9852C14.0176 31.495 12.4189 29.8895 12.4189 27.9135C12.4189 25.9375 14.0176 24.332 15.9852 24.332H30.2595C32.2271 24.332 33.8257 25.9375 33.8257 27.9135Z" stroke="#FFA600" stroke-width="2" stroke-linecap="round" stroke-linejoin="round"/>
</mask>
<g mask="url(#mask0_168_3900)">
<rect x="4.33301" y="4" width="48" height="48" fill="url(#paint0_linear_168_3900)"/>
</g>
<defs>
<linearGradient id="paint0_linear_168_3900" x1="28.333" y1="4" x2="28.333" y2="52" gradientUnits="userSpaceOnUse">
<stop stop-color="#FF710D"/>
<stop offset="1" stop-color="white"/>
</linearGradient>
</defs>
</svg>
