<svg width="14" height="24" viewBox="0 0 14 24" fill="none" xmlns="http://www.w3.org/2000/svg">
<path d="M14 11.9537V10.0463L12.3738 9.82341C12.232 9.17749 11.9787 8.5721 11.6316 8.03257L12.6246 6.72553L11.2745 5.37543L9.96743 6.36837C9.4279 6.02135 8.82504 5.76805 8.17659 5.6262L7.95368 4H6.04632L5.82341 5.6262C5.17749 5.76805 4.5721 6.02135 4.03257 6.36837L2.72553 5.37543L1.37543 6.72553L2.36837 8.03257C2.02135 8.5721 1.76805 9.17496 1.6262 9.82341L0 10.0463V11.9537L1.6262 12.1766C1.76805 12.8225 2.02135 13.4279 2.36837 13.9674L1.37543 15.2745L2.72553 16.6246L4.03257 15.6316C4.5721 15.9787 5.17496 16.232 5.82341 16.3738L6.04632 18H7.95368L8.17659 16.3738C8.82251 16.232 9.4279 15.9787 9.96743 15.6316L11.2745 16.6246L12.6246 15.2745L11.6316 13.9674C11.9787 13.4279 12.232 12.825 12.3738 12.1766L14 11.9537ZM7.0038 13.0859C5.85128 13.0859 4.91659 12.1513 4.91659 10.9987C4.91659 9.84621 5.85128 8.91153 7.0038 8.91153C8.15632 8.91153 9.09101 9.84621 9.09101 10.9987C9.09101 12.1513 8.15632 13.0859 7.0038 13.0859Z" fill="#0169D8"/>
</svg>
