<svg width="20" height="20" viewBox="0 0 20 20" fill="none" xmlns="http://www.w3.org/2000/svg">
<g clip-path="url(#clip0_1071_3568)">
<path d="M18.0796 18.0369L19.8611 14.8965C20.1465 14.397 19.9779 13.7566 19.4849 13.4661C18.9941 13.1756 18.365 13.3494 18.0796 13.849L16.8926 15.9419H4.74152L9.05276 19.7425C9.48302 20.121 10.1317 20.0726 10.5035 19.6346C10.6722 19.4366 10.7543 19.1923 10.7543 18.9502C10.7543 18.6575 10.6354 18.3648 10.3998 18.158C10.3998 18.158 10.2744 18.0501 10.2592 18.0325H18.0796V18.0369Z" fill="#F08300"/>
<path d="M8.45168 3.13184L3.06155 5.03324C2.52534 5.22251 2.24211 5.8189 2.42805 6.36467C2.51237 6.61115 2.67669 6.80701 2.88425 6.92805C3.13506 7.0755 3.44208 7.11511 3.73612 7.01168C3.73612 7.01168 3.88963 6.95666 3.90909 6.95006L0 13.8449L1.78158 16.9853C2.06481 17.487 2.69399 17.6587 3.18695 17.3682C3.67775 17.0799 3.84855 16.4395 3.56315 15.9377L2.37616 13.8449L8.45168 3.13184Z" fill="#005BAC"/>
<path d="M12.6008 0H9.03762C8.46898 0 8.00845 0.46875 8.00845 1.04754C8.00845 1.62632 8.46682 2.09287 9.03762 2.09287H11.4116L17.4893 12.8059L18.566 7.10387C18.6741 6.53609 18.3066 5.98812 17.7488 5.87808C17.4958 5.82967 17.2471 5.87808 17.0417 5.99912C16.7931 6.14657 16.6028 6.39745 16.5445 6.70775C16.5445 6.70775 16.5142 6.8706 16.5099 6.89261L12.6008 0Z" fill="#009A3A"/>
</g>
<defs>
<clipPath id="clip0_1071_3568">
<rect width="20" height="20" fill="white"/>
</clipPath>
</defs>
</svg>
