<svg width="26" height="26" viewBox="0 0 26 26" fill="none" xmlns="http://www.w3.org/2000/svg">
<g opacity="0.6" clip-path="url(#clip0_933_1007)">
<path d="M26 4.63707L0 0V22.0291L22.27 26L26 4.63707Z" fill="#F8991B"/>
<path d="M21.1159 19.3616L18.9115 8.36826L17.1777 8.0625L11.4375 17.6606L13.4897 18.0231L15.0634 15.3745L16.1065 13.5845L17.5421 11.106L18.0526 13.9267L18.1667 14.5524L16.8593 14.3175L15.8523 15.9637L18.5171 16.4437L19.0097 18.993L21.1159 19.3616Z" fill="white"/>
<path d="M11.6582 15.6867L8.86718 15.1967L8.79109 15.1825L7.64386 14.98L4.26222 14.3867L3.2291 16.0715L3.20508 16.2152L7.3075 16.9361L8.49277 17.1447L11.5781 17.6853L12.6713 15.8649L11.6582 15.6867Z" fill="white"/>
<path d="M8.02807 8.46852L8.10415 8.48067L14.5351 9.61057L15.6243 7.78814L8.40248 6.51852C7.11909 6.29375 5.88577 6.91338 5.25308 7.97849C5.06488 8.2964 4.92673 8.65278 4.86066 9.04157C4.79459 9.42833 4.8046 9.81104 4.87668 10.1755C4.96277 10.6149 5.14096 11.028 5.39524 11.3844C5.84572 12.0162 6.53246 12.4799 7.35134 12.6237L7.95199 12.729L10.3666 13.1522L12.2206 13.4782L12.3768 13.217L13.2937 11.6537L8.28635 10.7749L7.88592 10.704L7.72575 10.6757L7.65167 10.6615C7.07104 10.538 6.68463 9.97303 6.78674 9.37771C6.88885 8.78238 7.43944 8.38145 8.02807 8.46447V8.46852Z" fill="white"/>
</g>
<defs>
<clipPath id="clip0_933_1007">
<rect width="26" height="26" fill="white"/>
</clipPath>
</defs>
</svg>
