<svg width="34" height="34" viewBox="0 0 34 34" fill="none" xmlns="http://www.w3.org/2000/svg">
<mask id="mask0_1071_3399" style="mask-type:alpha" maskUnits="userSpaceOnUse" x="1" y="0" width="32" height="34">
<g clip-path="url(#clip0_1071_3399)">
<path d="M22 17C22 19.7626 19.7626 22 17 22C14.2374 22 12 19.7626 12 17C12 14.2374 14.2374 12 17 12C19.7626 12 22 14.2374 22 17Z" stroke="#FF3F63" stroke-width="2" stroke-linecap="round" stroke-linejoin="round"/>
<path d="M30.3205 20.5659L28.5398 19.582C28.7357 18.7525 28.855 17.8905 28.855 17.0041C28.855 16.1177 28.7443 15.2557 28.5398 14.4262L30.3205 13.4422C31.9309 12.5558 32.4761 10.5959 31.5474 9.05896L31.4793 8.93698C30.5506 7.40813 28.4972 6.87954 26.8868 7.76595L25.1828 8.70114C23.8536 7.46506 22.2348 6.5136 20.4285 5.95248V4.20407C20.4285 2.43126 18.9204 1 17.0715 1H16.9266C15.0692 1 13.5697 2.43126 13.5697 4.20407V5.78984C11.6185 6.2859 9.86334 7.22109 8.43193 8.48971L7.11129 7.76595C5.50096 6.87954 3.44757 7.40813 2.51886 8.93698L2.4507 9.05896C1.52199 10.5959 2.07581 12.5558 3.67762 13.4422L4.92158 14.1253C4.67449 15.0442 4.52965 16.0038 4.52965 17.0041C4.52965 18.0043 4.67449 18.9639 4.92158 19.8828L3.67762 20.5659C2.07581 21.4524 1.52199 23.4122 2.4507 24.941L2.51886 25.063C3.44757 26.5919 5.50096 27.1205 7.11129 26.2341L8.43193 25.5022C9.87186 26.7708 11.627 27.7141 13.5697 28.2102V29.7959C13.5697 31.5687 15.0692 33 16.9266 33H17.0715C18.9289 33 20.4285 31.5687 20.4285 29.7959V28.0475C22.2348 27.4864 23.8621 26.5431 25.1828 25.2989L26.8868 26.2341C28.4972 27.1205 30.5506 26.5919 31.4793 25.063L31.5474 24.941C32.4761 23.4122 31.9223 21.4524 30.3205 20.5659Z" stroke="#FF3F63" stroke-width="2" stroke-linecap="round" stroke-linejoin="round"/>
</g>
</mask>
<g mask="url(#mask0_1071_3399)">
<rect width="34" height="34" fill="url(#paint0_linear_1071_3399)"/>
</g>
<defs>
<linearGradient id="paint0_linear_1071_3399" x1="0" y1="0" x2="34" y2="34" gradientUnits="userSpaceOnUse">
<stop stop-color="#FF6900"/>
<stop offset="1" stop-color="#FFC7A0"/>
</linearGradient>
<clipPath id="clip0_1071_3399">
<rect width="32" height="34" fill="white" transform="translate(1)"/>
</clipPath>
</defs>
</svg>
