<svg width="32" height="32" viewBox="0 0 32 32" fill="none" xmlns="http://www.w3.org/2000/svg">
<path d="M25 18.6593V16.3184H7V18.6547C13.068 17.6975 18.9365 17.6975 25 18.6547V18.6593Z" fill="#004993"/>
<path d="M25 21.7864V19.2958C18.9365 18.3386 13.0726 18.334 7 19.2958V21.7728C13.2812 19.627 18.7324 19.6315 25 21.7864Z" fill="#004993"/>
<path d="M25 22.4497C18.7234 20.1723 13.2948 20.1678 7 22.4361V24.9993C13.3628 21.4018 18.6372 21.4063 25 24.9993V22.4452V22.4497Z" fill="#004993"/>
<path d="M25 13.3477V15.6886H7V13.3522C13.068 14.3094 18.9365 14.3094 25 13.3522V13.3477Z" fill="#008AD1"/>
<path d="M25 10.2148V12.7055C18.9365 13.6627 13.0726 13.6672 7 12.7055V10.2285C13.2812 12.3743 18.7324 12.3697 25 10.2148Z" fill="#008AD1"/>
<path d="M25 9.55413C18.7234 11.8315 13.2948 11.8361 7 9.56774V7C13.3628 10.5976 18.6372 10.593 25 7V9.55413Z" fill="#008AD1"/>
</svg>
