<svg width="34" height="34" viewBox="0 0 34 34" fill="none" xmlns="http://www.w3.org/2000/svg">
<path d="M7.336 16.0244V17.938L20.3105 13.8881V18.7423L7.336 21.391V21.3961L5.50446 21.7983V13.2989L7.30527 12.4946L20.3105 6.05469V11.2599L7.336 16.0244Z" fill="url(#paint0_linear_1168_6000)"/>
<path d="M20.3106 6.05664V11.2618L23.6766 13.3085V8.72071L20.3106 6.05664Z" fill="#E83820"/>
<path d="M20.3106 20.4572L23.6766 21.0105V15.6004L20.3106 13.8867V20.4572Z" fill="#E83820"/>
<path d="M5.6557 25.9985L19.3219 25.7397V21.5566L5.6557 23.5444V25.9985Z" fill="#E94921"/>
<path d="M24.9599 16.6441L27.8494 18.386V25.7403H24.9599H20.3106V21.5598L24.9599 22.2489V16.6466V16.6441ZM24.9599 9.68164V14.0517L27.8494 15.7117V11.5362L24.9599 9.6842V9.68164Z" fill="#727171"/>
<defs>
<linearGradient id="paint0_linear_1168_6000" x1="12.9075" y1="6.05725" x2="12.9075" y2="21.8009" gradientUnits="userSpaceOnUse">
<stop offset="0.26" stop-color="#EF836A"/>
<stop offset="0.67" stop-color="#E94921"/>
</linearGradient>
</defs>
</svg>
