<svg width="30" height="23" viewBox="0 0 30 23" fill="none" xmlns="http://www.w3.org/2000/svg">
<g opacity="0.6">
<path d="M6.23225 0.867188L14.6418 16.9859L11.5276 22.9982L0 0.867188H6.23225Z" fill="#224E98"/>
<path d="M16.1014 0.898438L24.4199 16.9868L21.3095 22.9991L9.86914 0.898438H16.1014Z" fill="#538CC3"/>
<path d="M22.986 0.561759C20.3156 1.74071 20.4787 3.49967 17.6148 5.86516C16.7576 6.57405 14.9823 7.99941 12.3992 8.61353C9.50115 9.29967 7.80179 8.46189 7.48316 9.11392C7.05073 10.001 9.61874 12.7948 12.953 13.8601C18.6845 15.6948 24.124 11.6045 24.7044 11.1534C24.7044 11.1534 28.9338 7.8781 29.4193 3.40869C29.4686 2.96516 29.4193 2.63536 29.3624 2.41549C29.1614 1.55117 28.6 1.02424 28.4331 0.872609C27.6669 0.171302 26.7792 0.0803212 26.051 0.0196676C24.6702 -0.094058 23.555 0.311563 22.9822 0.56555L22.986 0.561759Z" fill="#74BDB1"/>
</g>
</svg>
