<svg width="56" height="56" viewBox="0 0 56 56" fill="none" xmlns="http://www.w3.org/2000/svg">
<mask id="mask0_168_3913" style="mask-type:alpha" maskUnits="userSpaceOnUse" x="11" y="9" width="34" height="38">
<g clip-path="url(#clip0_168_3913)">
<path d="M32.0895 27.6361C32.0895 29.9688 30.178 31.8581 27.8177 31.8581C25.4574 31.8581 23.5459 29.9688 23.5459 27.6361C23.5459 25.3033 25.4574 23.4141 27.8177 23.4141C30.178 23.4141 32.0895 25.3033 32.0895 27.6361Z" stroke="#FF3F63" stroke-width="2" stroke-linecap="round" stroke-linejoin="round"/>
<path d="M42.1765 31.5204L40.3009 30.4471C40.5073 29.5424 40.6329 28.6022 40.6329 27.6354C40.6329 26.6686 40.5163 25.7284 40.3009 24.8237L42.1765 23.7504C43.8727 22.7836 44.447 20.646 43.4688 18.9696L43.397 18.8366C42.4188 17.1691 40.256 16.5925 38.5599 17.5593L36.765 18.5794C35.365 17.2312 33.6599 16.1934 31.7573 15.5814V13.6744C31.7573 11.7408 30.1688 10.1797 28.2214 10.1797H28.0688C26.1124 10.1797 24.5329 11.7408 24.5329 13.6744V15.404C22.4778 15.945 20.6291 16.9651 19.1214 18.3488L17.7304 17.5593C16.0342 16.5925 13.8714 17.1691 12.8932 18.8366L12.8214 18.9696C11.8432 20.646 12.4265 22.7836 14.1137 23.7504L15.424 24.4955C15.1637 25.4978 15.0111 26.5444 15.0111 27.6354C15.0111 28.7264 15.1637 29.773 15.424 30.7753L14.1137 31.5204C12.4265 32.4872 11.8432 34.6248 12.8214 36.2923L12.8932 36.4254C13.8714 38.0929 16.0342 38.6694 17.7304 37.7026L19.1214 36.9043C20.6381 38.288 22.4868 39.3169 24.5329 39.858V41.5876C24.5329 43.5212 26.1124 45.0823 28.0688 45.0823H28.2214C30.1778 45.0823 31.7573 43.5212 31.7573 41.5876V39.6806C33.6599 39.0686 35.374 38.0397 36.765 36.6826L38.5599 37.7026C40.256 38.6694 42.4188 38.0929 43.397 36.4254L43.4688 36.2923C44.447 34.6248 43.8637 32.4872 42.1765 31.5204Z" stroke="#FF3F63" stroke-width="2" stroke-linecap="round" stroke-linejoin="round"/>
</g>
</mask>
<g mask="url(#mask0_168_3913)">
<rect x="3.66699" y="4" width="48" height="48" fill="url(#paint0_linear_168_3913)"/>
</g>
<defs>
<linearGradient id="paint0_linear_168_3913" x1="27.667" y1="4" x2="27.667" y2="52" gradientUnits="userSpaceOnUse">
<stop stop-color="#FF710D"/>
<stop offset="1" stop-color="white"/>
</linearGradient>
<clipPath id="clip0_168_3913">
<rect width="34" height="38" fill="white" transform="translate(11 9)"/>
</clipPath>
</defs>
</svg>
