<svg width="56" height="56" viewBox="0 0 56 56" fill="none" xmlns="http://www.w3.org/2000/svg">
<mask id="mask0_1071_3358" style="mask-type:alpha" maskUnits="userSpaceOnUse" x="10" y="10" width="36" height="36">
<g clip-path="url(#clip0_1071_3358)">
<path d="M15.5917 11H40.4083C42.9451 11 45 13.02 45 15.5136V34.4864C45 36.98 42.9451 39 40.4083 39H15.5917C13.0549 39 11 36.98 11 34.4864V15.5136C11 13.02 13.0549 11 15.5917 11Z" stroke="#2B2B2B" stroke-width="2" stroke-linecap="round" stroke-linejoin="round"/>
<path d="M23 39L21 45H35L33 39" stroke="#2B2B2B" stroke-width="2" stroke-linecap="round" stroke-linejoin="round"/>
<path d="M34.2929 33.7071C34.6834 34.0976 35.3166 34.0976 35.7071 33.7071C36.0976 33.3166 36.0976 32.6834 35.7071 32.2929L35 33L34.2929 33.7071ZM30 28L29.2929 28.7071L34.2929 33.7071L35 33L35.7071 32.2929L30.7071 27.2929L30 28Z" fill="#FF3E3E"/>
<path d="M32 23.9976C32 27.3114 29.3114 30 25.9976 30C22.6838 30 20 27.3114 20 23.9976C20 20.6838 22.6838 18 25.9976 18C29.3114 18 32 20.6838 32 23.9976Z" stroke="#2B2B2B" stroke-width="2" stroke-linecap="round" stroke-linejoin="round"/>
</g>
</mask>
<g mask="url(#mask0_1071_3358)">
<rect x="4" y="4" width="48" height="48" fill="url(#paint0_linear_1071_3358)"/>
</g>
<defs>
<linearGradient id="paint0_linear_1071_3358" x1="4" y1="4" x2="52" y2="52" gradientUnits="userSpaceOnUse">
<stop stop-color="#FF6900"/>
<stop offset="1" stop-color="#FFC7A0"/>
</linearGradient>
<clipPath id="clip0_1071_3358">
<rect width="36" height="36" fill="white" transform="translate(10 10)"/>
</clipPath>
</defs>
</svg>
