<svg width="120" height="120" viewBox="0 0 120 120" fill="none" xmlns="http://www.w3.org/2000/svg">
<g opacity="0.5" clip-path="url(#clip0_168_2857)">
<path d="M104.088 104.087C112.876 95.2987 100.261 68.4358 75.9124 44.0869C51.5635 19.738 24.7006 7.1236 15.9124 15.9118C7.12424 24.7 19.7387 51.5629 44.0876 75.9118C68.4365 100.261 95.2994 112.875 104.088 104.087Z" stroke="url(#paint0_linear_168_2857)" stroke-miterlimit="10"/>
<path d="M99.8889 104.087C108.679 96.1336 97.9455 69.9492 75.9156 45.6024C53.8857 21.2556 28.9014 7.96616 20.1116 15.9195C11.3218 23.8729 22.055 50.0573 44.0849 74.404C66.1148 98.7508 91.0991 112.04 99.8889 104.087Z" stroke="url(#paint1_linear_168_2857)" stroke-miterlimit="10"/>
<path d="M95.6887 104.088C104.477 96.9738 95.6239 71.4683 75.9141 47.1201C56.2043 22.7718 33.1018 8.80098 24.3133 15.9153C15.5247 23.0296 24.3781 48.535 44.0879 72.8833C63.7976 97.2315 86.9001 111.202 95.6887 104.088Z" stroke="url(#paint2_linear_168_2857)" stroke-miterlimit="10"/>
<path d="M91.4935 104.082C100.282 97.8038 93.3065 72.9767 75.9137 48.6288C58.5208 24.2808 37.2968 9.63222 28.5084 15.9102C19.7201 22.1881 26.6954 47.0152 44.0883 71.3631C61.4811 95.7111 82.7052 110.36 91.4935 104.082Z" stroke="url(#paint3_linear_168_2857)" stroke-miterlimit="10"/>
<path d="M87.2903 104.087C96.079 98.6466 90.9851 74.4987 75.9127 50.1514C60.8403 25.8042 41.497 10.4774 32.7083 15.9182C23.9196 21.3589 29.0135 45.5069 44.0859 69.8541C59.1583 94.2013 78.5016 109.528 87.2903 104.087Z" stroke="url(#paint4_linear_168_2857)" stroke-miterlimit="10"/>
<path d="M83.0983 104.082C91.887 99.4777 88.6713 76.0078 75.9159 51.6605C63.1604 27.3133 45.6953 11.3086 36.9066 15.913C28.1178 20.5174 31.3335 43.9873 44.089 68.3346C56.8445 92.6818 74.3096 108.687 83.0983 104.082Z" stroke="url(#paint5_linear_168_2857)" stroke-miterlimit="10"/>
<path d="M78.8953 104.088C87.6845 100.321 86.3495 77.5288 75.9137 53.18C65.4778 28.8313 49.8928 12.1465 41.1036 15.9136C32.3145 19.6806 33.6494 42.4729 44.0853 66.8217C54.5212 91.1704 70.1062 107.855 78.8953 104.088Z" stroke="url(#paint6_linear_168_2857)" stroke-miterlimit="10"/>
<path d="M74.6948 104.09C65.907 107.021 52.2024 89.6565 44.0875 65.3064C35.9727 40.9563 36.5178 18.8476 45.3056 15.9164C54.0935 12.9853 67.7981 30.3497 75.9185 54.6998C84.0333 79.0499 83.4883 101.159 74.7004 104.09H74.6948Z" stroke="url(#paint7_linear_168_2857)" stroke-miterlimit="10"/>
<path d="M70.5015 104.088C61.7137 106.179 49.889 88.1366 44.0935 63.792C38.2979 39.4419 40.7229 18.0118 49.5108 15.9149C58.2986 13.8236 70.1233 31.8665 75.9188 56.2111C81.7144 80.5612 79.2893 101.991 70.5015 104.088Z" stroke="url(#paint8_linear_168_2857)" stroke-miterlimit="10"/>
<path d="M66.3025 104.089C57.5147 105.346 47.5699 86.6241 44.0882 62.2739C40.612 37.9238 44.9169 17.1722 53.7048 15.9152C62.4926 14.6582 72.4373 33.3797 75.9191 57.7298C79.3953 82.08 75.0904 102.832 66.3025 104.089Z" stroke="url(#paint9_linear_168_2857)" stroke-miterlimit="10"/>
<path d="M62.1025 104.09C53.3146 104.507 45.2498 85.1072 44.0874 60.7626C42.9305 36.4125 49.1154 16.3395 57.9032 15.9168C66.6911 15.4996 74.7559 34.8996 75.9183 59.2442C77.0752 83.5943 70.8903 103.667 62.1025 104.09Z" stroke="url(#paint10_linear_168_2857)" stroke-miterlimit="10"/>
<path d="M57.9032 104.09C49.1154 103.673 42.9305 83.5943 44.0874 59.2442C45.2498 34.8941 53.3146 15.4996 62.1025 15.9168C70.8903 16.3339 77.0752 36.4125 75.9183 60.7626C74.7614 85.1127 66.6966 104.507 57.9032 104.09Z" stroke="url(#paint11_linear_168_2857)" stroke-miterlimit="10"/>
<path d="M53.7048 104.089C44.9169 102.832 40.612 82.0744 44.0882 57.7298C47.5644 33.3797 57.5091 14.6582 66.3025 15.9152C75.0904 17.1722 79.3953 37.9294 75.9191 62.2739C72.4429 86.6241 62.4982 105.34 53.7048 104.089Z" stroke="url(#paint12_linear_168_2857)" stroke-miterlimit="10"/>
<path d="M49.5049 104.088C40.7171 101.997 38.2921 80.5613 44.0876 56.2111C49.8831 31.861 61.7078 13.8237 70.5012 15.9149C79.2891 18.0062 81.7141 39.4419 75.9185 63.792C70.123 88.1422 58.2983 106.18 49.5105 104.088H49.5049Z" stroke="url(#paint13_linear_168_2857)" stroke-miterlimit="10"/>
<path d="M45.3056 104.09C36.5178 101.159 35.9727 79.0444 44.0875 54.6998C52.2024 30.3497 65.907 12.9853 74.6948 15.9164C83.4827 18.8476 84.0278 40.9618 75.9129 65.3064C67.7981 89.6565 54.0935 107.015 45.3056 104.09Z" stroke="url(#paint14_linear_168_2857)" stroke-miterlimit="10"/>
<path d="M41.1062 104.091C32.3183 100.325 33.6532 77.5323 44.0874 53.1822C54.5216 28.8321 70.1061 12.1518 78.8939 15.9173C87.6818 19.6827 86.3469 42.4755 75.9128 66.8256C65.4786 91.1757 49.894 107.856 41.1062 104.091Z" stroke="url(#paint15_linear_168_2857)" stroke-miterlimit="10"/>
<path d="M36.907 104.088C28.1191 99.4827 31.3339 76.0114 44.0874 51.6668C56.8409 27.3167 74.3054 11.3094 83.0932 15.9147C91.8811 20.52 88.6663 43.9913 75.9128 68.3359C63.1593 92.686 45.6948 108.688 36.907 104.088Z" stroke="url(#paint16_linear_168_2857)" stroke-miterlimit="10"/>
<path d="M32.7132 104.09C23.9254 98.6508 29.0201 74.5009 44.0929 50.1508C59.1602 25.8007 78.5046 10.4775 87.2924 15.9171C96.0803 21.3567 90.9856 45.5066 75.9127 69.8567C60.8399 94.2068 41.4955 109.53 32.7076 104.09H32.7132Z" stroke="url(#paint17_linear_168_2857)" stroke-miterlimit="10"/>
<path d="M28.5144 104.088C19.7265 97.8082 26.7012 72.9797 44.0878 48.6352C61.4799 24.285 82.7043 9.63491 91.4921 15.9143C100.28 22.1938 93.3053 47.0222 75.9131 71.3668C58.521 95.7169 37.2967 110.361 28.5088 104.088H28.5144Z" stroke="url(#paint18_linear_168_2857)" stroke-miterlimit="10"/>
<path d="M24.3152 104.091C15.5273 96.9776 24.3819 71.4705 44.0879 47.1204C63.7993 22.7703 86.9036 8.80427 95.6914 15.918C104.479 23.0317 95.6247 48.5387 75.9188 72.8888C56.2073 97.239 33.103 111.205 24.3152 104.091Z" stroke="url(#paint19_linear_168_2857)" stroke-miterlimit="10"/>
<path d="M20.1159 104.087C11.3281 96.1339 22.0626 69.9483 44.0879 45.6038C66.1187 21.2536 91.1029 7.96061 99.8907 15.9142C108.679 23.8677 97.944 50.0533 75.9188 74.3979C53.888 98.748 28.9038 112.035 20.1159 104.087Z" stroke="url(#paint20_linear_168_2857)" stroke-miterlimit="10"/>
<path d="M75.9186 75.9163C51.5685 100.266 24.7099 112.875 15.9165 104.087C7.12863 95.2996 19.7431 68.4355 44.0877 44.0853C68.4378 19.7352 95.3019 7.12631 104.09 15.9142C112.878 24.702 100.263 51.5661 75.9186 75.9163Z" stroke="url(#paint21_linear_168_2857)" stroke-miterlimit="10"/>
</g>
<defs>
<linearGradient id="paint0_linear_168_2857" x1="15.9124" y1="15.9118" x2="104.088" y2="104.087" gradientUnits="userSpaceOnUse">
<stop stop-color="#FF710D"/>
<stop offset="1" stop-color="white"/>
</linearGradient>
<linearGradient id="paint1_linear_168_2857" x1="20.1116" y1="15.9195" x2="99.8889" y2="104.087" gradientUnits="userSpaceOnUse">
<stop stop-color="#FF710D"/>
<stop offset="1" stop-color="white"/>
</linearGradient>
<linearGradient id="paint2_linear_168_2857" x1="24.3133" y1="15.9153" x2="95.6887" y2="104.088" gradientUnits="userSpaceOnUse">
<stop stop-color="#FF710D"/>
<stop offset="1" stop-color="white"/>
</linearGradient>
<linearGradient id="paint3_linear_168_2857" x1="28.5084" y1="15.9101" x2="91.4935" y2="104.082" gradientUnits="userSpaceOnUse">
<stop stop-color="#FF710D"/>
<stop offset="1" stop-color="white"/>
</linearGradient>
<linearGradient id="paint4_linear_168_2857" x1="32.7083" y1="15.9182" x2="87.2903" y2="104.087" gradientUnits="userSpaceOnUse">
<stop stop-color="#FF710D"/>
<stop offset="1" stop-color="white"/>
</linearGradient>
<linearGradient id="paint5_linear_168_2857" x1="36.9066" y1="15.913" x2="83.0983" y2="104.082" gradientUnits="userSpaceOnUse">
<stop stop-color="#FF710D"/>
<stop offset="1" stop-color="white"/>
</linearGradient>
<linearGradient id="paint6_linear_168_2857" x1="41.1036" y1="15.9136" x2="78.8953" y2="104.088" gradientUnits="userSpaceOnUse">
<stop stop-color="#FF710D"/>
<stop offset="1" stop-color="white"/>
</linearGradient>
<linearGradient id="paint7_linear_168_2857" x1="60.003" y1="15.5937" x2="60.003" y2="104.412" gradientUnits="userSpaceOnUse">
<stop stop-color="#FF710D"/>
<stop offset="1" stop-color="white"/>
</linearGradient>
<linearGradient id="paint8_linear_168_2857" x1="60.0061" y1="15.75" x2="60.0061" y2="104.253" gradientUnits="userSpaceOnUse">
<stop stop-color="#FF710D"/>
<stop offset="1" stop-color="white"/>
</linearGradient>
<linearGradient id="paint9_linear_168_2857" x1="60.0036" y1="15.8555" x2="60.0036" y2="104.148" gradientUnits="userSpaceOnUse">
<stop stop-color="#FF710D"/>
<stop offset="1" stop-color="white"/>
</linearGradient>
<linearGradient id="paint10_linear_168_2857" x1="60.0028" y1="15.9102" x2="60.0028" y2="104.097" gradientUnits="userSpaceOnUse">
<stop stop-color="#FF710D"/>
<stop offset="1" stop-color="white"/>
</linearGradient>
<linearGradient id="paint11_linear_168_2857" x1="60.0028" y1="15.9102" x2="60.0028" y2="104.097" gradientUnits="userSpaceOnUse">
<stop stop-color="#FF710D"/>
<stop offset="1" stop-color="white"/>
</linearGradient>
<linearGradient id="paint12_linear_168_2857" x1="60.0036" y1="15.8555" x2="60.0036" y2="104.148" gradientUnits="userSpaceOnUse">
<stop stop-color="#FF710D"/>
<stop offset="1" stop-color="white"/>
</linearGradient>
<linearGradient id="paint13_linear_168_2857" x1="60.0031" y1="15.75" x2="60.0031" y2="104.253" gradientUnits="userSpaceOnUse">
<stop stop-color="#FF710D"/>
<stop offset="1" stop-color="white"/>
</linearGradient>
<linearGradient id="paint14_linear_168_2857" x1="60.0002" y1="15.5937" x2="60.0002" y2="104.411" gradientUnits="userSpaceOnUse">
<stop stop-color="#FF710D"/>
<stop offset="1" stop-color="white"/>
</linearGradient>
<linearGradient id="paint15_linear_168_2857" x1="60.0001" y1="15.3867" x2="60.0001" y2="104.621" gradientUnits="userSpaceOnUse">
<stop stop-color="#FF710D"/>
<stop offset="1" stop-color="white"/>
</linearGradient>
<linearGradient id="paint16_linear_168_2857" x1="60.0001" y1="15.125" x2="60.0001" y2="104.876" gradientUnits="userSpaceOnUse">
<stop stop-color="#FF710D"/>
<stop offset="1" stop-color="white"/>
</linearGradient>
<linearGradient id="paint17_linear_168_2857" x1="60.0028" y1="14.8203" x2="60.0028" y2="105.187" gradientUnits="userSpaceOnUse">
<stop stop-color="#FF710D"/>
<stop offset="1" stop-color="white"/>
</linearGradient>
<linearGradient id="paint18_linear_168_2857" x1="60.0032" y1="14.4609" x2="60.0032" y2="105.539" gradientUnits="userSpaceOnUse">
<stop stop-color="#FF710D"/>
<stop offset="1" stop-color="white"/>
</linearGradient>
<linearGradient id="paint19_linear_168_2857" x1="60.0033" y1="14.0625" x2="60.0033" y2="105.947" gradientUnits="userSpaceOnUse">
<stop stop-color="#FF710D"/>
<stop offset="1" stop-color="white"/>
</linearGradient>
<linearGradient id="paint20_linear_168_2857" x1="60.0033" y1="13.6094" x2="60.0033" y2="106.39" gradientUnits="userSpaceOnUse">
<stop stop-color="#FF710D"/>
<stop offset="1" stop-color="white"/>
</linearGradient>
<linearGradient id="paint21_linear_168_2857" x1="60.0031" y1="13.1172" x2="60.0031" y2="106.884" gradientUnits="userSpaceOnUse">
<stop stop-color="#FF710D"/>
<stop offset="1" stop-color="white"/>
</linearGradient>
<clipPath id="clip0_168_2857">
<rect width="120" height="120" fill="white"/>
</clipPath>
</defs>
</svg>
