<svg width="26" height="26" viewBox="0 0 26 26" fill="none" xmlns="http://www.w3.org/2000/svg">
<g opacity="0.6" clip-path="url(#clip0_933_1025)">
<path d="M18.6208 15.5097C19.3158 15.0714 19.72 14.4485 19.7295 13.8019C19.739 13.1996 19.4189 12.6488 18.8277 12.2494C18.7326 12.1852 18.6343 12.1258 18.5336 12.0695C18.4829 12.0418 18.4314 12.0148 18.3791 11.9879C18.1794 11.8864 17.971 11.7985 17.753 11.7224C17.7435 11.7192 17.7332 11.716 17.7237 11.7129C16.8567 11.4149 15.8566 11.3055 14.9001 11.3008C15.03 11.4054 15.1267 11.4918 15.187 11.5472L15.5293 11.865C16.0983 11.9062 16.6412 11.991 17.1293 12.1313C17.2379 12.163 17.3433 12.1979 17.4463 12.2343C17.6365 12.3025 17.818 12.3786 17.9868 12.4657C18.0138 12.48 18.0407 12.4959 18.0677 12.5101C18.1445 12.5529 18.2198 12.5973 18.2911 12.6448C18.647 12.8802 18.8411 13.1806 18.8356 13.4888C18.8292 13.8478 18.5542 14.2068 18.0994 14.5048C17.0913 15.1658 15.5919 14.9771 15.1489 14.9272C15.1489 14.9272 15.0816 14.9137 15.053 14.9502C15.0245 14.9874 15.0451 15.0223 15.053 15.0421C15.3534 15.7752 15.4873 16.8593 15.1782 17.4394C14.9492 17.8697 14.5482 18.1463 14.0965 18.2446C13.6487 18.3413 13.1835 18.243 12.7857 17.9656C11.8522 17.3158 11.3767 16.2237 11.1413 15.1444C10.94 15.2498 10.7403 15.3496 10.543 15.4423C10.6563 16.0946 10.9162 16.7888 11.1421 17.2421C11.4623 17.884 11.9076 18.4665 12.5234 18.9039C13.1067 19.3176 13.7977 19.4642 14.469 19.3168C15.1434 19.1678 15.7124 18.7407 16.0714 18.1146C16.3321 17.6597 16.4557 17.1391 16.4407 16.6144C16.4359 16.4496 16.4145 16.284 16.382 16.1199C17.1935 16.1152 17.9979 15.902 18.62 15.5089L18.6208 15.5097Z" fill="#F6AB00"/>
<path d="M12.1548 12.0418C12.6754 11.9642 13.651 11.8397 14.5845 11.8263C14.6083 11.7985 14.6321 11.7708 14.6543 11.7431C14.4966 11.6052 14.3238 11.4752 14.1431 11.3516C13.3483 11.3595 12.3997 11.4998 12.0938 11.5457C12.0969 11.5735 12.0993 11.6004 12.1017 11.6273C12.1175 11.7668 12.1358 11.9055 12.1556 12.0418H12.1548Z" fill="#F6AB00"/>
<path d="M10.9314 13.3454C10.918 12.8961 10.933 12.5165 10.9497 12.2613C11.0535 12.2383 11.2524 12.1987 11.3887 12.1718C11.3618 12.0125 11.338 11.8492 11.3166 11.6836C11.0598 11.7359 10.8585 11.7819 10.7317 11.8128L10.4393 11.8825L10.4092 12.1813C10.3838 12.4285 10.3402 12.9833 10.3608 13.6854C10.368 13.9477 10.3854 14.2314 10.4155 14.5263C10.6025 14.4454 10.7927 14.3582 10.9821 14.2679C10.9505 13.9731 10.9378 13.5539 10.9322 13.3439L10.9314 13.3454Z" fill="#F6AB00"/>
<path d="M18.479 16.7203C17.9829 16.4651 17.4472 16.5531 17.2839 16.9153C17.1207 17.2782 17.3909 17.7783 17.8878 18.0335C18.3847 18.2886 18.9196 18.2007 19.0829 17.8385C19.2461 17.4763 18.9759 16.9747 18.479 16.7203Z" fill="#F6AB00"/>
<path d="M6.48771 13.0076C6.46314 12.7017 5.95436 12.4838 5.35286 12.5194C4.75057 12.5559 4.283 12.8333 4.30757 13.1392C4.33293 13.4443 4.84091 13.663 5.4432 13.6266C6.0455 13.5901 6.51306 13.3135 6.4885 13.0076H6.48771Z" fill="#E62E8B"/>
<path d="M15.5296 11.8648L15.1873 11.547C15.1278 11.4915 15.0303 11.4051 14.9004 11.3005C14.8489 11.2593 14.7934 11.2149 14.7316 11.1682C14.1958 10.7592 13.2678 10.1736 12.068 9.85343C12.0577 9.96596 12.049 10.0793 12.045 10.1934C12.0419 10.2608 12.0419 10.3273 12.0403 10.3947C12.6869 10.5556 13.4747 10.8963 14.1428 11.3489C14.3234 11.4717 14.4962 11.6025 14.6539 11.7403C14.6317 11.7681 14.6079 11.7958 14.5842 11.8236C14.5747 11.8339 14.5667 11.845 14.5572 11.8561C14.1055 12.3728 13.359 12.9441 12.4429 13.487C12.2241 13.617 11.9999 13.7438 11.7724 13.8658C11.5117 14.0061 11.2462 14.1408 10.9815 14.2668C10.7921 14.3572 10.6019 14.4443 10.4149 14.5252C8.81009 15.2218 7.35983 15.5427 7.16092 14.9349C6.99846 14.3033 8.02869 13.4133 9.76821 12.7016C9.76821 12.7016 9.84112 12.6755 9.83557 12.6232C9.83002 12.5717 9.75157 12.5653 9.75157 12.5653C9.75157 12.5653 9.25388 12.5154 8.73639 12.3791C8.207 12.2404 7.86861 11.9971 7.82265 11.6912C7.74895 11.2046 8.42494 10.5381 9.61843 10.3345C10.1843 10.2378 10.7176 10.2283 11.2153 10.2766C11.2137 10.0793 11.2161 9.88196 11.228 9.68542C10.6019 9.60063 9.91878 9.59746 9.18969 9.72505C7.71249 9.98419 6.64422 10.9074 6.64422 11.8814C6.64422 11.9488 6.64897 12.0161 6.65927 12.0827C6.72426 12.5106 6.99133 12.8736 7.40818 13.1304C6.80826 13.5353 6.32167 14.0029 6.04826 14.4586C5.85173 14.7859 5.78516 15.0617 5.78516 15.2867C5.78516 15.553 5.87867 15.7464 5.96188 15.8645C6.52613 16.7108 8.40592 16.4525 10.5441 15.4437C10.7422 15.3509 10.9411 15.2511 11.1424 15.1457C11.4285 14.9951 11.7185 14.8319 12.0078 14.6575C12.2178 14.5307 12.427 14.3984 12.6362 14.2605C13.653 13.5876 14.6531 12.7785 15.5304 11.8679V11.8664L15.5296 11.8648Z" fill="#E62E8B"/>
<path d="M18.6163 9.72638C18.3826 9.18828 17.9348 8.79758 17.3555 8.6264C16.792 8.45998 16.1588 8.51941 15.5676 8.77935C15.467 8.06532 15.1944 7.40914 14.7878 6.94315C14.3385 6.42962 13.7774 6.18949 13.2068 6.26874C12.6053 6.35196 12.0728 6.79337 11.7463 7.48046C11.4269 8.15249 11.2739 8.9117 11.228 9.68437C11.2161 9.88091 11.2137 10.0782 11.2153 10.2756C11.2153 10.3643 11.2153 10.4515 11.2185 10.5395C11.228 10.8367 11.2509 11.1307 11.2826 11.4191C11.2922 11.5071 11.3048 11.5935 11.3159 11.6807C11.3381 11.8455 11.3611 12.0095 11.388 12.1688C11.3928 12.1989 11.3968 12.2291 11.4023 12.2592C11.4927 12.783 11.6575 13.4376 11.7716 13.8648C11.9991 13.7427 12.2241 13.6159 12.4421 13.4859C12.3636 13.1697 12.2867 12.8218 12.221 12.4525C12.1972 12.317 12.1742 12.1783 12.1536 12.0381C12.1338 11.9018 12.1156 11.7631 12.0997 11.6236C12.0973 11.5967 12.0949 11.5697 12.0918 11.542C12.0751 11.3851 12.0617 11.2266 12.0522 11.0665C12.0418 10.8882 12.0355 10.7091 12.0355 10.53C12.0355 10.484 12.0379 10.4388 12.0387 10.3937C12.0395 10.3271 12.0403 10.2597 12.0434 10.1924C12.0482 10.0782 12.0569 9.96492 12.0664 9.85238C12.1195 9.26594 12.2479 8.72071 12.4872 8.23095C12.6893 7.81885 12.9841 7.55812 13.2987 7.51533C13.5769 7.47808 13.8701 7.6136 14.1261 7.8981C14.5255 8.34269 14.7577 9.30477 14.7236 10.5228C14.7205 10.6401 14.7886 10.6409 14.856 10.5846C14.936 10.5189 15.1191 10.3612 15.4083 10.163C15.9552 9.78898 16.5804 9.63365 17.0987 9.78502C17.4379 9.88408 17.6883 10.0981 17.8231 10.4024C17.892 10.5593 17.9261 10.7336 17.9261 10.9151C17.9261 11.1719 17.8579 11.4453 17.724 11.7116C17.7335 11.7147 17.7438 11.7179 17.7533 11.7211C17.9705 11.7964 18.1797 11.8851 18.3794 11.9866C18.4206 11.916 18.4602 11.8447 18.4967 11.7718C18.8398 11.0863 18.8834 10.3406 18.6163 9.72717V9.72638Z" fill="#6FBA2C"/>
<path d="M17.4455 12.2344C16.9264 12.9104 16.0476 13.5008 15.538 13.7718C14.4982 14.3234 13.403 14.6007 12.8007 14.722C12.7611 14.6309 12.6906 14.4272 12.6343 14.2592C12.4251 14.3971 12.2159 14.5302 12.0059 14.6562C12.0629 14.8266 12.1128 14.9669 12.1461 15.0564L12.2674 15.3853L12.6129 15.329C13.0298 15.2617 14.3968 15.0002 15.7583 14.3123C16.4993 13.9374 17.4376 13.3011 18.0668 12.5102C18.0399 12.4959 18.0137 12.48 17.986 12.4658C17.8172 12.3778 17.6365 12.3025 17.4455 12.2344Z" fill="#6FBA2C"/>
<path d="M16.0425 7.93431C16.3991 8.01356 16.858 7.68626 17.0672 7.20285C17.2756 6.71943 17.1559 6.26295 16.7985 6.1837C16.4419 6.10446 15.9831 6.43175 15.7746 6.91517C15.5654 7.39859 15.6859 7.85427 16.0433 7.93352L16.0425 7.93431Z" fill="#6FBA2C"/>
<path d="M26 13C26 20.1792 20.18 26 13 26C5.82004 26 0 20.1792 0 13C0 5.82084 5.82004 0 13 0C20.18 0 26 5.82084 26 13ZM13 3.6296C7.82504 3.6296 3.6296 7.82504 3.6296 13.0008C3.6296 18.1765 7.82504 22.3712 13 22.3712C18.175 22.3712 22.3712 18.1758 22.3712 13.0008C22.3712 7.82584 18.1757 3.6296 13 3.6296Z" fill="#C09B30"/>
<path d="M1.11708 14.5092C1.07825 14.5123 1.06319 14.5068 1.0521 14.4775C1.02912 14.4259 1.00217 14.2358 0.993453 14.1296C0.983151 13.998 0.982358 13.8213 1.04814 13.6905C1.11233 13.5693 1.21852 13.509 1.33422 13.4995C1.52521 13.4837 1.65043 13.6152 1.71224 13.7214C1.72334 13.7373 1.73126 13.7547 1.73998 13.7729C1.74315 13.7539 1.74394 13.7373 1.74711 13.719C1.78515 13.4765 1.94127 13.3434 2.14653 13.326C2.5919 13.2895 2.63628 13.8316 2.64976 14.002C2.66244 14.1589 2.65847 14.3055 2.64817 14.3451C2.64104 14.3784 2.63074 14.3839 2.57526 14.3887L1.11708 14.5084V14.5092ZM1.73522 14.2334C1.73205 14.162 1.7273 14.1058 1.717 14.04C1.66945 13.7444 1.47529 13.723 1.39445 13.7301C1.09727 13.7547 1.12104 14.0448 1.12738 14.1185C1.13293 14.1811 1.14165 14.2342 1.15274 14.2809L1.73602 14.2334H1.73522ZM2.51503 14.1692C2.51583 14.1248 2.51741 14.0598 2.51028 13.9766C2.49047 13.7301 2.38744 13.5479 2.15841 13.5661C2.03875 13.5756 1.96901 13.6311 1.93493 13.6683C1.82398 13.784 1.83032 13.9441 1.84062 14.0733C1.84538 14.1359 1.85013 14.1676 1.85727 14.2223L2.51503 14.1684V14.1692Z" fill="white"/>
<path d="M1.95339 12.7489C2.27831 12.7466 2.43601 12.5896 2.44473 12.4137C2.45186 12.275 2.37816 12.1672 2.2577 12.0848C2.20381 12.0492 2.19272 12.042 2.1943 12.0143C2.1943 12.0008 2.20302 11.9683 2.25136 11.9707C2.31159 11.9739 2.65078 12.0928 2.63334 12.4525C2.62621 12.5912 2.56123 12.7759 2.34329 12.8694C2.22521 12.9241 2.09287 12.9312 1.9835 12.9257C1.81708 12.9177 1.69821 12.8789 1.61499 12.829C1.56745 12.8012 1.36536 12.6729 1.37963 12.3884C1.39785 12.023 1.71881 11.9596 1.81312 11.9652C1.8781 11.9683 1.88048 12.008 1.88365 12.0357L1.9526 12.7481L1.95339 12.7489ZM1.78221 12.1871C1.63322 12.1934 1.51752 12.2901 1.51118 12.4216C1.50167 12.6087 1.64035 12.7109 1.84085 12.7442L1.783 12.1879L1.78221 12.1871Z" fill="white"/>
<path d="M2.07947 11.0687C2.15871 10.9601 2.26253 10.8127 2.4765 10.8484C2.57239 10.8643 2.66274 10.9189 2.71266 10.9974C2.78082 11.1068 2.76497 11.2312 2.75546 11.2882C2.70474 11.5941 2.49869 11.652 2.43212 11.6409C2.36872 11.6306 2.34178 11.5767 2.3497 11.5307C2.35842 11.4808 2.40122 11.4594 2.4242 11.4491C2.43688 11.4436 2.45352 11.4372 2.48126 11.4277C2.53673 11.4047 2.60885 11.3667 2.62787 11.2502C2.64768 11.129 2.56764 11.06 2.48284 11.0457C2.34336 11.0228 2.26966 11.1321 2.20468 11.2248C2.08422 11.3976 1.98278 11.5426 1.77277 11.5078C1.6111 11.4808 1.474 11.3413 1.51521 11.0925C1.55801 10.8318 1.73156 10.7628 1.80447 10.7747C1.85915 10.7842 1.88451 10.8278 1.87738 10.8738C1.86787 10.9332 1.82508 10.9475 1.78307 10.9609C1.73552 10.9792 1.64914 11.0069 1.63092 11.1171C1.61031 11.2399 1.70303 11.3049 1.7696 11.316C1.89719 11.3374 1.96535 11.2359 2.01607 11.1599L2.07788 11.0695L2.07947 11.0687Z" fill="white"/>
<path d="M1.88082 10.0228L2.60832 10.213C2.70263 10.236 2.72719 10.2423 2.77633 10.2289C2.82943 10.2162 2.87143 10.1821 2.88965 10.1148C2.89203 10.106 2.90075 10.0656 2.90233 10.0561C2.91264 10.0157 2.94592 10.0197 2.9586 10.0228C3.01645 10.0387 3.0006 10.1655 2.98713 10.217C2.95939 10.3248 2.8952 10.3937 2.82309 10.4254C2.73987 10.4587 2.66538 10.4421 2.59643 10.423L1.82851 10.2217L1.7976 10.3406C1.79047 10.3699 1.78651 10.3739 1.75481 10.366C1.69696 10.3501 1.6922 10.3493 1.69934 10.3153L1.73024 10.1964L1.59552 10.1615C1.55431 10.1512 1.54559 10.1417 1.52578 10.1076L1.4608 9.98082C1.44653 9.95309 1.44415 9.94278 1.44574 9.93644C1.45129 9.91426 1.4814 9.91901 1.50835 9.92693L1.78175 9.99826L1.83247 9.80331C1.83961 9.77636 1.84357 9.76844 1.87289 9.77636C1.93312 9.79221 1.94025 9.7938 1.93153 9.82708L1.88002 10.0236L1.88082 10.0228Z" fill="white"/>
<path d="M2.731 8.53646L3.40382 8.83999C3.44424 8.85821 3.4379 8.87089 3.42522 8.90022L3.37054 9.02068C3.35548 9.05475 3.35072 9.06505 3.31268 9.04762L1.9076 8.41363C1.87194 8.39699 1.86481 8.38431 1.8759 8.3534L2.20399 7.62589C2.21905 7.59736 2.2246 7.58627 2.25154 7.59895C2.28086 7.61242 2.32366 7.63144 2.33079 7.63778C2.34585 7.64412 2.35932 7.65284 2.34109 7.68771L2.08908 8.24641L2.59786 8.47544L2.80945 8.0055C2.82293 7.97617 2.83006 7.96666 2.86334 7.98172C2.8887 7.99282 2.9307 8.01184 2.93625 8.01738C2.95606 8.02848 2.95369 8.04037 2.94259 8.06573L2.7302 8.53567L2.731 8.53646Z" fill="white"/>
<path d="M4.02163 7.24594C4.11039 7.30142 4.15397 7.34025 4.15001 7.43772C4.14525 7.53679 4.0882 7.66438 4.03748 7.75076C4.00578 7.80465 3.83143 8.09945 3.5604 7.93858C3.33137 7.80306 3.39714 7.54154 3.49224 7.16749L3.3908 7.10726C3.31314 7.06129 3.17762 6.98125 3.08966 7.13024C3.0215 7.24594 3.08966 7.3347 3.12057 7.37433C3.14989 7.41078 3.18793 7.45516 3.15306 7.5146C3.13641 7.54233 3.0857 7.58275 3.0223 7.54471C2.90263 7.47418 2.8741 7.25545 2.99931 7.04227C3.17287 6.74905 3.38684 6.87347 3.49383 6.93449L4.02163 7.24673V7.24594ZM3.58655 7.22296C3.5279 7.48131 3.48828 7.6517 3.64202 7.74283C3.65787 7.75234 3.83143 7.85457 3.95109 7.6517C4.04302 7.49637 3.95268 7.4401 3.89879 7.4084L3.58655 7.22375V7.22296Z" fill="white"/>
<path d="M3.68887 6.40421C3.62785 6.35428 3.59932 6.32813 3.6017 6.25839C3.60725 6.16487 3.67778 6.01906 3.76258 5.91524C3.91156 5.73218 4.03361 5.73297 4.08987 5.73376C4.08036 5.66085 4.06531 5.54436 4.21429 5.3605C4.45204 5.06807 4.64462 5.22736 4.73971 5.30502L5.36737 5.81618C5.39273 5.83678 5.39352 5.84946 5.37529 5.87641L5.29763 5.97151C5.27861 5.99449 5.26831 6.00083 5.2374 5.97626L4.65254 5.49998C4.55586 5.4239 4.41796 5.31533 4.27928 5.48571C4.22856 5.54832 4.21905 5.60696 4.21984 5.64262C4.2238 5.7298 4.27056 5.76784 4.32604 5.81301L4.95369 6.32417C4.97905 6.34477 4.98539 6.35586 4.9632 6.38281L4.88712 6.47632C4.86651 6.50168 4.85621 6.51119 4.8261 6.48583L4.22301 5.99528C4.15882 5.94298 4.00111 5.81776 3.86164 5.98815C3.72137 6.16012 3.85133 6.27186 3.91236 6.32179L4.5408 6.83294C4.56933 6.85593 4.56933 6.86781 4.54556 6.89634L4.47106 6.98827C4.45204 7.01125 4.43936 7.01601 4.41083 6.99303L3.68887 6.40579V6.40421Z" fill="white"/>
<path d="M4.8223 4.46983C4.76524 4.52451 4.69391 4.51579 4.64874 4.46983C4.59882 4.41831 4.60199 4.34461 4.65587 4.2931C4.70263 4.24793 4.77237 4.24476 4.82388 4.29152C4.86905 4.33827 4.87856 4.41514 4.8215 4.46983H4.8223ZM5.83985 5.38277C5.8668 5.4113 5.85967 5.42081 5.8351 5.44459L5.74555 5.53097C5.72019 5.55474 5.71464 5.5484 5.69166 5.52542L4.92136 4.72184C4.90075 4.69965 4.89124 4.69014 4.91977 4.6624L5.00695 4.57919C5.0331 4.55383 5.04499 4.55225 5.07035 4.57919L5.84144 5.38277H5.83985Z" fill="white"/>
<path d="M5.07264 3.79954C5.05045 3.77338 5.06155 3.7607 5.08374 3.74168L5.1725 3.66719C5.19865 3.64421 5.20737 3.64024 5.22955 3.66719L6.32398 4.95736C6.34776 4.9851 6.34063 4.99778 6.31764 5.01759L6.2273 5.09446C6.19877 5.11824 6.19243 5.12141 6.16707 5.09129L5.07264 3.80112V3.79954Z" fill="white"/>
<path d="M7.13809 4.59316C7.18484 4.77226 7.22605 5.00684 7.02317 5.15028C7.00019 5.16613 6.89083 5.24379 6.82822 5.15503C6.79732 5.11145 6.80128 5.05201 6.852 5.01635C6.86705 5.00525 6.94868 4.97355 6.96612 4.96087C7.04774 4.90381 7.05804 4.80237 6.96532 4.51391L5.94618 3.84822C5.92082 3.83237 5.91686 3.82999 5.9121 3.82444C5.89467 3.79988 5.92082 3.78482 5.93033 3.77769L6.04128 3.69923C6.07219 3.67783 6.07615 3.68021 6.10943 3.7024L6.88924 4.24208L6.62218 3.34023C6.61187 3.30536 6.61425 3.29744 6.62851 3.28555L6.72124 3.22057C6.73629 3.20947 6.75056 3.20551 6.76245 3.22215C6.76641 3.2277 6.76879 3.23166 6.77671 3.26257L7.13809 4.59316Z" fill="white"/>
<path d="M8.23385 2.86718L8.53975 3.53921C8.55798 3.57963 8.5453 3.58518 8.51598 3.59865L8.39631 3.65333C8.36303 3.66839 8.35193 3.67393 8.33529 3.63589L7.69733 2.23319C7.68069 2.19753 7.68465 2.18326 7.71318 2.16741L8.4399 1.83694C8.47001 1.82585 8.48111 1.82109 8.49379 1.84804C8.50726 1.87736 8.52628 1.92015 8.52786 1.92887C8.535 1.94393 8.53975 1.95899 8.5025 1.97325L7.94459 2.22685L8.176 2.73404L8.64594 2.52086C8.67527 2.50739 8.68636 2.50422 8.70221 2.5383C8.71331 2.56366 8.73233 2.60566 8.73312 2.61279C8.74104 2.63498 8.73074 2.64211 8.70617 2.65321L8.23623 2.86718H8.23385Z" fill="white"/>
<path d="M9.59896 3.11381C9.60847 3.14947 9.59895 3.15581 9.57201 3.16453L9.46027 3.20257C9.42936 3.21287 9.41589 3.21525 9.40321 3.18038L9.09255 2.26426C9.0664 2.18739 9.0664 2.15886 9.10444 2.11369C9.15675 2.05187 9.28434 1.96708 9.42699 1.91873C9.53476 1.88228 9.66077 1.86564 9.69564 1.96866C9.71228 2.01859 9.69247 2.07485 9.63779 2.09308C9.59816 2.10655 9.57677 2.09387 9.52525 2.06534C9.48721 2.04632 9.44997 2.02968 9.38657 2.05187C9.25739 2.09546 9.2883 2.19293 9.30494 2.25079L9.59816 3.11381H9.59896Z" fill="white"/>
<path d="M10.05 1.55666C9.97317 1.57647 9.91453 1.53447 9.89868 1.47107C9.88124 1.40133 9.92007 1.33872 9.9914 1.3205C10.054 1.30465 10.1174 1.33555 10.1396 1.40133C10.1554 1.46394 10.1261 1.53605 10.0508 1.55587L10.05 1.55666ZM10.4875 2.85159C10.497 2.88963 10.4875 2.89438 10.4534 2.9031L10.3322 2.9348C10.2981 2.94351 10.2965 2.9348 10.2886 2.90231L10.0112 1.82452C10.0033 1.7952 10.0001 1.78172 10.0389 1.77221L10.1547 1.7421C10.1903 1.73259 10.2014 1.73735 10.2109 1.77301L10.4883 2.85159H10.4875Z" fill="white"/>
<path d="M10.9289 2.14212C10.9978 2.45912 11.1849 2.58116 11.3584 2.55342C11.4955 2.53123 11.5859 2.43693 11.6414 2.30141C11.6643 2.24118 11.6691 2.2285 11.6968 2.22454C11.7103 2.22216 11.7436 2.22454 11.7515 2.27209C11.761 2.33153 11.7158 2.68815 11.3592 2.746C11.2221 2.76819 11.028 2.74283 10.8917 2.54946C10.814 2.44406 10.7791 2.31647 10.7625 2.20948C10.7355 2.04465 10.749 1.92102 10.7807 1.82909C10.7981 1.77678 10.8814 1.55251 11.1627 1.50734C11.5241 1.44949 11.6517 1.74984 11.6667 1.84335C11.677 1.90754 11.639 1.91864 11.612 1.92736L10.9297 2.14212H10.9289ZM11.4432 1.85762C11.406 1.71339 11.2879 1.62066 11.1579 1.64127C10.9725 1.67138 10.902 1.8275 10.9115 2.03038L11.4432 1.85762Z" fill="white"/>
<path d="M13.1055 2.53202C13.1063 2.55262 13.1047 2.57402 13.0794 2.57957L12.9518 2.58353C12.9145 2.58432 12.9011 2.58115 12.8995 2.53915L12.8725 1.76251C12.8694 1.65394 12.863 1.48038 12.5928 1.48989C12.3455 1.49861 12.3479 1.64601 12.3495 1.70387L12.3788 2.55738C12.3804 2.59859 12.3638 2.60413 12.3313 2.60493L12.2179 2.60889C12.1855 2.61206 12.1736 2.60572 12.1728 2.5661L12.1411 1.63413C12.1379 1.54616 12.1498 1.50416 12.2275 1.46216C12.3796 1.37578 12.5968 1.36864 12.6229 1.36785C13.062 1.35279 13.073 1.59767 13.077 1.73398L13.104 2.53202H13.1055Z" fill="white"/>
<path d="M14.4951 2.43569C14.4911 2.47927 14.4871 2.52128 14.4507 2.56169C14.3619 2.66472 14.1337 2.67581 14.0109 2.66392C13.6836 2.63302 13.4894 2.40478 13.5259 2.02518C13.556 1.70977 13.7731 1.38168 14.1305 1.41575C14.2502 1.42685 14.3183 1.47281 14.3738 1.51561L14.4277 0.948976C14.4309 0.912521 14.4372 0.899049 14.4761 0.903011L14.5941 0.914106C14.629 0.917276 14.6425 0.923616 14.6353 0.964825L14.4951 2.43727V2.43569ZM14.3611 1.64399C14.3207 1.60357 14.2629 1.54889 14.148 1.5378C13.9356 1.51719 13.7644 1.71056 13.7375 1.98872C13.7073 2.30889 13.8484 2.50384 14.0703 2.52445C14.2708 2.54347 14.2843 2.42855 14.2922 2.36198L14.3603 1.6432L14.3611 1.64399Z" fill="white"/>
<path d="M15.2193 1.05813C15.2256 1.02326 15.2423 1.02485 15.2716 1.03039L15.3849 1.05258C15.419 1.05892 15.4277 1.06288 15.4214 1.09775L15.0996 2.75881C15.0925 2.79527 15.0782 2.79685 15.0489 2.7913L14.9324 2.76911C14.896 2.76198 14.8896 2.75802 14.8976 2.71998L15.2193 1.05971V1.05813Z" fill="white"/>
<path d="M15.8932 3.16409C15.783 3.31308 15.6253 3.49139 15.3875 3.42244C15.3614 3.41531 15.2322 3.37727 15.2623 3.27266C15.2774 3.22194 15.3249 3.18787 15.386 3.2053C15.4034 3.21006 15.4803 3.25444 15.5001 3.25998C15.596 3.28772 15.6816 3.23304 15.848 2.98024L15.7307 1.76852C15.7275 1.7384 15.7259 1.73365 15.7275 1.72652C15.7362 1.69799 15.7648 1.70829 15.7751 1.71146L15.9058 1.7495C15.9415 1.7598 15.9423 1.76456 15.9455 1.80418L16.012 2.75041L16.5478 1.97774C16.5684 1.94762 16.5763 1.94524 16.5945 1.94841L16.7039 1.97932C16.7213 1.98408 16.734 1.99279 16.7276 2.01261C16.7261 2.01974 16.7245 2.0237 16.7055 2.04906L15.8924 3.1633L15.8932 3.16409Z" fill="white"/>
<path d="M19.1483 3.02276L18.0942 3.86755C18.053 3.90005 18.0483 3.90322 18.0261 3.89054C18.0015 3.87706 18.0031 3.86438 18.0079 3.81921L18.1608 2.47515L17.553 3.56958C17.534 3.60366 17.5205 3.5989 17.4967 3.58543L17.3976 3.52995C17.3818 3.51569 17.3842 3.50697 17.3984 3.48082L18.1489 2.12962C18.1656 2.09951 18.1759 2.09396 18.2068 2.1114L18.3439 2.18827C18.374 2.20491 18.378 2.21204 18.3708 2.25405L18.2377 3.55294L19.2481 2.74301C19.2846 2.71527 19.2885 2.7129 19.3234 2.73192L19.4629 2.80958C19.4922 2.82543 19.5041 2.83177 19.4851 2.86585L18.7298 4.22576C18.7108 4.25508 18.7029 4.25587 18.6704 4.23765L18.5571 4.17504C18.5254 4.15681 18.523 4.15047 18.542 4.1164L19.1483 3.02355V3.02276Z" fill="white"/>
<path d="M19.8233 4.80625C19.7575 4.88709 19.7131 4.92592 19.6172 4.91007C19.5198 4.89343 19.3993 4.82052 19.3208 4.7595C19.2717 4.72146 19.0007 4.51145 19.1932 4.26261C19.3557 4.0518 19.6077 4.15007 19.9667 4.29114L20.0396 4.19762C20.0943 4.1263 20.191 4.00188 20.0539 3.89568C19.9477 3.81326 19.851 3.87032 19.8082 3.89568C19.7686 3.92025 19.7195 3.95274 19.6648 3.91074C19.6394 3.89093 19.6053 3.83545 19.6505 3.7776C19.7353 3.66824 19.9564 3.66586 20.1522 3.81802C20.4208 4.02565 20.2718 4.22298 20.1981 4.32204L19.8225 4.80705L19.8233 4.80625ZM19.9002 4.37752C19.6513 4.28717 19.4873 4.22694 19.3779 4.36801C19.366 4.38306 19.2432 4.54156 19.4302 4.68659C19.5729 4.79674 19.6402 4.71432 19.6775 4.6644L19.9002 4.37752Z" fill="white"/>
<path d="M20.6837 5.88875C20.6687 5.90302 20.6528 5.91649 20.6314 5.90223L20.5411 5.81347C20.5149 5.78732 20.5078 5.77464 20.5371 5.74452L21.0839 5.19136C21.16 5.1137 21.2821 4.99007 21.0903 4.79987C20.9136 4.62553 20.8082 4.73013 20.7669 4.77055L20.167 5.3776C20.1377 5.40692 20.1234 5.39899 20.1005 5.37601L20.0196 5.29597C19.9951 5.27457 19.9919 5.26189 20.0196 5.23416L20.675 4.57084C20.7368 4.50824 20.7757 4.48842 20.8597 4.51616C21.0269 4.56767 21.1814 4.72062 21.1996 4.73806C21.5127 5.04713 21.3415 5.22306 21.2456 5.32054L20.6845 5.88875H20.6837Z" fill="white"/>
<path d="M21.5948 6.68565C21.5116 6.74826 21.4593 6.77521 21.3697 6.73717C21.2786 6.69754 21.1803 6.59848 21.1185 6.52082C21.0797 6.47168 20.8665 6.20382 21.1137 6.00808C21.3222 5.84324 21.5433 5.99857 21.8579 6.22126L21.9506 6.14755C22.0219 6.09208 22.1448 5.99381 22.037 5.8575C21.9538 5.7521 21.846 5.78459 21.7985 5.79886C21.7541 5.81392 21.6986 5.83373 21.6558 5.77905C21.636 5.75369 21.617 5.69267 21.6748 5.64591C21.7834 5.55953 21.9982 5.61104 22.1519 5.8052C22.3635 6.07148 22.1709 6.2276 22.0758 6.30526L21.5956 6.68645L21.5948 6.68565ZM21.7723 6.28783C21.552 6.14042 21.407 6.04295 21.2675 6.15389C21.2524 6.16499 21.0955 6.2902 21.2421 6.47564C21.3539 6.6175 21.4387 6.55252 21.4886 6.51368L21.7731 6.28783H21.7723Z" fill="white"/>
<path d="M22.9274 7.25212C22.9052 7.30363 22.8767 7.37654 22.7586 7.44945C22.5185 7.59843 22.3014 7.45737 22.2047 7.30204C22.1746 7.25291 22.1611 7.21487 22.146 7.17207C22.0739 7.15147 22.0121 7.14592 21.9733 7.17049C21.9099 7.21011 21.9574 7.29967 22.0224 7.41775L22.1405 7.63568C22.188 7.72523 22.3117 7.96536 22.0977 8.0977C21.9638 8.18091 21.627 8.19042 21.3591 7.75772C21.3092 7.67689 21.2838 7.61349 21.2688 7.56277C21.2252 7.41854 21.2592 7.2965 21.3535 7.23864C21.4597 7.17287 21.6079 7.20932 21.7514 7.27827C21.7324 7.21645 21.6951 7.10313 21.7894 7.04528C21.8742 6.99297 22.0486 7.05082 22.1302 7.07618C22.1286 7.02546 22.127 6.95335 22.1865 6.85587C22.2245 6.79406 22.276 6.74572 22.3315 6.71164C22.5304 6.5888 22.7578 6.64903 22.887 6.85746C22.9314 6.92878 22.9425 6.97871 22.9544 7.02784C22.9655 7.08411 22.971 7.11581 23.0003 7.16256C23.0186 7.19189 23.1414 7.3282 23.1485 7.34087C23.162 7.36227 23.1089 7.40031 23.1034 7.40427C23.0899 7.41299 23.0843 7.40824 23.0701 7.39476L22.9266 7.25212H22.9274ZM21.5247 7.3694C21.4011 7.44548 21.4423 7.61904 21.5287 7.75852C21.6222 7.90988 21.8243 8.04302 21.9527 7.96377C22.0676 7.89324 21.9994 7.75297 21.9638 7.68719C21.9392 7.64281 21.8156 7.42567 21.7886 7.37337C21.6927 7.34563 21.6056 7.31789 21.5239 7.36861L21.5247 7.3694ZM22.8244 7.05162C22.8292 7.01041 22.8212 6.96365 22.7935 6.91848C22.7388 6.82972 22.6199 6.75681 22.4543 6.85904C22.2776 6.9692 22.2546 7.138 22.318 7.24102C22.3719 7.3274 22.4844 7.3908 22.6437 7.29174C22.6675 7.27748 22.6897 7.26083 22.7111 7.24181C22.8117 7.14988 22.8197 7.07143 22.8244 7.05162Z" fill="white"/>
<path d="M22.9111 8.09804C22.6251 8.25099 22.5577 8.46258 22.6306 8.62267C22.6885 8.74867 22.8034 8.81049 22.9492 8.82713C23.0134 8.83347 23.0268 8.83505 23.0379 8.86041C23.0443 8.87309 23.0506 8.90559 23.007 8.92619C22.9516 8.95155 22.5965 9.00306 22.4452 8.67576C22.3873 8.54976 22.3588 8.35639 22.5086 8.17253C22.5878 8.06951 22.7019 8.00215 22.801 7.95618C22.9524 7.88644 23.0752 7.86584 23.1719 7.87218C23.2266 7.87456 23.4651 7.89437 23.5848 8.15351C23.7377 8.48557 23.4833 8.69003 23.3969 8.72965C23.3383 8.7566 23.3177 8.72331 23.3018 8.69954L22.9104 8.10042L22.9111 8.09804ZM23.324 8.51727C23.4524 8.44277 23.5111 8.30329 23.4556 8.18363C23.3771 8.01324 23.2067 7.98788 23.015 8.05128L23.324 8.51727Z" fill="white"/>
<path d="M23.7464 9.15066C23.8217 9.12926 23.8605 9.12054 23.9152 9.16255C23.9897 9.22119 24.0689 9.36225 24.1054 9.49143C24.1696 9.71808 24.0991 9.81793 24.0666 9.86311C24.1316 9.89718 24.2362 9.95187 24.3011 10.1793C24.4042 10.5423 24.1633 10.608 24.0452 10.6421L23.2662 10.864C23.2352 10.8727 23.2234 10.8664 23.2123 10.8363L23.179 10.7182C23.1703 10.6889 23.1718 10.677 23.2099 10.6659L23.935 10.4599C24.0523 10.4242 24.2211 10.3735 24.1609 10.1627C24.1387 10.085 24.0959 10.0438 24.0658 10.0232C23.9921 9.97643 23.9342 9.99307 23.8653 10.0129L23.0863 10.234C23.0554 10.2427 23.0427 10.2411 23.0332 10.2078L22.9999 10.0921C22.9912 10.0612 22.9896 10.047 23.0276 10.0367L23.7757 9.82427C23.8558 9.80129 24.0491 9.74423 23.9889 9.53264C23.9279 9.31946 23.7623 9.36146 23.6862 9.38286L22.9072 9.60475C22.8715 9.61426 22.8628 9.60792 22.8525 9.57226L22.82 9.45894C22.8121 9.43041 22.8152 9.41693 22.8509 9.40663L23.7456 9.15224L23.7464 9.15066Z" fill="white"/>
<path d="M23.9286 11.3342C23.61 11.392 23.4809 11.5735 23.5022 11.7478C23.5189 11.8857 23.61 11.9793 23.7432 12.0395C23.8026 12.0648 23.8145 12.0704 23.8185 12.0981C23.82 12.1116 23.8169 12.1449 23.7685 12.1512C23.7091 12.1584 23.3541 12.0997 23.3105 11.7415C23.2938 11.6036 23.3255 11.411 23.5244 11.2819C23.6314 11.2082 23.7606 11.178 23.8692 11.1646C24.0348 11.1448 24.1584 11.1622 24.2488 11.1971C24.3003 11.2161 24.5214 11.308 24.5563 11.5901C24.6006 11.9531 24.2955 12.0704 24.2012 12.0815C24.137 12.0894 24.1275 12.0514 24.1196 12.0236L23.9294 11.3334L23.9286 11.3342ZM24.1941 11.8588C24.3391 11.8271 24.4366 11.7122 24.4207 11.5814C24.3978 11.396 24.244 11.3191 24.0419 11.3207L24.1941 11.8588Z" fill="white"/>
<path d="M23.4522 13.4921C23.4316 13.4921 23.411 13.489 23.4062 13.4636L23.4086 13.336C23.4086 13.2988 23.4142 13.2853 23.4554 13.2861L24.2328 13.298C24.3414 13.2996 24.5157 13.3027 24.5197 13.0317C24.5237 12.7845 24.3755 12.7797 24.3184 12.7789L23.4641 12.7646C23.4221 12.7646 23.4181 12.748 23.4189 12.7155L23.4205 12.6022C23.4189 12.5697 23.4261 12.5586 23.4657 12.5586L24.3977 12.5737C24.4856 12.5752 24.5268 12.5895 24.5657 12.6695C24.6441 12.8257 24.6402 13.0428 24.6402 13.069C24.6322 13.5088 24.3874 13.5072 24.251 13.5048L23.453 13.4921H23.4522Z" fill="white"/>
<path d="M24.4413 14.2732L23.6932 14.1947C23.5965 14.1876 23.5711 14.1844 23.5251 14.205C23.4744 14.2256 23.4372 14.266 23.4301 14.3342C23.4285 14.3429 23.4269 14.3849 23.4261 14.3944C23.4221 14.4364 23.3888 14.4372 23.3754 14.4356C23.3159 14.4293 23.3128 14.3009 23.3183 14.2478C23.3294 14.1369 23.3817 14.0584 23.4491 14.0172C23.5259 13.972 23.6028 13.9768 23.6733 13.9847L24.4627 14.0679L24.4753 13.9459C24.4785 13.9158 24.4809 13.9118 24.5134 13.915C24.5736 13.9213 24.5784 13.9221 24.576 13.9562L24.5633 14.0782L24.7012 14.0925C24.7424 14.0965 24.7535 14.1052 24.7781 14.1353L24.8605 14.251C24.8787 14.2756 24.8827 14.2859 24.8819 14.2922C24.8795 14.3152 24.8494 14.3144 24.8217 14.312L24.5411 14.2827L24.5205 14.4832C24.5173 14.5109 24.515 14.5196 24.4841 14.5165C24.4215 14.5101 24.4151 14.5093 24.4183 14.4753L24.4397 14.2732H24.4413Z" fill="white"/>
<path d="M5.08946 21.2189L4.92383 21.0573L5.60933 20.3274L5.07599 19.8059L5.21388 19.6641L5.94376 20.3781L5.08946 21.2189ZM5.79636 21.2752L5.17505 21.8902L5.00942 21.7285L6.12524 20.5556L6.32495 20.7506L5.95169 21.1222L6.13872 21.3045L5.98576 21.4606L5.79636 21.2744V21.2752Z" fill="white"/>
<path d="M6.2547 22.19L6.36327 22.0196L6.91563 22.3715L7.05194 22.1226L7.27939 22.2677L7.11217 22.4967L7.66454 22.8478L7.55597 23.0182L6.25391 22.19H6.2547ZM6.83163 23.5357L6.63668 23.412L6.8776 23.0031L6.29036 22.6298L6.39735 22.4618L7.21282 22.9801L6.83163 23.5364V23.5357ZM7.5948 22.6346L7.25799 22.0505L6.58675 21.9958L6.57169 21.8064L7.23501 21.8215L7.30237 21.6987L6.93466 21.4657L7.04243 21.2969L8.03146 21.9261L7.92447 22.0949L7.55359 21.8595L7.47513 21.9705L7.77469 22.5704L7.5948 22.6362V22.6346Z" fill="white"/>
<path d="M9.12151 23.5608L8.86078 23.0377L8.32902 23.2993L8.21094 23.1336L8.80927 22.7992L8.85523 22.6478L8.50733 22.5147L8.57945 22.3261L8.92576 22.4592L8.97727 22.3047L9.24672 22.4077L9.18411 22.5575L9.53202 22.6914L9.4599 22.88L9.11358 22.7469L9.05256 22.8864L9.30457 23.4942L9.11992 23.5608H9.12151ZM8.39876 24.3073L8.63492 23.6289L8.89327 23.728L8.69198 24.2082L9.32914 24.4523L9.25861 24.637L8.39876 24.3073ZM9.59462 23.9657L9.37907 23.8833L9.79909 22.7231L10.0582 22.8222L9.59462 23.9665V23.9657Z" fill="white"/>
<path d="M10.8212 23.2744L10.8466 23.0874L11.2365 23.1405L11.246 22.9844L11.5249 23.0224L11.4924 23.1754L11.8823 23.2285L11.857 23.4163L11.7437 23.4012C11.8015 23.4844 11.8292 23.5851 11.8158 23.6841C11.7888 23.8839 11.597 24.0344 11.3839 24.0606L11.3339 24.2745L11.7603 24.3324L11.7334 24.5329L10.6484 24.3855L10.6754 24.1858L11.1041 24.2436L11.1152 24.0249C10.9139 23.9433 10.7697 23.7468 10.7966 23.547C10.8101 23.448 10.8656 23.3592 10.9401 23.2934L10.8196 23.2768L10.8212 23.2744ZM11.3395 23.3727C11.196 23.3529 11.0566 23.4456 11.0391 23.5772C11.0209 23.7095 11.1311 23.8355 11.2737 23.8545C11.4187 23.8743 11.5614 23.7824 11.5788 23.6501C11.597 23.5177 11.4845 23.3917 11.3395 23.3719V23.3727ZM12.2207 23.9274L12.0868 24.8119L11.857 24.781L12.0535 23.169L12.3277 23.2063L12.2532 23.7063L12.5029 23.7404L12.4727 23.9607L12.2207 23.9266V23.9274Z" fill="white"/>
<path d="M14.9413 24.2359L14.9896 24.6789L14.759 24.7161L14.6686 24.2795L14.0473 24.3793L14.0156 24.182L15.5324 23.9395L15.5641 24.1368L14.942 24.2367L14.9413 24.2359ZM14.4578 22.9616L14.7312 22.918L14.7415 23.0574C14.9848 23.0693 15.198 23.212 15.2337 23.4363C15.2757 23.7009 15.0514 23.9355 14.7598 23.9815C14.4681 24.0282 14.182 23.8761 14.1393 23.6106C14.1036 23.3871 14.2637 23.1842 14.4879 23.0971L14.457 22.9608L14.4578 22.9616ZM14.6464 23.2706C14.4856 23.296 14.3556 23.4267 14.3794 23.5726C14.4032 23.7223 14.5672 23.8032 14.7273 23.7778C14.8905 23.7517 15.0229 23.6233 14.9983 23.4735C14.9753 23.3269 14.8089 23.2445 14.6464 23.2706Z" fill="white"/>
<path d="M17.4306 23.0985L16.7403 22.8798L16.3647 23.5027L16.1816 23.421L16.5319 22.7363L16.4424 22.5453L16.738 22.4336L16.7982 22.6381L17.5114 22.9107L17.4306 23.0985ZM17.1429 23.5526L17.3046 24.0439L17.0859 24.1264L16.8838 23.6509L16.295 23.8743L16.2244 23.6873L17.6612 23.1421L17.7318 23.3291L17.1429 23.5526Z" fill="white"/>
<path d="M19.0537 22.6721L18.8564 22.7926L18.3198 21.947L17.6843 22.3345L17.582 22.1657L18.4514 21.6356L19.0545 22.6721H19.0537ZM19.7725 22.726L19.5751 22.8465L18.7129 21.4763L18.9499 21.332L19.7725 22.7268V22.726Z" fill="white"/>
<path d="M21.2052 20.8012L21.0364 20.9589L20.7146 20.638L20.5458 20.7957C20.6576 20.993 20.6108 21.2616 20.4214 21.4376C20.2074 21.6373 19.8762 21.6476 19.6931 21.451C19.5386 21.2846 19.5386 21.0199 19.6717 20.8242L19.5742 20.7362L19.7779 20.546L19.8603 20.6483C20.0347 20.546 20.2462 20.5389 20.4008 20.6403L20.5664 20.4858L20.2851 20.1902L20.4895 20L21.2052 20.802V20.8012ZM19.9039 20.8805C19.7866 20.9898 19.7636 21.1792 19.8659 21.2894C19.9665 21.398 20.1607 21.3908 20.2779 21.2815C20.4 21.1673 20.4166 20.9779 20.316 20.8694C20.2138 20.76 20.0267 20.7663 19.9039 20.8805ZM21.7718 21.5287L21.1291 22.1278L20.5656 21.5564L20.7542 21.3805L20.881 21.5271L21.1885 21.2402L21.0514 21.1031L21.2424 20.9256L21.7702 21.5295L21.7718 21.5287ZM21.3169 21.3663L20.9991 21.6626L21.1632 21.8489L21.4897 21.5446L21.3169 21.3663Z" fill="white"/>
<path d="M3.96436 18.99C3.96436 19.2087 3.78685 19.3862 3.56812 19.3862C3.34939 19.3862 3.17188 19.2087 3.17188 18.99C3.17188 18.7713 3.34939 18.5938 3.56812 18.5938C3.78685 18.5938 3.96436 18.7713 3.96436 18.99Z" fill="white"/>
<path d="M22.8276 18.99C22.8276 19.2087 22.6501 19.3862 22.4314 19.3862C22.2127 19.3862 22.0352 19.2087 22.0352 18.99C22.0352 18.7713 22.2127 18.5938 22.4314 18.5938C22.6501 18.5938 22.8276 18.7713 22.8276 18.99Z" fill="white"/>
</g>
<defs>
<clipPath id="clip0_933_1025">
<rect width="26" height="26" fill="white"/>
</clipPath>
</defs>
</svg>
