<svg width="13" height="10" viewBox="0 0 13 10" fill="none" xmlns="http://www.w3.org/2000/svg">
<path d="M5.40159 9.06516C4.93334 9.58815 4.41188 9.89322 3.83721 9.98039C3.26254 10.0458 2.69851 9.9477 2.14513 9.68621C1.61303 9.40292 1.15542 8.99978 0.772307 8.47679C0.389194 7.91022 0.144428 7.25648 0.0380072 6.51558C-0.068413 5.75289 0.0486492 4.93572 0.389194 4.06407C0.751023 3.17063 1.38955 2.35345 2.30476 1.61255C3.24126 0.849858 4.35867 0.326869 5.657 0.0435821C5.89112 2.08745e-07 6.05075 -0.0108956 6.13589 0.0108954C6.22103 0.0326864 6.27424 0.0653735 6.29552 0.108957C6.29552 0.305078 6.23167 0.44672 6.10396 0.533884C5.57186 0.838963 5.1249 1.22031 4.76307 1.67792C4.40124 2.13554 4.17776 2.58226 4.09262 3.01809C4.00748 3.43212 4.10326 3.7372 4.37996 3.93332C4.46509 3.99869 4.66729 4.18392 4.98655 4.489C5.30581 4.77228 5.60379 5.15363 5.88048 5.63304C6.15717 6.09065 6.28488 6.61364 6.26359 7.202C6.26359 7.79037 5.97626 8.41142 5.40159 9.06516ZM12.1061 9.06516C11.6378 9.58815 11.1164 9.89322 10.5417 9.98039C9.96702 10.0458 9.40299 9.9477 8.84961 9.68621C8.31751 9.40292 7.8599 8.99978 7.47679 8.47679C7.09367 7.91022 6.84891 7.25648 6.74249 6.51558C6.63607 5.75289 6.75313 4.93572 7.09367 4.06407C7.4555 3.17063 8.09402 2.35345 9.00924 1.61255C9.94574 0.849858 11.0632 0.326869 12.3615 0.0435821C12.5956 2.08745e-07 12.7552 -0.0108956 12.8404 0.0108954C12.9255 0.0326864 12.9787 0.0653735 13 0.108957C13 0.305078 12.9361 0.44672 12.8084 0.533884C12.2763 0.838963 11.8294 1.22031 11.4675 1.67792C11.1057 2.13554 10.8822 2.58226 10.7971 3.01809C10.712 3.43212 10.8077 3.7372 11.0844 3.93332C11.1696 3.99869 11.3718 4.18392 11.691 4.489C12.0103 4.77228 12.3083 5.15363 12.585 5.63304C12.8617 6.09065 12.9894 6.61364 12.9681 7.202C12.9681 7.79037 12.6807 8.41142 12.1061 9.06516Z" fill="#8A949E"/>
</svg>
