<svg width="80" height="84" viewBox="0 0 80 84" fill="none" xmlns="http://www.w3.org/2000/svg">
<g clip-path="url(#clip0_1881_5803)">
<path d="M34.2911 83.9978C33.5211 83.9978 32.7602 83.9743 32.0154 83.9293C27.7556 83.6663 24.1667 82.6501 21.6356 80.9908C14.5425 76.3408 16.6256 69.8062 18.4641 64.0409C19.3834 61.1583 20.2505 58.436 19.9824 56.1227C19.727 53.9121 16.5069 52.0996 12.7795 50.0007C8.91184 47.8243 4.52786 45.356 2.02375 41.6789C-0.904896 37.3801 -0.656645 32.3067 2.7847 26.1703C5.64679 21.0662 9.26443 18.6682 13.8427 18.8322C17.7715 18.9745 21.8065 20.9978 25.3648 22.7814C29.5221 24.8659 33.1128 26.6657 35.2103 24.9019C39.2219 21.5293 40.1376 19.5943 41.9581 15.737C42.8791 13.7876 44.0251 11.3608 45.9031 8.0259C47.7021 4.82978 51.8738 2.21739 57.3479 0.855349C62.4317 -0.407606 67.3985 -0.270681 70.3092 1.21568C73.7433 2.96868 75.9956 5.9432 77.28 8.1322C78.8325 10.7752 79.8471 13.8002 79.991 16.2216C80.295 21.277 72.4427 30.3123 66.1356 37.5729C64.7379 39.1818 63.4175 40.7006 62.3615 41.9834C60.0823 44.7525 61.7912 47.4478 63.9553 50.8619C66.7581 55.2813 70.2462 60.7835 66.1266 68.673C64.3853 72.006 61.498 74.9661 57.544 77.4704C53.9965 79.7171 49.6827 81.5043 45.0702 82.6393C41.4328 83.5347 37.7486 83.996 34.2893 83.996L34.2911 83.9978ZM13.4074 19.5546C9.31839 19.5546 6.04975 21.8391 3.42152 26.527C-3.97926 39.7259 5.51187 45.0696 13.1375 49.3629C17.0394 51.5591 20.4088 53.4562 20.7074 56.038C20.9934 58.5081 20.1012 61.3042 19.1585 64.2625C17.3146 70.0494 15.4078 76.0327 22.035 80.3783C26.8723 83.5492 35.8453 84.1599 44.8975 81.9313C54.5865 79.5459 62.2805 74.4634 65.4808 68.336C69.4043 60.8214 66.1842 55.7389 63.3401 51.2564C61.1094 47.7378 59.1828 44.7002 61.7984 41.5221C62.8598 40.2322 64.1838 38.708 65.5852 37.0955C71.4784 30.3141 79.5484 21.0248 79.2642 16.2684C79.0231 12.249 75.9056 4.89464 69.9781 1.86968C67.2582 0.480606 62.3705 0.363499 57.5242 1.567C52.3217 2.86058 48.2148 5.40991 46.5382 8.38623C44.6745 11.6995 43.534 14.1119 42.6165 16.0504C40.7492 20.0033 39.812 21.9869 35.678 25.4622C33.2135 27.5341 29.425 25.6352 25.0356 23.4354C21.5421 21.6842 17.5845 19.7006 13.8121 19.5619C13.6754 19.5564 13.5387 19.5546 13.4038 19.5546H13.4074Z" fill="url(#paint0_linear_1881_5803)"/>
<path d="M34.6258 80.9756C30.0025 80.9756 25.9729 80.0442 23.1918 78.2191C16.5574 73.8681 18.5002 67.7948 20.2128 62.4349C21.0691 59.7576 21.8786 57.2263 21.6285 55.0715C21.3893 53.0032 18.3905 51.2971 14.9185 49.3207C10.2071 46.6398 4.86434 43.6022 3.52774 38.3C2.71822 35.0606 3.49176 31.4447 5.89332 27.2487C8.28949 23.0563 11.2235 20.851 14.8664 20.5105C18.1764 20.2006 21.5566 21.5014 24.4276 22.8148C25.2659 23.2004 26.0881 23.6004 26.885 23.9895C30.7311 25.8632 34.0519 27.4811 35.9875 25.82C39.6412 22.6833 40.4867 20.8889 42.174 17.3108C43.0339 15.4857 44.1043 13.2157 45.8618 10.0934C47.542 7.10807 51.4403 4.67945 56.5546 3.42911C61.2948 2.27065 65.9342 2.41658 68.6596 3.80925C71.8491 5.43614 73.9233 8.20167 75.1016 10.2321C76.5281 12.6914 77.4474 15.5092 77.5625 17.7702C77.7586 21.5915 72.9249 27.8793 68.692 32.9311C67.4435 34.421 66.2005 35.8588 64.9988 37.2496C63.5974 38.8729 62.2716 40.4061 61.2265 41.6943C59.1325 44.2598 60.6904 46.7641 62.662 49.9368C65.2165 54.0446 68.3934 59.1577 64.5976 66.4579C61.5521 72.3295 54.4769 77.0967 45.1872 79.5361C41.5228 80.4982 37.9232 80.972 34.624 80.972L34.6258 80.9756ZM15.8756 21.1952C15.5625 21.1952 15.2477 21.2096 14.9365 21.2384C11.5473 21.5555 8.79679 23.64 6.52834 27.6126C4.22392 31.6375 3.47557 35.075 4.23651 38.1216C5.49756 43.1212 10.6947 46.0777 15.2783 48.6847C18.9229 50.7584 22.0711 52.5492 22.3535 54.9869C22.6197 57.3002 21.7886 59.9017 20.9072 62.6583C19.1928 68.02 17.4208 73.5618 23.5893 77.6083C28.1892 80.6243 36.3923 81.0927 45.002 78.8316C54.0937 76.4445 60.9998 71.8124 63.95 66.1228C67.5533 59.1919 64.6264 54.4824 62.0432 50.326C60.0014 47.0416 58.2384 44.204 60.6616 41.2349C61.714 39.9377 63.0434 38.4009 64.4483 36.774C65.6482 35.3849 66.8895 33.949 68.1343 32.4627C71.957 27.8991 77.0192 21.415 76.8339 17.8081C76.645 14.0786 73.8117 7.25761 68.3286 4.45965C65.7903 3.16427 61.2355 3.03815 56.7273 4.13896C51.881 5.32264 48.0565 7.6828 46.4987 10.4519C44.7537 13.5526 43.6887 15.81 42.8342 17.6225C41.1037 21.2942 40.2348 23.1373 36.4625 26.3749C34.1634 28.3477 30.6429 26.6325 26.5666 24.6453C25.775 24.2598 24.9547 23.8598 24.1254 23.4796C21.6195 22.332 18.7197 21.1952 15.8738 21.1952H15.8756Z" fill="url(#paint1_linear_1881_5803)"/>
<path d="M35.0287 77.9392C30.8804 77.9392 27.2699 77.0996 24.7479 75.4457C18.5721 71.3956 20.3747 65.7816 21.9631 60.8271C22.7564 58.3534 23.5066 56.0149 23.2763 54.0169C23.0533 52.0909 20.2757 50.4929 17.0592 48.6426C12.722 46.1473 7.80377 43.3187 6.67585 38.4452C5.98866 35.4797 6.7514 32.1701 9.00546 28.3254C11.2415 24.4987 13.9741 22.4791 17.3633 22.1494C20.4268 21.8521 23.5552 23.0105 26.2104 24.1816C26.9605 24.5149 27.6945 24.8608 28.4051 25.1959C31.94 26.8607 34.9927 28.2984 36.7665 26.7381C40.0603 23.8411 40.8392 22.1854 42.3899 18.8866C43.1886 17.1858 44.1834 15.0707 45.8223 12.1592C47.3855 9.38288 51.0068 7.13983 55.7613 6.00119C60.0913 4.96524 64.5077 5.12198 67.01 6.39935C69.9548 7.90192 71.8509 10.4549 72.9231 12.3304C74.2237 14.6041 75.0476 17.2164 75.1321 19.319C75.2779 22.8772 70.8309 28.6641 66.9398 33.3088C65.8929 34.5591 64.8477 35.7788 63.8367 36.9571C62.4425 38.584 61.1239 40.1208 60.0913 41.4054C58.1899 43.7691 59.5948 46.0842 61.374 49.0155C63.6766 52.8098 66.5441 57.5319 63.0704 64.243C61.6042 67.0914 59.1595 69.6408 55.8045 71.8226C52.8669 73.7305 49.2366 75.325 45.3042 76.433C41.7297 77.4401 38.2182 77.9374 35.0269 77.9374L35.0287 77.9392ZM18.3563 22.8358C18.0487 22.8358 17.741 22.8502 17.4352 22.879C14.2979 23.1835 11.747 25.086 9.63688 28.6965C7.47997 32.3737 6.74421 35.5086 7.38822 38.2813C8.44599 42.8449 13.2149 45.5888 17.4244 48.0102C20.8118 49.9596 23.7387 51.6423 24.0031 53.934C24.2513 56.0888 23.4778 58.4994 22.6593 61.0505C21.0762 65.9852 19.4392 71.0893 25.149 74.8331C29.4377 77.6455 37.0867 77.9896 45.1099 75.7285C53.4587 73.3756 59.7693 69.0678 62.4245 63.9079C65.7094 57.5607 63.0758 53.2224 60.7533 49.3957C58.9022 46.3455 57.303 43.7115 59.5265 40.9477C60.5681 39.6542 61.8885 38.1137 63.2862 36.4815C64.2954 35.3032 65.3406 34.0853 66.384 32.8385C69.8937 28.6497 74.5439 22.6916 74.4054 19.3478C74.2435 15.2472 71.2447 9.37928 66.6808 7.04975C64.3224 5.84625 60.1039 5.71292 55.9322 6.71104C51.3755 7.80103 47.9234 9.91617 46.4591 12.5159C44.8329 15.4058 43.8452 17.5065 43.0501 19.1965C41.5066 22.4791 40.6557 24.2879 37.2486 27.2858C35.1151 29.1614 31.8608 27.63 28.0939 25.8571C27.3869 25.5238 26.6547 25.1797 25.9136 24.85C23.6163 23.8375 20.9593 22.834 18.3527 22.834L18.3563 22.8358Z" fill="url(#paint2_linear_1881_5803)"/>
<path d="M35.4082 74.916C35.2427 74.916 35.0772 74.916 34.9117 74.9106C31.4182 74.8458 28.4427 74.0693 26.3038 72.6676C20.5868 68.9184 22.249 63.7639 23.7134 59.2165C24.4455 56.9464 25.1363 54.8007 24.924 52.9612C24.719 51.1775 22.1609 49.6876 19.2017 47.9598C15.2404 45.6501 10.7485 43.0305 9.82205 38.5876C9.26079 35.8942 10.0109 32.8872 12.1175 29.3974C14.1934 25.9365 16.7263 24.0988 19.8583 23.7799C22.6844 23.4934 25.5555 24.5114 27.9912 25.5437C28.6712 25.832 29.3368 26.131 29.979 26.4211C33.1793 27.8606 35.9425 29.102 37.5453 27.6516C40.4811 24.9942 41.2349 23.3835 42.6057 20.4613C43.3432 18.8848 44.2625 16.9228 45.7844 14.2204C47.2289 11.6548 50.5767 9.59372 54.9697 8.56858C58.9615 7.63713 63.0415 7.80108 65.3621 8.98657C70.2731 11.4945 72.6117 17.4417 72.7035 20.863C72.8006 24.1564 68.7387 29.4443 65.1894 33.6817C64.3691 34.66 63.547 35.6275 62.7518 36.5626C61.3343 38.2291 59.9941 39.8037 58.9561 41.1117C57.2417 43.2737 58.4956 45.3979 60.0822 48.0895C62.1348 51.5703 64.6911 55.9033 61.5412 62.0253C58.1844 68.6103 50.0011 71.9325 45.421 73.3252C41.9904 74.3701 38.5383 74.916 35.4046 74.916H35.4082ZM20.8459 24.4393C17.9766 24.4393 15.1649 25.7401 12.7453 29.7758C10.7377 33.1016 10.0163 35.9338 10.538 38.4381C11.3979 42.5639 15.7387 45.0952 19.5704 47.3292C22.7006 49.1543 25.4025 50.7307 25.6508 52.8783C25.8811 54.8745 25.1669 57.0942 24.4095 59.4417C22.956 63.9512 21.4539 68.6139 26.705 72.0568C30.6896 74.6692 37.781 74.8872 45.2123 72.6244C49.6808 71.2641 57.6609 68.0356 60.8953 61.6902C63.8618 55.9267 61.5214 51.9595 59.458 48.4607C57.7976 45.6447 56.3621 43.2125 58.3894 40.6559C59.4364 39.3371 60.7784 37.7589 62.2014 36.0869C62.9965 35.1537 63.8168 34.188 64.6353 33.2115C67.832 29.3956 72.0703 23.9655 71.9785 20.8828C71.8778 17.1264 69.1956 11.7611 65.0347 9.63696C60.7334 7.44255 49.492 9.12709 46.423 14.5789C44.9155 17.2579 44.0016 19.2055 43.2695 20.7711C41.8591 23.7799 41.0838 25.4374 38.0382 28.1939C36.081 29.9667 33.1163 28.6335 29.6822 27.0877C29.0418 26.7995 28.3798 26.5022 27.7088 26.2175C25.5015 25.2807 23.1557 24.4375 20.8459 24.4375V24.4393Z" fill="url(#paint3_linear_1881_5803)"/>
<path d="M35.9048 71.9133C32.6937 71.9133 29.9107 71.2377 27.8618 69.8937C22.6035 66.4453 24.1254 61.7502 25.4656 57.6083C26.1348 55.5418 26.7662 53.5888 26.5737 51.9078C26.3848 50.2665 23.9365 48.8162 21.3461 47.2812C17.759 45.1553 13.6934 42.7465 12.9703 38.7306C12.5367 36.32 13.2761 33.6193 15.2315 30.4736C17.1546 27.3802 19.486 25.7281 22.3607 25.4218C24.9385 25.1462 27.5541 26.02 29.7722 26.91C30.3677 27.1478 30.9487 27.3964 31.51 27.6342C34.3937 28.8612 36.8834 29.9187 38.3261 28.5693C40.904 26.1551 41.5858 24.694 42.8216 22.0419C43.4998 20.588 44.3435 18.7773 45.7485 16.2821C47.0743 13.9255 50.1487 12.05 54.1818 11.1366C57.8355 10.3096 61.579 10.4808 63.7179 11.5744C67.7691 13.6427 70.2355 18.7071 70.2786 22.4095C70.3146 24.7732 68.2063 28.3657 63.4427 34.0553C62.876 34.7309 62.3076 35.4047 61.7517 36.0641C60.2784 37.8081 58.8878 39.4567 57.8265 40.8187C56.2974 42.7807 57.3965 44.7157 58.7889 47.1641C60.5878 50.3296 62.8275 54.2698 60.0176 59.8045C57.186 65.3842 50.584 68.5461 45.5434 70.2162C42.129 71.3476 38.8388 71.9115 35.9048 71.9115V71.9133ZM23.3483 26.083C20.7038 26.083 18.1026 27.2397 15.8521 30.861C13.9956 33.8463 13.2887 36.3776 13.6898 38.6027C14.3536 42.2888 18.2663 44.6076 21.7184 46.6542C24.5895 48.355 27.0684 49.8233 27.2987 51.8268C27.511 53.6662 26.8544 55.6913 26.16 57.8353C24.8378 61.9196 23.4706 66.1427 28.2611 69.2829C31.9993 71.735 38.3747 71.825 45.3149 69.5243C50.2242 67.8975 56.6482 64.8329 59.3663 59.4748C61.9982 54.2896 59.9564 50.6971 58.1539 47.5262C56.6877 44.9463 55.4195 42.7158 57.2508 40.3701C58.3212 38.9972 59.7171 37.3433 61.1941 35.5939C61.7499 34.9363 62.3166 34.2643 62.8832 33.5887C65.7651 30.1457 69.5914 25.2435 69.5483 22.4221C69.5087 19.0116 67.1413 14.1453 63.3851 12.2284C59.4401 10.2159 49.1646 11.7005 46.3835 16.6442C44.9929 19.1161 44.1546 20.9123 43.4818 22.3536C42.2496 24.9984 41.5048 26.5947 38.8244 29.1044C37.0345 30.7799 34.3415 29.6341 31.224 28.3081C30.6645 28.0702 30.087 27.8252 29.5006 27.5892C27.5236 26.7947 25.4224 26.083 23.3483 26.083Z" fill="url(#paint4_linear_1881_5803)"/>
<path d="M36.4353 68.9003C33.6506 68.9003 31.2293 68.3058 29.4159 67.1185C24.6164 63.971 25.998 59.7353 27.2141 55.9987C27.8203 54.1358 28.3942 52.3774 28.2179 50.8532C28.0452 49.3542 25.8307 48.0156 23.4885 46.6013C20.2756 44.6609 16.6346 42.4611 16.1147 38.8704C15.8053 36.7355 16.5338 34.3393 18.3436 31.5467C22.1033 25.74 26.9118 26.5418 31.5477 28.2732C32.055 28.4623 32.5497 28.6587 33.0282 28.8461C35.705 29.9036 37.8187 30.7378 39.1031 29.4857C41.3248 27.3183 41.9311 26.0085 43.032 23.6285C43.649 22.2953 44.419 20.6342 45.7088 18.3425C48.427 13.5141 58.1682 12.17 62.0682 14.1609C65.7039 16.0165 67.8626 20.5981 67.8482 23.9546C67.8392 26.1202 65.9395 29.3505 61.6905 34.4294L60.9061 35.3662C59.3159 37.2634 57.8138 39.0542 56.6912 40.5226C55.3474 42.2828 56.2955 44.0286 57.4954 46.2392C59.0442 49.0912 60.9709 52.6386 58.4902 57.5842C56.5149 61.5208 52.1993 64.7241 45.6656 67.1059C42.388 68.3004 39.2291 68.8967 36.4353 68.8967V68.9003ZM25.8505 27.7219C23.4273 27.7219 21.0347 28.7362 18.957 31.9449C17.2498 34.5825 16.5554 36.8148 16.8379 38.7659C17.3074 42.0125 20.7919 44.1186 23.8663 45.9761C26.4765 47.5526 28.7305 48.9146 28.9446 50.7703C29.1389 52.4513 28.5417 54.2853 27.9084 56.2257C26.7158 59.8849 25.4835 63.6665 29.8153 66.5077C33.253 68.7616 39.0834 68.7291 45.4138 66.423C51.7676 64.1079 55.9465 61.0235 57.8354 57.2599C60.1452 52.6566 58.3966 49.4335 56.8531 46.5923C55.6317 44.3438 54.4786 42.2197 56.1102 40.083C57.2417 38.6002 58.7492 36.8022 60.3449 34.8996L61.1292 33.9628C63.6945 30.8982 67.107 26.5256 67.1178 23.9564C67.1286 21.308 65.4664 16.721 61.7354 14.8167C58.1484 12.9862 48.8389 14.2726 46.342 18.7064C45.0666 20.9729 44.3038 22.6178 43.6922 23.9402C42.5913 26.3166 41.9275 27.7507 39.6104 30.0117C37.9896 31.5936 35.5647 30.6369 32.7583 29.5289C32.2834 29.3415 31.7923 29.147 31.2904 28.9596C29.5419 28.3056 27.6854 27.7219 25.8469 27.7219H25.8505Z" fill="url(#paint5_linear_1881_5803)"/>
<path d="M37.0165 65.9266C34.6474 65.9266 32.5858 65.4006 30.9739 64.343C26.6331 61.4964 27.8726 57.7201 28.9681 54.3889C29.5132 52.7296 30.0277 51.1639 29.8694 49.8001C29.7129 48.4417 27.7341 47.2183 25.6401 45.923C22.7996 44.1664 19.5814 42.1737 19.2647 39.0082C19.0795 37.1507 19.799 35.0608 21.4612 32.6196C24.8648 27.6236 29.175 28.2344 33.3269 29.6379C33.7425 29.7784 34.1473 29.9225 34.5394 30.0631C36.896 30.9026 38.7561 31.5656 39.8822 30.409C41.7477 28.4938 42.3108 27.2651 43.2444 25.231C43.8021 24.0149 44.4965 22.5015 45.673 20.4116C46.7631 18.4731 49.2888 16.9669 52.6024 16.2787C55.5779 15.6607 58.6468 15.8481 60.4242 16.7543C63.6514 18.401 65.5007 22.4979 65.4234 25.5085C65.3748 27.4435 63.6334 30.3982 59.9438 34.8086C58.3608 36.7003 56.7184 38.6767 55.5617 40.2334C54.4013 41.7954 55.1965 43.352 56.2057 45.323C57.5027 47.8597 59.1181 51.0162 56.9648 55.3708C55.2594 58.821 51.604 61.6441 45.7899 64.0025C42.6274 65.2853 39.6358 65.9302 37.0183 65.9302L37.0165 65.9266ZM28.3673 29.3604C26.1582 29.3604 23.9689 30.2324 22.0621 33.0304C20.5006 35.3239 19.8224 37.2552 19.9897 38.9344C20.2685 41.7413 23.3249 43.6313 26.0215 45.2996C28.3691 46.7517 30.3965 48.0057 30.5926 49.7154C30.7689 51.2396 30.2292 52.8809 29.6589 54.6177C28.549 57.9994 27.5002 61.1919 31.3715 63.7322C34.561 65.824 39.7149 65.6744 45.5129 63.3215C51.1525 61.0334 54.6838 58.3255 56.3064 55.0429C58.296 51.018 56.8389 48.1678 55.5509 45.6527C54.5165 43.6295 53.5397 41.7197 54.9716 39.7938C56.1391 38.2227 57.7887 36.2355 59.379 34.3366C60.676 32.7853 64.6228 28.0686 64.6894 25.4887C64.7596 22.7051 63.0578 18.9217 60.0878 17.4047C58.4507 16.5687 55.5689 16.4084 52.7463 16.9939C49.6396 17.6389 47.292 19.0154 46.3044 20.7702C45.1423 22.833 44.4551 24.332 43.9028 25.5355C42.9692 27.5696 42.354 28.9136 40.4003 30.9188C38.9468 32.4106 36.7881 31.6431 34.2894 30.7513C33.9008 30.6126 33.4978 30.4702 33.0877 30.3315C31.5712 29.818 29.963 29.3622 28.3637 29.3622L28.3673 29.3604Z" fill="url(#paint6_linear_1881_5803)"/>
<path d="M37.6732 62.9439C35.6782 62.9439 33.9278 62.488 32.53 61.5728C28.648 59.0271 29.7471 55.7102 30.7185 52.7844C31.2006 51.3304 31.6558 49.9558 31.5172 48.7505C31.3769 47.5344 29.6338 46.4246 27.7899 45.2481C25.3199 43.6734 22.5208 41.888 22.4111 39.1423C22.3481 37.5641 23.0569 35.7822 24.577 33.6941C27.6154 29.5179 31.4291 29.9341 35.0971 31.0061C35.4137 31.0979 35.7213 31.1934 36.0217 31.2853C38.0653 31.9105 39.6808 32.4041 40.6558 31.3358C42.1687 29.6782 42.6778 28.5522 43.4495 26.8461C43.9478 25.7434 44.5684 24.3724 45.6334 22.4807C46.6066 20.7511 48.8589 19.4287 51.8127 18.8539C54.4481 18.3405 57.1807 18.5351 58.7746 19.3494C61.6978 20.8412 63.1298 24.4391 62.993 27.0659C62.9031 28.7972 61.3776 31.379 58.1917 35.1877C56.5349 37.1677 55.3044 38.7243 54.4284 39.9422C53.4479 41.3061 54.0938 42.6753 54.9123 44.4085C55.9592 46.6299 57.2635 49.3937 55.4375 53.1555C53.5505 57.0435 49.0999 59.436 45.9158 60.8954C42.9422 62.2592 40.1251 62.9457 37.675 62.9475L37.6732 62.9439ZM30.911 31.0043C28.9052 31.0043 26.9066 31.7321 25.167 34.1247C23.7477 36.0759 23.0857 37.7064 23.1414 39.1135C23.235 41.4772 25.8632 43.1528 28.182 44.6301C30.177 45.9021 32.0623 47.1038 32.2422 48.6658C32.4005 50.0314 31.9202 51.4818 31.4111 53.015C30.4379 55.9517 29.5186 58.7244 32.9312 60.962C35.8293 62.8628 40.4525 62.5961 45.6118 60.2288C48.6934 58.8145 52.9964 56.5102 54.7809 52.833C56.4521 49.3883 55.2828 46.9074 54.2521 44.7184C53.4048 42.9221 52.606 41.225 53.8365 39.5134C54.7234 38.2811 55.9646 36.7119 57.6322 34.7174C60.6688 31.0853 62.1835 28.5702 62.2645 27.0262C62.3904 24.5958 60.9962 21.3024 58.4436 19.9998C56.9846 19.2557 54.4373 19.0864 51.9512 19.571C49.2079 20.1043 47.1373 21.297 46.2684 22.8392C45.2197 24.7039 44.6062 26.0587 44.1133 27.1469C43.3128 28.9161 42.7839 30.0854 41.1937 31.8276C39.9074 33.2383 38.0078 32.6564 35.8077 31.9844C35.5109 31.8925 35.205 31.8006 34.8902 31.7087C33.6112 31.3358 32.2584 31.0061 30.9092 31.0061L30.911 31.0043Z" fill="url(#paint7_linear_1881_5803)"/>
<path d="M38.4179 59.9932C36.7719 59.9932 35.3093 59.595 34.0879 58.7951C30.6645 56.5502 31.6233 53.6928 32.4706 51.1723C32.8898 49.922 33.2873 48.7401 33.1668 47.6933C33.0427 46.6195 31.5388 45.6232 29.9467 44.5675C27.8438 43.173 25.4602 41.5929 25.5628 39.2616C25.6203 37.9482 26.2985 36.5177 27.6981 34.7575C30.4882 31.2497 33.8918 31.6839 36.8636 32.3649C37.0705 32.4117 37.2738 32.4604 37.4699 32.5072C39.4667 32.9811 40.636 33.2027 41.4293 32.2568C42.5914 30.8677 43.0357 29.8624 43.651 28.4715C44.0899 27.4788 44.6368 26.2411 45.5956 24.5386C47.4737 21.2019 54.2556 20.4668 57.1285 21.9334C59.6272 23.2089 60.7641 26.3276 60.5663 28.6139C60.4331 30.1417 59.1235 32.3487 56.4431 35.5574C55.2145 37.0276 54.0973 38.4779 53.2986 39.64C52.4963 40.8074 52.9928 41.9911 53.6188 43.4901C54.4157 45.3944 55.4069 47.7654 53.912 50.9309C52.4207 54.0838 49.0999 56.1611 46.0471 57.7771C43.2624 59.2509 40.6701 59.995 38.4197 59.995L38.4179 59.9932ZM33.46 32.6243C31.6377 32.6243 29.8532 33.2153 28.2666 35.2115C26.9677 36.8438 26.3399 38.141 26.2895 39.2922C26.205 41.2092 28.3115 42.6055 30.3479 43.9567C32.0857 45.1098 33.7281 46.198 33.89 47.6086C34.0303 48.8175 33.5878 50.1327 33.1614 51.4047C32.3249 53.8946 31.5352 56.2475 34.4872 58.1843C38.0743 60.5355 43.0537 58.5338 45.7035 57.1303C48.6502 55.5701 51.8505 53.5757 53.25 50.6174C54.6064 47.7474 53.7231 45.6358 52.9442 43.7729C52.2876 42.2037 51.6688 40.7227 52.696 39.2274C53.5073 38.0473 54.6388 36.5772 55.8819 35.089C58.4255 32.0442 59.7208 29.9057 59.8377 28.5526C60.0158 26.5023 59.0084 23.7152 56.7957 22.5856C54.216 21.2686 47.9018 21.9298 46.2306 24.8989C45.2898 26.5708 44.7735 27.7383 44.3184 28.7688C43.6797 30.2137 43.2174 31.2587 41.9888 32.727C40.868 34.0657 39.2148 33.6747 37.3026 33.2207C37.1065 33.1738 36.9068 33.127 36.6999 33.0802C35.6295 32.8351 34.5394 32.6279 33.4618 32.6279L33.46 32.6243Z" fill="url(#paint8_linear_1881_5803)"/>
<path d="M39.2381 57.0441C37.8979 57.0441 36.6855 56.7054 35.6421 56.0226C32.6775 54.0786 33.496 51.6788 34.2191 49.5637C34.5771 48.5169 34.9135 47.5296 34.811 46.6414C34.7031 45.71 33.3826 44.7857 32.1054 43.8921C30.364 42.6742 28.3888 41.2923 28.7126 39.37C28.8871 38.3358 29.5365 37.2404 30.8192 35.8207C33.3683 32.9993 36.5254 33.4371 38.6139 33.729L38.8334 33.7596C40.5819 34.0047 41.5264 34.0911 42.1956 33.1885C43.0177 32.0805 43.3829 31.2211 43.8452 30.1329C44.2446 29.1925 44.6979 28.1241 45.5524 26.6053C47.1624 23.7425 52.9172 23.22 55.4752 24.5244C57.5674 25.5928 58.3949 28.1763 58.1305 30.1744C57.9578 31.4806 56.8316 33.3651 54.6873 35.9342C53.7627 37.0404 52.8668 38.2512 52.1634 39.3429C51.5356 40.3176 51.881 41.3194 52.3181 42.5859C52.865 44.1732 53.5468 46.146 52.3811 48.7097C51.1794 51.3527 48.5476 53.167 46.1766 54.6606C43.6617 56.2442 41.2979 57.0459 39.2363 57.0459L39.2381 57.0441ZM36.1818 34.2425C34.5915 34.2425 32.8646 34.6461 31.3607 36.3108C30.1914 37.6044 29.5797 38.6151 29.4322 39.4907C29.1858 40.9572 30.8821 42.1445 32.5228 43.2922C33.9979 44.3227 35.3902 45.2974 35.536 46.5567C35.6565 47.6089 35.2769 48.7223 34.9099 49.7997C34.2119 51.8446 33.5517 53.7777 36.0433 55.41C38.4358 56.9793 41.897 56.4928 45.7916 54.0408C48.0745 52.6031 50.602 50.8645 51.7209 48.407C52.7661 46.1099 52.1634 44.3659 51.6327 42.8255C51.1704 41.4851 50.7333 40.2203 51.5554 38.9466C52.275 37.8314 53.1888 36.5954 54.1314 35.4658C56.1552 33.0408 57.258 31.2283 57.4109 30.0789C57.6358 28.3763 56.9198 26.081 55.1478 25.1748C54.0613 24.6199 52.1328 24.4343 50.3519 24.7118C48.3389 25.0253 46.8224 25.845 46.1928 26.9638C45.3581 28.4484 44.9138 29.4951 44.5216 30.4176C44.0413 31.5508 43.6599 32.4462 42.7856 33.6245C41.8268 34.9181 40.4632 34.7253 38.7362 34.4839L38.5186 34.4533C37.8134 34.356 37.0183 34.2443 36.1854 34.2443L36.1818 34.2425Z" fill="url(#paint9_linear_1881_5803)"/>
<path d="M40.1915 54.1424C39.1121 54.1424 38.1101 53.8451 37.1981 53.2469C34.6904 51.602 35.3704 49.6635 35.9694 47.9519C36.2644 47.1105 36.5433 46.316 36.4587 45.5881C36.367 44.799 35.3056 43.9973 34.2802 43.2226C32.8213 42.12 31.312 40.9795 31.8787 39.4571C32.1575 38.7076 32.7601 37.96 33.9546 36.8754C35.937 35.0791 38.2702 35.0863 39.9756 35.0935C40.1034 35.0935 40.2275 35.0935 40.348 35.0935C41.7206 35.0899 42.424 34.9944 42.96 34.1279C43.4619 33.3171 43.73 32.6307 44.0412 31.8362C44.3776 30.9804 44.7572 30.0111 45.5127 28.6689C46.8637 26.2691 51.6489 26.0024 53.8256 27.114C55.5615 28.0005 56.013 30.1336 55.6964 31.7407C55.4824 32.8307 54.5523 34.3693 52.9351 36.3115C52.2767 37.1006 51.6021 38.0699 51.0354 39.0409C50.5731 39.8319 50.7692 40.6552 51.0174 41.6984C51.3179 42.9613 51.692 44.5342 50.8555 46.4872C49.9723 48.5518 48.2057 50.0526 46.3168 51.5354C44.1096 53.2686 42.0372 54.1442 40.1879 54.1442L40.1915 54.1424ZM39.659 35.8214C38.0436 35.8214 36.1079 35.9079 34.4457 37.4159C33.3592 38.4014 32.7961 39.0878 32.5641 39.7112C32.1881 40.7237 33.4185 41.6533 34.721 42.637C35.8705 43.5054 37.0578 44.4026 37.1855 45.5017C37.288 46.3971 36.9696 47.3105 36.6602 48.1915C36.0756 49.8616 35.5701 51.303 37.5992 52.6344C40.3642 54.4468 43.6239 52.7227 45.8707 50.957C47.6804 49.5355 49.3732 48.1014 50.1881 46.1953C50.9293 44.4657 50.6001 43.0838 50.3105 41.8641C50.0478 40.7561 49.7978 39.7112 50.4094 38.6662C50.9976 37.6609 51.6956 36.6574 52.3792 35.8376C53.8957 34.018 54.797 32.5496 54.9841 31.5947C55.2575 30.2057 54.8348 28.4437 53.4982 27.7608C51.6057 26.7951 47.2613 27.0546 46.1513 29.0238C45.421 30.321 45.0504 31.265 44.723 32.0992C44.4118 32.8919 44.1186 33.6414 43.5825 34.508C42.8323 35.7205 41.771 35.816 40.3516 35.8196C40.2293 35.8196 40.1034 35.8196 39.9738 35.8196C39.8695 35.8196 39.7652 35.8196 39.659 35.8196V35.8214Z" fill="url(#paint10_linear_1881_5803)"/>
<path d="M41.2459 51.2472C40.3806 51.2472 39.5441 50.9914 38.7562 50.4761C36.7054 49.1321 37.2702 47.5845 37.7236 46.3414C37.9556 45.7054 38.1751 45.1054 38.1085 44.5361C38.0348 43.8929 37.2433 43.2209 36.4787 42.5687C35.4174 41.6661 34.2157 40.6427 35.0828 39.5149C35.5289 38.9348 36.27 38.4483 37.1191 37.9169C38.3838 37.1259 39.7797 36.8881 40.9005 36.6971C41.3178 36.6269 41.71 36.5584 42.0482 36.4737C42.9387 36.2467 43.3614 35.8954 43.7248 35.0847C43.9461 34.5874 44.1008 34.1172 44.2645 33.6163C44.5289 32.8074 44.8275 31.8903 45.4805 30.7319C46.6247 28.6996 50.5139 28.8492 52.1851 29.7031C53.3167 30.2815 53.7412 31.6976 53.2681 33.3136C52.9407 34.4271 51.9603 35.7603 51.1939 36.6845C50.7586 37.207 50.3304 37.8952 49.9203 38.7258C49.6127 39.3492 49.6576 40.0428 49.7098 40.8481C49.7728 41.8246 49.8447 42.9326 49.341 44.2551C48.7132 45.9054 47.5331 47.2548 46.4789 48.3916C44.7232 50.2816 42.9315 51.2454 41.2495 51.2454L41.2459 51.2472ZM49.2385 29.8401C47.9397 29.8401 46.6247 30.1824 46.112 31.0922C45.4949 32.1876 45.2197 33.0308 44.9553 33.8451C44.7862 34.364 44.6261 34.8523 44.3886 35.3837C43.9371 36.3963 43.3308 36.9007 42.2263 37.1818C41.8611 37.2755 41.4527 37.3439 41.021 37.4178C39.9075 37.607 38.6464 37.8214 37.5023 38.5366C36.7144 39.0303 36.0308 39.4771 35.6584 39.9617C35.2465 40.4986 35.8707 41.095 36.95 42.012C37.8225 42.7543 38.7256 43.5218 38.8317 44.4514C38.9181 45.1919 38.6572 45.9036 38.4072 46.5918C37.9502 47.8457 37.5887 48.8366 39.1555 49.8636C41.8341 51.6202 44.5559 49.3843 45.9393 47.8944C46.9485 46.8098 48.0728 45.5234 48.6538 43.9956C49.1018 42.8209 49.037 41.8426 48.9759 40.8968C48.9201 40.0248 48.8661 39.2032 49.2601 38.4033C49.6954 37.5205 50.1559 36.7854 50.6273 36.2179C51.6473 34.9892 52.3344 33.8848 52.5629 33.1083C52.8435 32.1498 52.8256 30.8526 51.8487 30.3553C51.2461 30.0473 50.2477 29.8401 49.2385 29.8401Z" fill="url(#paint11_linear_1881_5803)"/>
<path d="M42.4276 48.3684C41.7062 48.3684 40.9884 48.1432 40.312 47.7C38.7164 46.6532 39.1373 45.5831 39.4755 44.7219C39.6446 44.2931 39.8029 43.8895 39.7562 43.4805C39.7004 42.9941 39.1715 42.4446 38.7056 41.9581C38.1407 41.3708 37.6532 40.8627 37.7432 40.297C37.79 39.9997 37.995 39.7529 38.3476 39.5656C39.0582 39.189 40.0008 39.0088 40.9111 38.8359C41.9778 38.6323 43.0806 38.4233 43.6868 37.9134C44.2409 37.4486 44.383 36.6307 44.5485 35.6848C44.705 34.7912 44.8813 33.7805 45.4372 32.795C46.3277 31.2113 49.2275 31.6257 50.5317 32.2905C50.8663 32.4617 51.0858 32.7499 51.1632 33.1247C51.388 34.2057 50.3752 35.9172 49.438 37.0559C48.9271 37.6756 48.5745 39.0665 48.2003 40.5402C47.8118 42.0698 47.3728 43.803 46.6407 45.2065C45.7916 46.8316 44.6097 47.9144 43.3127 48.2531C43.0176 48.3306 42.7226 48.3684 42.4258 48.3684H42.4276ZM47.8729 32.431C47.0886 32.431 46.3708 32.6274 46.074 33.1553C45.5811 34.0327 45.4228 34.9371 45.2681 35.8127C45.0864 36.8541 44.9137 37.8378 44.1563 38.4738C43.4044 39.1061 42.2063 39.3349 41.0478 39.5547C40.1897 39.7187 39.301 39.888 38.6894 40.2123C38.5563 40.2826 38.4717 40.3583 38.4627 40.4141C38.4304 40.6195 38.8927 41.1006 39.2291 41.4519C39.776 42.0212 40.3948 42.6644 40.4793 43.3959C40.5477 43.985 40.3372 44.5183 40.1537 44.9885C39.8281 45.8191 39.6123 46.3668 40.7114 47.0874C41.4885 47.5973 42.325 47.7558 43.1292 47.545C44.2247 47.2586 45.2411 46.3091 45.9948 44.8678C46.6874 43.54 47.1174 41.8518 47.4951 40.3619C47.9071 38.7404 48.2615 37.3405 48.8767 36.5928C49.7744 35.501 50.6037 34.0129 50.4508 33.276C50.4184 33.1175 50.3411 33.0148 50.2025 32.9445C49.6467 32.6616 48.722 32.4328 47.8747 32.4328L47.8729 32.431Z" fill="url(#paint12_linear_1881_5803)"/>
</g>
<defs>
<linearGradient id="paint0_linear_1881_5803" x1="0.000488281" y1="-0.00390625" x2="95.6972" y2="25.815" gradientUnits="userSpaceOnUse">
<stop stop-color="#FF710D"/>
<stop offset="1" stop-color="#0169D8"/>
</linearGradient>
<linearGradient id="paint1_linear_1881_5803" x1="3.21802" y1="2.65234" x2="92.1965" y2="26.5811" gradientUnits="userSpaceOnUse">
<stop stop-color="#FF710D"/>
<stop offset="1" stop-color="#0169D8"/>
</linearGradient>
<linearGradient id="paint2_linear_1881_5803" x1="6.43213" y1="5.32031" x2="88.6901" y2="27.3674" gradientUnits="userSpaceOnUse">
<stop stop-color="#FF710D"/>
<stop offset="1" stop-color="#0169D8"/>
</linearGradient>
<linearGradient id="paint3_linear_1881_5803" x1="9.64233" y1="7.96875" x2="85.1907" y2="28.1297" gradientUnits="userSpaceOnUse">
<stop stop-color="#FF710D"/>
<stop offset="1" stop-color="#0169D8"/>
</linearGradient>
<linearGradient id="paint4_linear_1881_5803" x1="12.8503" y1="10.6172" x2="81.6982" y2="28.8911" gradientUnits="userSpaceOnUse">
<stop stop-color="#FF710D"/>
<stop offset="1" stop-color="#0169D8"/>
</linearGradient>
<linearGradient id="paint5_linear_1881_5803" x1="16.0457" y1="13.2734" x2="78.1979" y2="29.6706" gradientUnits="userSpaceOnUse">
<stop stop-color="#FF710D"/>
<stop offset="1" stop-color="#0169D8"/>
</linearGradient>
<linearGradient id="paint6_linear_1881_5803" x1="19.2363" y1="15.918" x2="74.7133" y2="30.4332" gradientUnits="userSpaceOnUse">
<stop stop-color="#FF710D"/>
<stop offset="1" stop-color="#0169D8"/>
</linearGradient>
<linearGradient id="paint7_linear_1881_5803" x1="22.4072" y1="18.5703" x2="71.2239" y2="31.2213" gradientUnits="userSpaceOnUse">
<stop stop-color="#FF710D"/>
<stop offset="1" stop-color="#0169D8"/>
</linearGradient>
<linearGradient id="paint8_linear_1881_5803" x1="25.5596" y1="21.2148" x2="67.7492" y2="32.0109" gradientUnits="userSpaceOnUse">
<stop stop-color="#FF710D"/>
<stop offset="1" stop-color="#0169D8"/>
</linearGradient>
<linearGradient id="paint9_linear_1881_5803" x1="28.6775" y1="23.8477" x2="64.2794" y2="32.8103" gradientUnits="userSpaceOnUse">
<stop stop-color="#FF710D"/>
<stop offset="1" stop-color="#0169D8"/>
</linearGradient>
<linearGradient id="paint10_linear_1881_5803" x1="31.7566" y1="26.4844" x2="60.8368" y2="33.6427" gradientUnits="userSpaceOnUse">
<stop stop-color="#FF710D"/>
<stop offset="1" stop-color="#0169D8"/>
</linearGradient>
<linearGradient id="paint11_linear_1881_5803" x1="34.7854" y1="29.1094" x2="57.4544" y2="34.5264" gradientUnits="userSpaceOnUse">
<stop stop-color="#FF710D"/>
<stop offset="1" stop-color="#0169D8"/>
</linearGradient>
<linearGradient id="paint12_linear_1881_5803" x1="37.7324" y1="31.6992" x2="54.1493" y2="35.4554" gradientUnits="userSpaceOnUse">
<stop stop-color="#FF710D"/>
<stop offset="1" stop-color="#0169D8"/>
</linearGradient>
<clipPath id="clip0_1881_5803">
<rect width="80" height="84" fill="white"/>
</clipPath>
</defs>
</svg>
