<svg width="56" height="56" viewBox="0 0 56 56" fill="none" xmlns="http://www.w3.org/2000/svg">
<mask id="mask0_1071_2837" style="mask-type:alpha" maskUnits="userSpaceOnUse" x="13" y="9" width="31" height="38">
<g clip-path="url(#clip0_1071_2837)">
<path d="M24.0451 20.4941L42.085 28.5537L36.1918 32.1275L41.066 40.348L33.3444 45.0312L28.4701 36.8107L22.5769 40.3845L24.0451 20.4941ZM23.0699 18.8503C22.5415 19.1703 22.2005 19.7309 22.1541 20.352L20.686 40.2424C20.6331 40.9568 20.9786 41.6412 21.5812 42.0166C22.1838 42.3927 22.9436 42.3973 23.5507 42.029L27.8179 39.4413L31.7171 46.018C32.2552 46.926 33.4198 47.2206 34.3176 46.6763L42.0392 41.9931C42.937 41.4489 43.2283 40.2711 42.6902 39.3631L38.791 32.7865L43.0582 30.1988C43.6653 29.8305 44.0191 29.1507 43.9753 28.4357C43.9315 27.7207 43.4971 27.0904 42.8494 26.801L24.8094 18.7414C24.2461 18.4899 23.5971 18.5309 23.0686 18.851L23.0699 18.8503Z" fill="#FFFF00"/>
<path d="M28.7188 17.2358C28.4784 16.773 28.655 16.202 29.1119 15.9595L32.4227 14.2023C32.8796 13.9598 33.4448 14.1371 33.6846 14.5999C33.9244 15.0627 33.7484 15.6336 33.2915 15.8761L29.9807 17.6334C29.5238 17.8758 28.9585 17.6985 28.7188 17.2358Z" fill="#FFFF00"/>
<path d="M13.8194 25.1459C13.579 24.6831 13.7556 24.1122 14.2125 23.8697L17.5233 22.1124C17.9802 21.87 18.5454 22.0473 18.7852 22.51C19.0249 22.9728 18.849 23.5438 18.392 23.7863L15.0813 25.5435C14.6244 25.786 14.0591 25.6087 13.8194 25.1459Z" fill="#FFFF00"/>
<path d="M25.4209 14.4584C24.9278 14.3026 24.6526 13.7727 24.8067 13.2747L25.9191 9.66442C26.0725 9.16579 26.5964 8.88747 27.0895 9.04325C27.5825 9.19903 27.8577 9.72895 27.7037 10.2269L26.5913 13.8372C26.4379 14.3359 25.9139 14.6142 25.4209 14.4584Z" fill="#FFFF00"/>
<path d="M21.1449 14.8496C20.6873 15.0927 20.1227 14.9141 19.8829 14.452L18.1454 11.1037C17.9056 10.6415 18.0809 10.0699 18.5385 9.82744C18.9961 9.58432 19.5607 9.76291 19.8004 10.225L21.538 13.5733C21.7777 14.0355 21.6024 14.6071 21.1449 14.8496Z" fill="#FFFF00"/>
<path d="M18.3972 18.1879C18.2432 18.6865 17.7192 18.9648 17.2268 18.809L13.657 17.684C13.1639 17.5289 12.8887 16.999 13.0428 16.5004C13.1968 16.0017 13.7208 15.7234 14.2132 15.8792L17.783 17.0042C18.276 17.1593 18.5512 17.6892 18.3972 18.1879Z" fill="#FFFF00"/>
</g>
</mask>
<g mask="url(#mask0_1071_2837)">
<rect x="4" y="4" width="48" height="48" fill="url(#paint0_linear_1071_2837)"/>
</g>
<defs>
<linearGradient id="paint0_linear_1071_2837" x1="4" y1="4" x2="52" y2="52" gradientUnits="userSpaceOnUse">
<stop stop-color="#FF6900"/>
<stop offset="1" stop-color="#FFC7A0"/>
</linearGradient>
<clipPath id="clip0_1071_2837">
<rect width="31" height="38" fill="white" transform="translate(13 9)"/>
</clipPath>
</defs>
</svg>
