<svg width="87" height="80" viewBox="0 0 87 80" fill="none" xmlns="http://www.w3.org/2000/svg">
<g clip-path="url(#clip0_1872_7130)">
<path d="M80.2906 6.98784C75.9641 2.64082 70.213 0.246451 64.0978 0.246451C63.8997 0.246451 63.7034 0.248347 63.5053 0.254034C61.0128 0.314699 58.4996 0.773478 56.0146 1.62279C55.5863 1.77066 55.1523 1.9299 54.7391 2.09673C52.8296 2.74888 50.9371 3.75175 49.1201 5.06931C49.0616 5.10913 49.0012 5.14894 48.9427 5.19064L48.7352 5.33283C48.3654 5.58686 48.005 5.84279 47.6672 6.09304C47.2654 6.27693 46.8672 6.58594 46.4899 7.0068L46.4616 7.03145C46.3785 7.09969 46.2955 7.16794 46.2125 7.23619L46.1634 7.276C46.0012 7.4106 45.8389 7.5452 45.6785 7.6817C45.5012 7.83336 45.3238 7.98502 45.1464 8.14237C45.0672 8.21252 44.8728 8.38882 44.8728 8.38882C44.7144 8.53101 44.5577 8.67509 44.4011 8.82106L44.3634 8.85519C44.2974 8.91585 44.2313 8.97652 44.1672 9.03908C43.9841 9.21159 43.803 9.38411 43.6219 9.56042C43.437 9.37842 43.2502 9.20211 43.0634 9.02581C43.0011 8.96704 42.8237 8.8021 42.8237 8.8021C42.6634 8.65423 42.503 8.50636 42.3426 8.36228C42.3426 8.36228 42.1294 8.17081 42.0633 8.11014C41.8728 7.94142 41.6822 7.77649 41.4916 7.61345C41.335 7.48075 41.1784 7.34994 41.0218 7.22102C41.0218 7.22102 40.5577 6.83997 40.518 6.80774C40.1105 6.35465 39.6878 6.03047 39.2576 5.84658C38.984 5.64563 38.701 5.44468 38.4161 5.24752L38.1576 5.06931C36.0594 3.49961 33.8858 2.36214 31.7103 1.69293C31.4688 1.60193 31.2254 1.51283 30.965 1.42183C28.5027 0.566838 25.9913 0.0928932 23.5063 0.0132705C23.2441 0.00379156 22.9837 0 22.7233 0C16.6288 0 10.9155 2.36783 6.63616 6.66746C2.15871 11.1642 -0.194172 17.1833 0.0133799 23.6176C0.0699849 25.4053 0.328481 27.212 0.779434 28.9903C0.892644 30.3818 1.25303 31.7752 1.85304 33.1344C2.03229 33.542 2.23796 33.9553 2.46249 34.3648C2.65117 34.8444 2.92099 35.3241 3.26251 35.7904C3.43987 36.0312 3.64365 36.2776 3.85309 36.5051L3.86629 36.5241C3.92479 36.6018 3.98139 36.6776 4.04177 36.7554L4.14555 36.9279C4.5097 37.5307 4.90217 38.1393 5.31161 38.7346L5.38331 38.8369C5.77011 39.3943 6.18332 39.9536 6.60975 40.4995L6.78145 40.7194C6.89843 40.8673 7.01731 41.0152 7.13806 41.1631C7.23052 41.2749 7.32297 41.3887 7.41731 41.5005L7.48524 41.582C7.56637 41.6787 7.64562 41.7754 7.72864 41.8702C7.9211 42.0958 8.11733 42.3176 8.31545 42.5413C8.37205 42.6039 8.54941 42.7991 8.54941 42.7991C8.70602 42.9716 8.8664 43.146 9.02678 43.3186L9.24377 43.5498C9.47585 43.7944 9.7117 44.0371 9.95133 44.2797L43.5256 80L77.2886 44.2797C77.5245 44.0428 77.7547 43.8039 77.983 43.565L78.1962 43.3394C78.3547 43.1707 78.5094 43.002 78.6623 42.8332C78.6623 42.8332 78.8396 42.638 78.8943 42.5773C79.0906 42.3574 79.283 42.1375 79.4717 41.9157C79.5434 41.8304 79.6151 41.7451 79.6868 41.6598L79.7925 41.5327C79.8793 41.4285 79.9679 41.3223 80.0529 41.218C80.1698 41.074 80.2849 40.9318 80.3981 40.7877L80.5793 40.5545C80.9963 40.0199 81.3982 39.472 81.7774 38.9241L81.851 38.818C82.2605 38.2208 82.6491 37.6142 83.0152 36.9999L83.0624 36.9203C83.1171 36.8293 83.1718 36.7383 83.2246 36.6473C83.3548 36.471 83.4831 36.2947 83.5982 36.1279L83.6378 36.0767C83.685 36.016 83.7322 35.9573 83.7756 35.8966C83.9926 35.5989 84.1831 35.2842 84.336 34.9752C84.6662 34.4122 84.9511 33.8548 85.1869 33.3145C85.7379 32.05 86.0794 30.7495 86.2039 29.449C86.6813 27.5931 86.9455 25.7106 86.9907 23.8546C87.1436 17.4753 84.7643 11.4865 80.2887 6.98974L80.2906 6.98784ZM2.90212 24.2925C3.96252 21.5436 6.15502 19.1057 9.25886 17.2156C8.72112 19.517 8.48149 21.9133 8.54564 24.3456C8.55885 24.8802 8.58904 25.4357 8.63621 25.9968C5.90407 27.1324 3.93233 28.5542 2.92665 30.1164C2.81344 30.2908 2.71344 30.469 2.62287 30.6491C2.52853 30.3761 2.44173 30.105 2.35871 29.8396C2.02852 27.9476 2.21154 26.0821 2.90212 24.2925ZM17.1005 2.01521C18.9157 1.5261 20.7987 1.27965 22.695 1.27965C22.9856 1.27965 23.2799 1.28534 23.5743 1.29671C19.8836 2.09673 16.5571 4.23896 13.8703 7.56606C12.0325 9.84099 10.6363 12.5046 9.72491 15.4866C5.72105 17.5739 2.80589 20.5635 1.51341 23.9134C1.44926 24.0802 1.38888 24.2489 1.33228 24.4195C1.15491 21.955 1.38133 19.5246 2.00588 17.1833C3.97196 9.80308 9.75699 3.99251 17.1005 2.01521ZM73.1301 3.5034C73.2923 3.57923 73.4527 3.65506 73.6131 3.73469L73.7905 3.82379C73.932 3.89583 74.0716 3.96787 74.2112 4.0437L74.3697 4.12711C74.5414 4.22001 74.7131 4.31669 74.8829 4.41527C74.9377 4.4475 75.1112 4.54987 75.1112 4.54987C75.2169 4.61243 75.3207 4.67689 75.4263 4.74134C75.5037 4.78874 75.5811 4.83803 75.6584 4.88542C75.7792 4.96315 75.8999 5.04088 76.0207 5.1224L76.1773 5.22477C76.3471 5.33851 76.5132 5.45605 76.6792 5.57549L76.8169 5.67596C76.9528 5.77644 77.0886 5.87692 77.2245 5.98118L77.3339 6.0646C78.783 7.19259 80.0868 8.50257 81.2095 9.95853L81.2944 10.0704C81.3963 10.205 81.4963 10.3396 81.5944 10.4761L81.6963 10.6164C81.8152 10.7832 81.9303 10.95 82.0453 11.1187L82.1529 11.2837C82.2303 11.4012 82.3076 11.5207 82.3831 11.6382C82.4322 11.7159 82.4812 11.7955 82.5303 11.8752C82.5925 11.9775 82.6548 12.0818 82.7171 12.1861L82.7473 12.2373C82.7831 12.2979 82.819 12.3586 82.8548 12.4211C82.9529 12.5899 83.0473 12.7605 83.1397 12.933L83.2265 13.0998C83.2982 13.2363 83.3699 13.3747 83.4397 13.5131L83.5303 13.697C83.6077 13.8544 83.6831 14.0136 83.7567 14.1728L83.8001 14.2657C84.2888 15.3463 84.6926 16.4724 84.9964 17.6156C85.6115 19.9227 85.8398 22.3095 85.6756 24.7304C85.6171 24.5541 85.5549 24.3797 85.4869 24.2053C84.1813 20.8213 81.2416 17.8014 77.2 15.6895C75.0716 8.96135 70.4394 3.83327 64.7978 1.96213C64.294 1.7953 63.7808 1.65312 63.2638 1.53937C63.5544 1.528 63.8431 1.52231 64.1318 1.52231C66.0224 1.52231 67.8979 1.76876 69.7092 2.25787C70.8451 2.56309 71.9678 2.96879 73.0452 3.46169L73.1301 3.5015V3.5034ZM19.761 13.7918C18.71 16.7814 18.0949 20.1995 17.976 23.7143C15.0156 24.0612 12.2212 24.6831 9.86265 25.5229C9.83246 25.102 9.81359 24.6925 9.80227 24.3001C9.73057 21.5645 10.0645 18.8952 10.7947 16.3644C12.8646 15.3236 15.159 14.5634 17.6157 14.1065C18.3081 13.9776 19.027 13.8714 19.761 13.7918ZM17.9515 24.92C17.9515 25.2158 17.9515 25.4888 17.9572 25.7504C17.993 27.6462 18.176 29.5798 18.4987 31.5041C15.776 31.6387 13.2967 31.8624 11.1193 32.1695C10.5721 30.4064 10.191 28.6111 9.98341 26.8253C12.2438 25.9475 14.9892 25.2916 17.9515 24.92ZM53.2202 32.9126C53.0221 35.7658 52.6711 38.5734 52.1749 41.2673L43.6106 42.6645L34.8632 41.237C34.3594 38.5355 33.999 35.7298 33.7915 32.8861C37.1538 33.1306 40.3369 33.4965 43.2558 33.9743L43.6106 34.033L43.9653 33.9743C46.8201 33.5079 49.9314 33.1515 53.2202 32.9126ZM53.2938 31.7012C49.8881 31.9363 46.6314 32.2984 43.6106 32.778C40.5161 32.2851 37.1878 31.9136 33.7141 31.6728C33.6386 30.3647 33.5952 29.068 33.5858 27.813C33.5801 27.066 33.5858 26.2907 33.6009 25.5001C36.9991 26.1466 40.218 27.0983 43.1709 28.3267L43.6143 28.5106L44.0577 28.3267C46.9521 27.1229 50.0881 26.194 53.3862 25.5684C53.4372 27.5608 53.4051 29.6216 53.2938 31.7012ZM32.2726 27.8547C32.2839 29.0775 32.3216 30.3325 32.3896 31.5894C32.0028 31.5666 31.6141 31.5439 31.2254 31.5249C29.0442 31.4169 26.8158 31.3619 24.6007 31.3619C23.0327 31.3619 21.4761 31.3903 19.9723 31.4453C19.6346 29.5325 19.444 27.6025 19.4063 25.7049C19.4006 25.4053 19.3987 25.0925 19.4006 24.7703C20.8742 24.6357 22.3591 24.5655 23.8177 24.5655C26.6121 24.5655 29.4631 24.8025 32.2933 25.2669C32.2726 26.1504 32.2669 27.0205 32.2726 27.8547ZM24.5309 32.5467C27.1347 32.5467 29.8027 32.6302 32.4631 32.797C32.6518 35.5971 32.9801 38.3554 33.4386 41.0057L22.2044 39.1725C21.344 37.0511 20.6704 34.852 20.2025 32.6264C21.6422 32.5733 23.0969 32.5467 24.5309 32.5467ZM33.6745 42.2967C33.9839 43.9138 34.3405 45.4835 34.7349 46.966L35.5217 49.9197L25.6328 45.8039L24.9083 44.5944C24.1214 43.2844 23.4063 41.9138 22.778 40.5204L33.6764 42.2986L33.6745 42.2967ZM52.3221 46.966C52.7089 45.5158 53.0598 43.9574 53.3674 42.3271L64.3393 40.5356C63.7167 41.9365 63.0091 43.2996 62.2336 44.5925L61.477 45.8532L51.5145 50.0012L52.3221 46.966ZM53.5995 41.036C54.0485 38.3895 54.3693 35.6293 54.5485 32.8254C57.1241 32.6662 59.7336 32.5866 62.3091 32.5866C63.8431 32.5866 65.3695 32.615 66.8507 32.6719C66.3997 34.8899 65.745 37.0814 64.9035 39.1914L53.5976 41.036H53.5995ZM55.7599 31.5534C55.3787 31.5723 54.9995 31.5932 54.6202 31.6159C54.7259 29.4983 54.7523 27.3883 54.6957 25.339C57.4524 24.8897 60.2468 24.6603 63.0091 24.6603C64.5563 24.6603 66.0978 24.7323 67.5941 24.8764C67.6243 27.0566 67.4507 29.2784 67.0733 31.4851C65.5016 31.4244 63.877 31.3941 62.2374 31.3941C60.0675 31.3941 57.8882 31.4472 55.7599 31.5515V31.5534ZM62.9317 23.4811C60.6732 23.4811 58.4071 23.6233 56.1938 23.902C55.692 23.9646 55.1731 24.0385 54.6485 24.12C54.6146 23.3257 54.5787 22.6489 54.5316 22.01C54.3617 19.6365 54.0844 17.4033 53.7051 15.3691C57.0146 14.315 60.3845 13.7804 63.728 13.7804C64.311 13.7804 64.8997 13.7975 65.479 13.8297C66.2488 15.7331 66.8205 17.8165 67.1752 20.0232C67.3677 21.2176 67.4941 22.4479 67.5545 23.6859C66.0469 23.5513 64.4921 23.483 62.9298 23.483L62.9317 23.4811ZM33.2424 15.2269C32.7594 17.881 32.4537 20.8441 32.3311 24.0404C31.8103 23.9589 31.2933 23.8849 30.7895 23.8205C28.5215 23.5304 26.2007 23.3844 23.8931 23.3844C22.3856 23.3844 20.8855 23.447 19.4308 23.5721C19.5742 20.0062 20.261 16.5862 21.4233 13.6553C21.995 13.6231 22.5573 13.6079 23.0969 13.6079C26.4574 13.6079 29.8687 14.152 33.2405 15.225L33.2424 15.2269ZM35.1198 42.5318L43.6124 43.9176L51.9258 42.5602C51.6787 43.7735 51.407 44.9338 51.1202 46.0125L49.8767 50.6818L43.6162 53.2885L37.1595 50.6003L35.9387 46.0144C35.6443 44.911 35.3689 43.7413 35.1198 42.5337V42.5318ZM43.6162 27.1248C40.4765 25.8546 37.1198 24.8916 33.6386 24.2603C33.7556 21.1569 34.0688 18.1957 34.5443 15.6686C37.5802 16.7644 40.4746 18.2601 43.1483 20.1161L43.62 20.4441L44.0917 20.1161C46.6804 18.317 49.4767 16.8686 52.4051 15.8089C52.7843 17.7843 53.0617 19.9777 53.2296 22.3323C53.273 22.9389 53.3089 23.5797 53.3391 24.338C49.9371 24.9523 46.6672 25.8907 43.6124 27.1248H43.6162ZM20.9931 40.2265C21.6346 41.7849 22.3799 43.3186 23.2139 44.7954L15.9156 41.7564C15.3062 40.8939 14.7345 40.0085 14.2137 39.1194L20.995 40.2265H20.9931ZM24.2932 46.6343L28.4612 53.5804L21.3988 48.676C21.3988 48.676 17.4458 43.7849 17.4458 43.783L24.2932 46.6343ZM35.9368 51.4818L38.318 60.428L31.6122 55.77L26.7442 47.6542L35.9368 51.4818ZM51.0994 51.5633L60.3675 47.7054L55.458 55.8895L48.6975 60.5853L51.0994 51.5652V51.5633ZM62.8166 46.6855L69.7319 43.8077L65.7393 48.7481L58.6071 53.7017L62.8147 46.6855H62.8166ZM63.9016 44.8447C64.7337 43.3697 65.4771 41.8266 66.1167 40.2455L72.9489 39.1308C72.43 40.0294 71.8621 40.9185 71.2564 41.783L63.9034 44.8447H63.9016ZM76.6169 18.4421C77.1226 20.7796 77.3 23.2119 77.1452 25.6745C74.7848 24.8252 71.9829 24.1901 69.0111 23.8318C68.9526 22.4024 68.8111 20.9901 68.5922 19.627C68.2734 17.6421 67.7884 15.7407 67.1507 13.9681C67.8394 14.0458 68.5281 14.1482 69.1979 14.2733C71.698 14.7378 74.032 15.5132 76.1358 16.5767C76.3207 17.1928 76.4811 17.8203 76.6169 18.4421ZM69.0413 25.0395C72.0149 25.4224 74.7678 26.0916 77.0302 26.9807C76.8358 28.7343 76.4735 30.4993 75.949 32.2339C73.7659 31.9211 71.2753 31.6917 68.5413 31.5515C68.8904 29.3808 69.0583 27.1912 69.0394 25.0395H69.0413ZM33.916 12.1633C33.7688 12.715 33.6254 13.3254 33.4877 13.9776C32.4424 13.6553 31.3839 13.3785 30.3367 13.1567C27.9687 12.6524 25.5479 12.3984 23.1422 12.3984C22.7478 12.3984 22.3497 12.406 21.9554 12.4193C22.2761 11.7273 22.6233 11.0714 22.9856 10.4647C25.2573 6.67694 28.2725 4.59158 31.4726 4.59158C31.6065 4.59158 31.7405 4.59537 31.8763 4.60295C33.4764 4.68826 35.0915 5.28733 36.6802 6.38499C35.6085 7.36131 34.6783 9.30259 33.9179 12.1633H33.916ZM18.7138 32.6889C19.1289 34.7819 19.7195 36.8653 20.4704 38.8881L13.6778 37.7791L13.442 37.7393C12.6816 36.3004 12.0325 34.8236 11.508 33.3468C13.5816 33.0472 16.0628 32.8216 18.7119 32.687L18.7138 32.6889ZM17.4685 45.9461L11.5155 41.8114C10.9212 41.3981 10.3476 40.9735 9.7985 40.5412C10.4155 40.837 11.0665 41.127 11.7457 41.4095L15.0005 42.765C15.493 43.4589 16.0081 44.1375 16.5288 44.784L17.4685 45.9461ZM30.0933 56.3028L38.5274 71.0481L24.3215 52.2932L30.0933 56.3009V56.3028ZM43.6162 54.6781L49.4616 52.2439L46.9106 61.8233L43.62 64.1096L40.1048 61.6678L37.5746 52.1624L43.6162 54.6762V54.6781ZM62.8166 52.3652L49.588 69.6547L56.975 56.4222L62.8166 52.3652ZM75.7245 41.8114L69.6696 46.0163L70.6659 44.7821C71.1734 44.1527 71.6791 43.4835 72.1697 42.7896L75.4867 41.4095C76.1754 41.1232 76.8339 40.8275 77.4566 40.528C76.9056 40.964 76.3282 41.3924 75.7263 41.8095L75.7245 41.8114ZM66.6299 38.909C67.3601 36.9032 67.9318 34.8293 68.3337 32.7363C71.0017 32.8766 73.4942 33.1098 75.5679 33.415C75.0603 34.8842 74.432 36.344 73.7018 37.7544L66.628 38.909H66.6299ZM64.4506 3.3669C69.3017 4.97642 73.432 9.27415 75.5754 14.9198C73.6905 14.1027 71.6602 13.4885 69.5281 13.0923C68.6035 12.9197 67.6394 12.787 66.6582 12.6979C64.8299 8.31868 62.1223 5.14704 59.0241 3.76312C58.2279 3.40861 57.4109 3.17353 56.5825 3.06168C57.7335 2.7868 58.8882 2.64651 60.026 2.64651C61.526 2.64651 63.0148 2.88917 64.4525 3.36501L64.4506 3.3669ZM58.5222 5.50724C61.0336 6.62954 63.3034 9.13766 64.9374 12.588C64.5186 12.5728 64.0959 12.5633 63.6751 12.5633C61.3223 12.5633 58.9562 12.8098 56.6486 13.2951C55.5806 13.5188 54.5089 13.7975 53.4561 14.1217C52.6768 10.5235 51.6239 7.97934 50.4107 6.75656C50.3692 6.71295 50.3258 6.67314 50.2786 6.63144C51.9994 5.44089 53.7391 4.83613 55.4542 4.83613C56.4939 4.83613 57.526 5.06173 58.5222 5.50724ZM43.62 18.863C40.8294 16.9805 37.8651 15.4847 34.8028 14.4117C34.9028 13.9605 35.0085 13.5264 35.1179 13.1169C36.0028 9.7936 37.184 7.77649 38.2935 7.6817C39.252 8.55755 40.2029 9.62866 41.1218 10.8628C41.7445 12.2373 42.3501 14.0288 42.9275 16.1937L43.5294 18.4535L44.1313 16.1937C44.6785 14.1387 45.2596 12.4249 45.8559 11.0979C46.7597 9.87512 47.7106 8.804 48.6786 7.91867C48.9767 7.94711 49.2786 8.11773 49.5956 8.43811C50.5673 9.41634 51.4711 11.587 52.1447 14.5615C49.1824 15.6042 46.3163 17.0525 43.62 18.8668V18.863ZM21.8346 9.31776C21.2497 10.2922 20.7138 11.3709 20.2421 12.5216C19.2346 12.6107 18.2421 12.7453 17.2855 12.9235C15.1892 13.3141 13.1891 13.9169 11.3325 14.7188C12.1759 12.4268 13.3382 10.3566 14.7892 8.56134C18.0006 4.58779 22.2893 2.39816 26.8649 2.39816C27.0574 2.39816 27.2517 2.40195 27.4461 2.40954C28.4083 2.44745 29.3819 2.58395 30.3537 2.81523C27.1083 3.24178 24.1177 5.51293 21.8346 9.31776ZM4.40404 30.6642C5.19085 29.4415 6.69843 28.2945 8.77395 27.3352C8.98716 29.013 9.34566 30.7003 9.84378 32.3629C7.28146 32.7894 5.42482 33.3202 4.46442 33.906C4.33423 33.9856 4.21536 34.0691 4.1097 34.1544C4.038 33.9951 3.9795 33.8378 3.93045 33.6842C3.61346 32.6605 3.77195 31.6425 4.40215 30.6623L4.40404 30.6642ZM5.75313 34.8482C6.53805 34.3705 8.08148 33.9212 10.2249 33.5515C10.674 34.8653 11.2155 36.1772 11.8401 37.4587C5.61161 36.2814 5.33614 35.2501 5.33425 35.2406C5.33048 35.216 5.39463 35.07 5.75313 34.8501V34.8482ZM12.5533 38.8483C12.9137 39.5118 13.3023 40.1792 13.7175 40.8427L12.6325 40.3915C10.6721 39.5763 9.0098 38.7175 7.67015 37.8284C8.98339 38.181 10.6193 38.5241 12.5533 38.8483ZM10.5702 42.7441L20.3912 49.5652L34.9972 67.6433L10.8495 43.3811C10.6079 43.1385 10.3721 42.8939 10.1381 42.6494L10.0721 42.5792C9.89473 42.3896 9.71736 42.2001 9.54378 42.0086C9.87775 42.2569 10.2211 42.5034 10.5683 42.746L10.5702 42.7441ZM33.2443 58.4905L38.8369 62.3749L42.0388 74.4037L33.2443 58.4924V58.4905ZM43.62 65.6963L46.3917 63.7702L43.5275 76.9175L40.6218 63.6148L43.6181 65.6963H43.62ZM48.1786 62.5304L53.5862 59.0061L45.3125 74.7184L48.1786 62.5323V62.5304ZM51.9824 67.9068L66.745 49.6353L76.6679 42.7441C77.0207 42.4996 77.366 42.2512 77.7019 41.9991C77.5188 42.2019 77.3339 42.4029 77.1471 42.6001L77.0905 42.6607C76.8622 42.9015 76.6301 43.1404 76.3924 43.3792L51.9805 67.9068H51.9824ZM73.4376 40.8749C73.8452 40.2133 74.2339 39.5384 74.5942 38.8616C76.5622 38.5317 78.217 38.1848 79.5321 37.8246C78.2113 38.7156 76.5584 39.5763 74.5999 40.3915L73.4376 40.8749ZM76.8547 33.6217C78.9528 33.9932 80.4698 34.4387 81.2491 34.9127C81.6019 35.1269 81.6699 35.2748 81.668 35.2994C81.6661 35.3089 81.3906 36.3231 75.2962 37.472C75.8999 36.2056 76.4245 34.9127 76.8547 33.6198V33.6217ZM78.2415 27.4983C80.3057 28.4632 81.8076 29.614 82.5944 30.8349C83.2227 31.8112 83.3831 32.8235 83.0661 33.8416C83.0246 33.9743 82.9756 34.1089 82.9171 34.2454C82.8039 34.1487 82.6756 34.0577 82.5322 33.9705C81.5774 33.3885 79.7453 32.8577 77.2226 32.4311C77.6962 30.8064 78.0377 29.1495 78.2377 27.4964L78.2415 27.4983ZM77.8358 18.0838C77.7905 17.8791 77.7415 17.6649 77.6868 17.4393C80.8151 19.3502 83.0265 21.8147 84.0963 24.5902C84.8209 26.467 84.985 28.4253 84.5831 30.4083C84.5284 30.5827 84.4737 30.7495 84.419 30.9126C84.319 30.7003 84.2039 30.4917 84.0737 30.2908C83.0661 28.7267 81.0982 27.2973 78.3736 26.1542C78.5811 23.4091 78.4 20.6943 77.8358 18.0857V18.0838Z" fill="url(#paint0_linear_1872_7130)"/>
</g>
<defs>
<linearGradient id="paint0_linear_1872_7130" x1="0.000732422" y1="0" x2="101.966" y2="31.4131" gradientUnits="userSpaceOnUse">
<stop stop-color="#FF710D"/>
<stop offset="1" stop-color="#0169D8"/>
</linearGradient>
<clipPath id="clip0_1872_7130">
<rect width="87" height="80" fill="white"/>
</clipPath>
</defs>
</svg>
