<svg width="16" height="20" viewBox="0 0 16 20" fill="none" xmlns="http://www.w3.org/2000/svg">
<path d="M3.5 20C2.53333 20 1.70833 19.6583 1.025 18.975C0.341667 18.2917 0 17.4667 0 16.5V3.5C0 2.53333 0.341667 1.70833 1.025 1.025C1.70833 0.341667 2.53333 0 3.5 0H14C14.55 0 15.0208 0.195833 15.4125 0.5875C15.8042 0.979167 16 1.45 16 2V14.525C16 14.6583 15.9458 14.7792 15.8375 14.8875C15.7292 14.9958 15.5333 15.1167 15.25 15.25C15.0167 15.3667 14.8333 15.5333 14.7 15.75C14.5667 15.9667 14.5 16.2167 14.5 16.5C14.5 16.7833 14.5667 17.0375 14.7 17.2625C14.8333 17.4875 15.0167 17.65 15.25 17.75C15.4833 17.85 15.6667 17.9875 15.8 18.1625C15.9333 18.3375 16 18.525 16 18.725V18.975C16 19.2583 15.9042 19.5 15.7125 19.7C15.5208 19.9 15.2833 20 15 20H3.5ZM5.7125 12.7125C5.90417 12.5208 6 12.2833 6 12V3C6 2.71667 5.90417 2.47917 5.7125 2.2875C5.52083 2.09583 5.28333 2 5 2C4.71667 2 4.47917 2.09583 4.2875 2.2875C4.09583 2.47917 4 2.71667 4 3V12C4 12.2833 4.09583 12.5208 4.2875 12.7125C4.47917 12.9042 4.71667 13 5 13C5.28333 13 5.52083 12.9042 5.7125 12.7125ZM3.5 18H12.825C12.725 17.7667 12.6458 17.5292 12.5875 17.2875C12.5292 17.0458 12.5 16.7833 12.5 16.5C12.5 16.2333 12.525 15.975 12.575 15.725C12.625 15.475 12.7083 15.2333 12.825 15H3.5C3.06667 15 2.70833 15.1458 2.425 15.4375C2.14167 15.7292 2 16.0833 2 16.5C2 16.9333 2.14167 17.2917 2.425 17.575C2.70833 17.8583 3.06667 18 3.5 18Z" fill="white"/>
</svg>
