<svg width="16" height="24" viewBox="0 0 16 24" fill="none" xmlns="http://www.w3.org/2000/svg">
<path d="M14 11L11.1561 10.2577C9.36269 9.78949 7.98069 8.35953 7.57396 6.55152L7.00015 4L6.47491 6.48949C6.08603 8.33261 4.6853 9.79564 2.86116 10.2647L0 11L2.66803 11.6224C4.49978 12.0496 5.93153 13.4775 6.36401 15.308L6.99985 18L7.62048 15.3209C8.04828 13.4743 9.49203 12.0338 11.3396 11.6101L14 11Z" fill="#FF710D"/>
<path d="M16 5.00014L14.7811 4.68218C14.0125 4.48157 13.4203 3.86877 13.246 3.0938L13 2L12.7748 3.06692C12.6081 3.85692 12.008 4.48388 11.2261 4.68478L10 4.99986L11.1435 5.26666C11.9285 5.44963 12.5422 6.06157 12.7274 6.84636L13 8L13.2659 6.85186C13.4492 6.06041 14.068 5.44298 14.8597 5.26145L15.9997 5.00014H16Z" fill="#FF710D"/>
</svg>
