<svg width="32" height="32" viewBox="0 0 32 32" fill="none" xmlns="http://www.w3.org/2000/svg">
<g clip-path="url(#clip0_1071_3582)">
<path d="M16.064 0.000121943C7.22874 -0.0340072 0.0354727 7.10021 0.000121932 15.9372C-0.0340098 24.7742 7.10197 31.9645 15.9372 31.9999C24.7737 32.0352 31.9657 24.901 31.9999 16.064C32.0352 7.22697 24.8992 0.03547 16.0628 0.000121943M30.7797 13.7981L29.5448 14.2856V14.2941L30.8577 14.4368L30.9016 14.9926L29.134 14.5794L28.054 14.7147L27.9833 14.1735L29.045 14.0418L30.6834 13.2215L30.7797 13.7981ZM29.5095 18.3799C29.5046 18.815 29.2267 19.1649 29.2267 19.1649C29.2267 19.1649 28.9548 18.8102 28.9597 18.375C28.9658 17.9399 29.2437 17.59 29.2437 17.59C29.2437 17.59 29.5143 17.9472 29.5095 18.3811M28.7403 20.6775C28.7403 20.6775 28.2795 20.2265 28.1271 19.5708C27.976 18.9162 28.154 18.4591 28.154 18.4591C28.154 18.4591 28.6245 18.8199 28.7756 19.4769C28.9292 20.1302 28.7403 20.6775 28.7403 20.6775ZM27.7846 22.6083C27.7846 22.6083 27.4079 22.0817 27.3726 21.4113C27.3372 20.7397 27.5908 20.3216 27.5908 20.3216C27.5908 20.3216 27.993 20.758 28.0272 21.4296C28.0637 22.1024 27.7846 22.6095 27.7846 22.6095M30.5237 12.4658L30.0422 12.6133L29.913 12.133L27.6956 12.8144L27.5359 12.2952L29.7545 11.6138L29.5972 11.1445L30.0775 10.9982L30.5249 12.4646L30.5237 12.4658ZM29.6862 10.028L27.1398 11.2152L26.9118 10.7216L29.4583 9.53557L29.6862 10.028ZM15.9567 27.1669C9.79106 27.1426 4.81026 22.1231 4.83464 15.9567C4.85902 9.79032 9.87883 4.81112 16.0457 4.83549C22.2114 4.85987 27.1897 9.8793 27.1654 16.0457C27.1422 22.2109 22.1224 27.1913 15.9567 27.1669ZM24.2788 26.3161C24.013 26.9475 23.5352 27.2913 23.5352 27.2913C23.5352 27.2913 23.4218 26.6428 23.6851 26.009C23.9484 25.3788 24.3653 25.1058 24.3653 25.1058C24.3653 25.1058 24.5421 25.686 24.2788 26.3174M22.6027 27.3924C22.2053 27.9507 21.6592 28.175 21.6592 28.175C21.6592 28.175 21.6957 27.5168 22.0943 26.9609C22.493 26.4051 22.9623 26.2345 22.9623 26.2345C22.9623 26.2345 23.0037 26.8378 22.6027 27.3924ZM10.4432 28.1762C10.4432 28.1762 9.89711 27.9519 9.4985 27.3937C9.09868 26.8391 9.14012 26.2357 9.14012 26.2357C9.14012 26.2357 9.60943 26.4063 10.008 26.9622C10.4079 27.518 10.4432 28.1762 10.4432 28.1762ZM8.56719 27.29C8.56719 27.29 8.08935 26.9463 7.82361 26.3149C7.56031 25.6835 7.73706 25.1033 7.73706 25.1033C7.73706 25.1033 8.15518 25.3776 8.41848 26.0065C8.68178 26.6404 8.56719 27.2888 8.56719 27.2888M27.5286 7.85227C27.9065 7.60971 28.3807 7.65846 28.6988 8.14968C28.7964 8.30326 28.85 8.47756 28.8524 8.57386L28.4124 8.75303C28.4124 8.66162 28.3843 8.53485 28.299 8.40199C28.1735 8.20697 27.9943 8.18868 27.8687 8.27035C27.7297 8.35933 27.7005 8.47756 27.7115 8.83104C27.7224 9.26253 27.5603 9.52947 27.3116 9.68915C26.8825 9.96462 26.3949 9.83054 26.0987 9.3698C25.9781 9.18209 25.9074 8.96512 25.9037 8.8603L26.3413 8.67259C26.3486 8.79935 26.4145 8.98462 26.4998 9.11627C26.6387 9.33323 26.8179 9.36736 26.9715 9.26741C27.1422 9.15649 27.158 8.99803 27.1593 8.71769C27.1483 8.27035 27.3165 7.98878 27.5298 7.85227M26.9142 5.80817C27.1166 6.02636 27.2556 6.25795 27.2592 6.50538C27.2641 6.7321 27.1605 6.89787 26.9837 7.0612C26.7643 7.26476 26.4681 7.34155 26.1768 7.22332L26.1707 7.22819C26.2462 7.41956 26.1804 7.61093 25.9976 7.85349C25.8062 8.10458 25.5904 8.43246 25.5502 8.53851L25.1772 8.08386C25.2125 8.00707 25.3759 7.76938 25.5733 7.52926C25.794 7.25379 25.8074 7.12337 25.6831 6.98929L25.6294 6.932L24.8127 7.69137L24.4238 7.30864L26.4937 5.38765C26.6168 5.50711 26.7741 5.65581 26.9142 5.80817ZM25.4819 4.45398L25.1881 4.84037L24.6518 4.43691L24.2642 4.95007L24.7737 5.33524L24.5019 5.69604L23.9911 5.31086L23.5364 5.913L24.113 6.34815L23.8217 6.73819L22.8123 5.97638L24.5116 3.72142L25.4819 4.45276V4.45398ZM21.9566 2.29775L22.5027 2.54396L21.8067 4.65997L21.814 4.66363L23.1098 2.85722L23.6254 3.15463L21.7762 5.34865L21.2386 5.07318L21.9554 2.29896L21.9566 2.29775ZM20.5194 1.76143L21.035 1.93573L20.1269 4.60634L19.6125 4.43082L20.5194 1.76143ZM17.667 1.15442L18.1521 1.21536L18.5568 3.23264H18.5641L18.8311 1.32872L19.3029 1.42745L18.8287 4.21142L18.3447 4.11025L17.9644 2.09541H17.9571L17.6694 3.9908L17.1928 3.93473L17.6694 1.15198L17.667 1.15442ZM15.2229 1.08007L15.2838 2.90354C15.2985 3.31431 15.4277 3.43376 15.5679 3.4301C15.7251 3.42523 15.8336 3.30821 15.819 2.88526L15.7544 1.06422L16.3005 1.06788L16.359 2.7719C16.3834 3.48861 16.1262 3.88719 15.5886 3.90547C15.0035 3.92619 14.7621 3.53127 14.7377 2.83162L14.6792 1.12151L15.2229 1.08007ZM11.7427 1.66392C11.945 1.60054 12.1071 1.59078 12.2034 1.60419L12.2546 2.07956C12.1681 2.06737 12.0633 2.07591 11.9316 2.11735C11.5805 2.23071 11.377 2.56103 11.6 3.25702C11.8048 3.89694 12.1279 4.04565 12.3692 3.96886C12.4168 3.95301 12.4497 3.93838 12.468 3.92498L12.2607 3.2814L12.0243 3.35697L11.8877 2.93401L12.6033 2.70364L13.0592 4.12731C12.9604 4.21142 12.7313 4.33696 12.5375 4.39913C12.2327 4.49664 11.9755 4.48323 11.7402 4.36256C11.4416 4.21507 11.1905 3.85915 11.0515 3.39841C10.7528 2.42695 11.1771 1.84675 11.7414 1.66514M8.47211 3.09612L9.38758 3.85184C9.56433 4.00055 9.85689 4.24555 10.0446 4.42107L10.0519 4.41863C9.89468 4.16876 9.6265 3.76164 9.37782 3.31187L9.0743 2.76215L9.50094 2.54518L10.8747 5.01955L10.4298 5.23651L9.52776 4.50517C9.33272 4.34306 9.04992 4.09684 8.87316 3.90547L8.86585 3.91035C9.01335 4.15169 9.24008 4.51858 9.51435 5.01223L9.82641 5.57536L9.41683 5.82646L8.0479 3.35453L8.47333 3.09734L8.47211 3.09612ZM6.64119 4.36134L8.90851 6.1775L8.47943 6.50417L7.96258 6.07999L7.57859 6.40422L7.9065 6.98685L7.51642 7.35252L6.14384 4.78064L6.63997 4.36012L6.64119 4.36134ZM4.43725 6.54439L5.08697 6.83814C5.25641 6.91615 5.4478 7.01001 5.63308 7.1124L5.63796 7.1063C5.50631 6.94906 5.37953 6.78207 5.26007 6.61509L4.8578 6.05439L5.23691 5.64484L6.12799 7.216L6.96666 7.92906L6.61315 8.34226L5.79155 7.64262L4.07765 6.99294L4.43603 6.54317L4.43725 6.54439ZM2.88548 8.84323L4.93582 9.16746L4.94069 9.16015L3.23289 8.24841L3.48766 7.8413L5.94271 9.24303L5.67087 9.66477L3.68513 9.35273L3.66197 9.34176L5.33077 10.2584L5.11501 10.6874L2.65752 9.2796L2.88669 8.84323H2.88548ZM1.97001 10.8727L4.84561 11.2615L4.65545 11.7576L4.01182 11.6662L3.85092 12.1428L4.41653 12.4646L4.26781 12.9814L1.76522 11.4724L1.97001 10.8739V10.8727ZM4.73103 21.4113C4.69446 22.0817 4.31901 22.6083 4.31901 22.6083C4.31901 22.6083 4.03986 22.1024 4.07399 21.4284C4.11056 20.758 4.51283 20.3204 4.51283 20.3204C4.51283 20.3204 4.76516 20.7385 4.73103 21.4101M1.16548 14.2941L2.2967 14.4416L2.37106 13.8785L1.2313 13.731L1.33126 13.1923L4.13128 13.5592L4.03133 14.0979L2.87085 13.9443L2.79649 14.5075L3.95575 14.661L3.91309 15.1998L1.11184 14.8329L1.16426 14.2941H1.16548ZM3.97647 19.5695C3.8241 20.2253 3.3621 20.6763 3.3621 20.6763C3.3621 20.6763 3.17438 20.129 3.32675 19.4757C3.47791 18.8199 3.94966 18.4579 3.94966 18.4579C3.94966 18.4579 4.12763 18.915 3.97647 19.5695ZM3.14512 18.3738C3.14878 18.8089 2.87694 19.1636 2.87694 19.1636C2.87694 19.1636 2.59901 18.815 2.59292 18.3787C2.58804 17.9447 2.85988 17.5876 2.85988 17.5876C2.85988 17.5876 3.13903 17.9387 3.14512 18.3726M1.2886 18.6822C1.2886 18.6822 2.00049 18.8077 2.52465 19.4013C3.04882 19.9949 3.15731 20.7567 3.15731 20.7567C3.15731 20.7567 2.41494 20.5568 1.89078 19.9632C1.36539 19.3696 1.2886 18.6822 1.2886 18.6822ZM1.92857 21.02C1.92857 21.02 2.65265 21.02 3.27311 21.5125C3.89236 22.0073 4.13128 22.7387 4.13128 22.7387C4.13128 22.7387 3.36454 22.6692 2.74407 22.1743C2.12482 21.6807 1.92857 21.0188 1.92857 21.0188M5.60626 25.0972C5.54532 25.5178 5.27226 25.9858 5.02481 25.9493C4.77491 25.9139 4.64448 25.3873 4.70299 24.9668C4.73469 24.7645 4.80539 24.589 4.90047 24.4634C4.75419 24.5195 4.56403 24.539 4.36289 24.511C3.94112 24.4512 3.47181 24.1758 3.50838 23.9271C3.54495 23.6797 4.07155 23.5492 4.49211 23.6102C4.69446 23.6394 4.87121 23.7114 4.99433 23.8052C4.93948 23.6589 4.91875 23.4688 4.94801 23.2677C5.00896 22.8459 5.28201 22.3767 5.53069 22.4132C5.77936 22.4498 5.91101 22.9764 5.85006 23.3969C5.82081 23.5992 5.74889 23.7747 5.65259 23.8991C5.80008 23.843 5.98903 23.8235 6.19138 23.854C6.61193 23.9125 7.08124 24.1867 7.04711 24.4354C7.01054 24.684 6.48394 24.8157 6.06095 24.7535C5.85981 24.7255 5.68306 24.6536 5.55872 24.5573C5.6148 24.7048 5.6343 24.8949 5.60505 25.0972M6.97275 27.5448C6.24258 27.3766 5.80618 26.8951 5.80618 26.8951C5.80618 26.8951 6.42177 26.5989 7.14951 26.7647C7.87847 26.9329 8.38069 27.457 8.38069 27.457C8.38069 27.457 7.69927 27.7106 6.97275 27.5448ZM9.01944 28.7917C8.30633 28.7942 7.79679 28.4395 7.79679 28.4395C7.79679 28.4395 8.30389 28.0324 9.01578 28.0311C9.72889 28.0275 10.3079 28.4066 10.3079 28.4066C10.3079 28.4066 9.73011 28.7893 9.01822 28.7917M12.8983 29.0514C12.7203 29.1391 12.5387 29.1793 12.3826 29.172C12.5094 29.2598 12.6313 29.4012 12.7179 29.5791C12.9031 29.9533 12.9422 30.4823 12.7215 30.5896C12.5009 30.7005 12.1035 30.3458 11.9194 29.9741C11.8304 29.7937 11.7926 29.6108 11.7987 29.4585C11.711 29.584 11.5696 29.7059 11.3892 29.7937C11.0161 29.9777 10.4871 30.0155 10.3774 29.7949C10.2689 29.5755 10.6212 29.1781 10.9954 28.9928C11.1746 28.9039 11.3562 28.8673 11.5111 28.8734C11.3843 28.7844 11.2648 28.6442 11.1746 28.4651C10.9918 28.0921 10.9528 27.5619 11.1734 27.4534C11.394 27.3437 11.7902 27.6972 11.9755 28.0714C12.0633 28.2493 12.1023 28.4322 12.095 28.5845C12.1827 28.4602 12.3229 28.3371 12.5033 28.2493C12.8775 28.0653 13.4066 28.0263 13.5163 28.2469C13.6248 28.4687 13.2713 28.8649 12.8971 29.0489M16.0018 30.3263C15.6885 30.3263 15.435 30.0728 15.435 29.7595C15.435 29.4463 15.6885 29.1952 16.0018 29.1952C16.3151 29.1952 16.5674 29.4487 16.5674 29.7595C16.5674 30.0704 16.3139 30.3263 16.0018 30.3263ZM21.7226 29.7961C21.6141 30.0167 21.0826 29.9777 20.712 29.7949C20.5328 29.7071 20.3902 29.5852 20.3024 29.4597C20.3097 29.6133 20.2695 29.7949 20.1805 29.9753C19.9977 30.347 19.6003 30.7017 19.3809 30.5908C19.159 30.4836 19.1992 29.9546 19.3833 29.5804C19.4711 29.4024 19.5918 29.261 19.7173 29.1732C19.5625 29.1806 19.3821 29.1403 19.2017 29.0526C18.8274 28.8697 18.4739 28.4724 18.5837 28.2505C18.6909 28.0299 19.2212 28.0689 19.5954 28.253C19.7746 28.3407 19.916 28.4638 20.0038 28.5882C19.9952 28.4346 20.0355 28.253 20.1232 28.075C20.3073 27.7008 20.7035 27.3473 20.9241 27.457C21.1448 27.5655 21.1057 28.0957 20.9217 28.4687C20.8327 28.6479 20.7132 28.7881 20.5865 28.8771C20.74 28.871 20.9229 28.9075 21.1009 28.9965C21.4751 29.1818 21.8286 29.5779 21.7189 29.7985M23.0842 28.7917C22.3735 28.7905 21.7957 28.4066 21.7957 28.4066C21.7957 28.4066 22.3747 28.0275 23.0878 28.0311C23.8009 28.0311 24.308 28.4395 24.308 28.4395C24.308 28.4395 23.7973 28.7942 23.0842 28.7917ZM25.1309 27.5448C24.4031 27.7106 23.7229 27.457 23.7229 27.457C23.7229 27.457 24.2251 26.9317 24.9541 26.7647C25.6806 26.5989 26.2974 26.8951 26.2974 26.8951C26.2974 26.8951 25.861 27.3778 25.1309 27.5448ZM27.7383 24.5097C27.5384 24.539 27.3482 24.5195 27.2019 24.4622C27.297 24.589 27.3701 24.7645 27.3994 24.9656C27.4603 25.3861 27.3287 25.9127 27.0812 25.948C26.8313 25.9846 26.5583 25.5165 26.4986 25.096C26.4693 24.8937 26.4888 24.7048 26.5449 24.5561C26.4193 24.6511 26.2426 24.7243 26.0414 24.7523C25.6197 24.8145 25.0931 24.6828 25.0577 24.4342C25.0224 24.1855 25.4905 23.9125 25.9134 23.8528C26.1146 23.8223 26.3047 23.8418 26.451 23.8979C26.3547 23.7735 26.2828 23.5968 26.2535 23.3957C26.1926 22.9751 26.323 22.4474 26.5729 22.412C26.8216 22.3767 27.0934 22.8447 27.1556 23.2665C27.1849 23.4676 27.1629 23.6577 27.1093 23.804C27.2336 23.7089 27.4091 23.637 27.6115 23.609C28.0321 23.548 28.5599 23.6784 28.5952 23.9259C28.6318 24.1745 28.1625 24.4488 27.7395 24.5097M29.3571 22.1743C28.7379 22.668 27.9711 22.7387 27.9711 22.7387C27.9711 22.7387 28.21 22.0073 28.8305 21.5125C29.4522 21.02 30.175 21.02 30.175 21.02C30.175 21.02 29.98 21.6819 29.3583 22.1755M30.2128 19.9632C29.6874 20.5568 28.9439 20.7567 28.9439 20.7567C28.9439 20.7567 29.0524 19.9962 29.5765 19.4013C30.1031 18.8077 30.815 18.6822 30.815 18.6822C30.815 18.6822 30.737 19.3696 30.2128 19.9632ZM11.7488 28.6186C11.5269 28.7283 11.4343 28.9989 11.5428 29.222C11.6549 29.4451 11.9255 29.5353 12.1486 29.4243C12.3717 29.3159 12.4631 29.044 12.3534 28.8234C12.2437 28.5991 11.9743 28.5077 11.7488 28.6174M5.73304 24.2465C5.76839 23.9954 5.59407 23.7626 5.34418 23.7248C5.09307 23.6894 4.8578 23.8637 4.82367 24.116C4.78588 24.3671 4.9602 24.6012 5.21253 24.6377C5.46364 24.6731 5.69769 24.4988 5.73304 24.2465ZM2.38203 11.3603L2.37716 11.3712C2.54538 11.459 2.80624 11.5918 2.9513 11.6711L3.46815 11.9551L3.59493 11.5784L3.01103 11.4773C2.84159 11.4505 2.5661 11.3968 2.38081 11.3603M20.3536 28.6186C20.1293 28.5089 19.8599 28.6004 19.749 28.8246C19.6393 29.0465 19.7319 29.3183 19.955 29.4256C20.1769 29.5365 20.4475 29.4463 20.5584 29.2232C20.6681 28.9989 20.5755 28.7296 20.3524 28.6199M7.20314 5.40228C7.07149 5.29014 6.86304 5.10365 6.72408 4.97567L6.71433 4.9842C6.81185 5.14509 6.96788 5.39375 7.05077 5.53636L7.34698 6.04708L7.65051 5.78989L7.20314 5.40228ZM26.7594 23.7248C26.5095 23.7626 26.334 23.9954 26.3706 24.2465C26.4071 24.4988 26.6387 24.6731 26.8911 24.6377C27.1434 24.6012 27.3177 24.3671 27.2812 24.116C27.2458 23.8637 27.0118 23.6894 26.7606 23.7248M26.5741 6.69431C26.7472 6.53342 26.807 6.34815 26.6461 6.16287C26.6144 6.12874 26.5754 6.09218 26.5473 6.07877L25.9342 6.648L26 6.71747C26.1609 6.89056 26.3925 6.8613 26.5729 6.69431" fill="#072B61"/>
<path d="M19.0188 12.6002V12.9661H15.4553V12.6026H13.7432V12.9661H11.0334V14.5009C11.0334 14.5009 11.2076 14.5009 11.2967 14.5009C11.027 14.8422 10.8942 15.2487 10.8942 15.7754C10.8942 16.2018 11.0787 16.6728 11.3882 17.0348C11.7494 17.5019 12.3827 17.7938 13.0391 17.7938H16.3528V17.4621H16.5413V17.7851L21.439 17.793L21.4367 16.2026H20.7317V14.5382H21.4398L21.443 12.9661H20.7564V12.5962L19.0196 12.6002H19.0188ZM20.6673 12.6837V13.0537H21.3539C21.3539 13.1332 21.3507 14.3712 21.3507 14.4507H20.6434V16.2902H21.3483C21.3483 16.3705 21.3507 17.6252 21.3507 17.7055C21.2656 17.7055 16.7132 17.6976 16.628 17.6976V17.3746H16.2653V17.7063H13.0383C12.4082 17.7063 11.8011 17.4279 11.4551 16.9799C11.1575 16.6323 10.9809 16.182 10.9809 15.7762C10.9809 15.2352 11.1185 14.8255 11.4137 14.4857L11.4765 14.4133C11.4765 14.4133 11.1838 14.4141 11.1193 14.4149V13.0553H13.8291V12.6917H15.3654V13.0553H19.104V12.6893C19.1843 12.6893 20.5846 12.6861 20.6657 12.6861" fill="#072B61"/>
<path d="M18.0816 14.6227C18.0816 14.3451 17.9026 14.1589 17.6822 14.1589C17.4618 14.1589 17.2836 14.3451 17.2836 14.6227C17.2836 14.9004 17.4634 15.089 17.6822 15.089C17.901 15.089 18.0816 14.9083 18.0816 14.6227ZM14.1975 14.9346C14.1975 14.6967 14.0344 14.5177 13.8315 14.5177C13.6286 14.5177 13.4663 14.6975 13.4663 14.9346C13.4663 15.1717 13.6302 15.3523 13.8315 15.3523C14.0328 15.3523 14.1975 15.1765 14.1975 14.9346ZM18.1405 15.7175C17.8899 15.7175 17.6631 15.8798 17.6631 16.1495C17.6631 16.4192 17.8899 16.5807 18.1405 16.5807C18.3911 16.5807 18.6178 16.4168 18.6178 16.1495C18.6178 15.8822 18.3927 15.7175 18.1405 15.7175ZM21.0802 14.2257V13.3243H20.3857V12.9727H19.3697V13.3243H15.1092V12.9727H14.0933V13.3243H11.4193V14.2257H12.2236C11.6659 14.4692 11.3055 15.0014 11.3055 15.7787C11.3055 16.8218 12.2865 17.4161 13.0765 17.4161H16.0266V17.0994H16.8612V17.4161H21.0794V16.5147H20.3849V14.2265H21.0794L21.0802 14.2257ZM13.4281 13.9075H14.2365V14.1454H13.4281V13.9075ZM13.0789 14.9346C13.0789 14.7516 13.1863 14.5893 13.3589 14.4827H13.0725V14.244H14.5913V14.4827H14.3049C14.4767 14.5885 14.5841 14.7508 14.5841 14.9346C14.5841 15.2528 14.2603 15.5122 13.8315 15.5122C13.4027 15.5122 13.0789 15.2536 13.0789 14.9346ZM15.2827 16.7311L13.8665 16.7295C13.5745 16.7295 13.3947 16.5608 13.3947 16.2839V15.7326H13.8434V16.4924H15.2827V16.7311ZM15.5922 14.8375H15.2556V15.8495H14.8427V13.9075H15.2556V14.5997H15.5922V14.8375ZM16.8619 14.6227C16.8619 14.2536 17.216 13.9536 17.6814 13.9536C18.1468 13.9536 18.5025 14.2536 18.5025 14.6227C18.5025 14.9919 18.1492 15.2926 17.6814 15.2926C17.2136 15.2926 16.8619 14.9935 16.8619 14.6227ZM19.3816 14.4954H19.0315V14.8375H19.3816V15.0754H19.0315V16.1495H19.0308C19.0276 16.5131 18.6353 16.8098 18.1413 16.8098C17.6472 16.8098 17.255 16.5131 17.2518 16.1495C17.255 15.7851 17.6472 15.4891 18.1413 15.4891C18.3171 15.4891 18.481 15.5265 18.6186 15.5926V13.9075H19.0323V14.2568H19.3824V14.4954H19.3816Z" fill="#072B61"/>
<path d="M14.7624 20.3649L14.7918 20.3816C14.7918 20.3911 14.7934 20.4007 14.7958 20.4142C14.7974 20.4269 14.8021 20.4389 14.8085 20.4476C14.8252 20.4715 14.8475 20.4922 14.8753 20.5089C14.904 20.5264 14.9334 20.5407 14.966 20.551C14.9979 20.5622 15.0313 20.5709 15.0631 20.5749C15.0957 20.5797 15.1268 20.5821 15.153 20.5821C15.41 20.5821 15.5476 20.4365 15.5651 20.1477C15.4951 20.1866 15.4251 20.2193 15.3567 20.2471C15.2867 20.275 15.2143 20.2885 15.1379 20.2885C15.0782 20.2885 15.017 20.2797 14.9541 20.2638C14.8913 20.2471 14.8348 20.2217 14.7846 20.1866C14.7337 20.1516 14.6924 20.1063 14.6605 20.0514C14.6287 19.9965 14.612 19.9305 14.612 19.8525C14.612 19.7594 14.6303 19.6791 14.6685 19.613C14.7043 19.547 14.7536 19.4921 14.8133 19.4491C14.873 19.4062 14.9398 19.3751 15.013 19.3545C15.087 19.3338 15.1594 19.3242 15.2326 19.3242C15.3233 19.3242 15.4068 19.3409 15.4824 19.3751C15.5572 19.4086 15.6232 19.4571 15.6773 19.5183C15.7314 19.5796 15.7744 19.6528 15.803 19.7371C15.8332 19.8215 15.8484 19.9146 15.8484 20.0156C15.8484 20.1357 15.8309 20.2431 15.7974 20.3386C15.764 20.4349 15.7155 20.5176 15.6534 20.5868C15.5898 20.6561 15.5166 20.7078 15.4291 20.7444C15.3424 20.7794 15.2445 20.7977 15.1379 20.7977C15.0639 20.7977 14.9995 20.7913 14.9485 20.7802C14.896 20.7674 14.8523 20.7539 14.8181 20.7356C14.7831 20.7189 14.7552 20.7038 14.7337 20.6895C14.7122 20.6759 14.6939 20.6688 14.6812 20.6688C14.6637 20.6688 14.647 20.6751 14.6351 20.6855L14.6152 20.6656L14.764 20.3633L14.7624 20.3649ZM15.0933 19.5756C15.0551 19.5836 15.0217 19.5971 14.9915 19.617C14.9621 19.6353 14.9382 19.6616 14.9207 19.6934C14.9032 19.7252 14.8944 19.765 14.8944 19.8127C14.8944 19.8605 14.9032 19.9002 14.9207 19.9321C14.9382 19.9639 14.9621 19.9893 14.9915 20.0084C15.0217 20.0267 15.0551 20.0411 15.0933 20.049C15.1315 20.057 15.1705 20.0609 15.2103 20.0609C15.2501 20.0609 15.2875 20.057 15.3264 20.049C15.3646 20.0403 15.3981 20.0267 15.4283 20.0084C15.4585 19.9885 15.4824 19.9639 15.4999 19.9321C15.5166 19.8994 15.5246 19.8605 15.5246 19.8127C15.5246 19.765 15.5166 19.7252 15.4999 19.6934C15.4824 19.6616 15.4585 19.6353 15.4283 19.617C15.3988 19.5979 15.3646 19.5836 15.3264 19.5756C15.2875 19.5677 15.2501 19.5629 15.2103 19.5629C15.1705 19.5629 15.1315 19.5677 15.0933 19.5756Z" fill="#072B61"/>
<path d="M17.4507 20.3649L17.4802 20.3816C17.4802 20.3911 17.4817 20.4007 17.4849 20.4142C17.4865 20.4269 17.4913 20.4389 17.4977 20.4476C17.5152 20.4715 17.5366 20.4922 17.5653 20.5089C17.5931 20.5264 17.6234 20.5407 17.6552 20.551C17.687 20.5622 17.7204 20.5709 17.753 20.5749C17.7857 20.5797 17.8159 20.5821 17.8422 20.5821C18.0999 20.5821 18.2368 20.4365 18.2543 20.1477C18.1851 20.1866 18.115 20.2193 18.0458 20.2471C17.9766 20.275 17.9026 20.2885 17.827 20.2885C17.7674 20.2885 17.7061 20.2797 17.6433 20.2638C17.5804 20.2471 17.5231 20.2217 17.473 20.1866C17.4229 20.1516 17.3815 20.1063 17.3489 20.0514C17.3171 19.9965 17.3011 19.9305 17.3011 19.8525C17.3011 19.7594 17.3202 19.6791 17.3576 19.613C17.3942 19.547 17.4428 19.4921 17.5024 19.4491C17.5621 19.4062 17.6289 19.3751 17.7021 19.3545C17.7753 19.3338 17.8493 19.3242 17.9209 19.3242C18.0116 19.3242 18.0952 19.3409 18.1707 19.3751C18.2463 19.4086 18.3124 19.4571 18.3657 19.5183C18.4198 19.5796 18.4619 19.6528 18.4922 19.7371C18.5216 19.8215 18.5367 19.9146 18.5367 20.0156C18.5367 20.1357 18.5208 20.2431 18.4858 20.3386C18.4524 20.4349 18.4038 20.5176 18.3418 20.5868C18.2789 20.6561 18.2049 20.7078 18.1174 20.7444C18.0307 20.7794 17.9336 20.7977 17.8262 20.7977C17.7523 20.7977 17.6886 20.7913 17.6369 20.7802C17.5844 20.7674 17.5406 20.7539 17.5064 20.7356C17.4714 20.7189 17.4436 20.7038 17.4229 20.6895C17.4006 20.6759 17.3839 20.6688 17.3704 20.6688C17.3529 20.6688 17.3369 20.6751 17.3234 20.6855L17.3043 20.6656L17.4531 20.3633L17.4507 20.3649ZM17.7817 19.5756C17.7435 19.5836 17.7093 19.5971 17.6791 19.617C17.6504 19.6353 17.6258 19.6616 17.6082 19.6934C17.5915 19.7252 17.582 19.765 17.582 19.8127C17.582 19.8605 17.5915 19.9002 17.6082 19.9321C17.6258 19.9639 17.6504 19.9893 17.6791 20.0084C17.7093 20.0267 17.7427 20.0411 17.7817 20.049C17.8199 20.057 17.8581 20.0609 17.8986 20.0609C17.9392 20.0609 17.9758 20.057 18.0148 20.049C18.053 20.0403 18.0872 20.0267 18.1174 20.0084C18.1469 19.9885 18.1699 19.9639 18.1882 19.9321C18.2049 19.8994 18.2137 19.8605 18.2137 19.8127C18.2137 19.765 18.2049 19.7252 18.1882 19.6934C18.1699 19.6616 18.1469 19.6353 18.1174 19.617C18.0872 19.5979 18.053 19.5836 18.0148 19.5756C17.9766 19.5677 17.9384 19.5629 17.8986 19.5629C17.8589 19.5629 17.8199 19.5677 17.7817 19.5756Z" fill="#072B61"/>
<path d="M15.9518 19.5406L15.9813 19.516C15.994 19.5247 16.0083 19.5287 16.0226 19.5287C16.0322 19.5287 16.0457 19.5183 16.0688 19.4969C16.0911 19.4754 16.1237 19.4531 16.1667 19.4269C16.2096 19.3998 16.2637 19.3775 16.3313 19.3568C16.3982 19.3354 16.4801 19.3242 16.5756 19.3242C16.64 19.3242 16.7045 19.3306 16.7697 19.3449C16.835 19.36 16.8938 19.3831 16.9463 19.4165C16.9996 19.4483 17.0442 19.4889 17.0776 19.5398C17.1118 19.5899 17.1277 19.6512 17.1277 19.722C17.1277 19.7888 17.111 19.8493 17.076 19.905C17.041 19.9615 16.9941 19.9965 16.9344 20.0116V20.0172C17.0044 20.0347 17.0625 20.0713 17.1078 20.1262C17.1532 20.1803 17.1763 20.2487 17.1763 20.3314C17.1763 20.4245 17.1548 20.5025 17.1134 20.563C17.0712 20.6242 17.0179 20.672 16.9567 20.7078C16.8938 20.7444 16.8246 20.7674 16.7506 20.7786C16.6766 20.7913 16.6058 20.7969 16.5398 20.7969C16.465 20.7969 16.3958 20.7889 16.3313 20.773C16.2661 20.7579 16.2096 20.7388 16.1603 20.7189C16.111 20.6982 16.0696 20.6791 16.0378 20.6608C16.0051 20.6441 15.9821 20.6354 15.9693 20.6354C15.9614 20.6354 15.9542 20.637 15.9479 20.6417C15.9423 20.6449 15.9367 20.6489 15.9296 20.6513L15.9073 20.6441L16.0513 20.2487L16.0783 20.2638C16.0768 20.2686 16.0752 20.2742 16.0752 20.2837V20.3028C16.0752 20.345 16.0935 20.3832 16.1301 20.4158C16.1667 20.45 16.2088 20.4778 16.2597 20.5001C16.3107 20.5232 16.364 20.5407 16.4181 20.5534C16.4745 20.5646 16.5207 20.5709 16.5581 20.5709C16.5875 20.5709 16.6233 20.5677 16.6639 20.5606C16.7037 20.5542 16.7427 20.5423 16.7769 20.5256C16.8119 20.5089 16.8421 20.4866 16.8668 20.4587C16.8914 20.4293 16.9042 20.3919 16.9042 20.3458C16.9042 20.2996 16.8922 20.2654 16.8692 20.24C16.8453 20.2121 16.8167 20.1922 16.7817 20.1771C16.7474 20.1628 16.7108 20.1532 16.6719 20.1485C16.6337 20.1437 16.6003 20.1413 16.5724 20.1413C16.5318 20.1413 16.4984 20.1453 16.469 20.154C16.4403 20.162 16.4204 20.1827 16.4109 20.2161H16.3815V19.8414H16.4109C16.4141 19.878 16.4324 19.9026 16.4634 19.9138C16.496 19.9265 16.5318 19.9321 16.5716 19.9321C16.5979 19.9321 16.6289 19.9297 16.6631 19.9241C16.6973 19.9185 16.7299 19.909 16.7602 19.8947C16.7904 19.8795 16.8159 19.8589 16.8373 19.8342C16.8588 19.8087 16.87 19.7761 16.87 19.7379C16.87 19.6997 16.8604 19.6719 16.8413 19.6488C16.823 19.6258 16.7984 19.6082 16.7681 19.5955C16.7371 19.5828 16.7045 19.5732 16.6663 19.5693C16.6297 19.5653 16.5923 19.5621 16.5541 19.5621C16.5096 19.5621 16.4642 19.5677 16.4181 19.5796C16.3719 19.5892 16.3298 19.6043 16.2916 19.6234C16.2542 19.6409 16.2223 19.6623 16.1977 19.6838C16.1722 19.7061 16.1603 19.7284 16.1603 19.7499C16.1603 19.7586 16.1619 19.7666 16.1627 19.7761C16.1643 19.7873 16.1667 19.7968 16.1698 19.8056L16.1484 19.8223L15.9495 19.5406H15.9518Z" fill="#072B61"/>
<path d="M14.0368 20.7579C14.0543 20.7579 14.0678 20.7531 14.0806 20.742C14.0925 20.7324 14.0997 20.7117 14.0997 20.6799V19.7594C14.0869 19.7594 14.0742 19.7594 14.0591 19.7626C14.0432 19.7634 14.0281 19.7666 14.013 19.7713C13.9978 19.7761 13.9843 19.7825 13.9724 19.7912C13.9596 19.7992 13.9517 19.8111 13.9469 19.8254H13.9175V19.4786H13.9469C13.9469 19.4945 13.9541 19.5064 13.9692 19.512C13.9851 19.5191 13.9978 19.5223 14.0114 19.5223C14.0392 19.5223 14.0631 19.512 14.0822 19.4929C14.1021 19.4746 14.1108 19.4507 14.1108 19.4229C14.1108 19.3974 14.106 19.3807 14.0949 19.3743C14.0838 19.3664 14.0702 19.3608 14.0511 19.3568V19.3242H14.4513V19.3568C14.4322 19.3608 14.4155 19.368 14.402 19.3759C14.3893 19.3855 14.3829 19.399 14.3829 19.4173V20.6799C14.3829 20.7117 14.3901 20.7324 14.402 20.742C14.4155 20.7531 14.4306 20.7579 14.4473 20.7579V20.7905H14.0384V20.7579H14.0368Z" fill="#072B61"/>
</g>
<defs>
<clipPath id="clip0_1071_3582">
<rect width="32" height="32" fill="white"/>
</clipPath>
</defs>
</svg>
