<svg width="115" height="18" viewBox="0 0 115 18" fill="none" xmlns="http://www.w3.org/2000/svg">
<path d="M8.38586 0.690724C8.68521 -0.230587 9.98862 -0.230588 10.288 0.690722L11.8066 5.36448C11.9404 5.77651 12.3244 6.05547 12.7576 6.05547H17.6719C18.6406 6.05547 19.0434 7.29508 18.2597 7.86448L14.284 10.753C13.9335 11.0077 13.7868 11.459 13.9207 11.8711L15.4393 16.5448C15.7386 17.4661 14.6842 18.2323 13.9004 17.6629L9.9247 14.7743C9.57421 14.5197 9.09962 14.5197 8.74913 14.7743L4.77339 17.6629C3.98968 18.2323 2.9352 17.4661 3.23455 16.5448L4.75314 11.8711C4.88702 11.459 4.74036 11.0077 4.38987 10.753L0.414135 7.86448C-0.369579 7.29508 0.0331967 6.05547 1.00192 6.05547H5.9162C6.34943 6.05547 6.73339 5.77651 6.86726 5.36448L8.38586 0.690724Z" fill="#FF710D"/>
<path d="M32.3859 0.690724C32.6852 -0.230587 33.9886 -0.230588 34.288 0.690722L35.8066 5.36448C35.9404 5.77651 36.3244 6.05547 36.7576 6.05547H41.6719C42.6406 6.05547 43.0434 7.29508 42.2597 7.86448L38.284 10.753C37.9335 11.0077 37.7868 11.459 37.9207 11.8711L39.4393 16.5448C39.7386 17.4661 38.6842 18.2323 37.9004 17.6629L33.9247 14.7743C33.5742 14.5197 33.0996 14.5197 32.7491 14.7743L28.7734 17.6629C27.9897 18.2323 26.9352 17.4661 27.2345 16.5448L28.7531 11.8711C28.887 11.459 28.7404 11.0077 28.3899 10.753L24.4141 7.86448C23.6304 7.29508 24.0332 6.05547 25.0019 6.05547H29.9162C30.3494 6.05547 30.7334 5.77651 30.8673 5.36448L32.3859 0.690724Z" fill="#FF710D"/>
<path d="M56.3859 0.690724C56.6852 -0.230587 57.9886 -0.230588 58.288 0.690722L59.8066 5.36448C59.9404 5.77651 60.3244 6.05547 60.7576 6.05547H65.6719C66.6406 6.05547 67.0434 7.29508 66.2597 7.86448L62.284 10.753C61.9335 11.0077 61.7868 11.459 61.9207 11.8711L63.4393 16.5448C63.7386 17.4661 62.6842 18.2323 61.9004 17.6629L57.9247 14.7743C57.5742 14.5197 57.0996 14.5197 56.7491 14.7743L52.7734 17.6629C51.9897 18.2323 50.9352 17.4661 51.2345 16.5448L52.7531 11.8711C52.887 11.459 52.7404 11.0077 52.3899 10.753L48.4141 7.86448C47.6304 7.29508 48.0332 6.05547 49.0019 6.05547H53.9162C54.3494 6.05547 54.7334 5.77651 54.8673 5.36448L56.3859 0.690724Z" fill="#FF710D"/>
<path d="M80.3859 0.690724C80.6852 -0.230587 81.9886 -0.230588 82.288 0.690722L83.8066 5.36448C83.9404 5.77651 84.3244 6.05547 84.7576 6.05547H89.6719C90.6406 6.05547 91.0434 7.29508 90.2597 7.86448L86.284 10.753C85.9335 11.0077 85.7868 11.459 85.9207 11.8711L87.4393 16.5448C87.7386 17.4661 86.6842 18.2323 85.9004 17.6629L81.9247 14.7743C81.5742 14.5197 81.0996 14.5197 80.7491 14.7743L76.7734 17.6629C75.9897 18.2323 74.9352 17.4661 75.2345 16.5448L76.7531 11.8711C76.887 11.459 76.7404 11.0077 76.3899 10.753L72.4141 7.86448C71.6304 7.29508 72.0332 6.05547 73.0019 6.05547H77.9162C78.3494 6.05547 78.7334 5.77651 78.8673 5.36448L80.3859 0.690724Z" fill="#FF710D"/>
<path d="M104.386 0.690724C104.685 -0.230587 105.989 -0.230588 106.288 0.690722L107.807 5.36448C107.94 5.77651 108.324 6.05547 108.758 6.05547H113.672C114.641 6.05547 115.043 7.29508 114.26 7.86448L110.284 10.753C109.933 11.0077 109.787 11.459 109.921 11.8711L111.439 16.5448C111.739 17.4661 110.684 18.2323 109.9 17.6629L105.925 14.7743C105.574 14.5197 105.1 14.5197 104.749 14.7743L100.773 17.6629C99.9897 18.2323 98.9352 17.4661 99.2345 16.5448L100.753 11.8711C100.887 11.459 100.74 11.0077 100.39 10.753L96.4141 7.86448C95.6304 7.29508 96.0332 6.05547 97.0019 6.05547H101.916C102.349 6.05547 102.733 5.77651 102.867 5.36448L104.386 0.690724Z" fill="#FF710D"/>
</svg>
