<svg width="172" height="42" viewBox="0 0 172 42" fill="none" xmlns="http://www.w3.org/2000/svg">
<g clip-path="url(#clip0_1637_8443)">
<path d="M54.3035 7.02173L61.0705 17.8603L67.4005 7.02173H70.7916L62.7987 20.694V31.1364H57.7448V21.0552L49.0234 7.02674H54.2984L54.3035 7.02173Z" fill="white"/>
<path d="M72.6261 7.02173H77.665V22.5047C77.665 23.4476 77.7856 24.3303 78.0317 25.1428C78.2729 25.9603 78.6245 26.6776 79.0817 27.2945C79.5389 27.9114 80.0965 28.3979 80.7446 28.749C81.3927 29.1001 82.1261 29.2756 82.94 29.2756C83.7538 29.2756 84.4873 29.1001 85.1354 28.749C85.7835 28.3979 86.3411 27.9114 86.7983 27.2945C87.2554 26.6776 87.6071 25.9603 87.8482 25.1428C88.0894 24.3253 88.215 23.4476 88.215 22.5047V7.02173H91.385V22.5047C91.385 23.7535 91.2042 24.9322 90.8424 26.0406C90.4807 27.149 89.913 28.122 89.1444 28.9596C88.3757 29.7972 87.3911 30.4593 86.1904 30.9408C84.9897 31.4273 83.5479 31.668 81.8649 31.668C80.3477 31.668 79.0164 31.4273 77.871 30.9408C76.7205 30.4543 75.761 29.7972 74.9773 28.9596C74.1986 28.122 73.6108 27.144 73.2139 26.0306C72.817 24.9121 72.6211 23.7234 72.6211 22.4645V7.02173H72.6261Z" fill="white"/>
<path d="M95.7344 7.02173H100.638L107.731 23.5027L114.739 7.02173H119.542V31.1314H114.503V15.4077L107.802 31.1314H105.852L98.9295 15.2271V31.1314H95.7394V7.02173H95.7344Z" fill="white"/>
<path d="M139.221 7.02173V9.05302H128.922V17.0227H137.473V19.0941H128.922V28.6587H139.221V31.1314H123.898V7.02173H139.221Z" fill="white"/>
<path d="M142.719 7.02173H150.169C152.078 7.02173 153.841 7.28254 155.444 7.80917C157.052 8.3358 158.433 9.10317 159.594 10.1113C160.754 11.1194 161.653 12.3582 162.302 13.8278C162.945 15.2973 163.266 16.9725 163.266 18.8584C163.266 20.5586 162.995 22.1536 162.452 23.6382C161.91 25.1278 161.116 26.4268 160.071 27.5352C159.026 28.6437 157.74 29.5214 156.213 30.1634C154.685 30.8053 152.937 31.1314 150.968 31.1314H142.724V7.02173H142.719ZM147.743 28.6637H150.425C151.42 28.6637 152.354 28.448 153.224 28.0167C154.093 27.5854 154.856 26.9584 155.514 26.1359C156.167 25.3133 156.69 24.2902 157.067 23.0764C157.444 21.8627 157.634 20.4683 157.634 18.9035C157.634 17.5493 157.454 16.2954 157.102 15.1368C156.745 13.9833 156.248 12.9852 155.61 12.1476C154.972 11.31 154.208 10.653 153.329 10.1765C152.445 9.70002 151.48 9.45927 150.43 9.45927H147.748V28.6637H147.743Z" fill="white"/>
<path d="M166.961 7.02173H172V31.1314H166.961V7.02173Z" fill="white"/>
<path d="M17.2015 17.1732H0V4.56413L4.59176 0H17.2015V17.1732Z" fill="#8A949E"/>
<path d="M38.1273 20.8796H20.9258V38.0528H38.1273V20.8796Z" fill="#8A949E"/>
<path d="M38.1273 0H20.9258V17.1732H38.1273V0Z" fill="#8A949E"/>
<path d="M26.8164 11.5658V5.60234C26.8164 5.1058 27.359 4.79484 27.786 5.04561L32.9254 8.02985C33.3524 8.28063 33.3524 8.89753 32.9254 9.1433L27.786 12.1275C27.354 12.3783 26.8164 12.0673 26.8164 11.5708V11.5658Z" fill="white"/>
<path d="M17.2015 20.8796H0V35.3946V38.0528V42L3.41116 38.0528H17.2015V20.8796Z" fill="#8A949E"/>
<path d="M5.4644 29.401C5.4644 30.0279 4.957 30.5395 4.324 30.5395C3.69602 30.5395 3.18359 30.033 3.18359 29.401C3.18359 29.1001 3.30416 28.8092 3.51516 28.5985C3.73119 28.3828 4.01755 28.2675 4.31897 28.2675C4.6204 28.2675 4.91178 28.3879 5.12278 28.5985C5.33378 28.8092 5.45435 29.1001 5.45435 29.401H5.4644Z" fill="white"/>
<path d="M9.76128 29.401C9.76128 30.0279 9.25387 30.5395 8.62087 30.5395C7.9929 30.5395 7.48047 30.033 7.48047 29.401C7.48047 29.1001 7.60104 28.8092 7.81204 28.5985C8.02806 28.3828 8.31442 28.2675 8.61585 28.2675C8.91728 28.2675 9.20866 28.3879 9.41966 28.5985C9.63568 28.8142 9.75123 29.1001 9.75123 29.401H9.76128Z" fill="white"/>
<path d="M14.0503 29.401C14.0503 30.0279 13.5429 30.5395 12.9099 30.5395C12.282 30.5395 11.7695 30.033 11.7695 29.401C11.7695 29.1001 11.8901 28.8092 12.1011 28.5985C12.3171 28.3828 12.6035 28.2675 12.9049 28.2675C13.2063 28.2675 13.4977 28.3879 13.7087 28.5985C13.9247 28.8142 14.0403 29.1001 14.0403 29.401H14.0503Z" fill="white"/>
<path d="M4.57669 0V4.56413H0L4.57669 0Z" fill="white"/>
<path d="M13.7642 12.8347H3.33984V13.5168H13.7642V12.8347Z" fill="white"/>
<path d="M13.7642 9.84045H3.33984V10.5226H13.7642V9.84045Z" fill="white"/>
<path d="M13.7642 6.8512H3.33984V7.53331H13.7642V6.8512Z" fill="white"/>
<path d="M13.765 3.85693H8.42969V4.53905H13.765V3.85693Z" fill="white"/>
<path d="M34.0557 27.0036C34.0557 27.0036 34.0557 27.0036 34.0507 27.0036C33.9502 26.5171 33.7141 26.0607 33.3373 25.6845C32.8399 25.188 32.1718 24.9121 31.4684 24.9121C30.7651 24.9121 30.0969 25.188 29.5996 25.6845L25.7112 29.5665C25.2138 30.0631 24.9375 30.7301 24.9375 31.4323C24.9375 32.1395 25.2138 32.8015 25.7112 33.2981C26.1281 33.7144 26.6456 33.9601 27.1882 34.0404C27.992 34.1607 28.836 33.91 29.4489 33.2981L29.906 32.8417L33.3423 29.411C33.8397 28.9145 34.116 28.2474 34.116 27.5453C34.116 27.3597 34.0959 27.1741 34.0607 26.9936L34.0557 27.0036ZM29.2379 32.4404L28.9113 32.7664C28.1779 33.4987 26.9822 33.4987 26.2437 32.7664C25.887 32.4103 25.6911 31.9389 25.6911 31.4373C25.6911 30.9358 25.887 30.4643 26.2437 30.1082L27.9769 28.3778L30.6345 31.0461L29.2379 32.4404ZM33.1765 28.3427C33.0861 28.5433 32.9605 28.7289 32.7998 28.8894L31.0615 30.6248L28.4039 27.9565L30.1321 26.2312C30.4888 25.8751 30.961 25.6795 31.4634 25.6795C31.9658 25.6795 32.438 25.8751 32.7947 26.2312C33.0761 26.5121 33.2469 26.8581 33.3122 27.2243C33.3323 27.3196 33.3423 27.4199 33.3423 27.5202C33.3474 27.8011 33.2921 28.0819 33.1715 28.3427H33.1765Z" fill="white"/>
</g>
<defs>
<clipPath id="clip0_1637_8443">
<rect width="172" height="42" fill="white"/>
</clipPath>
</defs>
</svg>
