<svg width="246" height="38" viewBox="0 0 246 38" fill="none" xmlns="http://www.w3.org/2000/svg">
<g clip-path="url(#clip0_1637_9130)">
<mask id="mask0_1637_9130" style="mask-type:luminance" maskUnits="userSpaceOnUse" x="0" y="0" width="246" height="38">
<path d="M246 0H0V37.6074H246V0Z" fill="white"/>
</mask>
<g mask="url(#mask0_1637_9130)">
<path fill-rule="evenodd" clip-rule="evenodd" d="M42.2891 29.7193L42.8669 29.0377C43.3183 29.49 43.9262 29.7795 44.5281 29.7795C45.2804 29.7795 45.7077 29.4237 45.7077 28.8991C45.7077 28.3322 45.2864 28.1512 44.7086 27.8979L43.8419 27.5241C43.2401 27.2707 42.572 26.7944 42.572 25.8837C42.572 24.9007 43.4386 24.1589 44.6243 24.1589C45.3526 24.1589 46.0387 24.4665 46.5142 24.9489L45.9966 25.5761C45.6054 25.2263 45.1721 25.0153 44.6243 25.0153C43.9864 25.0153 43.571 25.3229 43.571 25.8234C43.571 26.3602 44.0706 26.5652 44.5822 26.7642L45.4368 27.1321C46.1711 27.4456 46.7068 27.904 46.7068 28.8206C46.7068 29.8218 45.8763 30.6359 44.51 30.6359C43.6553 30.6359 42.8549 30.2982 42.2891 29.7193Z" fill="white"/>
<path fill-rule="evenodd" clip-rule="evenodd" d="M50.2703 30.8047C49.9032 31.8059 49.4156 32.4753 48.4285 32.4753C48.1938 32.4753 48.0072 32.4391 47.8446 32.3848L48.0313 31.619C48.1156 31.643 48.2539 31.6852 48.3683 31.6852C48.874 31.6852 49.1749 31.3114 49.3434 30.8108L49.4337 30.4851L47.5859 25.8476H48.585L49.4517 28.2538C49.5901 28.6699 49.7286 29.1343 49.873 29.5685H49.9151L50.2823 28.2538L51.0286 25.8476H51.9796L50.2703 30.7988V30.8047Z" fill="white"/>
<path fill-rule="evenodd" clip-rule="evenodd" d="M52.7656 29.9906L53.2231 29.3634C53.6384 29.6952 54.0477 29.9002 54.5472 29.9002C55.1069 29.9002 55.3718 29.6288 55.3718 29.273C55.3718 28.8508 54.8481 28.6639 54.3365 28.4649C53.7166 28.2297 53.0064 27.898 53.0064 27.108C53.0064 26.318 53.6324 25.739 54.6616 25.739C55.2875 25.739 55.7991 25.9923 56.1784 26.2939L55.7209 26.8969C55.3959 26.6617 55.0709 26.4868 54.6796 26.4868C54.1741 26.4868 53.9333 26.7401 53.9333 27.0658C53.9333 27.4637 54.4149 27.6206 54.9264 27.8075C55.5765 28.0548 56.2987 28.3442 56.2987 29.2248C56.2987 30.0087 55.6788 30.642 54.5291 30.642C53.8851 30.642 53.2231 30.3705 52.7717 29.9967L52.7656 29.9906Z" fill="white"/>
<path fill-rule="evenodd" clip-rule="evenodd" d="M57.7153 28.9955V26.6376H57.0352V25.9079L57.7575 25.8596L57.8658 24.569H58.6903V25.8596H59.9001V26.6435H58.6903V29.0136C58.6903 29.5745 58.8829 29.864 59.3705 29.864C59.533 29.864 59.7377 29.8157 59.8701 29.7554L60.0506 30.4791C59.7857 30.5635 59.4728 30.648 59.1358 30.648C58.0825 30.648 57.7214 29.9967 57.7214 29.0076L57.7153 28.9955Z" fill="white"/>
<path fill-rule="evenodd" clip-rule="evenodd" d="M60.8692 28.1995C60.8692 26.6798 61.9045 25.739 62.9999 25.739C64.2397 25.739 64.8958 26.6315 64.8958 27.9583C64.8958 28.1453 64.8778 28.3383 64.8537 28.4528H61.8263C61.9045 29.3454 62.4642 29.8821 63.2648 29.8821C63.6801 29.8821 64.0351 29.7555 64.3722 29.5323L64.7093 30.1534C64.2759 30.4429 63.7403 30.6479 63.1323 30.6479C61.8684 30.6479 60.8633 29.7494 60.8633 28.2116L60.8692 28.1995ZM64.0532 27.7713C64.0532 26.9633 63.686 26.4989 63.012 26.4989C62.4281 26.4989 61.9105 26.9512 61.8142 27.7713H64.0532Z" fill="white"/>
<path fill-rule="evenodd" clip-rule="evenodd" d="M66.4126 25.8535H67.207L67.2854 26.5049H67.3094C67.7066 26.0828 68.1761 25.733 68.7479 25.733C69.4401 25.733 69.8313 26.0586 70.0359 26.5893C70.4934 26.0948 70.9688 25.733 71.5526 25.733C72.5277 25.733 72.9852 26.3963 72.9852 27.5844V30.5213H72.0101V27.699C72.0101 26.8908 71.7573 26.5712 71.2276 26.5712C70.9026 26.5712 70.5656 26.7823 70.1743 27.2105V30.5213H69.1993V27.699C69.1993 26.8908 68.9525 26.5712 68.4169 26.5712C68.1039 26.5712 67.7548 26.7823 67.3636 27.2105V30.5213H66.3945V25.8476L66.4126 25.8535Z" fill="white"/>
<path d="M78.2154 24.2736H77.2344V30.5273H78.2154V24.2736Z" fill="white"/>
<path fill-rule="evenodd" clip-rule="evenodd" d="M79.9414 27.4156C79.9414 25.3771 81.1812 24.1529 82.7581 24.1529C83.5406 24.1529 84.1485 24.5268 84.5277 24.943L83.992 25.5702C83.673 25.2385 83.2818 25.0093 82.7702 25.0093C81.6928 25.0093 80.9465 25.9079 80.9465 27.3794C80.9465 28.8508 81.6387 29.7735 82.7461 29.7735C83.3119 29.7735 83.7573 29.5202 84.1305 29.1101L84.6541 29.7313C84.1545 30.3102 83.5165 30.6299 82.716 30.6299C81.1451 30.6299 79.9414 29.46 79.9414 27.4095V27.4156Z" fill="white"/>
<path fill-rule="evenodd" clip-rule="evenodd" d="M87.6701 24.2736H88.7113L89.6382 27.512C89.8489 28.2236 89.9873 28.8388 90.204 29.5564H90.2461C90.4568 28.8327 90.6133 28.2236 90.8119 27.512L91.7328 24.2736H92.7319L90.7818 30.5273H89.6202L87.6641 24.2736H87.6701Z" fill="white"/>
<path fill-rule="evenodd" clip-rule="evenodd" d="M93.3984 28.1995C93.3984 26.6798 94.4337 25.739 95.5291 25.739C96.7689 25.739 97.425 26.6315 97.425 27.9583C97.425 28.1453 97.407 28.3383 97.3829 28.4528H94.3555C94.4337 29.3454 94.9934 29.8821 95.794 29.8821C96.2092 29.8821 96.5644 29.7555 96.9074 29.5323L97.2444 30.1534C96.8111 30.4429 96.2754 30.6479 95.6676 30.6479C94.4036 30.6479 93.3984 29.7494 93.3984 28.2116V28.1995ZM96.5824 27.7713C96.5824 26.9633 96.2152 26.4989 95.5412 26.4989C94.9574 26.4989 94.4397 26.9512 94.3434 27.7713H96.5824Z" fill="white"/>
<path fill-rule="evenodd" clip-rule="evenodd" d="M98.9436 25.8535H99.738L99.8162 26.6918H99.8403C100.171 26.0887 100.665 25.733 101.165 25.733C101.393 25.733 101.544 25.7691 101.688 25.8355L101.508 26.6858C101.345 26.6376 101.231 26.6074 101.044 26.6074C100.665 26.6074 100.207 26.8728 99.9065 27.6085V30.5213H98.9375V25.8476L98.9436 25.8535Z" fill="white"/>
<path fill-rule="evenodd" clip-rule="evenodd" d="M102.699 24.4002C102.699 24.0504 102.964 23.8213 103.319 23.8213C103.674 23.8213 103.945 24.0504 103.945 24.4002C103.945 24.75 103.674 24.9792 103.319 24.9792C102.964 24.9792 102.699 24.744 102.699 24.4002ZM102.831 25.8536H103.8V30.5274H102.831V25.8536Z" fill="white"/>
<path fill-rule="evenodd" clip-rule="evenodd" d="M105.851 25.2686C105.851 24.3097 106.284 23.6464 107.325 23.6464C107.639 23.6464 107.933 23.7127 108.15 23.8091L107.958 24.5389C107.788 24.4605 107.608 24.4183 107.452 24.4183C107.036 24.4183 106.832 24.6896 106.832 25.2565V25.8535H107.771V26.6376H106.832V30.5273H105.857V26.6376H105.219V25.9079L105.857 25.8596V25.2746L105.851 25.2686ZM108.643 24.4002C108.643 24.0504 108.915 23.8213 109.27 23.8213C109.624 23.8213 109.896 24.0504 109.896 24.4002C109.896 24.75 109.624 24.9791 109.27 24.9791C108.915 24.9791 108.643 24.7439 108.643 24.4002ZM108.782 25.8535H109.757V30.5273H108.782V25.8535Z" fill="white"/>
<path fill-rule="evenodd" clip-rule="evenodd" d="M111.316 28.1995C111.316 26.6376 112.395 25.739 113.622 25.739C114.218 25.739 114.646 25.9742 114.988 26.2758L114.507 26.915C114.254 26.6858 113.99 26.5471 113.67 26.5471C112.888 26.5471 112.328 27.2105 112.328 28.2056C112.328 29.2007 112.864 29.8459 113.64 29.8459C114.032 29.8459 114.38 29.6589 114.657 29.4237L115.055 30.069C114.633 30.449 114.08 30.6479 113.544 30.6479C112.28 30.6479 111.316 29.7555 111.316 28.2116V28.1995Z" fill="white"/>
<path fill-rule="evenodd" clip-rule="evenodd" d="M116.09 29.2851C116.09 28.2839 116.939 27.7653 118.877 27.5542C118.871 27.0114 118.672 26.535 117.986 26.535C117.492 26.535 117.035 26.7582 116.637 27.0114L116.27 26.3481C116.752 26.0405 117.408 25.739 118.154 25.739C119.316 25.739 119.852 26.4808 119.852 27.7171V30.5274H119.057L118.973 29.9906H118.949C118.527 30.3585 118.028 30.6359 117.468 30.6359C116.662 30.6359 116.096 30.1112 116.096 29.2851H116.09ZM118.877 29.3212V28.1754C117.492 28.3442 117.029 28.694 117.029 29.2187C117.029 29.6771 117.341 29.864 117.756 29.864C118.173 29.864 118.491 29.671 118.877 29.3212Z" fill="white"/>
<path fill-rule="evenodd" clip-rule="evenodd" d="M121.668 28.9955V26.6376H120.988V25.9079L121.71 25.8596L121.819 24.569H122.644V25.8596H123.853V26.6435H122.644V29.0136C122.644 29.5745 122.835 29.864 123.323 29.864C123.486 29.864 123.69 29.8157 123.822 29.7554L124.004 30.4791C123.738 30.5635 123.426 30.648 123.089 30.648C122.035 30.648 121.674 29.9967 121.674 29.0076L121.668 28.9955Z" fill="white"/>
<path fill-rule="evenodd" clip-rule="evenodd" d="M125.16 24.4002C125.16 24.0504 125.425 23.8213 125.78 23.8213C126.135 23.8213 126.407 24.0504 126.407 24.4002C126.407 24.75 126.135 24.9792 125.78 24.9792C125.425 24.9792 125.16 24.744 125.16 24.4002ZM125.292 25.8536H126.262V30.5274H125.292V25.8536Z" fill="white"/>
<path fill-rule="evenodd" clip-rule="evenodd" d="M127.82 28.1995C127.82 26.6376 128.862 25.739 130.018 25.739C131.173 25.739 132.214 26.6376 132.214 28.1995C132.214 29.7615 131.173 30.6359 130.018 30.6359C128.862 30.6359 127.82 29.7433 127.82 28.1995ZM131.209 28.1995C131.209 27.2044 130.752 26.5411 130.012 26.5411C129.272 26.5411 128.826 27.2044 128.826 28.1995C128.826 29.1946 129.283 29.8399 130.012 29.8399C130.74 29.8399 131.209 29.1885 131.209 28.1995Z" fill="white"/>
<path fill-rule="evenodd" clip-rule="evenodd" d="M133.78 25.8535H134.574L134.652 26.4988H134.676C135.109 26.0828 135.585 25.733 136.217 25.733C137.21 25.733 137.649 26.3963 137.649 27.5844V30.5213H136.674V27.699C136.674 26.8908 136.439 26.5712 135.886 26.5712C135.452 26.5712 135.157 26.7944 134.742 27.2105V30.5213H133.773V25.8476L133.78 25.8535Z" fill="white"/>
<path fill-rule="evenodd" clip-rule="evenodd" d="M141.566 27.4156C141.566 25.3771 142.807 24.1529 144.383 24.1529C145.166 24.1529 145.774 24.5268 146.153 24.943L145.617 25.5702C145.292 25.2385 144.907 25.0093 144.395 25.0093C143.318 25.0093 142.572 25.9079 142.572 27.3794C142.572 28.8508 143.264 29.7735 144.371 29.7735C144.937 29.7735 145.382 29.5202 145.756 29.1101L146.279 29.7313C145.779 30.3102 145.142 30.6299 144.341 30.6299C142.771 30.6299 141.566 29.46 141.566 27.4095V27.4156Z" fill="white"/>
<path fill-rule="evenodd" clip-rule="evenodd" d="M147.393 28.1995C147.393 26.6798 148.428 25.739 149.524 25.739C150.763 25.739 151.42 26.6315 151.42 27.9583C151.42 28.1453 151.402 28.3383 151.377 28.4528H148.35C148.428 29.3454 148.988 29.8821 149.788 29.8821C150.203 29.8821 150.559 29.7555 150.896 29.5323L151.233 30.1534C150.8 30.4429 150.264 30.6479 149.656 30.6479C148.392 30.6479 147.387 29.7494 147.387 28.2116L147.393 28.1995ZM150.577 27.7713C150.577 26.9633 150.21 26.4989 149.536 26.4989C148.952 26.4989 148.434 26.9512 148.338 27.7713H150.577Z" fill="white"/>
<path fill-rule="evenodd" clip-rule="evenodd" d="M152.936 25.8535H153.73L153.809 26.4988H153.833C154.266 26.0828 154.742 25.733 155.373 25.733C156.367 25.733 156.806 26.3963 156.806 27.5844V30.5213H155.831V27.699C155.831 26.8908 155.597 26.5712 155.042 26.5712C154.61 26.5712 154.314 26.7944 153.899 27.2105V30.5213H152.93V25.8476L152.936 25.8535Z" fill="white"/>
<path fill-rule="evenodd" clip-rule="evenodd" d="M158.802 28.9955V26.6376H158.121V25.9079L158.844 25.8596L158.951 24.569H159.776V25.8596H160.986V26.6435H159.776V29.0136C159.776 29.5745 159.969 29.864 160.456 29.864C160.619 29.864 160.824 29.8157 160.956 29.7554L161.137 30.4791C160.872 30.5635 160.559 30.648 160.221 30.648C159.169 30.648 158.807 29.9967 158.807 29.0076L158.802 28.9955Z" fill="white"/>
<path fill-rule="evenodd" clip-rule="evenodd" d="M161.954 28.1995C161.954 26.6798 162.99 25.739 164.079 25.739C165.319 25.739 165.975 26.6315 165.975 27.9583C165.975 28.1453 165.957 28.3383 165.933 28.4528H162.906C162.984 29.3454 163.544 29.8821 164.345 29.8821C164.76 29.8821 165.114 29.7555 165.458 29.5323L165.795 30.1534C165.361 30.4429 164.825 30.6479 164.218 30.6479C162.954 30.6479 161.949 29.7494 161.949 28.2116L161.954 28.1995ZM165.145 27.7713C165.145 26.9633 164.777 26.4989 164.104 26.4989C163.52 26.4989 163.002 26.9512 162.906 27.7713H165.145Z" fill="white"/>
<path fill-rule="evenodd" clip-rule="evenodd" d="M167.498 25.8535H168.293L168.371 26.6918H168.395C168.726 26.0887 169.219 25.733 169.718 25.733C169.948 25.733 170.098 25.7691 170.242 25.8355L170.062 26.6858C169.9 26.6376 169.785 26.6074 169.599 26.6074C169.219 26.6074 168.762 26.8728 168.461 27.6085V30.5213H167.492V25.8476L167.498 25.8535Z" fill="white"/>
<path fill-rule="evenodd" clip-rule="evenodd" d="M12.9543 9.5104L5.39477 5.09593L2.87891 8.06304L12.6353 13.8103L16.8485 11.3558V0L12.9543 0.741775V9.5104Z" fill="white"/>
<path fill-rule="evenodd" clip-rule="evenodd" d="M7.59571 18.7855L0 23.1397L1.30608 26.8004L11.1528 21.2099L11.1348 16.3251L1.32414 10.6501L0.0180564 14.4013L7.59571 18.7855Z" fill="white"/>
<path fill-rule="evenodd" clip-rule="evenodd" d="M23.6893 9.5104L31.2489 5.09593L33.7647 8.06304L24.0083 13.8103L19.7891 11.3558V0L23.6893 0.741775V9.5104Z" fill="white"/>
<path fill-rule="evenodd" clip-rule="evenodd" d="M12.9543 28.097L5.39477 32.5114L2.87891 29.5444L12.6353 23.7971L16.8485 26.2576V37.6073L12.9543 36.8656V28.097Z" fill="white"/>
<path fill-rule="evenodd" clip-rule="evenodd" d="M23.6893 28.097L31.2489 32.5114L33.7647 29.5444L24.0083 23.7971L19.7891 26.2576V37.6073L23.6893 36.8656V28.097Z" fill="white"/>
<path d="M33.7371 16.7714H18.1484V20.6793H33.7371V16.7714Z" fill="white"/>
<path fill-rule="evenodd" clip-rule="evenodd" d="M47.1258 6.38652H44.9771V8.61788C44.9771 11.597 43.7432 14.5581 41.125 15.704L42.407 17.5191C44.1946 16.6567 45.4164 15.0104 46.0784 12.96C46.7465 14.8416 47.9021 16.3552 49.6235 17.1513L50.8454 15.3722C48.3114 14.2566 47.1197 11.4644 47.1197 8.61788V6.38652H47.1258ZM51.5856 5.19244V20.5586H53.7343V5.19244H51.5856ZM71.2851 12.4232C67.9026 11.8262 66.0488 9.44408 66.0488 7.20066V6.10308H63.7557V7.20066C63.7557 9.39583 61.8838 11.8262 58.5193 12.4232L59.4281 14.2505C62.0282 13.7379 63.9302 12.2363 64.8932 10.2944C65.8502 12.2423 67.7702 13.7199 70.3703 14.2505L71.2792 12.4232H71.2851ZM58.2003 16.886V18.665H71.7606V16.886H58.2003ZM82.8593 14.2385H84.8575V5.4397H82.8593V8.88322H81.3967V10.6442H82.8593V14.2385ZM81.818 11.6935L81.9986 13.4244C80.3073 13.7379 78.8929 13.7741 76.684 13.7741H75.6608V6.12116H81.2884V7.85197H77.7253V9.06414H80.7647V10.7286H77.7253V12.0433C79.3022 12.0253 80.4759 11.9407 81.8241 11.6935H81.818ZM79.8017 16.6689H85.7363V18.6288H79.8017V16.6689ZM77.6891 20.3415H87.8368V14.9501H77.6891V20.3415ZM85.8025 5.2226V14.353H87.8368V5.2226H85.8025ZM97.4368 12.3569H94.4936V10.1798H97.4368V12.3569ZM99.5554 6.30811H97.4428V8.4852H94.4996V6.30811H92.387V14.0937H99.5554V6.30811ZM96.221 15.3722H94.0723V20.2632H104.268V18.5142H96.221V15.3722ZM103.733 9.53454H105.718V11.3317H103.733V16.4879H101.584V5.21053H103.733V9.53454ZM116.655 17.0005V13.8043H120.928V12.0433H112.556V8.02084H120.813V6.25987H110.395V13.8103H114.506V17.0066H108.819V18.8037H122.378V17.0066H116.655V17.0005ZM130.342 9.53454H132.635V7.77358H130.342V5.71108H128.307V7.77358H125.966V9.53454H128.307V9.84813C128.307 12.2122 127.542 14.7209 125.412 15.9994L126.616 17.6458C127.964 16.8497 128.843 15.4808 129.348 13.8887C129.885 15.3542 130.745 16.5664 132.063 17.284L133.219 15.6557C131.106 14.5098 130.342 12.1639 130.342 9.84813V9.53454ZM133.477 10.9939V5.45779H135.476V19.8289H133.477V12.7791H131.767V11H133.477V10.9939ZM136.499 5.19244V20.5104H138.534V5.19244H136.499ZM149.637 7.10417V8.85307H153.424C153.147 11.8624 151.877 14.0756 148.874 15.8728L150.125 17.4046C154.302 14.9079 155.542 11.3981 155.542 7.1102H149.637V7.10417ZM159.845 5.21053V10.9819H158.516V5.60855H156.517V19.8772H158.516V12.7428H159.845V20.5285H161.892V5.21053H159.845ZM171.438 10.8794H168.494V9.34759H171.438V10.8794ZM173.551 5.87391H171.438V7.7012H168.494V5.87391H166.382V12.5921H173.551V5.87391ZM169.988 17.7484H177.727V13.5932H167.844V15.2576H175.615V16.1864H167.863V20.4139H178.155V18.7193H169.993V17.7543L169.988 17.7484ZM177.727 8.16557V5.2045H175.579V12.9902H177.727V9.94462H179.695V8.16557H177.727ZM188.604 8.4852H191.691V6.66996H183.3V8.4852H186.425V9.33552C186.425 11.9468 185.203 14.7572 182.699 15.9029L183.921 17.6518C185.678 16.8377 186.882 15.1551 187.544 13.159C188.212 15.0044 189.398 16.5 191.138 17.2659L192.305 15.5351C189.801 14.4676 188.598 11.8262 188.598 9.32949V8.47917L188.604 8.4852ZM193.07 5.21053V20.5285H195.218V5.21053H193.07ZM207.327 14.1058V15.6014H210.139V16.8136H212.287V5.21053H210.139V14.1058H207.327ZM204.451 7.32128C205.443 7.32128 206.143 7.7193 206.143 8.46711C206.143 9.21491 205.443 9.60088 204.451 9.60088C203.458 9.60088 202.742 9.22095 202.742 8.46711C202.742 7.71327 203.44 7.32128 204.451 7.32128ZM204.451 11.193C202.254 11.193 200.713 10.0954 200.713 8.46711C200.713 6.83882 202.26 5.72314 204.451 5.72314C206.642 5.72314 208.176 6.83882 208.176 8.46711C208.176 10.0954 206.629 11.193 204.451 11.193ZM203.651 18.5142H212.606V20.2632H201.501V15.704H203.584V13.6596C202.266 13.7259 201.014 13.744 199.895 13.744L199.617 11.9951C202.35 11.977 205.992 11.9468 209.146 11.5306L209.29 13.0927C208.117 13.3098 206.918 13.4425 205.715 13.5269V16.4216H203.651V18.5142ZM229.321 5.21053H227.286V16.6689H229.321V5.21053ZM224.295 16.2166H226.293V5.47588H224.295V8.7023H222.525V10.4813H224.295V16.2166ZM223.862 12.6584L222.694 14.341C221.526 13.7741 220.744 12.8273 220.274 11.6814C219.738 12.978 218.86 14.0756 217.542 14.7089L216.374 13.0444C218.42 12.0131 219.203 10.0351 219.203 8.20176V6.24178H221.286V8.20176C221.286 9.9989 222.001 11.7297 223.868 12.6584H223.862ZM221.387 18.5142H229.694V20.2632H219.239V15.342H221.387V18.5203V18.5142ZM236.242 12.4594H240.533V10.7467H236.242V8.25001H241.039V6.48903H234.112V17.085H235.333C237.855 17.085 239.769 17.0367 241.936 16.6869L241.743 14.926C239.908 15.2275 238.264 15.3059 236.248 15.324V12.4654L236.242 12.4594ZM243.856 5.19244H246.005V20.5586H243.856V12.3569H241.286V10.596H243.856V5.19244Z" fill="white"/>
</g>
</g>
<defs>
<clipPath id="clip0_1637_9130">
<rect width="246" height="38" fill="white"/>
</clipPath>
</defs>
</svg>
