<svg width="262" height="48" viewBox="0 0 262 48" fill="none" xmlns="http://www.w3.org/2000/svg">
<path d="M47.9691 18.8887C47.3074 18.8988 46.6498 18.7841 46.0305 18.5508C45.4907 18.3454 44.9977 18.0338 44.5806 17.6343C44.1916 17.2606 43.8819 16.8123 43.6701 16.3162C43.4582 15.8201 43.3486 15.2863 43.3477 14.7469V13.6701C43.3468 13.1328 43.456 12.6011 43.6684 12.1077C43.8804 11.6075 44.1914 11.1553 44.5827 10.7784C45.0008 10.381 45.4937 10.0706 46.0326 9.86509C47.2851 9.4145 48.6554 9.4145 49.9078 9.86509C50.4487 10.0704 50.9437 10.3808 51.3642 10.7784C51.7547 11.1556 52.0653 11.6077 52.2773 12.1077C52.4898 12.6011 52.599 13.1328 52.5981 13.6701V14.7469C52.5986 15.2841 52.4895 15.8158 52.2773 16.3093C52.0663 16.8092 51.7556 17.2608 51.3642 17.6365C50.9446 18.036 50.4495 18.3476 49.9078 18.5529C49.2895 18.787 48.6323 18.9017 47.9713 18.8908M47.9713 11.6264C47.6385 11.6211 47.3082 11.6837 47.0004 11.8104C46.7297 11.9195 46.4841 12.0824 46.2784 12.2894C46.0727 12.4965 45.9112 12.7431 45.8038 13.0145C45.6969 13.2774 45.6418 13.5584 45.6413 13.8422V14.5747C45.6401 14.8625 45.6953 15.1477 45.8038 15.4142C45.9131 15.6749 46.0701 15.9128 46.2668 16.1158C46.4763 16.3265 46.7257 16.4933 47.0004 16.6066C47.6257 16.8509 48.32 16.8509 48.9454 16.6066C49.2194 16.4933 49.4681 16.3265 49.6768 16.1158C49.8735 15.9128 50.0305 15.6749 50.1398 15.4142C50.2483 15.1477 50.3035 14.8625 50.3023 14.5747V13.8422C50.3018 13.5584 50.2467 13.2774 50.1398 13.0145C50.0324 12.7435 49.8712 12.4971 49.6659 12.2901C49.4606 12.0831 49.2155 11.9199 48.9454 11.8104C48.6365 11.6836 48.3051 11.621 47.9713 11.6264ZM48.7198 24.5137H57.967V26.5948H46.2732V20.5848H48.7208L48.7198 24.5137ZM57.6794 21.6264H55.2511V8.86951H57.6794V21.6264Z" fill="white"/>
<path d="M60.0836 10.6981H63.7192V8.71545H66.1496V10.6981H69.595V12.761H66.1496V13.8582C66.1468 14.0747 66.1622 14.2912 66.1957 14.5052C66.225 14.7007 66.2899 14.8891 66.3871 15.0612C66.4946 15.2541 66.6245 15.4336 66.7742 15.5959C66.9633 15.8023 67.1725 15.9893 67.3986 16.1542C67.8092 16.4633 68.2487 16.7776 68.7074 17.0974C69.1662 17.4171 69.6474 17.739 70.135 18.0428L68.8453 19.7538C67.9821 19.1891 67.1915 18.6434 66.4737 18.1165C66.0631 17.8203 65.7337 17.5658 65.492 17.3541C65.3197 17.2267 65.1743 17.0664 65.0644 16.8824H65.0462C64.9362 17.0924 64.7866 17.2791 64.6056 17.4321C64.2676 17.7496 63.9128 18.0487 63.5427 18.3282C63.1332 18.664 62.7119 18.9924 62.281 19.3217C61.85 19.6511 61.3934 19.9784 60.9037 20.312L59.4805 18.5389C60.0942 18.1283 60.6781 17.7101 61.2213 17.2867C61.7645 16.8632 62.2468 16.4707 62.6585 16.1103C62.9787 15.832 63.2428 15.4952 63.4369 15.118C63.6295 14.7253 63.7256 14.2923 63.717 13.855V12.7578H60.0814L60.0836 10.6981ZM65.2686 24.5105H74.5137V26.5926H62.8199V20.7751H65.2686V24.5105ZM71.7977 16.0184H69.0026V13.9555H71.7977V8.86832H74.225V21.7011H71.7977V16.0184Z" fill="white"/>
<path d="M75.9375 17.1521H79.0192V13.6862H81.4454V17.1158C82.7443 17.103 83.8239 17.0702 84.6843 17.0174C85.5397 16.9672 86.3128 16.904 86.995 16.8249L87.1672 18.8472C86.6785 18.9124 86.1032 18.9669 85.4456 19.0139C84.788 19.061 84.001 19.092 83.1028 19.1209C82.2046 19.1498 81.1674 19.169 79.9923 19.1883C78.8171 19.2075 77.4655 19.2182 75.9375 19.2182V17.1521ZM85.8766 9.65994V12.2019C85.8766 12.4211 85.8659 12.6831 85.8488 12.99C85.8316 13.2969 85.8028 13.6252 85.7717 13.9642C85.7407 14.3032 85.6969 14.6487 85.6466 14.9941C85.5995 15.3182 85.5349 15.6395 85.4531 15.9566L83.1007 15.6689C83.2321 15.0613 83.3324 14.4474 83.4011 13.8295C83.4557 13.2692 83.4878 12.8115 83.4878 12.4532V11.7207H76.9747V9.65883L85.8766 9.65994ZM84.587 27.3254C83.7815 27.3335 82.9776 27.2532 82.1896 27.0858C81.553 26.9545 80.94 26.7269 80.3718 26.411C79.9159 26.1556 79.5274 25.7952 79.2384 25.3598C78.9789 24.9581 78.8422 24.4895 78.8449 24.0113V23.3953C78.8422 22.9171 78.9789 22.4485 79.2384 22.0468C79.5275 21.6118 79.916 21.2517 80.3718 20.9966C80.9399 20.681 81.553 20.4542 82.1896 20.324C83.7721 20.0031 85.4029 20.0031 86.9854 20.324C87.62 20.4545 88.2309 20.6813 88.7968 20.9966C89.253 21.252 89.6421 21.6119 89.9324 22.0468C90.1926 22.4482 90.3298 22.9169 90.3269 23.3953V24.0113C90.3298 24.4897 90.1926 24.9584 89.9324 25.3598C89.642 25.7949 89.253 26.1551 88.7968 26.411C88.2308 26.7266 87.62 26.9542 86.9854 27.0858C86.1971 27.253 85.3928 27.3333 84.587 27.3254ZM84.587 25.3812C85.0621 25.3861 85.5363 25.3402 86.0017 25.2443C86.3664 25.1731 86.7199 25.0533 87.0528 24.8882C87.2971 24.7692 87.5152 24.6027 87.6944 24.3984C87.8303 24.2504 87.9098 24.0592 87.9189 23.8584V23.5493C87.9098 23.3485 87.8303 23.1573 87.6944 23.0092C87.5152 22.8049 87.2971 22.6384 87.0528 22.5194C86.72 22.3535 86.3665 22.2331 86.0017 22.1612C85.0661 21.9844 84.1057 21.9844 83.1702 22.1612C82.8057 22.2331 82.4525 22.3535 82.1201 22.5194C81.8759 22.6385 81.6578 22.805 81.4785 23.0092C81.3435 23.1575 81.2654 23.3489 81.2583 23.5493V23.8584C81.2652 24.0588 81.3433 24.2502 81.4785 24.3984C81.6578 24.6026 81.8759 24.7691 82.1201 24.8882C82.4527 25.0533 82.8058 25.1731 83.1702 25.2443C83.6362 25.3402 84.1112 25.3861 84.587 25.3812ZM90.2884 13.3397H92.6591V15.4582H90.2884V19.7155H87.8804V8.86853H90.2884V13.3397Z" fill="white"/>
<path d="M97.3763 18.446C96.7181 18.4568 96.0641 18.3383 95.4515 18.0973C94.9206 17.8886 94.4338 17.5817 94.0165 17.1927C93.6309 16.8304 93.326 16.3909 93.1215 15.9029C92.9167 15.4214 92.8116 14.9034 92.8125 14.3801V13.531C92.8138 13.0118 92.9188 12.498 93.1215 12.0199C93.3237 11.5275 93.6288 11.0841 94.0165 10.7195C94.4334 10.3294 94.9203 10.0218 95.4515 9.81271C96.0646 9.57348 96.7183 9.45576 97.3763 9.46619C98.0282 9.45668 98.6758 9.57441 99.2828 9.81271C99.8159 10.0238 100.306 10.3311 100.727 10.7195C101.12 11.0822 101.429 11.5259 101.633 12.0199C101.835 12.4983 101.94 13.0119 101.942 13.531V14.3801C101.942 14.9033 101.837 15.4211 101.633 15.9029C101.427 16.3925 101.118 16.8323 100.727 17.1927C100.305 17.58 99.8155 17.8866 99.2828 18.0973C98.6762 18.3374 98.0285 18.4559 97.3763 18.446ZM97.3763 11.5472C97.049 11.541 96.7241 11.6033 96.4224 11.7301C96.1608 11.8424 95.9225 12.0028 95.7199 12.2028C95.53 12.3887 95.3795 12.6109 95.2772 12.8562C95.1763 13.0872 95.1239 13.3366 95.1233 13.5887V14.3212C95.1232 14.5735 95.1756 14.823 95.2772 15.0538C95.38 15.2995 95.5304 15.5223 95.7199 15.7094C95.9226 15.9091 96.1608 16.069 96.4224 16.1809C97.0348 16.4234 97.7166 16.4234 98.329 16.1809C98.5914 16.0693 98.8304 15.9094 99.0336 15.7094C99.2217 15.5214 99.3717 15.2988 99.4753 15.0538C99.5763 14.8228 99.6286 14.5734 99.6292 14.3212V13.592C99.6281 13.3399 99.5757 13.0907 99.4753 12.8594C99.3722 12.6149 99.2221 12.3929 99.0336 12.206C98.8305 12.0057 98.5914 11.8453 98.329 11.7333C98.0276 11.6066 97.7031 11.5443 97.3763 11.5505M95.506 20.1238H107.375V27.0012H104.945V22.1889H95.506V20.1238ZM104.967 10.9933V8.87268H107.375V19.3143H104.967V17.0793H102.539V15.0356H104.967V13.0337H102.539V10.9933H104.967Z" fill="white"/>
<path d="M117.356 17.9263C117.766 18.3743 118.211 18.8395 118.704 19.3229C119.197 19.8062 119.687 20.2693 120.188 20.7185L118.629 22.3536C118.192 21.9451 117.766 21.5366 117.356 21.1313C116.947 20.726 116.558 20.3388 116.198 19.9667C115.838 19.5945 115.514 19.2577 115.257 18.9561C115.062 18.746 114.898 18.5081 114.773 18.2503H114.735C114.602 18.5376 114.424 18.8016 114.207 19.032C113.918 19.3732 113.611 19.7111 113.292 20.0436C112.931 20.4179 112.55 20.7987 112.154 21.189C111.758 21.5794 111.281 22.0349 110.727 22.5503L109.129 20.8896C110.138 19.9959 111.102 19.0518 112.016 18.061C112.273 17.7845 112.509 17.4884 112.721 17.1755C112.901 16.9021 113.053 16.6112 113.174 16.3072C113.29 16.0085 113.374 15.6984 113.425 15.3821C113.478 15.0249 113.503 14.6642 113.501 14.3031V10.1228H115.984V14.3031C115.984 14.6881 116.002 15.0335 116.033 15.3426C116.065 15.6417 116.133 15.9358 116.235 16.2184C116.344 16.5081 116.484 16.7855 116.65 17.0461C116.855 17.3621 117.091 17.6569 117.354 17.9263M124.135 26.7862H121.688V8.86951H124.135V26.7862Z" fill="white"/>
<path d="M129.625 17.4814C131.012 16.9552 132.113 16.4993 132.928 16.1136C133.592 15.8192 134.219 15.447 134.795 15.0047C135.17 14.7266 135.46 14.3501 135.634 13.917C135.772 13.4873 135.837 13.0378 135.827 12.5868V11.9312H130.394V9.87155H138.254V12.8198C138.258 13.2897 138.21 13.7585 138.11 14.2176C138.014 14.6297 137.851 15.0232 137.628 15.3821C137.38 15.7674 137.075 16.1117 136.721 16.4024C136.28 16.7673 135.802 17.0866 135.297 17.3552C134.726 17.676 134.042 17.9968 133.255 18.339C132.468 18.6812 131.544 19.0416 130.51 19.4277L129.625 17.4814ZM132.572 19.7164H143.684V26.7862H132.572V19.7164ZM134.978 24.7629H141.28V21.7387H134.981L134.978 24.7629ZM143.684 12.7429H146.037V14.8603H143.684V18.9069H141.26V8.86951H143.684V12.7429Z" fill="white"/>
<path d="M150.929 18.1733C150.275 18.1855 149.624 18.0711 149.013 17.8364C148.484 17.6318 147.997 17.3317 147.577 16.951C147.188 16.597 146.88 16.1643 146.671 15.6816C146.467 15.2033 146.362 14.6885 146.363 14.1684V13.4722C146.365 12.9576 146.47 12.4485 146.671 11.975C146.877 11.487 147.186 11.0492 147.577 10.6917C147.998 10.3125 148.485 10.0125 149.013 9.80628C150.247 9.35574 151.601 9.35574 152.836 9.80628C153.367 10.012 153.857 10.3119 154.281 10.6917C154.672 11.0486 154.981 11.4866 155.185 11.975C155.388 12.448 155.494 12.9573 155.495 13.4722V14.1684C155.496 14.6887 155.391 15.2038 155.185 15.6816C154.978 16.1646 154.67 16.5975 154.281 16.951C153.858 17.3322 153.368 17.6323 152.836 17.8364C152.228 18.0695 151.58 18.1838 150.929 18.1733ZM150.929 11.5291C150.603 11.5238 150.28 11.5823 149.976 11.7013C149.713 11.8072 149.474 11.9646 149.273 12.1643C149.086 12.3482 148.935 12.5659 148.829 12.8059C148.73 13.0338 148.679 13.2794 148.677 13.5278V14.1063C148.679 14.3551 148.73 14.601 148.829 14.8293C148.935 15.0695 149.085 15.2873 149.273 15.4709C149.474 15.6706 149.713 15.8281 149.976 15.934C150.591 16.1664 151.269 16.1664 151.883 15.934C152.146 15.8278 152.384 15.6704 152.586 15.4709C152.774 15.2881 152.924 15.0701 153.028 14.8293C153.129 14.6015 153.182 14.3555 153.184 14.1063V13.5278C153.182 13.2791 153.129 13.0333 153.028 12.8059C152.924 12.5653 152.773 12.3474 152.586 12.1643C152.384 11.9648 152.146 11.8074 151.883 11.7013C151.579 11.5822 151.255 11.5237 150.929 11.5291ZM149.539 19.6972H160.923V26.7862H149.542L149.539 19.6972ZM151.947 24.7629H158.517V21.7194H151.947V24.7629ZM158.517 10.9901V8.86951H160.923V18.8887H158.517V16.8644H156.09V14.8239H158.517V13.0305H156.09V10.9901H158.517Z" fill="white"/>
<path d="M171.848 18.4622H163.352V9.69959H165.723V12.28H169.476V9.69959H171.848V18.4622ZM165.723 16.4422H169.477V14.3034H165.723V16.4422ZM171.925 27.3254C171.181 27.331 170.438 27.2535 169.711 27.0945C169.088 26.9632 168.49 26.7362 167.938 26.4218C167.468 26.1546 167.063 25.786 166.754 25.3428C166.464 24.9164 166.313 24.4113 166.32 23.8958V23.1259C166.312 22.6108 166.464 22.1059 166.754 21.6801C167.063 21.2363 167.467 20.8675 167.938 20.601C168.49 20.2865 169.088 20.0599 169.711 19.9295C171.171 19.6186 172.681 19.6186 174.142 19.9295C174.763 20.0603 175.36 20.2868 175.911 20.601C176.382 20.868 176.788 21.2367 177.098 21.6801C177.387 22.1065 177.538 22.611 177.531 23.1259V23.8958C177.538 24.411 177.387 24.9159 177.098 25.3428C176.787 25.7857 176.382 26.1541 175.911 26.4218C175.36 26.7359 174.763 26.9628 174.142 27.0945C173.414 27.2533 172.67 27.3307 171.925 27.3254ZM171.925 21.6801C171.518 21.6794 171.111 21.7213 170.713 21.8052C170.36 21.8787 170.017 21.995 169.692 22.1517C169.426 22.2794 169.184 22.4528 168.977 22.6639C168.812 22.8266 168.715 23.0469 168.709 23.2788V23.743C168.715 23.975 168.811 24.1956 168.977 24.3578C169.184 24.5693 169.426 24.7428 169.692 24.8701C170.017 25.0277 170.359 25.1441 170.713 25.2166C171.513 25.3848 172.339 25.3848 173.139 25.2166C173.492 25.1438 173.835 25.0274 174.159 24.8701C174.425 24.7434 174.666 24.5699 174.871 24.3578C175.039 24.1965 175.137 23.9758 175.144 23.743V23.2788C175.136 23.0462 175.038 22.8256 174.871 22.6639C174.666 22.4523 174.425 22.2789 174.159 22.1517C173.834 21.9953 173.492 21.879 173.139 21.8052C172.74 21.7215 172.333 21.6796 171.925 21.6801ZM175.067 11.431V8.86438H177.473V19.615H175.069V17.0143H172.736V14.9824H175.069V13.4778H172.736V11.4363L175.067 11.431Z" fill="white"/>
<path d="M179.19 17.7124H182.275V14.2272H184.696V17.6739C185.929 17.6632 186.989 17.6318 187.876 17.5798C188.762 17.5278 189.552 17.4625 190.245 17.384L190.416 19.4469C189.891 19.5104 189.285 19.5653 188.598 19.6116C187.912 19.6555 187.114 19.6897 186.21 19.7186C185.305 19.7475 184.274 19.7646 183.119 19.7753C181.964 19.7859 180.651 19.7956 179.188 19.7956L179.19 17.7124ZM189.129 9.75497V12.3568C189.129 12.6145 189.121 12.9097 189.103 13.2455C189.085 13.5813 189.056 13.9246 189.025 14.2828C188.994 14.6411 188.952 15.0025 188.9 15.3608C188.854 15.6917 188.79 16.0199 188.707 16.3436L186.355 16.057C186.492 15.4271 186.591 14.7896 186.653 14.148C186.71 13.5449 186.742 13.038 186.742 12.6274V11.8553H180.23V9.75497H189.129ZM184.276 24.5705H194.023V26.6515H181.833V21.1976H184.279L184.276 24.5705ZM193.542 14.1288H195.912V16.2483H193.542V22.1622H191.133V8.86951H193.542V14.1288Z" fill="white"/>
<path d="M199.398 20.4671H201.264C202.151 20.4671 203.069 20.4383 204.019 20.3805C204.968 20.3228 205.895 20.2362 206.799 20.1207L207.069 22.1622C206.079 22.3122 205.082 22.4089 204.082 22.452C203.002 22.5047 201.873 22.53 200.693 22.5279H196.992V15.2474H202.766V12.3173H196.992V10.2576H205.178V17.2301H199.403L199.398 20.4671ZM210.821 26.7862H208.374V8.86951H210.821V26.7862Z" fill="white"/>
<path d="M213.172 10.4105H222.725V12.4926H219.257V14.5341C219.257 14.8715 219.276 15.2086 219.316 15.5436C219.353 15.835 219.421 16.1218 219.517 16.3992C219.623 16.6845 219.762 16.9562 219.932 17.2087C220.145 17.5176 220.383 17.8078 220.645 18.076C221.057 18.5244 221.504 18.9878 221.985 19.4662C222.466 19.9446 222.951 20.4005 223.439 20.834L221.88 22.452C221.47 22.067 221.058 21.672 220.645 21.2671C220.235 20.8639 219.849 20.4736 219.489 20.1014C219.13 19.7293 218.802 19.3935 218.545 19.0908C218.354 18.8862 218.193 18.6563 218.065 18.4075H218.027C217.866 18.6816 217.679 18.9391 217.467 19.1764C217.184 19.51 216.884 19.8437 216.562 20.1784C216.202 20.5527 215.83 20.927 215.445 21.3237C215.06 21.7205 214.596 22.1568 214.055 22.6455L212.461 21.0061C213.508 20.0693 214.461 19.1389 215.308 18.2139C215.59 17.8931 215.829 17.5979 216.023 17.3284C216.208 17.0702 216.362 16.7914 216.483 16.4975C216.6 16.2108 216.681 15.9105 216.724 15.6035C216.772 15.2491 216.795 14.8917 216.793 14.5341V12.4926H213.172V10.4105ZM227.386 26.7862H224.943V8.86951H227.386V26.7862Z" fill="white"/>
<path d="M229.117 16.7873C230.594 16.7873 231.893 16.7812 233.017 16.7691C234.14 16.7569 235.148 16.7377 236.041 16.7114C236.936 16.6857 237.736 16.6532 238.44 16.614C239.147 16.5745 239.812 16.5252 240.444 16.46L240.618 18.4833C240 18.5603 239.297 18.6213 238.508 18.6662C237.72 18.7111 236.789 18.7464 235.728 18.7731V21.1258H233.317V18.8148C232.689 18.8262 232.028 18.8327 231.335 18.8341H229.119L229.117 16.7873ZM234.784 16.0387C234.182 16.043 233.581 15.965 233 15.8066C232.494 15.6708 232.013 15.4541 231.577 15.165C231.188 14.9059 230.862 14.5641 230.622 14.164C230.393 13.7753 230.274 13.3318 230.276 12.8807V12.346C230.273 11.8949 230.393 11.4515 230.622 11.0627C230.862 10.6623 231.188 10.3202 231.577 10.0608C232.014 9.77247 232.494 9.55582 233 9.41908C234.165 9.11395 235.39 9.11395 236.555 9.41908C237.065 9.5533 237.549 9.77009 237.988 10.0608C238.379 10.318 238.706 10.6606 238.945 11.0627C239.175 11.4511 239.295 11.8947 239.293 12.346V12.8807C239.295 13.3321 239.175 13.7757 238.945 14.164C238.706 14.5658 238.379 14.9081 237.988 15.165C237.549 15.4565 237.065 15.6733 236.555 15.8066C235.978 15.9639 235.382 16.042 234.784 16.0387ZM234.475 24.5714H244.243V26.6525H232.027V21.8167H234.472L234.475 24.5714ZM234.784 11.1633C234.225 11.1375 233.67 11.2682 233.18 11.5408C233.003 11.626 232.851 11.7581 232.743 11.9227C232.634 12.0873 232.572 12.2784 232.564 12.4755V12.7449C232.572 12.9419 232.634 13.1329 232.743 13.2975C232.852 13.4621 233.003 13.5941 233.18 13.6796C233.677 13.9258 234.225 14.0538 234.779 14.0538C235.334 14.0538 235.881 13.9258 236.378 13.6796C236.555 13.5939 236.706 13.4618 236.815 13.2972C236.923 13.1327 236.985 12.9418 236.994 12.7449V12.4755C236.985 12.2785 236.923 12.0876 236.815 11.923C236.706 11.7584 236.555 11.6263 236.378 11.5408C235.89 11.2695 235.337 11.1389 234.78 11.1633M237.975 19.4105H241.521V8.87158H243.948V22.7043H241.521V21.375H237.975V19.4105Z" fill="white"/>
<path d="M246.168 9.96671H254.547V12.0692H248.577V16.6676C249.244 16.6676 249.881 16.6676 250.483 16.658C251.085 16.6483 251.676 16.6398 252.245 16.6195C252.814 16.5991 253.39 16.5681 253.968 16.5243C254.547 16.4805 255.145 16.4237 255.76 16.3596L255.973 18.4032C255.395 18.4791 254.79 18.5401 254.156 18.5861C253.522 18.6321 252.819 18.6652 252.048 18.693C251.277 18.7208 250.412 18.7347 249.458 18.7422C248.504 18.7497 247.405 18.7518 246.173 18.7518L246.168 9.96671ZM250.943 24.5105H260.072V26.5916H248.499V20.6212H250.943V24.5105ZM259.649 13.3182H262.001V15.4377H259.649V21.6231H257.223V8.86951H259.653L259.649 13.3182Z" fill="white"/>
<path d="M47.6592 30.5442H46.1836V38.8631H47.6592V30.5442Z" fill="#8A949E"/>
<path d="M52.5079 32.3677C52.7877 32.3663 53.0659 32.4092 53.3323 32.495C53.5956 32.5771 53.8377 32.7162 54.0412 32.9024C54.2599 33.1065 54.4293 33.3577 54.5363 33.6371C54.6681 33.9826 54.731 34.3507 54.7212 34.7204V38.8633H53.2692V35.0306C53.2692 34.1038 52.8653 33.6403 52.0577 33.6403C51.9201 33.642 51.7831 33.6589 51.6492 33.6906C51.4852 33.7287 51.3313 33.8017 51.1979 33.9045C51.0437 34.0222 50.9189 34.1741 50.8333 34.3483C50.724 34.5871 50.6727 34.8483 50.6836 35.1107V38.8718H49.2305V32.5153H50.6066V33.2414H50.6301C50.8295 32.9371 51.1178 32.7015 51.4557 32.5667C51.793 32.4382 52.1512 32.3737 52.5121 32.3763" fill="#8A949E"/>
<path d="M58.7003 32.3673C58.9665 32.3645 59.2324 32.3861 59.4947 32.4315C59.7068 32.468 59.9152 32.5238 60.1171 32.5983C60.2906 32.6609 60.4569 32.742 60.6132 32.84C60.7608 32.9309 60.8945 33.0239 61.0185 33.1159L60.3139 34.1768C60.0837 33.9857 59.8191 33.8405 59.5343 33.749C59.2632 33.6712 58.9823 33.6327 58.7003 33.6346C58.5185 33.6331 58.3378 33.6619 58.1656 33.7201C57.9975 33.7773 57.8447 33.8721 57.7187 33.9971C57.5779 34.1372 57.4704 34.3071 57.4043 34.4944C57.3225 34.7352 57.2845 34.9887 57.292 35.243V36.0151C57.2832 36.2903 57.3271 36.5648 57.4214 36.8236C57.4958 37.0181 57.6123 37.1937 57.7625 37.3379C57.8935 37.4606 58.0513 37.5511 58.2234 37.6021C58.3844 37.6503 58.5514 37.6755 58.7195 37.6769C59.0579 37.6865 59.3954 37.6376 59.7171 37.5325C59.9801 37.4373 60.2274 37.3032 60.4507 37.1347L61.1436 38.1956C60.8648 38.4331 60.5427 38.6146 60.1951 38.7303C59.7172 38.8958 59.2135 38.9748 58.7078 38.9634C58.3157 38.9902 57.9224 38.9348 57.553 38.8007C57.1837 38.6666 56.8463 38.4568 56.5627 38.1849C56.0456 37.5964 55.7802 36.8283 55.8239 36.0461V35.2505C55.7879 34.8642 55.8376 34.4747 55.9693 34.1098C56.101 33.7449 56.3115 33.4135 56.5858 33.1393C56.8602 32.865 57.1916 32.6546 57.5565 32.5231C57.9214 32.3915 58.3108 32.3419 58.6971 32.378" fill="#8A949E"/>
<path d="M65.287 32.3674C65.5668 32.366 65.845 32.409 66.1114 32.4947C66.3755 32.5766 66.6183 32.7157 66.8225 32.9021C67.0399 33.1071 67.2086 33.3582 67.3165 33.6368C67.4492 33.9822 67.5125 34.3503 67.5025 34.7201V38.863H66.0504V35.0303C66.0504 34.1035 65.6455 33.64 64.8357 33.64C64.6978 33.642 64.5605 33.6588 64.4262 33.6903C64.2637 33.7299 64.1111 33.8027 63.9781 33.9042C63.8255 34.0227 63.7018 34.1745 63.6167 34.348C63.505 34.5861 63.4532 34.8478 63.4659 35.1105V38.8716H62.0117V30.1495H63.3847V33.2412H63.4071C63.6063 32.9366 63.8946 32.701 64.2326 32.5664C64.5691 32.4379 64.9267 32.3734 65.287 32.3761" fill="#8A949E"/>
<path d="M74.122 38.2736C73.7883 38.4934 73.4231 38.6611 73.0388 38.7709C72.5425 38.904 72.0299 38.9662 71.5161 38.9559C71.1548 38.9562 70.795 38.9073 70.4469 38.8104C70.1067 38.7173 69.7905 38.5521 69.5198 38.326C69.2301 38.0792 69.0042 37.7664 68.8611 37.4138C68.6818 36.9609 68.5967 36.4762 68.6109 35.9893V35.3327C68.6003 34.878 68.6775 34.4256 68.8386 34.0003C68.9721 33.6503 69.1826 33.3349 69.4546 33.0773C69.7179 32.834 70.0314 32.6514 70.373 32.5426C70.7393 32.4253 71.122 32.3676 71.5065 32.3716C71.8844 32.3672 72.2605 32.425 72.6196 32.5426C72.9493 32.6508 73.2512 32.8301 73.504 33.0677C73.758 33.3147 73.9548 33.6144 74.0803 33.9457C74.2288 34.334 74.3014 34.7471 74.2942 35.1627V36.2118H70.0352C70.0196 36.4209 70.0474 36.631 70.117 36.8289C70.1866 37.0267 70.2963 37.2081 70.4393 37.3614C70.7621 37.6374 71.1801 37.7759 71.6038 37.7474C71.9427 37.752 72.2807 37.7114 72.6089 37.6266C72.9318 37.5321 73.2417 37.3981 73.5318 37.2277L74.122 38.2736ZM72.8891 35.1146V34.8355C72.8908 34.6712 72.8648 34.5077 72.8121 34.3521C72.765 34.199 72.6805 34.06 72.5662 33.9479C72.44 33.8272 72.291 33.7331 72.1278 33.6709C71.9207 33.5953 71.7013 33.559 71.4808 33.5639C71.2826 33.5489 71.0835 33.575 70.8958 33.6405C70.7081 33.706 70.536 33.8096 70.3902 33.9447C70.2717 34.0666 70.1787 34.2109 70.1164 34.3692C70.0542 34.5274 70.024 34.6965 70.0277 34.8665V35.1114L72.8891 35.1146Z" fill="#8A949E"/>
<path d="M78.0684 38.9562C77.6501 38.9617 77.2341 38.8948 76.8387 38.7584C76.4907 38.6384 76.1722 38.446 75.9041 38.1938C75.639 37.9359 75.4341 37.6225 75.3043 37.2762C75.1563 36.8796 75.0838 36.4589 75.0904 36.0357V35.2871C75.0826 34.8624 75.1552 34.4401 75.3043 34.0423C75.4352 33.6978 75.6399 33.3861 75.9041 33.1291C76.173 32.8779 76.4913 32.6856 76.8387 32.5644C77.6352 32.3034 78.4941 32.3034 79.2906 32.5644C79.6396 32.6848 79.9595 32.8772 80.2295 33.1291C80.4943 33.386 80.6997 33.6977 80.8315 34.0423C80.981 34.4399 81.0536 34.8624 81.0453 35.2871V36.0357C81.0525 36.459 80.98 36.8798 80.8315 37.2762C80.7008 37.6227 80.4953 37.936 80.2295 38.1938C79.9603 38.4468 79.6402 38.6392 79.2906 38.7584C78.8974 38.8936 78.4841 38.9605 78.0684 38.9562ZM78.0684 37.6858C78.2716 37.6877 78.4739 37.6567 78.6672 37.5938C78.8468 37.5353 79.011 37.437 79.1473 37.3061C79.2898 37.1592 79.3973 36.9819 79.4617 36.7875C79.5443 36.538 79.5833 36.2761 79.5771 36.0133V35.3085C79.6009 35.0766 79.577 34.8423 79.5069 34.62C79.4369 34.3977 79.3222 34.192 79.1698 34.0156C78.8551 33.7702 78.4674 33.6369 78.0684 33.6369C77.6693 33.6369 77.2817 33.7702 76.967 34.0156C76.8143 34.1918 76.6991 34.3974 76.6287 34.6197C76.5583 34.8421 76.534 35.0764 76.5575 35.3085V36.0133C76.5512 36.2759 76.5895 36.5377 76.6709 36.7875C76.7369 36.9826 76.8466 37.16 76.9916 37.3061C77.1266 37.4372 77.2897 37.5355 77.4685 37.5938C77.6629 37.6568 77.8662 37.6879 78.0705 37.6858" fill="#8A949E"/>
<path d="M85.4862 32.3677C85.766 32.3662 86.0443 32.4092 86.3106 32.495C86.5743 32.5771 86.8167 32.7161 87.0206 32.9024C87.239 33.1068 87.4083 33.358 87.5157 33.6371C87.6481 33.9825 87.7109 34.3507 87.7007 34.7204V38.8633H86.2464V35.0306C86.2464 34.1038 85.8426 33.6403 85.0349 33.6403C84.8977 33.6422 84.7611 33.659 84.6276 33.6906C84.4639 33.7289 84.3104 33.8018 84.1774 33.9045C84.0237 34.0223 83.8997 34.1742 83.8149 34.3483C83.7043 34.5868 83.6522 34.8481 83.663 35.1107V38.8718H82.2109V32.5153H83.585V33.2414H83.6074C83.806 32.9372 84.0935 32.7016 84.4308 32.5667C84.7676 32.4378 85.1256 32.3733 85.4862 32.3763" fill="#8A949E"/>
<path d="M95.0359 30.4169C95.5602 30.4098 96.0826 30.482 96.5853 30.6308C97.063 30.7844 97.5074 31.0268 97.8952 31.3451L97.1007 32.4755C96.8107 32.218 96.4675 32.0274 96.0956 31.9173C95.7499 31.8259 95.3935 31.7809 95.0359 31.7836C94.7891 31.7821 94.5436 31.8181 94.3077 31.8905C94.0655 31.9648 93.8468 32.1012 93.6736 32.2862C93.4693 32.5126 93.3161 32.7803 93.2245 33.0712C93.0961 33.4816 93.0372 33.9107 93.0502 34.3406V35.1961C93.0411 35.5751 93.096 35.9529 93.2127 36.3136C93.3019 36.5901 93.4475 36.845 93.6405 37.0622C93.8152 37.2499 94.0317 37.3939 94.2724 37.4824C94.5119 37.5714 94.7655 37.6163 95.0209 37.6151C95.4196 37.6132 95.8159 37.553 96.1971 37.4365C96.6181 37.3074 96.998 37.0707 97.2996 36.7499L98.0845 37.8813C97.8571 38.1141 97.5948 38.3101 97.3071 38.462C97.0471 38.6002 96.7741 38.7126 96.4923 38.7978C96.2334 38.8769 95.9673 38.9296 95.6978 38.955C95.4348 38.9775 95.1878 38.9892 94.9589 38.9892C94.5187 38.991 94.0807 38.9246 93.6608 38.7925C93.2582 38.667 92.8883 38.4541 92.5776 38.169C92.2514 37.867 91.9959 37.4967 91.8291 37.0846C91.6323 36.5778 91.5382 36.0369 91.5521 35.4934V34.0026C91.539 33.4555 91.6312 32.9109 91.8238 32.3985C91.9879 31.9745 92.2434 31.5918 92.5722 31.2778C92.887 30.9823 93.2631 30.7599 93.6736 30.6265C94.1113 30.4821 94.5696 30.4099 95.0305 30.4127" fill="#8A949E"/>
<path d="M101.681 38.9561C101.262 38.9612 100.846 38.8943 100.45 38.7583C100.102 38.6383 99.7841 38.4459 99.5164 38.1937C99.2513 37.936 99.0467 37.6226 98.9176 37.2761C98.7691 36.8797 98.6966 36.4589 98.7038 36.0356V35.287C98.6955 34.8623 98.7681 34.4399 98.9176 34.0423C99.0478 33.6976 99.2523 33.3858 99.5164 33.129C99.7849 32.8778 100.103 32.6855 100.45 32.5643C101.249 32.3021 102.111 32.3021 102.909 32.5643C103.258 32.6847 103.578 32.8771 103.848 33.129C104.111 33.3873 104.316 33.6986 104.45 34.0423C104.598 34.4404 104.67 34.8625 104.664 35.287V36.0356C104.669 36.4587 104.597 36.8791 104.45 37.2761C104.321 37.6232 104.116 37.9368 103.849 38.1934C103.582 38.4501 103.261 38.6431 102.909 38.7583C102.516 38.8934 102.102 38.9603 101.686 38.9561M101.686 37.6857C101.889 37.6877 102.092 37.6567 102.285 37.5937C102.464 37.5352 102.629 37.4369 102.765 37.3061C102.908 37.1594 103.016 36.9821 103.08 36.7874C103.163 36.5378 103.202 36.276 103.197 36.0132V35.3084C103.22 35.0763 103.196 34.842 103.126 34.6196C103.055 34.3973 102.94 34.1917 102.787 34.0155C102.473 33.7701 102.085 33.6368 101.686 33.6368C101.287 33.6368 100.899 33.7701 100.585 34.0155C100.432 34.1916 100.316 34.3972 100.246 34.6195C100.175 34.8418 100.151 35.0763 100.174 35.3084V36.0132C100.168 36.2759 100.207 36.5377 100.29 36.7874C100.356 36.9825 100.465 37.1599 100.61 37.3061C100.746 37.4367 100.909 37.535 101.088 37.5937C101.282 37.6569 101.485 37.688 101.689 37.6857" fill="#8A949E"/>
<path d="M112.626 32.3675C112.912 32.3659 113.196 32.4166 113.464 32.5172C113.727 32.6142 113.965 32.7676 114.163 32.9664C114.371 33.1809 114.534 33.4355 114.641 33.715C114.767 34.0505 114.828 34.4068 114.821 34.7651V38.8609H113.375V35.0635C113.381 34.8259 113.349 34.5888 113.282 34.3609C113.233 34.1994 113.145 34.0525 113.026 33.9332C112.924 33.8319 112.798 33.7583 112.659 33.7193C112.516 33.6804 112.368 33.6606 112.219 33.6605C112.077 33.6617 111.936 33.6833 111.8 33.7246C111.659 33.7671 111.53 33.8426 111.423 33.9449C111.306 34.0643 111.216 34.2077 111.159 34.3652C111.083 34.5759 111.047 34.7989 111.052 35.0229V38.8652H109.6V35.0464C109.606 34.8196 109.575 34.5935 109.507 34.3769C109.457 34.218 109.372 34.072 109.259 33.9491C109.159 33.844 109.034 33.7663 108.896 33.7235C108.749 33.6801 108.598 33.6584 108.445 33.6593C108.291 33.6528 108.137 33.6779 107.993 33.7331C107.848 33.7883 107.717 33.8724 107.606 33.9802C107.49 34.1143 107.402 34.2702 107.347 34.4387C107.292 34.6073 107.271 34.7851 107.285 34.9619V38.862H105.832V32.5055H107.206V33.3118H107.228C107.381 33.0206 107.615 32.7802 107.902 32.6199C108.231 32.4515 108.596 32.3645 108.965 32.3664C109.335 32.3682 109.699 32.4589 110.026 32.6306C110.314 32.7837 110.541 33.0319 110.667 33.3332C110.868 33.0315 111.138 32.7827 111.455 32.6082C111.822 32.4334 112.226 32.3504 112.632 32.3665" fill="#8A949E"/>
<path d="M123.068 32.3675C123.354 32.3657 123.638 32.4165 123.906 32.5173C124.169 32.6152 124.407 32.7684 124.605 32.9665C124.813 33.1812 124.976 33.4358 125.082 33.715C125.21 34.0501 125.272 34.4066 125.264 34.7651V38.861H123.808V35.0635C123.814 34.8261 123.784 34.589 123.718 34.3609C123.668 34.2 123.58 34.0534 123.462 33.9332C123.36 33.832 123.233 33.7585 123.095 33.7193C122.952 33.6805 122.804 33.6607 122.656 33.6605C122.513 33.6615 122.371 33.6831 122.235 33.7246C122.094 33.7671 121.965 33.8426 121.86 33.9449C121.741 34.0636 121.65 34.2072 121.593 34.3652C121.517 34.5759 121.481 34.7989 121.486 35.0229V38.8653H120.031V35.0464C120.038 34.8197 120.007 34.5936 119.94 34.377C119.889 34.218 119.804 34.072 119.691 33.9492C119.591 33.8447 119.467 33.7671 119.33 33.7235C119.182 33.68 119.03 33.6584 118.876 33.6594C118.722 33.653 118.568 33.6782 118.423 33.7334C118.279 33.7885 118.148 33.8726 118.037 33.9802C117.921 34.1147 117.834 34.2706 117.779 34.4391C117.724 34.6076 117.702 34.7852 117.716 34.9619V38.8621H116.262V32.5055H117.637V33.3119H117.657C117.811 33.0203 118.046 32.7798 118.334 32.6199C118.663 32.4515 119.027 32.3646 119.397 32.3665C119.766 32.3683 120.13 32.4589 120.457 32.6306C120.745 32.7837 120.972 33.0319 121.098 33.3332C121.299 33.0311 121.571 32.7824 121.889 32.6082C122.256 32.4333 122.66 32.3503 123.066 32.3665" fill="#8A949E"/>
<path d="M128.844 38.9668C128.551 38.9817 128.257 38.9366 127.981 38.8344C127.705 38.7322 127.453 38.575 127.24 38.3723C127.027 38.1348 126.863 37.8565 126.76 37.5542C126.657 37.2518 126.616 36.9317 126.639 36.6131V32.5066H128.095V36.3019C128.088 36.5337 128.118 36.7651 128.185 36.9874C128.234 37.1482 128.321 37.2949 128.439 37.4151C128.547 37.5163 128.677 37.5898 128.82 37.629C128.973 37.6729 129.132 37.6945 129.292 37.6932C129.447 37.6918 129.6 37.6684 129.748 37.6237C129.909 37.5762 130.057 37.4936 130.182 37.382C130.322 37.2522 130.433 37.0949 130.509 36.92C130.605 36.6944 130.651 36.4507 130.644 36.2057V32.5023H132.097V38.8588H130.707V38.0964H130.693C130.604 38.2477 130.486 38.3809 130.348 38.4888C130.208 38.5961 130.055 38.6852 129.893 38.754C129.725 38.8243 129.55 38.8767 129.371 38.9102C129.199 38.944 129.023 38.9615 128.847 38.9626" fill="#8A949E"/>
<path d="M136.877 32.3677C137.157 32.3661 137.435 32.4091 137.701 32.495C137.965 32.5778 138.208 32.7168 138.412 32.9024C138.629 33.108 138.798 33.3589 138.906 33.6371C139.038 33.9827 139.101 34.3507 139.092 34.7204V38.8633H137.639V35.0306C137.639 34.1038 137.235 33.6403 136.427 33.6403C136.288 33.6422 136.15 33.6591 136.015 33.6906C135.852 33.7295 135.7 33.8024 135.567 33.9045C135.413 34.0219 135.288 34.174 135.203 34.3483C135.094 34.5869 135.042 34.8483 135.054 35.1107V38.8718H133.602V32.5153H134.972V33.2414H134.995C135.195 32.9373 135.483 32.7018 135.821 32.5667C136.158 32.4383 136.516 32.3737 136.877 32.3763" fill="#8A949E"/>
<path d="M140.531 30.0022H142.054V31.5721H140.531V30.0022ZM140.563 32.5067H142.019V38.8633H140.563V32.5067Z" fill="#8A949E"/>
<path d="M146.091 32.3674C146.358 32.3646 146.624 32.3862 146.886 32.4317C147.098 32.469 147.307 32.5247 147.509 32.5984C147.682 32.6614 147.848 32.7425 148.004 32.8401C148.152 32.931 148.287 33.0241 148.409 33.116L147.706 34.1769C147.475 33.9864 147.21 33.8413 146.926 33.7491C146.654 33.6717 146.374 33.6331 146.091 33.6347C145.91 33.6336 145.729 33.6625 145.557 33.7202C145.389 33.7786 145.236 33.8732 145.109 33.9972C144.97 34.1384 144.864 34.308 144.798 34.4945C144.714 34.735 144.675 34.9886 144.682 35.2431V36.0152C144.673 36.2906 144.718 36.5652 144.814 36.8237C144.888 37.0183 145.005 37.1939 145.156 37.338C145.286 37.4609 145.444 37.5514 145.616 37.6022C145.776 37.6502 145.942 37.6754 146.11 37.677C146.449 37.6868 146.788 37.638 147.111 37.5326C147.373 37.4372 147.621 37.3031 147.844 37.1348L148.533 38.1957C148.256 38.4341 147.936 38.6158 147.59 38.7304C147.111 38.8959 146.606 38.9749 146.1 38.9635C145.708 38.9906 145.315 38.9353 144.946 38.8012C144.576 38.6671 144.239 38.4572 143.956 38.185C143.439 37.5963 143.173 36.8285 143.216 36.0462V35.2506C143.193 34.8641 143.249 34.4768 143.381 34.1128C143.513 33.7488 143.718 33.4158 143.984 33.1342C144.266 32.8735 144.598 32.6722 144.96 32.5423C145.322 32.4124 145.707 32.3566 146.09 32.3781" fill="#8A949E"/>
<path d="M151.238 38.957C150.669 38.9925 150.105 38.8262 149.646 38.4875C149.457 38.3277 149.308 38.1264 149.21 37.8993C149.112 37.6723 149.067 37.4256 149.08 37.1785V36.8096C149.078 36.564 149.119 36.3199 149.202 36.0888C149.285 35.8666 149.424 35.6697 149.605 35.5178C149.824 35.3379 150.08 35.2076 150.354 35.136C150.722 35.0358 151.103 34.9889 151.484 34.997H152.935V34.7553C152.95 34.6027 152.933 34.4488 152.886 34.303C152.839 34.1571 152.762 34.0224 152.661 33.9072C152.42 33.7139 152.114 33.6212 151.806 33.6485C151.151 33.6457 150.516 33.8693 150.007 34.2816L149.29 33.2207C149.635 32.986 150.003 32.7872 150.388 32.6272C151.174 32.3274 152.036 32.2851 152.847 32.5063C153.14 32.5878 153.416 32.7219 153.661 32.902C153.886 33.0701 154.068 33.2875 154.196 33.5373C154.326 33.8034 154.391 34.0966 154.386 34.3928V38.8586H153.083L153.06 38.0726C152.992 38.2192 152.891 38.348 152.765 38.449C152.627 38.562 152.474 38.6549 152.31 38.7249C152.137 38.7979 151.958 38.8538 151.775 38.8917C151.601 38.9298 151.424 38.9499 151.246 38.9516M152.941 36.123H151.522C151.237 36.0914 150.951 36.1677 150.721 36.3369C150.644 36.4141 150.584 36.5063 150.545 36.6078C150.506 36.7092 150.489 36.8176 150.494 36.9261V37.0652C150.49 37.1578 150.508 37.25 150.547 37.3343C150.585 37.4187 150.643 37.4928 150.715 37.5507C150.904 37.6773 151.13 37.7378 151.357 37.7229C151.594 37.7425 151.832 37.7148 152.058 37.6413C152.284 37.5679 152.493 37.4502 152.673 37.2951C152.794 37.1815 152.875 37.0312 152.903 36.8673C152.929 36.6746 152.941 36.4801 152.938 36.2856L152.941 36.123Z" fill="#8A949E"/>
<path d="M157.169 38.1242V38.8632H155.785V30.1411H157.237V33.128C157.339 32.9828 157.467 32.8577 157.614 32.759C157.757 32.6627 157.912 32.5834 158.073 32.5227C158.227 32.4673 158.386 32.4268 158.547 32.4018C158.689 32.3806 158.832 32.3691 158.975 32.3676C159.343 32.3609 159.71 32.4256 160.054 32.558C160.353 32.676 160.62 32.8632 160.832 33.1044C161.045 33.3545 161.205 33.6457 161.301 33.9599C161.409 34.3227 161.461 34.6999 161.456 35.0785V36.1982C161.462 36.5928 161.399 36.9855 161.27 37.3585C161.16 37.6802 160.984 37.975 160.752 38.2236C160.526 38.4592 160.252 38.6437 159.949 38.7648C159.618 38.897 159.265 38.9624 158.909 38.9573C158.54 38.9702 158.175 38.89 157.846 38.7241C157.579 38.5884 157.355 38.381 157.199 38.1253L157.169 38.1242ZM160.02 35.3084C160.045 34.8689 159.936 34.4321 159.707 34.0562C159.589 33.9032 159.434 33.7824 159.257 33.7048C159.079 33.6273 158.885 33.5955 158.693 33.6124C158.489 33.5981 158.285 33.6285 158.095 33.7013C157.904 33.774 157.732 33.8875 157.59 34.0337C157.333 34.3337 157.2 34.7194 157.215 35.1139V36.4634C157.218 36.6182 157.257 36.7701 157.331 36.9061C157.41 37.0585 157.514 37.1957 157.64 37.3115C157.781 37.4348 157.942 37.5338 158.115 37.6045C158.309 37.6844 158.517 37.724 158.727 37.721C158.911 37.732 159.096 37.6971 159.264 37.6195C159.432 37.5419 159.578 37.4239 159.689 37.2762C159.93 36.9089 160.046 36.4739 160.02 36.0357V35.3084Z" fill="#8A949E"/>
<path d="M164.074 30.1422H162.621V38.8642H164.074V30.1422Z" fill="#8A949E"/>
<path d="M170.754 38.274C170.421 38.4938 170.056 38.6615 169.672 38.7713C169.175 38.9042 168.662 38.9664 168.148 38.9563C167.787 38.9565 167.427 38.9076 167.079 38.8109C166.738 38.7179 166.422 38.5527 166.151 38.3264C165.861 38.08 165.635 37.767 165.493 37.4143C165.314 36.9615 165.229 36.4767 165.244 35.9898V35.3332C165.233 34.8787 165.31 34.4263 165.47 34.0007C165.604 33.6506 165.816 33.3351 166.089 33.0778C166.351 32.8345 166.663 32.6519 167.004 32.5431C167.371 32.4259 167.755 32.3681 168.141 32.372C168.518 32.3679 168.894 32.4257 169.253 32.5431C169.582 32.6513 169.883 32.8306 170.135 33.0682C170.389 33.3151 170.586 33.6148 170.712 33.9462C170.86 34.3345 170.933 34.7476 170.926 35.1632V36.2123H166.668C166.652 36.4212 166.68 36.6313 166.749 36.8291C166.818 37.027 166.928 37.2083 167.07 37.3619C167.394 37.6377 167.812 37.7762 168.236 37.7479C168.574 37.7527 168.911 37.7121 169.239 37.6271C169.562 37.533 169.872 37.399 170.163 37.2282L170.754 38.274ZM169.52 35.115V34.8359C169.522 34.6717 169.496 34.5083 169.444 34.3526C169.396 34.1992 169.311 34.0603 169.196 33.9483C169.071 33.827 168.923 33.7328 168.76 33.6714C168.554 33.5965 168.337 33.5602 168.118 33.5644C167.92 33.5491 167.721 33.575 167.533 33.6405C167.345 33.706 167.173 33.8098 167.027 33.9451C166.909 34.0671 166.816 34.2114 166.754 34.3697C166.691 34.5279 166.661 34.6969 166.665 34.867V35.1118L169.52 35.115Z" fill="#8A949E"/>
<path d="M177.676 30.5444C178.17 30.502 178.668 30.5614 179.139 30.719C179.609 30.8767 180.042 31.1292 180.411 31.4609C181.039 32.1949 181.353 33.1462 181.287 34.1098V35.299C181.296 35.8152 181.23 36.3301 181.09 36.8272C180.975 37.2438 180.76 37.6259 180.464 37.9404C180.152 38.2538 179.77 38.4883 179.35 38.6248C178.817 38.7956 178.258 38.8763 177.698 38.8633H174.781V30.5444H177.676ZM176.247 37.6164H177.48C177.813 37.6213 178.145 37.5788 178.466 37.4902C178.737 37.4151 178.987 37.2766 179.194 37.086C179.402 36.883 179.556 36.6316 179.642 36.3545C179.755 35.9937 179.808 35.617 179.798 35.2391V34.1697C179.834 33.8389 179.8 33.5043 179.7 33.1871C179.6 32.8698 179.436 32.5767 179.217 32.3261C178.725 31.9361 178.106 31.7453 177.48 31.7914H176.247V37.6164Z" fill="#8A949E"/>
<path d="M182.559 30.0022H184.08V31.5721H182.559V30.0022ZM182.592 32.5067H184.045V38.8633H182.592V32.5067Z" fill="#8A949E"/>
<path d="M187.678 37.7213C187.948 37.7319 188.217 37.6871 188.469 37.5897C188.564 37.5469 188.644 37.4753 188.697 37.385C188.749 37.2947 188.773 37.1902 188.763 37.086V37.0176C188.766 36.9259 188.753 36.8344 188.725 36.747C188.689 36.6648 188.626 36.5972 188.546 36.5556C188.42 36.4882 188.286 36.4379 188.147 36.4058C187.973 36.3599 187.736 36.3054 187.436 36.2423C187.101 36.1803 186.771 36.0898 186.451 35.9717C186.206 35.8865 185.979 35.7558 185.782 35.5867C185.61 35.4357 185.478 35.2448 185.398 35.0307C185.314 34.7824 185.275 34.5215 185.28 34.2596V34.143C185.281 33.9226 185.325 33.7045 185.411 33.5014C185.507 33.2799 185.654 33.0837 185.838 32.9282C186.063 32.7437 186.321 32.6049 186.599 32.5197C186.967 32.4076 187.351 32.3552 187.736 32.3646C188.129 32.368 188.52 32.4038 188.906 32.4716C189.327 32.5442 189.728 32.7053 190.082 32.9442L189.461 33.9965C189.241 33.8484 188.996 33.7422 188.737 33.6832C188.472 33.6214 188.2 33.5905 187.927 33.5912C187.607 33.5664 187.286 33.6196 186.991 33.7463C186.916 33.7856 186.852 33.8447 186.808 33.9172C186.763 33.9897 186.739 34.0729 186.738 34.158V34.2264C186.733 34.3207 186.749 34.4148 186.784 34.5023C186.822 34.5784 186.882 34.6413 186.956 34.6831C187.069 34.7433 187.19 34.7873 187.315 34.8136C187.468 34.8531 187.668 34.8948 187.914 34.9408C188.314 35.0263 188.662 35.1151 188.958 35.2071C189.22 35.2827 189.466 35.4055 189.685 35.5696C189.872 35.7181 190.017 35.9132 190.105 36.1353C190.205 36.4065 190.252 36.6945 190.243 36.9834V37.1106C190.244 37.3551 190.187 37.5962 190.076 37.8143C189.958 38.0447 189.791 38.2461 189.585 38.4035C189.346 38.5839 189.077 38.7204 188.791 38.8067C188.442 38.9109 188.08 38.9618 187.716 38.9575C187.21 38.9578 186.705 38.8858 186.219 38.7436C185.793 38.6303 185.393 38.4341 185.043 38.1661L185.685 37.0593C185.969 37.2509 186.274 37.4095 186.595 37.532C186.942 37.6593 187.309 37.7219 187.679 37.7169" fill="#8A949E"/>
<path d="M196.449 38.274C196.114 38.4935 195.748 38.6611 195.363 38.7713C194.867 38.9042 194.354 38.9664 193.84 38.9563C193.479 38.9566 193.119 38.9077 192.771 38.8109C192.431 38.7166 192.115 38.5515 191.843 38.3264C191.555 38.0788 191.329 37.7662 191.185 37.4143C191.007 36.9613 190.923 36.4765 190.94 35.9898V35.3332C190.928 34.8789 191.004 34.4267 191.162 34.0007C191.296 33.6506 191.507 33.3352 191.78 33.0778C192.043 32.8347 192.355 32.6521 192.696 32.5431C193.063 32.4258 193.447 32.368 193.832 32.372C194.211 32.3679 194.587 32.4257 194.947 32.5431C195.276 32.6512 195.577 32.8305 195.828 33.0682C196.083 33.3151 196.28 33.6148 196.406 33.9462C196.552 34.3349 196.622 34.748 196.612 35.1632V36.2123H192.356C192.341 36.4215 192.369 36.6317 192.438 36.8296C192.508 37.0275 192.618 37.2087 192.762 37.3619C193.084 37.6379 193.502 37.7765 193.926 37.7479C194.264 37.7524 194.601 37.7118 194.928 37.6271C195.252 37.5328 195.562 37.3988 195.853 37.2282L196.449 38.274ZM195.215 35.115V34.8359C195.215 34.6717 195.189 34.5085 195.138 34.3526C195.089 34.1995 195.004 34.0606 194.889 33.9483C194.764 33.8271 194.615 33.7329 194.451 33.6714C194.246 33.5966 194.028 33.5603 193.809 33.5644C193.611 33.5492 193.412 33.5752 193.224 33.6407C193.037 33.7062 192.865 33.8099 192.719 33.9451C192.601 34.0674 192.508 34.2117 192.446 34.3699C192.384 34.5281 192.353 34.697 192.356 34.867V35.1118L195.215 35.115Z" fill="#8A949E"/>
<path d="M199.581 38.9571C199.012 38.9916 198.449 38.8254 197.99 38.4876C197.801 38.3278 197.652 38.1265 197.554 37.8994C197.455 37.6723 197.411 37.4256 197.424 37.1786V36.8097C197.422 36.5642 197.463 36.3203 197.545 36.0889C197.628 35.8668 197.767 35.6701 197.949 35.5179C198.168 35.3385 198.424 35.2083 198.698 35.1361C199.066 35.0358 199.447 34.989 199.829 34.9971H201.283V34.7554C201.297 34.603 201.281 34.4494 201.234 34.3036C201.187 34.1579 201.112 34.0231 201.012 33.9073C200.77 33.7154 200.464 33.6229 200.156 33.6486C199.502 33.6464 198.867 33.87 198.358 34.2816L197.643 33.2208C197.987 32.9859 198.353 32.787 198.737 32.6273C199.524 32.3282 200.385 32.2859 201.197 32.5064C201.49 32.5877 201.765 32.7218 202.01 32.9021C202.234 33.0708 202.417 33.288 202.545 33.5373C202.675 33.8036 202.74 34.0967 202.735 34.3929V38.8586H201.417L201.39 38.0726C201.324 38.2191 201.224 38.348 201.099 38.4491C200.961 38.5616 200.807 38.6545 200.643 38.725C200.471 38.7986 200.291 38.8545 200.108 38.8918C199.932 38.9301 199.753 38.9502 199.573 38.9517M201.27 36.1231H199.852C199.567 36.0921 199.28 36.1683 199.047 36.337C198.972 36.4147 198.913 36.5071 198.874 36.6084C198.836 36.7098 198.819 36.8179 198.824 36.9262V37.0652C198.82 37.1579 198.837 37.2503 198.876 37.3347C198.914 37.4192 198.972 37.4932 199.045 37.5508C199.234 37.6775 199.46 37.738 199.687 37.723C199.923 37.7429 200.161 37.7152 200.387 37.6418C200.612 37.5683 200.821 37.4505 201 37.2952C201.123 37.1821 201.205 37.0318 201.234 36.8674C201.259 36.6745 201.27 36.4801 201.268 36.2856L201.27 36.1231Z" fill="#8A949E"/>
<path d="M206.228 37.7207C206.498 37.7311 206.767 37.6864 207.019 37.5892C207.115 37.5461 207.194 37.4745 207.247 37.3843C207.3 37.2941 207.324 37.1897 207.315 37.0855V37.017C207.318 36.9252 207.304 36.8335 207.275 36.7465C207.238 36.6636 207.173 36.5959 207.092 36.555C206.968 36.4867 206.834 36.4363 206.695 36.4053C206.523 36.3597 206.286 36.3052 205.985 36.2417C205.65 36.1794 205.321 36.0889 205.001 35.9712C204.756 35.8857 204.529 35.7551 204.332 35.5861C204.161 35.4352 204.029 35.2442 203.948 35.0301C203.864 34.782 203.824 34.521 203.831 34.2591V34.1425C203.831 33.922 203.875 33.7038 203.961 33.5009C204.058 33.2796 204.204 33.0835 204.389 32.9277C204.613 32.7432 204.872 32.6044 205.149 32.5191C205.517 32.4068 205.901 32.3544 206.286 32.364C206.678 32.3675 207.069 32.4033 207.456 32.471C207.874 32.5438 208.273 32.7049 208.624 32.9436L208.002 33.9959C207.784 33.8475 207.54 33.7413 207.283 33.6826C207.017 33.6208 206.745 33.59 206.472 33.5907C206.152 33.5656 205.831 33.6188 205.536 33.7457C205.461 33.7849 205.397 33.8439 205.353 33.9164C205.308 33.989 205.284 34.0723 205.283 34.1574V34.2259C205.279 34.32 205.294 34.4139 205.328 34.5018C205.365 34.5784 205.425 34.6416 205.5 34.6825C205.613 34.7426 205.734 34.7865 205.859 34.813C206.01 34.8526 206.213 34.8942 206.458 34.9402C206.857 35.0258 207.205 35.1146 207.503 35.2065C207.765 35.2826 208.011 35.4054 208.229 35.569C208.415 35.7182 208.559 35.9131 208.648 36.1347C208.751 36.4053 208.799 36.6936 208.789 36.9828V37.1101C208.789 37.3545 208.732 37.5955 208.622 37.8137C208.503 38.0441 208.335 38.2453 208.129 38.403C207.891 38.5835 207.622 38.72 207.335 38.8062C206.988 38.9098 206.628 38.9606 206.266 38.9569C205.757 38.9578 205.251 38.8857 204.762 38.743C204.336 38.6291 203.937 38.433 203.586 38.1656L204.228 37.0587C204.512 37.2508 204.818 37.4094 205.14 37.5314C205.486 37.6589 205.853 37.7216 206.223 37.7164" fill="#8A949E"/>
<path d="M214.992 38.2741C214.659 38.494 214.294 38.6618 213.91 38.7714C213.414 38.9042 212.902 38.9665 212.388 38.9563C212.027 38.9568 211.667 38.9079 211.319 38.8109C210.979 38.7166 210.663 38.5515 210.391 38.3265C210.102 38.0794 209.876 37.7666 209.733 37.4143C209.554 36.9614 209.47 36.4766 209.486 35.9898V35.3332C209.476 34.879 209.551 34.4269 209.709 34.0008C209.844 33.6508 210.055 33.3354 210.328 33.0778C210.591 32.8347 210.903 32.6521 211.244 32.5431C211.611 32.4257 211.994 32.368 212.379 32.372C212.757 32.3678 213.133 32.4255 213.493 32.5431C213.823 32.6508 214.125 32.8301 214.377 33.0682C214.63 33.3156 214.826 33.6153 214.95 33.9462C215.099 34.3344 215.171 34.7476 215.164 35.1632V36.2123H210.909C210.893 36.4212 210.921 36.6311 210.99 36.8289C211.059 37.0267 211.168 37.2081 211.311 37.3619C211.634 37.6384 212.054 37.7769 212.478 37.7479C212.816 37.7525 213.152 37.7119 213.479 37.6271C213.802 37.5328 214.113 37.3988 214.403 37.2282L214.992 38.2741ZM213.762 35.1151V34.836C213.761 34.6719 213.735 34.509 213.685 34.3526C213.635 34.2002 213.55 34.0617 213.436 33.9483C213.311 33.8268 213.162 33.7325 212.999 33.6714C212.794 33.5966 212.576 33.5603 212.357 33.5644C212.159 33.5489 211.96 33.5747 211.772 33.6403C211.584 33.7058 211.412 33.8096 211.267 33.9451C211.148 34.0672 211.055 34.2115 210.993 34.3697C210.93 34.5279 210.9 34.6969 210.903 34.867V35.1119L213.762 35.1151Z" fill="#8A949E"/>
<path d="M218.394 37.7207C218.664 37.7311 218.933 37.6863 219.186 37.5891C219.28 37.5458 219.359 37.474 219.412 37.3837C219.464 37.2935 219.486 37.1892 219.476 37.0854V37.017C219.479 36.9252 219.466 36.8337 219.438 36.7464C219.404 36.6628 219.34 36.5947 219.259 36.555C219.134 36.4867 219.001 36.4363 218.862 36.4053C218.689 36.3596 218.453 36.3051 218.153 36.2417C217.817 36.1797 217.488 36.0892 217.168 35.9711C216.922 35.8862 216.694 35.7555 216.496 35.5861C216.326 35.4345 216.195 35.2437 216.116 35.0301C216.031 34.7819 215.99 34.5211 215.995 34.259V34.1424C215.996 33.9217 216.041 33.7035 216.129 33.5008C216.224 33.279 216.371 33.0827 216.556 32.9276C216.78 32.7437 217.038 32.6049 217.315 32.5191C217.684 32.4069 218.068 32.3545 218.453 32.364C218.847 32.3671 219.241 32.4029 219.629 32.471C220.05 32.5448 220.451 32.7057 220.806 32.9436L220.181 33.9959C219.962 33.8477 219.717 33.7415 219.459 33.6826C219.193 33.6207 218.92 33.5898 218.647 33.5906C218.327 33.5661 218.006 33.6192 217.711 33.7457C217.636 33.7852 217.573 33.8443 217.528 33.9168C217.484 33.9893 217.46 34.0724 217.459 34.1574V34.2259C217.456 34.3198 217.471 34.4134 217.503 34.5018C217.542 34.5784 217.603 34.6414 217.679 34.6825C217.791 34.7433 217.912 34.7873 218.037 34.813C218.19 34.8525 218.391 34.8942 218.637 34.9402C219.037 35.0257 219.386 35.1145 219.68 35.2065C219.942 35.2821 220.188 35.405 220.407 35.569C220.594 35.7173 220.739 35.9125 220.826 36.1347C220.928 36.4055 220.975 36.6937 220.966 36.9828V37.1101C220.967 37.3545 220.91 37.5956 220.799 37.8137C220.68 38.0435 220.512 38.2447 220.307 38.4029C220.068 38.5835 219.798 38.72 219.511 38.8061C219.164 38.9101 218.803 38.9609 218.441 38.9569C217.933 38.9577 217.426 38.8857 216.938 38.743C216.512 38.6299 216.112 38.4337 215.762 38.1656L216.403 37.0587C216.688 37.2508 216.993 37.4094 217.314 37.5314C217.661 37.6589 218.028 37.7216 218.397 37.7164" fill="#8A949E"/>
<path d="M227.88 30.4169C228.405 30.4099 228.928 30.482 229.432 30.6308C229.909 30.7849 230.352 31.0272 230.74 31.3451L229.946 32.4755C229.656 32.2173 229.313 32.0267 228.94 31.9173C228.594 31.8257 228.238 31.7807 227.88 31.7836C227.634 31.7821 227.389 31.8181 227.153 31.8905C226.911 31.9648 226.693 32.1012 226.52 32.2862C226.316 32.5125 226.162 32.7802 226.07 33.0712C225.941 33.4815 225.882 33.9106 225.895 34.3405V35.1961C225.885 35.5752 225.941 35.9531 226.058 36.3136C226.147 36.5901 226.293 36.845 226.486 37.0622C226.66 37.2489 226.875 37.3928 227.115 37.4824C227.354 37.5708 227.608 37.6158 227.863 37.6151C228.264 37.6134 228.663 37.5532 229.047 37.4365C229.467 37.3068 229.845 37.0702 230.146 36.7499L230.93 37.8813C230.703 38.1146 230.441 38.3106 230.153 38.462C229.893 38.6003 229.621 38.7128 229.34 38.7978C229.081 38.877 228.815 38.9297 228.545 38.955C228.281 38.9775 228.035 38.9892 227.805 38.9892C227.365 38.9908 226.927 38.9245 226.507 38.7925C226.105 38.6668 225.735 38.4539 225.424 38.169C225.099 37.8658 224.844 37.4958 224.676 37.0846C224.48 36.5775 224.386 36.0368 224.4 35.4934V34.0026C224.387 33.4556 224.479 32.9111 224.67 32.3985C224.835 31.9746 225.09 31.592 225.419 31.2778C225.733 30.9823 226.109 30.7599 226.519 30.6265C226.956 30.4823 227.414 30.4101 227.875 30.4127" fill="#8A949E"/>
<path d="M237.062 38.274C236.728 38.4938 236.362 38.6616 235.977 38.7713C235.481 38.9041 234.968 38.9664 234.454 38.9563C234.092 38.9568 233.733 38.9079 233.384 38.8109C233.043 38.7175 232.725 38.5524 232.453 38.3264C232.166 38.0781 231.941 37.7656 231.796 37.4143C231.619 36.9611 231.534 36.4765 231.548 35.9898V35.3332C231.537 34.8787 231.613 34.4264 231.773 34.0007C231.907 33.6506 232.118 33.3352 232.391 33.0778C232.654 32.8344 232.967 32.6519 233.308 32.5431C233.675 32.4257 234.059 32.368 234.444 32.372C234.822 32.3679 235.198 32.4257 235.557 32.5431C235.886 32.651 236.188 32.8304 236.439 33.0682C236.693 33.3154 236.89 33.615 237.017 33.9462C237.163 34.3348 237.233 34.748 237.223 35.1632V36.2123H232.967C232.952 36.4215 232.98 36.6317 233.049 36.8296C233.119 37.0275 233.229 37.2087 233.373 37.3619C233.695 37.6381 234.113 37.7767 234.537 37.7479C234.875 37.7525 235.212 37.7119 235.539 37.6271C235.862 37.533 236.173 37.399 236.463 37.2282L237.062 38.274ZM235.828 35.115V34.8359C235.828 34.6719 235.802 34.5088 235.752 34.3526C235.704 34.1996 235.62 34.0608 235.506 33.9483C235.379 33.8274 235.229 33.7333 235.065 33.6714C234.86 33.5964 234.642 33.5601 234.424 33.5644C234.225 33.5492 234.026 33.5752 233.839 33.6407C233.651 33.7062 233.479 33.8099 233.333 33.9451C233.215 34.0671 233.122 34.2114 233.059 34.3697C232.997 34.5279 232.967 34.6969 232.971 34.867V35.1118L235.828 35.115Z" fill="#8A949E"/>
<path d="M241.637 32.3677C241.918 32.366 242.196 32.4089 242.463 32.495C242.727 32.5768 242.969 32.716 243.173 32.9024C243.392 33.1066 243.562 33.3578 243.67 33.6371C243.802 33.9827 243.864 34.3508 243.854 34.7204V38.8633H242.401V35.0306C242.401 34.1038 241.997 33.6403 241.19 33.6403C241.053 33.6421 240.915 33.659 240.781 33.6906C240.617 33.7299 240.463 33.8027 240.329 33.9045C240.175 34.0224 240.052 34.1744 239.967 34.3483C239.857 34.587 239.806 34.8483 239.818 35.1107V38.8719H238.363V32.5153H239.737V33.2414H239.758C239.957 32.9376 240.245 32.7022 240.582 32.5667C240.919 32.4384 241.277 32.3738 241.637 32.3763" fill="#8A949E"/>
<path d="M245.701 33.7054H244.688V32.5066H245.701V30.8779H247.154V32.5066H248.758V33.7054H247.154V37.0515C247.14 37.1477 247.148 37.2458 247.178 37.3385C247.207 37.4311 247.257 37.5158 247.324 37.5862C247.457 37.6772 247.615 37.7217 247.776 37.7125C247.921 37.7128 248.067 37.6996 248.21 37.6729C248.37 37.6411 248.527 37.5923 248.677 37.5274L248.909 38.6931C248.737 38.7684 248.558 38.8282 248.374 38.8717C248.124 38.9336 247.867 38.9634 247.609 38.9604C247.3 38.9672 246.993 38.9239 246.698 38.8321C246.473 38.7623 246.27 38.6347 246.11 38.4621C245.958 38.2934 245.85 38.0899 245.796 37.8696C245.731 37.6073 245.7 37.3378 245.704 37.0676L245.701 33.7054Z" fill="#8A949E"/>
<path d="M255.01 38.274C254.676 38.4936 254.312 38.6613 253.928 38.7713C253.431 38.9042 252.918 38.9664 252.404 38.9563C252.043 38.9565 251.683 38.9076 251.335 38.8109C250.994 38.717 250.677 38.5519 250.406 38.3264C250.117 38.0782 249.892 37.7658 249.747 37.4143C249.568 36.9613 249.483 36.4766 249.498 35.9898V35.3332C249.488 34.8788 249.565 34.4267 249.723 34.0007C249.859 33.6512 250.071 33.3359 250.342 33.0778C250.605 32.835 250.918 32.6525 251.259 32.5431C251.626 32.4258 252.009 32.368 252.394 32.372C252.773 32.368 253.149 32.4258 253.509 32.5431C253.838 32.6508 254.138 32.8302 254.39 33.0682C254.645 33.3149 254.843 33.6146 254.969 33.9462C255.114 34.3353 255.184 34.7481 255.177 35.1631V36.2122H250.916C250.9 36.4214 250.928 36.6314 250.998 36.8292C251.067 37.027 251.177 37.2084 251.32 37.3619C251.643 37.638 252.061 37.7765 252.485 37.7479C252.824 37.7523 253.162 37.7117 253.489 37.6271C253.811 37.5323 254.121 37.3984 254.41 37.2282L255.01 38.274ZM253.776 35.115V34.8359C253.778 34.6719 253.753 34.5086 253.702 34.3525C253.653 34.2003 253.568 34.0618 253.455 33.9483C253.328 33.8279 253.179 33.7338 253.016 33.6714C252.81 33.5965 252.593 33.5602 252.374 33.5644C252.176 33.5491 251.976 33.575 251.788 33.6406C251.601 33.7061 251.428 33.8098 251.282 33.9451C251.164 34.0671 251.071 34.2114 251.009 34.3696C250.946 34.5279 250.916 34.6969 250.92 34.8669V35.1118L253.776 35.115Z" fill="#8A949E"/>
<path d="M259.991 33.8102C259.88 33.7618 259.765 33.7259 259.646 33.7033C259.493 33.6778 259.338 33.6663 259.183 33.6691C258.992 33.6682 258.803 33.7045 258.626 33.776C258.458 33.8417 258.305 33.9423 258.178 34.0711C258.049 34.1995 257.946 34.3527 257.876 34.5214C257.802 34.7019 257.765 34.896 257.77 35.0914V38.8653H256.316V32.5077H257.706V33.4306H257.734C257.89 33.1196 258.122 32.8532 258.409 32.6563C258.737 32.4509 259.12 32.3505 259.507 32.3687C259.669 32.3687 259.831 32.3805 259.992 32.404C260.133 32.4211 260.272 32.4523 260.408 32.497L259.991 33.8102Z" fill="#8A949E"/>
<mask id="mask0_1637_7632" style="mask-type:luminance" maskUnits="userSpaceOnUse" x="0" y="0" width="38" height="48">
<path d="M3.65026 32.2286C2.45569 29.7053 1.84534 26.9452 1.86456 24.1535V5.46462C7.5561 5.03304 13.1668 3.85922 18.5541 1.97301C23.9422 3.85882 29.5536 5.03263 35.2457 5.46462V24.1513C35.2457 24.1513 36.1279 37.7894 18.5519 45.9671C11.2807 42.5878 6.2743 37.9712 3.65026 32.2274M0.0146674 3.71405V24.1524C0.0146674 24.1524 -1.20325 39.2309 18.5573 48C38.32 39.2373 37.0999 24.1524 37.0999 24.1524V3.7151C30.7672 3.41769 24.5158 2.16519 18.5573 0C12.5988 2.16551 6.34738 3.41697 0.0146674 3.71405Z" fill="white"/>
</mask>
<g mask="url(#mask0_1637_7632)">
<mask id="mask1_1637_7632" style="mask-type:luminance" maskUnits="userSpaceOnUse" x="-26" y="-20" width="89" height="88">
<path d="M16.6444 -19.6719L-25.0898 26.3522L20.4938 67.6954L62.2281 21.6713L16.6444 -19.6719Z" fill="white"/>
</mask>
<g mask="url(#mask1_1637_7632)">
<rect x="-25.1211" y="-19.8484" width="87.5109" height="87.5198" fill="url(#paint0_linear_1637_7632)"/>
</g>
</g>
<path d="M19.6406 21.1546C24.1868 21.2223 28.7078 21.8428 33.1041 23.0026V7.57111C28.5155 7.33828 23.9829 6.458 19.6406 4.95642V21.1546Z" fill="white"/>
<path d="M17.4947 21.1546V4.95642C13.1524 6.45777 8.6198 7.33804 4.03125 7.57111V23.0026C8.42754 21.8428 12.9486 21.2223 17.4947 21.1546Z" fill="#8A949E"/>
<path d="M33.0663 25.3928C28.6828 24.2416 24.1761 23.6247 19.6445 23.5555V42.9256C31.1523 37.1914 32.8663 28.5871 33.0888 25.3874C33.0813 25.3874 33.0749 25.3971 33.0663 25.3949" fill="white"/>
<path d="M17.4939 23.5555C12.9551 23.6275 8.44146 24.2465 4.05078 25.3992C4.27747 28.6074 6.00116 37.2032 17.4939 42.9245V23.5555Z" fill="white"/>
<defs>
<linearGradient id="paint0_linear_1637_7632" x1="-25" y1="-19.9998" x2="62" y2="68.0002" gradientUnits="userSpaceOnUse">
<stop stop-color="#8A949E"/>
<stop offset="1" stop-color="white"/>
</linearGradient>
</defs>
</svg>
