<svg width="212" height="48" viewBox="0 0 212 48" fill="none" xmlns="http://www.w3.org/2000/svg">
<g clip-path="url(#clip0_1637_9821)">
<mask id="mask0_1637_9821" style="mask-type:luminance" maskUnits="userSpaceOnUse" x="0" y="0" width="212" height="48">
<path d="M212 0H0V48H212V0Z" fill="white"/>
</mask>
<g mask="url(#mask0_1637_9821)">
<g opacity="0.8">
<path d="M71.3654 34.9585V35.7109H62.8633V34.9585H66.6229V33.2532H67.5024V34.9585H71.3654ZM67.0712 42.9501C66.5366 42.9501 66.0365 42.8833 65.5881 42.7328C65.1397 42.5823 64.7603 42.3817 64.4499 42.1142C64.1223 41.8467 63.8808 41.5458 63.6911 41.1612C63.5187 40.7934 63.4324 40.3754 63.4324 39.9407C63.4324 39.506 63.5187 39.1048 63.6911 38.737C63.8636 38.3692 64.1223 38.0515 64.4499 37.784C64.7603 37.5165 65.1397 37.3159 65.5881 37.1654C66.0365 37.0149 66.5366 36.9481 67.0712 36.9481C67.6059 36.9481 68.0887 37.0149 68.5371 37.1654C68.9855 37.3159 69.3649 37.5165 69.6926 37.784C70.003 38.0515 70.2617 38.3692 70.4514 38.737C70.6411 39.1048 70.7273 39.506 70.7273 39.9407C70.7273 40.3754 70.6411 40.7934 70.4514 41.1612C70.2617 41.529 70.0202 41.8467 69.6926 42.1142C69.3649 42.3817 68.9855 42.5823 68.5371 42.7328C68.0887 42.8833 67.6059 42.9501 67.0712 42.9501ZM75.5561 46.9125V47.6816H63.6739V43.7192H64.5534V46.9292H75.5561V46.9125ZM67.0712 42.2145C67.899 42.2145 68.5716 41.9972 69.089 41.5625C69.6064 41.1278 69.865 40.5928 69.865 39.9407C69.865 39.2887 69.6064 38.737 69.089 38.319C68.5716 37.8843 67.899 37.667 67.0712 37.667C66.2435 37.667 65.5709 37.8843 65.0708 38.319C64.5706 38.7537 64.312 39.2887 64.312 39.9407C64.312 40.5928 64.5706 41.1445 65.0708 41.5625C65.5709 41.9972 66.2435 42.2145 67.0712 42.2145ZM77.3669 38.4026V39.1717H75.1594V44.4381H74.2799V33.738H75.1594V38.4193H77.3669V38.4026Z" fill="white"/>
<path d="M90.8667 43.654V48.0177H89.9872V44.4231H78.5706V43.654H84.2272V40.8954H77.7773V40.1263H91.7117V40.8954H85.0894V43.654H90.8495H90.8667ZM90.8667 38.956H89.9872V34.8097H78.5706V34.0406H90.8667V38.956Z" fill="white"/>
<path d="M93.8389 39.7585V34.0406H106.049V34.8097H94.7184V36.5318H106.049V37.2841H94.7184V39.0229H106.204V39.7752H100.289V41.514H106.911V42.2831H92.9766V41.514H99.4265V39.7752H93.8389V39.7585ZM103.255 47.9508H96.5982C95.6842 47.9508 94.9771 47.7502 94.4425 47.3489C93.9251 46.9477 93.6665 46.4126 93.6665 45.7606C93.6665 45.1086 93.9251 44.607 94.4425 44.189C94.9599 43.7711 95.6842 43.5704 96.5982 43.5704H103.255C104.169 43.5704 104.876 43.7711 105.411 44.189C105.928 44.607 106.187 45.1253 106.187 45.7606C106.187 46.3959 105.928 46.9477 105.411 47.3489C104.893 47.7502 104.169 47.9508 103.255 47.9508ZM96.5982 47.1984H103.255C103.876 47.1984 104.376 47.0647 104.755 46.8139C105.118 46.5631 105.307 46.212 105.307 45.7606C105.307 45.3092 105.118 44.9748 104.755 44.7073C104.376 44.4398 103.876 44.3228 103.255 44.3228H96.5982C95.9601 44.3228 95.46 44.4565 95.0806 44.7073C94.7184 44.9748 94.5287 45.3259 94.5287 45.7606C94.5287 46.1953 94.7184 46.5631 95.0806 46.8139C95.4428 47.0647 95.9429 47.1984 96.5982 47.1984Z" fill="white"/>
<path d="M169.219 38.1184V37.4998C169.219 36.9815 169.305 36.4967 169.495 36.0453C169.684 35.5938 169.943 35.1926 170.271 34.8582C170.616 34.5238 171.012 34.2563 171.461 34.0557C171.926 33.8551 172.426 33.7548 172.996 33.7548C173.565 33.7548 174.048 33.8551 174.513 34.0557C174.979 34.2563 175.375 34.5238 175.72 34.8582C176.065 35.1926 176.324 35.5938 176.514 36.0453C176.703 36.4967 176.807 36.9815 176.807 37.4998V38.1184C176.807 38.6367 176.703 39.1383 176.514 39.5897C176.324 40.0411 176.065 40.4423 175.72 40.7934C175.375 41.1278 174.979 41.3953 174.513 41.5959C174.048 41.7966 173.53 41.8969 172.996 41.8969C172.461 41.8969 171.926 41.7966 171.461 41.5959C170.995 41.3953 170.598 41.1278 170.271 40.7934C169.926 40.4423 169.667 40.0411 169.495 39.5897C169.305 39.1383 169.219 38.6534 169.219 38.1184ZM182.05 46.9293V47.6983H170.012V43.2511H170.874V46.9293H182.05ZM170.081 37.4998V38.1184C170.081 38.5364 170.15 38.9376 170.288 39.3054C170.426 39.6733 170.633 39.9909 170.892 40.2584C171.15 40.5259 171.461 40.7265 171.823 40.877C172.185 41.0275 172.582 41.1111 173.013 41.1111C173.444 41.1111 173.858 41.0442 174.203 40.877C174.565 40.7265 174.875 40.5092 175.134 40.2584C175.375 39.9909 175.582 39.6733 175.72 39.3054C175.858 38.9376 175.945 38.5531 175.945 38.1184V37.4998C175.945 37.0818 175.876 36.6973 175.72 36.3295C175.565 35.9617 175.375 35.644 175.134 35.3765C174.875 35.109 174.565 34.9084 174.203 34.7412C173.841 34.5907 173.444 34.5071 173.013 34.5071C172.582 34.5071 172.185 34.5907 171.823 34.7412C171.461 34.8916 171.15 35.109 170.892 35.3765C170.633 35.644 170.426 35.9617 170.288 36.3295C170.15 36.6973 170.081 37.0818 170.081 37.4998ZM177.376 39.9073V39.155H180.773V36.3629H177.376V35.6106H180.773V33.7548H181.653V44.2877H180.773V39.9073H177.376Z" fill="white"/>
<path d="M203.55 43.8028H204.429V46.3775H209.724V47.1466H199.152V46.3775H203.55V43.8028ZM208.447 35.0421V35.8112H199.566V35.0421H203.55V33.2532H204.429V35.0421H208.465H208.447ZM207.792 39.9407C207.792 40.3922 207.706 40.7934 207.516 41.1779C207.327 41.5625 207.068 41.8801 206.74 42.1476C206.412 42.4151 206.016 42.6325 205.55 42.783C205.085 42.9334 204.567 43.017 203.998 43.017C203.429 43.017 202.912 42.9501 202.429 42.783C201.963 42.6325 201.549 42.4151 201.239 42.1476C200.894 41.8801 200.635 41.5458 200.463 41.1779C200.29 40.8101 200.187 40.3922 200.187 39.9407C200.187 39.4893 200.273 39.1048 200.463 38.7203C200.635 38.3524 200.894 38.0181 201.239 37.7506C201.566 37.4831 201.963 37.2657 202.429 37.0985C202.894 36.9481 203.429 36.8645 203.998 36.8645C204.567 36.8645 205.085 36.9481 205.55 37.0985C206.016 37.249 206.412 37.4663 206.74 37.7506C207.068 38.0181 207.327 38.3524 207.516 38.7203C207.706 39.1048 207.792 39.506 207.792 39.9407ZM206.93 39.9407C206.93 39.2385 206.654 38.6868 206.119 38.2521C205.567 37.8342 204.878 37.6168 203.998 37.6168C203.119 37.6168 202.412 37.8342 201.877 38.2521C201.342 38.6701 201.066 39.2385 201.066 39.9407C201.066 40.6429 201.342 41.2281 201.877 41.6461C202.412 42.064 203.119 42.2814 203.998 42.2814C204.878 42.2814 205.567 42.064 206.119 41.6461C206.671 41.2281 206.93 40.6597 206.93 39.9407ZM212 47.8488H211.121V33.7213H212V47.8488Z" fill="white"/>
<path d="M121.377 46.9308V47.6998H109.34V43.2526H110.202V46.9308H121.377ZM120.998 44.2892H120.118V33.7563H120.998V44.2892ZM113.203 34.4919L108.253 42.1491L107.512 41.6977L112.858 33.4219L113.203 34.4919ZM112.858 33.4219L118.204 41.6977L117.462 42.1491L112.513 34.4919L112.858 33.4219Z" fill="white"/>
<path d="M134.949 33.7407H138.036V34.5098H135.829V47.8682H134.949V33.7407Z" fill="white"/>
<path d="M127.705 35.2783L123.238 46.2961L122.41 45.9784L127.325 33.8906L127.705 35.2783Z" fill="white"/>
<path d="M127.329 33.8906L132.261 45.9784L131.433 46.2961L127.105 35.6461L127.329 33.8906Z" fill="white"/>
<path d="M162.199 34.0406H154.352V34.8097H162.199V34.0406Z" fill="white"/>
<path d="M165.305 33.7407H168.392V34.5098H166.185V47.8682H165.305V33.7407Z" fill="white"/>
<path d="M158.663 35.6111L154.179 46.6288L153.352 46.3279L158.284 34.2234L158.663 35.6111Z" fill="white"/>
<path d="M158.28 34.2234L163.195 46.3279L162.367 46.6288L158.039 35.979L158.28 34.2234Z" fill="white"/>
<path d="M150.453 41.8828H151.332V47.701H139.691V41.8828H140.554V46.9319H150.47V41.8828H150.453ZM147.055 34.5098V33.7407H151.332V42.1336H150.453V34.5098H147.055Z" fill="white"/>
<path d="M150.702 42.2968L139.953 46.7157L140.297 47.5007L151.045 43.0818L150.702 42.2968Z" fill="white"/>
<path d="M142.66 33.6844C140.573 33.6844 138.883 35.3229 138.883 37.3459C138.883 39.3689 140.573 41.0073 142.66 41.0073C144.746 41.0073 146.436 39.3689 146.436 37.3459C146.436 35.3229 144.746 33.6844 142.66 33.6844ZM142.66 40.1714C141.056 40.1714 139.745 38.9008 139.745 37.3459C139.745 35.791 141.056 34.5204 142.66 34.5204C144.264 34.5204 145.574 35.791 145.574 37.3459C145.574 38.9008 144.264 40.1714 142.66 40.1714Z" fill="white"/>
<path d="M192.725 34.7432V35.4956H184.223V34.7432H187.982V33.272H188.862V34.7432H192.725ZM189.069 41.6481H187.81C186.896 41.6481 186.171 41.4141 185.62 40.9292C185.068 40.4444 184.792 39.8425 184.792 39.1069C184.792 38.3712 185.068 37.7694 185.62 37.2845C186.171 36.7997 186.896 36.5656 187.81 36.5656H189.069C189.983 36.5656 190.707 36.7997 191.259 37.2845C191.811 37.7694 192.087 38.3712 192.087 39.1069C192.087 39.8425 191.811 40.4444 191.259 40.9292C190.707 41.4141 189.983 41.6481 189.069 41.6481ZM187.81 40.9125H189.069C189.741 40.9125 190.259 40.7453 190.638 40.4109C191.017 40.0766 191.207 39.6419 191.207 39.1069C191.207 38.5719 191.017 38.1372 190.638 37.8028C190.259 37.4684 189.741 37.3012 189.069 37.3012H187.81C187.137 37.3012 186.603 37.4684 186.24 37.8028C185.861 38.1372 185.671 38.5719 185.671 39.1069C185.671 39.6419 185.861 40.0766 186.24 40.4109C186.62 40.7453 187.137 40.9125 187.81 40.9125Z" fill="white"/>
<path d="M195.638 41.8782H196.517V47.6964H184.859V41.8782H185.722V46.9273H195.638V41.8782Z" fill="white"/>
<path d="M195.89 42.2968L185.141 46.7157L185.485 47.5007L196.233 43.0818L195.89 42.2968Z" fill="white"/>
<path d="M198.724 33.7407V34.5098H196.517V42.7522H195.637V33.7407H198.724Z" fill="white"/>
</g>
<path d="M204.482 26.6663L195.152 4.88155L185.253 26.6663H177.941L189.289 1.27026H201.412L212.001 26.6663H204.482Z" fill="white"/>
<path fill-rule="evenodd" clip-rule="evenodd" d="M170.508 13.9276C170.508 19.6789 166.8 27.3696 153.677 27.3696C140.553 27.3696 137.207 20.1136 137.207 14.2453C137.207 7.90882 141.139 0.585938 153.728 0.585938C167.111 0.636094 170.508 8.42711 170.508 13.9276ZM144.968 13.5431C144.968 15.4491 145.002 23.6246 153.78 23.6246C162.558 23.6246 162.834 15.7166 162.834 14.0614C162.834 6.87225 158.574 4.28082 153.78 4.31426C148.003 4.34769 144.968 8.12617 144.968 13.5431Z" fill="white"/>
<path d="M69.3977 1.27026H62.6719V26.6663H69.3977V1.27026Z" fill="white"/>
<path d="M85.0699 26.6663L74.5156 13.9599L85.0699 1.27026H92.9512L81.4656 13.9599L92.9512 26.6663H85.0699Z" fill="white"/>
<path d="M112.064 26.6663V5.60046H100.699V1.27026H130.327V5.60046H118.928V26.6663H112.064Z" fill="white"/>
<path d="M43.4248 2.8255C43.0971 3.17659 43.0971 3.57785 43.511 3.87879C44.1491 4.34692 44.6492 4.63114 44.5285 5.53396C43.9077 10.0313 42.4245 15.7158 39.3721 21.1996C38.5098 22.7544 37.4923 23.3898 36.63 23.5737C35.854 23.7241 34.871 23.4901 34.2329 22.8715C31.784 20.4974 29.042 14.4451 23.989 10.9007C23.5579 10.5998 23.1612 10.6332 22.8336 10.9007C22.5231 11.1515 22.3679 11.6196 22.6611 12.0042C26.2654 16.652 28.3349 21.9854 30.7838 25.5799C31.784 27.0512 34.1294 28.6562 37.6303 27.5695C40.3551 26.7335 42.735 23.2059 43.9249 20.1964C45.5288 16.1672 49.5642 3.17659 44.3733 2.49112C44.3388 2.49112 44.2871 2.49112 44.2526 2.49112C43.9422 2.49112 43.5972 2.62487 43.4248 2.8255ZM19.4707 0.15047C11.0376 3.22675 3.57023 10.6332 1.24208 14.3615C-0.654941 17.4211 -0.120328 19.8621 1.08687 20.7983C2.27681 21.7346 4.62221 22.1693 8.60594 19.1766C21.0055 9.88088 25.7998 6.92163 39.4928 3.54441C40.3378 3.32706 40.6655 2.85893 40.5965 2.45768C40.5448 2.17346 40.1654 1.97283 39.5445 2.03971C26.6103 3.41066 18.0393 7.54023 5.70868 16.7022C5.12233 17.1369 4.62221 17.3041 4.38077 17.1369C3.8979 16.8025 4.70844 15.3647 5.46724 14.3783C9.33026 9.279 14.3487 4.64786 19.9535 1.48798C20.6779 1.08673 20.9193 0.568443 20.7468 0.267503C20.6606 0.117032 20.4709 0 20.1777 0C19.988 0 19.7466 0.0501567 19.4879 0.15047" fill="white"/>
</g>
</g>
<defs>
<clipPath id="clip0_1637_9821">
<rect width="212" height="48" fill="white"/>
</clipPath>
</defs>
</svg>
