<svg width="175" height="40" viewBox="0 0 175 40" fill="none" xmlns="http://www.w3.org/2000/svg">
<g clip-path="url(#clip0_1653_5959)">
<path d="M142.225 18.7279V14.6982C142.225 4.70993 135.036 0.188234 128.375 0.188234C119.18 0.188234 112.802 7.49328 112.802 16.2752C112.802 25.6434 118.803 31.4192 126.292 31.4192C128.25 31.4959 130.202 31.1666 132.026 30.4517C133.851 29.7369 135.508 28.652 136.895 27.2651C137.346 28.0618 137.859 28.8216 138.43 29.5375C138.732 29.9546 139.127 30.2955 139.583 30.5332C140.039 30.7708 140.544 30.8988 141.058 30.9068C141.662 30.8949 142.258 30.7593 142.808 30.5083C143.329 30.33 143.802 30.0337 144.19 29.6425C144.578 29.2513 144.871 28.7758 145.046 28.2527C145.153 27.8286 145.167 27.3865 145.09 26.9561C145.012 26.5257 144.843 26.1169 144.595 25.7572C143.199 23.6626 142.383 21.2341 142.231 18.72M134.075 15.4892C133.788 20.5108 131.005 24.8434 126.226 24.3958C122.5 24.0587 120.311 20.0741 120.993 15.1644C121.675 10.2551 124.742 6.81012 128.668 7.13319C132.517 7.3349 134.328 10.5734 134.072 15.4936M154.223 34.2257C152.748 37.9981 153.288 39.0504 154.772 39.6352C156.196 40.1656 157.769 40.1162 159.157 39.4976C160.544 38.879 161.635 37.7404 162.194 36.3257L174.13 5.77791C175.602 2.01007 175.065 0.959273 173.576 0.371522C172.153 -0.159111 170.58 -0.109797 169.193 0.508886C167.806 1.12757 166.717 2.26634 166.158 3.68089L161.838 14.7492L155.58 3.04087C154.855 1.70877 153.641 0.712097 152.195 0.262277C150.749 -0.187542 149.185 -0.0551179 147.835 0.631459C146.423 1.38075 146.007 2.46855 147.9 6.00417L157.93 24.7743L154.223 34.2257ZM105.159 0.197705C102.483 0.197705 101.014 1.3946 100.594 3.59336L97.5034 20.9787C97.498 21 97.4857 21.0188 97.4685 21.0323C97.4513 21.0458 97.43 21.0531 97.4081 21.0531C97.3863 21.0531 97.3651 21.0458 97.3478 21.0323C97.3306 21.0188 97.3183 21 97.313 20.9787L93.3065 4.36247C92.5573 1.47458 91.7023 0.182271 89.2493 0.182271C86.7963 0.182271 85.9381 1.47458 85.1858 4.36247L81.1794 20.9787C81.174 21 81.1617 21.0188 81.1445 21.0323C81.1273 21.0458 81.106 21.0531 81.0842 21.0531C81.0623 21.0531 81.0411 21.0458 81.0238 21.0323C81.0066 21.0188 80.9943 21 80.989 20.9787L77.899 3.59319C77.4814 1.39618 76.0123 0.19753 73.3367 0.19753C71.4408 0.19753 69.7155 1.21763 70.0884 2.85775L75.6408 27.4191C75.9291 28.5483 76.6032 29.5406 77.5458 30.2233C78.4884 30.9061 79.6399 31.2362 80.8001 31.1562C81.9843 31.2284 83.1582 30.899 84.1329 30.221C85.1075 29.5431 85.8261 28.5562 86.173 27.4191L89.2432 14.4153L92.3132 27.4191C92.6606 28.5558 93.3794 29.5424 94.3539 30.2202C95.3284 30.8981 96.502 31.2277 97.6861 31.1562C98.8458 31.2348 99.9965 30.9041 100.939 30.2215C101.881 29.5389 102.555 28.5475 102.844 27.4191L108.398 2.85775C108.763 1.21605 107.042 0.197705 105.146 0.197705M49.7595 0.185252C39.3486 0.185252 33.9068 7.1795 33.9068 15.7984C33.9068 24.4174 39.347 31.4178 49.7595 31.4178C60.172 31.4178 65.6075 24.4205 65.6075 15.8016C65.6075 7.18266 60.1734 0.185252 49.7595 0.185252ZM49.7595 24.4635C45.3199 24.4635 42.0502 21.2327 42.0502 15.7984C42.0502 10.3642 45.3199 7.13337 49.7595 7.13337C54.1991 7.13337 57.47 10.3643 57.47 15.7984C57.47 21.2325 54.2019 24.4635 49.7595 24.4635ZM26.5339 21.9589C25.0776 23.1476 23.3951 24.0268 21.5889 24.5429C19.7826 25.0589 17.8905 25.2011 16.0277 24.9606C14.907 24.8861 13.8122 24.5891 12.8069 24.0869C11.8017 23.5846 10.9061 22.8871 10.1722 22.0348C9.43834 21.1826 8.88079 20.1926 8.532 19.1225C8.1832 18.0524 8.05012 16.9235 8.14048 15.8014C8.14048 10.3675 11.4133 7.13653 15.8527 7.13653C18.4275 7.11433 20.9177 8.05631 22.8358 9.77798C23.3947 10.1799 24.0562 10.4141 24.743 10.453C25.4297 10.492 26.1134 10.3342 26.714 9.99811C27.3146 9.66199 27.8073 9.16144 28.1345 8.55499C28.4618 7.94854 28.6099 7.26126 28.5618 6.57351C28.1164 3.72859 22.9632 0.188409 15.8527 0.188409C5.44197 0.188409 0 7.18266 0 15.8016C0 23.9343 4.80323 31.4209 16.6049 31.4209C22.8358 31.4209 27.3166 28.8438 27.9645 25.3421C28.0691 24.7004 27.9906 24.0421 27.738 23.4432C27.4854 22.8443 27.069 22.3292 26.5368 21.9573" fill="white"/>
</g>
<defs>
<clipPath id="clip0_1653_5959">
<rect width="175" height="40" fill="white"/>
</clipPath>
</defs>
</svg>
