<svg width="117" height="40" viewBox="0 0 117 40" fill="none" xmlns="http://www.w3.org/2000/svg">
<g clip-path="url(#clip0_1637_6091)">
<path d="M4.14958 10.6508L2.73619 9.07324C0.972325 12.1103 0.0356771 15.5559 0.0195312 19.067H0.993701C0.928142 15.9614 2.0577 12.9491 4.14958 10.6508Z" fill="white"/>
<path d="M3.8964 26.1339C2.94427 25.2278 2.19363 24.1318 1.69326 22.917C1.19288 21.7021 0.953972 20.3958 0.992044 19.0827V19.0652H0.0178743C-0.0274717 22.4367 0.613242 25.7822 1.90114 28.8989L3.8964 26.1339Z" fill="white"/>
<path d="M34.9032 16.5208L33.0938 18.4108C35.6002 18.4476 37.14 20.4051 37.0861 22.9014H38.0603C38.0449 21.6698 37.7533 20.4572 37.2069 19.353C36.6605 18.2488 35.8733 17.281 34.9032 16.5208Z" fill="white"/>
<path d="M38.0623 22.9014H37.0882C37.0406 24.9557 35.9551 26.6801 33.5469 27.9639L36.089 31.5045C37.4524 28.8452 38.1306 25.8883 38.0623 22.9014Z" fill="white"/>
<path d="M5.16293 16.1915C5.09115 16.5801 5.05492 16.9744 5.05469 17.3696C5.05469 23.254 9.3912 27.0108 14.8645 27.0108C25.2719 27.0108 28.3596 18.4102 33.0202 18.4102C33.0433 18.4102 33.0671 18.4102 33.0921 18.4102L34.9016 16.5202C32.6536 14.649 29.3181 13.4758 25.2719 13.4758C17.0331 13.4758 12.6447 20.4358 8.90317 20.4358C7.27644 20.4358 6.03011 18.6283 6.03011 16.8733C6.03066 16.6958 6.04069 16.5185 6.06014 16.3421L5.16293 16.1915Z" fill="white"/>
<path d="M11.6165 7.55949C17.6311 7.55949 21.8062 12.1607 27.1713 12.1607C33.6069 12.1607 37.1682 8.99012 38.0623 2.79387L37.0881 2.63075C36.8159 4.272 35.7586 6.24512 33.8622 6.24512C32.0734 6.24512 30.1764 4.65574 27.4178 3.12012C24.6523 1.53074 21.4814 -0.00488281 17.5247 -0.00488281C11.161 -0.00488281 5.79154 3.78699 2.73828 9.06824L4.15167 10.6457C5.11534 9.64453 6.27608 8.85345 7.5608 8.3223C8.84551 7.79114 10.2264 7.53143 11.6165 7.55949Z" fill="white"/>
<path d="M17.9032 30.4613C13.2451 30.4613 7.35567 29.4407 3.8976 26.1338L1.90234 28.9007C4.77228 35.5788 10.8963 39.9938 20.0711 39.9938C26.1357 39.9938 32.8448 37.5644 36.0882 31.5019L33.5461 27.9613C30.5573 29.5525 25.5276 30.4613 17.9032 30.4613Z" fill="white"/>
<path d="M4.13004 10.6563L2.71665 9.07886C0.952838 12.1159 0.0162041 15.5615 0 19.0726H0.974161C0.908537 15.967 2.03811 12.9546 4.13004 10.6563Z" fill="white"/>
<path d="M3.87686 26.1393C2.92482 25.2333 2.17422 24.1373 1.67385 22.9226C1.17348 21.7079 0.93452 20.4016 0.972504 19.0887V19.0718H-0.00165691C-0.047003 22.4433 0.593701 25.7888 1.8816 28.9055L3.87686 26.1393Z" fill="white"/>
<path d="M34.8837 16.5256L33.0742 18.4169C35.5806 18.4531 37.1204 20.4106 37.0666 22.9062H38.0408C38.0251 21.6747 37.7334 20.4622 37.1871 19.358C36.6407 18.2539 35.8536 17.286 34.8837 16.5256Z" fill="white"/>
<path d="M38.0428 22.9062H37.0686C37.0211 24.9606 35.9355 26.6863 33.5273 27.9688L36.0694 31.51C37.4329 28.8505 38.1111 25.8934 38.0428 22.9062Z" fill="white"/>
<path d="M5.1434 16.1949C5.07159 16.5837 5.03536 16.9783 5.03516 17.3737C5.03516 23.258 9.37166 27.0136 14.845 27.0136C25.2524 27.0136 28.34 18.413 33.0007 18.413C33.0238 18.413 33.0476 18.413 33.0726 18.413L34.882 16.5218C32.634 14.6511 29.2986 13.478 25.2524 13.478C17.0136 13.478 12.6251 20.4374 8.88364 20.4374C7.25691 20.4374 6.01057 18.6305 6.01057 16.8749C6.01113 16.6976 6.02115 16.5205 6.0406 16.3443L5.1434 16.1949Z" fill="white"/>
<path d="M11.597 7.565C17.6122 7.565 21.7866 12.1663 27.1517 12.1663C33.5874 12.1663 37.1487 8.99562 38.0427 2.79875L37.0686 2.63626C36.7964 4.27689 35.739 6.25 33.8426 6.25C32.0538 6.25 30.1568 4.66062 27.3982 3.125C24.6334 1.53562 21.4619 0 17.5052 0C11.1415 0 5.77201 3.79187 2.71875 9.07312L4.13214 10.6506C5.09586 9.64954 6.25661 8.85857 7.54133 8.32752C8.82605 7.79648 10.2069 7.53686 11.597 7.565Z" fill="white"/>
<path d="M17.8837 30.4669C13.2256 30.4669 7.33614 29.4463 3.87807 26.1394L1.88281 28.9063C4.75275 35.5844 10.8768 40 20.0516 40C26.1162 40 32.8252 37.5707 36.0687 31.5082L33.5266 27.9669C30.5378 29.5588 25.5081 30.4669 17.8837 30.4669Z" fill="white"/>
<path d="M115.573 24.5303H110.691V26.3809H115.573V24.5303Z" fill="white"/>
<path d="M116.996 10.4834H114.961V29.4128H116.996V10.4834Z" fill="white"/>
<path d="M113.162 20.7703H101.332V22.6228H113.162V20.7703Z" fill="white"/>
<path d="M108.046 22.0046H106.012V29.2059H108.046V22.0046Z" fill="white"/>
<path d="M107.09 19.1247C109.735 19.1247 111.892 17.1696 111.892 14.8034C111.892 12.4371 109.735 10.4834 107.09 10.4834C104.444 10.4834 102.289 12.4384 102.289 14.8034C102.289 17.1684 104.445 19.1247 107.09 19.1247ZM107.09 12.2728C107.583 12.3089 108.055 12.4881 108.448 12.7883C108.84 13.0885 109.137 13.4966 109.301 13.9627C109.465 14.4288 109.489 14.9325 109.37 15.4121C109.251 15.8917 108.995 16.3262 108.633 16.6625C108.271 16.9987 107.818 17.222 107.331 17.3049C106.843 17.3879 106.342 17.3269 105.889 17.1294C105.435 16.932 105.05 16.6067 104.779 16.1934C104.508 15.7801 104.364 15.2968 104.364 14.8028C104.375 14.4574 104.455 14.1177 104.598 13.8033C104.742 13.4888 104.946 13.2059 105.199 12.9707C105.453 12.7355 105.75 12.5527 106.075 12.4329C106.399 12.3132 106.744 12.2587 107.09 12.2728Z" fill="white"/>
<path d="M100.098 17.7872H97.4526V29.4121H95.418V10.4834H97.4526V15.9353H100.098V17.7872Z" fill="white"/>
<path d="M93.3852 10.894H81.7891V12.7459H93.3852V10.894Z" fill="white"/>
<path d="M91.5542 12.1289H89.5195V23.4458H91.5542V12.1289Z" fill="white"/>
<path d="M85.6558 12.1289H83.6211V23.4458H85.6558V12.1289Z" fill="white"/>
<path d="M93.5875 22.8284H81.5859V24.6802H93.5875V22.8284Z" fill="white"/>
<path d="M54.0381 29.9114C48.0161 29.9114 44.6875 25.907 44.6875 19.982C44.6875 14.0289 48.2901 9.99516 54.1489 9.99516C56.174 9.95541 58.1744 10.4449 59.9519 11.4152L59.3188 15.5589C57.8279 14.532 56.0694 13.9622 54.259 13.9195C50.9855 13.9195 49.3913 16.367 49.3913 19.9552C49.3913 23.5702 51.0412 26.1027 54.3128 26.1027C55.2051 26.1312 56.0887 25.9196 56.8711 25.4901V22.0689H53.5701L53.0195 18.5358H60.9693V27.882C58.9119 29.2316 56.4993 29.9381 54.0381 29.9114Z" fill="white"/>
<path d="M69.991 29.7734C67.7017 29.789 65.4377 29.2951 63.3633 28.3277L64.0515 24.2652C65.8887 25.3298 67.9541 25.9402 70.0755 26.0452C71.4219 26.0452 72.3598 25.4615 72.3598 24.3215C72.3598 23.2358 71.8079 22.7358 69.1394 21.7058C65.3435 20.2315 63.6961 18.9802 63.6961 15.8083C63.6961 12.109 66.5567 10.1333 70.1862 10.1333C72.1709 10.0778 74.138 10.5183 75.9092 11.4146L75.1922 15.4202C73.7031 14.4855 71.9984 13.9492 70.2419 13.8627C68.8122 13.8627 68.1246 14.474 68.1246 15.3627C68.1246 16.3352 68.6458 16.8083 71.0127 17.7252C75.1421 19.2565 76.7901 20.7015 76.7901 23.7615C76.7901 27.9352 73.7644 29.7702 69.9947 29.7702" fill="white"/>
</g>
<defs>
<clipPath id="clip0_1637_6091">
<rect width="117" height="40" fill="white"/>
</clipPath>
</defs>
</svg>
