<svg width="106" height="48" viewBox="0 0 106 48" fill="none" xmlns="http://www.w3.org/2000/svg">
<g clip-path="url(#clip0_1637_9652)">
<path d="M81.7957 21.6186C80.5738 21.6186 79.6537 21.055 78.9397 20.1562C79.9408 18.7565 80.8388 17.563 81.7957 17.563H81.9798V14.5573H72.2671V17.563H77.3903C75.5942 19.4637 74.3282 21.9943 72.6977 21.9943H72.1641V25H72.7971C74.6962 25 76.1463 23.7697 77.3498 22.3074C78.0822 23.3609 78.9471 24.1565 80.3346 24.4733C81.0339 24.1786 81.7994 24.0202 82.5944 24.0202V21.6186H81.7957ZM84.9793 14.5683V17.9608H81.9798V20.9703H84.9793V24.547C85.5608 24.8085 86.0871 25.1621 86.5435 25.5894H88.2843V14.5683H84.9793Z" fill="white"/>
<path d="M98.9405 14.5536V17.563H97.4095C96.6734 17.563 96.1655 18.2518 95.7165 19.1911C96.5924 20.6756 97.6156 21.8028 99.246 21.8028H100.387V24.8122H99.2239C96.4894 24.8122 95.4478 23.5377 94.4504 21.9722C93.615 23.5819 92.4519 25.0001 90.3283 25.0001H89.6953V21.9906H90.229C92.8605 21.9906 92.7795 14.5536 97.2291 14.5536H98.9442H98.9405ZM99.6141 20.7787V17.7693H102.695V14.5646H106V25.8141H102.695V20.7787H99.6141Z" fill="white"/>
<path d="M102.645 34.382V29.8034H93.4258V26.8124H105.869V31.6267C105.869 33.498 104.655 34.382 103.12 34.382H102.642H102.645Z" fill="white"/>
<path d="M86.818 25.8583L84.6355 27.7959C84.146 27.3097 83.4909 26.9929 82.7474 26.9487C81.198 26.8566 79.8509 27.9948 79.6743 29.5198L81.3783 29.5787L79.8877 30.9048L78.0917 32.4997L76.9287 31.1884L75.3203 29.3724L76.7557 29.4203C76.9287 27.166 78.3714 25.2948 80.3367 24.4733C81.036 24.1787 81.8015 24.0203 82.5965 24.0203C82.7033 24.0203 82.8137 24.0239 82.9204 24.0313C83.6565 24.0755 84.3521 24.256 84.9814 24.547C85.5629 24.8085 86.0892 25.1622 86.5456 25.5894C86.6376 25.6742 86.7296 25.7663 86.818 25.8583Z" fill="white"/>
<path d="M89.8414 30.2897L88.4061 30.2418C88.1705 33.4059 85.4212 35.815 82.245 35.6271C80.979 35.5497 79.8012 35.0819 78.8333 34.2679C78.7265 34.1795 78.6308 34.0911 78.5352 33.9953L80.7287 32.0467C81.2071 32.4445 81.7923 32.6766 82.4143 32.7134C83.9638 32.8055 85.3071 31.6636 85.4875 30.1386L83.7834 30.0797L85.274 28.7573L87.0664 27.1624L88.2441 28.4884L89.8414 30.2897Z" fill="white"/>
<path d="M43.4143 14.6015V15.3125H40.2344V14.6015C40.2344 14.27 40.5067 13.9974 40.838 13.9974H42.8107C43.1419 13.9974 43.4143 14.27 43.4143 14.6015Z" fill="white"/>
<path d="M48.707 14.5463H51.8023V27.1108C51.8023 29.564 50.5215 30.0907 48.707 30.0907V14.5463Z" fill="white"/>
<path d="M64.4013 27.4791C63.2125 27.0039 61.2398 27.2102 58.8622 27.6449C56.3669 28.0795 54.0041 28.1827 52.7969 27.4165V24.5397C54.2396 25.3464 56.6392 25.2432 58.8254 24.8086C61.2839 24.3334 63.1941 24.1676 64.4049 24.6833V27.4754L64.4013 27.4791ZM68.5565 14.5463V26.5251C68.5565 29.0299 67.2499 29.5677 65.395 29.5677V14.5499H68.5565V14.5463Z" fill="white"/>
<path d="M46.8203 21.0845L43.2724 24.6722H46.997V26.0867C46.997 27.0223 46.2425 27.7811 45.3114 27.7811H38.6829C38.0241 27.7811 37.5604 27.549 37.288 27.0923C37.1702 26.8934 37.115 26.665 37.115 26.4366C37.1187 25.9062 37.3764 25.4458 37.8843 25.0553L40.5194 23.103H37.4389C37.2439 23.103 37.0819 23.0404 36.9531 22.9225C36.8243 22.8047 36.7617 22.6536 36.7617 22.4768C36.7617 22.3 36.8316 22.1416 36.9678 22.0053L40.5194 18.4213H36.7912V16.5574C36.8206 15.8649 37.3984 15.3124 38.1014 15.3124H46.3492C46.548 15.3124 46.7062 15.3676 46.8351 15.4892C46.9639 15.6107 47.0264 15.7544 47.0264 15.9312C47.0264 16.108 46.9602 16.2664 46.8203 16.4064L43.2724 19.9905H46.3492C46.548 19.9905 46.7062 20.0494 46.8351 20.1673C46.9639 20.2888 47.0264 20.4362 47.0264 20.613C47.0264 20.7898 46.9602 20.9482 46.8203 21.0845Z" fill="white"/>
<path d="M58.4248 14.5684C55.8485 14.5684 53.7617 16.6569 53.7617 19.2354C53.7617 21.8139 55.8485 23.9024 58.4248 23.9024C61.0011 23.9024 63.0879 21.8139 63.0879 19.2354C63.0879 16.6569 61.0011 14.5684 58.4248 14.5684ZM58.4248 21.2466C57.3133 21.2466 56.4153 20.3441 56.4153 19.2354C56.4153 18.1266 57.317 17.2242 58.4248 17.2242C59.5326 17.2242 60.4343 18.1266 60.4343 19.2354C60.4343 20.3441 59.5326 21.2466 58.4248 21.2466Z" fill="white"/>
<path d="M26.4413 30.0723V26.8529H19.8828V24.0681H35.9663V26.8529H29.7795V30.0723H26.4377H26.4413ZM20.8728 34.6325V28.109H24.2147V31.6599H32.4625C34.2144 31.6599 34.8143 31.1847 35.1639 30.5659V33.8074C34.7922 34.3857 34.0709 34.6325 32.503 34.6325H20.8728ZM34.3174 22.952H21.5132V14.5941H24.7704V16.2443H31.0603V14.5941H34.3174V22.952ZM31.0603 20.2667V18.8854H24.7704V20.2667H31.0603Z" fill="white"/>
<path d="M20.6288 7.5144L7.47495 12.0783C6.16472 12.5314 5.4728 13.9606 5.92917 15.2756C6.13159 15.8686 6.53644 16.3364 7.04066 16.6274C7.65161 16.9811 8.40242 17.0768 9.1201 16.8264C9.1201 16.8264 9.4955 16.6937 9.54335 16.6753L0 33.2254L4.35027 40.7619C5.04219 41.9664 6.57692 42.379 7.77674 41.6828C8.97656 40.9903 9.38877 39.4542 8.69685 38.2534L5.80035 33.2291L20.6288 7.5144Z" fill="white"/>
<path d="M42.9901 35.2182L41.2346 38.2608H11.5703L22.0963 47.3848C23.1453 48.291 24.7278 48.1768 25.6369 47.127C26.0491 46.6518 26.2479 46.0661 26.2479 45.4841C26.2479 44.7806 25.9534 44.0807 25.383 43.5834C25.383 43.5834 25.0775 43.3219 25.037 43.2851H44.1274L48.4776 35.7486C48.577 35.5755 48.6469 35.3987 48.7021 35.2145H42.9901V35.2182Z" fill="white"/>
<path d="M31.2288 10.8664H37.0255L30.7577 0H22.0608C20.6733 0 19.5508 1.12347 19.5508 2.51216C19.5508 3.90085 20.6696 5.02064 22.0608 5.02064H27.8575L31.2288 10.8664Z" fill="white"/>
<path d="M41.0528 9.82399H43.3273C44.1296 9.82399 44.5676 10.1076 44.5676 10.8591C44.5676 11.6105 44.1296 11.8941 43.3273 11.8941H41.0528C40.2505 11.8941 39.8125 11.6105 39.8125 10.8591C39.8125 10.1076 40.2505 9.82399 41.0528 9.82399ZM40.4087 7.17554H41.4429V7.70228C41.4429 8.46845 41.6822 8.64526 41.9876 8.68578V9.51457C41.5239 9.43354 41.1154 9.24936 40.9277 8.82207C40.74 9.25305 40.3314 9.48511 39.8677 9.56614V8.73735C40.1732 8.69683 40.4124 8.46845 40.4124 7.70228V7.17554H40.4087ZM43.331 11.1206C43.4966 11.1206 43.5886 11.0285 43.5886 10.8627C43.5886 10.697 43.4966 10.6049 43.331 10.6049H41.0565C40.8909 10.6049 40.7989 10.697 40.7989 10.8627C40.7989 11.0285 40.8909 11.1206 41.0565 11.1206H43.331ZM43.5886 8.76314H43.1838V9.51457H42.2526V7.17554H43.1838V7.93803H43.5886V7.17554H44.5198V9.51457H43.5886V8.76314Z" fill="white"/>
<path d="M46.2217 7.99328H47.0608C47.7601 7.99328 48.095 8.17377 48.095 8.64158C48.095 9.10939 47.7859 9.27883 47.1418 9.29357V9.47037H48.6508V7.17922H49.6335V8.13694H50.1487V8.96573H49.6335V10.0045H45.239V9.47037H46.1591V9.29357C45.504 9.28251 45.1875 9.09834 45.1875 8.64158C45.1875 8.18482 45.5224 7.99328 46.2217 7.99328ZM45.9641 10.8149H48.5772C48.6508 10.8149 48.706 10.7891 48.706 10.7338C48.706 10.6823 48.6508 10.6602 48.5772 10.6602H45.2427V10.1334H48.9121C49.3758 10.1334 49.6887 10.2992 49.6887 10.6602C49.6887 11.0211 49.3795 11.2127 48.9121 11.2127H46.3027C46.2291 11.2127 46.1739 11.2348 46.1739 11.29C46.1739 11.3416 46.2291 11.3637 46.3027 11.3637H49.6371V11.8978H45.9678C45.504 11.8978 45.1912 11.71 45.1912 11.349C45.1912 10.988 45.5003 10.8149 45.9678 10.8149H45.9641ZM45.2427 7.83489V7.24553H46.1628V7.0282H47.1455V7.24553H48.0435V7.83489H45.2427ZM46.9283 8.72999C47.0424 8.72999 47.116 8.71525 47.116 8.64158C47.116 8.57528 47.0424 8.56054 46.9283 8.56054H46.3579C46.2438 8.56054 46.1702 8.57528 46.1702 8.64158C46.1702 8.71525 46.2438 8.72999 46.3579 8.72999H46.9283Z" fill="white"/>
<path d="M52.9839 7.95278H52.7778V11.1206H52.9987V11.8978H50.6211V11.1206H50.8014V7.95278H50.6211V7.17556H52.9839V7.95278ZM51.924 11.1206V7.95278H51.6553V11.1206H51.924ZM53.2673 10.7007H52.9471V9.8719H53.2673V9.19781H52.9471V8.36902H53.2673V7.17188H54.1469V11.8905H53.2673V10.697V10.7007ZM54.3935 7.17556H55.2732V11.8942H54.3935V7.17556Z" fill="white"/>
<path d="M55.9959 10.9659C56.8939 10.8848 57.8692 10.1334 57.8692 9.24199V8.00433H56.0474V7.17554H58.8482V9.24199C58.8482 10.7486 57.6189 11.7431 55.9922 11.8978V10.9659H55.9959ZM59.6137 7.17554H60.5964V11.8941H59.6137V7.17554Z" fill="white"/>
<path d="M62.05 10.6675H65.0238C65.0974 10.6675 65.1526 10.6417 65.1526 10.5791C65.1526 10.5165 65.0974 10.4981 65.0238 10.4981H61.325V9.89766H63.213V9.66928H61.325V8.9952H66.0838V9.66928H64.1957V9.89766H65.3587C65.8224 9.89766 66.1353 10.0855 66.1353 10.4981C66.1353 10.9106 65.8261 11.1243 65.3587 11.1243H62.3849C62.3113 11.1243 62.2561 11.1464 62.2561 11.2053C62.2561 11.2642 62.3113 11.2937 62.3849 11.2937H66.0838V11.8941H62.05C61.5863 11.8941 61.2734 11.6879 61.2734 11.2716C61.2734 10.8554 61.5826 10.6675 62.05 10.6675ZM62.1531 8.79997C61.6452 8.79997 61.3765 8.53107 61.3765 8.02275V7.17554H66.0801V8.79997H62.1494H62.1531ZM65.1011 7.84962H62.3592V8.02643C62.3592 8.10379 62.3849 8.12957 62.4622 8.12957H65.0974V7.84962H65.1011Z" fill="white"/>
<path d="M71.6667 7.56597V7.1792H72.6494V9.30091H68.6672C68.1593 9.30091 67.8906 9.03201 67.8906 8.52369V7.1792H68.8733V7.56597H71.6667ZM69.7787 10.3323H67.8906V9.55507H72.6494V10.3323H70.7614V10.848H69.7787V10.3323ZM72.6494 11.8941H68.8218C68.2623 11.8941 67.8906 11.5221 67.8906 10.9622V10.6159H68.8733V10.9106C68.8733 11.0358 68.9543 11.1169 69.0794 11.1169H72.6457V11.8941H72.6494ZM71.6667 8.23637H68.8733V8.39108C68.8733 8.49422 68.9248 8.54579 69.0279 8.54579H71.6631V8.23637H71.6667Z" fill="white"/>
<path d="M76.9387 7.17556H77.9214V11.8942H74.5795C73.7882 11.8942 73.2656 11.3416 73.2656 10.5018C73.2656 9.66194 73.7662 9.10941 74.528 9.10941H74.7709C75.0801 9.10941 75.2862 8.87735 75.2862 8.5311C75.2862 8.18484 75.058 7.95278 74.7157 7.95278H73.365V7.17556H74.9476C75.7389 7.17556 76.2652 7.72809 76.2652 8.56793C76.2652 9.34515 75.7573 9.85716 74.9991 9.85716H74.7599C74.4507 9.85716 74.2446 10.1113 74.2446 10.487C74.2446 10.8628 74.4728 11.1169 74.8151 11.1169H76.935V7.17188L76.9387 7.17556Z" fill="white"/>
<path d="M79.6304 11.8941C79.0709 11.8941 78.6992 11.5221 78.6992 10.9622V7.17554H79.5788V8.78155H79.9506V7.17554H80.8302V11.8941H79.6304ZM79.9506 9.52931H79.5788V11.0138C79.5788 11.0874 79.6083 11.1169 79.6819 11.1169H79.9506V9.52931ZM82.4201 9.79821H82.0705V11.8941H81.1393V7.17554H82.0705V8.96941H82.4201V7.17554H83.3513V11.8941H82.4201V9.79821Z" fill="white"/>
<path d="M84.7492 10.6639H87.723C87.7966 10.6639 87.8518 10.6381 87.8518 10.5755C87.8518 10.5202 87.7966 10.4981 87.723 10.4981H84.0242V9.91979H85.9122V9.70246H84.0242V9.12415H88.783V9.70246H86.8949V9.91979H88.0579C88.5217 9.91979 88.8345 10.1261 88.8345 10.5239C88.8345 10.9217 88.5253 11.1501 88.0579 11.1501H85.0841C85.0105 11.1501 84.9553 11.1722 84.9553 11.2311C84.9553 11.2864 85.0105 11.3122 85.0841 11.3122H88.783V11.8905H84.7492C84.2855 11.8905 83.9727 11.6621 83.9727 11.2643C83.9727 10.8665 84.2818 10.6602 84.7492 10.6602V10.6639ZM87.0642 8.05592C87.3439 8.31009 88.0064 8.38376 88.7793 8.39112V9.03942C87.6936 9.03574 86.7955 8.85156 86.4017 8.45006C86.0079 8.85525 85.1099 9.03574 84.0242 9.03942V8.39112C84.8008 8.38007 85.4632 8.31009 85.7393 8.05592H84.0242V7.43341H85.8865V7.02454H86.9207V7.43341H88.783V8.05592H87.0679H87.0642Z" fill="white"/>
<path d="M95.3486 8.68578V9.46301H91.521C90.9616 9.46301 90.5898 9.09097 90.5898 8.53107V7.17554H91.5725V8.4795C91.5725 8.60474 91.6535 8.68578 91.7786 8.68578H95.345H95.3486ZM92.4779 10.7044H90.5898V9.92713H95.3486V10.7044H93.4606V11.8941H92.4779V10.7044Z" fill="white"/>
<path d="M99.6418 7.17556H100.624V11.8942H97.2827C96.4914 11.8942 95.9688 11.3416 95.9688 10.5018C95.9688 9.66194 96.4693 9.10941 97.2311 9.10941H97.474C97.7832 9.10941 97.9893 8.87735 97.9893 8.5311C97.9893 8.18484 97.7611 7.95278 97.4188 7.95278H96.0681V7.17556H97.6507C98.442 7.17556 98.9683 7.72809 98.9683 8.56793C98.9683 9.34515 98.4604 9.85716 97.7022 9.85716H97.463C97.1538 9.85716 96.9441 10.1113 96.9441 10.487C96.9441 10.8628 97.1723 11.1169 97.5145 11.1169H99.6345V7.17188L99.6418 7.17556Z" fill="white"/>
<path d="M104.452 7.95278H103.484C103.565 8.46479 103.996 8.65265 104.452 8.6858V9.5146C103.882 9.45934 103.293 9.24938 102.955 8.77052C102.612 9.25307 102.023 9.51091 101.457 9.56617V8.73737C101.917 8.70054 102.34 8.47216 102.425 7.9491H101.457V7.17188H104.456V7.9491L104.452 7.95278ZM105.019 10.104V9.82401H106.002V11.8942H102.174C101.718 11.8942 101.449 11.6253 101.449 11.1685V9.82401H102.432V10.104H105.016H105.019ZM105.019 10.8038H102.436V10.9917C102.436 11.0948 102.487 11.1464 102.59 11.1464H105.019V10.8038ZM105.019 7.17556H106.002V9.5146H105.019V7.17556Z" fill="white"/>
</g>
<defs>
<clipPath id="clip0_1637_9652">
<rect width="106" height="48" fill="white"/>
</clipPath>
</defs>
</svg>
