<svg width="111" height="32" viewBox="0 0 111 32" fill="none" xmlns="http://www.w3.org/2000/svg">
<g clip-path="url(#clip0_1637_9764)">
<mask id="mask0_1637_9764" style="mask-type:luminance" maskUnits="userSpaceOnUse" x="0" y="0" width="111" height="32">
<path d="M111 0H0V32H111V0Z" fill="white"/>
</mask>
<g mask="url(#mask0_1637_9764)">
<path d="M0 10.7164H6.565C13.2937 10.7164 13.7532 15.104 13.7532 17.8545C13.7532 20.3104 12.704 22.799 10.471 23.5191L14.8357 31.6728H8.36992L5.383 23.3558V31.6728H0V10.7164ZM6.40012 20.3762C7.77907 20.3762 8.30367 19.7542 8.30367 18.0842C8.30367 16.2506 7.71282 15.7267 6.40012 15.7267H5.3827V20.3762H6.40012Z" fill="white"/>
<path d="M15.3945 23.323C15.3945 19.5574 16.4437 14.6459 22.1886 14.6459C27.8338 14.6459 28.8513 19.5574 28.8513 23.323C28.8513 27.1866 27.8338 31.9997 22.1229 31.9997C16.3793 31.9997 15.3945 27.1211 15.3945 23.323ZM24.028 23.323C24.028 20.4089 23.2396 19.5574 22.1898 19.5574C21.1067 19.5574 20.2862 20.376 20.2862 23.323C20.2862 26.3025 21.1397 27.1211 22.1241 27.1211C23.2075 27.1211 24.028 26.3677 24.028 23.323Z" fill="white"/>
<path d="M30.7539 24.6983V14.973H36.0056V24.5344C36.0056 26.7284 36.4652 27.1543 37.2197 27.1543C38.0078 27.1543 38.5986 26.7284 38.5986 24.5344V14.973H43.8503V31.6728H40.7327L40.0762 29.8061C39.0914 31.2144 37.7788 32 36.1705 32C31.1487 32 30.7548 28.5291 30.7548 24.6983" fill="white"/>
<path d="M47.2272 26.5319V19.8523H45.0938V16.3161L47.2272 15.0059V10.7164H52.4786V14.973H55.4326V19.8523H52.6099V25.3207C52.6099 26.6629 52.9049 26.9904 54.1525 26.9904C54.5123 26.9904 54.9403 26.9581 55.4326 26.9249V31.7706C54.8747 31.8032 54.3165 31.8358 53.824 31.8358C48.5072 31.8358 47.2272 29.9039 47.2272 26.5313" fill="white"/>
<path d="M56.582 10.1925C56.582 7.63847 57.6981 7.1145 59.7986 7.1145C61.8991 7.1145 62.9822 7.63847 62.9822 10.1925C62.9822 12.6484 61.8991 13.3028 59.7986 13.3028C57.6981 13.3028 56.582 12.6807 56.582 10.1925ZM57.1729 14.973H62.4243V31.6729H57.1729V14.973Z" fill="white"/>
<path d="M64.6875 14.973H67.8714L68.5276 16.8066C68.9618 16.1569 69.5466 15.6212 70.2324 15.245C70.9183 14.8688 71.685 14.6632 72.4675 14.6455C77.4578 14.6455 77.8175 18.2149 77.8175 22.1111V31.6728H72.5658V22.1766C72.5658 20.0155 72.2378 19.59 71.3187 19.59C70.3996 19.59 70.0054 20.0484 70.0054 22.1766V31.6728H64.6875V14.973Z" fill="white"/>
<path d="M79.6887 23.2885C79.6887 19.4904 80.6078 14.6455 86.68 14.6455C93.1784 14.6455 93.31 20.3756 93.31 24.5996H84.6766C84.7093 27.0555 85.1688 28.1683 86.5805 28.1683C87.335 28.1683 88.0898 27.7757 88.2541 26.1048H93.3088C92.9146 29.8045 91.0111 31.9988 86.7771 31.9988C80.5739 31.9988 79.6875 27.0872 79.6875 23.2888M88.1555 21.4878C88.0907 19.0986 87.6647 18.4436 86.4501 18.4436C85.2684 18.4436 84.7761 19.2951 84.6778 21.4887L88.1555 21.4878Z" fill="white"/>
<path d="M105.879 5.04284H97.707V0H110.998V4.91185L104.567 20.9564H98.7901L105.879 5.04284Z" fill="white"/>
</g>
</g>
<defs>
<clipPath id="clip0_1637_9764">
<rect width="111" height="32" fill="white"/>
</clipPath>
</defs>
</svg>
