<svg width="307" height="48" viewBox="0 0 307 48" fill="none" xmlns="http://www.w3.org/2000/svg">
<g clip-path="url(#clip0_1637_7992)">
<path d="M58.4828 31.2361H59.6004V33.7489L61.7054 31.2361H63.1722L60.9395 33.7417L63.2854 37.3229H61.8259L60.1471 34.6654L59.598 35.2875V37.3229H58.4805V31.2385L58.4828 31.2361Z" fill="white"/>
<path d="M75.8542 37.3219H74.7266V31.2375H75.8542V37.3219Z" fill="white"/>
<path d="M76.9023 31.2375H78.0875L80.2506 35.477V31.2375H81.3029V37.3219H80.1731L77.9547 33.0003V37.3219H76.9023V31.2375Z" fill="white"/>
<path d="M67.9322 36.8488C67.5517 37.3118 66.9014 37.5071 66.1837 37.5071C65.4659 37.5071 64.8349 37.3504 64.4544 36.8874C63.9461 36.3206 63.8281 35.3874 63.8281 34.3215C63.8281 33.2556 63.91 32.315 64.4182 31.77C64.7964 31.307 65.4659 31.0731 66.1813 31.0731C66.8966 31.0731 67.5878 31.3263 67.9636 31.7869C68.4693 32.3319 68.5223 33.2194 68.5223 34.3094C68.5223 35.3994 68.4332 36.2821 67.9274 36.8488H67.9322ZM67.2603 35.9999C67.5035 35.6213 67.4722 35.0425 67.4722 34.3432C67.4722 33.6438 67.4842 33.0192 67.241 32.6382C66.9953 32.2572 66.5883 32.1294 66.1716 32.1294C65.7549 32.1294 65.3407 32.2572 65.0926 32.6382C64.8445 33.0192 64.8541 33.6004 64.8541 34.3022C64.8541 35.004 64.8806 35.6623 65.1287 36.0433C65.3768 36.4244 65.7549 36.516 66.1716 36.516C66.5883 36.516 67.0146 36.3833 67.2603 35.9999Z" fill="white"/>
<path d="M70.5753 35.4845C70.609 35.7569 70.6741 35.9596 70.7704 36.0946C70.9486 36.3406 71.2545 36.4636 71.688 36.4636C71.9481 36.4636 72.1577 36.4298 72.319 36.3671C72.6249 36.2417 72.7791 36.0126 72.7791 35.675C72.7791 35.4797 72.7044 35.3253 72.5575 35.2192C72.4082 35.1131 72.1721 35.0214 71.8446 34.9395L71.2858 34.7972C70.7366 34.6549 70.3585 34.503 70.1538 34.3366C69.8069 34.0617 69.6336 33.63 69.6336 33.044C69.6336 32.5086 69.8046 32.0649 70.1418 31.7103C70.4814 31.3559 70.9799 31.1798 71.6374 31.1798C72.1866 31.1798 72.6562 31.3462 73.0416 31.679C73.4293 32.0118 73.6317 32.4941 73.6509 33.1283H72.6249C72.6057 32.7691 72.466 32.5158 72.2083 32.3639C72.0348 32.265 71.8229 32.2144 71.5652 32.2144C71.281 32.2144 71.0546 32.2795 70.8836 32.4097C70.7126 32.5375 70.6282 32.7208 70.6282 32.9523C70.6282 33.1669 70.7126 33.3237 70.8811 33.4298C70.9871 33.4998 71.216 33.5817 71.5652 33.6758L72.466 33.9242C72.8609 34.0327 73.1572 34.1774 73.3547 34.3582C73.6606 34.638 73.8144 35.0456 73.8144 35.5761C73.8144 36.1067 73.6317 36.5745 73.2704 36.9363C72.9067 37.2955 72.3937 37.4765 71.7289 37.4765C71.0642 37.4765 70.5175 37.298 70.1297 36.9459C69.7419 36.5914 69.5469 36.1042 69.5469 35.4845H70.5729H70.5753Z" fill="white"/>
<path d="M85.0781 31.2534H86.526V34.9817C86.526 35.3989 86.5718 35.8571 86.6921 36.0476C86.8633 36.3177 87.236 36.4696 87.8116 36.4696C88.3872 36.4696 88.785 36.2863 88.9296 36.0476C89.0426 35.8571 89.0957 35.4013 89.0957 34.9817V31.2534H90.5429V34.9841C90.5429 35.628 90.5141 36.255 90.2056 36.7108C89.8905 37.1786 88.9894 37.4801 87.8146 37.4801C86.6389 37.4801 85.7475 37.1666 85.4176 36.7108C85.1217 36.3008 85.0803 35.6304 85.0803 34.9841V31.2534H85.0781Z" fill="white"/>
<path d="M91.6992 31.2534H92.9759L95.3072 35.4833V31.2534H96.4415V37.3233H95.2231L92.8335 33.0138V37.3233H91.6992V31.2534Z" fill="white"/>
<path d="M98.7069 37.3233H97.4922V31.2534H98.7069V37.3233Z" fill="white"/>
<path d="M103.278 31.2534H104.545L102.546 37.3233H101.395L99.418 31.2534H100.726L101.997 35.8619L103.281 31.2534H103.278Z" fill="white"/>
<path d="M109.608 32.3337H106.511V33.6215H109.355V34.6729H106.511V36.2332H109.753V37.3257H105.316V31.2606H109.611V32.3361L109.608 32.3337Z" fill="white"/>
<path d="M114.457 31.4101C114.672 31.5066 114.857 31.6464 115.007 31.8346C115.132 31.9889 115.229 32.1578 115.303 32.3458C115.376 32.5339 115.412 32.7462 115.412 32.9849C115.412 33.2719 115.342 33.5565 115.202 33.8362C115.063 34.1159 114.831 34.3113 114.506 34.427C114.778 34.5404 114.968 34.6995 115.079 34.9069C115.193 35.1143 115.248 35.4302 115.248 35.8546V36.2622C115.248 36.5396 115.26 36.7276 115.279 36.8265C115.311 36.9833 115.385 37.0967 115.503 37.1714V37.3233H114.154C114.116 37.1883 114.089 37.0797 114.074 36.9978C114.043 36.8265 114.024 36.6529 114.022 36.4744L114.015 35.9102C114.01 35.5219 113.945 35.2662 113.822 35.136C113.697 35.0082 113.466 34.9431 113.126 34.9431H111.929V37.3233H110.734V31.2534H113.538C113.937 31.263 114.246 31.3137 114.463 31.4101H114.457ZM111.926 32.2976V33.9374H113.246C113.509 33.9374 113.704 33.9061 113.836 33.8386C114.068 33.7228 114.183 33.4938 114.183 33.1537C114.183 32.7847 114.072 32.5339 113.846 32.4085C113.721 32.3362 113.531 32.3 113.28 32.3H111.926V32.2976Z" fill="white"/>
<path d="M123.116 37.3233H121.902V31.2534H123.116V37.3233Z" fill="white"/>
<path d="M128.518 31.2534V32.3289H126.762V37.3257H125.529V32.3289H123.773V31.2534H128.52H128.518Z" fill="white"/>
<path d="M132.571 31.2529H133.956L132 35.0415V37.3229H130.78V35.0463L128.754 31.2505H130.197L131.408 33.8936L132.571 31.2505V31.2529Z" fill="white"/>
<path d="M117.469 35.4789C117.508 35.7539 117.58 35.9612 117.691 36.0987C117.893 36.3495 118.24 36.4725 118.731 36.4725C119.025 36.4725 119.263 36.4412 119.449 36.3737C119.798 36.2458 119.972 36.0119 119.972 35.6695C119.972 35.4669 119.887 35.3149 119.719 35.204C119.55 35.0955 119.28 35.0014 118.909 34.9195L118.274 34.7747C117.647 34.6301 117.219 34.4757 116.988 34.3093C116.593 34.0296 116.395 33.5907 116.395 32.995C116.395 32.4524 116.588 31.999 116.976 31.6397C117.361 31.2803 117.927 31.1019 118.673 31.1019C119.297 31.1019 119.829 31.2707 120.27 31.6084C120.711 31.9484 120.942 32.438 120.962 33.0794H119.798C119.776 32.7152 119.618 32.4572 119.326 32.3029C119.131 32.2016 118.888 32.151 118.596 32.151C118.274 32.151 118.016 32.216 117.823 32.3487C117.63 32.4814 117.534 32.6646 117.534 32.901C117.534 33.118 117.628 33.282 117.821 33.3881C117.944 33.4581 118.202 33.5425 118.596 33.6389L119.62 33.8921C120.068 34.003 120.407 34.1501 120.632 34.3334C120.979 34.618 121.154 35.0328 121.154 35.5729C121.154 36.1132 120.947 36.5883 120.535 36.9548C120.121 37.3214 119.538 37.5047 118.787 37.5047C118.035 37.5047 117.411 37.3238 116.971 36.9644C116.53 36.6027 116.309 36.1083 116.309 35.4789H117.474H117.469Z" fill="white"/>
<path d="M141.591 33.1806C141.506 32.7706 141.3 32.4836 140.967 32.3221C140.784 32.2328 140.579 32.187 140.353 32.187C139.922 32.187 139.565 32.3703 139.288 32.7344C139.009 33.0985 138.872 33.646 138.872 34.3791C138.872 35.1123 139.024 35.638 139.322 35.9442C139.623 36.2505 139.965 36.4024 140.348 36.4024C140.731 36.4024 141.032 36.2818 141.273 36.0407C141.514 35.7995 141.661 35.4836 141.716 35.0929H140.475V34.0921H142.708V37.3116H141.967L141.856 36.5616C141.639 36.8462 141.444 37.0463 141.273 37.1621C140.976 37.3646 140.613 37.466 140.179 37.466C139.469 37.466 138.886 37.191 138.433 36.6412C137.959 36.0889 137.723 35.3317 137.723 34.3694C137.723 33.4072 137.963 32.6187 138.441 32.0327C138.92 31.4466 139.551 31.1524 140.336 31.1524C141.018 31.1524 141.567 31.3477 141.979 31.7336C142.393 32.1219 142.629 32.6042 142.691 33.183H141.588L141.591 33.1806Z" fill="white"/>
<path d="M158.158 34.7071C157.843 35.0013 157.395 35.1484 156.812 35.1484H155.695V37.3092H154.582V31.2995H156.887C157.419 31.2995 157.843 31.4538 158.158 31.765C158.474 32.0736 158.633 32.5536 158.633 33.2047C158.633 33.9137 158.476 34.4153 158.161 34.7071H158.158ZM157.304 32.5366C157.161 32.4017 156.961 32.3365 156.706 32.3365H155.695V34.1139H156.706C156.961 34.1139 157.161 34.0415 157.304 33.8968C157.445 33.7521 157.518 33.523 157.518 33.2095C157.518 32.896 157.445 32.6717 157.304 32.5366Z" fill="white"/>
<path d="M163.496 32.3674H160.657V33.6431H163.263V34.6824H160.657V36.2258H163.626V37.3063H159.559V31.3038H163.494V32.3674H163.496Z" fill="white"/>
<path d="M164.496 31.2995H165.616V36.2288H168.29V37.3092H164.499V31.2995H164.496Z" fill="white"/>
<path d="M171.719 37.3092V31.2995H172.831V33.5929H174.914V31.2995H176.027V37.3092H174.914V34.6275H172.831V37.3092H171.719Z" fill="white"/>
<path d="M191.483 34.7071C191.167 35.0013 190.719 35.1484 190.136 35.1484H189.019V37.3092H187.906V31.2995H190.211C190.744 31.2995 191.165 31.4538 191.483 31.765C191.798 32.0736 191.957 32.5536 191.957 33.2047C191.957 33.9137 191.801 34.4153 191.488 34.7071H191.483ZM190.628 32.5366C190.485 32.4017 190.286 32.3365 190.031 32.3365H189.019V34.1139H190.031C190.286 34.1139 190.485 34.0415 190.628 33.8968C190.77 33.7521 190.84 33.523 190.84 33.2095C190.84 32.896 190.767 32.6717 190.628 32.5366Z" fill="white"/>
<path d="M193.871 37.3091H192.758V31.2995H193.871V37.3091Z" fill="white"/>
<path d="M198.829 31.2995V32.363H197.22V37.3091H196.088V32.363H194.477V31.2995H198.829Z" fill="white"/>
<path d="M200.458 31.2995H201.727L203.62 37.3092H202.404L202.052 36.0745H200.079L199.716 37.3092H198.543L200.458 31.2995ZM200.386 35.0374H201.758L201.082 32.6741L200.386 35.0374Z" fill="white"/>
<path d="M204.309 31.2995H205.428V36.2287H208.102V37.3091H204.311V31.2995H204.309Z" fill="white"/>
<path d="M150.41 35.4268C150.446 35.6993 150.514 35.9043 150.615 36.0394C150.8 36.2854 151.118 36.4083 151.57 36.4083C151.841 36.4083 152.06 36.377 152.228 36.3119C152.548 36.1865 152.708 35.955 152.708 35.6149C152.708 35.4172 152.63 35.2628 152.476 35.1544C152.322 35.0482 152.074 34.9542 151.734 34.8722L151.151 34.7299C150.579 34.5877 150.186 34.4333 149.974 34.2693C149.613 33.9919 149.432 33.5579 149.432 32.9695C149.432 32.4316 149.608 31.9855 149.962 31.6286C150.314 31.2717 150.834 31.0933 151.518 31.0933C152.089 31.0933 152.578 31.2621 152.982 31.5949C153.387 31.9301 153.598 32.4148 153.618 33.0539H152.551C152.532 32.6921 152.384 32.4365 152.117 32.2845C151.936 32.1857 151.715 32.1351 151.448 32.1351C151.151 32.1351 150.916 32.2001 150.737 32.3304C150.562 32.4606 150.472 32.6439 150.472 32.8778C150.472 33.0924 150.559 33.254 150.735 33.3601C150.846 33.43 151.084 33.5145 151.446 33.6085L152.384 33.8593C152.797 33.9679 153.105 34.1125 153.312 34.2958C153.63 34.578 153.791 34.988 153.791 35.5233C153.791 36.0587 153.604 36.5289 153.223 36.8907C152.845 37.2548 152.31 37.4357 151.619 37.4357C150.928 37.4357 150.359 37.2573 149.954 36.9003C149.55 36.5434 149.348 36.0539 149.348 35.4293H150.415L150.41 35.4268Z" fill="white"/>
<path d="M183.69 35.4268C183.724 35.6993 183.794 35.9043 183.895 36.0394C184.081 36.2854 184.398 36.4083 184.849 36.4083C185.118 36.4083 185.338 36.377 185.507 36.3119C185.827 36.1865 185.986 35.955 185.986 35.6149C185.986 35.4172 185.909 35.2628 185.755 35.1544C185.6 35.0482 185.352 34.9542 185.01 34.8722L184.428 34.7299C183.854 34.5877 183.462 34.4333 183.247 34.2693C182.886 33.9919 182.705 33.5579 182.705 32.9695C182.705 32.4316 182.881 31.9855 183.235 31.6286C183.587 31.2717 184.107 31.0933 184.791 31.0933C185.362 31.0933 185.85 31.2621 186.256 31.5949C186.66 31.9301 186.872 32.4148 186.891 33.0539H185.825C185.805 32.6921 185.658 32.4365 185.391 32.2845C185.21 32.1857 184.989 32.1351 184.721 32.1351C184.425 32.1351 184.189 32.2001 184.011 32.3304C183.835 32.4606 183.746 32.6439 183.746 32.8778C183.746 33.0924 183.833 33.254 184.009 33.3601C184.119 33.43 184.358 33.5145 184.719 33.6085L185.658 33.8593C186.07 33.9679 186.378 34.1125 186.586 34.2958C186.906 34.578 187.064 34.988 187.064 35.5233C187.064 36.0587 186.875 36.5289 186.496 36.8907C186.118 37.2548 185.583 37.4357 184.893 37.4357C184.201 37.4357 183.633 37.2573 183.228 36.9003C182.823 36.5434 182.621 36.0539 182.621 35.4293H183.688L183.69 35.4268Z" fill="white"/>
<path d="M147.998 36.8562C147.604 37.312 146.919 37.5049 146.17 37.5049C145.421 37.5049 144.756 37.3506 144.362 36.8948C143.83 36.3329 143.707 35.4117 143.707 34.3602C143.707 33.3088 143.791 32.3779 144.323 31.8401C144.721 31.3843 145.421 31.1553 146.173 31.1553C146.925 31.1553 147.645 31.4036 148.04 31.8594C148.57 32.3996 148.625 33.275 148.625 34.3506C148.625 35.4262 148.531 36.2991 148.001 36.8586L147.998 36.8562ZM147.295 35.9398C147.55 35.5805 147.519 35.0379 147.519 34.3771C147.519 33.7163 147.531 33.1327 147.279 32.771C147.024 32.4117 146.595 32.2911 146.159 32.2911C145.722 32.2911 145.289 32.4117 145.032 32.771C144.771 33.1303 144.781 33.6753 144.781 34.3385C144.781 35.0017 144.81 35.6191 145.07 35.9759C145.328 36.3353 145.725 36.4221 146.161 36.4221C146.597 36.4221 147.045 36.2967 147.3 35.9374L147.295 35.9398Z" fill="white"/>
<path d="M181.312 36.8562C180.917 37.312 180.233 37.5049 179.484 37.5049C178.735 37.5049 178.07 37.3506 177.675 36.8948C177.145 36.3329 177.02 35.4117 177.02 34.3602C177.02 33.3088 177.107 32.3779 177.636 31.8401C178.034 31.3843 178.735 31.1553 179.484 31.1553C180.233 31.1553 180.955 31.4036 181.35 31.8594C181.88 32.3996 181.935 33.275 181.935 34.3506C181.935 35.4262 181.841 36.2991 181.312 36.8586V36.8562ZM180.608 35.9398C180.864 35.5805 180.832 35.0379 180.832 34.3771C180.832 33.7163 180.847 33.1327 180.591 32.771C180.336 32.4117 179.907 32.2911 179.471 32.2911C179.036 32.2911 178.602 32.4117 178.344 32.771C178.084 33.1303 178.094 33.6753 178.094 34.3385C178.094 35.0017 178.123 35.6191 178.383 35.9759C178.641 36.3353 179.036 36.4221 179.471 36.4221C179.907 36.4221 180.355 36.2967 180.611 35.9374L180.608 35.9398Z" fill="white"/>
<path d="M72.9627 26.9445H58.4805V25.102H63.2589V17.6237H65.9299V25.102H72.9603V26.9445H72.9627ZM71.8211 13.4976V25.2757L69.179 25.2226L69.2175 14.6623C69.2175 13.881 68.5239 13.8496 68.389 13.8496H59.3548V12.0072H70.6289C71.9969 12.0072 71.8235 13.4951 71.8235 13.4951L71.8211 13.4976Z" fill="white"/>
<path d="M85.7015 19.7149L84.5887 21.4006C83.7747 21.1088 82.9511 20.5806 82.1127 19.8162C81.2744 19.0517 80.7135 18.3161 80.4265 17.6071C80.1741 18.3523 79.6464 19.1023 78.8369 19.8523C78.0302 20.6047 77.1365 21.198 76.1543 21.6393L74.9883 19.9174C76.4 19.2084 77.4111 18.3161 78.0206 17.2406C78.6206 16.2036 78.9166 14.8531 78.9166 13.1915V11.7808H81.8404V13.1554C81.8404 16.2953 83.1267 18.4825 85.6993 19.7173L85.7015 19.7149Z" fill="white"/>
<path d="M89.7364 28.1288H78.1685C77.3405 28.1288 76.9258 27.7236 76.9258 26.9181V22.9197H79.5973V25.8305C79.5973 26.1223 79.7559 26.2694 80.0784 26.2694H89.7364V28.1288Z" fill="white"/>
<path d="M89.4581 11.9885H86.7852V23.6388H89.4581V11.9885Z" fill="white"/>
<path d="M106.753 28.392H104.398V20.0937H102.705V28.1991H100.431V26.47C100.431 26.47 94.9376 26.5182 94.5398 26.47C93.9767 26.4121 93.5767 26.1999 93.3458 25.8382C93.1458 25.5343 93.0469 25.0544 93.0469 24.4008V12.2514H98.6563V14.0937H95.5538V23.9595C95.5538 24.3213 95.494 24.7554 96.0017 24.7554C97.5677 24.7554 100.332 24.8084 100.332 24.8084L100.433 11.9885H102.707V18.2537H104.401V11.9885H106.756V28.392H106.753Z" fill="white"/>
<path d="M122.168 22.1005H110.629V23.9429H120.296C120.629 23.9429 120.795 24.1286 120.795 24.5047V28.1535H123.235L123.249 23.3641C123.305 22.5225 122.944 22.1005 122.17 22.1005H122.168Z" fill="white"/>
<path d="M123.3 15.6683V11.5976H120.629V21.1763H123.3V17.5108H125.157V15.6683H123.3Z" fill="white"/>
<path d="M141.052 27.157H126.359V25.0445H128.612V17.9183H131.034V25.0445H133.005V17.9183H135.428V25.0445H141.052V27.157ZM139.946 13.7414L139.92 25.3677H137.461V14.8291C137.461 14.4071 137.29 14.1972 136.947 14.1972H127.311V12.3548H138.718C139.602 12.3548 140.011 12.8178 139.946 13.7414Z" fill="white"/>
<path d="M157.907 21.4438H142.738V19.6375H148.996V18.2509H146.19C145.216 18.2509 144.73 17.7951 144.73 16.8835V11.9711H147.401V13.3216H153.258V11.9711H155.93V18.2533H151.647V19.64H157.905V21.4463L157.907 21.4438ZM155.932 23.7951L155.949 28.3916H153.993L154.003 24.972C154.003 24.562 153.824 24.357 153.471 24.357H144.665V22.5508H154.855C155.631 22.5508 155.989 22.9655 155.934 23.7951H155.932ZM153.261 16.4447V15.111H147.404V15.9695C147.404 16.2854 147.57 16.4422 147.902 16.4422H153.263L153.261 16.4447Z" fill="white"/>
<path d="M174.754 19.6543H159.586V21.4076H174.754V19.6543Z" fill="white"/>
<path d="M171.852 22.4077H161.695V27.0934C161.695 27.6192 161.804 27.9978 162.019 28.2244C162.235 28.4511 162.591 28.5669 163.09 28.5669H172.77L172.765 23.4254C172.799 22.7478 172.493 22.4077 171.852 22.4077ZM170.009 26.8113H164.848C164.528 26.8113 164.367 26.6521 164.367 26.3386V24.1633H169.677C169.899 24.1633 170.009 24.2791 170.009 24.5131V26.8113Z" fill="white"/>
<path d="M163.751 17.8112C164.57 18.5129 165.709 18.8626 167.168 18.8626C168.628 18.8626 169.77 18.5057 170.589 17.7919C171.361 17.1263 171.75 16.2244 171.75 15.0909C171.75 13.9575 171.361 13.0508 170.589 12.3706C169.77 11.6689 168.63 11.3192 167.168 11.3192C165.706 11.3192 164.568 11.6689 163.751 12.3706C162.978 13.0483 162.59 13.9551 162.59 15.0909C162.59 16.2268 162.978 17.1311 163.751 17.8112ZM165.716 13.6874C166.075 13.3256 166.559 13.1448 167.168 13.1448C167.778 13.1448 168.262 13.3256 168.621 13.6874C168.982 14.0515 169.16 14.517 169.16 15.0909C169.16 15.6648 168.98 16.1183 168.621 16.4872C168.262 16.8562 167.778 17.0395 167.168 17.0395C166.559 17.0395 166.075 16.8562 165.716 16.4872C165.357 16.1183 165.176 15.6528 165.176 15.0909C165.176 14.529 165.357 14.0491 165.716 13.6874Z" fill="white"/>
<path d="M119.247 12.8006H115.916V11.7057H112.841V12.8006H109.57V14.6431H111.02C110.996 14.6623 110.97 14.6792 110.945 14.7009C110.172 15.3786 109.784 16.2853 109.784 17.4211C109.784 18.557 110.172 19.4614 110.945 20.1414C111.764 20.8432 112.903 21.1928 114.363 21.1928C115.822 21.1928 116.964 20.8359 117.783 20.1221C118.558 19.4541 118.946 18.5546 118.946 17.4211C118.946 16.2877 118.558 15.381 117.783 14.7009C117.759 14.6816 117.732 14.6623 117.708 14.6431H119.25V12.8006H119.247ZM115.815 18.8151C115.456 19.184 114.972 19.3673 114.363 19.3673C113.753 19.3673 113.269 19.184 112.91 18.8151C112.552 18.4461 112.371 17.9806 112.371 17.4211C112.371 16.8617 112.552 16.3793 112.91 16.0176C113.272 15.6559 113.756 15.4726 114.363 15.4726C114.97 15.4726 115.456 15.6535 115.815 16.0176C116.174 16.3793 116.355 16.8472 116.355 17.4211C116.355 17.9951 116.174 18.4485 115.815 18.8151Z" fill="white"/>
<path d="M190.492 21.0584H187.839V19.023H185.416V20.4603H178.694C178.139 20.4603 177.75 20.347 177.523 20.1179C177.297 19.8912 177.184 19.5126 177.184 18.9869V12.1452H179.854V14.4796H182.776V12.1452H185.416V13.7079H187.839V11.9885H190.492V21.0584ZM182.776 18.6203V16.3052H179.854V18.1114C179.854 18.4515 180.026 18.6203 180.369 18.6203H182.776ZM190.36 25.0061C190.36 26.1758 189.951 27.1139 189.132 27.8229C188.313 28.5295 187.169 28.8839 185.698 28.8839C184.226 28.8839 183.094 28.5295 182.27 27.8229C181.446 27.1139 181.034 26.1758 181.034 25.0061C181.034 23.8366 181.446 22.8791 182.27 22.1725C183.094 21.4635 184.238 21.1114 185.698 21.1114C187.157 21.1114 188.313 21.466 189.132 22.1725C189.951 22.8791 190.36 23.8245 190.36 25.0061ZM187.771 25.0061C187.771 24.4081 187.583 23.933 187.208 23.5761C186.832 23.2192 186.329 23.0407 185.698 23.0407C185.067 23.0407 184.58 23.2192 184.204 23.5761C183.828 23.933 183.64 24.4081 183.64 25.0061C183.64 25.6042 183.828 26.06 184.204 26.4169C184.58 26.7739 185.079 26.9523 185.698 26.9523C186.316 26.9523 186.832 26.7739 187.208 26.4169C187.583 26.06 187.771 25.5897 187.771 25.0061ZM187.839 17.2336V15.4973H185.416V17.2336H187.839Z" fill="white"/>
<path d="M203.801 20.9137L200.029 20.9427V23.4097H197.389V20.9017H193.688V19.1822L203.81 19.1967L203.799 20.9137H203.801ZM202.934 15.0415C202.934 16.0351 202.589 16.8381 201.905 17.4459C201.176 18.1019 200.147 18.4274 198.818 18.4274C197.488 18.4274 196.472 18.0994 195.73 17.4459C195.034 16.8381 194.685 16.0375 194.685 15.0415C194.685 14.0456 195.031 13.2474 195.73 12.6372C196.472 11.9933 197.5 11.6726 198.818 11.6726C200.135 11.6726 201.176 11.9958 201.905 12.6372C202.592 13.2449 202.934 14.0456 202.934 15.0415ZM208.112 28.3414H197.673C197.221 28.3414 196.901 28.2474 196.72 28.0617C196.537 27.8736 196.445 27.5577 196.445 27.1139V24.044H199.116V26.1662C199.116 26.47 199.266 26.6219 199.564 26.6219H208.11V28.3414H208.112ZM200.412 15.0415C200.412 14.5737 200.267 14.1999 199.981 13.9178C199.692 13.638 199.307 13.4982 198.818 13.4982C198.329 13.4982 197.943 13.638 197.656 13.9178C197.37 14.1999 197.225 14.5737 197.225 15.0415C197.225 15.5094 197.37 15.8832 197.656 16.1653C197.946 16.4451 198.331 16.5874 198.818 16.5874C199.304 16.5874 199.692 16.4475 199.981 16.1653C200.267 15.8856 200.412 15.5094 200.412 15.0415ZM207.433 24.5167H204.762V23.2529H201.807V21.6034H204.762V11.9885H207.433V24.5142V24.5167Z" fill="white"/>
<path fill-rule="evenodd" clip-rule="evenodd" d="M23.9718 40.9703C14.6268 40.9703 7.02075 33.3569 7.02075 24C7.02075 14.6431 14.6268 7.02974 23.9718 7.02974C33.3167 7.02974 40.9179 14.6431 40.9179 24C40.9179 33.3569 33.3167 40.9703 23.9718 40.9703ZM23.9718 0C10.7539 0 0 10.7653 0 24C0 37.2347 10.7539 48 23.9718 48C37.1895 48 47.9434 37.2347 47.9434 24C47.9434 10.7653 37.1895 0 23.9718 0Z" fill="white"/>
<path d="M20.2866 19.6951C19.5881 19.6806 18.9307 19.712 18.3093 19.7795C12.8636 20.3606 10.3516 23.6959 10.3516 23.6959L17.4518 29.1002C21.8883 25.9362 26.3705 27.1685 26.3705 27.1685V25.1501C21.1392 24.1709 17.6734 26.4668 17.6734 26.4668L13.8704 23.556C17.9624 20.3004 22.4687 21.5833 22.4687 21.5833V13.7698L27.1075 17.3341V35.1364C27.1075 36.388 26.58 37.7337 24.8941 37.1718C23.2105 36.6147 22.4687 34.6396 22.4687 33.6509V27.8607C22.4687 27.8607 21.3271 28.0222 20.2842 28.507V32.9057C20.2842 34.5624 20.7033 36.9643 22.9383 38.5343C23.1166 38.6597 23.3069 38.7803 23.5092 38.896C26.0453 40.3237 27.9649 39.224 28.5333 38.4475C29.1667 37.5841 29.2703 36.5737 29.2703 35.8164V16.1741L20.2842 9.23364V19.6951H20.2866ZM32.7674 20.1605C31.462 19.5262 29.7857 19.9627 29.7857 19.9627L34.2872 23.4716C31.6114 23.8092 30.0097 25.0874 30.0097 25.0874V27.1661C34.3064 24.2915 38.7429 24.7039 38.7429 24.7039L32.7699 20.1581L32.7674 20.1605Z" fill="white"/>
<path d="M17.1671 23.168C17.1671 23.057 17.1333 22.9726 17.0658 22.9124C16.9863 22.8376 16.8562 22.8015 16.6779 22.8015C16.4996 22.8015 16.3718 22.8472 16.2947 22.9364C16.2345 23.0088 16.2031 23.1246 16.2031 23.2717V23.6454C16.2031 23.807 16.2345 23.9228 16.2947 23.9952C16.3694 24.0819 16.5019 24.1229 16.6899 24.1229C16.8779 24.1229 16.9984 24.0771 17.0731 23.9927C17.1357 23.9252 17.1646 23.8191 17.1646 23.6816V23.631H16.914V23.7468C16.914 23.8167 16.8923 23.8673 16.8538 23.9083C16.8128 23.9469 16.7598 23.9638 16.6875 23.9638C16.6152 23.9638 16.5622 23.9445 16.5188 23.9059C16.4779 23.8673 16.4562 23.8191 16.4562 23.7612V23.1704C16.4562 23.1101 16.4779 23.0595 16.5188 23.0233C16.5574 22.9847 16.6176 22.9702 16.6875 22.9702C16.7622 22.9702 16.8224 22.9871 16.861 23.0185C16.8948 23.0426 16.914 23.0787 16.914 23.1246V23.2862H17.1646V23.168H17.1671Z" fill="#8A949E"/>
<path d="M18.3705 23.6889C18.3705 23.8167 18.3463 23.9083 18.2981 23.9735C18.2258 24.0723 18.0909 24.1229 17.8982 24.1229C17.7053 24.1229 17.568 24.0723 17.4957 23.9735C17.4499 23.9108 17.4258 23.8143 17.4258 23.6889V23.221C17.4258 23.1005 17.4475 23.0112 17.4957 22.9486C17.568 22.8497 17.703 22.8015 17.8982 22.8015C18.0933 22.8015 18.221 22.8497 18.2981 22.9486C18.3463 23.0136 18.3705 23.1029 18.3705 23.221V23.6889ZM18.1174 23.1535C18.1174 23.1029 18.1005 23.0618 18.0668 23.0281C18.0258 22.9895 17.9704 22.9702 17.9005 22.9702C17.8258 22.9702 17.768 22.9895 17.7295 23.0305C17.6957 23.0643 17.6788 23.1053 17.6788 23.1535V23.7468C17.6788 23.8022 17.6957 23.8481 17.7246 23.8866C17.7656 23.9348 17.821 23.959 17.9005 23.959C17.9801 23.959 18.0403 23.9348 18.0789 23.8866C18.1054 23.8481 18.1199 23.8022 18.1199 23.7395V23.1511L18.1174 23.1535Z" fill="#8A949E"/>
<path d="M18.6274 22.826H19.0154C19.1889 22.826 19.3118 22.8405 19.3913 22.867C19.4781 22.8983 19.5239 22.9538 19.5239 23.031V23.2046C19.5239 23.2745 19.5118 23.3276 19.4877 23.3589C19.4564 23.3975 19.3938 23.4241 19.2997 23.4361C19.3528 23.4554 19.3962 23.4747 19.4275 23.4916C19.4588 23.5133 19.4805 23.535 19.4926 23.5591C19.507 23.5808 19.5143 23.6074 19.5191 23.6411C19.5191 23.6579 19.5239 23.6941 19.5239 23.74V24.1017H19.266V23.6483C19.266 23.6146 19.266 23.5904 19.2588 23.5784C19.2515 23.5591 19.2395 23.5447 19.2155 23.5325C19.1913 23.5205 19.1552 23.5133 19.1022 23.5108C19.0491 23.5036 18.9744 23.5036 18.8781 23.5036V24.1017H18.625V22.826H18.6274ZM18.8805 23.3469H18.9214C19.0154 23.3469 19.078 23.3469 19.1118 23.3469C19.1576 23.3445 19.1938 23.3397 19.2155 23.3372C19.2371 23.33 19.2492 23.3228 19.2564 23.3083C19.2636 23.2987 19.266 23.2818 19.266 23.2553V23.084C19.266 23.0575 19.2612 23.0382 19.254 23.0261C19.2467 23.0141 19.2323 23.0044 19.2082 22.9996C19.1841 22.9924 19.1479 22.9876 19.0949 22.9876C19.0588 22.9876 18.9865 22.9876 18.8805 22.9876V23.3493V23.3469Z" fill="#8A949E"/>
<path d="M20.4293 22.826L20.7474 24.1017H20.4944L20.4124 23.7737H20.0678L19.9883 24.1017H19.7305L20.0485 22.826H20.4293ZM20.1088 23.5977H20.3666L20.2389 23.0527L20.1088 23.5977Z" fill="#8A949E"/>
<path d="M22.2369 22.826V24.1017H21.9838V23.0333L21.7332 24.1017H21.4826L21.2272 23.0333V24.1017H20.9766V22.826H21.4272L21.4971 23.1515L21.6055 23.7906L21.7911 22.826H22.2345H22.2369Z" fill="#8A949E"/>
<path d="M23.2422 22.826H23.6952C23.888 22.826 24.0181 22.8453 24.088 22.8862C24.1555 22.9248 24.1868 22.9899 24.1868 23.0912V23.7882C24.1868 23.9015 24.1531 23.9787 24.0832 24.0269C24.0133 24.0752 23.8808 24.0992 23.6928 24.0992H23.2446V22.8284L23.2422 22.826ZM23.4952 23.9329C23.6157 23.9329 23.6977 23.9329 23.7386 23.9256C23.8013 23.9208 23.8446 23.9112 23.8712 23.8967C23.8977 23.8871 23.9121 23.8605 23.9242 23.8292C23.929 23.805 23.9338 23.7616 23.9338 23.6966V23.1708C23.9338 23.1178 23.929 23.0816 23.9242 23.0623C23.9121 23.0381 23.8952 23.0189 23.8687 23.0068C23.8422 22.9948 23.7988 22.9876 23.7362 22.9851C23.6928 22.9827 23.6109 22.9827 23.4928 22.9827V23.9304L23.4952 23.9329Z" fill="#8A949E"/>
<path d="M24.4727 22.826H25.1642V22.9924H24.7256V23.3637H25.1377V23.5229H24.7256V23.9329H25.1787V24.1017H24.4727V22.826Z" fill="#8A949E"/>
<path d="M26.3455 23.6889C26.3455 23.8167 26.319 23.9083 26.2732 23.9735C26.2009 24.0723 26.0659 24.1229 25.8732 24.1229C25.6803 24.1229 25.543 24.0723 25.4707 23.9735C25.4249 23.9108 25.3984 23.8143 25.3984 23.6889V23.221C25.3984 23.1005 25.4225 23.0112 25.4707 22.9486C25.5406 22.8497 25.6755 22.8015 25.8732 22.8015C26.0707 22.8015 26.1985 22.8497 26.2732 22.9486C26.3214 23.0136 26.3455 23.1029 26.3455 23.221V23.6889ZM26.0924 23.1535C26.0924 23.1029 26.0756 23.0618 26.0394 23.0281C26.0009 22.9895 25.9431 22.9702 25.8732 22.9702C25.8033 22.9702 25.7406 22.9895 25.6997 23.0305C25.6683 23.0643 25.6514 23.1053 25.6514 23.1535V23.7468C25.6514 23.8022 25.6659 23.8481 25.6972 23.8866C25.7358 23.9348 25.7936 23.959 25.8707 23.959C25.9527 23.959 26.013 23.9348 26.049 23.8866C26.0756 23.8481 26.0901 23.8022 26.0901 23.7395V23.1511L26.0924 23.1535Z" fill="#8A949E"/>
<path d="M17.1671 23.168C17.1671 23.057 17.1333 22.9726 17.0658 22.9124C16.9863 22.8376 16.8562 22.8015 16.6779 22.8015C16.4996 22.8015 16.3718 22.8472 16.2947 22.9364C16.2345 23.0088 16.2031 23.1246 16.2031 23.2717V23.6454C16.2031 23.807 16.2345 23.9228 16.2947 23.9952C16.3694 24.0819 16.5019 24.1229 16.6899 24.1229C16.8779 24.1229 16.9984 24.0771 17.0731 23.9927C17.1357 23.9252 17.1646 23.8191 17.1646 23.6816V23.631H16.914V23.7468C16.914 23.8167 16.8923 23.8673 16.8538 23.9083C16.8128 23.9469 16.7598 23.9638 16.6875 23.9638C16.6152 23.9638 16.5622 23.9445 16.5188 23.9059C16.4779 23.8673 16.4562 23.8191 16.4562 23.7612V23.1704C16.4562 23.1101 16.4779 23.0595 16.5188 23.0233C16.5574 22.9847 16.6176 22.9702 16.6875 22.9702C16.7622 22.9702 16.8224 22.9871 16.861 23.0185C16.8948 23.0426 16.914 23.0787 16.914 23.1246V23.2862H17.1646V23.168H17.1671Z" fill="#8A949E"/>
<path d="M18.3705 23.6889C18.3705 23.8167 18.3463 23.9083 18.2981 23.9735C18.2258 24.0723 18.0909 24.1229 17.8982 24.1229C17.7053 24.1229 17.568 24.0723 17.4957 23.9735C17.4499 23.9108 17.4258 23.8143 17.4258 23.6889V23.221C17.4258 23.1005 17.4475 23.0112 17.4957 22.9486C17.568 22.8497 17.703 22.8015 17.8982 22.8015C18.0933 22.8015 18.221 22.8497 18.2981 22.9486C18.3463 23.0136 18.3705 23.1029 18.3705 23.221V23.6889ZM18.1174 23.1535C18.1174 23.1029 18.1005 23.0618 18.0668 23.0281C18.0258 22.9895 17.9704 22.9702 17.9005 22.9702C17.8258 22.9702 17.768 22.9895 17.7295 23.0305C17.6957 23.0643 17.6788 23.1053 17.6788 23.1535V23.7468C17.6788 23.8022 17.6957 23.8481 17.7246 23.8866C17.7656 23.9348 17.821 23.959 17.9005 23.959C17.9801 23.959 18.0403 23.9348 18.0789 23.8866C18.1054 23.8481 18.1199 23.8022 18.1199 23.7395V23.1511L18.1174 23.1535Z" fill="#8A949E"/>
<path d="M18.6274 22.826H19.0154C19.1889 22.826 19.3118 22.8405 19.3913 22.867C19.4781 22.8983 19.5239 22.9538 19.5239 23.031V23.2046C19.5239 23.2745 19.5118 23.3276 19.4877 23.3589C19.4564 23.3975 19.3938 23.4241 19.2997 23.4361C19.3528 23.4554 19.3962 23.4747 19.4275 23.4916C19.4588 23.5133 19.4805 23.535 19.4926 23.5591C19.507 23.5808 19.5143 23.6074 19.5191 23.6411C19.5191 23.6579 19.5239 23.6941 19.5239 23.74V24.1017H19.266V23.6483C19.266 23.6146 19.266 23.5904 19.2588 23.5784C19.2515 23.5591 19.2395 23.5447 19.2155 23.5325C19.1913 23.5205 19.1552 23.5133 19.1022 23.5108C19.0491 23.5036 18.9744 23.5036 18.8781 23.5036V24.1017H18.625V22.826H18.6274ZM18.8805 23.3469H18.9214C19.0154 23.3469 19.078 23.3469 19.1118 23.3469C19.1576 23.3445 19.1938 23.3397 19.2155 23.3372C19.2371 23.33 19.2492 23.3228 19.2564 23.3083C19.2636 23.2987 19.266 23.2818 19.266 23.2553V23.084C19.266 23.0575 19.2612 23.0382 19.254 23.0261C19.2467 23.0141 19.2323 23.0044 19.2082 22.9996C19.1841 22.9924 19.1479 22.9876 19.0949 22.9876C19.0588 22.9876 18.9865 22.9876 18.8805 22.9876V23.3493V23.3469Z" fill="#8A949E"/>
<path d="M20.4293 22.826L20.7474 24.1017H20.4944L20.4124 23.7737H20.0678L19.9883 24.1017H19.7305L20.0485 22.826H20.4293ZM20.1088 23.5977H20.3666L20.2389 23.0527L20.1088 23.5977Z" fill="#8A949E"/>
<path d="M22.2369 22.826V24.1017H21.9838V23.0333L21.7332 24.1017H21.4826L21.2272 23.0333V24.1017H20.9766V22.826H21.4272L21.4971 23.1515L21.6055 23.7906L21.7911 22.826H22.2345H22.2369Z" fill="#8A949E"/>
<path d="M23.2422 22.826H23.6952C23.888 22.826 24.0181 22.8453 24.088 22.8862C24.1555 22.9248 24.1868 22.9899 24.1868 23.0912V23.7882C24.1868 23.9015 24.1531 23.9787 24.0832 24.0269C24.0133 24.0752 23.8808 24.0992 23.6928 24.0992H23.2446V22.8284L23.2422 22.826ZM23.4952 23.9329C23.6157 23.9329 23.6977 23.9329 23.7386 23.9256C23.8013 23.9208 23.8446 23.9112 23.8712 23.8967C23.8977 23.8871 23.9121 23.8605 23.9242 23.8292C23.929 23.805 23.9338 23.7616 23.9338 23.6966V23.1708C23.9338 23.1178 23.929 23.0816 23.9242 23.0623C23.9121 23.0381 23.8952 23.0189 23.8687 23.0068C23.8422 22.9948 23.7988 22.9876 23.7362 22.9851C23.6928 22.9827 23.6109 22.9827 23.4928 22.9827V23.9304L23.4952 23.9329Z" fill="#8A949E"/>
<path d="M24.4727 22.826H25.1642V22.9924H24.7256V23.3637H25.1377V23.5229H24.7256V23.9329H25.1787V24.1017H24.4727V22.826Z" fill="#8A949E"/>
<path d="M26.3455 23.6889C26.3455 23.8167 26.319 23.9083 26.2732 23.9735C26.2009 24.0723 26.0659 24.1229 25.8732 24.1229C25.6803 24.1229 25.543 24.0723 25.4707 23.9735C25.4249 23.9108 25.3984 23.8143 25.3984 23.6889V23.221C25.3984 23.1005 25.4225 23.0112 25.4707 22.9486C25.5406 22.8497 25.6755 22.8015 25.8732 22.8015C26.0707 22.8015 26.1985 22.8497 26.2732 22.9486C26.3214 23.0136 26.3455 23.1029 26.3455 23.221V23.6889ZM26.0924 23.1535C26.0924 23.1029 26.0756 23.0618 26.0394 23.0281C26.0009 22.9895 25.9431 22.9702 25.8732 22.9702C25.8033 22.9702 25.7406 22.9895 25.6997 23.0305C25.6683 23.0643 25.6514 23.1053 25.6514 23.1535V23.7468C25.6514 23.8022 25.6659 23.8481 25.6972 23.8866C25.7358 23.9348 25.7936 23.959 25.8707 23.959C25.9527 23.959 26.013 23.9348 26.049 23.8866C26.0756 23.8481 26.0901 23.8022 26.0901 23.7395V23.1511L26.0924 23.1535Z" fill="#8A949E"/>
<path d="M20.286 19.6953V11.7854L18.3086 10.3384V19.7797C18.93 19.7122 19.5875 19.6809 20.286 19.6953ZM22.4705 13.7701V16.1986L27.1092 19.7195V17.3344L22.4705 13.7701ZM20.286 32.906V28.5073C18.7687 29.1728 18.3086 29.5514 18.3086 29.5587C18.3086 34.7557 20.7484 37.201 22.9402 38.5346C20.7075 36.9646 20.286 34.5627 20.286 32.906Z" fill="#8A949E"/>
<path fill-rule="evenodd" clip-rule="evenodd" d="M4.29012 27.737C3.71659 27.737 3.25391 28.2 3.25391 28.774C3.25391 29.348 3.71659 29.811 4.29012 29.811C4.86365 29.811 5.32633 29.348 5.32633 28.774C5.32633 28.2 4.86365 27.737 4.29012 27.737Z" fill="#8A949E"/>
<path fill-rule="evenodd" clip-rule="evenodd" d="M43.7549 27.636C43.1838 27.636 42.7188 28.0991 42.7188 28.673C42.7188 29.247 43.1815 29.71 43.7549 29.71C44.3285 29.71 44.7912 29.247 44.7912 28.673C44.7912 28.0991 44.3261 27.636 43.7549 27.636Z" fill="#8A949E"/>
<path fill-rule="evenodd" clip-rule="evenodd" d="M0.503906 23.9993C0.503906 36.9568 11.0314 47.4977 23.9723 47.4977C36.9131 47.4977 47.4406 36.9568 47.4406 23.9993C47.4406 11.0419 36.9131 0.503357 23.9723 0.503357C11.0314 0.503357 0.503906 11.0444 0.503906 23.9993ZM1.09158 23.9993C1.09158 11.3675 11.3565 1.09178 23.9723 1.09178C36.588 1.09178 46.8529 11.3675 46.8529 23.9993C46.8529 36.6312 36.5903 46.9093 23.9723 46.9093C11.3542 46.9093 1.09158 36.6312 1.09158 23.9993Z" fill="white"/>
<path fill-rule="evenodd" clip-rule="evenodd" d="M6.27734 24.0001C6.27734 33.7694 14.2157 41.7155 23.9701 41.7155C33.7245 41.7155 41.6629 33.7694 41.6629 24.0001C41.6629 14.2308 33.7245 6.28705 23.9701 6.28705C14.2157 6.28705 6.27734 14.2332 6.27734 24.0001ZM6.69883 24.0001C6.69883 14.4647 14.4469 6.70666 23.9726 6.70666C33.4981 6.70666 41.2463 14.4647 41.2463 24.0001C41.2463 33.5354 33.4981 41.2935 23.9726 41.2935C14.4469 41.2935 6.69642 33.5354 6.69642 24.0001H6.69883Z" fill="white"/>
<path d="M8.2018 39.011L6.24609 36.6935L6.53993 36.4451L7.1854 37.2096L8.38002 36.1991L8.74127 36.626L7.5467 37.6365L8.49559 38.7603L8.2018 39.0087V39.011ZM10.1936 37.0119L8.31257 38.6035L7.96336 38.1742L9.65407 36.7539C9.77938 36.6477 9.69024 36.532 9.67097 36.5127L8.44984 35.0657L8.7437 34.8173L10.2659 36.6212C10.4513 36.8406 10.1888 37.0119 10.1888 37.0119H10.1936Z" fill="#8A949E"/>
<path d="M11.9706 40.3671L11.5706 40.507C11.4718 40.355 11.4019 40.1621 11.3585 39.9282C11.3176 39.6943 11.3176 39.5014 11.3585 39.347C11.2235 39.4387 11.0405 39.4965 10.8091 39.5182C10.5802 39.5399 10.356 39.5254 10.1367 39.4748L10.1609 39.0407C10.4862 39.1034 10.7681 39.0817 11.0043 38.9828C11.2356 38.8864 11.4573 38.6983 11.667 38.4234L11.8453 38.1894L12.3321 38.5609L12.1586 38.7899C11.7586 39.3133 11.6959 39.839 11.9682 40.3719L11.9706 40.3671Z" fill="#8A949E"/>
<path d="M11.5756 42.2792L9.6502 40.8082C9.51279 40.702 9.49352 40.5838 9.59714 40.4488L10.1032 39.7832L10.549 40.1232L10.1803 40.608C10.1442 40.6562 10.1514 40.702 10.2044 40.7406L11.8117 41.9681L11.5756 42.2768V42.2792Z" fill="#8A949E"/>
<path d="M13.1309 39.2192L11.6523 41.157L12.0965 41.4967L13.5751 39.559L13.1309 39.2192Z" fill="#8A949E"/>
<path d="M15.9048 44.6567L15.4665 44.4324L16.2541 42.8866L15.9385 42.725L15.1679 44.2346L14.744 44.0176L14.9077 43.6944C14.9077 43.6944 13.8793 43.1808 13.8094 43.1325C13.7107 43.0674 13.6553 42.9902 13.6457 42.901C13.6385 42.8262 13.665 42.7274 13.7275 42.6044L14.8812 40.3399L15.9265 40.8729L15.7507 41.2154L15.1726 40.9211L14.2358 42.7587C14.2021 42.8262 14.1491 42.901 14.2429 42.9493C14.5344 43.0988 15.045 43.3713 15.045 43.3713L16.2829 40.9911L16.7068 41.2081L16.1119 42.3753L16.4275 42.5369L17.0224 41.3697L17.4607 41.594L15.9024 44.6519L15.9048 44.6567Z" fill="#8A949E"/>
<path d="M26.0359 45.8666L22.9618 45.9076L22.957 45.4663L23.4292 45.4591L23.4099 43.9663L23.9183 43.959L23.9376 45.4518L24.3495 45.447L24.3303 43.9542L24.8362 43.947L24.8554 45.4398L26.0335 45.4253L26.0383 45.8666H26.0359ZM25.7685 43.0619L25.795 45.4952L25.2795 45.5025L25.2505 43.2982C25.2505 43.209 25.212 43.1656 25.1421 43.1681L23.1257 43.1946L23.1209 42.8087L25.5083 42.7774C25.6938 42.7774 25.7805 42.8714 25.771 43.0644L25.7685 43.0619Z" fill="#8A949E"/>
<path d="M30.2595 43.6158L27.2095 44.4936L27.1035 44.1295L28.3635 43.7678L28.284 43.488L27.7203 43.6496C27.5251 43.705 27.3998 43.6423 27.3468 43.4591L27.0625 42.4703L27.5998 42.316L27.6769 42.5885L28.8549 42.2485L28.7779 41.9784L29.3151 41.824L29.6789 43.0877L28.8164 43.3361L28.8959 43.6158L30.1559 43.2541L30.2595 43.6183V43.6158ZM29.9993 44.2019L30.2667 45.1255L29.874 45.2388L29.6789 44.5491C29.6548 44.4671 29.6066 44.4358 29.5367 44.4575L27.766 44.9663L27.6624 44.6022L29.7126 44.0138C29.8692 43.9679 29.9656 44.0306 30.0017 44.2019H29.9993ZM29.0356 42.8779L28.9585 42.6102L27.7805 42.9503L27.831 43.1215C27.8479 43.1842 27.8913 43.2083 27.9587 43.189L29.0381 42.8803L29.0356 42.8779Z" fill="#8A949E"/>
<path d="M34.0261 41.3308L31.2656 42.9027L31.4467 43.2212L34.2073 41.6494L34.0261 41.3308Z" fill="#8A949E"/>
<path d="M33.7819 42.1322L31.9336 43.186L32.418 44.0397C32.4734 44.1338 32.5312 44.1917 32.5939 44.2109C32.6565 44.2302 32.7336 44.2109 32.8252 44.1627L34.5868 43.1595L34.0543 42.2262C33.9892 42.0984 33.9 42.0695 33.7819 42.1345V42.1322ZM33.9024 43.1233L32.9626 43.6587C32.9048 43.6925 32.8589 43.6804 32.8252 43.6225L32.5987 43.227L33.565 42.6772C33.606 42.6531 33.6373 42.6627 33.6614 42.7061L33.9 43.1233H33.9024Z" fill="#8A949E"/>
<path d="M31.8332 42.1381C32.0549 42.1815 32.2983 42.126 32.5658 41.9741C32.8309 41.8222 33.0019 41.6389 33.0766 41.4242C33.149 41.2241 33.1249 41.0191 33.0092 40.8117C32.8911 40.6043 32.7273 40.4813 32.5176 40.4379C32.2959 40.3945 32.0525 40.4499 31.7874 40.5995C31.5224 40.7514 31.3512 40.9322 31.2741 41.1445C31.2042 41.347 31.2259 41.552 31.344 41.7595C31.4621 41.9668 31.626 42.0898 31.8356 42.1333L31.8332 42.1381ZM31.7633 41.1854C31.7922 41.0818 31.8621 40.9998 31.9705 40.9347C32.0814 40.872 32.1874 40.8551 32.291 40.884C32.3947 40.913 32.4742 40.9781 32.5344 41.0842C32.5923 41.1854 32.6092 41.2892 32.5803 41.3929C32.5538 41.4966 32.4839 41.581 32.373 41.6437C32.2621 41.7064 32.1561 41.7233 32.0525 41.6943C31.9488 41.6654 31.8669 41.6002 31.8091 41.4966C31.7489 41.3929 31.7344 41.2892 31.7633 41.1854Z" fill="#8A949E"/>
<path d="M20.9153 44.6139L18.5681 44.0423L18.4766 44.4161L20.443 44.896C20.5104 44.9129 20.5346 44.9587 20.5177 45.0335L20.3369 45.7762L20.8334 45.8968L21.0743 44.9225C21.1274 44.7537 21.0743 44.6501 20.9177 44.6114L20.9153 44.6139Z" fill="#8A949E"/>
<path d="M21.4615 43.3623L21.6639 42.535L21.1193 42.4024L20.6445 44.3485L21.1892 44.4812L21.3699 43.736L21.7483 43.8276L21.8398 43.4539L21.4615 43.3623Z" fill="#8A949E"/>
<path d="M20.7817 42.5787L20.1046 42.4123L20.1576 42.1904L19.5311 42.0361L19.478 42.258L18.8129 42.0964L18.7213 42.4702L19.0154 42.5425C19.0154 42.5425 19.0033 42.5474 18.9985 42.5497C18.8081 42.6486 18.6828 42.815 18.6274 43.0441C18.572 43.2757 18.6057 43.4782 18.7286 43.6543C18.8611 43.8375 19.0756 43.9654 19.372 44.0377C19.6684 44.11 19.919 44.0956 20.1214 43.9894C20.3118 43.893 20.4347 43.729 20.4926 43.4975C20.548 43.266 20.5143 43.0634 20.3913 42.8874C20.3865 42.8826 20.3817 42.8777 20.3793 42.8729L20.6926 42.9501L20.7842 42.5763L20.7817 42.5787ZM19.7841 43.6301C19.6925 43.688 19.584 43.7 19.4612 43.6712C19.3383 43.6398 19.2491 43.5795 19.1937 43.4855C19.1382 43.3938 19.1262 43.2901 19.1527 43.1743C19.1816 43.0586 19.2418 42.9718 19.3334 42.9139C19.425 42.8584 19.5335 42.8464 19.6564 42.8753C19.7792 42.9043 19.8684 42.967 19.9238 43.0586C19.9792 43.1503 19.9913 43.2539 19.9648 43.3697C19.9383 43.483 19.8781 43.5699 19.7865 43.6253L19.7841 43.6301Z" fill="#8A949E"/>
<path d="M37.5662 39.3586L37.1351 39.7107L36.8677 39.3803L36.4752 39.7011L36.6654 39.9349L35.5744 40.8224C35.4829 40.8948 35.4058 40.9285 35.3383 40.9213C35.2709 40.914 35.2035 40.8682 35.1336 40.7814L34.2305 39.6697L34.664 39.3176L34.9723 39.6962L35.4467 39.3103L35.1385 38.9317L35.5672 38.5845L35.7719 38.8377L36.1645 38.5169L35.9381 38.2372L36.3692 37.8851L37.5662 39.3586ZM35.9911 39.9831L35.6852 39.607L35.2107 39.9928L35.4492 40.287C35.4949 40.3425 35.543 40.3474 35.6009 40.3015L35.9911 39.9831ZM38.0648 40.017C38.2189 40.2075 38.2767 40.4124 38.2358 40.6367C38.1973 40.861 38.0576 41.0684 37.8191 41.2637C37.5807 41.4567 37.3495 41.5507 37.1231 41.5434C36.8966 41.5362 36.704 41.4398 36.5498 41.2492C36.3933 41.0587 36.3355 40.8489 36.3764 40.6246C36.4173 40.4004 36.5547 40.193 36.7931 40.0001C37.0315 39.8072 37.2651 39.7131 37.4915 39.7179C37.7179 39.7251 37.9082 39.824 38.0648 40.017ZM37.6457 40.3594C37.5662 40.2629 37.4723 40.2099 37.3663 40.2026C37.2579 40.1954 37.1543 40.2316 37.0508 40.316C36.9496 40.3979 36.8918 40.492 36.8798 40.6006C36.8654 40.7091 36.8966 40.8104 36.9761 40.9068C37.0532 41.0009 37.1448 41.0539 37.2531 41.0612C37.3615 41.0708 37.465 41.0322 37.5662 40.9502C37.6698 40.8658 37.7276 40.7717 37.742 40.6633C37.7565 40.5572 37.7252 40.4535 37.6481 40.3594H37.6457ZM36.6317 39.0885L36.4029 38.8063L36.0103 39.127L36.2391 39.4092L36.6317 39.0885Z" fill="#8A949E"/>
<path d="M39.9479 36.6729L39.3796 37.2203L39.7336 37.5941L39.3338 37.9751L38.9725 37.5941L38.409 38.1271L38.1609 37.8642L39.7023 36.41L39.9479 36.6729ZM38.9725 35.906C39.1171 36.0579 39.1796 36.2292 39.1628 36.4197C39.1459 36.6246 39.0376 36.8224 38.8352 37.0129C38.6353 37.2034 38.433 37.3023 38.2259 37.3095C38.0332 37.3168 37.8646 37.2444 37.7201 37.0949C37.578 36.943 37.5153 36.7717 37.5347 36.5788C37.5539 36.3738 37.6647 36.1761 37.8646 35.988C38.0669 35.7975 38.2693 35.6986 38.4715 35.6913C38.6642 35.6841 38.8304 35.7565 38.9725 35.9084V35.906ZM41.67 37.1817L40.0829 38.6865C40.0154 38.7517 39.9527 38.783 39.8974 38.7805C39.842 38.7805 39.7842 38.7444 39.7192 38.6769L39.2784 38.2114L39.6854 37.8256L39.9913 38.1487C40.0347 38.1946 40.0804 38.197 40.1262 38.1536L41.4244 36.9237L41.67 37.1841V37.1817ZM38.5895 36.2701C38.5221 36.1978 38.4475 36.1616 38.3631 36.1616C38.2789 36.1616 38.1994 36.1953 38.1247 36.2653C38.0501 36.3353 38.0116 36.4124 38.0091 36.4968C38.0067 36.5813 38.0381 36.6584 38.1054 36.7307C38.1729 36.8006 38.2476 36.8393 38.3318 36.8393C38.4161 36.8393 38.4956 36.8055 38.5703 36.7356C38.645 36.6657 38.6835 36.5861 38.6859 36.5041C38.6883 36.4197 38.657 36.3425 38.5895 36.2725V36.2701ZM41.0174 36.6994L40.6103 37.0853L40.4296 36.8947L39.9792 37.3191L39.7432 37.0683L40.1912 36.6415L38.8112 35.1801L39.2182 34.7943L41.0174 36.6994Z" fill="#8A949E"/>
<path d="M2.33294 22.0372L2.39078 21.5934L3.38843 21.7261L2.50163 20.7542L2.57874 20.1707L3.45591 21.1931L5.003 20.4479L4.92588 21.0291L3.78123 21.5573L3.99811 21.808L4.8078 21.9166L4.74756 22.3603L2.32812 22.0396L2.33294 22.0372Z" fill="#8A949E"/>
<path d="M6.49548 15.8151L6.32197 16.2346L4.06641 15.3014L4.23991 14.8817L6.49548 15.8151Z" fill="#8A949E"/>
<path d="M4.59766 14.2724L4.81689 13.8503L6.72494 13.8599L5.21681 13.0786L5.40954 12.7024L7.57539 13.8262L7.36818 14.2289L5.41918 14.2241L6.95863 15.0223L6.76348 15.3985L4.59766 14.2772V14.2724Z" fill="#8A949E"/>
<path d="M5.28621 18.6673C5.42357 18.8626 5.4308 19.1376 5.35368 19.4149C5.27657 19.6922 5.14885 19.9214 4.92956 20.0178C4.65725 20.1529 4.28374 20.0998 3.87166 19.9841C3.44995 19.8683 3.10535 19.7381 2.94871 19.4824C2.81135 19.2871 2.79207 19.0025 2.86918 18.7252C2.9463 18.4478 3.1174 18.2067 3.33669 18.1102C3.60176 17.9728 3.95118 18.0475 4.37049 18.1633C4.78256 18.2767 5.12234 18.4093 5.28862 18.665L5.28621 18.6673ZM4.88618 18.8361C4.76569 18.7011 4.53918 18.6505 4.26927 18.5757C3.99938 18.5009 3.7584 18.4286 3.58489 18.4817C3.41139 18.5347 3.3174 18.6794 3.27403 18.8409C3.23065 19.0025 3.23306 19.1762 3.35355 19.3136C3.47404 19.4511 3.70056 19.5089 3.97046 19.5838C4.24036 19.6585 4.4982 19.7188 4.67171 19.6633C4.84522 19.6078 4.92233 19.4728 4.96571 19.3113C5.01149 19.1497 5.00427 18.9712 4.88378 18.8337L4.88618 18.8361Z" fill="#8A949E"/>
<path d="M5.08518 17.542C5.19363 17.5637 5.27796 17.5637 5.34303 17.542C5.4587 17.5058 5.54305 17.4021 5.59847 17.2381C5.63221 17.1393 5.64425 17.0548 5.63943 16.9849C5.6298 16.8523 5.56232 16.7654 5.4346 16.722C5.3599 16.6979 5.29243 16.7075 5.23218 16.7486C5.17434 16.792 5.10928 16.8716 5.03699 16.9873L4.91409 17.1827C4.79119 17.3756 4.68516 17.5009 4.596 17.5588C4.449 17.6577 4.26344 17.6698 4.03933 17.595C3.83691 17.5275 3.68751 17.4069 3.59593 17.2333C3.50436 17.0596 3.49954 16.8474 3.58147 16.5966C3.65136 16.3868 3.77184 16.2301 3.94776 16.1216C4.12367 16.0155 4.33333 15.9985 4.57672 16.0709L4.449 16.4616C4.30923 16.423 4.19597 16.4447 4.1044 16.5243C4.04415 16.5774 3.99836 16.6545 3.96704 16.751C3.93089 16.8595 3.92849 16.9535 3.95499 17.0356C3.98391 17.1151 4.04174 17.1706 4.12849 17.1995C4.21043 17.2261 4.28031 17.214 4.34297 17.1634C4.38393 17.132 4.44177 17.0548 4.52129 16.9343L4.72854 16.6208C4.82011 16.4833 4.91168 16.3893 5.00566 16.3362C5.15025 16.2542 5.32616 16.247 5.52618 16.3121C5.73342 16.3796 5.88523 16.5074 5.97681 16.6907C6.06838 16.874 6.0732 17.0934 5.98886 17.3466C5.90452 17.6047 5.76956 17.7856 5.58642 17.8892C5.40328 17.9929 5.19363 18.0074 4.95747 17.9279L5.08518 17.5371V17.542Z" fill="#8A949E"/>
<path d="M6.45553 11.1001L6.82654 10.6516L7.9781 11.6065C8.10577 11.7126 8.26 11.8163 8.34915 11.8284C8.47682 11.8453 8.61896 11.7681 8.76589 11.5897C8.9129 11.4136 8.95865 11.2424 8.92249 11.1363C8.89356 11.0519 8.76589 10.9192 8.63578 10.8131L7.48424 9.85815L7.85522 9.40961L9.00684 10.3646C9.20676 10.5286 9.39229 10.6998 9.45251 10.9096C9.51516 11.1266 9.37782 11.4836 9.07665 11.8477C8.77556 12.2118 8.45033 12.4048 8.22384 12.3903C8.02149 12.3759 7.80467 12.2166 7.60468 12.0527L6.45312 11.0977L6.45553 11.1001Z" fill="#8A949E"/>
<path d="M8.15625 9.09127L8.52487 8.73673L10.3751 9.3083L9.19939 8.08563L9.52705 7.76971L11.2158 9.52533L10.8641 9.86539L8.97534 9.28659L10.1751 10.5333L9.84748 10.8493L8.15869 9.09363L8.15625 9.09127Z" fill="#8A949E"/>
<path d="M11.8151 9.04559L11.4319 9.34703L9.92578 7.43228L10.3089 7.1308L11.8151 9.04559Z" fill="#8A949E"/>
<path d="M11.7107 6.06301L12.118 5.75916L12.9253 8.19488L12.5541 8.46973L10.4648 6.98906L10.8866 6.67556L12.3975 7.85481L11.7107 6.06301Z" fill="#8A949E"/>
<path d="M13.9881 5.20943L12.8844 5.78338L13.1229 6.24158L14.1351 5.71586L14.3278 6.08965L13.3133 6.61538L13.6025 7.17004L14.7568 6.56956L14.9592 6.95782L13.3784 7.78015L12.2578 5.62181L13.788 4.82599L13.9881 5.20943Z" fill="#8A949E"/>
<path d="M15.538 4.05673C15.632 4.05673 15.7236 4.07602 15.8103 4.11943C15.8826 4.15319 15.9453 4.19902 16.0031 4.25689C16.0609 4.31236 16.1091 4.38471 16.1501 4.47152C16.1983 4.57763 16.2199 4.69098 16.2151 4.81638C16.2104 4.94178 16.1597 5.05271 16.0609 5.14917C16.179 5.14435 16.2754 5.17088 16.3501 5.22876C16.4272 5.28422 16.4995 5.39033 16.5694 5.54468L16.6369 5.69419C16.6827 5.79548 16.7188 5.863 16.7429 5.89435C16.7815 5.945 16.8272 5.97394 16.8827 5.98358L16.9091 6.03905L16.4151 6.26573C16.3791 6.22233 16.3501 6.18856 16.3308 6.15962C16.2898 6.10416 16.2537 6.04145 16.2248 5.97876L16.1284 5.77377C16.0609 5.63391 15.9959 5.5495 15.9284 5.52297C15.8609 5.49644 15.7669 5.51332 15.6416 5.56879L15.2054 5.76895L15.6055 6.63712L15.1693 6.83728L14.1523 4.62345L15.1742 4.15319C15.3211 4.08808 15.444 4.05673 15.538 4.05432V4.05673ZM14.7644 4.80432L15.0392 5.40239L15.5187 5.18053C15.6151 5.13712 15.6802 5.0913 15.7187 5.04548C15.7838 4.96349 15.7862 4.8622 15.7308 4.73679C15.6682 4.60175 15.5862 4.5294 15.4826 4.52217C15.4248 4.51734 15.35 4.53663 15.2584 4.57763L14.7644 4.80432Z" fill="#8A949E"/>
<path d="M19.2947 5.28109L18.8248 5.4065L18.2031 3.05039L18.6754 2.92499L19.2947 5.28109Z" fill="#8A949E"/>
<path d="M20.7708 2.48364L20.8503 2.90808L20.1588 3.04072L20.537 5.00856L20.0503 5.10261L19.672 3.13477L18.9804 3.26741L18.8984 2.84297L20.7708 2.48364Z" fill="#8A949E"/>
<path d="M22.3706 2.31746L22.9249 2.2644L22.2887 3.85363L22.3754 4.7652L21.8887 4.81103L21.8019 3.90186L20.8477 2.46456L21.4236 2.4091L22.0092 3.41954L22.373 2.31746H22.3706Z" fill="#8A949E"/>
<path d="M17.0788 5.16574C17.1294 5.26462 17.1848 5.33455 17.245 5.37072C17.3534 5.43825 17.5029 5.44066 17.6884 5.37555C17.7992 5.33696 17.886 5.29356 17.9487 5.24291C18.0643 5.14885 18.0981 5.03792 18.0547 4.9077C18.0282 4.83053 17.9752 4.78471 17.8981 4.76542C17.8209 4.74613 17.7053 4.74613 17.5535 4.76542L17.2932 4.79436C17.0378 4.82088 16.8546 4.82088 16.7438 4.78712C16.5583 4.73407 16.4257 4.59178 16.3462 4.36751C16.2738 4.16252 16.2883 3.96478 16.3871 3.77667C16.4859 3.59098 16.6787 3.44629 16.9607 3.34982C17.1968 3.26783 17.421 3.26301 17.633 3.33294C17.8451 3.40288 17.9969 3.55963 18.0885 3.80079L17.6474 3.95513C17.592 3.82008 17.4981 3.74291 17.3655 3.72362C17.2787 3.71156 17.1799 3.72362 17.0691 3.7622C16.9462 3.80561 16.8571 3.86349 16.8016 3.93825C16.7462 4.013 16.7318 4.09741 16.763 4.18664C16.792 4.26863 16.8474 4.31927 16.9342 4.33375C16.9896 4.34339 17.1005 4.34339 17.2619 4.32651L17.6836 4.28793C17.8691 4.27104 18.0161 4.2831 18.1246 4.32169C18.2932 4.38439 18.4138 4.51703 18.4861 4.72442C18.5583 4.93423 18.5415 5.1368 18.433 5.32973C18.3246 5.52265 18.127 5.66976 17.8403 5.76863C17.5486 5.86992 17.2956 5.88198 17.0812 5.80239C16.8667 5.72282 16.7173 5.56606 16.6354 5.3249L17.0763 5.17056L17.0788 5.16574Z" fill="#8A949E"/>
<path d="M26.1885 3.12263C26.1668 2.95623 26.0896 2.83564 25.9643 2.76089C25.8921 2.71989 25.8125 2.69577 25.7234 2.68854C25.5499 2.67648 25.4029 2.73919 25.2824 2.87664C25.1595 3.0141 25.0896 3.22874 25.0679 3.52295C25.0462 3.81716 25.092 4.03179 25.2029 4.16201C25.3161 4.29224 25.4463 4.36459 25.6005 4.37423C25.7523 4.38388 25.8776 4.3453 25.9812 4.25607C26.0848 4.16684 26.1523 4.04385 26.186 3.8895L25.6897 3.85333L25.7186 3.45301L26.6126 3.51812L26.521 4.8059L26.2246 4.7842L26.2005 4.48034C26.1065 4.58645 26.0222 4.66121 25.9499 4.70462C25.8246 4.77696 25.6776 4.8059 25.5041 4.79385C25.2197 4.77456 24.9932 4.64674 24.827 4.41281C24.6535 4.17648 24.5787 3.8678 24.6076 3.48436C24.6341 3.0961 24.7522 2.78983 24.9619 2.57037C25.1691 2.34851 25.4318 2.24963 25.7474 2.27375C26.0198 2.29305 26.2342 2.3871 26.3885 2.55349C26.5427 2.71989 26.6246 2.92005 26.6318 3.15397L26.1909 3.12263H26.1885Z" fill="#8A949E"/>
<path d="M33.2203 5.88477C33.0564 5.93782 32.8685 5.91612 32.6564 5.81725L32.2492 5.62915L31.8853 6.41532L31.4805 6.22721L32.4925 4.03992L33.3312 4.42818C33.5239 4.51741 33.6517 4.64522 33.7167 4.81162C33.7794 4.97801 33.7577 5.17818 33.6468 5.41451C33.5264 5.67255 33.3866 5.82931 33.2227 5.88236L33.2203 5.88477ZM33.2733 4.94908C33.2444 4.87673 33.1817 4.81885 33.0902 4.77545L32.7215 4.60422L32.4227 5.25294L32.7913 5.42416C32.8854 5.46757 32.9697 5.4748 33.0444 5.44587C33.1215 5.41693 33.1842 5.34458 33.2372 5.23123C33.2902 5.11789 33.3022 5.02384 33.2733 4.95149V4.94908Z" fill="#8A949E"/>
<path d="M35.5515 6.15997L34.5683 5.5836L34.3104 6.02492L35.2141 6.55305L35.0045 6.91238L34.1008 6.38183L33.7875 6.9172L34.8165 7.52007L34.5972 7.89388L33.1875 7.06913L34.4044 4.99036L35.7684 5.791L35.5539 6.15997H35.5515Z" fill="#8A949E"/>
<path d="M36.3229 6.18317L36.6892 6.44603L35.5373 8.05454L36.4097 8.67913L36.1566 9.03123L34.918 8.14374L36.3205 6.18317H36.3229Z" fill="#8A949E"/>
<path d="M36.9438 9.67085L38.6616 7.98029L38.9748 8.30107L38.3194 8.94494L38.9049 9.54302L39.5602 8.89915L39.8734 9.21743L38.1532 10.908L37.84 10.5896L38.6061 9.83478L38.0207 9.23678L37.2546 9.99156L36.9414 9.67321L36.9438 9.67085Z" fill="#8A949E"/>
<path d="M42.5263 15.6599C42.3649 15.5972 42.2348 15.4597 42.1336 15.2499L41.9384 14.8448L41.1576 15.221L40.9648 14.8183L43.1361 13.774L43.536 14.6084C43.6276 14.8014 43.6469 14.9822 43.5891 15.1487C43.5312 15.3175 43.3867 15.4574 43.1505 15.5707C42.895 15.6937 42.6854 15.7251 42.5263 15.6623V15.6599ZM43.1626 14.9726C43.1867 14.8978 43.1746 14.8134 43.1313 14.7218L42.9553 14.3552L42.3119 14.664L42.4878 15.0305C42.5312 15.1245 42.5939 15.1824 42.671 15.209C42.7481 15.2355 42.842 15.221 42.9553 15.1655C43.0686 15.1101 43.1361 15.0449 43.1601 14.9726H43.1626Z" fill="#8A949E"/>
<path d="M41.9631 17.1918L41.7969 16.777L44.0307 15.8726L44.1971 16.2874L41.9631 17.1918Z" fill="#8A949E"/>
<path d="M44.8401 18.1558L44.4328 18.2837L44.24 17.6663L42.3483 18.262L42.2109 17.8279L44.1026 17.2322L43.9098 16.6148L44.3171 16.487L44.8424 18.1534L44.8401 18.1558Z" fill="#8A949E"/>
<path d="M45.0621 18.9607L45.1754 19.4576L42.9993 20.7405L42.8885 20.2654L43.3391 20.017L43.1608 19.2453L42.6451 19.2139L42.5391 18.7558L45.0597 18.9632L45.0621 18.9607ZM43.5946 19.2695L43.7199 19.8072L44.5826 19.3297L43.5946 19.2718V19.2695Z" fill="#8A949E"/>
<path d="M45.4242 20.9062L45.4796 21.3524L43.518 21.596L43.6506 22.6619L43.2192 22.715L43.0312 21.2029L45.4218 20.9062H45.4242Z" fill="#8A949E"/>
<path d="M29.956 4.86176C29.9319 4.97028 29.9295 5.05469 29.9488 5.12221C29.9849 5.24037 30.0862 5.33201 30.2572 5.39472C30.3585 5.43089 30.4452 5.45018 30.5175 5.45018C30.6549 5.45018 30.7465 5.38266 30.7946 5.25485C30.8211 5.18008 30.8139 5.11256 30.7705 5.04986C30.7272 4.98716 30.6476 4.91964 30.5296 4.84005L30.3296 4.705C30.1344 4.57237 30.0066 4.45903 29.9488 4.36738C29.8524 4.21305 29.8428 4.02494 29.9247 3.80307C29.9994 3.6005 30.1271 3.45581 30.3102 3.37141C30.4934 3.287 30.7127 3.29182 30.9706 3.38587C31.185 3.46546 31.3465 3.59568 31.4501 3.77896C31.5562 3.96224 31.5682 4.17446 31.4886 4.41561L31.0862 4.2661C31.1272 4.12623 31.1104 4.01047 31.0308 3.91642C30.9778 3.85372 30.8983 3.80307 30.7994 3.7669C30.6862 3.72591 30.5898 3.71626 30.5054 3.74279C30.4212 3.7669 30.3633 3.82237 30.3296 3.9116C30.3006 3.99359 30.3102 4.06594 30.3609 4.12864C30.3946 4.16963 30.4717 4.23475 30.5947 4.32156L30.9127 4.54584C31.0525 4.64471 31.1489 4.74118 31.2019 4.83764C31.2814 4.98957 31.2862 5.16562 31.2115 5.36578C31.1344 5.57317 31.0019 5.71787 30.8067 5.80227C30.6139 5.88667 30.3874 5.87944 30.1271 5.78298C29.8621 5.68411 29.6765 5.54182 29.5753 5.35131C29.4741 5.1608 29.4644 4.94858 29.5511 4.71224L29.9536 4.86176H29.956Z" fill="#8A949E"/>
<path d="M40.6562 12.8582C40.5646 12.9209 40.5043 12.9836 40.4754 13.0439C40.4224 13.1548 40.4368 13.2922 40.5188 13.4514C40.5669 13.5479 40.62 13.6202 40.673 13.6685C40.7766 13.7601 40.8874 13.7746 41.0104 13.7118C41.0803 13.6757 41.1212 13.6202 41.1308 13.5455C41.1405 13.4707 41.1308 13.3646 41.0947 13.2295L41.0393 12.9956C40.9839 12.7641 40.967 12.5953 40.9863 12.4892C41.02 12.3107 41.1405 12.166 41.3502 12.0575C41.5429 11.9586 41.7333 11.9394 41.9261 11.9996C42.1165 12.06 42.278 12.2119 42.4033 12.4578C42.5069 12.6628 42.5382 12.8678 42.4924 13.0728C42.4466 13.2778 42.3117 13.4442 42.09 13.5672L41.8924 13.1861C42.0177 13.1114 42.0828 13.0125 42.0876 12.8895C42.0876 12.8075 42.0659 12.7183 42.0177 12.6219C41.9622 12.5157 41.8972 12.4434 41.8177 12.4048C41.7381 12.3662 41.6586 12.3662 41.5743 12.4096C41.4972 12.4482 41.4562 12.5085 41.4513 12.5929C41.4465 12.6459 41.461 12.7448 41.4947 12.8919L41.5791 13.273C41.6152 13.4393 41.62 13.5768 41.5935 13.683C41.5526 13.8493 41.4345 13.982 41.2441 14.0784C41.0489 14.1797 40.8514 14.1966 40.6513 14.1266C40.4513 14.0591 40.2898 13.9 40.1622 13.654C40.032 13.4032 39.9935 13.1716 40.0464 12.9618C40.0995 12.752 40.2368 12.5905 40.4585 12.4748L40.6537 12.8557L40.6562 12.8582Z" fill="#8A949E"/>
<path d="M28.7509 5.14915C28.5557 5.29144 28.2712 5.3059 27.9773 5.23838C27.6833 5.17085 27.4375 5.05028 27.3242 4.83806C27.1652 4.57278 27.2013 4.19898 27.2953 3.78661C27.3917 3.367 27.5049 3.01973 27.7628 2.85574C27.958 2.71346 28.2544 2.68452 28.5484 2.75204C28.8424 2.81957 29.1026 2.98114 29.2159 3.19577C29.375 3.45381 29.3171 3.80108 29.2232 4.2231C29.1291 4.63548 29.0111 4.97793 28.7556 5.14915H28.7509ZM28.558 4.72713C28.6906 4.60896 28.7243 4.39432 28.7846 4.13629C28.8424 3.87825 28.9002 3.65156 28.8328 3.48757C28.7653 3.32358 28.6086 3.23918 28.4376 3.20059C28.2664 3.16201 28.0881 3.16924 27.9532 3.28741C27.8183 3.40558 27.7749 3.62021 27.7146 3.87825C27.6544 4.13629 27.611 4.38227 27.6809 4.54385C27.7507 4.70783 27.8977 4.77777 28.0664 4.81635C28.2375 4.85494 28.4231 4.84529 28.5557 4.72953L28.558 4.72713Z" fill="#8A949E"/>
<path d="M39.6597 12.3476C39.4187 12.3453 39.1801 12.1837 38.9873 11.9546C38.7946 11.7255 38.6693 11.4819 38.7054 11.2408C38.7392 10.9321 38.9898 10.6547 39.3126 10.3822C39.6428 10.1025 39.9416 9.89506 40.2453 9.91921C40.4887 9.92165 40.7393 10.0783 40.9345 10.3099C41.1296 10.539 41.2405 10.826 41.2019 11.0647C41.1755 11.3662 40.92 11.6121 40.5923 11.8894C40.2694 12.162 39.9706 12.3646 39.6621 12.3476H39.6597ZM39.7585 11.8943C39.9344 11.8798 40.0911 11.7278 40.2935 11.5591C40.4958 11.3879 40.679 11.2408 40.7224 11.0695C40.7658 10.8983 40.691 10.7368 40.5778 10.6017C40.4646 10.4691 40.3151 10.3653 40.1393 10.3798C39.9633 10.3943 39.7971 10.5366 39.5946 10.7078C39.3922 10.879 39.209 11.0478 39.1681 11.2215C39.1247 11.3927 39.2018 11.5374 39.3126 11.6724C39.4259 11.8075 39.5802 11.9111 39.7561 11.8967L39.7585 11.8943Z" fill="#8A949E"/>
<path d="M306.778 12.1774V26.5356H305.034V18.7933H302.338V17.3654H305.034V12.1774H306.778ZM295.41 23.2356V13.4149H302.117V14.8587H297.186V17.4289H301.546V18.8251H297.186V21.776C299.366 21.7681 300.999 21.6887 302.846 21.3953L303.02 22.8231C300.935 23.1404 299.096 23.2198 296.536 23.2356H295.41Z" fill="white"/>
<path d="M293.469 12.1774V22.9184H291.788V12.1774H293.469ZM281.117 19.6501C283.028 18.7219 283.924 16.8181 283.924 15.1125V13.1611H285.636V15.1125C285.636 16.7863 286.461 18.4522 288.284 19.2693L287.301 20.6337C286.096 20.0705 285.271 19.1027 284.796 17.9366C284.288 19.2534 283.392 20.3719 282.085 20.9828L281.117 19.6501ZM283.877 26.2342V21.6332H285.636V24.8063H293.865V26.2342H283.877ZM287 17.0323V15.5885H288.918V12.4313H290.599V22.49H288.918V17.0323H287Z" fill="white"/>
<path d="M279.673 12.1774V20.8558H277.913V17.889H275.868V16.4293H277.913V12.1774H279.673ZM267.703 14.938V13.5101H271.032V12.0663H272.777V13.5101H276.106V14.938H267.703ZM268.511 18.0635C268.503 16.5563 269.922 15.4933 271.904 15.4933C273.902 15.4933 275.305 16.5563 275.313 18.0635C275.305 19.6104 273.902 20.6337 271.904 20.6337C269.922 20.6337 268.503 19.6104 268.511 18.0635ZM270.144 26.3452V21.5062H279.673V26.3452H270.144ZM270.192 18.0635C270.192 18.8568 270.873 19.3169 271.904 19.3169C272.927 19.3169 273.617 18.8568 273.617 18.0635C273.617 17.294 272.927 16.826 271.904 16.826C270.873 16.826 270.192 17.294 270.192 18.0635ZM271.904 24.9173H277.945V22.9025H271.904V24.9173Z" fill="white"/>
<path d="M259.546 15.6202C259.53 18.2539 260.917 20.8876 263.24 21.8871L262.193 23.2991C260.545 22.5375 259.34 21.0224 258.674 19.1503C258.016 21.1652 256.78 22.8152 255.043 23.6323L253.965 22.1568C256.351 21.1255 257.746 18.3888 257.754 15.6202V13.3356H259.546V15.6202ZM264.271 26.5356V12.1774H266.046V26.5356H264.271Z" fill="white"/>
<path d="M245.654 14.4621C245.654 16.2628 246.819 17.9683 249.031 18.6664L248.08 20.0467C246.535 19.5231 245.425 18.476 244.798 17.1433C244.18 18.6664 243.023 19.8642 241.373 20.4433L240.422 19.0631C242.729 18.2618 243.887 16.35 243.894 14.3034V12.939H245.654V14.4621ZM242.372 23.775C242.372 22.0775 244.235 21.07 247.224 21.078C250.189 21.07 252.02 22.0775 252.028 23.775C252.02 25.5123 250.189 26.5039 247.224 26.5039C244.235 26.5039 242.372 25.5123 242.372 23.775ZM244.132 23.775C244.132 24.6635 245.258 25.1077 247.224 25.1077C249.182 25.1077 250.284 24.6635 250.284 23.775C250.284 22.9342 249.182 22.4582 247.224 22.4582C245.258 22.4582 244.132 22.9342 244.132 23.775ZM250.126 20.7606V12.1774H251.886V15.6678H253.883V17.1275H251.886V20.7606H250.126Z" fill="white"/>
<path d="M238.974 12.1933V20.3164H237.199V12.1933H238.974ZM227.289 16.3025C227.289 14.2796 228.938 12.8835 231.158 12.8755C233.37 12.8835 235.019 14.2796 235.011 16.3025C235.019 18.2777 233.37 19.6976 231.158 19.6976C228.938 19.6976 227.289 18.2777 227.289 16.3025ZM229.017 16.3025C229.009 17.4606 229.905 18.2142 231.158 18.2063C232.387 18.2142 233.282 17.4606 233.282 16.3025C233.282 15.1125 232.387 14.3669 231.158 14.3669C229.905 14.3669 229.009 15.1125 229.017 16.3025ZM229.462 26.3452V21.0144H238.974V26.3452H229.462ZM231.206 24.9174H237.246V22.4107H231.206V24.9174Z" fill="white"/>
<path d="M302.828 36.923V31.7019H304.788C305.984 31.7019 306.622 32.3726 306.626 33.3677C306.622 34.0781 306.298 34.6046 305.686 34.8534L306.813 36.923H305.768L304.745 35.012H303.765V36.923H302.828ZM303.765 34.226H304.644C305.351 34.2295 305.667 33.9267 305.667 33.3677C305.667 32.8125 305.351 32.4879 304.644 32.4879H303.765V34.226Z" fill="white"/>
<path d="M298.754 36.923V31.7019H302.149V32.4879H299.691V33.9158H301.969V34.7019H299.691V36.1298H302.163V36.923H298.754Z" fill="white"/>
<path d="M294.082 32.4879V31.7019H298.24V32.4879H296.633V36.923H295.696V32.4879H294.082Z" fill="white"/>
<path d="M293.569 31.7019V36.923H292.734L290.261 33.3533H290.218V36.923H289.281V31.7019H290.131L292.589 35.2716H292.64V31.7019H293.569Z" fill="white"/>
<path d="M285.207 36.923V31.7019H288.601V32.4879H286.144V33.9158H288.421V34.7019H286.144V36.1298H288.616V36.923H285.207Z" fill="white"/>
<path d="M283.678 33.4616C283.566 32.8342 283.065 32.4736 282.431 32.4736C281.577 32.4736 280.972 33.1299 280.975 34.3125C280.972 35.5132 281.581 36.1515 282.431 36.1515C283.051 36.1515 283.552 35.8053 283.678 35.1923H284.622C284.478 36.1948 283.653 36.9953 282.417 36.9953C281.04 36.9953 280.028 35.9964 280.031 34.3125C280.028 32.625 281.051 31.6298 282.417 31.6298C283.57 31.6298 284.46 32.3005 284.622 33.4616H283.678Z" fill="white"/>
<path d="M274.859 36.923V31.7019H275.796V36.1298H278.102V36.923H274.859Z" fill="white"/>
<path d="M270.627 36.923H269.625L271.463 31.7019H272.616L274.461 36.923H273.459L273.023 35.6322H271.059L270.627 36.923ZM271.311 34.875H272.771L272.061 32.7692H272.018L271.311 34.875Z" fill="white"/>
<path d="M269.211 31.7019V36.923H268.273V31.7019H269.211Z" fill="white"/>
<path d="M263.891 36.923V31.7019H265.851C267.047 31.7019 267.685 32.3726 267.688 33.3677C267.685 34.0781 267.361 34.6046 266.748 34.8534L267.876 36.923H266.831L265.808 35.012H264.828V36.923H263.891ZM264.828 34.226H265.707C266.413 34.2295 266.73 33.9267 266.73 33.3677C266.73 32.8125 266.413 32.4879 265.707 32.4879H264.828V34.226Z" fill="white"/>
<path d="M259.219 32.4879V31.7019H263.377V32.4879H261.77V36.923H260.833V32.4879H259.219Z" fill="white"/>
<path d="M254.148 36.923V31.7019H255.086V36.1298H257.392V36.923H254.148Z" fill="white"/>
<path d="M249.915 36.923H248.914L250.752 31.7019H251.905L253.75 36.923H252.748L252.312 35.6322H250.348L249.915 36.923ZM250.6 34.875H252.06L251.35 32.7692H251.307L250.6 34.875Z" fill="white"/>
<path d="M247.788 33.4616C247.676 32.8342 247.175 32.4736 246.541 32.4736C245.687 32.4736 245.082 33.1299 245.085 34.3125C245.082 35.5132 245.69 36.1515 246.541 36.1515C247.16 36.1515 247.662 35.8053 247.788 35.1923H248.732C248.588 36.1948 247.763 36.9953 246.527 36.9953C245.149 36.9953 244.137 35.9964 244.141 34.3125C244.137 32.625 245.161 31.6298 246.527 31.6298C247.679 31.6298 248.569 32.3005 248.732 33.4616H247.788Z" fill="white"/>
<path d="M243.519 31.7019V36.923H242.582V31.7019H243.519Z" fill="white"/>
<path d="M241.839 31.7019V36.923H241.003L238.531 33.3533H238.488V36.923H237.551V31.7019H238.401L240.858 35.2716H240.909V31.7019H241.839Z" fill="white"/>
<path d="M236.801 31.7019V36.923H235.863V31.7019H236.801Z" fill="white"/>
<path d="M232.09 36.923V31.7019H233.027V36.1298H235.333V36.923H232.09Z" fill="white"/>
<path d="M230.56 33.4616C230.449 32.8342 229.948 32.4736 229.313 32.4736C228.459 32.4736 227.854 33.1299 227.858 34.3125C227.854 35.5132 228.463 36.1515 229.313 36.1515C229.933 36.1515 230.434 35.8053 230.56 35.1923H231.504C231.36 36.1948 230.535 36.9953 229.299 36.9953C227.923 36.9953 226.91 35.9964 226.914 34.3125C226.91 32.625 227.933 31.6298 229.299 31.6298C230.452 31.6298 231.343 32.3005 231.504 33.4616H230.56Z" fill="white"/>
<path d="M217.703 11.8154H216.965V37.6615H217.703V11.8154Z" fill="white" fill-opacity="0.1"/>
</g>
<defs>
<clipPath id="clip0_1637_7992">
<rect width="307" height="48" fill="white"/>
</clipPath>
</defs>
</svg>
