<svg width="264" height="28" viewBox="0 0 264 28" fill="none" xmlns="http://www.w3.org/2000/svg">
<g clip-path="url(#clip0_1637_7743)">
<path d="M114.446 10.2C114.646 9.4 114.746 8.6 114.746 8V2.5H98.8399V4.8H111.145V8.1C111.145 8.8 111.145 9.5 111.145 10.2C111.145 10.9 110.945 11.5 110.744 12H96.5391V14.3H104.942V17.9H98.3397V20.2H111.745V27.4H115.446V17.9H108.644V14.3H119.148V12H113.846C114.146 11.6 114.346 11.1 114.546 10.2H114.446Z" fill="white"/>
<path d="M140.254 10.2C140.455 9.4 140.555 8.6 140.555 8V2.5H124.649V4.8H136.953V8.1C136.953 8.8 136.953 9.5 136.953 10.2C136.953 10.9 136.753 11.5 136.553 12H122.348V14.3H130.751V17.9H124.148V20.2H137.553V27.4H141.255V17.9H134.452V14.3H144.956V12H139.654C139.954 11.6 140.154 11.1 140.354 10.2H140.254Z" fill="white"/>
<path d="M199.575 14.7H209.579C210.479 14.7 211.18 14.4 211.68 14C212.18 13.6 212.48 13 212.48 12V2.5H208.779V6.3H200.276V2.5H196.574V12C196.574 13 196.874 13.5 197.375 14C197.875 14.4 198.575 14.7 199.475 14.7H199.575ZM208.779 8.6V12.5H200.276V8.6H208.779Z" fill="white"/>
<path d="M152.159 14.8H164.664V12.5H152.859V9.7H164.263V7.4H152.859V4.8H164.664V2.5H149.258V12.1C149.258 12.9 149.558 13.6 150.058 14.1C150.558 14.6 151.359 14.9 152.259 14.9L152.159 14.8Z" fill="white"/>
<path d="M231.391 7.6C231.391 8.3 231.391 9 231.291 9.7C231.291 10.4 231.09 11 230.79 11.5H233.892C234.192 11.2 234.492 10.6 234.692 9.8C234.892 9 234.992 8.2 234.992 7.5V2.5H219.086V4.8H231.291V7.6H231.391Z" fill="white"/>
<path d="M226.287 8.30005H222.685V13.1H216.383V15.4H237.991V13.1H226.287V8.30005Z" fill="white"/>
<path d="M159.162 16.8H155.26V21H146.957V23.3H167.565V21H159.162V16.8Z" fill="white"/>
<path d="M206.381 16.8H202.68V21H194.477V23.3H214.684V21H206.381V16.8Z" fill="white"/>
<path d="M260.199 8.30005V2.30005H256.598V27.4H260.199V10.6H264V8.30005H260.199Z" fill="white"/>
<path d="M186.572 6.70002H182.57V9.00002H186.572V15.3H190.273V2.40002H186.572V6.70002Z" fill="white"/>
<path d="M176.867 11.5001C179.068 11.9001 181.969 13.4001 183.47 14.8001L184.971 12.9001C183.87 11.7001 180.269 9.70007 178.368 9.10007C178.668 8.30007 178.868 7.40007 178.868 6.40007V5.00007H183.17V2.70007H170.865V5.00007H175.167V6.40007C175.167 8.10007 174.467 11.7001 169.965 12.6001V14.9001C170.565 14.9001 171.065 14.8001 171.565 14.7001C173.466 14.2001 175.467 13.2001 176.867 11.6001V11.5001Z" fill="white"/>
<path d="M90.5334 2.30005H86.832V18H90.5334V10.4H94.0348V8.10005H90.5334V2.30005Z" fill="white"/>
<path d="M78.8303 18.8H75.1289V24.6C75.1289 25.4001 75.429 26.1 75.9292 26.6C76.5294 27.1 77.2297 27.3 78.03 27.3H91.4351V25H78.7303V18.8H78.8303Z" fill="white"/>
<path d="M188.171 18C186.77 16.9 185.17 16.3 183.169 16.3C181.168 16.3 179.568 16.9 178.167 18C176.767 19.1 176.066 20.5001 176.066 22.1C176.066 23.7 176.767 25.1 178.167 26.2001C179.568 27.3001 181.168 27.9 183.169 27.9C185.17 27.9 186.77 27.3001 188.171 26.2001C189.572 25.1 190.172 23.7 190.172 22.1C190.172 20.5001 189.471 19.1 188.171 18ZM183.169 25.7001C181.368 25.7001 179.868 24.1001 179.868 22.2001C179.868 20.3001 181.368 18.6 183.169 18.6C184.97 18.6 186.47 20.2001 186.47 22.2001C186.47 24.2001 184.97 25.7001 183.169 25.7001Z" fill="white"/>
<path d="M232.09 18C230.69 16.9 229.089 16.3 227.089 16.3C225.088 16.3 223.487 16.9 222.087 18C220.686 19.1 220.086 20.5001 220.086 22.1C220.086 23.7 220.786 25.1 222.087 26.2001C223.487 27.3001 225.088 27.9 227.089 27.9C229.089 27.9 230.69 27.3001 232.09 26.2001C233.491 25.1 234.191 23.7 234.191 22.1C234.191 20.5001 233.491 19.1 232.09 18ZM227.089 25.7001C225.288 25.7001 223.787 24.1001 223.787 22.2001C223.787 20.3001 225.288 18.6 227.089 18.6C228.889 18.6 230.39 20.2001 230.39 22.2001C230.39 24.2001 228.889 25.7001 227.089 25.7001Z" fill="white"/>
<path d="M81.732 14.2C83.0325 13.1 83.7327 11.7 83.7327 10.2C83.7327 8.70005 83.1325 7.50005 82.0321 6.40005H84.0328V4.10005H78.6308V2.30005H74.9294V4.10005H69.5273V6.40005H71.7282C70.5277 7.50005 70.0275 8.70005 70.0275 10.2C70.0275 11.7 70.7278 13.1 72.0283 14.2C73.3288 15.3 75.0294 15.9 76.9301 15.9C78.8309 15.9 80.4315 15.3 81.832 14.2H81.732ZM73.6289 10.2C73.6289 8.30005 75.1295 6.70005 76.9301 6.70005C78.7308 6.70005 80.2314 8.30005 80.2314 10.2C80.2314 12.1 78.7308 13.7 76.9301 13.7C75.1295 13.7 73.6289 12.1 73.6289 10.2Z" fill="white"/>
<path d="M249.197 10.7C249.397 10 249.597 9.2 249.597 8.2V2.5H245.796V7.5C245.796 10.5 244.695 13.3 240.594 14.2V16.7C241.894 16.7 244.395 15.8 245.596 14.9C246.096 14.5 246.896 14 247.596 13.2C249.697 14 251.698 15.4 253.098 16.9L254.899 15C254.099 13.6 251.098 11.5 249.197 10.6V10.7Z" fill="white"/>
<path d="M51.8196 14.6C51.4195 14.2 51.0193 13.8 50.6192 13.4C50.9193 13.1 51.1194 12.9 51.4195 12.5L61.7234 0H52.82L46.8177 7.3C45.2171 9.3 44.2167 10.1 42.4161 10.1C40.6154 10.1 39.615 9.3 38.0144 7.3L32.2122 0H23.3088L33.7128 12.6C34.0129 12.9 34.313 13.2 34.5131 13.5C34.1129 13.8 33.7128 14.2 33.3126 14.7L28.0106 20.8H17.5066C11.5044 20.8 7.70292 17.2 7.70292 11.4V0.3H0V11.3C0 24.3 9.30352 27.6 17.2065 27.6H30.0114C31.0117 27.6 31.5119 27.4 32.0121 26.8L37.9144 20C39.615 18.1 40.6154 17.2 42.5161 17.2C44.4168 17.2 45.4172 18 47.1178 20L53.7203 27.7H63.0239L51.8196 14.7V14.6Z" fill="white"/>
</g>
<defs>
<clipPath id="clip0_1637_7743">
<rect width="264" height="28" fill="white"/>
</clipPath>
</defs>
</svg>
