<svg width="195" height="40" viewBox="0 0 195 40" fill="none" xmlns="http://www.w3.org/2000/svg">
<path d="M31.0578 18.7541C27.7116 16.4341 23.4235 17.3815 21.1723 20.8702C19.2925 23.7844 16.4552 24.1454 15.3564 24.1454C11.7752 24.1454 9.32503 21.5766 8.59963 18.92H8.59573C8.59086 18.8946 8.58598 18.8722 8.57623 18.8459C8.57136 18.8156 8.56258 18.7863 8.55381 18.7571C8.26911 17.6468 8.19793 17.1171 8.19793 15.9385C8.19793 9.58244 14.593 2.50537 23.8048 2.50537C33.2369 2.50537 38.6374 9.82732 40.0258 13.8976C40.0034 13.8263 39.982 13.7551 39.9556 13.681C37.2802 5.72195 29.8771 0 21.1625 0C10.1957 0 1.30078 9.06537 1.30078 20.2517C1.30078 30.2478 8.37246 38.8078 18.1829 38.8078C26.0063 38.8078 31.2655 34.3346 33.6786 28.1698C34.9997 24.798 34.0647 20.8361 31.0578 18.7541Z" fill="white"/>
<path d="M40.1519 14.2907C38.9917 10.3229 33.5521 2.50439 23.806 2.50439C14.5933 2.50439 8.19922 9.58147 8.19922 15.9376C8.19922 17.1161 8.27039 17.6459 8.55509 18.7561C8.43614 18.2693 8.37179 17.7824 8.37179 17.3093C8.37179 10.6907 14.8731 6.10439 21.5557 6.10439C30.6008 6.10439 37.9328 13.5805 37.9328 22.802C37.9328 30.0322 33.8524 36.2878 27.9235 39.2946L27.9244 39.3005C35.5665 36.479 41.0245 29.0156 41.0245 20.2517C41.0245 18.1766 40.7515 16.3483 40.1519 14.2907Z" fill="#8A949E"/>
<path d="M68.7481 20.2788V22.5061H60.9481V25.6408H58.4306V22.5061H50.4766V20.2788H68.7481ZM51.9449 18.2115V10.4193H67.2768V18.2105L51.9449 18.2115ZM54.4195 23.9354V27.8661H67.5225V30.0915H51.9449V23.9344L54.4195 23.9354ZM64.8256 12.5774H54.3756V16.1227H64.8266L64.8256 12.5774Z" fill="white"/>
<path d="M83.7828 28.4114H70.7461V26.2094H75.9848V23.6855C75.7469 23.626 75.5226 23.5509 75.3159 23.4602C74.7212 23.2182 74.1995 22.8923 73.7549 22.4836C73.3094 22.0572 72.9603 21.5694 72.7088 21.0163C72.4553 20.4631 72.3285 19.8777 72.3285 19.2553C72.3285 18.6348 72.4553 18.0504 72.7088 17.507C72.9603 16.9616 73.3103 16.4777 73.7549 16.0514C74.1995 15.628 74.7163 15.2992 75.3042 15.0641C75.8902 14.8289 76.52 14.7128 77.186 14.7128C77.8548 14.7128 78.4788 14.8289 79.056 15.0641C79.6391 15.2992 80.1412 15.628 80.5741 16.0514C81.0197 16.4777 81.3716 16.9616 81.63 17.507C81.8903 18.0504 82.022 18.6348 82.022 19.2553C82.022 19.8777 81.8903 20.4631 81.63 21.0163C81.3716 21.5694 81.0197 22.0572 80.5741 22.4836C80.1412 22.8923 79.6391 23.2182 79.056 23.4602C78.8201 23.5684 78.5744 23.6514 78.3228 23.7109V26.2104H83.7828V28.4114ZM75.8054 12.1909V10.0328H78.4798V12.1909H83.3158V14.3489H70.9723V12.1909H75.8054ZM79.6166 19.2338C79.6166 18.5665 79.3768 17.9958 78.902 17.5197C78.4262 17.0436 77.849 16.8026 77.1674 16.8026C76.481 16.8026 75.9029 17.0436 75.4251 17.5197C74.9552 17.9967 74.7143 18.5675 74.7143 19.2338C74.7143 19.9002 74.9552 20.4758 75.4251 20.9597C75.9029 21.4445 76.481 21.6875 77.1674 21.6875C77.849 21.6875 78.4271 21.4445 78.902 20.9597C79.3778 20.4758 79.6166 19.9002 79.6166 19.2338ZM87.6389 30.4348H85.1868V10.1675H87.6389V18.9597H90.1778V21.3909H87.6389V30.4348Z" fill="white"/>
<path d="M91.2724 14.3489V12.1909H95.4834V10.0328H98.0886V12.1909H102.057V14.3489H97.5543L102.28 27.0933L100.118 27.8436L96.7968 18.665L93.4779 28.0026L91.2461 27.2767L95.9953 14.3489H91.2724ZM103.705 10.1899H106.001V30.3206H103.705V20.5284H101.122V18.2348H103.705V10.1899ZM107.874 10.1675H110.259V30.4348H107.874V10.1675Z" fill="white"/>
<path d="M129.487 24.2339V30.4808H127.014V26.39H113.688V24.2339H116.853L116.875 21.8681H112.684V19.6876H130.958V21.8681H126.746V24.2339H129.487ZM126.724 14.3276C126.724 14.9627 126.59 15.5617 126.323 16.1227C126.057 16.6827 125.706 17.1822 125.277 17.6203C124.829 18.0271 124.309 18.3588 123.717 18.6095C123.12 18.8583 122.491 18.9822 121.823 18.9822C121.155 18.9822 120.518 18.8583 119.917 18.6095C119.316 18.3588 118.792 18.0281 118.346 17.6203C117.917 17.1822 117.566 16.6827 117.3 16.1227C117.033 15.5608 116.898 14.9627 116.898 14.3276C116.898 13.6915 117.033 13.0934 117.3 12.5325C117.566 11.9725 117.917 11.472 118.346 11.032C118.792 10.6086 119.316 10.27 119.917 10.0203C120.518 9.77148 121.156 9.64661 121.823 9.64661C122.492 9.64661 123.12 9.77051 123.717 10.0203C124.309 10.27 124.829 10.6095 125.277 11.032C125.706 11.472 126.057 11.9725 126.323 12.5325C126.59 13.0925 126.724 13.6905 126.724 14.3276ZM119.124 24.2339H124.472V21.8681H119.149L119.124 24.2339ZM124.298 14.3276C124.298 13.6447 124.053 13.0651 123.571 12.5881C123.088 12.111 122.504 11.8729 121.822 11.8729C121.138 11.8729 120.55 12.111 120.06 12.5881C119.571 13.0651 119.325 13.6447 119.325 14.3276C119.325 15.0095 119.571 15.5929 120.06 16.0769C120.55 16.5608 121.137 16.8027 121.822 16.8027C122.504 16.8027 123.088 16.5608 123.571 16.0769C124.053 15.5929 124.298 15.0095 124.298 14.3276Z" fill="white"/>
<path d="M145.376 19.8721V22.0731H133.5V19.8721H137.51V15.4624H139.849V19.8721H145.376ZM142.28 18.0077V12.8272H134.057V10.5775H144.686V18.0077H142.28ZM136.865 23.6858V27.7999H150.613V30.0253H134.39V23.6858H136.865ZM150.076 22.7785H147.605V10.1677H150.076V15.1219H152.617V17.5287H150.076V22.7785Z" fill="white"/>
<path d="M158.32 18.8692V14.917H160.659V18.8702H166.186V20.9843H154.309V18.8702L158.32 18.8692ZM163.09 17.0526V12.8048H154.866V10.5794H165.493V17.0536L163.09 17.0526ZM169.104 26.4126C169.104 27.0663 168.969 27.6672 168.703 28.2194C168.437 28.7736 168.08 29.2702 167.635 29.7063C167.204 30.1326 166.689 30.4692 166.101 30.7189C165.505 30.9697 164.862 31.0936 164.181 31.0936C163.496 31.0936 162.858 30.9697 162.266 30.7189C161.671 30.4692 161.148 30.1316 160.702 29.7063C160.26 29.2702 159.906 28.7736 159.646 28.2194C159.385 27.6682 159.255 27.0663 159.255 26.4126C159.255 25.7609 159.386 25.1521 159.646 24.5843C159.905 24.0165 160.26 23.5111 160.702 23.0741C161.149 22.6643 161.671 22.3355 162.266 22.0848C162.857 21.836 163.496 21.7092 164.181 21.7092C164.862 21.7092 165.504 21.836 166.101 22.0848C166.69 22.3355 167.204 22.6643 167.635 23.0741C168.08 23.5111 168.436 24.0165 168.703 24.5843C168.97 25.1521 169.104 25.7609 169.104 26.4126ZM166.677 26.3902C166.677 25.6955 166.433 25.1014 165.941 24.6097C165.45 24.116 164.863 23.8702 164.181 23.8702C163.496 23.8702 162.907 24.116 162.409 24.6097C161.912 25.1014 161.661 25.6955 161.661 26.3902C161.661 27.0887 161.912 27.6731 162.409 28.1521C162.908 28.6282 163.496 28.8682 164.181 28.8682C164.862 28.8682 165.45 28.6282 165.941 28.1521C166.433 27.6731 166.677 27.0887 166.677 26.3902ZM170.887 21.3228H168.415V10.1677H170.887V14.3043H173.429V16.6653H170.887V21.3228Z" fill="white"/>
<path d="M174.777 22.9685H193.049V25.1939H185.14V30.4193H182.666V25.1939H174.777V22.9685ZM178.676 13.0612H189.129V10.4954H191.578V20.2417H176.249V10.4954H178.676V13.0612ZM189.128 15.2437H178.675V18.0378H189.128V15.2437Z" fill="white"/>
</svg>
