<svg width="241" height="48" viewBox="0 0 241 48" fill="none" xmlns="http://www.w3.org/2000/svg">
<g clip-path="url(#clip0_1637_8669)">
<path d="M13.8623 20.9252V27.0757H14.6985V28.8382H11.2656V27.0757H12.1017V20.9252H11.2656V19.1627H14.6985V20.9252H13.8623Z" fill="white"/>
<path d="M0 28.8356V19.1618H1.94602L8.0007 26.2291V19.1618H9.78556V28.8356H7.83954L1.77187 21.7544V28.8347H0V28.8356Z" fill="white"/>
<path d="M17.8372 28.8356C17.4976 28.8356 17.1865 28.7506 16.9049 28.5806C16.6234 28.4106 16.3972 28.1842 16.2274 27.9023C16.0576 27.6204 15.9727 27.309 15.9727 26.9681V21.0301C15.9727 20.6901 16.0576 20.3788 16.2274 20.096C16.3972 19.8141 16.6234 19.5877 16.9049 19.4177C17.1865 19.2477 17.4976 19.1627 17.8372 19.1627H24.3892V20.9495H18.2133C18.0703 20.9495 17.9559 20.9902 17.871 21.0709C17.7861 21.1516 17.7437 21.2678 17.7437 21.4205V26.5795C17.7437 26.7227 17.7861 26.8372 17.871 26.9222C17.9559 27.0072 18.0703 27.0497 18.2133 27.0497H24.3892V28.8364H17.8372V28.8356Z" fill="white"/>
<path d="M25.8164 28.8356V19.1618H33.7954V20.9486H27.6013V23.0979H33.7954V24.8986H27.6013V27.0488H33.7954V28.8356H25.8164Z" fill="white"/>
<path d="M35.1523 28.8356V19.1618H37.0984L40.6014 23.3399L44.0905 19.1618H46.0504V28.8356H44.2655V21.7414L40.6014 26.1077L36.9242 21.7544V28.8347H35.1532L35.1523 28.8356Z" fill="white"/>
<path d="M46.0512 15.3307H44.4535C41.3309 10.6053 35.9693 7.48883 29.8887 7.48883C23.808 7.48883 18.4439 10.6053 15.3178 15.3307H0C3.76988 6.32483 12.6595 0 23.0256 0C33.3917 0 42.2814 6.32483 46.0512 15.3307Z" fill="url(#paint0_linear_1637_8669)"/>
<path d="M46.0512 32.6728C42.2779 41.6752 33.3917 48 23.0256 48C12.6595 48 3.77334 41.6752 0 32.6728H1.59771C4.72036 37.3982 10.0819 40.5112 16.1626 40.5112C22.2432 40.5112 27.6073 37.3982 30.7335 32.6728H46.0504H46.0512Z" fill="white"/>
<path d="M63.0647 21.6798C62.5899 21.1056 62.2294 20.4507 61.9834 19.7143C61.7382 18.9788 61.6151 18.2077 61.6151 17.4019V15.3706H60.0278V17.4019C60.0226 18.2173 59.8953 19.0048 59.6449 19.7638C59.3945 20.5227 59.0245 21.2062 58.535 21.8134C58.0454 22.4205 57.4658 22.8785 56.7969 23.1881L57.7872 24.4606C58.522 24.0859 59.1536 23.5386 59.683 22.8186C60.1855 22.136 60.5668 21.3563 60.8371 20.4837C61.1013 21.2895 61.4583 22.0181 61.934 22.6495C62.4513 23.3356 63.0803 23.8629 63.8194 24.2281L64.7603 22.9756C64.1053 22.6851 63.5395 22.2531 63.0638 21.6789L63.0647 21.6798Z" fill="white"/>
<path d="M66.0172 18.4645H63.3555V19.7221H66.0172V27.0826H67.5629V14.3506H66.0172V18.4645Z" fill="white"/>
<path d="M69.0742 20.7422H74.0536V21.705H70.4302V22.8577H77.6572V23.7077H70.4371V25.7547V26.0851V26.9499H79.546V25.7547H71.982V24.8127H79.202V21.705H75.6132V20.7422H80.6351V19.5114H69.0742V20.7422Z" fill="white"/>
<path d="M72.3728 18.5937C73.0564 18.7602 73.8821 18.8452 74.8517 18.8504C75.8117 18.8452 76.6331 18.7602 77.3176 18.5937C78.0012 18.4272 78.5202 18.18 78.8754 17.8521C79.2315 17.5234 79.4092 17.1279 79.4092 16.6647C79.4092 16.2015 79.2315 15.8051 78.8754 15.479C78.5202 15.1529 77.9986 14.9057 77.3132 14.7374C76.6279 14.5683 75.8074 14.4841 74.8517 14.4841C73.896 14.4841 73.0564 14.5683 72.3728 14.7374C71.6883 14.9065 71.1667 15.1537 70.8063 15.479C70.4458 15.8043 70.2656 16.1998 70.2656 16.6647C70.2656 17.1296 70.4458 17.5242 70.8063 17.8521C71.1667 18.1808 71.6883 18.428 72.3728 18.5937ZM72.2281 16.1087C72.4508 15.9587 72.7792 15.845 73.2159 15.7678C73.6508 15.6898 74.1967 15.6499 74.8517 15.6447C75.5024 15.6499 76.0482 15.6898 76.4875 15.7678C76.9277 15.845 77.2587 15.9587 77.4779 16.1087C77.6979 16.2588 77.8071 16.4435 77.8071 16.6647C77.8071 16.8859 77.6971 17.0836 77.4779 17.2337C77.2578 17.3837 76.9303 17.4974 76.4945 17.5746C76.0586 17.6526 75.5111 17.6908 74.8508 17.6908C74.1906 17.6908 73.6378 17.6526 73.2072 17.5746C72.7766 17.4974 72.4499 17.3837 72.2272 17.2337C72.0046 17.0836 71.8963 16.8937 71.9006 16.6647C71.8954 16.4435 72.0046 16.2588 72.2272 16.1087H72.2281Z" fill="white"/>
<path d="M90.6544 19.3284H89.2152V14.5899H87.7891V26.4225H89.2152V20.5869H90.6544V27.0479H92.1299V14.3506H90.6544V19.3284Z" fill="white"/>
<path d="M84.92 22.7102C84.4175 22.7415 83.8344 22.7614 83.1681 22.7692V17.1209H86.3427V15.8554H81.6016V24.0885H82.4654C83.4765 24.0833 84.3239 24.0581 85.0067 24.0104C85.6912 23.9636 86.3878 23.8699 87.1 23.7294L86.9804 22.45C86.2777 22.5819 85.5906 22.6677 84.9192 22.7102H84.92Z" fill="white"/>
<path d="M103.368 14.3506H101.809V22.3173H103.368V19.0118H105.145V17.7255H103.368V14.3506Z" fill="white"/>
<path d="M97.1309 21.9513C97.7348 21.9513 98.272 21.8533 98.7425 21.659C99.213 21.4647 99.5777 21.1915 99.8377 20.8393C100.097 20.4889 100.229 20.0821 100.234 19.6233C100.229 19.1644 100.098 18.7585 99.8377 18.4072C99.5777 18.0551 99.2138 17.7836 98.7451 17.5919C98.2763 17.3993 97.7392 17.3005 97.13 17.2961C96.5209 17.3013 95.9811 17.3993 95.5115 17.5919C95.0402 17.7836 94.6746 18.0551 94.4129 18.4072C94.1504 18.7576 94.0195 19.1644 94.0195 19.6233C94.0195 20.0821 94.1504 20.488 94.4129 20.8393C94.6746 21.1915 95.0428 21.4647 95.515 21.659C95.9872 21.8533 96.5261 21.9513 97.13 21.9513H97.1309ZM95.7264 19.0161C95.8581 18.8452 96.0444 18.7134 96.2879 18.6223C96.5313 18.5304 96.8129 18.4827 97.1309 18.4775C97.4541 18.4827 97.7374 18.5304 97.9809 18.6223C98.2235 18.7134 98.4141 18.8452 98.5493 19.0161C98.6844 19.187 98.7529 19.3899 98.7529 19.6241C98.7529 19.8583 98.6853 20.0596 98.5493 20.2252C98.4141 20.3918 98.2235 20.5193 97.9809 20.6086C97.7374 20.6979 97.4541 20.7422 97.1309 20.7422C96.8077 20.7422 96.5261 20.6979 96.2853 20.6086C96.0444 20.5193 95.8581 20.3918 95.7264 20.2252C95.5947 20.0587 95.5297 19.8583 95.5297 19.6241C95.5297 19.3899 95.5947 19.1879 95.7264 19.0161Z" fill="white"/>
<path d="M100.896 15.5744H97.9177V14.295H96.3521V15.5744H93.3594V16.8113H100.896V15.5744Z" fill="white"/>
<path d="M94.9023 24.1518H101.806V27.0479H103.366V22.9002H94.9023V24.1518Z" fill="white"/>
<path d="M114.343 16.8113V16.8954C114.343 17.6171 114.334 18.2233 114.318 18.7125C114.301 19.2026 114.261 19.7673 114.199 20.4074C114.136 21.0466 114.036 21.7258 113.9 22.4422L115.439 22.5905C115.579 21.8316 115.683 21.1203 115.751 20.4568C115.818 19.7933 115.861 19.2052 115.877 18.6926C115.894 18.1791 115.902 17.5763 115.902 16.8824V15.512H106.66V16.7696H114.344V16.8121L114.343 16.8113Z" fill="white"/>
<path d="M112.797 20.0882H111.259V24.1448H109.644V20.0882H108.085V24.1448H105.5V25.4173H117.061V24.1448H112.797V20.0882Z" fill="white"/>
<path d="M128.894 22.633C128.236 22.45 127.453 22.3581 126.545 22.3581C125.637 22.3581 124.837 22.45 124.175 22.633C123.512 22.816 123.005 23.0832 122.651 23.4345C122.298 23.7858 122.121 24.2082 122.121 24.7C122.121 25.1918 122.298 25.6142 122.651 25.9655C123.005 26.3167 123.512 26.5839 124.172 26.7669C124.832 26.9499 125.623 27.0419 126.546 27.0419C127.469 27.0419 128.243 26.9499 128.898 26.7669C129.554 26.5839 130.059 26.3167 130.412 25.9655C130.766 25.6142 130.942 25.1918 130.942 24.7C130.942 24.2082 130.766 23.7858 130.412 23.4345C130.059 23.0832 129.553 22.816 128.895 22.633H128.894ZM129.046 25.3184C128.826 25.4875 128.504 25.6159 128.083 25.7044C127.662 25.7937 127.149 25.8406 126.545 25.8449C125.932 25.8406 125.414 25.7937 124.992 25.7044C124.571 25.6159 124.253 25.4867 124.034 25.3184C123.817 25.1493 123.71 24.9437 123.715 24.7C123.71 24.4519 123.817 24.2429 124.034 24.0737C124.253 23.9046 124.571 23.7797 124.989 23.6947C125.408 23.6106 125.926 23.5672 126.545 23.5672C127.164 23.5672 127.67 23.6106 128.093 23.6947C128.517 23.7788 128.837 23.9046 129.053 24.0737C129.267 24.2429 129.375 24.4519 129.375 24.7C129.375 24.948 129.265 25.1501 129.046 25.3184Z" fill="white"/>
<path d="M127.33 18.9207H131.039V17.6552H123.833V14.5683H122.274V17.6552V18.232V18.9207H125.785V20.3206H120.777V21.5922H132.359V20.3206H127.33V18.9207Z" fill="white"/>
<path d="M141.016 18.8427H142.28V22.1612H143.769V14.3653H142.28V17.5711H141.016V14.5969H139.562V21.7613H141.016V18.8427Z" fill="white"/>
<path d="M136.146 19.0196C136.349 19.4619 136.596 19.8757 136.927 20.2356C137.355 20.6988 137.885 21.051 138.518 21.2895L139.346 20.1021C138.807 19.8965 138.355 19.6155 137.986 19.2616C137.619 18.9077 137.343 18.5122 137.158 18.0742C136.973 17.6361 136.881 17.1799 136.881 16.7063V15.139H135.372V16.7063C135.366 17.199 135.271 17.6847 135.083 18.1652C134.896 18.6458 134.608 19.0898 134.219 19.4975C133.831 19.9052 133.357 20.2313 132.801 20.4742L133.65 21.6833C134.287 21.4118 134.828 21.0163 135.273 20.4984C135.651 20.0587 135.93 19.5582 136.146 19.0196Z" fill="white"/>
<path d="M141.782 22.6434C141.126 22.4578 140.361 22.3659 139.485 22.3659C138.609 22.3659 137.822 22.4587 137.167 22.6434C136.512 22.829 136.008 23.0971 135.658 23.4483C135.306 23.7996 135.132 24.2194 135.137 24.7069C135.132 25.1892 135.306 25.6055 135.658 25.9542C136.008 26.3028 136.512 26.5717 137.167 26.7599C137.822 26.9473 138.595 27.041 139.485 27.041C140.374 27.041 141.126 26.9464 141.782 26.7599C142.437 26.5726 142.943 26.3037 143.299 25.9542C143.654 25.6055 143.832 25.1892 143.832 24.7069C143.832 24.2246 143.654 23.7996 143.299 23.4483C142.943 23.0971 142.437 22.829 141.782 22.6434ZM141.936 25.3357C141.716 25.5066 141.398 25.6367 140.981 25.7261C140.564 25.8154 140.066 25.8596 139.485 25.8596C138.905 25.8596 138.392 25.8154 137.975 25.7261C137.558 25.6367 137.241 25.5066 137.024 25.3357C136.806 25.1649 136.697 24.955 136.697 24.7069C136.697 24.4588 136.806 24.2463 137.024 24.0703C137.241 23.895 137.558 23.7623 137.975 23.673C138.393 23.5837 138.895 23.5394 139.485 23.5394C140.076 23.5394 140.559 23.5837 140.977 23.673C141.396 23.7623 141.717 23.895 141.936 24.0703C142.157 24.2463 142.268 24.458 142.273 24.7069C142.268 24.955 142.157 25.164 141.936 25.3357Z" fill="white"/>
<path d="M151.565 20.0804H154.128V21.8238H155.687V14.3506H154.128V16.2839H151.565V15.2995H145.609V21.0579H151.565V20.0804ZM154.128 17.5286V18.8019H151.565V17.5286H154.128ZM150.033 19.8141H147.161V16.5441H150.033V19.8141Z" fill="white"/>
<path d="M153.71 22.4535C153.06 22.2644 152.289 22.169 151.4 22.169C150.511 22.169 149.735 22.2644 149.09 22.4535C148.443 22.6434 147.946 22.9236 147.598 23.294C147.249 23.6643 147.074 24.1049 147.074 24.6158C147.074 25.1267 147.248 25.5639 147.598 25.9264C147.947 26.289 148.443 26.5665 149.09 26.7556C149.736 26.9456 150.505 27.041 151.4 27.041C152.295 27.041 153.06 26.9456 153.71 26.7556C154.361 26.5665 154.861 26.289 155.21 25.9264C155.559 25.5639 155.733 25.1267 155.733 24.6158C155.733 24.1049 155.559 23.6591 155.21 23.2905C154.862 22.9227 154.362 22.6434 153.71 22.4535ZM153.854 25.2794C153.641 25.465 153.326 25.6046 152.91 25.6983C152.493 25.792 151.99 25.8414 151.4 25.8458C150.81 25.8414 150.308 25.792 149.894 25.6983C149.479 25.6046 149.165 25.465 148.949 25.2794C148.733 25.0937 148.626 24.8734 148.626 24.615C148.626 24.3426 148.733 24.1145 148.949 23.9289C149.165 23.7433 149.478 23.6027 149.89 23.5073C150.303 23.4119 150.806 23.3634 151.4 23.3634C151.995 23.3634 152.499 23.4111 152.913 23.5073C153.328 23.6036 153.641 23.7441 153.854 23.9289C154.067 24.1145 154.174 24.3426 154.174 24.615C154.174 24.8734 154.067 25.0937 153.854 25.2794Z" fill="white"/>
<path d="M161.302 23.0442C161.233 23.0468 161.154 23.0485 161.084 23.0511V19.3084H159.554V23.0971C158.766 23.1161 157.949 23.1318 157.082 23.1396L157.243 24.3912C158.629 24.3998 159.976 24.3738 161.281 24.3105C162.588 24.2481 163.833 24.1197 165.017 23.9271L164.926 22.7597C163.793 22.9002 162.585 22.9956 161.302 23.0442Z" fill="white"/>
<path d="M167.159 14.3506H165.594V27.0479H167.159V20.8393H168.993V19.5253H167.159V14.3506Z" fill="white"/>
<path d="M162.674 18.9485C162.635 19.6467 162.542 20.4533 162.397 21.3667L163.942 21.5003C164.092 20.5626 164.188 19.7282 164.23 18.997C164.273 18.2658 164.296 17.4878 164.301 16.663V15.6716H157.762V16.9232H162.736C162.729 17.6483 162.709 18.33 162.674 18.9476V18.9485Z" fill="white"/>
<path d="M179.356 14.3506H177.797V22.3173H179.356V19.0118H181.134V17.7255H179.356V14.3506Z" fill="white"/>
<path d="M176.884 15.5744H173.906V14.295H172.34V15.5744H169.348V16.8113H176.884V15.5744Z" fill="white"/>
<path d="M173.123 21.9513C173.727 21.9513 174.264 21.8533 174.735 21.659C175.205 21.4647 175.57 21.1915 175.83 20.8393C176.089 20.4889 176.221 20.0821 176.227 19.6233C176.221 19.1644 176.09 18.7585 175.83 18.4072C175.57 18.0551 175.206 17.7836 174.737 17.5919C174.269 17.3993 173.731 17.3005 173.122 17.2961C172.513 17.3013 171.973 17.3993 171.504 17.5919C171.032 17.7836 170.667 18.0551 170.405 18.4072C170.143 18.7576 170.012 19.1644 170.012 19.6233C170.012 20.0821 170.143 20.488 170.405 20.8393C170.667 21.1915 171.035 21.4647 171.507 21.659C171.979 21.8533 172.518 21.9513 173.122 21.9513H173.123ZM171.718 19.0161C171.849 18.8452 172.036 18.7134 172.279 18.6223C172.523 18.5304 172.804 18.4827 173.122 18.4775C173.445 18.4827 173.729 18.5304 173.972 18.6223C174.215 18.7134 174.405 18.8452 174.541 19.0161C174.676 19.187 174.744 19.3899 174.744 19.6241C174.744 19.8583 174.677 20.0596 174.541 20.2252C174.405 20.3918 174.215 20.5193 173.972 20.6086C173.729 20.6979 173.445 20.7422 173.122 20.7422C172.799 20.7422 172.517 20.6979 172.277 20.6086C172.036 20.5193 171.849 20.3918 171.718 20.2252C171.586 20.0587 171.521 19.8583 171.521 19.6241C171.521 19.3899 171.586 19.1879 171.718 19.0161Z" fill="white"/>
<path d="M170.895 24.1518H177.798V27.0479H179.357V22.9002H170.895V24.1518Z" fill="white"/>
<path d="M189.593 22.5801C188.917 22.3945 188.121 22.3026 187.202 22.3026C186.284 22.3026 185.502 22.3954 184.828 22.5801C184.154 22.7657 183.633 23.0381 183.266 23.3989C182.899 23.7606 182.715 24.1865 182.715 24.6791C182.715 25.1718 182.899 25.5925 183.266 25.9446C183.633 26.295 184.154 26.5665 184.828 26.7556C185.502 26.9456 186.294 27.041 187.202 27.041C188.11 27.041 188.917 26.9456 189.593 26.7556C190.27 26.5665 190.791 26.295 191.156 25.9446C191.521 25.5925 191.706 25.1701 191.711 24.6791C191.706 24.1821 191.521 23.7545 191.156 23.3954C190.791 23.0372 190.27 22.7649 189.593 22.5801ZM189.801 25.3115C189.568 25.4849 189.23 25.6168 188.79 25.7052C188.35 25.7946 187.821 25.8414 187.203 25.8458C186.59 25.8414 186.064 25.7946 185.627 25.7052C185.189 25.6168 184.854 25.4849 184.622 25.3115C184.391 25.1389 184.274 24.9281 184.274 24.6791C184.274 24.4302 184.391 24.2073 184.622 24.0252C184.854 23.8421 185.189 23.7042 185.63 23.6106C186.07 23.516 186.594 23.47 187.203 23.47C187.812 23.47 188.344 23.516 188.787 23.6106C189.229 23.7042 189.568 23.8421 189.801 24.0252C190.035 24.2082 190.155 24.4259 190.16 24.6791C190.155 24.9272 190.035 25.138 189.801 25.3115Z" fill="white"/>
<path d="M187.519 17.8096H185.974V20.1081H181.508V21.3736H193.038V20.1081H187.519V17.8096Z" fill="white"/>
<path d="M190.01 17.7116C189.97 18.1618 189.88 18.67 189.74 19.2364L191.278 19.3917C191.432 18.8244 191.531 18.2962 191.572 17.8096C191.614 17.323 191.637 16.741 191.642 16.0662V14.9551H182.836V16.1928H190.075C190.069 16.7714 190.048 17.2805 190.01 17.7116Z" fill="white"/>
<path d="M201.754 22.6859C201.099 22.5055 200.315 22.4145 199.401 22.4145C198.488 22.4145 197.688 22.5055 197.027 22.6859C196.367 22.8664 195.861 23.1309 195.507 23.4796C195.153 23.8283 194.977 24.2498 194.977 24.7416C194.977 25.2334 195.153 25.6445 195.507 25.9897C195.86 26.3341 196.367 26.5986 197.027 26.7834C197.688 26.9681 198.479 27.0635 199.401 27.0687C200.315 27.0635 201.101 26.969 201.761 26.7834C202.421 26.5978 202.926 26.335 203.274 25.9923C203.623 25.6497 203.798 25.2334 203.798 24.7407C203.798 24.2481 203.621 23.8274 203.268 23.4787C202.914 23.13 202.41 22.8646 201.754 22.6851V22.6859ZM201.901 25.3574C201.681 25.524 201.361 25.6489 200.943 25.733C200.524 25.8171 200.01 25.8605 199.401 25.8605C198.793 25.8605 198.265 25.8171 197.845 25.733C197.427 25.6489 197.108 25.524 196.891 25.3574C196.673 25.1909 196.566 24.9862 196.572 24.7425C196.566 24.4987 196.673 24.2923 196.891 24.124C197.109 23.9549 197.427 23.8291 197.845 23.7441C198.264 23.66 198.783 23.6175 199.401 23.6175C200.02 23.6175 200.517 23.66 200.939 23.7441C201.36 23.8283 201.682 23.9558 201.902 24.1275C202.122 24.2984 202.231 24.5039 202.231 24.7425C202.231 24.981 202.121 25.1918 201.902 25.3574H201.901Z" fill="white"/>
<path d="M200.183 19.2304H203.884V17.9857H196.602V16.1503H203.806V14.9274H195.063V17.9857V18.7871V19.2304H198.659V20.4455H193.637V21.6833H205.218V20.4455H200.183V19.2304Z" fill="white"/>
<path d="M216.377 14.3506H214.797V27.0479H216.377V14.3506Z" fill="white"/>
<path d="M211.038 15.701H206.494V16.9388H210.988C210.915 17.709 210.757 18.4237 210.504 19.076C210.148 19.9945 209.588 20.8254 208.826 21.5679C208.062 22.3104 207.069 22.973 205.848 23.555L206.676 24.8058C208.109 24.1266 209.262 23.3226 210.136 22.3945C211.009 21.4664 211.635 20.4507 212.014 19.3466C212.394 18.2433 212.586 17.0281 212.591 15.701H211.038H211.038Z" fill="white"/>
<path d="M223.182 15.701H218.639V16.9388H223.133C223.059 17.709 222.901 18.4237 222.648 19.076C222.292 19.9945 221.733 20.8254 220.97 21.5679C220.207 22.3104 219.214 22.973 217.992 23.555L218.821 24.8058C220.254 24.1266 221.407 23.3226 222.28 22.3945C223.154 21.4664 223.78 20.4507 224.159 19.3466C224.539 18.2433 224.73 17.0281 224.736 15.701H223.183H223.182Z" fill="white"/>
<path d="M228.518 14.3506H226.938V27.0479H228.518V14.3506Z" fill="white"/>
<path d="M236.645 21.7822V22.8646H239.145V23.9757H240.704V14.3653H239.145V21.7822H236.645Z" fill="white"/>
<path d="M233.254 25.5439V23.0485H231.688V25.5439V25.8882V26.8233H241V25.5439H233.254Z" fill="white"/>
<path d="M232.487 19.03C232.964 19.2156 233.514 19.3075 234.136 19.3075C234.759 19.3075 235.304 19.2147 235.784 19.03C236.264 18.8444 236.635 18.5859 236.9 18.2528C237.164 17.9206 237.297 17.5294 237.297 17.0793C237.297 16.6291 237.164 16.2466 236.9 15.9014C236.635 15.5571 236.262 15.2908 235.78 15.1034C235.297 14.9161 234.75 14.825 234.136 14.8293C233.518 14.8241 232.969 14.9161 232.488 15.1034C232.008 15.2908 231.635 15.5579 231.369 15.9014C231.101 16.2466 230.969 16.6387 230.969 17.0793C230.969 17.5199 231.102 17.9206 231.369 18.2528C231.635 18.5859 232.008 18.8452 232.485 19.03H232.487ZM232.663 16.4886C232.803 16.3195 233 16.1937 233.253 16.1087C233.506 16.0246 233.799 15.9821 234.136 15.9821C234.474 15.9821 234.754 16.0246 235.007 16.1087C235.26 16.1928 235.457 16.3195 235.597 16.4886C235.738 16.6577 235.809 16.8538 235.809 17.0793C235.809 17.3048 235.738 17.5 235.597 17.6665C235.457 17.833 235.26 17.9597 235.007 18.0464C234.754 18.1331 234.464 18.1765 234.136 18.1765C233.809 18.1765 233.505 18.1331 233.253 18.0464C233.001 17.9597 232.803 17.8339 232.663 17.67C232.522 17.506 232.451 17.3091 232.451 17.0793C232.451 16.8494 232.522 16.6577 232.663 16.4886Z" fill="white"/>
<path d="M233.506 23.6236H235.071V21.1793C236.176 21.1047 237.25 20.9937 238.274 20.8263L238.19 19.7013C237.005 19.8462 235.768 19.9425 234.478 19.9893C233.188 20.0361 231.695 20.0674 230 20.0804L230.19 21.325C231.339 21.3285 232.436 21.3034 233.505 21.2626V23.6236H233.506Z" fill="white"/>
<path d="M61.7855 35.3937H61.1357L58.7729 31.9815H58.7313V35.3937H58.0234V30.7281H58.6802L61.0395 34.1438H61.0811V30.7281H61.7864V35.3937H61.7855Z" fill="white"/>
<path d="M64.4259 33.8229C64.3739 33.8264 64.2959 33.8316 64.1928 33.8403C64.049 33.8463 63.9138 33.8559 63.7873 33.8663C63.556 33.8828 63.3758 33.9374 63.2501 34.0276C63.1236 34.1178 63.0595 34.2471 63.0569 34.4145C63.0569 34.5237 63.0855 34.6166 63.1435 34.6929C63.2016 34.7692 63.2796 34.8265 63.3766 34.8655C63.4737 34.9045 63.588 34.9227 63.7197 34.9201C63.9 34.9201 64.0576 34.8837 64.1928 34.8126C64.328 34.7406 64.4319 34.6443 64.5047 34.5246C64.5784 34.4049 64.6139 34.2731 64.6139 34.1317L64.6104 33.0301C64.6104 32.8974 64.5836 32.7838 64.5316 32.6901C64.4796 32.5965 64.399 32.5262 64.2916 32.4776C64.1841 32.4291 64.0533 32.4048 63.8991 32.4048C63.7015 32.4048 63.5412 32.4447 63.4182 32.5253C63.2952 32.606 63.2163 32.7136 63.1817 32.8489H62.4929C62.5145 32.6554 62.5873 32.4828 62.7103 32.3319C62.8334 32.1801 62.9989 32.0622 63.2077 31.9772C63.4165 31.8922 63.6539 31.8497 63.9225 31.8497C64.1478 31.8497 64.3626 31.8835 64.568 31.9511C64.7733 32.0188 64.9457 32.1437 65.0844 32.325C65.2239 32.5062 65.2932 32.7552 65.2932 33.0709V35.3937H64.6269V34.9132H64.6009C64.5238 35.0676 64.3981 35.1994 64.224 35.3061C64.0498 35.4137 63.8306 35.4683 63.5638 35.47C63.3385 35.4674 63.1366 35.4258 62.959 35.3425C62.7814 35.2593 62.6401 35.1387 62.537 34.9782C62.4339 34.8178 62.3828 34.6278 62.3828 34.4066C62.3828 34.0432 62.505 33.7847 62.7493 33.6304C62.9937 33.476 63.3073 33.3858 63.6894 33.3597C63.7925 33.3511 63.9086 33.3433 64.0368 33.3354C64.1651 33.3276 64.2907 33.3207 64.4137 33.3146C64.4935 33.312 64.5723 33.3103 64.652 33.3086L64.6581 33.8082C64.555 33.8142 64.477 33.8194 64.425 33.8229H64.4259Z" fill="white"/>
<path d="M67.6232 32.4421H65.7109V31.8939H67.6232V32.4421ZM66.9153 31.0569V34.3659C66.9153 34.4882 66.9335 34.5836 66.9699 34.6512C67.0063 34.7189 67.0548 34.7657 67.1146 34.7918C67.1744 34.8178 67.2463 34.8308 67.3303 34.8308C67.3667 34.8308 67.4066 34.8308 67.4507 34.8273C67.4949 34.8247 67.5383 34.8239 67.5807 34.8239L67.6743 34.8178V35.4111C67.5478 35.4301 67.4066 35.4397 67.2497 35.4397C67.0634 35.4397 66.8919 35.405 66.7359 35.3347C66.5808 35.2645 66.4561 35.1595 66.3625 35.0207C66.2689 34.8811 66.2221 34.7094 66.2221 34.5055V31.0578H66.9144L66.9153 31.0569Z" fill="white"/>
<path d="M68.2921 31.2963C68.2272 31.2581 68.1743 31.2095 68.1362 31.148C68.0972 31.0864 68.0781 31.0196 68.0781 30.9467C68.0781 30.8739 68.0972 30.8054 68.1362 30.7438C68.1752 30.6813 68.2272 30.6319 68.2921 30.5954C68.3571 30.559 68.4299 30.5408 68.5096 30.5408C68.5893 30.5408 68.6586 30.559 68.7254 30.5954C68.7921 30.6319 68.8449 30.6813 68.8848 30.7438C68.9246 30.8062 68.9446 30.8739 68.9446 30.9467C68.9446 31.0196 68.9246 31.0872 68.8848 31.148C68.8458 31.2095 68.7921 31.2581 68.7254 31.2963C68.6586 31.3344 68.5867 31.3527 68.5096 31.3527C68.4325 31.3527 68.3571 31.3344 68.2921 31.2963ZM68.1682 31.8948H68.8536V35.3937H68.1682V31.8948Z" fill="white"/>
<path d="M70.1739 35.2384C69.927 35.0875 69.7364 34.8768 69.6012 34.6053C69.466 34.3338 69.3984 34.0181 69.3984 33.6598C69.3984 33.3016 69.466 32.9824 69.6012 32.7092C69.7364 32.436 69.927 32.2252 70.1739 32.0743C70.4208 31.9234 70.7085 31.8488 71.0369 31.8488C71.3653 31.8488 71.646 31.9234 71.8929 32.0743C72.1399 32.2252 72.3296 32.436 72.463 32.7092C72.5956 32.9824 72.6623 33.299 72.6623 33.6598C72.6623 34.0207 72.5956 34.3338 72.463 34.6053C72.3305 34.8768 72.1407 35.0875 71.8929 35.2384C71.646 35.3894 71.3609 35.464 71.0369 35.464C70.7128 35.464 70.4217 35.3894 70.1739 35.2384ZM71.5524 34.7267C71.6936 34.6174 71.7976 34.4691 71.8661 34.2817C71.9345 34.0953 71.9692 33.8862 71.9692 33.6564C71.9692 33.4265 71.9345 33.2184 71.8661 33.031C71.7976 32.8445 71.6928 32.6953 71.5524 32.5852C71.412 32.475 71.2396 32.4195 71.036 32.4195C70.8324 32.4195 70.6565 32.475 70.5144 32.5852C70.3723 32.6953 70.2675 32.8445 70.1973 33.031C70.1271 33.2175 70.0916 33.4265 70.0899 33.6564C70.0925 33.8862 70.128 34.0944 70.1973 34.2817C70.2675 34.4682 70.3723 34.6165 70.5144 34.7267C70.6556 34.836 70.8298 34.8906 71.036 34.8906C71.2422 34.8906 71.412 34.836 71.5524 34.7267Z" fill="white"/>
<path d="M73.9002 35.3937H73.2148V31.8948H73.8716V32.4655H73.9167C74.0007 32.2721 74.1298 32.1211 74.3048 32.0127C74.4798 31.9043 74.6947 31.8497 74.9503 31.8497C75.1912 31.8497 75.3991 31.9 75.5768 31.9997C75.7535 32.0995 75.8913 32.2486 75.9883 32.4473C76.0854 32.6459 76.1347 32.8862 76.1347 33.1672V35.3937H75.4494V33.2478C75.4494 33.083 75.4208 32.9391 75.3627 32.8176C75.3047 32.6962 75.2206 32.6043 75.1097 32.5409C74.9997 32.4776 74.8671 32.4455 74.712 32.4455C74.557 32.4455 74.4131 32.4794 74.2901 32.547C74.1671 32.6147 74.0717 32.7144 74.0033 32.8463C73.9349 32.9781 73.9002 33.1351 73.9002 33.3181V35.3928V35.3937Z" fill="white"/>
<path d="M78.7188 33.8229C78.6669 33.8264 78.5889 33.8316 78.4858 33.8403C78.3419 33.8463 78.2068 33.8559 78.0803 33.8663C77.8489 33.8828 77.6687 33.9374 77.5431 34.0276C77.4166 34.1178 77.3525 34.2471 77.3499 34.4145C77.3499 34.5237 77.3785 34.6166 77.4365 34.6929C77.4946 34.7692 77.5725 34.8265 77.6696 34.8655C77.7666 34.9045 77.881 34.9227 78.0127 34.9201C78.1929 34.9201 78.3506 34.8837 78.4858 34.8126C78.6209 34.7406 78.7249 34.6443 78.7977 34.5246C78.8713 34.4049 78.9069 34.2731 78.9069 34.1317L78.9034 33.0301C78.9034 32.8974 78.8765 32.7838 78.8245 32.6901C78.7726 32.5965 78.692 32.5262 78.5845 32.4776C78.4771 32.4291 78.3463 32.4048 78.192 32.4048C77.9945 32.4048 77.8342 32.4447 77.7112 32.5253C77.5881 32.606 77.5093 32.7136 77.4746 32.8489H76.7858C76.8075 32.6554 76.8803 32.4828 77.0033 32.3319C77.1263 32.1801 77.2918 32.0622 77.5006 31.9772C77.7094 31.8922 77.9468 31.8497 78.2154 31.8497C78.4407 31.8497 78.6556 31.8835 78.8609 31.9511C79.0663 32.0188 79.2387 32.1437 79.3773 32.325C79.5168 32.5062 79.5861 32.7552 79.5861 33.0709V35.3937H78.9199V34.9132H78.8939C78.8167 35.0676 78.6911 35.1994 78.517 35.3061C78.3428 35.4137 78.1236 35.4683 77.8567 35.47C77.6315 35.4674 77.4296 35.4258 77.252 35.3425C77.0743 35.2593 76.9331 35.1387 76.83 34.9782C76.7269 34.8178 76.6758 34.6278 76.6758 34.4066C76.6758 34.0432 76.7979 33.7847 77.0423 33.6304C77.2866 33.476 77.6003 33.3858 77.9824 33.3597C78.0855 33.3511 78.2016 33.3433 78.3298 33.3354C78.458 33.3276 78.5837 33.3207 78.7067 33.3146C78.7864 33.312 78.8653 33.3103 78.945 33.3086L78.9511 33.8082C78.8479 33.8142 78.77 33.8194 78.718 33.8229H78.7188Z" fill="white"/>
<path d="M80.9744 35.3937H80.2891V30.7281H80.9744V35.3937Z" fill="white"/>
<path d="M83.9188 35.3937H83.2109V30.7281H83.9188V35.3937Z" fill="white"/>
<path d="M85.3689 35.3937H84.6836V31.8948H85.3404V32.4655H85.3854C85.4695 32.2721 85.5986 32.1211 85.7736 32.0127C85.9486 31.9043 86.1635 31.8497 86.4191 31.8497C86.6599 31.8497 86.8679 31.9 87.0455 31.9997C87.2223 32.0995 87.36 32.2486 87.4571 32.4473C87.5541 32.6459 87.6035 32.8862 87.6035 33.1672V35.3937H86.9181V33.2478C86.9181 33.083 86.8896 32.9391 86.8315 32.8176C86.7734 32.6962 86.6894 32.6043 86.5785 32.5409C86.4685 32.4776 86.3359 32.4455 86.1808 32.4455C86.0257 32.4455 85.8819 32.4794 85.7588 32.547C85.6358 32.6147 85.5405 32.7144 85.4721 32.8463C85.4036 32.9781 85.3689 33.1351 85.3689 33.3181V35.3928V35.3937Z" fill="white"/>
<path d="M90.0524 32.5132C89.9407 32.4317 89.7925 32.3909 89.6079 32.3909C89.4788 32.3909 89.3645 32.4108 89.2622 32.4525C89.16 32.4932 89.0794 32.5496 89.0205 32.6216C88.9616 32.6936 88.9321 32.7743 88.9321 32.8619C88.9347 32.9651 88.9798 33.0536 89.0673 33.1273C89.1548 33.201 89.2934 33.26 89.4823 33.3025L90.0394 33.4317C90.3592 33.5055 90.5983 33.6191 90.7568 33.7761C90.9154 33.9331 90.996 34.1334 90.9986 34.3789C90.996 34.5914 90.9379 34.7796 90.8244 34.9427C90.7109 35.1066 90.5463 35.2333 90.3306 35.3261C90.1148 35.4189 89.8601 35.4648 89.5664 35.4648C89.29 35.4648 89.0508 35.4249 88.849 35.3443C88.6471 35.2636 88.4868 35.1465 88.3681 34.9947C88.2494 34.8421 88.174 34.6573 88.1445 34.4405H88.8498C88.8793 34.5975 88.9547 34.7154 89.0734 34.7952C89.1921 34.875 89.3549 34.9141 89.5612 34.9115C89.7093 34.9115 89.8384 34.8932 89.9502 34.8551C90.062 34.8169 90.1477 34.7623 90.2058 34.6911C90.2647 34.6192 90.2942 34.5342 90.2942 34.4353C90.2942 34.3234 90.2508 34.2306 90.1642 34.1569C90.0776 34.0831 89.9407 34.0241 89.7535 33.9816L89.2094 33.8593C88.8966 33.7908 88.6583 33.6746 88.4946 33.5115C88.3308 33.3476 88.2502 33.1446 88.2502 32.9026C88.2502 32.6988 88.3066 32.5167 88.4192 32.3562C88.5318 32.1957 88.6904 32.0717 88.894 31.9841C89.0976 31.8965 89.335 31.8523 89.6054 31.8523C89.8592 31.8523 90.0819 31.893 90.2751 31.9763C90.4683 32.0596 90.62 32.1749 90.7309 32.3258C90.8409 32.4768 90.9067 32.6511 90.9284 32.8515H90.2716C90.237 32.7101 90.1642 32.5973 90.0524 32.5167V32.5132Z" fill="white"/>
<path d="M93.17 32.4421H91.2578V31.8939H93.17V32.4421ZM92.4622 31.0569V34.3659C92.4622 34.4882 92.4804 34.5836 92.5168 34.6512C92.5531 34.7189 92.6017 34.7657 92.6614 34.7918C92.7212 34.8178 92.7931 34.8308 92.8772 34.8308C92.9136 34.8308 92.9534 34.8308 92.9976 34.8273C93.0418 34.8247 93.0851 34.8239 93.1276 34.8239L93.2212 34.8178V35.4111C93.0947 35.4301 92.9534 35.4397 92.7966 35.4397C92.6103 35.4397 92.4388 35.405 92.2828 35.3347C92.1277 35.2645 92.003 35.1595 91.9094 35.0207C91.8158 34.8811 91.769 34.7094 91.769 34.5055V31.0578H92.4613L92.4622 31.0569Z" fill="white"/>
<path d="M93.7148 31.8948H94.3777V32.4551H94.4167C94.479 32.266 94.5908 32.1168 94.7511 32.0075C94.9114 31.8982 95.0933 31.8427 95.2952 31.8401C95.459 31.8445 95.5569 31.8505 95.5916 31.8592V32.5167C95.5508 32.5063 95.4971 32.4958 95.4304 32.4863C95.3637 32.4768 95.2978 32.4716 95.2311 32.4716C95.0743 32.4716 94.9331 32.5063 94.8083 32.5748C94.6827 32.6433 94.5839 32.7378 94.5102 32.8567C94.4366 32.9755 94.4011 33.1108 94.4011 33.2609V35.3937H93.7157V31.8948H93.7148Z" fill="white"/>
<path d="M98.1986 31.8948H98.8813V35.3937H98.2115V34.7883H98.1726C98.0868 34.9843 97.9542 35.1413 97.7749 35.2601C97.5955 35.379 97.3806 35.4388 97.1294 35.4388C96.8998 35.4388 96.6988 35.3876 96.5255 35.287C96.3522 35.1864 96.2187 35.0364 96.1234 34.8377C96.0273 34.6391 95.9805 34.3988 95.9805 34.1178V31.8948H96.6658V34.0372C96.6658 34.1941 96.6953 34.3303 96.7559 34.4466C96.8166 34.5628 96.8989 34.653 97.0055 34.7172C97.112 34.7814 97.2351 34.8134 97.3737 34.8134C97.5063 34.816 97.6371 34.7831 97.7645 34.7154C97.8927 34.6478 97.9958 34.5489 98.0764 34.4171C98.157 34.2861 98.1968 34.1265 98.1968 33.9374V31.8948H98.1986Z" fill="white"/>
<path d="M99.5859 31.8948H100.243V32.4655H100.288C100.361 32.2721 100.48 32.1211 100.645 32.0127C100.809 31.9043 101.008 31.8497 101.237 31.8497C101.39 31.8497 101.528 31.8731 101.651 31.9208C101.774 31.9685 101.88 32.0379 101.968 32.1298C102.055 32.2226 102.125 32.3336 102.177 32.4646H102.212C102.27 32.3397 102.35 32.2313 102.45 32.1376C102.551 32.0439 102.67 31.9728 102.807 31.9234C102.945 31.8739 103.097 31.8497 103.265 31.8497C103.48 31.8497 103.668 31.8948 103.83 31.985C103.992 32.0752 104.118 32.2105 104.209 32.3909C104.3 32.5713 104.346 32.7916 104.346 33.0518V35.3946H103.657V33.1169C103.655 32.8914 103.594 32.7231 103.474 32.6112C103.354 32.4993 103.197 32.4438 103.004 32.4438C102.858 32.4438 102.733 32.4742 102.629 32.5357C102.525 32.5973 102.444 32.6815 102.389 32.7899C102.333 32.8983 102.304 33.0232 102.302 33.1654V35.3954H101.619V33.0692C101.619 32.9469 101.593 32.8376 101.542 32.7422C101.491 32.6459 101.416 32.573 101.319 32.5219C101.222 32.4707 101.11 32.4447 100.986 32.4447C100.862 32.4447 100.739 32.4776 100.631 32.5444C100.523 32.6112 100.435 32.7049 100.37 32.8263C100.305 32.9477 100.272 33.0848 100.272 33.2374V35.3963H99.5868V31.8974L99.5859 31.8948Z" fill="white"/>
<path d="M105.677 35.2419C105.426 35.0936 105.232 34.8846 105.097 34.6139C104.962 34.3433 104.895 34.0285 104.895 33.6703C104.895 33.312 104.962 32.9972 105.097 32.7196C105.232 32.4421 105.421 32.2287 105.666 32.0769C105.909 31.9251 106.192 31.8497 106.514 31.8497C106.795 31.8497 107.053 31.9104 107.288 32.0318C107.522 32.1532 107.71 32.3449 107.853 32.6086C107.995 32.8723 108.065 33.2036 108.065 33.6061V33.8481H105.281V33.3354H107.392C107.392 33.1611 107.356 33.0041 107.285 32.8636C107.213 32.7222 107.11 32.6129 106.977 32.5331C106.845 32.4533 106.692 32.4143 106.521 32.4143C106.335 32.4143 106.17 32.4594 106.029 32.5496C105.887 32.6398 105.777 32.7613 105.699 32.9139C105.621 33.0666 105.58 33.2296 105.578 33.404V33.8038C105.578 34.0337 105.62 34.2306 105.704 34.3954C105.788 34.5593 105.903 34.6851 106.051 34.7727C106.199 34.8594 106.371 34.9028 106.566 34.9028C106.691 34.9002 106.803 34.8828 106.904 34.8481C107.004 34.8134 107.09 34.7683 107.159 34.7128C107.23 34.6573 107.284 34.5931 107.325 34.5194H108.023C107.97 34.7102 107.877 34.8768 107.745 35.019C107.613 35.1604 107.446 35.2714 107.243 35.3495C107.04 35.4275 106.813 35.4674 106.562 35.4674C106.223 35.4674 105.927 35.3937 105.676 35.2454L105.677 35.2419Z" fill="white"/>
<path d="M109.299 35.3937H108.613V31.8948H109.27V32.4655H109.315C109.399 32.2721 109.528 32.1211 109.703 32.0127C109.878 31.9043 110.093 31.8497 110.349 31.8497C110.59 31.8497 110.798 31.9 110.975 31.9997C111.152 32.0995 111.29 32.2486 111.387 32.4473C111.484 32.6459 111.533 32.8862 111.533 33.1672V35.3937H110.848V33.2478C110.848 33.083 110.819 32.9391 110.761 32.8176C110.703 32.6962 110.619 32.6043 110.508 32.5409C110.398 32.4776 110.266 32.4455 110.11 32.4455C109.955 32.4455 109.812 32.4794 109.689 32.547C109.565 32.6147 109.47 32.7144 109.402 32.8463C109.333 32.9781 109.299 33.1351 109.299 33.3181V35.3928V35.3937Z" fill="white"/>
<path d="M113.869 32.4421H111.957V31.8939H113.869V32.4421ZM113.161 31.0569V34.3659C113.161 34.4882 113.18 34.5836 113.216 34.6512C113.252 34.7189 113.301 34.7657 113.361 34.7918C113.421 34.8178 113.492 34.8308 113.576 34.8308C113.613 34.8308 113.653 34.8308 113.697 34.8273C113.741 34.8247 113.784 34.8239 113.827 34.8239L113.92 34.8178V35.4111C113.794 35.4301 113.653 35.4397 113.496 35.4397C113.31 35.4397 113.138 35.405 112.982 35.3347C112.827 35.2645 112.702 35.1595 112.609 35.0207C112.515 34.8811 112.468 34.7094 112.468 34.5055V31.0578H113.161L113.161 31.0569Z" fill="white"/>
<path d="M116.293 33.8229C116.241 33.8264 116.163 33.8316 116.06 33.8403C115.916 33.8463 115.781 33.8559 115.655 33.8663C115.423 33.8828 115.243 33.9374 115.117 34.0276C114.991 34.1178 114.927 34.2471 114.924 34.4145C114.924 34.5237 114.953 34.6166 115.011 34.6929C115.069 34.7692 115.147 34.8265 115.244 34.8655C115.341 34.9045 115.455 34.9227 115.587 34.9201C115.767 34.9201 115.925 34.8837 116.06 34.8126C116.195 34.7406 116.299 34.6443 116.372 34.5246C116.446 34.4049 116.481 34.2731 116.481 34.1317L116.478 33.0301C116.478 32.8974 116.451 32.7838 116.399 32.6901C116.347 32.5965 116.266 32.5262 116.159 32.4776C116.051 32.4291 115.92 32.4048 115.766 32.4048C115.569 32.4048 115.408 32.4447 115.285 32.5253C115.162 32.606 115.084 32.7136 115.049 32.8489H114.36C114.382 32.6554 114.454 32.4828 114.578 32.3319C114.701 32.1801 114.866 32.0622 115.075 31.9772C115.284 31.8922 115.521 31.8497 115.79 31.8497C116.015 31.8497 116.23 31.8835 116.435 31.9511C116.641 32.0188 116.813 32.1437 116.952 32.325C117.091 32.5062 117.16 32.7552 117.16 33.0709V35.3937H116.494V34.9132H116.468C116.391 35.0676 116.265 35.1994 116.091 35.3061C115.917 35.4137 115.698 35.4683 115.431 35.47C115.206 35.4674 115.004 35.4258 114.826 35.3425C114.649 35.2593 114.507 35.1387 114.404 34.9782C114.301 34.8178 114.25 34.6278 114.25 34.4066C114.25 34.0432 114.372 33.7847 114.617 33.6304C114.861 33.476 115.174 33.3858 115.557 33.3597C115.66 33.3511 115.776 33.3433 115.904 33.3354C116.032 33.3276 116.158 33.3207 116.281 33.3146C116.361 33.312 116.439 33.3103 116.519 33.3086L116.525 33.8082C116.422 33.8142 116.344 33.8194 116.292 33.8229H116.293Z" fill="white"/>
<path d="M119.49 32.4421H117.578V31.8939H119.49V32.4421ZM118.782 31.0569V34.3659C118.782 34.4882 118.801 34.5836 118.837 34.6512C118.873 34.7189 118.922 34.7657 118.982 34.7918C119.042 34.8178 119.113 34.8308 119.197 34.8308C119.234 34.8308 119.274 34.8308 119.318 34.8273C119.362 34.8247 119.405 34.8239 119.448 34.8239L119.541 34.8178V35.4111C119.415 35.4301 119.274 35.4397 119.117 35.4397C118.931 35.4397 118.759 35.405 118.603 35.3347C118.448 35.2645 118.323 35.1595 118.23 35.0207C118.136 34.8811 118.089 34.7094 118.089 34.5055V31.0578H118.782L118.782 31.0569Z" fill="white"/>
<path d="M120.159 31.2963C120.094 31.2581 120.041 31.2095 120.003 31.148C119.965 31.0864 119.945 31.0196 119.945 30.9467C119.945 30.8739 119.964 30.8054 120.003 30.7438C120.042 30.6822 120.094 30.6319 120.159 30.5954C120.224 30.559 120.297 30.5408 120.377 30.5408C120.457 30.5408 120.526 30.559 120.593 30.5954C120.659 30.6319 120.712 30.6813 120.752 30.7438C120.792 30.8062 120.812 30.8739 120.812 30.9467C120.812 31.0196 120.792 31.0872 120.752 31.148C120.713 31.2095 120.659 31.2581 120.593 31.2963C120.526 31.3344 120.454 31.3527 120.377 31.3527C120.3 31.3527 120.224 31.3344 120.159 31.2963ZM120.035 31.8948H120.721V35.3937H120.035V31.8948Z" fill="white"/>
<path d="M122.041 35.2384C121.794 35.0875 121.604 34.8768 121.468 34.6053C121.333 34.3338 121.266 34.0181 121.266 33.6598C121.266 33.3016 121.333 32.9824 121.468 32.7092C121.604 32.436 121.794 32.2252 122.041 32.0743C122.288 31.9234 122.576 31.8488 122.904 31.8488C123.232 31.8488 123.513 31.9234 123.76 32.0743C124.007 32.2252 124.197 32.436 124.33 32.7092C124.463 32.9824 124.53 33.299 124.53 33.6598C124.53 34.0207 124.463 34.3338 124.33 34.6053C124.198 34.8768 124.008 35.0875 123.76 35.2384C123.513 35.3894 123.228 35.464 122.904 35.464C122.58 35.464 122.289 35.3894 122.041 35.2384ZM123.42 34.7267C123.562 34.6174 123.666 34.4691 123.734 34.2817C123.803 34.0953 123.837 33.8862 123.837 33.6564C123.837 33.4265 123.803 33.2184 123.734 33.031C123.666 32.8445 123.561 32.6953 123.42 32.5852C123.28 32.475 123.108 32.4195 122.904 32.4195C122.7 32.4195 122.525 32.475 122.382 32.5852C122.241 32.6953 122.136 32.8445 122.065 33.031C121.995 33.2175 121.96 33.4265 121.958 33.6564C121.961 33.8862 121.996 34.0944 122.065 34.2817C122.136 34.4682 122.24 34.6165 122.382 34.7267C122.524 34.836 122.698 34.8906 122.904 34.8906C123.11 34.8906 123.28 34.836 123.42 34.7267Z" fill="white"/>
<path d="M125.771 35.3937H125.086V31.8948H125.743V32.4655H125.788C125.872 32.2721 126.001 32.1211 126.176 32.0127C126.351 31.9043 126.566 31.8497 126.821 31.8497C127.062 31.8497 127.27 31.9 127.448 31.9997C127.625 32.0995 127.762 32.2486 127.859 32.4473C127.956 32.6459 128.006 32.8862 128.006 33.1672V35.3937H127.32V33.2478C127.32 33.083 127.292 32.9391 127.234 32.8176C127.176 32.6962 127.092 32.6043 126.981 32.5409C126.871 32.4776 126.738 32.4455 126.583 32.4455C126.428 32.4455 126.284 32.4794 126.161 32.547C126.038 32.6147 125.943 32.7144 125.874 32.8463C125.806 32.9781 125.771 33.1351 125.771 33.3181V35.3928V35.3937Z" fill="white"/>
<path d="M133.172 31.743C133.057 31.6016 132.916 31.494 132.748 31.4212C132.58 31.3474 132.395 31.3119 132.196 31.3119C131.925 31.3119 131.685 31.3804 131.473 31.5166C131.262 31.6528 131.095 31.8523 130.974 32.1159C130.853 32.3796 130.792 32.6945 130.792 33.0614C130.792 33.4283 130.853 33.7457 130.974 34.0068C131.095 34.2679 131.262 34.4665 131.471 34.6027C131.681 34.7388 131.922 34.8082 132.192 34.8108C132.392 34.8082 132.576 34.7709 132.744 34.6998C132.912 34.6278 133.054 34.5229 133.169 34.3841C133.284 34.2453 133.361 34.0805 133.402 33.8897L134.113 33.8932C134.064 34.1985 133.951 34.4691 133.777 34.7068C133.602 34.9444 133.378 35.1292 133.105 35.261C132.831 35.3928 132.526 35.4588 132.189 35.4588C131.783 35.4588 131.422 35.3625 131.106 35.1691C130.79 34.9756 130.542 34.6981 130.362 34.3364C130.183 33.9747 130.094 33.5497 130.094 33.0622C130.094 32.5748 130.184 32.1498 130.364 31.7881C130.544 31.4264 130.793 31.1488 131.109 30.9554C131.425 30.762 131.786 30.6657 132.189 30.6657C132.52 30.6657 132.82 30.7281 133.093 30.8522C133.366 30.9771 133.592 31.1592 133.769 31.3986C133.947 31.638 134.062 31.9225 134.113 32.2512H133.402C133.363 32.0552 133.287 31.8869 133.171 31.7456L133.172 31.743Z" fill="white"/>
<path d="M135.318 35.2419C135.066 35.0936 134.873 34.8846 134.738 34.6139C134.603 34.3433 134.535 34.0285 134.535 33.6703C134.535 33.312 134.603 32.9972 134.738 32.7196C134.873 32.4421 135.062 32.2287 135.306 32.0769C135.55 31.9251 135.832 31.8497 136.155 31.8497C136.435 31.8497 136.693 31.9104 136.928 32.0318C137.163 32.1532 137.351 32.3449 137.493 32.6086C137.635 32.8723 137.705 33.2036 137.705 33.6061V33.8481H134.922V33.3354H137.033C137.033 33.1611 136.997 33.0041 136.926 32.8636C136.854 32.7222 136.751 32.6129 136.618 32.5331C136.486 32.4533 136.332 32.4143 136.161 32.4143C135.974 32.4143 135.81 32.4594 135.668 32.5496C135.527 32.6398 135.416 32.7613 135.338 32.9139C135.26 33.0666 135.22 33.2296 135.218 33.404V33.8038C135.218 34.0337 135.26 34.2306 135.344 34.3954C135.428 34.5593 135.543 34.6851 135.691 34.7727C135.839 34.8594 136.011 34.9028 136.206 34.9028C136.33 34.9002 136.443 34.8828 136.544 34.8481C136.644 34.8134 136.73 34.7683 136.799 34.7128C136.868 34.6573 136.924 34.5931 136.965 34.5194H137.663C137.609 34.7102 137.517 34.8768 137.385 35.019C137.253 35.1604 137.086 35.2714 136.882 35.3495C136.68 35.4275 136.453 35.4674 136.201 35.4674C135.863 35.4674 135.567 35.3937 135.316 35.2454L135.318 35.2419Z" fill="white"/>
<path d="M138.939 35.3937H138.254V31.8948H138.911V32.4655H138.956C139.04 32.2721 139.169 32.1211 139.344 32.0127C139.519 31.9043 139.734 31.8497 139.989 31.8497C140.23 31.8497 140.438 31.9 140.616 31.9997C140.793 32.0995 140.93 32.2486 141.027 32.4473C141.124 32.6459 141.174 32.8862 141.174 33.1672V35.3937H140.488V33.2478C140.488 33.083 140.46 32.9391 140.402 32.8176C140.344 32.6962 140.26 32.6043 140.149 32.5409C140.039 32.4776 139.906 32.4455 139.751 32.4455C139.596 32.4455 139.452 32.4794 139.329 32.547C139.206 32.6147 139.111 32.7144 139.042 32.8463C138.974 32.9781 138.939 33.1351 138.939 33.3181V35.3928V35.3937Z" fill="white"/>
<path d="M143.51 32.4421H141.598V31.8939H143.51V32.4421ZM142.802 31.0569V34.3659C142.802 34.4882 142.82 34.5836 142.857 34.6512C142.893 34.7189 142.941 34.7657 143.001 34.7918C143.061 34.8178 143.133 34.8308 143.217 34.8308C143.253 34.8308 143.293 34.8308 143.337 34.8273C143.382 34.8247 143.425 34.8239 143.467 34.8239L143.561 34.8178V35.4111C143.435 35.4301 143.293 35.4397 143.136 35.4397C142.95 35.4397 142.779 35.405 142.623 35.3347C142.468 35.2645 142.343 35.1595 142.249 35.0207C142.156 34.8811 142.109 34.7094 142.109 34.5055V31.0578H142.801L142.802 31.0569Z" fill="white"/>
<path d="M144.646 35.2419C144.394 35.0936 144.201 34.8846 144.066 34.6139C143.931 34.3433 143.863 34.0285 143.863 33.6703C143.863 33.312 143.931 32.9972 144.066 32.7196C144.201 32.4421 144.39 32.2287 144.634 32.0769C144.878 31.9251 145.16 31.8497 145.483 31.8497C145.763 31.8497 146.022 31.9104 146.256 32.0318C146.491 32.1532 146.679 32.3449 146.821 32.6086C146.963 32.8723 147.034 33.2036 147.034 33.6061V33.8481H144.25V33.3354H146.361C146.361 33.1611 146.325 33.0041 146.254 32.8636C146.182 32.7222 146.079 32.6129 145.946 32.5331C145.814 32.4533 145.66 32.4143 145.489 32.4143C145.302 32.4143 145.138 32.4594 144.997 32.5496C144.855 32.6398 144.744 32.7613 144.666 32.9139C144.588 33.0666 144.548 33.2296 144.546 33.404V33.8038C144.546 34.0337 144.588 34.2306 144.672 34.3954C144.756 34.5593 144.871 34.6851 145.019 34.7727C145.167 34.8594 145.339 34.9028 145.534 34.9028C145.659 34.9002 145.771 34.8828 145.872 34.8481C145.972 34.8134 146.058 34.7683 146.127 34.7128C146.197 34.6573 146.252 34.5931 146.293 34.5194H146.991C146.937 34.7102 146.845 34.8768 146.713 35.019C146.581 35.1604 146.414 35.2714 146.21 35.3495C146.008 35.4275 145.781 35.4674 145.529 35.4674C145.191 35.4674 144.895 35.3937 144.644 35.2454L144.646 35.2419Z" fill="white"/>
<path d="M147.582 31.8948H148.245V32.4551H148.284C148.346 32.266 148.458 32.1168 148.618 32.0075C148.779 31.8982 148.961 31.8427 149.162 31.8401C149.326 31.8445 149.424 31.8505 149.459 31.8592V32.5167C149.418 32.5063 149.364 32.4958 149.298 32.4863C149.231 32.4768 149.165 32.4716 149.098 32.4716C148.941 32.4716 148.8 32.5063 148.675 32.5748C148.55 32.6433 148.451 32.7378 148.377 32.8567C148.304 32.9755 148.268 33.1108 148.268 33.2609V35.3937H147.583V31.8948H147.582Z" fill="white"/>
<path d="M152.988 32.4421H151.008V31.8939H152.988V32.4421ZM151.678 30.9615C151.763 30.814 151.885 30.7021 152.04 30.6249C152.195 30.5477 152.38 30.5087 152.595 30.5087C152.675 30.5087 152.755 30.5131 152.835 30.5217C152.916 30.5304 152.991 30.5408 153.062 30.5538V31.1271C153.001 31.1211 152.927 31.1115 152.837 31.1011H152.769C152.586 31.1011 152.453 31.1402 152.367 31.2174C152.281 31.2945 152.239 31.4168 152.242 31.5842V35.3928H151.549V31.488C151.549 31.2841 151.592 31.1089 151.678 30.9615H151.678Z" fill="white"/>
<path d="M153.955 35.2384C153.708 35.0875 153.518 34.8768 153.382 34.6053C153.247 34.3338 153.18 34.0181 153.18 33.6598C153.18 33.3016 153.247 32.9824 153.382 32.7092C153.518 32.436 153.708 32.2252 153.955 32.0743C154.202 31.9234 154.49 31.8488 154.818 31.8488C155.146 31.8488 155.427 31.9234 155.674 32.0743C155.921 32.2252 156.111 32.436 156.244 32.7092C156.377 32.9824 156.444 33.299 156.444 33.6598C156.444 34.0207 156.377 34.3338 156.244 34.6053C156.112 34.8768 155.922 35.0875 155.674 35.2384C155.427 35.3894 155.142 35.464 154.818 35.464C154.494 35.464 154.203 35.3894 153.955 35.2384ZM155.335 34.7267C155.476 34.6174 155.58 34.4691 155.648 34.2817C155.717 34.0953 155.751 33.8862 155.751 33.6564C155.751 33.4265 155.717 33.2184 155.648 33.031C155.58 32.8445 155.475 32.6953 155.335 32.5852C155.194 32.475 155.022 32.4195 154.818 32.4195C154.615 32.4195 154.439 32.475 154.297 32.5852C154.154 32.6953 154.05 32.8445 153.979 33.031C153.909 33.2175 153.874 33.4265 153.872 33.6564C153.875 33.8862 153.91 34.0944 153.979 34.2817C154.05 34.4682 154.154 34.6165 154.297 34.7267C154.438 34.836 154.612 34.8906 154.818 34.8906C155.024 34.8906 155.194 34.836 155.335 34.7267Z" fill="white"/>
<path d="M156.996 31.8948H157.659V32.4551H157.698C157.76 32.266 157.872 32.1168 158.032 32.0075C158.193 31.8982 158.375 31.8427 158.576 31.8401C158.74 31.8445 158.838 31.8505 158.873 31.8592V32.5167C158.832 32.5063 158.778 32.4958 158.712 32.4863C158.645 32.4768 158.579 32.4716 158.512 32.4716C158.356 32.4716 158.214 32.5063 158.09 32.5748C157.964 32.6433 157.865 32.7378 157.791 32.8567C157.718 32.9755 157.682 33.1108 157.682 33.2609V35.3937H156.997V31.8948H156.996Z" fill="white"/>
<path d="M160.793 30.7281H163.719V31.337H161.502V32.7543H163.565V33.3597H161.502V34.7839H163.741V35.3928H160.793V30.7273V30.7281Z" fill="white"/>
<path d="M165.076 35.3937H164.391V31.8948H165.047V32.4655H165.092C165.176 32.2721 165.306 32.1211 165.481 32.0127C165.656 31.9043 165.871 31.8497 166.126 31.8497C166.367 31.8497 166.575 31.9 166.753 31.9997C166.929 32.0995 167.067 32.2486 167.164 32.4473C167.261 32.6459 167.311 32.8862 167.311 33.1672V35.3937H166.625V33.2478C166.625 33.083 166.597 32.9391 166.539 32.8176C166.48 32.6962 166.396 32.6043 166.286 32.5409C166.175 32.4776 166.043 32.4455 165.888 32.4455C165.733 32.4455 165.589 32.4794 165.466 32.547C165.343 32.6147 165.248 32.7144 165.179 32.8463C165.111 32.9781 165.076 33.1351 165.076 33.3181V35.3928V35.3937Z" fill="white"/>
<path d="M169.615 35.3937H168.878L167.609 31.8948H168.349L169.228 34.5853H169.267L170.149 31.8948H170.889L169.614 35.3937H169.615Z" fill="white"/>
<path d="M171.444 31.2963C171.379 31.2581 171.327 31.2095 171.289 31.148C171.25 31.0864 171.23 31.0196 171.23 30.9467C171.23 30.8739 171.25 30.8054 171.289 30.7438C171.328 30.6813 171.379 30.6319 171.444 30.5954C171.509 30.559 171.582 30.5408 171.662 30.5408C171.742 30.5408 171.811 30.559 171.878 30.5954C171.944 30.6319 171.997 30.6813 172.037 30.7438C172.076 30.8062 172.097 30.8739 172.097 30.9467C172.097 31.0196 172.077 31.0872 172.037 31.148C171.997 31.2095 171.944 31.2581 171.878 31.2963C171.811 31.3344 171.739 31.3527 171.662 31.3527C171.585 31.3527 171.509 31.3344 171.444 31.2963ZM171.321 31.8948H172.006V35.3937H171.321V31.8948Z" fill="white"/>
<path d="M172.711 31.8948H173.374V32.4551H173.413C173.475 32.266 173.587 32.1168 173.747 32.0075C173.907 31.8982 174.089 31.8427 174.291 31.8401C174.455 31.8445 174.553 31.8505 174.588 31.8592V32.5167C174.547 32.5063 174.493 32.4958 174.426 32.4863C174.36 32.4768 174.294 32.4716 174.227 32.4716C174.07 32.4716 173.929 32.5063 173.804 32.5748C173.679 32.6433 173.58 32.7378 173.506 32.8567C173.433 32.9755 173.397 33.1108 173.397 33.2609V35.3937H172.712V31.8948H172.711Z" fill="white"/>
<path d="M175.475 35.2384C175.228 35.0875 175.037 34.8768 174.902 34.6053C174.767 34.3338 174.699 34.0181 174.699 33.6598C174.699 33.3016 174.767 32.9824 174.902 32.7092C175.037 32.436 175.228 32.2252 175.475 32.0743C175.722 31.9234 176.009 31.8488 176.338 31.8488C176.666 31.8488 176.947 31.9234 177.194 32.0743C177.441 32.2252 177.63 32.436 177.764 32.7092C177.896 32.9824 177.963 33.299 177.963 33.6598C177.963 34.0207 177.896 34.3338 177.764 34.6053C177.631 34.8768 177.441 35.0875 177.194 35.2384C176.947 35.3894 176.662 35.464 176.338 35.464C176.014 35.464 175.722 35.3894 175.475 35.2384ZM176.854 34.7267C176.995 34.6174 177.099 34.4691 177.168 34.2817C177.236 34.0953 177.271 33.8862 177.271 33.6564C177.271 33.4265 177.236 33.2184 177.168 33.031C177.099 32.8445 176.994 32.6953 176.854 32.5852C176.714 32.475 176.541 32.4195 176.338 32.4195C176.134 32.4195 175.958 32.475 175.816 32.5852C175.674 32.6953 175.569 32.8445 175.499 33.031C175.429 33.2175 175.393 33.4265 175.392 33.6564C175.394 33.8862 175.43 34.0944 175.499 34.2817C175.569 34.4682 175.674 34.6165 175.816 34.7267C175.957 34.836 176.131 34.8906 176.338 34.8906C176.544 34.8906 176.714 34.836 176.854 34.7267Z" fill="white"/>
<path d="M179.205 35.3937H178.52V31.8948H179.176V32.4655H179.221C179.305 32.2721 179.434 32.1211 179.609 32.0127C179.785 31.9043 179.999 31.8497 180.255 31.8497C180.496 31.8497 180.704 31.9 180.881 31.9997C181.058 32.0995 181.196 32.2486 181.293 32.4473C181.39 32.6459 181.439 32.8862 181.439 33.1672V35.3937H180.754V33.2478C180.754 33.083 180.725 32.9391 180.667 32.8176C180.609 32.6962 180.525 32.6043 180.414 32.5409C180.304 32.4776 180.172 32.4455 180.017 32.4455C179.862 32.4455 179.718 32.4794 179.595 32.547C179.472 32.6147 179.376 32.7144 179.308 32.8463C179.24 32.9781 179.205 33.1351 179.205 33.3181V35.3928V35.3937Z" fill="white"/>
<path d="M182.145 31.8948H182.801V32.4655H182.846C182.92 32.2721 183.039 32.1211 183.203 32.0127C183.368 31.9043 183.566 31.8497 183.796 31.8497C183.948 31.8497 184.086 31.8731 184.209 31.9208C184.332 31.9685 184.439 32.0379 184.526 32.1298C184.614 32.2218 184.684 32.3336 184.735 32.4646H184.771C184.829 32.3397 184.908 32.2313 185.009 32.1376C185.109 32.0439 185.229 31.9728 185.366 31.9234C185.503 31.8739 185.655 31.8497 185.823 31.8497C186.037 31.8497 186.225 31.8948 186.387 31.985C186.55 32.0752 186.676 32.2105 186.767 32.3909C186.858 32.5713 186.904 32.7916 186.904 33.0518V35.3946H186.215V33.1169C186.212 32.8914 186.152 32.7231 186.031 32.6112C185.912 32.4993 185.755 32.4438 185.562 32.4438C185.416 32.4438 185.291 32.4742 185.187 32.5357C185.083 32.5973 185.002 32.6815 184.947 32.7899C184.891 32.8983 184.862 33.0232 184.86 33.1654V35.3954H184.177V33.0692C184.177 32.9469 184.151 32.8376 184.1 32.7422C184.049 32.6459 183.974 32.573 183.877 32.5219C183.78 32.4707 183.668 32.4447 183.544 32.4447C183.42 32.4447 183.297 32.4776 183.189 32.5444C183.08 32.6112 182.993 32.7049 182.928 32.8263C182.863 32.9477 182.83 33.0848 182.83 33.2374V35.3963H182.145V31.8974V31.8948Z" fill="white"/>
<path d="M188.232 35.2419C187.98 35.0936 187.787 34.8846 187.652 34.6139C187.517 34.3433 187.449 34.0285 187.449 33.6703C187.449 33.312 187.517 32.9972 187.652 32.7196C187.787 32.4421 187.976 32.2287 188.22 32.0769C188.464 31.9251 188.746 31.8497 189.069 31.8497C189.349 31.8497 189.608 31.9104 189.842 32.0318C190.077 32.1532 190.265 32.3449 190.407 32.6086C190.549 32.8723 190.62 33.2036 190.62 33.6061V33.8481H187.836V33.3354H189.947C189.947 33.1611 189.911 33.0041 189.84 32.8636C189.768 32.7222 189.665 32.6129 189.532 32.5331C189.4 32.4533 189.246 32.4143 189.076 32.4143C188.889 32.4143 188.725 32.4594 188.583 32.5496C188.442 32.6398 188.331 32.7613 188.253 32.9139C188.175 33.0666 188.135 33.2296 188.133 33.404V33.8038C188.133 34.0337 188.174 34.2306 188.258 34.3954C188.343 34.5602 188.458 34.6851 188.606 34.7727C188.754 34.8594 188.926 34.9028 189.121 34.9028C189.245 34.9002 189.358 34.8828 189.458 34.8481C189.559 34.8134 189.645 34.7683 189.714 34.7128C189.784 34.6573 189.839 34.5931 189.88 34.5194H190.578C190.524 34.7102 190.432 34.8768 190.3 35.019C190.168 35.1604 190.001 35.2714 189.797 35.3495C189.595 35.4275 189.368 35.4674 189.116 35.4674C188.777 35.4674 188.482 35.3937 188.231 35.2454L188.232 35.2419Z" fill="white"/>
<path d="M191.857 35.3937H191.172V31.8948H191.829V32.4655H191.874C191.958 32.2721 192.087 32.1211 192.262 32.0127C192.437 31.9043 192.652 31.8497 192.907 31.8497C193.148 31.8497 193.356 31.9 193.534 31.9997C193.711 32.0995 193.848 32.2486 193.945 32.4473C194.042 32.6459 194.092 32.8862 194.092 33.1672V35.3937H193.406V33.2478C193.406 33.083 193.378 32.9391 193.32 32.8176C193.262 32.6962 193.178 32.6043 193.067 32.5409C192.957 32.4776 192.824 32.4455 192.669 32.4455C192.514 32.4455 192.37 32.4794 192.247 32.547C192.124 32.6147 192.029 32.7144 191.96 32.8463C191.892 32.9781 191.857 33.1351 191.857 33.3181V35.3928V35.3937Z" fill="white"/>
<path d="M196.428 32.4421H194.516V31.8939H196.428V32.4421ZM195.72 31.0569V34.3659C195.72 34.4882 195.738 34.5836 195.775 34.6512C195.811 34.7189 195.859 34.7657 195.919 34.7918C195.979 34.8178 196.051 34.8308 196.135 34.8308C196.171 34.8308 196.211 34.8308 196.255 34.8273C196.3 34.8247 196.343 34.8239 196.385 34.8239L196.479 34.8178V35.4111C196.352 35.4301 196.211 35.4397 196.054 35.4397C195.868 35.4397 195.697 35.405 195.541 35.3347C195.386 35.2645 195.261 35.1595 195.167 35.0207C195.074 34.8811 195.027 34.7094 195.027 34.5055V31.0578H195.719L195.72 31.0569Z" fill="white"/>
<path d="M198.848 33.8229C198.796 33.8264 198.718 33.8316 198.615 33.8403C198.471 33.8463 198.336 33.8559 198.209 33.8663C197.978 33.8828 197.798 33.9374 197.672 34.0276C197.545 34.1178 197.481 34.2471 197.479 34.4145C197.479 34.5237 197.507 34.6166 197.565 34.6929C197.623 34.7692 197.701 34.8265 197.798 34.8655C197.896 34.9045 198.01 34.9227 198.142 34.9201C198.322 34.9201 198.48 34.8837 198.615 34.8126C198.75 34.7406 198.854 34.6443 198.927 34.5246C199 34.4049 199.036 34.2731 199.036 34.1317L199.032 33.0301C199.032 32.8974 199.005 32.7838 198.953 32.6901C198.901 32.5965 198.821 32.5262 198.713 32.4776C198.606 32.4291 198.475 32.4048 198.321 32.4048C198.123 32.4048 197.963 32.4447 197.84 32.5253C197.717 32.606 197.638 32.7136 197.604 32.8489H196.915C196.936 32.6554 197.009 32.4828 197.132 32.3319C197.255 32.1801 197.421 32.0622 197.63 31.9772C197.838 31.8922 198.076 31.8497 198.344 31.8497C198.57 31.8497 198.784 31.8835 198.99 31.9511C199.195 32.0188 199.368 32.1437 199.506 32.325C199.646 32.5062 199.715 32.7552 199.715 33.0709V35.3937H199.049V34.9132H199.023C198.946 35.0676 198.82 35.1994 198.646 35.3061C198.472 35.4137 198.253 35.4683 197.986 35.47C197.76 35.4674 197.559 35.4258 197.381 35.3425C197.203 35.2593 197.062 35.1387 196.959 34.9782C196.856 34.8178 196.805 34.6278 196.805 34.4066C196.805 34.0432 196.927 33.7847 197.171 33.6304C197.416 33.476 197.729 33.3858 198.111 33.3597C198.214 33.3511 198.33 33.3433 198.459 33.3354C198.587 33.3276 198.713 33.3207 198.836 33.3146C198.915 33.312 198.994 33.3103 199.074 33.3086L199.08 33.8082C198.977 33.8142 198.899 33.8194 198.847 33.8229H198.848Z" fill="white"/>
<path d="M201.103 35.3937H200.418V30.7281H201.103V35.3937Z" fill="white"/>
<path d="M204.202 30.7281L205.683 34.3433H205.738L207.218 30.7281H208.078V35.3937H207.402V32.0231H207.357L205.986 35.3868H205.429L204.059 32.0231H204.02V35.3937H203.344V30.7281H204.203H204.202Z" fill="white"/>
<path d="M210.715 33.8229C210.663 33.8264 210.585 33.8316 210.482 33.8403C210.338 33.8463 210.203 33.8559 210.076 33.8663C209.845 33.8828 209.665 33.9374 209.539 34.0276C209.413 34.1178 209.349 34.2471 209.346 34.4145C209.346 34.5237 209.375 34.6166 209.433 34.6929C209.491 34.7692 209.569 34.8265 209.666 34.8655C209.763 34.9045 209.877 34.9227 210.009 34.9201C210.189 34.9201 210.347 34.8837 210.482 34.8126C210.617 34.7406 210.721 34.6443 210.794 34.5246C210.867 34.4049 210.903 34.2731 210.903 34.1317L210.9 33.0301C210.9 32.8974 210.873 32.7838 210.821 32.6901C210.769 32.5965 210.688 32.5262 210.581 32.4776C210.473 32.4291 210.342 32.4048 210.188 32.4048C209.991 32.4048 209.83 32.4447 209.707 32.5253C209.584 32.606 209.505 32.7136 209.471 32.8489H208.782C208.804 32.6554 208.876 32.4828 208.999 32.3319C209.122 32.1801 209.288 32.0622 209.497 31.9772C209.706 31.8922 209.943 31.8497 210.212 31.8497C210.437 31.8497 210.652 31.8835 210.857 31.9511C211.062 32.0188 211.235 32.1437 211.373 32.325C211.513 32.5062 211.582 32.7552 211.582 33.0709V35.3937H210.916V34.9132H210.89C210.813 35.0676 210.687 35.1994 210.513 35.3061C210.339 35.4137 210.12 35.4683 209.853 35.47C209.628 35.4674 209.426 35.4258 209.248 35.3425C209.07 35.2593 208.929 35.1387 208.826 34.9782C208.723 34.8178 208.672 34.6278 208.672 34.4066C208.672 34.0432 208.794 33.7847 209.038 33.6304C209.283 33.476 209.596 33.3858 209.978 33.3597C210.082 33.3511 210.198 33.3433 210.326 33.3354C210.454 33.3276 210.58 33.3207 210.703 33.3146C210.783 33.312 210.861 33.3103 210.941 33.3086L210.947 33.8082C210.844 33.8142 210.766 33.8194 210.714 33.8229H210.715Z" fill="white"/>
<path d="M212.971 35.3937H212.285V31.8948H212.942V32.4655H212.987C213.071 32.2721 213.2 32.1211 213.375 32.0127C213.55 31.9043 213.765 31.8497 214.021 31.8497C214.261 31.8497 214.469 31.9 214.647 31.9997C214.824 32.0995 214.962 32.2486 215.059 32.4473C215.156 32.6459 215.205 32.8862 215.205 33.1672V35.3937H214.52V33.2478C214.52 33.083 214.491 32.9391 214.433 32.8176C214.375 32.6962 214.291 32.6043 214.18 32.5409C214.07 32.4776 213.937 32.4455 213.782 32.4455C213.627 32.4455 213.483 32.4794 213.36 32.547C213.237 32.6147 213.142 32.7144 213.074 32.8463C213.005 32.9781 212.971 33.1351 212.971 33.3181V35.3928V35.3937Z" fill="white"/>
<path d="M217.789 33.8229C217.737 33.8264 217.659 33.8316 217.556 33.8403C217.412 33.8463 217.277 33.8559 217.151 33.8663C216.919 33.8828 216.739 33.9374 216.613 34.0276C216.487 34.1178 216.423 34.2471 216.42 34.4145C216.42 34.5237 216.449 34.6166 216.507 34.6929C216.565 34.7692 216.643 34.8265 216.74 34.8655C216.837 34.9045 216.951 34.9227 217.083 34.9201C217.263 34.9201 217.421 34.8837 217.556 34.8126C217.691 34.7406 217.795 34.6443 217.868 34.5246C217.942 34.4049 217.977 34.2731 217.977 34.1317L217.974 33.0301C217.974 32.8974 217.947 32.7838 217.895 32.6901C217.843 32.5965 217.762 32.5262 217.655 32.4776C217.547 32.4291 217.417 32.4048 217.262 32.4048C217.065 32.4048 216.905 32.4447 216.781 32.5253C216.658 32.606 216.58 32.7136 216.545 32.8489H215.856C215.878 32.6554 215.951 32.4828 216.074 32.3319C216.197 32.1801 216.362 32.0622 216.571 31.9772C216.78 31.8922 217.017 31.8497 217.286 31.8497C217.511 31.8497 217.726 31.8835 217.931 31.9511C218.137 32.0188 218.309 32.1437 218.448 32.325C218.587 32.5062 218.656 32.7552 218.656 33.0709V35.3937H217.99V34.9132H217.964C217.887 35.0676 217.761 35.1994 217.587 35.3061C217.413 35.4137 217.194 35.4683 216.927 35.47C216.702 35.4674 216.5 35.4258 216.322 35.3425C216.145 35.2593 216.003 35.1387 215.9 34.9782C215.797 34.8178 215.746 34.6278 215.746 34.4066C215.746 34.0432 215.868 33.7847 216.113 33.6304C216.357 33.476 216.671 33.3858 217.053 33.3597C217.156 33.3511 217.272 33.3433 217.4 33.3354C217.528 33.3276 217.654 33.3207 217.777 33.3146C217.857 33.312 217.936 33.3103 218.015 33.3086L218.021 33.8082C217.918 33.8142 217.84 33.8194 217.788 33.8229H217.789Z" fill="white"/>
<path d="M220.051 36.6549C219.829 36.5716 219.652 36.4519 219.523 36.294C219.393 36.1362 219.319 35.9497 219.3 35.7346H219.998C220.03 35.8985 220.119 36.0208 220.263 36.1032C220.408 36.1865 220.597 36.2264 220.832 36.2238C221.112 36.2264 221.332 36.1622 221.487 36.0338C221.642 35.9046 221.72 35.7086 221.72 35.444V34.7579H221.678L221.665 34.777C221.604 34.8802 221.539 34.9704 221.466 35.0476C221.393 35.1248 221.289 35.1933 221.154 35.2523C221.019 35.3113 220.855 35.3408 220.664 35.3408C220.385 35.3408 220.136 35.2731 219.914 35.1378C219.693 35.0025 219.519 34.8039 219.391 34.542C219.262 34.28 219.199 33.9678 219.199 33.6043C219.199 33.2409 219.262 32.9269 219.389 32.6615C219.515 32.3961 219.69 32.194 219.912 32.0561C220.135 31.9182 220.387 31.8479 220.67 31.8479C220.855 31.8479 221.013 31.8765 221.144 31.9347C221.274 31.9928 221.376 32.0604 221.448 32.1376C221.52 32.2148 221.59 32.3076 221.658 32.4143C221.667 32.4273 221.676 32.4412 221.684 32.4559H221.726V31.8922H222.402V35.4683C222.402 35.758 222.334 36.0009 222.199 36.1969C222.064 36.3929 221.877 36.5378 221.64 36.6332C221.403 36.7294 221.13 36.7763 220.821 36.7763C220.529 36.7763 220.273 36.7355 220.05 36.6523L220.051 36.6549ZM221.312 34.633C221.449 34.5402 221.552 34.4084 221.623 34.2366C221.693 34.0649 221.729 33.8593 221.729 33.6208C221.729 33.3823 221.694 33.1741 221.623 32.9937C221.552 32.8142 221.448 32.6762 221.312 32.58C221.176 32.4837 221.011 32.4351 220.815 32.4351C220.619 32.4351 220.45 32.4863 220.313 32.5869C220.175 32.6875 220.072 32.8289 220.002 33.0093C219.933 33.1897 219.898 33.3936 219.898 33.6217C219.898 33.8498 219.933 34.0528 220.004 34.2262C220.075 34.3997 220.179 34.5333 220.314 34.6287C220.45 34.725 220.618 34.7718 220.815 34.7718C221.013 34.7718 221.176 34.7258 221.312 34.633Z" fill="white"/>
<path d="M223.728 35.2419C223.476 35.0936 223.283 34.8846 223.148 34.6139C223.013 34.3433 222.945 34.0285 222.945 33.6703C222.945 33.312 223.013 32.9972 223.148 32.7196C223.283 32.4421 223.472 32.2287 223.716 32.0769C223.96 31.9251 224.242 31.8497 224.565 31.8497C224.845 31.8497 225.104 31.9104 225.338 32.0318C225.573 32.1532 225.761 32.3449 225.903 32.6086C226.045 32.8723 226.116 33.2036 226.116 33.6061V33.8481H223.332V33.3354H225.443C225.443 33.1611 225.407 33.0041 225.336 32.8636C225.265 32.7231 225.161 32.6129 225.028 32.5331C224.896 32.4533 224.742 32.4143 224.572 32.4143C224.385 32.4143 224.221 32.4594 224.079 32.5496C223.938 32.6398 223.827 32.7613 223.749 32.9139C223.671 33.0666 223.631 33.2296 223.629 33.404V33.8038C223.629 34.0337 223.671 34.2306 223.755 34.3954C223.839 34.5602 223.954 34.6851 224.102 34.7727C224.25 34.8594 224.422 34.9028 224.617 34.9028C224.741 34.9002 224.854 34.8828 224.955 34.8481C225.055 34.8134 225.141 34.7683 225.21 34.7128C225.28 34.6573 225.335 34.5931 225.376 34.5194H226.074C226.02 34.7102 225.928 34.8768 225.796 35.019C225.664 35.1604 225.497 35.2714 225.294 35.3495C225.091 35.4275 224.864 35.4674 224.613 35.4674C224.274 35.4674 223.979 35.3937 223.728 35.2454V35.2419Z" fill="white"/>
<path d="M226.668 31.8948H227.325V32.4655H227.37C227.443 32.2721 227.562 32.1211 227.727 32.0127C227.891 31.9043 228.09 31.8497 228.319 31.8497C228.472 31.8497 228.61 31.8731 228.733 31.9208C228.856 31.9685 228.962 32.0379 229.05 32.1298C229.137 32.2226 229.207 32.3336 229.259 32.4646H229.294C229.352 32.3397 229.432 32.2313 229.532 32.1376C229.633 32.0439 229.752 31.9728 229.889 31.9234C230.027 31.8739 230.179 31.8497 230.346 31.8497C230.561 31.8497 230.749 31.8948 230.911 31.985C231.073 32.0752 231.199 32.2105 231.29 32.3909C231.381 32.5713 231.427 32.7916 231.427 33.0518V35.3946H230.738V33.1169C230.736 32.8914 230.675 32.7231 230.555 32.6112C230.435 32.4993 230.278 32.4438 230.085 32.4438C229.94 32.4438 229.814 32.4742 229.71 32.5357C229.606 32.5973 229.525 32.6815 229.47 32.7899C229.415 32.8983 229.385 33.0232 229.383 33.1654V35.3954H228.701V33.0692C228.701 32.9469 228.675 32.8376 228.624 32.7422C228.572 32.6459 228.497 32.573 228.4 32.5219C228.303 32.4707 228.191 32.4447 228.067 32.4447C227.943 32.4447 227.82 32.4776 227.712 32.5444C227.604 32.6112 227.516 32.7049 227.451 32.8263C227.386 32.9477 227.353 33.0848 227.353 33.2374V35.3963H226.668V31.8974V31.8948Z" fill="white"/>
<path d="M232.755 35.2419C232.504 35.0936 232.311 34.8846 232.175 34.6139C232.04 34.3433 231.973 34.0285 231.973 33.6703C231.973 33.312 232.04 32.9972 232.175 32.7196C232.311 32.4421 232.499 32.2287 232.744 32.0769C232.987 31.9251 233.27 31.8497 233.592 31.8497C233.873 31.8497 234.131 31.9104 234.366 32.0318C234.601 32.1532 234.789 32.3449 234.931 32.6086C235.073 32.8723 235.143 33.2036 235.143 33.6061V33.8481H232.359V33.3354H234.471C234.471 33.1611 234.434 33.0041 234.363 32.8636C234.291 32.7222 234.188 32.6129 234.056 32.5331C233.923 32.4533 233.77 32.4143 233.599 32.4143C233.413 32.4143 233.248 32.4594 233.107 32.5496C232.966 32.6398 232.855 32.7613 232.777 32.9139C232.699 33.0666 232.658 33.2296 232.656 33.404V33.8038C232.656 34.0337 232.698 34.2306 232.782 34.3954C232.866 34.5593 232.981 34.6851 233.129 34.7727C233.278 34.8594 233.449 34.9028 233.644 34.9028C233.769 34.9002 233.881 34.8828 233.982 34.8481C234.082 34.8134 234.168 34.7683 234.238 34.7128C234.308 34.6573 234.362 34.5931 234.403 34.5194H235.101C235.048 34.7102 234.955 34.8768 234.823 35.019C234.692 35.1604 234.524 35.2714 234.321 35.3495C234.118 35.4275 233.891 35.4674 233.64 35.4674C233.301 35.4674 233.005 35.3937 232.754 35.2454L232.755 35.2419Z" fill="white"/>
<path d="M236.377 35.3937H235.691V31.8948H236.348V32.4655H236.393C236.477 32.2721 236.606 32.1211 236.781 32.0127C236.956 31.9043 237.171 31.8497 237.427 31.8497C237.668 31.8497 237.876 31.9 238.053 31.9997C238.23 32.0995 238.368 32.2486 238.465 32.4473C238.562 32.6459 238.611 32.8862 238.611 33.1672V35.3937H237.926V33.2478C237.926 33.083 237.897 32.9391 237.839 32.8176C237.781 32.6962 237.697 32.6043 237.586 32.5409C237.476 32.4776 237.344 32.4455 237.189 32.4455C237.034 32.4455 236.89 32.4794 236.767 32.547C236.644 32.6147 236.548 32.7144 236.48 32.8463C236.411 32.9781 236.377 33.1351 236.377 33.3181V35.3928V35.3937Z" fill="white"/>
<path d="M240.947 32.4421H239.035V31.8939H240.947V32.4421ZM240.239 31.0569V34.3659C240.239 34.4882 240.258 34.5836 240.294 34.6512C240.33 34.7189 240.379 34.7657 240.439 34.7918C240.499 34.8178 240.57 34.8308 240.655 34.8308C240.691 34.8308 240.731 34.8308 240.775 34.8273C240.819 34.8247 240.862 34.8239 240.905 34.8239L240.998 34.8178V35.4111C240.872 35.4301 240.731 35.4397 240.574 35.4397C240.388 35.4397 240.216 35.405 240.06 35.3347C239.905 35.2645 239.78 35.1595 239.687 35.0207C239.593 34.8811 239.546 34.7094 239.546 34.5055V31.0578H240.239L240.239 31.0569Z" fill="white"/>
</g>
<defs>
<linearGradient id="paint0_linear_1637_8669" x1="0" y1="7.66491" x2="46.0512" y2="7.66491" gradientUnits="userSpaceOnUse">
<stop stop-color="white"/>
<stop offset="1" stop-color="#8A949E"/>
</linearGradient>
<clipPath id="clip0_1637_8669">
<rect width="241" height="48" fill="white"/>
</clipPath>
</defs>
</svg>
