<svg width="68" height="40" viewBox="0 0 68 40" fill="none" xmlns="http://www.w3.org/2000/svg">
<g clip-path="url(#clip0_1637_6021)">
<path fill-rule="evenodd" clip-rule="evenodd" d="M19.8448 16.6403H12.2099V18.7258H19.8448L20.2532 18.6439C20.6298 18.4854 20.8939 18.115 20.8939 17.683C20.8939 17.1072 20.4241 16.6403 19.8448 16.6403ZM44.3761 13.6335H52.7408C56.2586 13.6335 59.1105 16.4672 59.1105 19.9629C59.1105 23.4588 56.2586 26.2924 52.7408 26.2924H47.984V23.2857H52.7494C54.5961 23.2857 56.0931 21.7981 56.0931 19.9629C56.0931 18.1279 54.5961 16.6403 52.7494 16.6403H47.3931V26.2927H44.3761V13.6335ZM25.7769 13.6335H28.7941V17.8839C28.7941 18.375 29.1948 18.7731 29.6888 18.7731H31.8448V21.4383H29.1764C27.2989 21.4383 25.7769 19.9259 25.7769 18.0599V13.6335ZM9.19277 13.6335H20.0878C22.1906 13.6335 23.8951 15.3273 23.8951 17.417C23.8951 18.3964 23.5206 19.2888 22.9061 19.9608L22.8946 19.9719L23.2448 20.3939C23.6554 20.9975 23.8951 21.7254 23.8951 22.5092C23.8951 24.5986 22.1906 26.2924 20.0878 26.2924H12.8324V23.2857H19.8448C20.4241 23.2857 20.8939 22.819 20.8939 22.2432C20.8939 21.8113 20.6298 21.4406 20.2532 21.2823L19.8448 21.2006H12.2099V26.2927H9.19277V13.6335ZM39.2478 13.6335H42.2646V18.0599C42.2646 19.9259 40.7425 21.4383 38.8651 21.4383H35.4687V26.2924H32.4514V18.7731H38.3527C38.8467 18.7731 39.2478 18.375 39.2478 17.8839V17.4408V13.6335ZM33.5375 3.05128C16.1894 3.05128 2.12597 10.6378 2.12597 19.9964C2.12597 29.355 16.1894 36.9417 33.5375 36.9417C50.8855 36.9417 64.949 29.355 64.949 19.9964C64.949 10.6378 50.8855 3.05128 33.5375 3.05128ZM33.5375 0C52.0597 0 67.0748 8.95264 67.0748 19.9964C67.0748 31.0403 52.0597 39.9928 33.5375 39.9928C15.0152 39.9928 0 31.0403 0 19.9964C0 8.95264 15.0152 0 33.5375 0Z" fill="white"/>
</g>
<defs>
<clipPath id="clip0_1637_6021">
<rect width="68" height="40" fill="white"/>
</clipPath>
</defs>
</svg>
