<svg width="190" height="44" viewBox="0 0 190 44" fill="none" xmlns="http://www.w3.org/2000/svg">
<mask id="mask0_1637_8305" style="mask-type:luminance" maskUnits="userSpaceOnUse" x="0" y="0" width="190" height="44">
<path d="M190 0H0V44H190V0Z" fill="white"/>
</mask>
<g mask="url(#mask0_1637_8305)">
<path d="M5.21094 29.0598C7.06667 33.9987 11.02 37.9331 16.0048 39.8384V29.0598H5.21094Z" fill="white"/>
<path d="M40.3429 16.2223C38.4081 11.1597 34.2674 7.15606 29.0703 5.34479V16.2223H40.3429Z" fill="white"/>
<path d="M16.0093 5.52792C11.0541 7.42332 7.12053 11.323 5.25 16.2174H16.0093V5.52792Z" fill="white"/>
<path d="M29.0684 5.33984C27.104 4.65195 24.9912 4.27539 22.79 4.27539C20.3963 4.2754 18.1113 4.72661 16.0039 5.52832V0H29.0684V5.33984ZM26.1318 1.77148L25.3125 3.1416C25.2582 3.24058 25.2038 3.30534 25.1445 3.33008C25.0952 3.35479 25.0262 3.35467 24.9424 3.33984L24.9277 3.41406L25.5596 3.5332L25.5742 3.45898C25.4856 3.44417 25.4262 3.41448 25.3916 3.37012C25.3521 3.31568 25.3521 3.25587 25.3916 3.18164L25.584 2.86523L26.3145 2.99902L26.3936 3.43945C26.4033 3.51339 26.3832 3.55257 26.334 3.56738C26.2945 3.57726 26.2304 3.57246 26.1416 3.55762L26.127 3.63184L26.7617 3.75098L26.7598 3.75586H26.7588V3.76074L26.7598 3.75586L28.21 4.15137L28.5156 3.77051L28.4658 3.72656C28.3624 3.8252 28.2392 3.89399 28.1162 3.93848C27.9978 3.97805 27.8839 3.9837 27.7803 3.95898L27.4893 3.87988C27.425 3.86009 27.3801 3.84018 27.3604 3.81543C27.3308 3.78576 27.3309 3.74093 27.3457 3.68164L27.7109 2.3457C27.7257 2.28639 27.7603 2.2512 27.8145 2.23633C27.8639 2.22643 27.9336 2.23606 28.0273 2.25586L28.042 2.19238L27.2617 1.97949L27.2471 2.04395C27.3556 2.07362 27.4245 2.10303 27.4492 2.14258C27.4739 2.17227 27.4738 2.21691 27.459 2.28125L27.0938 3.6123C27.079 3.66668 27.0348 3.70104 26.9707 3.71094C26.9485 3.71463 26.9259 3.71298 26.9023 3.71191L26.9062 3.69629H26.8867C26.8278 3.68643 26.7883 3.67685 26.7637 3.66211C26.7242 3.64232 26.6945 3.59739 26.6846 3.54297L26.6797 3.53809L26.3682 1.75098L26.1318 1.77148ZM19.04 1.61816V1.68262C19.1536 1.66777 19.2282 1.67747 19.2676 1.69727C19.302 1.71714 19.3212 1.76203 19.3262 1.82617L19.4697 3.18652C19.4746 3.25576 19.4546 3.30521 19.4053 3.33984C19.3669 3.36391 19.3098 3.38243 19.2295 3.39258C19.1873 3.39464 19.1534 3.39446 19.1299 3.38574C19.0756 3.37585 19.0451 3.34064 19.0303 3.28125L18.749 1.87109C18.7393 1.82671 18.7595 1.79231 18.7988 1.7627C18.8383 1.733 18.8975 1.7179 18.9766 1.70801L18.9619 1.63867L18.3789 1.75293L18.1523 3.31641L17.3037 1.96484L16.7012 2.08887L16.7158 2.1582C16.8244 2.13841 16.8941 2.12877 16.9336 2.13867C16.9778 2.15361 17.0077 2.19355 17.0225 2.26758L17.2881 3.59375C17.3028 3.66296 17.2885 3.72217 17.2441 3.76172C17.2096 3.79636 17.1503 3.82109 17.0664 3.83594L17.0713 3.85059L17.0859 3.91504L17.708 3.79102L17.6934 3.7373C17.6048 3.75704 17.5357 3.75692 17.4863 3.7373C17.4272 3.71258 17.3918 3.66294 17.377 3.59375L17.0908 2.14844H17.1162L18.0977 3.73242L18.1865 3.71191L18.4531 1.83203H18.4824L18.7842 3.33594C18.7989 3.39532 18.7789 3.44478 18.7246 3.48438C18.6852 3.51407 18.6258 3.53398 18.5518 3.54883L18.5615 3.61328L19.2637 3.4707L20.6982 3.32031L20.8613 2.8457L20.8066 2.8252C20.6981 2.98355 20.5948 3.09771 20.5059 3.16699C20.4072 3.24121 20.2886 3.29082 20.1504 3.30566L19.9932 3.32031C19.8994 3.33022 19.8344 3.32546 19.7998 3.30566C19.7655 3.28579 19.7413 3.24103 19.7363 3.16699L19.667 2.51367L19.9629 2.48438C20.0615 2.47448 20.141 2.4936 20.1904 2.53809C20.2397 2.58262 20.2791 2.66736 20.3037 2.78613L20.3682 2.77637L20.2891 2.03418H20.2197C20.2197 2.16756 20.1947 2.25623 20.1553 2.30566C20.1158 2.3601 20.047 2.3905 19.9434 2.40039L19.6523 2.42969L19.583 1.79102C19.5781 1.72682 19.5981 1.68199 19.6475 1.65234C19.6918 1.6277 19.7561 1.61344 19.8496 1.59863C20.0419 1.57885 20.2048 1.59801 20.3281 1.65234C20.3972 1.68203 20.4814 1.74679 20.5752 1.84082L20.6592 1.91992L20.7031 1.89062L20.4814 1.46484L19.04 1.61816ZM24.4199 1.47461C24.282 1.45978 24.1487 1.48383 24.0254 1.5332C23.917 1.58261 23.823 1.65717 23.7393 1.75098C23.6702 1.83511 23.6059 1.935 23.5615 2.04883C23.5221 2.15266 23.4972 2.25658 23.4873 2.35547C23.4578 2.66218 23.5121 2.9096 23.6602 3.10254C23.7932 3.27551 23.9657 3.37464 24.1875 3.39453C24.4095 3.41433 24.6029 3.37444 24.7607 3.27051C24.884 3.19133 24.9923 3.07224 25.0811 2.91895L25.0322 2.88477C24.9139 3.03818 24.7848 3.1466 24.6416 3.21094C24.5283 3.2603 24.4102 3.27544 24.2822 3.26562C24.1144 3.25078 23.9805 3.15655 23.8818 2.98828C23.7784 2.81524 23.744 2.60273 23.7686 2.34082C23.7932 2.07856 23.8718 1.87496 23.9951 1.73145C24.1185 1.59291 24.2668 1.53402 24.4346 1.54883C24.5874 1.56365 24.7156 1.63253 24.834 1.74609C24.9081 1.82034 24.9778 1.92497 25.0469 2.05859L25.1162 2.04297L24.9971 1.5332L24.9385 1.52344C24.914 1.56288 24.884 1.58769 24.8447 1.59766C24.8102 1.60261 24.7652 1.59311 24.7158 1.56836L24.6865 1.55371C24.652 1.53392 24.6223 1.51869 24.5928 1.50879C24.5434 1.49395 24.4841 1.4845 24.4199 1.47461ZM20.7578 1.45508V1.51953C20.8612 1.51463 20.9303 1.52408 20.9697 1.55371C21.0042 1.57351 21.0234 1.61341 21.0234 1.67773L21.0586 3.05859C21.0586 3.12284 21.0386 3.16766 20.9941 3.19238C20.9547 3.21214 20.8904 3.22656 20.8018 3.22656L20.7969 3.23145V3.30078L21.749 3.27637C21.9662 3.27142 22.1536 3.18662 22.3164 3.0332C22.504 2.85508 22.5928 2.61807 22.5879 2.32617C22.5879 2.17276 22.5533 2.029 22.4941 1.90527C22.4398 1.7965 22.3662 1.70211 22.2725 1.62793C22.1886 1.56364 22.0948 1.50923 21.9912 1.47461C21.8926 1.44001 21.7989 1.43068 21.7051 1.43066L20.7578 1.45508ZM22.6729 1.41113V1.47559C22.7813 1.48053 22.856 1.49478 22.8906 1.52441C22.9202 1.54913 22.9346 1.59402 22.9297 1.6582L22.876 3.05371C22.876 3.113 22.8412 3.14816 22.7871 3.16797C22.7427 3.18279 22.6833 3.1924 22.5996 3.1875V3.26172L23.4082 3.29199V3.22754C23.3147 3.22749 23.2454 3.21221 23.2061 3.1875C23.1519 3.16273 23.1269 3.11789 23.1318 3.05859L23.1816 1.67285C23.1818 1.61371 23.2115 1.56966 23.2656 1.54004C23.315 1.51531 23.3839 1.50489 23.4727 1.50488V1.43555L22.668 1.40625L22.6729 1.41113ZM21.6113 1.49414C21.8332 1.49419 22.0009 1.55904 22.1143 1.68262C22.2376 1.81122 22.3016 2.01897 22.3066 2.2959C22.3164 2.5828 22.2724 2.80082 22.1787 2.94434C22.0849 3.09279 21.9319 3.17741 21.7197 3.20215H21.498C21.4339 3.2071 21.3889 3.19662 21.3643 3.17188C21.3299 3.14228 21.3155 3.10299 21.3154 3.03906L21.2803 1.66309C21.2803 1.60865 21.2956 1.5638 21.3252 1.53906C21.3548 1.51448 21.4087 1.4991 21.4824 1.49414H21.6113ZM26.3096 2.91406L25.6328 2.79102L26.1465 1.89453L26.3096 2.91406Z" fill="white"/>
<path d="M5.24639 16.2219H0V29.0592H5.21183C4.46165 27.0747 4.05694 24.922 4.05694 22.6801C4.05694 20.4383 4.47646 18.2262 5.24639 16.2169V16.2219Z" fill="white"/>
<path d="M7.05132 10.6301C7.10068 10.5706 7.13523 10.5163 7.15004 10.4717C7.16484 10.4173 7.15004 10.3727 7.10068 10.3282L6.05437 9.40272C6.01981 9.37303 5.98033 9.35824 5.94578 9.3681C5.89643 9.37806 5.84214 9.41761 5.77304 9.49188L5.71875 9.44237L6.38997 8.68024C6.49856 8.55651 6.62194 8.47734 6.76013 8.44269C6.91314 8.40311 7.04639 8.42784 7.15004 8.52187C7.27342 8.63074 7.32771 8.76436 7.31291 8.91281C7.30304 9.05139 7.23393 9.18997 7.11055 9.32855L6.78974 9.69971L7.2833 10.1352C7.32771 10.1748 7.37213 10.1847 7.41655 10.1698C7.45603 10.155 7.51033 10.1104 7.57942 10.0313L7.62877 10.0758L7.11055 10.6697L7.06119 10.6251L7.05132 10.6301ZM7.03158 9.30872C7.11055 9.21472 7.14016 9.11076 7.12536 8.99694C7.11055 8.89801 7.06119 8.80891 6.98223 8.73962C6.89833 8.67033 6.79962 8.63569 6.69598 8.63569C6.57752 8.64065 6.47388 8.69508 6.3801 8.79406L6.2271 8.97219C6.19255 9.01183 6.17281 9.05139 6.17281 9.08601C6.16788 9.13552 6.18762 9.17507 6.23204 9.21472L6.73546 9.65513L7.03652 9.30872H7.03158Z" fill="white"/>
<path d="M8.19352 7.23008C8.42548 7.25977 8.63277 7.36865 8.80552 7.55176C8.98319 7.73486 9.0819 7.94271 9.10164 8.18026C9.12631 8.4376 9.03748 8.66524 8.84006 8.85825C8.64264 9.05124 8.40574 9.13044 8.1491 9.09582C7.91714 9.06613 7.71478 8.96217 7.53711 8.77907C7.35943 8.59595 7.26565 8.38316 7.24097 8.15056C7.22123 7.88828 7.31008 7.66063 7.5075 7.46762C7.70491 7.27463 7.93194 7.20039 8.19352 7.23503V7.23008ZM7.41865 8.04169C7.468 8.2248 7.57165 8.40296 7.73946 8.57617C7.90727 8.75432 8.08 8.86319 8.26261 8.91759C8.4699 8.97706 8.64758 8.94235 8.78577 8.80876C8.9289 8.67514 8.97332 8.49699 8.91903 8.28418C8.87461 8.10108 8.76603 7.91797 8.59823 7.74476C8.43042 7.57155 8.25768 7.45773 8.07507 7.40329C7.86284 7.34391 7.6901 7.37855 7.54698 7.51712C7.40385 7.65568 7.35943 7.82889 7.41372 8.03674L7.41865 8.04169Z" fill="white"/>
<path d="M9.36438 8.18957C9.44828 8.12523 9.49764 8.07575 9.51242 8.04606C9.53218 8.00152 9.51736 7.94708 9.46803 7.88769L8.63887 6.84844C8.59445 6.794 8.55003 6.76431 8.50068 6.76431C8.44639 6.76431 8.37729 6.794 8.29832 6.85339L8.25391 6.79895L8.87577 6.29912L8.91526 6.35355C8.84616 6.408 8.80667 6.45748 8.782 6.50697C8.76225 6.5614 8.77212 6.6109 8.80667 6.65543L9.19657 7.15032L9.88263 6.601L9.50258 6.12096C9.46309 6.07147 9.41373 6.05167 9.35451 6.05663C9.29529 6.06158 9.23605 6.08632 9.17683 6.13581L9.13735 6.08137L9.75923 5.58649L9.79865 5.63598C9.73947 5.68547 9.69501 5.73495 9.67534 5.78939C9.65064 5.84383 9.65558 5.89827 9.69016 5.93786L10.5439 7.01175C10.5884 7.06619 10.6377 7.08599 10.697 7.07609C10.7364 7.06619 10.7907 7.03154 10.8647 6.97217L10.9092 7.03154L10.2775 7.53138L10.233 7.47199L10.2478 7.4621C10.3169 7.40765 10.3564 7.36807 10.3712 7.33837C10.3959 7.28889 10.391 7.24434 10.3515 7.18991L9.927 6.66038L9.24099 7.2097L9.64076 7.71448C9.69501 7.77882 9.74441 7.80851 9.79381 7.79862C9.83323 7.78872 9.88757 7.75408 9.96652 7.68479L10.0109 7.74418L9.38412 8.24401L9.3397 8.18462L9.36438 8.18957Z" fill="white"/>
<path d="M10.7244 4.90394L10.5664 5.0821L10.9119 6.63603C10.9416 6.7449 10.9465 6.82904 10.9218 6.88842C10.902 6.93791 10.8577 6.98739 10.7836 7.03194L10.828 7.09627L11.366 6.7449L11.3265 6.68551C11.2525 6.73501 11.1883 6.7548 11.1291 6.7449C11.065 6.73501 11.0205 6.69046 11.0007 6.61128L10.9218 6.25001L11.5437 5.84422L11.9039 6.1065C11.9632 6.15105 11.978 6.19558 11.9484 6.24012C11.9286 6.27476 11.8793 6.31435 11.8052 6.36384L11.8447 6.42818L12.4962 6.00258L12.4567 5.93824L12.437 5.94815C12.3877 5.98279 12.3531 6.00258 12.3234 6.00752C12.2791 6.01743 12.2297 6.00752 12.1804 5.97288L10.7293 4.89899L10.7244 4.90394ZM10.6553 5.16623L11.4746 5.79473L10.902 6.17084L10.6553 5.16623Z" fill="white"/>
<path d="M12.338 6.02762C12.4219 5.98307 12.4761 5.94348 12.5058 5.89894C12.5453 5.84945 12.5453 5.78512 12.5058 5.71584L11.879 4.53307C11.8543 4.48358 11.8198 4.44893 11.7753 4.43904C11.7161 4.42419 11.6371 4.44399 11.5286 4.49843L11.5039 4.44893L11.9333 4.21634L13.5817 4.9933L12.9993 3.88972C12.9746 3.84517 12.9401 3.82044 12.8957 3.82044C12.8464 3.81549 12.7772 3.83528 12.6884 3.87982L12.6637 3.83033L13.2066 3.5433L13.2313 3.59774C13.1622 3.63238 13.1128 3.67691 13.0832 3.72146C13.0536 3.77094 13.0487 3.81549 13.0734 3.85508L13.8433 5.31498L13.789 5.34468L11.9579 4.48358L12.5798 5.66635C12.6144 5.73068 12.6638 5.76532 12.7279 5.77027C12.7871 5.77027 12.8562 5.75048 12.9451 5.70594L12.9746 5.76038L12.3676 6.08205L12.338 6.02267V6.02762Z" fill="white"/>
<path d="M15.4122 3.83485C15.3283 3.86949 15.274 3.90908 15.2493 3.94372C15.2296 3.97342 15.2296 4.01301 15.2493 4.05754L15.4764 4.60192L15.427 4.62171L15.2197 4.54748C15.1803 4.63161 15.1408 4.70089 15.1012 4.74049C15.0421 4.79987 14.9483 4.85431 14.8101 4.9137C14.5732 5.01267 14.3462 5.01267 14.129 4.9137C13.9168 4.81472 13.7589 4.63161 13.6503 4.37922C13.5467 4.13178 13.5318 3.88929 13.6009 3.65669C13.6798 3.40925 13.8378 3.23109 14.0845 3.13211C14.1389 3.10737 14.1931 3.09252 14.2524 3.07768C14.2869 3.07272 14.3264 3.06778 14.3807 3.06283C14.4399 3.05788 14.4795 3.04799 14.4991 3.03808C14.5288 3.01829 14.5485 2.98365 14.5633 2.92921L14.6225 2.91437L14.9582 3.28058L14.9038 3.33007L14.8842 3.32017C14.7608 3.24099 14.6522 3.18161 14.5633 3.15686C14.4103 3.11727 14.2623 3.12222 14.1191 3.18161C13.9316 3.26078 13.8181 3.4043 13.7884 3.6072C13.7589 3.79031 13.7983 3.99816 13.897 4.23571C14.0204 4.52768 14.1636 4.72564 14.3264 4.82956C14.4696 4.91864 14.6176 4.93349 14.7756 4.8642C14.8939 4.81472 14.9878 4.75533 15.0519 4.68605C15.1358 4.59697 15.1655 4.50294 15.1408 4.40397L15.0322 4.15157C15.0174 4.11198 14.9829 4.08724 14.9285 4.08229C14.8743 4.07734 14.8051 4.09219 14.7262 4.12683L14.6965 4.05754L15.3777 3.77051L15.4073 3.8398L15.4122 3.83485Z" fill="white"/>
<path d="M31.2958 4.59768L31.2562 4.55315C31.1033 4.67192 30.9502 4.74121 30.7973 4.761C30.6739 4.7808 30.5554 4.761 30.437 4.71646C30.2791 4.65212 30.1705 4.53336 30.126 4.3453C30.0767 4.15229 30.1013 3.93455 30.1952 3.68711C30.2889 3.43966 30.4172 3.26645 30.5752 3.16253C30.7281 3.06355 30.8911 3.04376 31.0489 3.10314C31.1921 3.15758 31.3007 3.25656 31.3796 3.40007C31.429 3.48915 31.4734 3.60792 31.503 3.75639H31.5721L31.5919 3.24171L31.5425 3.21697C31.508 3.25161 31.4685 3.26645 31.429 3.2615C31.3895 3.2615 31.3549 3.23676 31.3155 3.20211L31.2908 3.17738C31.2612 3.14768 31.2315 3.12788 31.2069 3.10809C31.1625 3.0784 31.1132 3.05365 31.0539 3.02891C30.9206 2.97942 30.7874 2.95962 30.6541 2.97942C30.5406 2.99427 30.4271 3.03881 30.3185 3.10809C30.2247 3.17242 30.1408 3.25161 30.0668 3.34564C30.0026 3.42976 29.9484 3.52379 29.9138 3.61782C29.8052 3.90485 29.7953 4.16219 29.8842 4.38489C29.9632 4.58779 30.1063 4.72635 30.3136 4.80554C30.5208 4.88472 30.7183 4.89956 30.896 4.84018C31.0391 4.80059 31.1724 4.71646 31.3007 4.59274L31.2958 4.59768Z" fill="white"/>
<path d="M31.0288 4.97831C31.1078 5.01295 31.1671 5.03274 31.2114 5.02779C31.2707 5.02779 31.3151 4.99315 31.3447 4.93376L31.9369 3.69656C31.9666 3.63717 31.9715 3.58769 31.9518 3.55304C31.9271 3.51345 31.8679 3.46891 31.7741 3.42437L31.8037 3.36499L33.1116 3.99349L33.077 4.47353H33.0228L32.9931 4.36465C32.9635 4.23598 32.9289 4.14195 32.8796 4.07267C32.8007 3.95885 32.6773 3.85987 32.4996 3.77574C32.4156 3.73615 32.3466 3.71635 32.2973 3.7114C32.238 3.7114 32.1986 3.7411 32.1689 3.79554L31.8926 4.37455L32.159 4.50322C32.2479 4.54776 32.3268 4.55765 32.3861 4.53291C32.4502 4.50817 32.5144 4.44383 32.5835 4.33496L32.6427 4.36465L32.3219 5.03769L32.2627 5.008C32.3022 4.89417 32.312 4.8051 32.2923 4.74076C32.2726 4.67643 32.2182 4.61704 32.1245 4.5725L31.8531 4.44383L31.5668 5.03769C31.5372 5.10202 31.5273 5.15152 31.5471 5.1911C31.5668 5.22575 31.6161 5.26039 31.7 5.29998L31.8481 5.36926C31.9715 5.42865 32.0949 5.4534 32.2232 5.43854C32.3367 5.42865 32.4799 5.37916 32.6575 5.30492L32.697 5.35442L32.3072 5.67114L30.9844 5.03274L31.014 4.97335L31.0288 4.97831Z" fill="white"/>
<path d="M32.4322 5.63626C32.5112 5.68574 32.5802 5.71049 32.6247 5.71049C32.6888 5.71049 32.7431 5.68079 32.7826 5.61646L33.4588 4.45843C33.4884 4.40895 33.4983 4.3644 33.4835 4.31987C33.4637 4.26048 33.4044 4.2011 33.3008 4.14171L33.3304 4.09222L33.75 4.33967L33.9572 6.15093L34.5841 5.07209C34.6088 5.0325 34.6088 4.98796 34.5841 4.94837C34.5594 4.90383 34.5101 4.85434 34.4262 4.80485L34.4557 4.75536L34.9838 5.06714L34.9542 5.11663C34.8851 5.07703 34.8259 5.05724 34.7716 5.05724C34.7124 5.05724 34.6679 5.07209 34.6482 5.11663L33.8141 6.54189L33.7549 6.50725L33.5229 4.49802L32.8468 5.6511C32.8122 5.71049 32.8073 5.76987 32.8468 5.82926C32.8715 5.88369 32.9307 5.92824 33.0096 5.97772L32.9751 6.03217L32.3828 5.68574L32.4174 5.62636L32.4322 5.63626Z" fill="white"/>
<path d="M34.3921 6.83441C34.4661 6.88884 34.5302 6.92348 34.5747 6.93337C34.6339 6.94823 34.6833 6.93337 34.7128 6.88884L35.5469 5.71597C35.5716 5.67637 35.5815 5.64173 35.5716 5.60214C35.5618 5.56255 35.5322 5.53286 35.4927 5.49822C35.3989 5.43388 35.2805 5.40419 35.1324 5.41409C35.0337 5.41904 34.9152 5.44378 34.7721 5.48832L34.7425 5.44873L35.1521 5.18149L36.381 6.05744L36.2527 6.55726L36.2034 6.53747C36.2034 6.37911 36.1886 6.25538 36.1639 6.16136C36.1343 6.0228 36.08 5.92382 36.001 5.86938C35.9516 5.83474 35.9073 5.81494 35.8628 5.81494C35.8184 5.81494 35.7789 5.82979 35.7542 5.86443L34.9201 7.03235C34.8906 7.0769 34.8856 7.12143 34.9103 7.16597C34.93 7.20061 34.9843 7.25011 35.0682 7.30949L35.0287 7.36392L34.3477 6.87894L34.3872 6.8245L34.3921 6.83441Z" fill="white"/>
<path d="M35.3648 7.5275C35.4289 7.58193 35.4832 7.61657 35.5276 7.62647C35.5869 7.63637 35.6362 7.62152 35.6806 7.56709L36.5641 6.52288C36.6085 6.4734 36.6233 6.42885 36.6135 6.38926C36.6036 6.34473 36.5542 6.29028 36.4703 6.21605L36.5147 6.16656L37.6203 7.10684L37.4673 7.56214L37.4179 7.54729V7.43347C37.4179 7.3048 37.408 7.20087 37.3833 7.12169C37.339 6.99302 37.2403 6.86435 37.0922 6.74062C37.0182 6.68125 36.9589 6.64165 36.9145 6.62681C36.8602 6.61691 36.8109 6.62681 36.7713 6.6763L36.3518 7.16623L36.5789 7.35924C36.6578 7.42357 36.727 7.45326 36.7911 7.44336C36.8602 7.43347 36.9392 7.38893 37.028 7.3048L37.0823 7.34933L36.5986 7.91845L36.5492 7.87391C36.6184 7.77494 36.6479 7.6908 36.6479 7.62152C36.6479 7.55223 36.6085 7.48295 36.5296 7.41861L36.3025 7.22562L35.8781 7.72544C35.8336 7.77988 35.8139 7.82937 35.8237 7.86897C35.8336 7.90361 35.8731 7.95309 35.9422 8.01743L36.0705 8.12135C36.1742 8.21043 36.2926 8.26486 36.416 8.28466C36.5296 8.30446 36.6825 8.29456 36.87 8.26487L36.8947 8.31931L36.4406 8.52716L35.3203 7.57698L35.3648 7.5275Z" fill="white"/>
<path d="M36.5561 8.52691C36.6154 8.58629 36.6647 8.62093 36.6992 8.64073C36.7536 8.66052 36.798 8.65063 36.8424 8.60609L37.8393 7.60147C37.8789 7.56189 37.8936 7.51735 37.8887 7.47776C37.8789 7.43321 37.8393 7.37878 37.7703 7.3095L37.8146 7.26495L38.5253 7.97264C38.6487 8.10131 38.7277 8.22503 38.7524 8.35865C38.782 8.49722 38.7474 8.61599 38.6537 8.71002C38.555 8.80405 38.4464 8.85353 38.3131 8.84858C38.2193 8.84858 38.1206 8.81394 38.0219 8.76445C38.0318 8.84363 38.0071 8.94262 37.9578 9.05644C37.9282 9.12075 37.8789 9.21475 37.8048 9.3336C37.7752 9.38805 37.7505 9.4276 37.7357 9.45236C37.7159 9.49191 37.7011 9.5216 37.6962 9.54636C37.6864 9.59587 37.6962 9.62556 37.7357 9.64036C37.7802 9.65525 37.8393 9.64538 37.9183 9.62063L37.9331 9.66018C37.869 9.70969 37.7949 9.73445 37.7209 9.73445C37.6469 9.73445 37.5876 9.71463 37.5383 9.66511C37.4988 9.62556 37.4742 9.58591 37.4544 9.55129C37.4346 9.5068 37.4346 9.45729 37.4544 9.40778C37.4692 9.36329 37.4938 9.30884 37.5284 9.24453C37.5482 9.20489 37.5827 9.14058 37.6321 9.06137C37.7159 8.91786 37.7703 8.81889 37.7949 8.7595C37.8344 8.65557 37.8344 8.58629 37.7949 8.55165L37.5333 8.28937L37.025 8.7991C36.9904 8.83869 36.9805 8.88322 37.0003 8.93768C37.0151 8.98217 37.0546 9.03168 37.1138 9.09599L37.0695 9.14551L36.5117 8.59124L36.561 8.54175L36.5561 8.52691ZM37.8887 8.54175C37.9776 8.62588 38.0713 8.66052 38.175 8.64568C38.2737 8.63084 38.3674 8.58134 38.4563 8.49227C38.5451 8.40319 38.5747 8.30421 38.5451 8.20029C38.5204 8.10626 38.4415 7.98749 38.3131 7.84892C38.249 7.78459 38.1947 7.74499 38.1552 7.73509C38.1108 7.7252 38.0713 7.73509 38.0318 7.77964L37.5827 8.22998L37.8937 8.54175H37.8887Z" fill="white"/>
<path d="M44.9004 29.0591H40.375V29.065C38.4551 34.1669 34.2946 38.2047 29.0684 40.0308V44.0005H16.0039V39.8384C19.2514 29.431 29.0684 29.0591 29.0684 29.0591C40.681 27.5644 40.3408 16.2222 40.3408 16.2222H44.9004V29.0591ZM21.5557 41.105C21.4228 41.1051 21.3046 41.125 21.1963 41.1793C21.0977 41.2287 21.0184 41.2982 20.9443 41.3922C20.8852 41.4763 20.8304 41.5655 20.791 41.6744C20.7614 41.7684 20.7422 41.8626 20.7373 41.9566C20.7274 42.2386 20.7866 42.4661 20.9297 42.6343C21.058 42.7877 21.2255 42.8725 21.4277 42.8775C21.63 42.8874 21.8031 42.8428 21.9463 42.7339C22.0597 42.6547 22.1535 42.5455 22.2275 42.397H22.2324L22.1875 42.3677C22.0889 42.5159 21.9757 42.6248 21.8477 42.6841C21.749 42.7386 21.6351 42.7584 21.5166 42.7584C21.3588 42.7484 21.2354 42.6694 21.1367 42.5211C21.0381 42.3678 20.9941 42.1695 21.0039 41.9322C21.0138 41.6898 21.0722 41.5014 21.1807 41.3629C21.2892 41.2292 21.4183 41.1694 21.5762 41.1744C21.7142 41.1745 21.8427 41.2337 21.9512 41.3326C22.0202 41.4018 22.094 41.4913 22.1582 41.6099L22.2227 41.5953L22.0889 41.1304H22.0352C22.0105 41.1651 21.9856 41.1899 21.9512 41.1998C21.9167 41.2096 21.8773 41.199 21.833 41.1744L21.8076 41.1646C21.7732 41.1498 21.7434 41.1354 21.7139 41.1304C21.6694 41.1157 21.6149 41.11 21.5557 41.105ZM22.2266 41.1793V41.2388C22.3302 41.2388 22.3952 41.2483 22.4297 41.2681C22.4591 41.288 22.4736 41.3281 22.4736 41.3873L22.498 42.6392C22.498 42.7032 22.4738 42.7424 22.4297 42.772C22.3903 42.7918 22.3357 42.8023 22.2568 42.8072V42.8668L22.2471 42.8716L23.5938 42.8472L23.7812 42.4361L23.7324 42.4117C23.6192 42.545 23.5203 42.6433 23.4316 42.6978C23.3329 42.7622 23.224 42.7974 23.0957 42.7974H22.9473C22.8586 42.7974 22.804 42.7968 22.7744 42.772C22.7452 42.7473 22.7304 42.708 22.7256 42.6441L22.7158 42.0396H22.9922C23.0808 42.0298 23.1499 42.0548 23.1943 42.1041C23.2388 42.1486 23.2635 42.2286 23.2783 42.3375H23.3428L23.333 41.6588H23.2686C23.2587 41.7726 23.229 41.8525 23.1895 41.897C23.1499 41.9414 23.0808 41.9663 22.9922 41.9664H22.7207L22.7109 41.3765C22.711 41.3223 22.731 41.2831 22.7803 41.2584C22.8198 41.2386 22.8841 41.2281 22.9727 41.2281C23.1501 41.2281 23.2929 41.2537 23.4014 41.313C23.4655 41.3526 23.5354 41.4113 23.6094 41.5054L23.6777 41.5797L23.7227 41.5601L23.5547 41.1539L22.2266 41.1793ZM24.5566 41.0347C24.5074 41.0842 24.4335 41.1241 24.3447 41.1636C24.2609 41.1982 24.1719 41.2278 24.0732 41.2525L24.0928 41.2974C24.226 41.2776 24.315 41.2728 24.3594 41.2925C24.389 41.3074 24.4092 41.332 24.4092 41.3814L24.5127 42.5738C24.5176 42.6333 24.4976 42.673 24.4482 42.7027C24.4039 42.7225 24.3197 42.7425 24.1963 42.7574L24.2061 42.8072H24.2119L25.0557 42.732V42.6832C24.9374 42.6931 24.8579 42.6833 24.8086 42.6685C24.7543 42.6487 24.7247 42.6136 24.7197 42.5591L24.5869 41.0552L24.5566 41.0347ZM19.1582 40.9761C19.2616 40.9909 19.3306 41.0156 19.3701 41.0601C19.3998 41.0898 19.4101 41.1297 19.4053 41.1841L19.2715 42.4009C19.2616 42.4701 19.232 42.5149 19.1729 42.5347C19.1284 42.5545 19.0643 42.5544 18.9805 42.5445V42.6089L18.9609 42.6138L19.582 42.6783V42.6187C19.5033 42.6087 19.4339 42.5889 19.3945 42.5543C19.3455 42.5148 19.3261 42.465 19.3359 42.4009L19.4688 41.1841L20.4121 42.7828L20.4756 42.7925L20.6436 41.2877C20.6437 41.2481 20.6783 41.2137 20.7227 41.189C20.772 41.1693 20.8264 41.1646 20.9004 41.1695V41.1197L20.3477 41.0552V41.1099C20.4315 41.1198 20.4908 41.1398 20.5303 41.1695C20.5646 41.1943 20.5791 41.2336 20.5742 41.273L20.4512 42.4117L19.6025 40.9713L19.1582 40.9214V40.9761ZM25.4375 40.941C25.2795 40.9657 25.1562 41.035 25.0723 41.1539C24.9885 41.2725 24.9588 41.4108 24.9834 41.5689C25.0081 41.7372 25.0673 41.8666 25.166 41.9507C25.2548 42.0247 25.3535 42.0543 25.4668 42.0445C25.5557 42.0296 25.635 42.0051 25.7041 41.9605C25.7786 41.9184 25.8342 41.8622 25.8818 41.7896C25.916 42.0408 25.9007 42.2383 25.8467 42.3912C25.7973 42.5441 25.7138 42.6233 25.6104 42.6382C25.5365 42.6481 25.4866 42.6385 25.457 42.6138C25.4422 42.5989 25.4278 42.5637 25.418 42.5142L25.4072 42.4605C25.3974 42.4308 25.378 42.4011 25.3535 42.3863C25.3289 42.3765 25.2991 42.3706 25.2695 42.3804C25.24 42.3854 25.2101 42.4006 25.1953 42.4302C25.1756 42.4549 25.1709 42.4845 25.1807 42.524C25.1905 42.5932 25.2396 42.6436 25.3135 42.6832C25.3825 42.7129 25.462 42.7224 25.5459 42.7125C25.7235 42.6877 25.8669 42.5934 25.9805 42.4351C26.1036 42.252 26.1429 42.0341 26.1133 41.7769C26.069 41.4507 25.9903 41.2182 25.8672 41.0845C25.7586 40.9658 25.6151 40.9163 25.4375 40.941ZM18.4111 40.8668C18.5098 40.8816 18.5749 40.9064 18.6045 40.9361C18.6291 40.9608 18.6339 41.0009 18.624 41.0601L18.4219 42.3218C18.4169 42.3762 18.3822 42.4066 18.3281 42.4214C18.2887 42.4265 18.2291 42.4265 18.1553 42.4166L18.1455 42.48L18.876 42.5992L18.8857 42.5396C18.7969 42.5247 18.7377 42.5047 18.7031 42.48C18.6588 42.4553 18.6386 42.4162 18.6484 42.3619L18.8457 41.1099C18.8556 41.0556 18.8852 41.0203 18.9346 41.0005C18.979 40.9857 19.0481 40.9809 19.127 40.9957L19.1367 40.9312L19.1523 40.9263L18.4219 40.8082L18.4111 40.8668ZM26.501 40.7779C26.3481 40.8027 26.2344 40.857 26.1504 40.9263C26.0666 41.0005 26.0419 41.0852 26.0566 41.1841C26.0616 41.2186 26.077 41.2484 26.0967 41.2681C26.1163 41.2877 26.1407 41.2973 26.165 41.2974C26.1896 41.2974 26.2147 41.2878 26.2344 41.273C26.254 41.2582 26.2694 41.2382 26.2793 41.2086C26.2842 41.1888 26.2891 41.1687 26.2793 41.149C26.2792 41.1341 26.2686 41.119 26.2588 41.0943C26.2491 41.0748 26.2441 41.0602 26.2393 41.0504V40.9957C26.254 40.9611 26.279 40.9267 26.3135 40.9019C26.3529 40.8772 26.4074 40.8622 26.4863 40.8423C26.5899 40.8225 26.6742 40.8426 26.7285 40.9019C26.7727 40.9466 26.8026 41.0258 26.8223 41.1295C26.8469 41.258 26.8268 41.3569 26.7725 41.4361C26.7133 41.5202 26.6196 41.5746 26.4814 41.5943H26.4072C26.3875 41.6043 26.3779 41.6193 26.3828 41.6441C26.3829 41.6637 26.4023 41.6733 26.4268 41.6734C26.4465 41.6833 26.4762 41.6735 26.5059 41.6636L26.5205 41.6588L26.541 41.649C26.6838 41.6294 26.797 41.6491 26.8857 41.7183C26.9598 41.7777 27.0095 41.8671 27.0342 41.9908C27.0637 42.149 27.0485 42.2673 26.9844 42.3365C26.9301 42.4009 26.8269 42.4455 26.6592 42.4752C26.5656 42.4949 26.5063 42.4755 26.4717 42.4263C26.4521 42.4016 26.4463 42.3519 26.4414 42.2828V42.2379C26.4316 42.1984 26.4172 42.1638 26.3828 42.1441C26.3582 42.1243 26.3284 42.1236 26.2939 42.1285C26.2594 42.1334 26.2346 42.1487 26.2148 42.1734C26.1951 42.203 26.1904 42.2327 26.1953 42.2672C26.2151 42.3711 26.2695 42.4452 26.3682 42.4947C26.457 42.5342 26.5603 42.5497 26.6787 42.5298C26.8811 42.4903 27.0341 42.4257 27.1328 42.3218C27.2364 42.2228 27.2708 42.1039 27.2461 41.9654C27.2214 41.8419 27.1727 41.7523 27.0938 41.688C27 41.6138 26.8613 41.5796 26.6836 41.5845C26.7971 41.54 26.8859 41.4753 26.9551 41.3912C27.029 41.3021 27.0539 41.198 27.0342 41.0992C27.0144 40.9807 26.9549 40.887 26.8613 40.8277C26.7626 40.7683 26.6441 40.7482 26.501 40.7779ZM17.7275 40.6285C17.545 40.5889 17.3967 40.609 17.2832 40.6783C17.1845 40.7377 17.1252 40.8318 17.1055 40.9605C17.0809 41.1137 17.1201 41.2472 17.2334 41.356C17.2975 41.4154 17.4211 41.4944 17.6035 41.5884C17.7615 41.6626 17.8657 41.7275 17.9199 41.7769C18.0037 41.8561 18.0382 41.9454 18.0234 42.0543C18.0036 42.1777 17.9394 42.2665 17.8311 42.3111C17.7374 42.3556 17.6388 42.3603 17.5303 42.3257C17.3822 42.2812 17.2588 42.2069 17.165 42.1129C17.1059 42.0584 17.0408 41.9748 16.9717 41.8511L16.9619 41.8316L16.918 41.7623L16.873 41.772L16.957 42.272L16.9873 42.2672H16.9922C17.0168 42.2475 17.0361 42.2369 17.0557 42.2271C17.0852 42.2271 17.1199 42.2223 17.1543 42.2271L17.2285 42.2672C17.2926 42.3019 17.3425 42.3215 17.377 42.3414C17.4411 42.371 17.5004 42.3901 17.5547 42.4C17.7075 42.4345 17.8406 42.4202 17.9541 42.3658C18.0873 42.3015 18.1716 42.1874 18.2061 42.0191C18.2208 41.9253 18.2209 41.8413 18.1963 41.772C18.1766 41.7028 18.1422 41.6429 18.083 41.5884C18.0387 41.544 17.9743 41.5001 17.9004 41.4556C17.856 41.4358 17.7813 41.3957 17.6826 41.3511C17.5398 41.282 17.4411 41.2228 17.3867 41.1832C17.303 41.1189 17.2686 41.0397 17.2783 40.9507C17.2931 40.8419 17.342 40.7669 17.4307 40.7173C17.5095 40.6778 17.5938 40.6634 17.6924 40.688C17.8405 40.7326 17.9591 40.8022 18.043 40.8863C18.0972 40.9457 18.1614 41.0446 18.2305 41.188H18.2852L18.2305 40.7281L18.2012 40.7173L18.1074 40.7574C18.0877 40.7624 18.0628 40.7624 18.0381 40.7574C18.0233 40.7524 17.9984 40.7371 17.959 40.7173C17.9196 40.6976 17.8849 40.6832 17.8604 40.6734C17.816 40.6536 17.7718 40.6383 17.7275 40.6285ZM27.5566 40.5953C27.3988 40.6299 27.285 40.7088 27.2109 40.8375C27.142 40.9612 27.1275 41.1 27.1621 41.2632C27.2017 41.4264 27.2753 41.5455 27.3789 41.6197C27.4726 41.6839 27.5761 41.7078 27.6846 41.6832C27.7685 41.6633 27.8479 41.6291 27.9121 41.5845L27.9072 41.5894C27.9762 41.535 28.0357 41.4655 28.0801 41.3814V41.4019C28.1294 41.6442 28.1342 41.8472 28.0947 42.0054C28.0601 42.1637 27.9854 42.2531 27.8818 42.2779C27.8081 42.2877 27.7591 42.287 27.7295 42.2623C27.7098 42.2475 27.6945 42.218 27.6797 42.1685L27.665 42.1138C27.6551 42.0794 27.6349 42.0593 27.6055 42.0445C27.5809 42.0396 27.5509 42.0395 27.5215 42.0445C27.4873 42.0543 27.4679 42.0696 27.4482 42.0992C27.4285 42.1288 27.4287 42.1633 27.4385 42.1978C27.4582 42.267 27.5072 42.3166 27.5859 42.3414C27.655 42.3661 27.7344 42.371 27.8184 42.3511C27.9959 42.3066 28.1338 42.2029 28.2275 42.0298C28.3361 41.8368 28.3609 41.6141 28.3018 41.3668C28.2327 41.0452 28.1293 40.8226 27.9961 40.6988C27.8776 40.59 27.7343 40.5556 27.5566 40.5953ZM25.4072 41.0103H25.4277C25.5658 40.9857 25.6739 41.06 25.7529 41.2183C25.8022 41.3223 25.8425 41.466 25.8721 41.6539C25.8474 41.728 25.8023 41.7919 25.7334 41.8463C25.6693 41.8957 25.6051 41.9252 25.541 41.9351C25.4324 41.945 25.3532 41.9156 25.2939 41.8365C25.2447 41.7721 25.2102 41.6683 25.1904 41.5201C25.1707 41.3669 25.1804 41.2381 25.2148 41.149C25.2543 41.0601 25.3187 41.0155 25.4072 41.0005V41.0103ZM27.5664 40.6588C27.6997 40.6242 27.8135 40.6841 27.9072 40.8375C27.9664 40.9365 28.0152 41.0804 28.0596 41.2584C28.0447 41.3373 28.0054 41.4013 27.9414 41.4654C27.8822 41.5198 27.8231 41.5501 27.7539 41.5699C27.6454 41.5946 27.5612 41.5699 27.4971 41.5005C27.4428 41.4412 27.4037 41.3372 27.3691 41.1988C27.3297 41.0405 27.3298 40.9168 27.3594 40.8228H27.3691C27.3988 40.7337 27.458 40.6786 27.5469 40.6588H27.5664Z" fill="white"/>
<path d="M147.988 12.4958V15.8165H163.204V17.5733H147.988V19.3747V20.8989V22.0223V24.4323V25.1549H166.66V22.0223H152.282V20.8989H166.66V18.86V17.5733V15.8165V14.416V12.4958H147.988Z" fill="white"/>
<path d="M162.975 29.8665V26.3033H159.195V29.327C158.573 29.1291 157.927 28.8816 157.235 28.5501C157.235 28.5501 156.693 28.3026 155.789 28.0305V26.3033H152.241V27.397C150.765 27.303 149.082 27.4019 147.34 27.9413V31.5936C147.34 31.5936 152.754 29.2973 158.637 32.0637C158.637 32.0637 164.614 33.6523 167.318 31.267V27.9908C167.318 27.9908 165.922 29.6834 162.98 29.8714L162.975 29.8665Z" fill="white"/>
<path d="M139.172 12.9175V29.2486C137.518 29.3624 134.809 29.3327 132.169 28.3628C132.169 28.3628 127.688 27.1453 123.531 28.4073V31.6835C123.531 31.6835 128.151 30.466 132.03 31.5449C132.03 31.5449 139.597 33.9005 142.903 30.8421V12.9175H139.172Z" fill="white"/>
<path d="M130.865 12.5448C134.656 12.5448 137.726 15.623 137.726 19.4237C137.725 23.2243 134.65 26.3075 130.865 26.3075C127.08 26.3075 124.004 23.2243 124.004 19.4237C124.004 15.623 127.075 12.5448 130.865 12.5448ZM130.499 18.1571H127.232V21.0126H130.499V23.7304C130.499 23.7304 131.2 21.3892 133.396 21.2011C133.396 21.2011 136.57 20.9186 136.244 18.1571H133.396V15.164H130.499V18.1571Z" fill="white"/>
<path d="M184.231 21.4835H182.593C183.215 20.5779 183.584 19.4891 183.584 18.3015C183.584 15.2233 181.127 12.734 178.096 12.734C175.066 12.734 172.603 15.2282 172.603 18.3015C172.603 19.4891 172.974 20.5829 173.6 21.4835H171.547V24.7151H176.942V27.0559H180.357V24.7151H184.227V21.4835H184.231ZM178.101 16.025C179.335 16.025 180.342 17.0394 180.342 18.2965C180.342 19.5535 179.34 20.568 178.101 20.568C176.862 20.568 175.861 19.5485 175.861 18.2965C175.861 17.0445 176.862 16.025 178.101 16.025Z" fill="white"/>
<path d="M185.989 13.1991V24.1954H184.375V27.1449H185.989H189.908V13.1991H185.989Z" fill="white"/>
<path d="M175.241 28.2193V26.2101H171.781V31.9656C171.781 31.9656 175.794 29.9514 181.514 32.2477C181.514 32.2477 186.77 34.3063 189.998 31.1242V28.1302C189.998 28.1302 186.539 31.1242 180.868 28.8774C180.868 28.8774 177.822 27.1008 175.241 28.2193Z" fill="white"/>
<path d="M97.4916 16.1086V13.0551H78.2578V16.1086H81.2191V22.6559H78.2578V25.8182H97.4916V22.6559H94.382V16.1086H97.4916ZM90.7988 22.6559H84.8023V16.1086H90.7988V22.6559Z" fill="white"/>
<path d="M90.8758 30.3271V26.9222H87.0014V28.7483C87.0014 28.7483 80.9999 27.3825 78.0781 28.9216V32.7124C78.0781 32.7124 84.1882 30.0796 87.7664 32.6085C87.7664 32.6085 93.6149 35.5877 98.7772 31.9403V28.4267C98.7772 28.4267 95.5938 30.817 90.8807 30.3222L90.8758 30.3271Z" fill="white"/>
<path d="M113.513 13.2088H108.992C108.992 13.2088 108.973 13.2038 108.962 13.1989V11.6994H105.286V13.2088H100.77V16.0197H102.314C101.984 16.7274 101.781 17.5044 101.781 18.3358C101.781 21.3447 104.214 23.7795 107.215 23.7795C110.216 23.7795 112.645 21.3397 112.645 18.3358C112.645 17.5044 112.447 16.7224 112.112 16.0197H113.513V13.2088ZM109.594 18.3358C109.594 19.6571 108.528 20.7261 107.215 20.7261C105.902 20.7261 104.836 19.6571 104.836 18.3358C104.836 17.2074 105.616 16.2671 106.667 16.0197H107.768C108.814 16.2671 109.599 17.2074 109.599 18.3358H109.594Z" fill="white"/>
<path d="M120.778 16.4403V13.3177H115.162V23.1856C114.51 22.943 113.815 22.7897 113.079 22.7897C109.787 22.7897 107.117 25.467 107.117 28.7679C107.117 32.0688 109.787 34.751 113.079 34.751C116.371 34.751 118.853 32.237 119.011 29.0747C119.016 28.9708 119.041 28.8718 119.041 28.7679C119.041 28.6639 119.016 28.565 119.011 28.466V16.4403H120.778ZM112.936 30.9156C111.682 30.9156 110.661 29.8962 110.661 28.6342C110.661 27.3723 111.682 26.3528 112.936 26.3528C114.027 26.3528 114.939 27.1248 115.162 28.1542V29.0747H115.171C114.964 30.1239 114.046 30.9156 112.941 30.9156H112.936Z" fill="white"/>
<path d="M59.0802 13.1251C59.0802 13.6744 58.9419 14.3079 58.6656 15.0205C58.3891 15.7331 57.9844 16.3467 57.4514 16.8565C56.9332 17.3365 56.4149 17.7077 55.8918 17.9749C55.3687 18.2422 54.8554 18.45 54.3569 18.5985L53.582 17.6929C54.0213 17.5593 54.4458 17.3959 54.8604 17.198C55.2748 17 55.6993 16.7328 56.1386 16.3864C56.5828 16.03 56.9135 15.6787 57.1257 15.3273C57.3379 14.9759 57.4662 14.6394 57.5107 14.3177H54.1693V13.13H59.0851L59.0802 13.1251ZM62.4313 20.8057C62.4313 21.4342 62.1105 21.9489 61.4688 22.3596C60.8273 22.7654 59.8846 22.9733 58.6409 22.9733C57.3971 22.9733 56.4643 22.7704 55.8178 22.3596C55.1712 21.9489 54.8505 21.4342 54.8505 20.8057C54.8505 20.1772 55.1712 19.6575 55.8178 19.2418C56.4643 18.8261 57.4021 18.6183 58.6409 18.6183C59.8797 18.6183 60.8273 18.8261 61.4688 19.2418C62.1105 19.6575 62.4313 20.1821 62.4313 20.8057ZM61.074 20.8156C61.074 20.4839 60.847 20.2217 60.393 20.0237C59.9389 19.8258 59.3615 19.7318 58.6557 19.7318C57.9499 19.7318 57.3527 19.8308 56.9135 20.0237C56.4742 20.2217 56.2521 20.479 56.2521 20.8008C56.2521 21.1224 56.4742 21.3847 56.9135 21.5876C57.3576 21.7905 57.9351 21.8944 58.6557 21.8944C59.3763 21.8944 59.9389 21.7905 60.393 21.5876C60.847 21.3797 61.074 21.1224 61.074 20.8106V20.8156ZM62.3523 18.5243H61.0493V17.3959H59.1146V16.2429H61.0493V15.1591H59.2776V13.9961H61.0493V12.4767H62.3523V18.5243Z" fill="white"/>
<path d="M70.0728 17.0198L69.3226 18.0442C69.1203 17.9601 68.8735 17.8265 68.5823 17.6582C68.2911 17.485 68.0246 17.292 67.7729 17.0693C67.5754 16.8911 67.4027 16.7179 67.2448 16.5447C67.0868 16.3764 66.9339 16.1735 66.7858 15.941C66.6623 16.1835 66.5094 16.421 66.3268 16.6437C66.1491 16.8714 65.9418 17.0891 65.7049 17.3019C65.4285 17.5493 65.1917 17.7523 64.9893 17.9007C64.787 18.0492 64.5698 18.1877 64.3427 18.3214L63.4297 17.3662C63.711 17.2128 64.017 17.0049 64.3576 16.7526C64.6931 16.4952 64.9992 16.2032 65.2706 15.8767C65.5766 15.5154 65.7888 15.1442 65.9073 14.7532C66.0306 14.3673 66.0899 13.9417 66.0899 13.4864V12.7588H67.462V13.4864C67.462 13.9417 67.5261 14.3573 67.6594 14.7335C67.7926 15.1096 67.9901 15.4461 68.2467 15.743C68.5428 16.0597 68.8488 16.3171 69.1548 16.525C69.4608 16.7328 69.7668 16.8961 70.0629 17.0149L70.0728 17.0198ZM72.5948 20.8749C72.5948 21.4886 72.2691 21.9884 71.6175 22.3794C70.9661 22.7704 70.0185 22.9683 68.7846 22.9683C67.5508 22.9683 66.6032 22.7753 65.9517 22.3843C65.3002 21.9984 64.9745 21.4936 64.9745 20.8749C64.9745 20.2564 65.3002 19.7664 65.9517 19.3655C66.6032 18.9598 67.5508 18.7569 68.7846 18.7569C70.0185 18.7569 70.9661 18.9548 71.6175 19.3557C72.2691 19.7565 72.5948 20.2613 72.5948 20.8749ZM66.4008 20.8749C66.4008 21.1719 66.618 21.4193 67.0573 21.6123C67.4964 21.8053 68.0739 21.8993 68.7945 21.8993C69.5151 21.8993 70.0728 21.8053 70.512 21.6172C70.9513 21.4293 71.1734 21.1867 71.1734 20.8849C71.1734 20.583 70.9513 20.3207 70.512 20.1375C70.0678 19.9545 69.4953 19.8605 68.7945 19.8605C68.0937 19.8605 67.4964 19.9495 67.0573 20.1326C66.618 20.3107 66.4008 20.5582 66.4008 20.8749ZM73.5917 16.0647H72.2641V18.5243H70.9711V12.4767H72.2641V14.8275H73.5917V16.0647Z" fill="white"/>
<path d="M63.3536 30.0157H59.1289V31.0253H62.1296V34.1183H60.8415V32.213H54.6623V31.0253H57.7716V30.0157H53.5469V28.828H63.3536V30.0157ZM62.1296 28.0956H54.7758V23.8495H56.0688V24.859H60.8415V23.8495H62.1296V28.0956ZM60.8415 26.9078V26.0022H56.0688V26.9078H60.8415Z" fill="white"/>
<path d="M73.4279 32.9797H63.6211V31.792H67.831V29.6739H64.9092V24.6508H72.2384V25.8386H66.2468V28.4812H72.3125V29.6689H69.2031V31.7871H73.4279V32.9748V32.9797Z" fill="white"/>
</g>
</svg>
