<svg width="229" height="26" viewBox="0 0 229 26" fill="none" xmlns="http://www.w3.org/2000/svg">
<g clip-path="url(#clip0_1637_6505)">
<path d="M12.0313 0H0V25.7909H3.63218V16.2726H12.0313C16.4477 16.2726 20.0354 12.6213 20.0354 8.13913C20.0354 3.65696 16.4422 0 12.0313 0ZM11.9645 12.8361H3.63218V3.43652H11.9645C14.5176 3.43652 16.5923 5.54478 16.5923 8.13913C16.5923 10.7335 14.5176 12.8417 11.9645 12.8417" fill="white"/>
<path d="M38.5288 0H35.4751L24.2058 25.7343L24.1836 25.7909H28.0438L30.6915 19.7487H43.3179L45.9544 25.7683L45.9656 25.7909H49.8258L38.5399 0.0226087L38.5288 0ZM32.0821 16.3122L36.9991 5.0813L41.9162 16.3122H32.0765H32.0821Z" fill="white"/>
<path d="M215.935 0H206.523V25.7909H215.935C222.932 25.7909 228.628 20.0087 228.628 12.8926C228.628 5.77652 222.932 0 215.935 0ZM215.729 22.083H210.261V3.70783H215.729C220.718 3.70783 224.773 7.82826 224.773 12.8983C224.773 17.9683 220.718 22.0887 215.729 22.0887" fill="white"/>
<path d="M121.042 0H117.41V25.7909H135.115L136.622 22.36H121.042V0Z" fill="white"/>
<path d="M155.187 0H152.133L140.864 25.7343L140.836 25.7909H144.696L147.344 19.7487H159.97L162.607 25.7683L162.618 25.7909H166.478L155.192 0.0226087L155.181 0H155.187ZM148.74 16.3122L153.657 5.0813L158.574 16.3122H148.734H148.74Z" fill="white"/>
<path d="M75.5794 18.997C74.5782 17.437 72.9763 16.4083 71.1963 16.1426C74.9453 15.4643 77.7932 12.1409 77.7932 8.13348C77.7932 3.64 74.2055 0 69.7891 0H57.7578V25.7909H61.39V16.2726H69.5833L75.6851 25.7909H79.9291L75.5739 18.997H75.5794ZM61.39 12.8361V3.43652H69.7891C72.3422 3.43652 74.4169 5.53913 74.4169 8.13913C74.4169 10.7391 72.3477 12.8417 69.7891 12.8417H61.39V12.8361Z" fill="white"/>
<path d="M94.1757 13.0113C95.3771 12.7909 96.5007 12.22 97.4018 11.3552L109.211 0H104.332L91.5892 12.2483V0H87.957V25.7909H91.5892V13.78L104.305 25.7909H109.216L97.4129 14.6391C96.5063 13.78 95.3827 13.2204 94.1757 13.0113Z" fill="white"/>
<path d="M192.711 23.2926C192.461 20.9809 191.621 18.7822 190.258 16.8774L178.155 0H174.027V25.7909H177.66V2.63391C177.91 4.94565 178.75 7.1387 180.113 9.04913L192.116 25.7909H196.343V0H192.711V23.2926Z" fill="white"/>
</g>
<defs>
<clipPath id="clip0_1637_6505">
<rect width="229" height="26" fill="white"/>
</clipPath>
</defs>
</svg>
