<svg width="159" height="42" viewBox="0 0 159 42" fill="none" xmlns="http://www.w3.org/2000/svg">
<g clip-path="url(#clip0_1637_7207)">
<path d="M32.3952 20.175C28.8102 17.7375 24.2202 18.7275 21.8052 22.395C19.7952 25.455 16.7577 25.8375 15.5877 25.8375C11.7477 25.8375 9.13016 23.1375 8.35016 20.3475C8.35016 20.3475 8.33516 20.295 8.32766 20.265C8.32016 20.235 8.31266 20.205 8.30516 20.175C7.99766 19.005 7.92266 18.4575 7.92266 17.22C7.92266 10.5525 14.7702 3.12005 24.6252 3.12005C34.4802 3.12005 40.5027 10.8075 41.9952 15.0825C41.9652 15 41.9427 14.9325 41.9202 14.8575C39.0477 6.49505 31.1277 0.487549 21.7902 0.487549C10.0602 0.487549 0.535156 10.005 0.535156 21.75C0.535156 32.25 8.10266 41.2275 18.6102 41.2275C26.9802 41.2275 32.6127 36.5325 35.1927 30.06C36.6102 26.52 35.6052 22.3575 32.3952 20.175Z" fill="white"/>
<path d="M42.1219 15.4875C40.8769 11.3175 35.0569 3.11255 24.6244 3.11255C14.7694 3.11255 7.92188 10.545 7.92188 17.2125C7.92188 18.45 7.99687 19.005 8.30437 20.1675C8.17687 19.6575 8.10938 19.1476 8.10938 18.6525C8.10938 11.7 15.0619 6.89255 22.2169 6.89255C31.8994 6.89255 39.7519 14.7375 39.7519 24.42C39.7519 32.01 35.3869 38.58 29.0419 41.7375C37.2244 38.7825 43.0594 30.945 43.0594 21.7425C43.0594 19.5675 42.7669 17.6475 42.1294 15.4875" fill="#8A949E"/>
<path d="M58.9222 12.7426V11.0476H61.5922V12.7426H65.3047V14.8276H54.8047V12.7426H58.9297H58.9222ZM64.8547 19.5826C64.8547 20.1676 64.7272 20.7151 64.4872 21.2326C64.2397 21.7426 63.9097 22.1926 63.4897 22.5751C63.0697 22.9651 62.5897 23.2651 62.0422 23.4901C61.4947 23.7151 60.9022 23.8276 60.2722 23.8276C59.6422 23.8276 59.0497 23.7151 58.5022 23.4901C57.9547 23.2651 57.4672 22.9576 57.0547 22.5751C56.6347 22.1926 56.3047 21.7426 56.0572 21.2326C55.8097 20.7226 55.6897 20.1751 55.6897 19.5826C55.6897 18.9901 55.8097 18.4426 56.0572 17.9251C56.3047 17.4076 56.6347 16.9576 57.0547 16.5676C57.4747 16.1776 57.9547 15.8776 58.5022 15.6526C59.0497 15.4276 59.6422 15.3151 60.2722 15.3151C60.9022 15.3151 61.4947 15.4276 62.0422 15.6526C62.5897 15.8776 63.0697 16.1851 63.4897 16.5676C63.9097 16.9501 64.2397 17.4076 64.4872 17.9251C64.7347 18.4426 64.8547 18.9976 64.8547 19.5826ZM62.5147 19.5526C62.5147 18.9526 62.2972 18.4276 61.8547 17.9851C61.4122 17.5426 60.8872 17.3251 60.2647 17.3251C59.6422 17.3251 59.1172 17.5426 58.6897 17.9851C58.2547 18.4276 58.0372 18.9451 58.0372 19.5526C58.0372 20.1601 58.2547 20.6701 58.6897 21.1051C59.1247 21.5401 59.6497 21.7576 60.2647 21.7576C60.8797 21.7576 61.4122 21.5401 61.8547 21.1051C62.2972 20.6701 62.5147 20.1526 62.5147 19.5526ZM71.3722 27.7426C71.3722 28.3576 71.2372 28.9426 70.9747 29.4901C70.7122 30.0376 70.3672 30.5251 69.9322 30.9376C69.4822 31.3576 68.9647 31.6876 68.3797 31.9351C67.7947 32.1826 67.1647 32.3101 66.5047 32.3101C65.8447 32.3101 65.2072 32.1826 64.6147 31.9351C64.0222 31.6876 63.4972 31.3576 63.0472 30.9376C62.6122 30.5176 62.2672 30.0376 62.0047 29.4901C61.7422 28.9426 61.6072 28.3576 61.6072 27.7426C61.6072 27.1276 61.7347 26.5351 62.0047 25.9801C62.2672 25.4251 62.6122 24.9376 63.0472 24.5176C63.4972 24.0976 64.0147 23.7676 64.6147 23.5201C65.2072 23.2726 65.8372 23.1451 66.5047 23.1451C67.1722 23.1451 67.7947 23.2651 68.3797 23.5201C68.9647 23.7676 69.4822 24.0976 69.9322 24.5176C70.3672 24.9376 70.7122 25.4251 70.9747 25.9801C71.2372 26.5351 71.3722 27.1276 71.3722 27.7426ZM68.9122 27.7201C68.9122 27.0676 68.6722 26.5051 68.1922 26.0251C67.7122 25.5451 67.1422 25.3051 66.4747 25.3051C65.8072 25.3051 65.2447 25.5451 64.7722 26.0251C64.2997 26.5051 64.0672 27.0676 64.0672 27.7201C64.0672 28.3726 64.2997 28.9276 64.7722 29.4001C65.2447 29.8726 65.8147 30.1051 66.4747 30.1051C67.1347 30.1051 67.7122 29.8726 68.1922 29.4001C68.6722 28.9276 68.9122 28.3651 68.9122 27.7201ZM68.8672 22.5226H66.5497V11.4901H68.8672V15.8701H70.9297V11.4676H73.3372V22.8076H70.9297V18.1501H68.8672V22.5301V22.5226Z" fill="white"/>
<path d="M76.2611 14.1977V12.0377H87.8561V14.1977H82.9211L88.0661 20.4826L86.3036 21.9226L82.1786 16.7777L78.0761 22.2752L76.2461 20.7901L81.3686 14.2052H76.2686L76.2611 14.1977ZM92.3036 27.3676C92.3036 28.0501 92.1611 28.6876 91.8836 29.2801C91.6061 29.8726 91.2311 30.3976 90.7736 30.8476C90.2936 31.2976 89.7311 31.6502 89.0936 31.9126C88.4561 32.1751 87.7736 32.3101 87.0686 32.3101C86.3636 32.3101 85.6811 32.1751 85.0286 31.9126C84.3761 31.6502 83.8136 31.2901 83.3336 30.8476C82.8686 30.3976 82.5011 29.8801 82.2236 29.2801C81.9461 28.6876 81.8036 28.0501 81.8036 27.3676C81.8036 26.6851 81.9461 26.0476 82.2236 25.4401C82.5011 24.8401 82.8761 24.3152 83.3336 23.8652C83.8136 23.4152 84.3761 23.0626 85.0286 22.8001C85.6811 22.5376 86.3561 22.4027 87.0686 22.4027C87.7811 22.4027 88.4561 22.5301 89.0936 22.8001C89.7311 23.0701 90.2936 23.4152 90.7736 23.8652C91.2386 24.3152 91.6061 24.8401 91.8836 25.4401C92.1611 26.0401 92.3036 26.6851 92.3036 27.3676ZM89.8436 27.3451C89.8436 26.5877 89.5661 25.9352 89.0111 25.3876C88.4561 24.8401 87.7961 24.5627 87.0386 24.5627C86.2811 24.5627 85.6286 24.8401 85.0811 25.3876C84.5336 25.9352 84.2561 26.5877 84.2561 27.3451C84.2561 28.1026 84.5336 28.7551 85.0811 29.2951C85.6286 29.8351 86.2811 30.1052 87.0386 30.1052C87.7961 30.1052 88.4561 29.8351 89.0111 29.2951C89.5661 28.7551 89.8436 28.1026 89.8436 27.3451ZM91.5161 22.1776V17.7976H87.7586V15.6377H91.5161V11.4677H94.0211V22.1776H91.5161Z" fill="white"/>
<path d="M108.445 17.1225C108.445 17.88 108.295 18.5925 107.995 19.2525C107.695 19.92 107.282 20.505 106.757 21.015C106.232 21.51 105.625 21.9075 104.935 22.2C104.245 22.4925 103.51 22.6425 102.723 22.6425C101.935 22.6425 101.192 22.4925 100.51 22.2C99.82 21.9075 99.2125 21.51 98.6875 21.015C98.1625 20.505 97.75 19.92 97.45 19.2525C97.15 18.585 97 17.8725 97 17.1225C97 16.3725 97.15 15.6525 97.45 14.9925C97.75 14.325 98.1625 13.74 98.6875 13.23C99.2125 12.735 99.82 12.3375 100.51 12.045C101.2 11.7525 101.935 11.6025 102.723 11.6025C103.51 11.6025 104.245 11.7525 104.935 12.045C105.625 12.3375 106.232 12.735 106.757 13.23C107.282 13.74 107.695 14.325 107.995 14.9925C108.295 15.66 108.445 16.365 108.445 17.1225ZM100.765 24.5175V29.04H114.348V31.2675H98.26V24.5175H100.765ZM106.03 17.145C106.03 16.695 105.94 16.2675 105.76 15.87C105.58 15.465 105.348 15.1125 105.055 14.805C104.748 14.5125 104.395 14.28 103.998 14.1C103.6 13.92 103.18 13.83 102.737 13.83C102.295 13.83 101.867 13.92 101.462 14.1C101.057 14.28 100.705 14.5125 100.397 14.805C100.105 15.1125 99.865 15.4725 99.6925 15.87C99.5125 16.275 99.4225 16.695 99.4225 17.145C99.4225 17.595 99.5125 18.015 99.6925 18.405C99.8725 18.8025 100.105 19.155 100.397 19.4625C100.705 19.755 101.065 19.995 101.462 20.1675C101.867 20.3475 102.287 20.4375 102.737 20.4375C103.187 20.4375 103.608 20.3475 103.998 20.1675C104.388 19.9875 104.74 19.755 105.055 19.4625C105.348 19.155 105.587 18.8025 105.76 18.405C105.94 18.0075 106.03 17.5875 106.03 17.145ZM113.845 24.405H111.34V11.4675H113.845V15.87H116.74V18.3525H113.845V24.405Z" fill="white"/>
<path d="M118.546 14.1976V12.0376H130.141V14.1976H125.228L130.351 21.7576L128.446 23.0326L124.456 16.9576L120.466 23.1976L118.516 21.9001L123.616 14.2051H118.538L118.546 14.1976ZM119.941 31.2601V24.5101H122.446V29.0326H136.493V31.2601H119.941ZM133.801 24.4051V18.4426H130.043V16.2151H133.801V11.4601H136.306V24.3976H133.801V24.4051Z" fill="white"/>
<path d="M139.766 24.24H158.313V26.4675H150.288V31.6575H147.761V26.4675H139.766V24.24ZM143.726 14.3625H154.346V11.8125H156.828V21.525H141.251V11.8125H143.733V14.3625H143.726ZM154.346 16.545H143.726V19.3275H154.346V16.545Z" fill="white"/>
</g>
<defs>
<clipPath id="clip0_1637_7207">
<rect width="159" height="42" fill="white"/>
</clipPath>
</defs>
</svg>
