<svg width="230" height="48" viewBox="0 0 230 48" fill="none" xmlns="http://www.w3.org/2000/svg">
<g clip-path="url(#clip0_1637_9516)">
<path d="M23.0848 44.1661C23.0183 44.0808 22.9356 44.0096 22.8417 43.9567C22.7428 43.9016 22.6332 43.8692 22.5205 43.8617C22.4055 43.8499 22.2893 43.8635 22.18 43.9016C22.0818 43.9369 21.9921 43.9925 21.9166 44.065C21.8415 44.1383 21.7812 44.2257 21.7393 44.3223C21.6947 44.4249 21.6677 44.5344 21.6592 44.6461V44.6573C21.6503 44.7697 21.6613 44.8828 21.6917 44.9913C21.721 45.0954 21.7706 45.1926 21.8376 45.2772C21.9033 45.3621 21.9849 45.4332 22.0777 45.4866C22.1773 45.5425 22.2881 45.5753 22.4019 45.5826C22.5166 45.594 22.6324 45.5804 22.7414 45.5428C22.8395 45.5079 22.9293 45.4526 23.0048 45.3804C23.0802 45.3066 23.1407 45.2189 23.1831 45.122C23.2278 45.0194 23.2549 44.91 23.2632 44.7982V44.787C23.2724 44.675 23.2614 44.5622 23.2307 44.4541C23.201 44.3503 23.1518 44.2533 23.0859 44.1681" fill="white"/>
<path d="M6.24394 35.4148C6.30474 35.5043 6.39732 35.5668 6.50255 35.5894C6.60777 35.612 6.7176 35.593 6.80932 35.5363L6.41011 34.8755C6.36225 34.898 6.31958 34.9302 6.28484 34.9703C6.2501 35.0103 6.22407 35.0572 6.20842 35.108C6.19276 35.1588 6.18784 35.2124 6.19396 35.2652C6.20007 35.318 6.2171 35.369 6.24394 35.4148Z" fill="white"/>
<path d="M14.5584 6.77408C14.7762 6.6505 14.7945 6.3482 14.6141 6.01833C14.4642 5.74361 14.2088 5.52403 13.9525 5.66803C13.682 5.82225 13.7367 6.15927 13.8856 6.43093C14.0589 6.7465 14.3172 6.91093 14.5584 6.77408Z" fill="white"/>
<path d="M8.85914 10.2924C8.82425 10.2528 8.78142 10.2211 8.73348 10.1993C8.68554 10.1776 8.63357 10.1664 8.58101 10.1664C8.52845 10.1664 8.47648 10.1776 8.42854 10.1993C8.3806 10.2211 8.33777 10.2528 8.30288 10.2924C8.23708 10.3791 8.20634 10.4877 8.21687 10.5963C8.2274 10.7049 8.27842 10.8054 8.35962 10.8776L8.85914 10.2924Z" fill="white"/>
<path d="M3.65632 26.0905L3.60464 25.3174C3.5522 25.3146 3.49975 25.323 3.45073 25.342C3.4017 25.3609 3.35719 25.3901 3.3201 25.4276C3.28301 25.4651 3.25417 25.51 3.23547 25.5595C3.21676 25.609 3.2086 25.6618 3.21152 25.7147C3.22401 25.8228 3.27705 25.9219 3.35976 25.9918C3.44247 26.0617 3.54858 26.097 3.65632 26.0905Z" fill="white"/>
<path d="M4.20212 23.7753C4.23572 23.7788 4.26968 23.7748 4.30161 23.7637C4.33354 23.7526 4.36268 23.7346 4.387 23.711C4.41131 23.6873 4.43022 23.6586 4.44238 23.6269C4.45455 23.5951 4.4597 23.5611 4.45745 23.5271C4.46101 23.4527 4.44145 23.3791 4.40149 23.3165C4.36153 23.2539 4.30316 23.2054 4.23455 23.1778L4.12613 23.1554L3.9012 23.1451C3.88296 23.4893 3.95186 23.7579 4.20516 23.7702" fill="white"/>
<path d="M5.58964 15.8134C5.91083 15.9676 6.21581 15.9482 6.33334 15.696C6.44074 15.4672 6.28471 15.2098 5.94832 15.0475C5.66969 14.9126 5.34039 14.8851 5.20969 15.1496C5.07797 15.4335 5.31101 15.6776 5.59065 15.8103" fill="white"/>
<path d="M4.40873 29.2738C4.10983 29.3555 3.83931 29.5547 3.9153 29.8417C3.99534 30.148 4.33173 30.1736 4.62455 30.0929C4.96803 29.9989 5.18688 29.7865 5.11494 29.5118C5.0501 29.2667 4.7664 29.1758 4.40569 29.2738" fill="white"/>
<path d="M29.9258 43.7433L30.939 43.395L30.0139 42.3135L29.9258 43.7433Z" fill="white"/>
<path d="M41.6241 12.5362C41.5602 12.449 41.4655 12.3898 41.3596 12.3708C41.2537 12.3518 41.1445 12.3744 41.0547 12.434L41.4752 13.0805C41.5223 13.0566 41.5639 13.0229 41.5974 12.9818C41.6308 12.9407 41.6554 12.8929 41.6694 12.8416C41.6834 12.7903 41.6866 12.7367 41.6788 12.6841C41.671 12.6315 41.6524 12.5811 41.6241 12.5362Z" fill="white"/>
<path d="M37.1837 7.43182C37.2475 7.26433 37.3377 7.06314 37.4086 6.90076H37.4025C37.2647 7.01003 37.0985 7.15608 36.9597 7.25923L36.4531 7.63812L36.9496 8.03335L37.1837 7.43182Z" fill="white"/>
<path d="M23.8897 -2.4508e-05C19.1839 0.0161228 14.5883 1.43741 10.6834 4.08436C6.77844 6.73131 3.7392 10.4852 1.94946 14.872C0.159716 19.2589 -0.300263 24.0819 0.627606 28.732C1.55548 33.3822 3.82958 37.6509 7.16276 40.9992C10.4959 44.3475 14.7387 46.6252 19.3553 47.5446C23.9718 48.4641 28.7552 47.984 33.1013 46.1652C37.4474 44.3463 41.1613 41.2701 43.7741 37.3251C46.3868 33.3801 47.7813 28.7432 47.7813 24C47.7761 20.8428 47.154 17.7177 45.9505 14.8029C44.747 11.8881 42.9857 9.24081 40.7671 7.01218C38.5486 4.78355 35.9162 3.01722 33.0204 1.81406C30.1245 0.6109 27.0219 -0.0055279 23.8897 -2.4508e-05ZM46.304 22.08L43.3161 22.418L43.2441 21.7675L46.2331 21.4284L46.304 22.08ZM45.225 21.0822L44.7356 21.072C44.7608 20.949 44.7608 20.8222 44.7356 20.6992C44.7247 20.6231 44.6978 20.5503 44.6568 20.4855C44.6158 20.4207 44.5616 20.3654 44.4978 20.3234C44.4339 20.2814 44.3619 20.2535 44.2866 20.2417C44.2112 20.2299 44.1343 20.2344 44.0608 20.255C43.9841 20.2641 43.9102 20.2896 43.8441 20.3297C43.778 20.3699 43.7211 20.4238 43.6773 20.4879C43.6335 20.552 43.6037 20.6248 43.59 20.7013C43.5763 20.7779 43.5789 20.8566 43.5977 20.9321C43.6188 21.0581 43.6631 21.179 43.7285 21.2885L43.2776 21.455C43.1758 21.2836 43.107 21.0944 43.0749 20.8973C43.0341 20.7563 43.0239 20.6081 43.0451 20.4628C43.0663 20.3174 43.1183 20.1784 43.1977 20.0552C43.277 19.932 43.3818 19.8275 43.5049 19.7488C43.628 19.6701 43.7664 19.6191 43.9108 19.5993C44.0611 19.567 44.2165 19.5673 44.3667 19.6003C44.5169 19.6333 44.6583 19.6981 44.7817 19.7905C44.9051 19.8828 45.0075 20.0006 45.0822 20.136C45.1569 20.2714 45.2021 20.4213 45.2148 20.5756C45.2471 20.7439 45.2516 20.9165 45.228 21.0863M43.1833 29.951C43.2847 29.9806 43.3515 29.9326 43.4944 29.7181C43.7497 29.3392 44.0192 29.2432 44.2533 29.3157C44.3489 29.3515 44.4362 29.4066 44.5098 29.4778C44.5835 29.5489 44.6418 29.6345 44.6813 29.7292C44.7208 29.824 44.7406 29.9259 44.7395 30.0287C44.7384 30.1315 44.7164 30.2329 44.6748 30.3268C44.6235 30.5244 44.5302 30.7084 44.4012 30.866L44.0051 30.6301C44.1136 30.5139 44.1944 30.3741 44.2411 30.2216C44.2837 30.0674 44.2472 29.9632 44.1398 29.9346C44.0324 29.906 43.9757 29.9714 43.8207 30.1961C43.5846 30.5433 43.3465 30.6505 43.0526 30.5698C42.6818 30.4677 42.4923 30.0868 42.6544 29.5067C42.7123 29.2799 42.8223 29.0699 42.9756 28.8939L43.388 29.1339C43.2498 29.2745 43.1457 29.4454 43.084 29.6333C43.0314 29.8243 43.0739 29.9213 43.1762 29.951M44.6961 18.337C44.7553 18.533 44.7719 18.7396 44.7447 18.9426L44.2857 18.9569C44.3178 18.8005 44.314 18.6388 44.2746 18.4841C44.231 18.3309 44.1439 18.2624 44.0425 18.2931C43.9412 18.3237 43.924 18.4146 43.9078 18.6873C43.8865 19.1101 43.7416 19.3276 43.4488 19.4185C43.079 19.5278 42.7213 19.3092 42.5562 18.7302C42.4869 18.5056 42.4706 18.2678 42.5085 18.0357L42.9837 18.0163C42.9391 18.2091 42.9391 18.4097 42.9837 18.6025C43.0374 18.7935 43.1256 18.8527 43.2269 18.8231C43.3282 18.7935 43.3607 18.721 43.3698 18.4575C43.39 17.999 43.5724 17.7722 43.8044 17.7069C44.1753 17.5976 44.5481 17.8386 44.69 18.338M43.9098 16.0432C43.9714 16.1725 44.0053 16.3135 44.0093 16.4569C44.0132 16.6003 43.9872 16.743 43.9328 16.8756C43.8784 17.0081 43.7969 17.1277 43.6936 17.2264C43.5903 17.3251 43.4675 17.4008 43.3333 17.4485C43.1339 17.5371 42.9128 17.5636 42.6984 17.5244C42.484 17.4853 42.2862 17.3824 42.1303 17.2289C41.9745 17.0754 41.8678 16.8785 41.8239 16.6633C41.7801 16.4482 41.8012 16.2248 41.8845 16.0218C41.9677 15.8189 42.1094 15.6457 42.2911 15.5246C42.4729 15.4035 42.6864 15.34 42.9043 15.3423C43.1222 15.3446 43.3344 15.4126 43.5136 15.5375C43.6928 15.6624 43.8308 15.8385 43.9098 16.0432ZM41.9847 12.3309C42.0587 12.4412 42.1086 12.5662 42.131 12.6974C42.1534 12.8287 42.1477 12.9633 42.1145 13.0922C42.0812 13.2211 42.0211 13.3414 41.9381 13.445C41.8551 13.5486 41.7511 13.6333 41.6331 13.6933C41.562 13.7412 41.4871 13.7832 41.4092 13.8189L40.6726 12.6873C40.4629 12.8558 40.5003 13.1499 40.6665 13.4022C40.7717 13.5677 40.9023 13.7152 41.0536 13.8393L40.7354 14.1569C40.5289 14.0031 40.3529 13.8115 40.2166 13.5921C40.1221 13.4786 40.0533 13.3456 40.0151 13.2024C39.977 13.0592 39.9705 12.9093 39.996 12.7633C40.0215 12.6173 40.0784 12.4787 40.1627 12.3572C40.2471 12.2358 40.3568 12.1344 40.4841 12.0602C40.5977 11.9722 40.7282 11.909 40.8673 11.8745C41.0064 11.8401 41.1511 11.8353 41.2922 11.8604C41.4333 11.8855 41.5676 11.9399 41.6867 12.0202C41.8057 12.1005 41.9069 12.2049 41.9837 12.3268M40.8904 9.36508L39.9897 10.1423L39.9958 10.1484C40.1074 10.1438 40.2187 10.1637 40.322 10.2066C40.4298 10.2512 40.5253 10.3213 40.6007 10.4109C40.8661 10.7295 40.8519 11.1595 40.3767 11.569L39.4537 12.3656L39.0383 11.8662L39.9066 11.1166C40.1092 10.9378 40.1944 10.7438 40.0383 10.5559C39.9933 10.5016 39.9327 10.4626 39.8649 10.4443C39.7971 10.426 39.7253 10.4293 39.6594 10.4538L39.5358 10.5314L38.5996 11.3402L38.1831 10.8408L40.476 8.86159L40.8904 9.36508ZM38.4293 8.1518L38.632 8.34585L38.944 8.01802L39.4973 8.3581L39.0859 8.79215L39.4172 9.11895L39.0879 9.46619L38.7556 9.1404L38.2348 9.68985C38.0615 9.87266 38.024 9.99623 38.1659 10.1361C38.2114 10.1811 38.261 10.2218 38.3138 10.2577L37.9795 10.6172C37.8523 10.5524 37.7371 10.4661 37.639 10.3618C37.5055 10.2409 37.4246 10.0717 37.4141 9.89104C37.4372 9.66794 37.5442 9.46221 37.713 9.31606L38.3007 8.69615L38.098 8.5021L38.4293 8.1518ZM38.0565 6.79249L36.9956 9.63368L36.4495 9.19861L36.7261 8.47249L36.0837 7.96185L35.4758 8.4204L34.9489 8.00168L37.3938 6.26551L38.0565 6.79249ZM32.6368 5.50772C32.6838 5.37964 32.7568 5.26286 32.8512 5.16482C32.9455 5.06677 33.0591 4.98963 33.1846 4.93832C33.3102 4.887 33.445 4.86263 33.5804 4.86677C33.7158 4.87091 33.8489 4.90347 33.9712 4.96236C34.0669 5.00374 34.1509 5.06825 34.216 5.1502C34.281 5.23214 34.325 5.32898 34.344 5.43214H34.3511L34.877 4.42517L35.4454 4.73155L34.3258 6.87623C34.2174 7.08559 34.109 7.31027 34.0512 7.43997L33.5446 7.16729L33.6601 6.87929H33.653C33.5425 6.94736 33.4156 6.98389 33.2861 6.98497C33.1565 6.98605 33.0291 6.95164 32.9174 6.88542C32.8068 6.81588 32.7113 6.72443 32.6367 6.6166C32.5621 6.50877 32.5101 6.3868 32.4836 6.25809C32.4572 6.12938 32.457 5.9966 32.483 5.8678C32.5089 5.73899 32.5606 5.61684 32.6348 5.50874M30.5354 4.24746C30.6266 4.00236 30.6965 3.78891 30.7532 3.61223L31.276 3.81649L31.2071 4.09529H31.2183C31.3211 4.02186 31.4406 3.97562 31.5657 3.96081C31.6909 3.946 31.8177 3.9631 31.9346 4.01053C32.3308 4.1627 32.5294 4.54363 32.3115 5.12372L31.8769 6.29308L31.275 6.06023L31.6803 4.96849C31.7745 4.71419 31.7522 4.50789 31.5344 4.42312C31.466 4.39751 31.3912 4.3946 31.3211 4.41481C31.2509 4.43501 31.189 4.47729 31.1443 4.53546C31.1089 4.57798 31.0817 4.62683 31.0643 4.67946L30.6377 5.82125L30.0359 5.5884L30.5354 4.24746ZM27.9719 4.43129C28.1026 3.90125 28.6325 3.76338 29.3418 3.94823L29.3489 3.91861C29.3762 3.80934 29.356 3.64083 29.0449 3.56219C28.8493 3.51564 28.6451 3.52092 28.4522 3.57751L28.438 3.13836C28.7103 3.07631 28.9935 3.08262 29.2628 3.15674C29.386 3.17046 29.5045 3.21249 29.6091 3.2796C29.7137 3.3467 29.8016 3.4371 29.8661 3.54383C29.9306 3.65057 29.9699 3.77079 29.9811 3.89525C29.9922 4.01971 29.9749 4.1451 29.9305 4.26176L29.7572 4.97666C29.7138 5.14222 29.683 5.31088 29.665 5.48117L29.1017 5.33921L29.1148 5.12474H29.1027C29.0109 5.18906 28.906 5.23165 28.7956 5.24933C28.6853 5.26702 28.5724 5.25934 28.4654 5.22687C28.3802 5.20974 28.2994 5.17533 28.2278 5.12572C28.1562 5.07612 28.0954 5.01236 28.0491 4.93832C28.0027 4.86428 27.9718 4.78152 27.9582 4.69505C27.9446 4.60859 27.9486 4.52024 27.9699 4.43538M25.6993 2.58176C25.803 2.58157 25.9052 2.6072 25.9968 2.65638C26.0883 2.70555 26.1664 2.77674 26.2241 2.86363H26.2322L26.3244 1.72593L26.9658 1.77904L26.7703 4.20049C26.751 4.43742 26.7399 4.68661 26.7368 4.82857L26.1664 4.78057V4.47419H26.1573C26.083 4.58201 25.9811 4.66747 25.8625 4.72143C25.7438 4.7754 25.6128 4.79584 25.4835 4.78057C25.3547 4.76095 25.2313 4.71509 25.1207 4.64579C25.0101 4.57649 24.9146 4.4852 24.8402 4.37749C24.7658 4.26978 24.7139 4.14792 24.6878 4.01933C24.6616 3.89074 24.6617 3.75813 24.6881 3.62959C24.6816 3.49294 24.7032 3.3564 24.7516 3.22858C24.8 3.10076 24.8741 2.98441 24.9693 2.88686C25.0645 2.78931 25.1786 2.71266 25.3046 2.66174C25.4306 2.61081 25.5656 2.58671 25.7013 2.59095M23.9464 1.6667C23.9914 1.66357 24.0366 1.66986 24.0791 1.68518C24.1216 1.70049 24.1605 1.7245 24.1934 1.7557C24.2262 1.78689 24.2523 1.8246 24.27 1.86644C24.2877 1.90829 24.2966 1.95337 24.2962 1.99886C24.2958 2.04435 24.286 2.08926 24.2676 2.13077C24.2491 2.17227 24.2223 2.20948 24.1889 2.24006C24.1555 2.27063 24.1161 2.2939 24.0734 2.30842C24.0306 2.32293 23.9853 2.32837 23.9403 2.3244C23.8966 2.32698 23.8528 2.32034 23.8117 2.30488C23.7707 2.28943 23.7332 2.26552 23.7019 2.23466C23.6705 2.20381 23.6459 2.1667 23.6295 2.1257C23.6132 2.08471 23.6055 2.04073 23.607 1.99657C23.6051 1.9517 23.6127 1.90694 23.6293 1.86524C23.6459 1.82355 23.671 1.78587 23.7031 1.7547C23.7352 1.72353 23.7735 1.69956 23.8154 1.68439C23.8573 1.66923 23.902 1.66319 23.9464 1.6667ZM24.2646 2.58585L24.2555 4.69172H23.6121L23.6212 2.58687L24.2646 2.58585ZM21.4975 2.7421L21.5552 3.0301H21.5644C21.6298 2.91176 21.724 2.81216 21.8381 2.74069C21.9523 2.66922 22.0826 2.62823 22.2169 2.62159C22.6677 2.57461 23.1115 2.92798 23.1784 3.59998C23.2097 3.73488 23.2129 3.87488 23.1877 4.01108C23.1625 4.14729 23.1095 4.27673 23.032 4.39119C22.9546 4.50565 22.8544 4.60264 22.7378 4.676C22.6212 4.74936 22.4907 4.79749 22.3547 4.81734C22.2536 4.83402 22.15 4.82594 22.0526 4.79377C21.9553 4.76159 21.867 4.70627 21.7954 4.63249H21.7842L21.8855 5.67317L21.2462 5.73955L21.0233 3.49887C20.9959 3.22517 20.9645 2.98823 20.9372 2.79725L21.4975 2.7421ZM20.7214 4.98891L20.0881 5.10636L19.6909 3.03827L20.3232 2.91266L20.7214 4.98891ZM19.8348 2.08338C19.878 2.07276 19.9229 2.07113 19.9667 2.07858C20.0105 2.08602 20.0524 2.10239 20.0898 2.12669C20.1271 2.15098 20.1592 2.18269 20.184 2.21988C20.2088 2.25708 20.2258 2.29897 20.234 2.34301C20.2422 2.38705 20.2414 2.43231 20.2317 2.47603C20.2219 2.51976 20.2035 2.56102 20.1774 2.59732C20.1513 2.63361 20.1182 2.66417 20.08 2.68713C20.0419 2.71009 19.9994 2.72498 19.9554 2.73087C19.9122 2.74148 19.8673 2.74312 19.8235 2.73567C19.7796 2.72823 19.7377 2.71186 19.7004 2.68756C19.663 2.66327 19.631 2.63156 19.6062 2.59436C19.5814 2.55717 19.5644 2.51528 19.5562 2.47124C19.548 2.4272 19.5488 2.38194 19.5585 2.33822C19.5682 2.29449 19.5867 2.25323 19.6128 2.21693C19.6388 2.18064 19.672 2.15008 19.7101 2.12712C19.7483 2.10415 19.7907 2.08927 19.8348 2.08338ZM17.9198 2.68287L18.551 4.94295L19.6423 4.6284L19.7902 5.15742L18.0769 5.65274L17.2957 2.85955L17.9198 2.68287ZM15.2186 4.45274C15.1627 4.33583 15.1306 4.20882 15.1241 4.0792C15.1177 3.94958 15.137 3.81997 15.1811 3.69802C15.2705 3.50547 15.428 3.35356 15.6229 3.27215C15.728 3.22258 15.8395 3.1882 15.9542 3.17002L16.1284 3.64287C16.0585 3.65062 15.9901 3.66922 15.9258 3.69802C15.7313 3.78483 15.7161 3.9758 15.7971 4.16474L15.8387 4.26687L16.2196 4.09938L16.4091 4.54159L16.0332 4.70806L16.6705 6.19708L16.0758 6.46057L15.4384 4.97155L15.1902 5.08185L15.0007 4.63963L15.249 4.52934L15.2186 4.45274ZM13.7433 5.25546C13.8629 5.17931 13.9972 5.12951 14.1372 5.10934C14.2772 5.08917 14.4199 5.09909 14.5559 5.13844C14.6919 5.17779 14.8181 5.24568 14.9262 5.33767C15.0343 5.42965 15.1218 5.54363 15.1831 5.67214C15.2628 5.79752 15.3154 5.93839 15.3375 6.08559C15.3596 6.2328 15.3507 6.38304 15.3114 6.52656C15.2722 6.67008 15.2034 6.80367 15.1095 6.91863C15.0157 7.0336 14.8989 7.12737 14.7667 7.19385C14.6461 7.271 14.5106 7.32156 14.3692 7.34222C14.2278 7.36288 14.0837 7.35316 13.9463 7.31372C13.8089 7.27427 13.6813 7.20599 13.572 7.11334C13.4626 7.02069 13.3739 6.90578 13.3117 6.77614C13.2319 6.65008 13.1796 6.50837 13.1583 6.3604C13.1369 6.21244 13.1469 6.06158 13.1878 5.91782C13.2286 5.77406 13.2992 5.64068 13.395 5.52649C13.4907 5.41231 13.6095 5.31993 13.7433 5.25546ZM10.6388 7.45529L11.5112 8.06806C11.6125 8.14466 11.7402 8.23963 11.8294 8.31215L11.8395 8.30397C11.7949 8.20185 11.724 8.0507 11.6744 7.93734L11.2468 6.96508L11.7888 6.53104L12.2529 7.92406C12.4663 8.40856 12.5589 8.93836 12.5224 9.46721C12.4805 9.69999 12.3717 9.91522 12.2093 10.0861L11.7655 9.7358C11.831 9.65749 11.8818 9.56787 11.9155 9.47129C11.9636 9.35307 11.9807 9.22433 11.9651 9.09751L11.9347 9.00151C11.9104 8.97286 11.8799 8.95016 11.8456 8.93512L10.0765 7.90057L10.6388 7.45529ZM9.12814 7.99657L9.53343 8.43266L9.86779 8.10891L10.194 8.45717L9.86576 8.78295L10.3825 9.33342C10.5558 9.51725 10.6773 9.56015 10.8182 9.42329C10.8642 9.37814 10.9066 9.3293 10.9448 9.27725L11.2833 9.63266C11.2143 9.75845 11.1249 9.87168 11.0188 9.96763C10.9573 10.0314 10.884 10.0822 10.803 10.1173C10.7219 10.1523 10.6348 10.1709 10.5466 10.1719C10.3276 10.1388 10.1298 10.0217 9.99444 9.84508L9.40981 9.2221L9.20717 9.41512L8.88193 9.06891L9.08457 8.87589L8.77453 8.545L9.12814 7.99657ZM8.00448 9.97887C8.08862 9.87669 8.19372 9.7941 8.31255 9.73678C8.43139 9.67946 8.56113 9.64877 8.69286 9.64683C8.82458 9.64489 8.95516 9.67174 9.07561 9.72553C9.19605 9.77933 9.3035 9.85879 9.39056 9.95844C9.4543 10.0154 9.51358 10.0772 9.56788 10.1433L8.69448 11.1646C8.90929 11.327 9.17677 11.2095 9.37435 10.9777C9.50344 10.8304 9.60813 10.6632 9.6844 10.4824L10.0694 10.707C9.97992 10.9503 9.84588 11.1744 9.67426 11.3678C9.59292 11.4901 9.48566 11.5927 9.36022 11.6681C9.23478 11.7435 9.09429 11.7899 8.94889 11.804C8.8035 11.8181 8.65681 11.7994 8.51943 11.7494C8.38204 11.6994 8.25738 11.6193 8.15444 11.5149C8.04103 11.4264 7.94674 11.3156 7.87734 11.1892C7.80794 11.0627 7.7649 10.9233 7.75086 10.7795C7.73682 10.6356 7.75207 10.4904 7.79569 10.3528C7.8393 10.2151 7.91035 10.0879 8.00448 9.97887ZM7.0551 11.2453L8.72792 12.4841L8.34898 13.0131L6.67616 11.7733L7.0551 11.2453ZM6.13611 10.9695C6.15962 10.9313 6.1908 10.8984 6.22765 10.873C6.2645 10.8477 6.30621 10.8303 6.3501 10.8221C6.39398 10.814 6.43908 10.8151 6.48249 10.8256C6.52591 10.836 6.56668 10.8555 6.60219 10.8827C6.63818 10.9095 6.66834 10.9435 6.69079 10.9825C6.71325 11.0215 6.72753 11.0647 6.73275 11.1095C6.73798 11.1543 6.73403 11.1997 6.72116 11.2429C6.70829 11.2861 6.68676 11.3262 6.65792 11.3607C6.63479 11.3981 6.6041 11.4302 6.56785 11.455C6.5316 11.4797 6.49059 11.4964 6.4475 11.5041C6.40441 11.5118 6.36019 11.5103 6.31771 11.4997C6.27524 11.489 6.23546 11.4695 6.20096 11.4424C6.16394 11.4172 6.13259 11.3844 6.10897 11.3462C6.08535 11.3079 6.06998 11.2651 6.06387 11.2205C6.05775 11.1759 6.06102 11.1305 6.07347 11.0873C6.08592 11.044 6.10726 11.0039 6.13611 10.9695ZM6.10673 12.5453C6.19381 12.4007 6.30406 12.2717 6.43299 12.1634L6.7866 12.5065C6.68726 12.5811 6.60444 12.6757 6.54343 12.7843C6.50112 12.8485 6.4727 12.9209 6.46001 12.9968C6.44731 13.0728 6.45063 13.1506 6.46975 13.2251C6.48886 13.2997 6.52335 13.3694 6.57096 13.4296C6.61857 13.4899 6.67823 13.5393 6.74607 13.5748C6.80809 13.6208 6.87922 13.6528 6.95462 13.6687C7.03003 13.6845 7.10793 13.6838 7.18303 13.6665C7.25812 13.6493 7.32865 13.6159 7.3898 13.5687C7.45095 13.5215 7.50129 13.4616 7.53739 13.393C7.60536 13.2851 7.65246 13.1652 7.6762 13.0396L8.11898 13.2265C8.0792 13.4217 8.0036 13.6077 7.89607 13.775C7.83289 13.9066 7.74205 14.0228 7.62986 14.1155C7.51766 14.2082 7.3868 14.2752 7.24635 14.3118C7.10589 14.3485 6.95922 14.3539 6.81649 14.3276C6.67376 14.3014 6.53841 14.2442 6.41981 14.16C6.28739 14.0806 6.17306 13.974 6.0843 13.8471C5.99553 13.7202 5.93433 13.5758 5.90469 13.4234C5.87505 13.271 5.87763 13.1141 5.91227 12.9628C5.94691 12.8115 6.01384 12.6692 6.10673 12.5453ZM4.80475 14.9382C4.85759 14.806 4.93757 14.6865 5.03945 14.5876C5.14133 14.4887 5.2628 14.4127 5.39589 14.3645C5.52898 14.3162 5.67069 14.2969 5.8117 14.3078C5.95272 14.3187 6.08986 14.3595 6.21413 14.4275C6.35087 14.4837 6.47435 14.5682 6.57654 14.6757C6.67872 14.7831 6.75731 14.911 6.80721 15.0511C6.8571 15.1912 6.87717 15.3403 6.86611 15.4887C6.85505 15.6371 6.81312 15.7815 6.74303 15.9125C6.68986 16.0456 6.60946 16.166 6.50705 16.2657C6.40465 16.3654 6.28255 16.4422 6.14871 16.4911C6.01487 16.5401 5.8723 16.5601 5.73029 16.5498C5.58828 16.5394 5.45002 16.4991 5.32453 16.4313C5.18723 16.3748 5.06341 16.2896 4.96129 16.1812C4.85917 16.0729 4.78109 15.9439 4.73222 15.8027C4.68335 15.6616 4.66481 15.5117 4.67784 15.3628C4.69087 15.2139 4.73517 15.0695 4.80779 14.9392M3.1451 16.9818C3.2204 16.7393 3.34613 16.5157 3.51391 16.3261L3.96175 16.6325C3.81633 16.7831 3.70744 16.9655 3.6436 17.1656C3.55444 17.4352 3.63144 17.6068 3.77228 17.6538C3.94453 17.713 4.07625 17.5833 4.32144 17.2728C4.65884 16.847 4.98307 16.703 5.36303 16.8337C5.81796 16.9879 6.08545 17.4761 5.8362 18.2308C5.75076 18.5007 5.60677 18.748 5.4147 18.9549L4.95065 18.6556C5.1279 18.4774 5.26327 18.2614 5.34682 18.0235C5.44105 17.7375 5.37418 17.5475 5.19686 17.4863C5.01955 17.425 4.8929 17.5261 4.66391 17.8172C4.35995 18.2257 4.01039 18.4299 3.61625 18.3002C3.15422 18.143 2.9303 17.6303 3.14409 16.9807M4.81691 30.7404C4.6767 30.7881 4.52796 30.8049 4.38075 30.7897C4.23354 30.7745 4.09129 30.7276 3.96362 30.6522C3.83595 30.5767 3.72584 30.4745 3.64074 30.3525C3.55564 30.2305 3.49753 30.0914 3.47034 29.9448C3.4256 29.8088 3.40975 29.6649 3.42381 29.5223C3.43787 29.3798 3.48153 29.2418 3.55196 29.1173C3.62239 28.9929 3.718 28.8848 3.83259 28.8C3.94718 28.7152 4.07818 28.6557 4.21708 28.6253C4.35656 28.5775 4.50452 28.5602 4.65116 28.5744C4.7978 28.5887 4.93974 28.6342 5.06758 28.708C5.19542 28.7818 5.30621 28.8822 5.39262 29.0025C5.47902 29.1227 5.53904 29.2601 5.56871 29.4056C5.6141 29.5429 5.63035 29.6883 5.61639 29.8323C5.60244 29.9764 5.55859 30.1159 5.4877 30.2417C5.41681 30.3676 5.32046 30.477 5.2049 30.5629C5.08933 30.6489 4.95715 30.7093 4.81691 30.7404ZM2.98501 21.2425L3.26973 21.2589V21.2456C3.1784 21.157 3.11011 21.0471 3.07088 20.9257C3.03165 20.8042 3.02269 20.6749 3.04479 20.5491C3.11268 20.1242 3.43995 19.8515 4.0418 19.9506L5.25766 20.1498L5.15633 20.7962L4.02255 20.6104C3.75911 20.5664 3.56457 20.6308 3.52708 20.8647C3.5159 20.9378 3.52791 21.0126 3.56138 21.0784C3.59486 21.1442 3.6481 21.1977 3.71351 21.2313C3.76151 21.2581 3.81412 21.2754 3.86854 21.2824L5.04691 21.4774L4.94559 22.1229L3.55444 21.8941C3.29911 21.8512 3.08025 21.8257 2.8999 21.8032L2.98501 21.2425ZM3.68312 22.5058L4.40351 22.5365C4.57232 22.5479 4.74177 22.5451 4.91012 22.5283L4.88479 23.1186L4.67607 23.1482V23.1615C4.75703 23.2401 4.81959 23.3358 4.8592 23.4418C4.89882 23.5478 4.91448 23.6614 4.90506 23.7743C4.9065 23.8616 4.89026 23.9483 4.85734 24.0291C4.82441 24.1098 4.77549 24.183 4.71357 24.2441C4.65165 24.3052 4.57802 24.3529 4.49718 24.3843C4.41635 24.4157 4.33 24.4302 4.24343 24.4269C3.70642 24.4044 3.46832 23.9019 3.50378 23.1574H3.47338C3.36396 23.1574 3.20488 23.2064 3.19171 23.5292C3.18557 23.7331 3.23126 23.9353 3.32444 24.1164L2.90497 24.2185C2.79021 23.9596 2.73945 23.6764 2.75704 23.3933C2.7451 23.2694 2.76141 23.1444 2.80472 23.0279C2.84803 22.9113 2.91719 22.8062 3.00692 22.7207C3.09665 22.6352 3.20459 22.5715 3.32248 22.5344C3.44038 22.4973 3.56511 22.4879 3.68717 22.5069M3.74898 24.6965C3.83359 24.6891 3.91868 24.6891 4.00329 24.6965L4.09448 26.0487C4.35995 26.0088 4.46735 25.7341 4.4481 25.4287C4.43786 25.2321 4.39647 25.0383 4.3255 24.8548L4.7551 24.7384C4.85977 24.9754 4.91989 25.2299 4.93241 25.489C4.95977 25.6342 4.9551 25.7836 4.91873 25.9268C4.88236 26.0699 4.81518 26.2032 4.72196 26.3173C4.62875 26.4313 4.51177 26.5233 4.37934 26.5866C4.24691 26.65 4.10227 26.6832 3.95567 26.6839C3.81343 26.7027 3.66887 26.6916 3.53108 26.6513C3.3933 26.6111 3.26528 26.5425 3.15507 26.4499C3.04486 26.3573 2.95485 26.2428 2.89071 26.1134C2.82657 25.9841 2.78968 25.8428 2.78237 25.6984C2.77119 25.5659 2.78829 25.4326 2.83251 25.3074C2.87673 25.1822 2.94705 25.068 3.03873 24.9725C3.13042 24.877 3.24134 24.8024 3.36402 24.7537C3.48671 24.7051 3.61832 24.6835 3.74999 24.6904M3.06303 27.8032L3.43589 27.7195V27.7021C3.31027 27.6844 3.19331 27.6275 3.10137 27.5394C3.00943 27.4513 2.94714 27.3364 2.92321 27.2109C2.91417 27.1655 2.90975 27.1193 2.91003 27.073L3.50783 26.9709C3.50625 27.03 3.50998 27.0891 3.51898 27.1475C3.52578 27.2495 3.56945 27.3455 3.64172 27.4172C3.71398 27.4889 3.80982 27.5314 3.91109 27.5367C3.95832 27.5408 4.00585 27.5401 4.05294 27.5346L5.08946 27.363L5.19078 28.0095L3.81889 28.2372C3.51492 28.2883 3.32241 28.3292 3.14814 28.367L3.06303 27.8032ZM3.77228 33.1292L4.94153 32.6451L4.93545 32.6338C4.80981 32.6165 4.69025 32.591 4.57272 32.5705L3.44907 32.3244L3.1451 31.5789L4.62744 32.0007L5.77541 30.4401L6.06012 31.1499L5.18268 32.2825L5.55351 32.3979L6.41677 32.0405L6.65792 32.643L4.01545 33.7378L3.77228 33.1292ZM5.85951 35.6037C5.78908 35.4909 5.74331 35.3642 5.72523 35.2322C5.70716 35.1001 5.7172 34.9657 5.75468 34.8379C5.79216 34.7101 5.85622 34.5918 5.94261 34.4908C6.02899 34.3899 6.13572 34.3087 6.25567 34.2526C6.32861 34.2087 6.40523 34.1715 6.48466 34.1412L7.18277 35.2973C7.39959 35.137 7.3692 34.8418 7.21215 34.5824C7.1127 34.4134 6.98718 34.2613 6.8403 34.1321L7.16655 33.8257C7.36823 33.9866 7.53832 34.184 7.6681 34.4078C7.7584 34.5245 7.82231 34.6596 7.85535 34.8038C7.88839 34.948 7.88975 35.0977 7.85934 35.2425C7.82894 35.3873 7.7675 35.5236 7.67933 35.6419C7.59117 35.7602 7.4784 35.8577 7.34893 35.9275C7.23251 36.0115 7.09999 36.0702 6.95982 36.0998C6.81965 36.1294 6.67491 36.1293 6.53479 36.0994C6.39468 36.0695 6.26228 36.0106 6.14602 35.9263C6.02975 35.842 5.93218 35.7342 5.85951 35.6098M6.85955 38.6042L7.78563 37.8587V37.8526C7.6739 37.8538 7.56325 37.8305 7.4614 37.7841C7.35538 37.7357 7.26282 37.6617 7.19188 37.5686C6.93655 37.2418 6.96391 36.8129 7.45228 36.4207L8.40065 35.6558L8.80087 36.1664L7.90823 36.8813C7.69545 37.0519 7.60426 37.2439 7.75726 37.4369C7.80062 37.4926 7.85999 37.5335 7.92727 37.554C7.99454 37.5745 8.06644 37.5735 8.13316 37.5513L8.25981 37.4778L9.22237 36.7026L9.62158 37.2132L7.25774 39.1149L6.85955 38.6042ZM9.65197 40.6059L9.26999 40.9961L7.71876 39.4212L8.10581 39.0281L8.65598 39.5867L10.2893 37.9241L10.7473 38.3898L9.11092 40.0524L9.65197 40.6059ZM12.4566 41.0063C12.44 41.08 12.4086 41.1495 12.3644 41.2105V41.2167C12.3213 41.2761 12.2668 41.3262 12.2042 41.3639C12.1415 41.4016 12.0719 41.4262 11.9996 41.4362C11.9279 41.4463 11.855 41.4425 11.7848 41.425C11.7126 41.4067 11.6448 41.374 11.5853 41.329C11.5258 41.2839 11.4758 41.2273 11.4383 41.1625C11.402 41.0995 11.3776 41.0303 11.3663 40.9583C11.355 40.8863 11.3578 40.8127 11.3744 40.7418C11.3911 40.6677 11.4232 40.598 11.4687 40.5375V40.5314C11.5127 40.4706 11.569 40.4198 11.6338 40.3823C11.6965 40.3465 11.7652 40.323 11.8365 40.3128C11.907 40.3023 11.979 40.3058 12.0482 40.323C12.1219 40.3394 12.191 40.3718 12.2509 40.418C12.3107 40.4627 12.3607 40.5194 12.3978 40.5845C12.4708 40.712 12.494 40.8624 12.4626 41.0063M14.8944 44.3315L14.5782 42.2022L13.944 42.4197L13.3776 43.5288L12.5933 43.1142L14.4445 39.4866L15.2297 39.9012L14.4192 41.4873L16.6746 40.6703L17.6229 41.1707L15.3858 41.9428L15.8366 44.833L14.8944 44.3315ZM18.4649 42.8354C18.5338 42.904 18.6103 42.9643 18.6929 43.0151C18.7942 43.0795 18.9188 43.1571 19.0739 43.251C19.2392 43.3481 19.3976 43.4566 19.5481 43.5758C19.6676 43.6729 19.7724 43.7871 19.8591 43.9149C19.9371 44.0324 19.988 44.166 20.0081 44.306C20.0268 44.4627 20.013 44.6217 19.9675 44.7727V44.784C19.9213 44.9635 19.837 45.1308 19.7203 45.2742C19.6129 45.4034 19.4773 45.5058 19.3241 45.5734C19.164 45.6428 18.9919 45.6799 18.8175 45.6827C18.616 45.6858 18.4151 45.6583 18.2218 45.601C17.9255 45.5171 17.646 45.3816 17.396 45.2006C17.1377 45.014 16.9186 44.7777 16.7516 44.5052L17.4233 44.0354C17.5508 44.222 17.7017 44.3912 17.8722 44.5389C18.0397 44.6819 18.2361 44.7864 18.4477 44.8452C18.5891 44.8942 18.7415 44.9006 18.8864 44.8636C18.9402 44.8479 18.9889 44.8182 19.0276 44.7775C19.0664 44.7368 19.0939 44.6866 19.1073 44.6318V44.6216C19.1221 44.5702 19.1256 44.5162 19.1174 44.4633C19.104 44.4053 19.0753 44.352 19.0344 44.3091C18.9736 44.2418 18.9056 44.1815 18.8317 44.1293C18.714 44.0463 18.5923 43.9693 18.467 43.8985C18.2984 43.8036 18.1357 43.6985 17.9796 43.584C17.8482 43.4905 17.7323 43.3768 17.6361 43.2469C17.5493 43.1286 17.492 42.9909 17.4689 42.8456C17.4453 42.6743 17.4598 42.4999 17.5115 42.3349V42.3237C17.555 42.1555 17.6346 41.999 17.7445 41.8652C17.8486 41.7404 17.9782 41.6397 18.1245 41.57C18.279 41.497 18.4464 41.456 18.6169 41.4495C18.8093 41.4416 19.0016 41.4654 19.1863 41.52C19.4537 41.5931 19.7066 41.7119 19.9341 41.8713C20.1481 42.0243 20.3351 42.2125 20.4873 42.4279L19.8662 42.9549C19.7377 42.7972 19.5931 42.6538 19.4346 42.5269C19.296 42.4145 19.1365 42.3312 18.9655 42.2818C18.8367 42.234 18.6956 42.2315 18.5652 42.2747C18.5187 42.2912 18.4769 42.3189 18.4433 42.3554C18.4098 42.3919 18.3855 42.436 18.3727 42.4841V42.4943C18.3551 42.5518 18.352 42.6129 18.3636 42.672C18.3794 42.7341 18.4125 42.7904 18.4588 42.8344M24.1146 44.8534C24.0994 45.0707 24.0397 45.2825 23.9393 45.4754C23.8427 45.6611 23.7108 45.8259 23.5513 45.9605C23.3879 46.0971 23.2001 46.2011 22.9981 46.2669C22.5603 46.4018 22.0881 46.3653 21.6758 46.1647C21.2971 45.978 21.0075 45.6474 20.8703 45.2456C20.802 45.0399 20.7761 44.8224 20.7943 44.6063V44.593C20.8094 44.3768 20.8687 44.1661 20.9686 43.9741C21.0647 43.7874 21.1966 43.6219 21.3566 43.4869C21.5199 43.3501 21.7077 43.2461 21.9099 43.1806C22.1273 43.1106 22.3563 43.0849 22.5836 43.105C22.8095 43.1211 23.0301 43.1815 23.2331 43.2827C23.4208 43.3748 23.5885 43.5034 23.7266 43.6612C23.8647 43.8189 23.9704 44.0027 24.0376 44.2018C24.1064 44.4078 24.1326 44.6257 24.1146 44.8422V44.8534ZM25.221 46.3547L24.7631 42.2941L25.6415 42.192L26.0083 45.4458L27.9993 45.2129L28.0905 46.0187L25.221 46.3547ZM32.116 44.7921L31.4777 44.0446L29.8687 44.5991L29.8099 45.5877L28.9568 45.8818L29.2881 41.4219L30.0602 41.1544L32.9904 44.4909L32.116 44.7921ZM34.4362 42.4851C34.4156 42.5559 34.3812 42.6219 34.3349 42.6791C34.2894 42.7385 34.2327 42.7881 34.168 42.8251C34.1033 42.8621 34.0319 42.8857 33.958 42.8946C33.8866 42.9017 33.8144 42.8954 33.7452 42.8762C33.676 42.8573 33.6113 42.8246 33.5547 42.7802C33.4957 42.7342 33.447 42.6761 33.4119 42.6097V42.6035C33.3758 42.5377 33.3537 42.465 33.347 42.3901C33.3403 42.3173 33.3468 42.244 33.3663 42.1736C33.3856 42.1044 33.4179 42.0395 33.4615 41.9826C33.506 41.9226 33.5626 41.8728 33.6277 41.8366C33.6918 41.7995 33.7629 41.7762 33.8364 41.7681C33.9078 41.7604 33.98 41.7663 34.0492 41.7855C34.119 41.8045 34.1844 41.8372 34.2417 41.8815C34.3013 41.9267 34.3507 41.9842 34.3866 42.05V42.0561C34.4229 42.1217 34.446 42.1939 34.4545 42.2686C34.4612 42.341 34.4543 42.4141 34.4342 42.4841M23.8897 41.0839C20.54 41.0722 17.2689 40.0603 14.4893 38.176C11.7098 36.2917 9.54657 33.6195 8.27274 30.4968C6.99891 27.3741 6.67164 23.9409 7.33224 20.6309C7.99285 17.3209 9.61171 14.2823 11.9844 11.899C14.3571 9.51573 17.3772 7.89452 20.6634 7.24012C23.9496 6.58572 27.3545 6.92748 30.4481 8.22224C33.5417 9.517 36.1853 11.7067 38.0451 14.5148C39.9049 17.323 40.8975 20.6236 40.8975 24C40.8938 26.2474 40.4509 28.4721 39.5942 30.5469C38.7374 32.6218 37.4835 34.5063 35.9042 36.0927C34.3248 37.6791 32.4509 38.9364 30.3895 39.7928C28.328 40.6492 26.1194 41.0879 23.8897 41.0839ZM40.8874 14.5838L42.1134 13.919C42.3829 13.7729 42.5531 13.6698 42.7071 13.5778L42.9675 14.0752L42.6413 14.2795L42.6494 14.2948C42.7735 14.2711 42.9019 14.287 43.0167 14.3403C43.1314 14.3935 43.2269 14.4815 43.2897 14.592C43.3134 14.6318 43.3325 14.6743 43.3465 14.7186L42.8125 15.0076C42.7952 14.9511 42.7725 14.8963 42.7446 14.8442C42.7062 14.75 42.6345 14.6734 42.5435 14.6291C42.4524 14.5848 42.3483 14.5759 42.2512 14.6042C42.2052 14.619 42.1608 14.6381 42.1185 14.6614L41.1914 15.1639L40.8874 14.5838ZM43.5592 33.3753C43.4793 33.5625 43.36 33.7301 43.2097 33.8665L42.852 33.5724C42.9772 33.4756 43.0779 33.3503 43.1459 33.2068C43.2117 33.0618 43.1904 32.9535 43.0932 32.9086C42.9959 32.8636 42.925 32.9208 42.7396 33.1179C42.4528 33.4243 42.2036 33.4948 41.9239 33.3702C41.5733 33.2078 41.4416 32.8064 41.6868 32.257C41.7768 32.0415 41.9156 31.8502 42.0921 31.6984L42.465 31.9986C42.308 32.1167 42.1804 32.2698 42.0921 32.4459C42.0121 32.6257 42.0394 32.7288 42.1367 32.7738C42.234 32.8187 42.3059 32.7809 42.4792 32.591C42.7831 32.256 43.0668 32.2008 43.2897 32.3081C43.379 32.3582 43.4571 32.4262 43.5194 32.5078C43.5816 32.5895 43.6267 32.6831 43.6517 32.783C43.6768 32.8828 43.6813 32.9868 43.6651 33.0885C43.6488 33.1901 43.6121 33.2874 43.5572 33.3743M44.0577 32.0558L42.1124 31.3307L42.3333 30.7179L44.2786 31.442L44.0577 32.0558ZM45.0152 32.063C45.0029 32.1061 44.9818 32.1463 44.9532 32.1809C44.9247 32.2154 44.8894 32.2437 44.8495 32.2638C44.8097 32.284 44.7661 32.2956 44.7215 32.2979C44.677 32.3003 44.6324 32.2933 44.5907 32.2774C44.549 32.2613 44.511 32.2369 44.479 32.2055C44.447 32.1741 44.4217 32.1365 44.4046 32.0949C44.3875 32.0533 44.3791 32.0086 44.3797 31.9636C44.3803 31.9186 44.3901 31.8742 44.4083 31.8332C44.4207 31.791 44.4417 31.7518 44.4699 31.7183C44.4982 31.6847 44.5331 31.6574 44.5723 31.6382C44.6116 31.619 44.6544 31.6082 44.6981 31.6066C44.7417 31.605 44.7852 31.6126 44.8258 31.6289C44.8682 31.6429 44.9073 31.6658 44.9403 31.6961C44.9734 31.7264 44.9997 31.7634 45.0176 31.8047C45.0355 31.846 45.0445 31.8906 45.0441 31.9356C45.0437 31.9806 45.0339 32.0251 45.0152 32.066M43.9868 28.847C43.84 28.8308 43.6983 28.7835 43.5709 28.7082C43.4435 28.633 43.3334 28.5313 43.2477 28.4101C43.1621 28.2888 43.1029 28.1507 43.074 28.0047C43.045 27.8588 43.0471 27.7083 43.08 27.5632C43.0945 27.4195 43.1392 27.2805 43.2109 27.1555C43.2827 27.0304 43.38 26.9221 43.4963 26.8378C43.6127 26.7534 43.7454 26.6949 43.8859 26.6661C44.0263 26.6373 44.1712 26.6388 44.3111 26.6706C44.4584 26.6872 44.6005 26.7353 44.728 26.8117C44.8554 26.8881 44.9651 26.991 45.0499 27.1136C45.1347 27.2362 45.1926 27.3756 45.2196 27.5225C45.2467 27.6694 45.2423 27.8205 45.2067 27.9656C45.1915 28.1076 45.1466 28.2448 45.0751 28.3682C45.0036 28.4916 44.9071 28.5984 44.7919 28.6816C44.6766 28.7648 44.5453 28.8225 44.4064 28.851C44.2675 28.8795 44.1252 28.8781 43.9868 28.847ZM45.4215 26.3887C45.42 26.4349 45.4139 26.4807 45.4033 26.5256L44.7954 26.4837C44.8105 26.4262 44.8203 26.3674 44.8248 26.3081C44.8405 26.207 44.8192 26.1037 44.765 26.0173C44.7107 25.9309 44.6272 25.8672 44.5299 25.8383C44.483 25.8266 44.4352 25.8191 44.387 25.8158L43.3394 25.7423L43.384 25.0887L44.77 25.1908C45.074 25.2132 45.2766 25.2173 45.4509 25.2214L45.4124 25.7841H45.0304V25.8015C45.1482 25.8489 45.2486 25.9316 45.318 26.0385C45.3874 26.1454 45.4225 26.2712 45.4185 26.399M44.4985 24.7404C44.4135 24.7429 44.3284 24.7382 44.2442 24.7261L44.2047 23.3709C43.9392 23.4005 43.8207 23.6711 43.8277 23.9765C43.8306 24.1734 43.8648 24.3686 43.9291 24.5545L43.4944 24.6567C43.3987 24.4155 43.3482 24.1586 43.3455 23.8989C43.3221 23.7511 43.3318 23.5999 43.3736 23.4563C43.4155 23.3127 43.4886 23.1803 43.5875 23.0687C43.6865 22.9571 43.8088 22.8692 43.9457 22.8112C44.0826 22.7532 44.2306 22.7267 44.3789 22.7336C44.5217 22.7205 44.6657 22.7373 44.8017 22.7829C44.9377 22.8286 45.0629 22.9021 45.1694 22.9989C45.2759 23.0957 45.3613 23.2136 45.4204 23.3453C45.4795 23.477 45.5109 23.6196 45.5127 23.7641C45.5191 23.8968 45.4971 24.0294 45.4482 24.1529C45.3994 24.2764 45.3248 24.3878 45.2295 24.4797C45.1342 24.5716 45.0204 24.6418 44.8959 24.6855C44.7713 24.7293 44.6389 24.7455 44.5076 24.7332" fill="white"/>
<path d="M21.7412 4.05033C21.7683 4.13504 21.8232 4.20792 21.8968 4.25693C21.9705 4.30595 22.0586 4.32818 22.1465 4.31995C22.4251 4.29135 22.566 4.0391 22.5305 3.68369C22.4971 3.35076 22.3279 3.11178 22.0381 3.1414C21.9466 3.1536 21.862 3.19689 21.7983 3.26411C21.7345 3.33133 21.6955 3.41846 21.6875 3.5111V3.62752L21.7159 3.91552C21.7203 3.96121 21.7281 4.00636 21.7412 4.05033Z" fill="white"/>
<path d="M33.3468 6.52286C33.425 6.56541 33.5157 6.5785 33.6026 6.55978C33.6895 6.54107 33.7669 6.49177 33.821 6.42073C33.8549 6.38353 33.8832 6.34156 33.9051 6.29613L34.0318 6.05307L34.0784 5.95094C34.1058 5.86395 34.1023 5.77007 34.0687 5.68532C34.0351 5.60058 33.9733 5.53023 33.894 5.48626C33.6366 5.34737 33.3782 5.50975 33.2263 5.80286C33.0601 6.11741 33.1108 6.39826 33.3468 6.5249" fill="white"/>
<path d="M44.6515 23.3463L44.6738 24.1215C44.7259 24.1256 44.7783 24.1187 44.8276 24.1013C44.877 24.0838 44.9221 24.0562 44.9603 24.0202C44.9984 23.9841 45.0287 23.9405 45.0491 23.892C45.0696 23.8435 45.0798 23.7912 45.0791 23.7385C45.0703 23.6302 45.0209 23.5293 44.9409 23.4564C44.8608 23.3835 44.7563 23.3442 44.6484 23.3463" fill="white"/>
<path d="M42.3494 16.6826C42.4436 16.9175 42.7365 16.9726 43.081 16.8286C43.3677 16.7091 43.6119 16.4773 43.5004 16.2015C43.389 15.9258 43.0455 15.9268 42.7638 16.0432C42.4345 16.1811 42.244 16.4242 42.3494 16.6826Z" fill="white"/>
<path d="M44.2173 27.3436C43.8667 27.2834 43.579 27.3865 43.5324 27.6623C43.4908 27.9115 43.7097 28.1167 44.0765 28.1801C44.3804 28.2321 44.7107 28.1668 44.7594 27.8737C44.811 27.5673 44.5182 27.3957 44.2173 27.3436Z" fill="white"/>
<path d="M28.7888 4.83062C28.8603 4.84897 28.9357 4.84415 29.0042 4.81683C29.0728 4.78951 29.1311 4.74108 29.1708 4.67845L29.2103 4.57632L29.264 4.35471C28.9357 4.26688 28.6612 4.28219 28.6014 4.52934C28.5908 4.56191 28.5875 4.5964 28.5915 4.63041C28.5955 4.66443 28.6068 4.69715 28.6247 4.72631C28.6425 4.75546 28.6664 4.78035 28.6948 4.79925C28.7231 4.81815 28.7552 4.83059 28.7888 4.83573" fill="white"/>
<path d="M25.7277 4.26893C25.8162 4.27648 25.9045 4.25237 25.9771 4.20083C26.0498 4.14928 26.1021 4.07359 26.1249 3.98705C26.1413 3.93932 26.1509 3.88945 26.1532 3.83897L26.1755 3.56322V3.4468C26.1672 3.35608 26.1277 3.27114 26.0639 3.20663C26.0001 3.14212 25.9159 3.10209 25.826 3.09344C25.5352 3.06893 25.3619 3.3222 25.3356 3.6531C25.3062 4.0085 25.4622 4.24646 25.7277 4.26586" fill="white"/>
<path d="M37.6933 40.4496C39.7201 40.4496 41.3632 38.8063 41.3632 36.7792C41.3632 34.752 39.7201 33.1087 37.6933 33.1087C35.6665 33.1087 34.0234 34.752 34.0234 36.7792C34.0234 38.8063 35.6665 40.4496 37.6933 40.4496Z" fill="white"/>
<path d="M37.5386 41.4903C36.3302 41.4939 35.1696 41.0142 34.3114 40.1565C33.4533 39.2988 32.9676 38.1331 32.9609 36.915C32.9609 35.6918 33.443 34.5187 34.3011 33.6538C35.1592 32.7888 36.3231 32.3029 37.5366 32.3029C38.7502 32.3029 39.914 32.7888 40.7721 33.6538C41.6302 34.5187 42.1123 35.6918 42.1123 36.915C42.1069 38.1328 41.6223 39.2987 40.7647 40.1565C39.9071 41.0144 38.7468 41.4941 37.5386 41.4903ZM37.5386 33.5519C36.8796 33.5568 36.2366 33.7582 35.691 34.1308C35.1453 34.5035 34.7213 35.0306 34.4725 35.6458C34.2236 36.2609 34.161 36.9366 34.2926 37.5876C34.4242 38.2386 34.7441 38.8357 35.2119 39.3037C35.6797 39.7717 36.2745 40.0896 36.9214 40.2173C37.5682 40.345 38.238 40.2768 38.8464 40.0213C39.4549 39.7658 39.9746 39.3345 40.3402 38.7817C40.7057 38.2289 40.9007 37.5794 40.9005 36.915C40.8962 36.02 40.5398 35.1632 39.9096 34.5327C39.2793 33.9022 38.4266 33.5495 37.5386 33.5519ZM37.5498 39.5203C36.9649 39.5264 36.3951 39.3333 35.9328 38.9722C35.4704 38.6111 35.1426 38.1032 35.0024 37.5309C34.8623 36.9585 34.918 36.3552 35.1606 35.8187C35.4032 35.2822 35.8184 34.8441 36.339 34.5753C36.344 34.5739 36.3488 34.5718 36.3532 34.5691H36.3613L36.3785 34.563C36.5055 34.4998 36.6377 34.4479 36.7737 34.4078L36.8365 34.3833L36.8507 34.3771C36.8821 34.3659 36.9125 34.3567 36.9449 34.3485C37.3286 34.2534 37.7287 34.2473 38.1151 34.3309C38.5014 34.4144 38.8639 34.5853 39.1751 34.8308C39.4863 35.0762 39.7381 35.3897 39.9115 35.7475C40.0849 36.1054 40.1754 36.4983 40.176 36.8966C40.176 36.9446 40.176 36.9987 40.17 37.0427V37.0886V37.108C40.1701 37.255 40.1447 37.4008 40.095 37.539C40.002 37.7923 39.8359 38.0116 39.6182 38.1689C39.4004 38.3262 39.1409 38.4141 38.8731 38.4214H38.8001C38.4522 38.4118 38.1216 38.266 37.8786 38.0149C37.6355 37.7638 37.499 37.4272 37.4981 37.0764C37.4984 36.8247 37.5659 36.5777 37.6937 36.3615C37.8817 36.1468 37.9893 35.8726 37.9976 35.5863C37.9994 35.5177 37.993 35.4491 37.9784 35.3821C37.4522 35.395 36.9513 35.6125 36.5805 35.989C36.2096 36.3656 35.9976 36.872 35.9887 37.4025C35.9798 37.933 36.1747 38.4464 36.5327 38.8354C36.8907 39.2244 37.384 39.4588 37.9095 39.4896C37.7905 39.5087 37.6703 39.5186 37.5498 39.5193V39.5203Z" fill="url(#paint0_linear_1637_9516)"/>
<path d="M15.1889 14.5695C14.0842 15.1128 13.147 15.9488 12.4777 16.988C11.8084 18.0271 11.4321 19.2302 11.3893 20.4684C10.4906 29.904 22.0494 39.4417 28.5674 34.1637C28.5674 34.1637 21.6319 34.9715 17.7564 27.5826C13.8808 20.1937 16.1494 15.8747 20.4606 14.399C19.6082 14.1281 18.7201 13.988 17.8263 13.9833C16.9144 13.9643 16.0111 14.1652 15.1919 14.5695" fill="url(#paint1_linear_1637_9516)"/>
<path d="M23.0642 16.752C20.9764 19.0628 19.0146 21.4861 17.1875 24.0112C17.1875 24.0112 18.0882 26.7891 18.8086 27.4508C18.8086 27.4508 22.1715 23.1482 24.046 20.8493C25.8312 18.6577 30.3097 14.3489 34.8529 17.3933C34.3345 16.3585 33.5505 15.4825 32.5824 14.8566C31.6143 14.2307 30.4975 13.8776 29.3481 13.8342C29.2894 13.8342 29.2265 13.8342 29.1617 13.8342C26.8365 13.9943 24.6584 15.0386 23.0682 16.756" fill="url(#paint2_linear_1637_9516)"/>
<path d="M17.3984 17.5526C18.4395 17.57 19.455 17.881 20.3297 18.4503C21.0521 17.5772 21.7776 16.7458 22.4088 16.1014C22.5283 15.9809 22.6489 15.8645 22.7705 15.7511C22.3268 15.4143 21.8375 15.1433 21.3176 14.9464C20.5186 15.074 19.7558 15.3719 19.0801 15.8203C18.4045 16.2687 17.8315 16.8572 17.3995 17.5465" fill="url(#paint3_linear_1637_9516)"/>
<path d="M30.4531 17.332L30.4805 17.379C31.279 18.9254 31.5293 20.7004 31.1897 22.4098C32.5069 23.6537 33.7542 24.9293 34.893 26.1691C35.6555 24.2493 35.9293 22.1677 35.6894 20.114C35.5971 19.7407 35.4653 19.3784 35.2963 19.0335C35.2093 18.8813 35.1107 18.7362 35.0015 18.5994C34.5783 18.132 34.0568 17.7657 33.4751 17.5276C32.8935 17.2894 32.2663 17.1852 31.6396 17.2227C31.2423 17.2201 30.8456 17.256 30.4552 17.33" fill="url(#paint4_linear_1637_9516)"/>
<path d="M24.3633 32.9984C24.3633 32.9984 27.9531 34.3577 29.9724 32.7656C30.0535 32.7023 30.1335 32.6348 30.2126 32.5685L28.4465 29.2677C27.4029 30.8239 26.0022 32.1043 24.3633 32.9984Z" fill="url(#paint5_linear_1637_9516)"/>
<path d="M26.6002 19.5237C25.9327 20.1068 25.3143 20.7445 24.7511 21.4304C24.6133 21.5989 24.4684 21.7787 24.3164 21.9666C27.759 26.0029 30.507 30.5915 32.4464 35.5424C32.7955 34.2554 33.6132 33.1484 34.7362 32.4421C35.8593 31.7358 37.2052 31.4823 38.5055 31.732C35.012 27.2182 31.0176 23.1221 26.6002 19.5237Z" fill="url(#paint6_linear_1637_9516)"/>
<path d="M61.9727 20.7881H59.7436H59.1914C59.5119 21.0771 59.7096 21.4794 59.7436 21.9115V24.2277C59.7427 24.45 59.7887 24.6699 59.8787 24.8729C59.9686 25.0758 60.1004 25.2572 60.2653 25.4048C60.4301 25.5524 60.6243 25.663 60.8348 25.7291C61.0454 25.7952 61.2675 25.8154 61.4863 25.7883H71.0481V24.3697H61.9727V20.7881Z" fill="white"/>
<path d="M59.5245 15.8686C59.5245 12.6434 63.4761 12.625 63.4761 15.8686C63.4761 19.1122 59.5245 19.0775 59.5245 15.8686ZM65.6747 15.8686C65.6268 15.22 65.4105 14.5955 65.0475 14.0578C64.6845 13.52 64.1877 13.0879 63.6068 12.8048H66.2999L66.31 12.7793V11.3821H62.6067V9.86249H59.9227C60.1423 10.0765 60.3044 10.3432 60.3938 10.6376V11.3811H56.6875V12.8426L56.7098 12.8007H59.3725C58.7979 13.088 58.308 13.5221 57.9516 14.0596C57.5951 14.5972 57.3846 15.2195 57.341 15.8645C57.341 20.545 65.6686 20.545 65.6686 15.8645" fill="white"/>
<path d="M70.4478 11.2014V13.6912H72.3333V15.1088H70.4478V20.5665H68.2329V11.0768V11.1105C68.2329 10.5723 67.4709 10.032 67.4709 10.032L67.4648 10.0218H69.1812C70.0276 10.0218 70.4508 10.4136 70.4508 11.1973L70.4478 11.2014Z" fill="white"/>
<path d="M86.9486 13.582V10.1362H75.483V11.1697L75.4891 11.5547H84.7357V13.6545C84.7688 14.5206 84.6459 15.3856 84.373 16.2077H73.4141V17.6283H80.0729V20.3091H75.246V21.3304V21.7236H84.6689V25.8577H86.8827V20.3142H82.2848V17.6334H88.9446V16.2128H86.209C86.6946 15.4229 86.9525 14.5123 86.9537 13.583" fill="white"/>
<path d="M97.1221 13.5105V11.9908H100.496V10.5529H91.442V11.9908H94.817V13.5105C94.817 16.4855 92.7116 19.0989 90.4805 19.6055L91.3873 20.3673C92.3705 20.1592 93.2942 19.7295 94.0892 19.1105C94.8843 18.4915 95.53 17.6991 95.9782 16.7929C96.4173 17.7023 97.0581 18.4977 97.851 19.1176C98.6439 19.7374 99.5677 20.165 100.551 20.3673L101.463 19.6055C99.2488 19.0948 97.1272 16.4855 97.1272 13.5105" fill="white"/>
<path d="M112.833 14.4174C113.298 15.2893 113.952 16.044 114.747 16.6252C115.542 17.2063 116.457 17.5988 117.424 17.7733L118.336 17.0472C117.142 16.7708 116.07 16.1068 115.287 15.1571C114.503 14.2074 114.051 13.0247 113.999 11.7907H117.302V10.3895H108.385V11.7917H111.687C111.639 13.0266 111.188 14.2109 110.404 15.1612C109.62 16.1116 108.547 16.7748 107.352 17.0482L108.263 17.7743C109.897 17.5701 112.273 16.0514 112.835 14.4184" fill="white"/>
<path d="M113.192 24.3942V22.9103H122.21V19.0295H110.724V20.4297H119.978V21.8952H110.234C110.433 22.0099 110.601 22.1698 110.727 22.362C110.853 22.5543 110.933 22.7735 110.96 23.0022V24.2359C110.96 25.2327 111.596 25.7965 112.72 25.7965H122.572V24.3942H113.192Z" fill="white"/>
<path d="M135.146 22.9971C135.134 22.7058 135.18 22.415 135.282 22.1421C135.384 21.8693 135.539 21.62 135.74 21.4094C135.94 21.1988 136.18 21.0312 136.446 20.9167C136.712 20.8022 136.998 20.7432 137.287 20.7432C137.577 20.7432 137.863 20.8022 138.129 20.9167C138.395 21.0312 138.635 21.1988 138.835 21.4094C139.035 21.62 139.191 21.8693 139.293 22.1421C139.395 22.415 139.441 22.7058 139.428 22.9971C139.441 23.2884 139.395 23.5792 139.293 23.8521C139.191 24.125 139.035 24.3742 138.835 24.5848C138.635 24.7954 138.395 24.963 138.129 25.0775C137.863 25.192 137.577 25.251 137.287 25.251C136.998 25.251 136.712 25.192 136.446 25.0775C136.18 24.963 135.94 24.7954 135.74 24.5848C135.539 24.3742 135.384 24.125 135.282 23.8521C135.18 23.5792 135.134 23.2884 135.146 22.9971ZM132.879 22.9971C132.879 27.5152 141.694 27.5152 141.694 22.9971C141.694 18.479 132.879 18.479 132.879 22.9971Z" fill="white"/>
<path d="M131.559 10.1346H131.571V10.129L131.559 10.1346Z" fill="white"/>
<path d="M138.378 15.6143H143.456V14.6032L143.465 14.1947H133.785V11.5547H143.257V10.1362H131.573V14.0528C131.573 15.0332 132.208 15.6133 133.333 15.6133H136.161V17.2902H129.52V18.72H145.052V17.2902H138.374L138.378 15.6143Z" fill="white"/>
<path d="M151.583 16.9716H149.206V11.8999H151.583V16.9716ZM153.741 10.4803H146.266C146.467 10.5988 146.64 10.7611 146.772 10.9554C146.904 11.1498 146.991 11.3712 147.028 11.6038V16.8306C147.028 17.81 147.645 18.3901 148.769 18.3901H153.741V10.4803Z" fill="white"/>
<path d="M148.934 21.2232L148.952 21.6235H159.167V25.776H161.396V20.2029H148.934V21.2232Z" fill="white"/>
<path d="M172.559 10.5539H164.575V11.5874H170.092C170.092 15.3662 167.224 17.7733 163.613 18.2257L164.683 18.8967C169.437 18.4984 172.559 15.3417 172.559 10.5508" fill="white"/>
<path d="M170.526 22.7459C170.505 22.4292 170.549 22.1116 170.655 21.8127C170.761 21.5137 170.926 21.2399 171.141 21.0082C171.357 20.7764 171.617 20.5916 171.906 20.4653C172.194 20.339 172.506 20.2738 172.821 20.2738C173.136 20.2738 173.447 20.339 173.736 20.4653C174.025 20.5916 174.285 20.7764 174.5 21.0082C174.715 21.2399 174.881 21.5137 174.987 21.8127C175.093 22.1116 175.137 22.4292 175.116 22.7459C175.137 23.0626 175.093 23.3803 174.987 23.6792C174.881 23.9781 174.715 24.2519 174.5 24.4837C174.285 24.7154 174.025 24.9002 173.736 25.0265C173.447 25.1528 173.136 25.218 172.821 25.218C172.506 25.218 172.194 25.1528 171.906 25.0265C171.617 24.9002 171.357 24.7154 171.141 24.4837C170.926 24.2519 170.761 23.9781 170.655 23.6792C170.549 23.3803 170.505 23.0626 170.526 22.7459ZM168.297 22.7459C168.297 27.5909 177.368 27.5909 177.368 22.7459C177.368 17.9204 168.297 17.9204 168.297 22.7459Z" fill="white"/>
<path d="M176.199 12.4954H172.9V13.9139H176.061V15.4458H172.809V16.8654H176.199V12.4954Z" fill="white"/>
<path d="M105.163 11.2044C105.163 10.4201 104.74 10.0289 103.868 10.0289H102.16L102.192 10.0371C102.192 10.0371 102.936 10.5723 102.936 11.1115V25.8669H105.165V11.1973" fill="white"/>
<path d="M122.195 11.2044C122.195 10.4201 121.771 10.0289 120.9 10.0289H119.191L119.223 10.0371C119.223 10.0371 119.969 10.5723 119.969 11.1115V17.7804H122.198V11.1973" fill="white"/>
<path d="M157.53 11.2177C157.53 10.4334 157.106 10.0422 156.235 10.0422H154.715L154.747 10.0514C154.747 10.0514 155.493 10.5856 155.493 11.1238V18.9018H157.532V11.2177" fill="white"/>
<path d="M177.88 11.2177C177.88 10.4334 177.456 10.0422 176.585 10.0422H174.883L174.914 10.0514C174.914 10.0514 175.659 10.5856 175.659 11.1238V18.9018H177.888V11.2177" fill="white"/>
<path d="M161.401 11.2177C161.401 10.4334 160.977 10.0422 160.106 10.0422H158.586L158.617 10.0514C158.617 10.0514 159.363 10.5856 159.363 11.1238V18.9018H161.402L161.401 11.2177Z" fill="white"/>
<path d="M159.819 13.3471H156.832V14.7606H159.819V13.3471Z" fill="white"/>
<path d="M183.564 15.7593C183.564 12.5352 187.538 12.5168 187.538 15.7593C187.538 19.0019 183.564 18.9866 183.564 15.7593ZM193.669 15.982H196.229V14.5624H193.669V15.982ZM192.262 19.7719C190.605 20.4868 188.281 20.3632 186.667 20.3632V19.1888C189.933 18.3718 190.877 14.9617 187.992 12.8936H190.379L190.369 12.8865V11.4751H186.667V11.137C186.667 10.3527 186.244 9.96155 185.372 9.96155H183.954C184.096 10.0692 184.213 10.2077 184.295 10.3667C184.378 10.5258 184.424 10.7014 184.43 10.8807L184.436 10.8674V11.4741H180.734V12.8865L180.744 12.8936H183.11C180.242 14.9433 181.15 18.336 184.435 19.1888V20.3632H181.801C181.385 20.327 180.985 20.1835 180.641 19.9466V21.7849H188.645C189.903 21.7989 191.145 21.5023 192.262 20.9209V19.7719Z" fill="white"/>
<path d="M194.328 11.2494C194.328 10.4651 193.923 10.0739 193.049 10.0739H191.395L191.426 10.0831C191.426 10.0831 192.171 10.6172 192.171 11.1554V25.8802H194.333V11.2433" fill="white"/>
<path d="M200.129 21.7144H209.786V25.776H212.001V20.2928H200.129V21.7144Z" fill="white"/>
<path d="M214.749 13.437H211.227V14.8749H214.749V13.437Z" fill="white"/>
<path d="M218.898 15.7593C218.898 12.5352 222.872 12.5168 222.872 15.7593C222.872 19.0019 218.898 18.9866 218.898 15.7593ZM227.68 19.8199C226.102 20.5093 223.634 20.3633 222.001 20.3633V19.1888C225.266 18.3718 226.209 14.9617 223.325 12.8947H225.776V12.8722V11.4741H222.003V9.96973L222.029 9.95441H219.293C219.427 10.0593 219.538 10.1906 219.619 10.3403C219.7 10.4899 219.75 10.6547 219.766 10.8245V11.4741H215.991V12.8732V12.8957H218.442C215.575 14.9454 216.482 18.3381 219.767 19.1898V20.3643H215.797V20.3316V21.7828H224.163C225.384 21.8005 226.592 21.5202 227.683 20.9658L227.68 19.8199Z" fill="white"/>
<path d="M204.17 11.3107V10.9389C204.17 10.1556 203.746 9.76343 202.875 9.76343H201.456C201.598 9.87125 201.715 10.0097 201.797 10.1688C201.879 10.3278 201.925 10.5034 201.931 10.6826L201.937 10.6693V11.2943V11.3045H198.242V12.718H198.248H200.909C200.348 12.9832 199.868 13.3961 199.52 13.9132C199.172 14.4303 198.969 15.0325 198.932 15.6562C198.932 20.2458 207.188 20.2652 207.188 15.6562C207.147 15.0336 206.942 14.4331 206.595 13.9167C206.248 13.4003 205.77 12.9865 205.211 12.718H207.865V11.3096L204.17 11.3107ZM201.111 15.6501C201.111 12.529 204.994 12.4933 204.994 15.6501C204.994 18.8068 201.111 18.7721 201.111 15.6501Z" fill="white"/>
<path d="M212.005 11.2177C212.005 10.4334 211.581 10.0422 210.71 10.0422H209.008L209.039 10.0514C209.039 10.0514 209.784 10.5856 209.784 11.1238V19.0203H212.013V11.2177" fill="white"/>
<path d="M229.845 11.2177C229.845 10.4334 229.421 10.0422 228.55 10.0422H226.898L226.93 10.0514C226.93 10.0514 227.676 10.5856 227.676 11.1238V25.8608H229.851V11.2177" fill="white"/>
<path d="M127.559 17.3393C127.562 17.6326 127.477 17.92 127.317 18.165C127.157 18.41 126.928 18.6016 126.66 18.7154C126.392 18.8292 126.096 18.8601 125.81 18.8042C125.525 18.7484 125.262 18.6082 125.055 18.4016C124.849 18.1949 124.708 17.9311 124.65 17.6435C124.593 17.356 124.621 17.0577 124.732 16.7864C124.843 16.5152 125.031 16.2832 125.273 16.12C125.515 15.9568 125.799 15.8696 126.09 15.8696C126.478 15.8683 126.851 16.0223 127.127 16.2979C127.402 16.5735 127.558 16.948 127.559 17.3393Z" fill="white"/>
<path d="M58.9251 31.5238H57.2969V30.6506H61.6122V31.5238H59.9677V36.3646H58.9251V31.5238Z" fill="white"/>
<path d="M62.1562 30.3452H63.208V32.8034H63.2252C63.3549 32.6033 63.5331 32.4398 63.7429 32.3285C63.9591 32.205 64.2037 32.1409 64.4522 32.1427C65.1564 32.1427 65.893 32.6084 65.893 33.9319V36.3636H64.8524V34.0504C64.8524 33.4489 64.6315 32.9985 64.055 32.9985C63.876 32.9977 63.7013 33.0539 63.5558 33.1589C63.4103 33.264 63.3013 33.4126 63.2444 33.5837C63.2114 33.6847 63.1969 33.791 63.2019 33.8972V36.3636H62.1562V30.3452Z" fill="white"/>
<path d="M69.5601 33.8625C69.5769 33.7382 69.5674 33.6118 69.5322 33.4916C69.4971 33.3713 69.4372 33.2599 69.3563 33.1646C69.2755 33.0693 69.1756 32.9924 69.0631 32.9387C68.9507 32.8851 68.8283 32.856 68.704 32.8534C68.4469 32.8674 68.2048 32.9795 68.0268 33.1669C67.8488 33.3543 67.7482 33.603 67.7455 33.8625H69.5601ZM67.7455 34.5917C67.7514 34.7489 67.7901 34.9031 67.8589 35.0444C67.9278 35.1856 68.0253 35.3107 68.1452 35.4115C68.2651 35.5123 68.4047 35.5866 68.5548 35.6296C68.705 35.6725 68.8625 35.6832 69.017 35.6609C69.4069 35.6715 69.7952 35.6084 70.162 35.4751L70.314 36.19C69.8539 36.3657 69.3651 36.452 68.8732 36.4443C68.5921 36.4716 68.3084 36.4369 68.0419 36.3426C67.7755 36.2484 67.5326 36.0967 67.3301 35.8983C67.1276 35.6998 66.9704 35.4593 66.8695 35.1935C66.7685 34.9276 66.7262 34.6428 66.7454 34.3588C66.7219 34.0769 66.7566 33.7932 66.8472 33.5255C66.9378 33.2578 67.0824 33.0119 67.2718 32.8032C67.4613 32.5946 67.6916 32.4277 67.9482 32.3132C68.2048 32.1986 68.4821 32.1388 68.7627 32.1375C69.0154 32.1364 69.2654 32.1893 69.4963 32.2928C69.7271 32.3963 69.9336 32.548 70.1019 32.7378C70.2703 32.9277 70.3968 33.1515 70.473 33.3943C70.5492 33.6371 70.5734 33.8934 70.544 34.1464C70.5453 34.2942 70.5338 34.4418 70.5095 34.5876L67.7455 34.5917Z" fill="white"/>
<path d="M73.1758 30.6506H74.2103V33.2783H74.2356C74.3714 33.0577 74.5153 32.8545 74.651 32.6594L76.1435 30.6506H77.4323L75.4646 33.0843L77.559 36.3646H76.338L74.7169 33.745L74.2103 34.3578V36.3667H73.1758V30.6506Z" fill="white"/>
<path d="M78.808 34.3047C78.808 35.1023 79.1981 35.7028 79.8344 35.7028C80.4271 35.7028 80.8476 35.1177 80.8476 34.2874C80.8476 33.6429 80.5599 32.9056 79.8466 32.9056C79.1089 32.9056 78.8121 33.6205 78.8121 34.3047M81.9237 34.2628C81.9437 34.552 81.9028 34.8421 81.8037 35.1141C81.7045 35.3861 81.5493 35.6339 81.3483 35.8411C81.1473 36.0483 80.9051 36.2103 80.6375 36.3164C80.3699 36.4225 80.0831 36.4702 79.7959 36.4566C79.5175 36.4684 79.2398 36.4212 78.9808 36.3179C78.7217 36.2146 78.487 36.0575 78.292 35.857C78.0971 35.6564 77.9461 35.4167 77.8489 35.1535C77.7517 34.8903 77.7105 34.6095 77.7279 34.3292C77.7072 34.0396 77.7479 33.7488 77.8474 33.4763C77.9469 33.2038 78.103 32.9558 78.3051 32.7489C78.5072 32.542 78.7508 32.3809 79.0196 32.2764C79.2884 32.1718 79.5762 32.1262 79.8638 32.1427C80.1414 32.1297 80.4185 32.1759 80.6772 32.2784C80.9358 32.3809 81.17 32.5373 81.3645 32.7374C81.5589 32.9375 81.7093 33.1767 81.8056 33.4394C81.902 33.7021 81.9422 33.9834 81.9237 34.2628Z" fill="white"/>
<path d="M82.7756 33.5673C82.7756 33.0077 82.7675 32.6094 82.7422 32.2397H83.649L83.6835 33.0281H83.7179C83.7915 32.7813 83.9395 32.5638 84.1415 32.4058C84.3434 32.2479 84.5892 32.1573 84.8446 32.1467C84.9274 32.1454 85.01 32.154 85.0908 32.1723V33.1476C84.991 33.1256 84.8891 33.1143 84.7869 33.1139C84.5627 33.1077 84.3441 33.1845 84.1723 33.3298C84.0006 33.4751 83.8876 33.6787 83.8547 33.9023C83.8334 34.0082 83.8219 34.1159 83.8202 34.224V36.3646H82.7766L82.7756 33.5673Z" fill="white"/>
<path d="M88.271 33.8625C88.2877 33.7383 88.2782 33.6119 88.2431 33.4916C88.208 33.3714 88.148 33.2599 88.0672 33.1647C87.9863 33.0694 87.8864 32.9924 87.774 32.9388C87.6616 32.8852 87.5392 32.8561 87.4148 32.8535C87.1578 32.8675 86.9157 32.9796 86.7376 33.167C86.5596 33.3544 86.459 33.6031 86.4563 33.8625H88.271ZM86.4563 34.5917C86.4624 34.7489 86.5012 34.903 86.5701 35.0441C86.639 35.1852 86.7366 35.3102 86.8564 35.4108C86.9763 35.5115 87.1158 35.5858 87.2659 35.6287C87.416 35.6716 87.5734 35.6822 87.7279 35.66C88.1177 35.6705 88.506 35.6075 88.8728 35.4741L89.0248 36.189C88.5648 36.3647 88.0759 36.451 87.584 36.4433C87.3029 36.4706 87.0193 36.436 86.7528 36.3417C86.4863 36.2474 86.2434 36.0958 86.0409 35.8973C85.8384 35.6989 85.6813 35.4583 85.5803 35.1925C85.4793 34.9266 85.437 34.6418 85.4563 34.3578C85.4329 34.0759 85.4677 33.7922 85.5584 33.5244C85.6491 33.2567 85.7938 33.0108 85.9834 32.8022C86.173 32.5936 86.4033 32.4267 86.6599 32.3122C86.9166 32.1976 87.1939 32.1378 87.4746 32.1365C87.7272 32.1355 87.9771 32.1886 88.2078 32.2921C88.4385 32.3957 88.6449 32.5474 88.8131 32.7373C88.9814 32.9271 89.1077 33.1508 89.1839 33.3935C89.26 33.6363 89.2842 33.8926 89.2548 34.1454C89.2561 34.2932 89.2446 34.4408 89.2204 34.5866L86.4563 34.5917Z" fill="white"/>
<path d="M92.2681 34.3466C91.5305 34.3292 90.8273 34.4906 90.8273 35.1176C90.8206 35.1976 90.8314 35.2781 90.8589 35.3534C90.8863 35.4288 90.9299 35.4971 90.9864 35.5537C91.0429 35.6102 91.111 35.6536 91.1859 35.6808C91.2608 35.708 91.3407 35.7183 91.42 35.711C91.597 35.714 91.7705 35.6609 91.9159 35.5592C92.0614 35.4575 92.1714 35.3123 92.2306 35.1442C92.2535 35.0698 92.2648 34.9923 92.2641 34.9144L92.2681 34.3466ZM92.4039 36.3646L92.336 35.9071H92.3097C92.161 36.0851 91.9746 36.227 91.7641 36.3225C91.5536 36.418 91.3245 36.4645 91.0938 36.4586C90.9276 36.469 90.7611 36.4451 90.6044 36.3882C90.4477 36.3314 90.3042 36.2429 90.1828 36.1281C90.0613 36.0133 89.9644 35.8747 89.898 35.7208C89.8317 35.5668 89.7972 35.4009 89.7969 35.233C89.7969 34.1903 90.7209 33.6643 92.2468 33.6735V33.6051C92.2468 33.3345 92.1374 32.8902 91.4079 32.8902C91.016 32.8906 90.6312 32.9963 90.2933 33.1966L90.0907 32.5185C90.5483 32.2684 91.0627 32.1427 91.5832 32.1539C91.8152 32.1263 92.0503 32.1525 92.2708 32.2303C92.4913 32.3081 92.6912 32.4355 92.8555 32.6029C93.0198 32.7702 93.1441 32.9732 93.2189 33.1962C93.2938 33.4192 93.3172 33.6565 93.2874 33.89V35.3821C93.2825 35.7137 93.3025 36.0452 93.3472 36.3738L92.4039 36.3646Z" fill="white"/>
<path d="M94.3889 33.4652C94.3889 32.9903 94.3798 32.591 94.3555 32.2397H95.2674L95.318 32.8586H95.3434C95.481 32.6331 95.6753 32.4482 95.9066 32.3226C96.1379 32.1971 96.398 32.1354 96.6605 32.1437C97.3809 32.1437 98.1267 32.6094 98.1267 33.9146V36.3656H97.082V34.0341C97.082 33.4397 96.8612 32.9913 96.2938 32.9913C96.1123 32.9962 95.9368 33.0577 95.7916 33.1675C95.6464 33.2773 95.5386 33.4299 95.4832 33.6041C95.4507 33.7137 95.4363 33.8279 95.4406 33.9422V36.3677H94.3889V33.4652Z" fill="white"/>
<path d="M101.006 35.2279C101.43 35.4636 101.905 35.5889 102.388 35.5925C103.057 35.5925 103.431 35.279 103.431 34.8123C103.431 34.3803 103.143 34.126 102.418 33.8635C101.476 33.5244 100.874 33.024 100.874 32.2019C100.874 31.2695 101.655 30.5576 102.893 30.5576C103.367 30.544 103.837 30.6426 104.267 30.8456L104.012 31.6851C103.661 31.5028 103.271 31.4096 102.876 31.4135C102.215 31.4135 101.926 31.7699 101.926 32.0998C101.926 32.541 102.258 32.7442 103.019 33.0404C104.012 33.4141 104.495 33.9146 104.495 34.7367C104.495 35.6559 103.8 36.4484 102.324 36.4484C101.789 36.4533 101.261 36.3316 100.781 36.093L101.006 35.2279Z" fill="white"/>
<path d="M106.253 34.3047C106.253 35.1023 106.643 35.7028 107.279 35.7028C107.873 35.7028 108.293 35.1176 108.293 34.2873C108.293 33.6429 108.004 32.9055 107.292 32.9055C106.553 32.9055 106.257 33.6204 106.257 34.3047M109.37 34.2628C109.39 34.5512 109.349 34.8407 109.25 35.1121C109.152 35.3836 108.997 35.631 108.797 35.8382C108.597 36.0454 108.356 36.2076 108.089 36.3144C107.823 36.4211 107.537 36.4699 107.25 36.4575C106.972 36.4695 106.694 36.4224 106.435 36.3192C106.175 36.2159 105.941 36.0589 105.746 35.8583C105.55 35.6577 105.399 35.418 105.302 35.1548C105.205 34.8915 105.164 34.6106 105.181 34.3302C105.16 34.0406 105.201 33.7498 105.301 33.4773C105.4 33.2048 105.556 32.9568 105.758 32.7499C105.96 32.543 106.204 32.3819 106.473 32.2773C106.741 32.1728 107.029 32.1272 107.317 32.1437C107.594 32.1317 107.87 32.1787 108.128 32.2817C108.386 32.3846 108.619 32.5412 108.813 32.7411C109.007 32.9411 109.156 33.1799 109.252 33.4421C109.348 33.7043 109.388 33.984 109.37 34.2628Z" fill="white"/>
<path d="M113.255 36.2369C112.882 36.3844 112.484 36.4562 112.084 36.4483C111.803 36.4709 111.52 36.4323 111.254 36.3353C110.989 36.2382 110.747 36.0849 110.546 35.8857C110.344 35.6866 110.187 35.4461 110.085 35.1806C109.984 34.915 109.94 34.6306 109.957 34.3466C109.947 34.0449 110.001 33.7447 110.115 33.4656C110.229 33.1865 110.4 32.9346 110.617 32.7266C110.834 32.5186 111.091 32.3591 111.374 32.2584C111.656 32.1578 111.956 32.1184 112.255 32.1426C112.602 32.1392 112.946 32.2055 113.268 32.3377L113.08 33.1169C112.833 33.0053 112.563 32.9502 112.292 32.9556C111.952 32.972 111.631 33.1199 111.395 33.3685C111.16 33.6171 111.029 33.9474 111.029 34.2909C111.029 34.6344 111.16 34.9647 111.395 35.2133C111.631 35.4619 111.952 35.6098 112.292 35.6262C112.574 35.63 112.855 35.5747 113.115 35.4638L113.255 36.2369Z" fill="white"/>
<path d="M114.025 32.2356H115.077V36.3636H114.025V32.2356ZM115.14 31.0826C115.144 31.2002 115.113 31.3165 115.052 31.4166C114.99 31.5166 114.9 31.5957 114.794 31.6438C114.687 31.6919 114.569 31.7068 114.454 31.6866C114.339 31.6663 114.232 31.6118 114.148 31.5301C114.064 31.4484 114.006 31.3433 113.982 31.2281C113.957 31.113 113.968 30.9931 114.011 30.884C114.055 30.7748 114.13 30.6813 114.227 30.6155C114.324 30.5497 114.438 30.5147 114.555 30.5148C114.631 30.5099 114.708 30.5211 114.779 30.5477C114.851 30.5742 114.916 30.6155 114.971 30.6689C115.026 30.7223 115.07 30.7867 115.099 30.8579C115.128 30.9291 115.142 31.0057 115.14 31.0826Z" fill="white"/>
<path d="M118.748 33.8625C118.764 33.7383 118.755 33.6119 118.72 33.4916C118.685 33.3714 118.625 33.2599 118.544 33.1647C118.463 33.0694 118.363 32.9924 118.251 32.9388C118.138 32.8852 118.016 32.8561 117.891 32.8535C117.634 32.8675 117.392 32.9796 117.214 33.167C117.036 33.3544 116.936 33.6031 116.933 33.8625H118.748ZM116.933 34.5917C116.939 34.7489 116.978 34.903 117.047 35.0441C117.116 35.1852 117.213 35.3102 117.333 35.4109C117.453 35.5116 117.592 35.5858 117.743 35.6287C117.893 35.6716 118.05 35.6822 118.205 35.66C118.594 35.6705 118.983 35.6075 119.349 35.4741L119.501 36.189C119.041 36.3646 118.553 36.4509 118.061 36.4433C117.78 36.4706 117.496 36.436 117.229 36.3417C116.963 36.2474 116.72 36.0958 116.518 35.8973C116.315 35.6989 116.158 35.4584 116.057 35.1925C115.956 34.9267 115.914 34.6418 115.933 34.3578C115.909 34.076 115.944 33.7922 116.035 33.5245C116.125 33.2568 116.27 33.0109 116.459 32.8022C116.649 32.5936 116.879 32.4267 117.136 32.3122C117.392 32.1976 117.67 32.1378 117.95 32.1366C118.203 32.1354 118.453 32.1883 118.684 32.2918C118.914 32.3953 119.121 32.547 119.289 32.7369C119.457 32.9268 119.584 33.1506 119.66 33.3934C119.736 33.6362 119.76 33.8925 119.73 34.1454C119.732 34.2932 119.721 34.4408 119.697 34.5866L116.933 34.5917Z" fill="white"/>
<path d="M121.763 31.0571V32.2346H122.755V33.0159H121.763V34.8378C121.763 35.3383 121.898 35.6007 122.297 35.6007C122.434 35.602 122.57 35.5851 122.703 35.5507L122.72 36.3473C122.476 36.4231 122.221 36.4576 121.966 36.4494C121.801 36.4573 121.637 36.4313 121.482 36.373C121.328 36.3147 121.186 36.2254 121.067 36.1103C120.819 35.7807 120.704 35.3682 120.745 34.9563V33.0159H120.152V32.2356H120.745V31.3032L121.763 31.0571Z" fill="white"/>
<path d="M124.258 32.2366L125.004 34.4497C125.089 34.704 125.174 35.0165 125.233 35.2555H125.258C125.326 35.0175 125.402 34.7132 125.479 34.4385L126.124 32.2346H127.238L126.204 35.0492C125.949 36.0408 125.454 36.9532 124.763 37.7045C124.459 37.9873 124.078 38.1731 123.67 38.2386L123.433 37.3573C123.683 37.2906 123.917 37.1725 124.119 37.0105C124.322 36.8485 124.489 36.646 124.611 36.4157C124.648 36.3603 124.672 36.2964 124.679 36.2298C124.676 36.1578 124.655 36.0877 124.619 36.0255L123.109 32.2356L124.258 32.2366Z" fill="white"/>
<path d="M130.41 34.3047C130.41 35.1023 130.8 35.7028 131.436 35.7028C132.029 35.7028 132.449 35.1176 132.449 34.2873C132.449 33.6429 132.161 32.9055 131.448 32.9055C130.71 32.9055 130.413 33.6204 130.413 34.3047M133.525 34.2628C133.545 34.5512 133.504 34.8406 133.406 35.1121C133.307 35.3835 133.153 35.631 132.953 35.8382C132.753 36.0454 132.512 36.2076 132.245 36.3144C131.979 36.4211 131.693 36.4699 131.406 36.4575C131.128 36.4695 130.85 36.4224 130.591 36.3192C130.332 36.2159 130.097 36.0589 129.902 35.8583C129.707 35.6577 129.556 35.418 129.458 35.1548C129.361 34.8915 129.32 34.6106 129.337 34.3302C129.317 34.0405 129.357 33.7496 129.457 33.477C129.556 33.2045 129.713 32.9564 129.915 32.7495C130.117 32.5425 130.361 32.3815 130.63 32.277C130.899 32.1725 131.186 32.1271 131.474 32.1437C131.751 32.1318 132.027 32.179 132.285 32.282C132.542 32.385 132.776 32.5416 132.969 32.7416C133.163 32.9415 133.312 33.1803 133.408 33.4425C133.504 33.7046 133.544 33.9841 133.525 34.2628Z" fill="white"/>
<path d="M134.497 36.3646V33.0179H133.938V32.2387H134.497V32.0579C134.482 31.8016 134.519 31.5451 134.605 31.3035C134.691 31.0619 134.825 30.8402 134.997 30.6516C135.294 30.3882 135.678 30.2462 136.073 30.2533C136.301 30.2494 136.527 30.2839 136.743 30.3554L136.667 31.1612C136.526 31.1086 136.376 31.0827 136.225 31.0846C135.709 31.0846 135.53 31.5176 135.53 32.0262V32.2387H136.442V33.0179H135.543V36.3667L134.497 36.3646Z" fill="white"/>
<path d="M138.875 30.6506H139.919V35.4914H142.272V36.3646H138.88L138.875 30.6506Z" fill="white"/>
<path d="M143.013 32.2356H144.065V36.3636H143.013V32.2356ZM144.128 31.0826C144.132 31.2002 144.102 31.3165 144.04 31.4166C143.979 31.5166 143.889 31.5957 143.782 31.6438C143.675 31.6919 143.557 31.7068 143.442 31.6866C143.327 31.6663 143.22 31.6118 143.136 31.5301C143.052 31.4484 142.994 31.3433 142.97 31.2281C142.946 31.113 142.956 30.9931 143 30.884C143.043 30.7748 143.119 30.6813 143.215 30.6155C143.312 30.5497 143.426 30.5147 143.543 30.5148C143.619 30.5099 143.696 30.5211 143.768 30.5477C143.839 30.5742 143.905 30.6155 143.96 30.6689C144.015 30.7223 144.058 30.7867 144.087 30.8579C144.116 30.9291 144.13 31.0057 144.128 31.0826Z" fill="white"/>
<path d="M146.226 34.6356C146.225 34.7327 146.236 34.8295 146.26 34.9236C146.309 35.1306 146.425 35.315 146.591 35.4473C146.756 35.5795 146.961 35.6519 147.172 35.6528C147.832 35.6528 148.224 35.1023 148.224 34.2873C148.224 33.5581 147.867 32.9658 147.198 32.9658C146.979 32.9693 146.768 33.0474 146.598 33.1874C146.429 33.3274 146.311 33.521 146.265 33.7369C146.238 33.8218 146.224 33.9102 146.222 33.9993L146.226 34.6356ZM145.183 33.6143C145.183 33.072 145.166 32.6308 145.148 32.2407H146.06L146.112 32.8769H146.128C146.282 32.6419 146.493 32.451 146.742 32.3232C146.99 32.1954 147.268 32.1349 147.547 32.1477C147.8 32.1634 148.048 32.2312 148.275 32.347C148.502 32.4627 148.703 32.6239 148.865 32.8207C149.028 33.0176 149.149 33.2458 149.221 33.4915C149.293 33.7372 149.315 33.9952 149.284 34.2495C149.318 34.5218 149.295 34.7981 149.216 35.0608C149.138 35.3235 149.006 35.5667 148.829 35.7751C148.652 35.9834 148.433 36.1521 148.188 36.2705C147.942 36.3889 147.675 36.4544 147.403 36.4626C147.179 36.4744 146.956 36.4303 146.753 36.3343C146.55 36.2383 146.374 36.0933 146.24 35.9122H146.223V38.0487H145.18L145.183 33.6143Z" fill="white"/>
<path d="M150.142 32.2356H151.194V36.3636H150.142V32.2356ZM151.257 31.0826C151.261 31.2002 151.231 31.3165 151.169 31.4165C151.107 31.5166 151.018 31.5957 150.911 31.6438C150.804 31.6919 150.686 31.7068 150.571 31.6866C150.456 31.6663 150.349 31.6118 150.265 31.5301C150.181 31.4484 150.123 31.3433 150.099 31.2281C150.074 31.113 150.085 30.9931 150.129 30.884C150.172 30.7748 150.247 30.6813 150.344 30.6155C150.441 30.5497 150.555 30.5146 150.672 30.5148C150.748 30.5101 150.825 30.5214 150.896 30.548C150.968 30.5746 151.033 30.6159 151.088 30.6692C151.143 30.7226 151.187 30.7869 151.216 30.8581C151.245 30.9292 151.259 31.0057 151.257 31.0826Z" fill="white"/>
<path d="M155.076 33.9564C155.075 33.8653 155.067 33.7743 155.049 33.6848C155.008 33.4759 154.895 33.2882 154.731 33.1537C154.567 33.0192 154.362 32.9463 154.151 32.9474C153.481 32.9474 153.107 33.5408 153.107 34.3129C153.107 35.0666 153.481 35.6181 154.142 35.6181C154.353 35.618 154.557 35.5447 154.721 35.4104C154.885 35.2761 154.998 35.089 155.04 34.8807C155.065 34.7806 155.077 34.6775 155.075 34.5743L155.076 33.9564ZM156.118 30.3452V35.2034C156.118 35.6273 156.136 36.0858 156.153 36.3646H155.222L155.178 35.712H155.161C155.025 35.9482 154.828 36.1425 154.59 36.2739C154.353 36.4053 154.084 36.4688 153.813 36.4576C153.557 36.4431 153.307 36.3761 153.078 36.2606C152.848 36.145 152.645 35.9835 152.479 35.7858C152.314 35.5881 152.191 35.3584 152.117 35.1109C152.043 34.8635 152.02 34.6033 152.049 34.3466C152.017 34.0776 152.04 33.8048 152.117 33.5453C152.194 33.2857 152.323 33.045 152.497 32.8381C152.671 32.6313 152.885 32.4627 153.126 32.3431C153.367 32.2234 153.63 32.1552 153.898 32.1427C154.122 32.1261 154.346 32.1672 154.549 32.2621C154.752 32.357 154.928 32.5025 155.06 32.685H155.077V30.3452H156.118Z" fill="white"/>
<path d="M161.179 34.3466C160.442 34.3292 159.738 34.4906 159.738 35.1176C159.732 35.1976 159.743 35.2781 159.77 35.3534C159.798 35.4288 159.841 35.4971 159.898 35.5537C159.954 35.6102 160.022 35.6536 160.097 35.6808C160.172 35.708 160.252 35.7183 160.331 35.711C160.508 35.714 160.682 35.6609 160.827 35.5592C160.973 35.4575 161.083 35.3123 161.142 35.1442C161.164 35.0697 161.176 34.9922 161.175 34.9144L161.179 34.3466ZM161.315 36.3646L161.247 35.9071H161.221C161.072 36.0851 160.886 36.2271 160.675 36.3226C160.465 36.4181 160.236 36.4646 160.005 36.4586C159.839 36.469 159.672 36.4451 159.515 36.3883C159.359 36.3314 159.215 36.2429 159.094 36.1282C158.972 36.0134 158.875 35.8748 158.809 35.7208C158.742 35.5669 158.708 35.4009 158.707 35.233C158.707 34.1903 159.631 33.6643 161.159 33.6735V33.6051C161.159 33.3345 161.049 32.8902 160.318 32.8902C159.926 32.8909 159.541 32.9967 159.204 33.1966L159.001 32.5185C159.458 32.2683 159.973 32.1426 160.493 32.1539C160.725 32.1263 160.96 32.1525 161.181 32.2303C161.401 32.3081 161.601 32.4355 161.766 32.6029C161.93 32.7702 162.054 32.9732 162.129 33.1962C162.204 33.4192 162.227 33.6565 162.198 33.89V35.3821C162.193 35.7137 162.212 36.0452 162.256 36.3738L161.315 36.3646Z" fill="white"/>
<path d="M163.296 33.4652C163.296 32.9903 163.287 32.591 163.262 32.2397H164.174L164.225 32.8585H164.25C164.387 32.6332 164.582 32.4484 164.813 32.3229C165.044 32.1974 165.304 32.1355 165.567 32.1437C166.288 32.1437 167.033 32.6094 167.033 33.9145V36.3656H165.99V34.034C165.99 33.4397 165.769 32.9913 165.202 32.9913C165.021 32.9961 164.845 33.0577 164.7 33.1675C164.555 33.2773 164.447 33.4298 164.391 33.6041C164.359 33.7136 164.345 33.8279 164.349 33.9421V36.3677H163.297L163.296 33.4652Z" fill="white"/>
<path d="M170.909 33.9564C170.909 33.8653 170.9 33.7743 170.883 33.6848C170.841 33.4759 170.728 33.2882 170.564 33.1537C170.4 33.0192 170.195 32.9463 169.984 32.9474C169.314 32.9474 168.94 33.5408 168.94 34.3129C168.94 35.0666 169.314 35.6181 169.975 35.6181C170.186 35.618 170.39 35.5447 170.554 35.4104C170.718 35.2761 170.831 35.089 170.873 34.8807C170.898 34.7806 170.91 34.6775 170.908 34.5743L170.909 33.9564ZM171.951 30.3452V35.2034C171.951 35.6273 171.969 36.0858 171.986 36.3646H171.054L171.01 35.712H170.993C170.857 35.9482 170.66 36.1425 170.422 36.2739C170.185 36.4053 169.916 36.4688 169.645 36.4576C169.389 36.4431 169.139 36.3761 168.91 36.2606C168.68 36.145 168.477 35.9835 168.311 35.7858C168.146 35.5881 168.023 35.3584 167.949 35.1109C167.875 34.8635 167.852 34.6033 167.881 34.3466C167.849 34.0776 167.872 33.8048 167.949 33.5453C168.026 33.2857 168.155 33.045 168.329 32.8381C168.503 32.6313 168.717 32.4627 168.958 32.3431C169.199 32.2234 169.462 32.1552 169.731 32.1427C169.954 32.1261 170.178 32.1672 170.381 32.2621C170.584 32.357 170.76 32.5025 170.892 32.685H170.909V30.3452H171.951Z" fill="white"/>
<path d="M177.646 33.9564L177.197 32.5491C177.087 32.2019 176.995 31.8107 176.91 31.4809H176.892C176.807 31.8107 176.723 32.21 176.622 32.5491L176.18 33.9564H177.646ZM176.01 34.7449L175.518 36.3636H174.441L176.273 30.6495H177.605L179.462 36.3636H178.347L177.831 34.7449H176.01Z" fill="white"/>
<path d="M181.28 31.0571V32.2346H182.272V33.0159H181.28V34.8378C181.28 35.3383 181.416 35.6007 181.815 35.6007C181.952 35.602 182.088 35.5852 182.22 35.5507L182.237 36.3473C181.993 36.4232 181.738 36.4577 181.483 36.4494C181.318 36.4577 181.153 36.4319 180.999 36.3736C180.845 36.3153 180.704 36.2257 180.585 36.1103C180.336 35.7807 180.221 35.3682 180.263 34.9563V33.0159H179.668V32.2356H180.261V31.3032L181.28 31.0571Z" fill="white"/>
<path d="M183.063 30.3452H184.115V32.8034H184.132C184.261 32.6031 184.439 32.4396 184.649 32.3285C184.866 32.205 185.11 32.1409 185.359 32.1427C186.063 32.1427 186.8 32.6084 186.8 33.9319V36.3636H185.757V34.0504C185.757 33.4489 185.536 32.9985 184.96 32.9985C184.781 32.9977 184.606 33.0539 184.46 33.1589C184.315 33.264 184.206 33.4126 184.149 33.5837C184.116 33.6847 184.101 33.791 184.106 33.8972V36.3636H183.055L183.063 30.3452Z" fill="white"/>
<path d="M190.462 33.8625C190.479 33.7383 190.47 33.6118 190.435 33.4915C190.4 33.3711 190.34 33.2596 190.259 33.1643C190.178 33.069 190.078 32.992 189.966 32.9385C189.853 32.8849 189.731 32.8559 189.606 32.8535C189.349 32.8677 189.107 32.9799 188.93 33.1673C188.752 33.3547 188.651 33.6032 188.649 33.8625H190.462ZM188.649 34.5917C188.673 35.3372 189.257 35.66 189.92 35.66C190.31 35.6705 190.698 35.6075 191.064 35.4741L191.217 36.189C190.757 36.3646 190.268 36.4509 189.775 36.4433C189.494 36.4706 189.211 36.436 188.944 36.3417C188.678 36.2474 188.435 36.0958 188.232 35.8973C188.03 35.6989 187.873 35.4584 187.772 35.1925C187.671 34.9267 187.628 34.6418 187.648 34.3578C187.624 34.0759 187.659 33.7922 187.75 33.5244C187.841 33.2567 187.985 33.0108 188.175 32.8022C188.364 32.5936 188.595 32.4267 188.851 32.3122C189.108 32.1976 189.385 32.1378 189.666 32.1366C189.919 32.1354 190.169 32.1883 190.399 32.2918C190.63 32.3953 190.837 32.547 191.005 32.7369C191.173 32.9268 191.3 33.1506 191.376 33.3934C191.452 33.6362 191.476 33.8925 191.446 34.1454C191.447 34.2932 191.436 34.4407 191.413 34.5866L188.649 34.5917Z" fill="white"/>
<path d="M192.284 33.5674C192.284 33.0077 192.275 32.6094 192.25 32.2397H193.162L193.196 33.0281H193.231C193.304 32.7813 193.452 32.5637 193.654 32.4057C193.856 32.2477 194.102 32.1572 194.357 32.1468C194.44 32.1456 194.523 32.1541 194.604 32.1723V33.1476C194.504 33.1258 194.402 33.1145 194.3 33.1139C194.075 33.1075 193.857 33.1842 193.685 33.3295C193.513 33.4748 193.399 33.6786 193.367 33.9024C193.346 34.0083 193.334 34.116 193.333 34.2241V36.3647H192.284V33.5674Z" fill="white"/>
<path d="M196.039 34.3047C196.039 35.1023 196.429 35.7028 197.065 35.7028C197.657 35.7028 198.078 35.1176 198.078 34.2873C198.078 33.6429 197.79 32.9055 197.077 32.9055C196.339 32.9055 196.043 33.6204 196.043 34.3047M199.154 34.2628C199.174 34.5512 199.133 34.8406 199.035 35.1121C198.936 35.3835 198.782 35.631 198.582 35.8382C198.382 36.0454 198.141 36.2076 197.874 36.3144C197.608 36.4211 197.322 36.4699 197.035 36.4575C196.757 36.4695 196.479 36.4224 196.22 36.3192C195.961 36.2159 195.726 36.0589 195.531 35.8583C195.336 35.6577 195.184 35.418 195.087 35.1548C194.99 34.8915 194.949 34.6106 194.966 34.3302C194.945 34.0405 194.986 33.7496 195.086 33.477C195.185 33.2045 195.341 32.9564 195.544 32.7495C195.746 32.5425 195.99 32.3815 196.259 32.277C196.527 32.1725 196.815 32.1271 197.103 32.1437C197.38 32.1318 197.656 32.179 197.914 32.282C198.171 32.385 198.405 32.5416 198.598 32.7416C198.792 32.9415 198.941 33.1803 199.037 33.4425C199.133 33.7046 199.172 33.9841 199.154 34.2628Z" fill="white"/>
<path d="M199.945 35.4056C200.27 35.5885 200.633 35.6904 201.005 35.7028C201.462 35.7028 201.666 35.517 201.666 35.2453C201.666 34.9736 201.497 34.8204 200.987 34.6438C200.177 34.3639 199.844 33.9217 199.852 33.4397C199.852 32.7105 200.452 32.1427 201.412 32.1427C201.79 32.1378 202.165 32.2221 202.505 32.3888L202.303 33.1272C202.035 32.9765 201.735 32.8948 201.429 32.8892C201.055 32.8892 200.852 33.0669 200.852 33.3222C200.852 33.5775 201.047 33.7124 201.573 33.8993C202.32 34.1699 202.666 34.5518 202.675 35.1615C202.675 35.9071 202.091 36.4504 200.997 36.4504C200.561 36.4583 200.131 36.3595 199.742 36.1624L199.945 35.4056Z" fill="white"/>
<path d="M206.567 36.2369C206.195 36.3844 205.797 36.4562 205.397 36.4483C205.115 36.4709 204.832 36.4323 204.567 36.3353C204.302 36.2382 204.06 36.0849 203.858 35.8857C203.657 35.6866 203.5 35.4461 203.398 35.1806C203.296 34.915 203.252 34.6306 203.269 34.3466C203.26 34.0449 203.314 33.7447 203.428 33.4656C203.541 33.1865 203.712 32.9346 203.929 32.7266C204.146 32.5186 204.404 32.3591 204.686 32.2584C204.969 32.1578 205.269 32.1184 205.567 32.1426C205.914 32.1392 206.259 32.2055 206.58 32.3377L206.394 33.1169C206.146 33.0054 205.877 32.9503 205.606 32.9556C205.265 32.972 204.944 33.1199 204.709 33.3685C204.474 33.6171 204.343 33.9474 204.343 34.2909C204.343 34.6344 204.474 34.9647 204.709 35.2133C204.944 35.4619 205.265 35.6098 205.606 35.6262C205.888 35.63 206.167 35.5747 206.427 35.4638L206.567 36.2369Z" fill="white"/>
<path d="M208.388 30.3452H207.336V36.3636H208.388V30.3452Z" fill="white"/>
<path d="M212.068 33.8625C212.085 33.7383 212.075 33.6118 212.04 33.4915C212.005 33.3711 211.945 33.2597 211.864 33.1643C211.784 33.069 211.684 32.9921 211.571 32.9385C211.459 32.8849 211.336 32.8559 211.212 32.8535C210.955 32.8677 210.713 32.9799 210.535 33.1673C210.357 33.3547 210.257 33.6032 210.254 33.8625H212.068ZM210.254 34.5917C210.279 35.3372 210.862 35.66 211.526 35.66C211.915 35.6705 212.303 35.6075 212.67 35.4741L212.823 36.189C212.362 36.3646 211.873 36.4509 211.381 36.4433C211.1 36.4706 210.816 36.436 210.55 36.3417C210.283 36.2474 210.04 36.0958 209.838 35.8973C209.635 35.6989 209.478 35.4584 209.377 35.1925C209.276 34.9267 209.234 34.6418 209.253 34.3578C209.23 34.076 209.265 33.7923 209.355 33.5247C209.446 33.257 209.59 33.0112 209.78 32.8026C209.969 32.594 210.2 32.4271 210.456 32.3125C210.713 32.1979 210.99 32.138 211.27 32.1366C211.523 32.1352 211.773 32.1881 212.004 32.2915C212.235 32.3949 212.442 32.5466 212.61 32.7365C212.778 32.9265 212.905 33.1503 212.981 33.3931C213.057 33.636 213.081 33.8924 213.052 34.1454C213.053 34.2932 213.042 34.4407 213.018 34.5866L210.254 34.5917Z" fill="white"/>
<path d="M213.894 33.5673C213.894 33.0077 213.886 32.6094 213.859 32.2397H214.771L214.806 33.0281H214.84C214.914 32.7812 215.062 32.5636 215.264 32.4056C215.466 32.2477 215.711 32.1571 215.967 32.1467C216.05 32.1455 216.132 32.1541 216.213 32.1723V33.1476C216.113 33.1257 216.011 33.1144 215.909 33.1139C215.685 33.1074 215.466 33.1841 215.294 33.3294C215.122 33.4747 215.009 33.6785 214.976 33.9023C214.955 34.0083 214.944 34.116 214.943 34.224V36.3646H213.899L213.894 33.5673Z" fill="white"/>
<path d="M217.648 34.3047C217.648 35.1023 218.038 35.7028 218.674 35.7028C219.268 35.7028 219.687 35.1176 219.687 34.2873C219.687 33.6429 219.399 32.9055 218.686 32.9055C217.948 32.9055 217.652 33.6204 217.652 34.3047M220.764 34.2628C220.784 34.5514 220.744 34.8409 220.645 35.1126C220.546 35.3842 220.392 35.6317 220.192 35.839C219.991 36.0462 219.75 36.2084 219.483 36.315C219.216 36.4216 218.93 36.4702 218.644 36.4575C218.365 36.4694 218.087 36.4221 217.828 36.3188C217.569 36.2155 217.335 36.0585 217.14 35.8579C216.945 35.6573 216.794 35.4177 216.697 35.1545C216.599 34.8913 216.558 34.6105 216.576 34.3302C216.555 34.0404 216.596 33.7494 216.695 33.4768C216.795 33.2041 216.951 32.956 217.153 32.7491C217.356 32.5421 217.6 32.3811 217.869 32.2767C218.138 32.1723 218.426 32.1269 218.713 32.1437C218.99 32.132 219.266 32.1792 219.524 32.2823C219.782 32.3854 220.015 32.542 220.208 32.7419C220.402 32.9418 220.551 33.1806 220.647 33.4426C220.743 33.7047 220.783 33.9841 220.764 34.2628Z" fill="white"/>
<path d="M221.568 35.4056C221.893 35.5888 222.256 35.6907 222.628 35.7028C223.085 35.7028 223.288 35.5169 223.288 35.2453C223.288 34.9736 223.119 34.8204 222.611 34.6437C221.8 34.3639 221.467 33.9217 221.475 33.4397C221.475 32.7105 222.076 32.1426 223.034 32.1426C223.413 32.138 223.787 32.2223 224.128 32.3888L223.926 33.1271C223.658 32.9766 223.358 32.8949 223.052 32.8892C222.678 32.8892 222.475 33.0669 222.475 33.3222C222.475 33.5775 222.67 33.7123 223.195 33.8992C223.941 34.1699 224.288 34.5518 224.298 35.1615C224.298 35.9071 223.712 36.4504 222.618 36.4504C222.183 36.4583 221.752 36.3595 221.363 36.1624L221.568 35.4056Z" fill="white"/>
<path d="M225.15 32.2356H226.202V36.3636H225.15V32.2356ZM226.265 31.0826C226.269 31.2002 226.238 31.3165 226.177 31.4166C226.115 31.5166 226.025 31.5957 225.919 31.6438C225.812 31.6919 225.694 31.7068 225.579 31.6866C225.464 31.6663 225.357 31.6118 225.273 31.5301C225.189 31.4484 225.131 31.3433 225.107 31.2281C225.082 31.113 225.093 30.9931 225.136 30.884C225.18 30.7748 225.255 30.6813 225.352 30.6155C225.449 30.5497 225.563 30.5147 225.68 30.5148C225.756 30.5099 225.833 30.5211 225.904 30.5477C225.976 30.5742 226.041 30.6155 226.096 30.6689C226.151 30.7223 226.195 30.7867 226.224 30.8579C226.253 30.9291 226.267 31.0057 226.265 31.0826Z" fill="white"/>
<path d="M227.27 35.4056C227.595 35.5885 227.958 35.6904 228.33 35.7028C228.789 35.7028 228.993 35.517 228.993 35.2453C228.993 34.9736 228.821 34.8205 228.314 34.6438C227.503 34.3639 227.169 33.9217 227.177 33.4397C227.177 32.7105 227.779 32.1427 228.736 32.1427C229.115 32.1377 229.49 32.222 229.83 32.3888L229.628 33.1272C229.361 32.9765 229.061 32.8948 228.754 32.8892C228.382 32.8892 228.178 33.0669 228.178 33.3222C228.178 33.5776 228.373 33.7124 228.898 33.8993C229.644 34.1699 229.993 34.5519 230 35.1616C230 35.9071 229.415 36.4504 228.321 36.4504C227.886 36.4582 227.455 36.3594 227.066 36.1624L227.27 35.4056Z" fill="white"/>
</g>
<defs>
<linearGradient id="paint0_linear_1637_9516" x1="37.5366" y1="32.3029" x2="37.5366" y2="41.4903" gradientUnits="userSpaceOnUse">
<stop stop-color="white"/>
<stop offset="1" stop-color="white" stop-opacity="0.2"/>
</linearGradient>
<linearGradient id="paint1_linear_1637_9516" x1="19.9536" y1="13.9821" x2="19.9536" y2="35.6721" gradientUnits="userSpaceOnUse">
<stop stop-color="white"/>
<stop offset="1" stop-color="white" stop-opacity="0.2"/>
</linearGradient>
<linearGradient id="paint2_linear_1637_9516" x1="26.0202" y1="13.8342" x2="26.0202" y2="27.4508" gradientUnits="userSpaceOnUse">
<stop stop-color="white"/>
<stop offset="1" stop-color="white" stop-opacity="0.2"/>
</linearGradient>
<linearGradient id="paint3_linear_1637_9516" x1="20.0845" y1="14.9464" x2="20.0845" y2="18.4503" gradientUnits="userSpaceOnUse">
<stop stop-color="white"/>
<stop offset="1" stop-color="white" stop-opacity="0.2"/>
</linearGradient>
<linearGradient id="paint4_linear_1637_9516" x1="33.1134" y1="17.2153" x2="33.1134" y2="26.1691" gradientUnits="userSpaceOnUse">
<stop stop-color="white"/>
<stop offset="1" stop-color="white" stop-opacity="0.2"/>
</linearGradient>
<linearGradient id="paint5_linear_1637_9516" x1="27.2879" y1="29.2677" x2="27.2879" y2="33.5391" gradientUnits="userSpaceOnUse">
<stop stop-color="white"/>
<stop offset="1" stop-color="white" stop-opacity="0.2"/>
</linearGradient>
<linearGradient id="paint6_linear_1637_9516" x1="31.4109" y1="19.5237" x2="31.4109" y2="35.5424" gradientUnits="userSpaceOnUse">
<stop stop-color="white"/>
<stop offset="1" stop-color="white" stop-opacity="0.2"/>
</linearGradient>
<clipPath id="clip0_1637_9516">
<rect width="230" height="48" fill="white"/>
</clipPath>
</defs>
</svg>
