<svg width="91" height="44" viewBox="0 0 91 44" fill="none" xmlns="http://www.w3.org/2000/svg">
<g clip-path="url(#clip0_1637_9170)">
<mask id="mask0_1637_9170" style="mask-type:luminance" maskUnits="userSpaceOnUse" x="0" y="0" width="91" height="44">
<path d="M91 0H0V44H91V0Z" fill="white"/>
</mask>
<g mask="url(#mask0_1637_9170)">
<path d="M7.78835 1.08142L18.2976 21.063L14.4059 28.5163L0 1.08142H7.78835Z" fill="#58616A"/>
<path d="M20.1243 1.11902L30.5198 21.063L26.6328 28.5163L12.3359 1.11902H20.1243Z" fill="white"/>
<path d="M28.7262 0.699989C25.3891 2.16148 25.5928 4.34199 22.0139 7.27437C20.9426 8.15316 18.7241 9.92009 15.496 10.6814C11.8744 11.532 9.75066 10.4935 9.35246 11.3017C8.81211 12.4013 12.0213 15.8648 16.188 17.1853C23.3507 19.4598 30.1483 14.3892 30.8736 13.83C30.8736 13.83 36.159 9.76976 36.7658 4.2292C36.8274 3.67937 36.7658 3.27053 36.6947 2.99797C36.4434 1.92651 35.7419 1.27331 35.5333 1.08534C34.5757 0.215956 33.4665 0.103172 32.5564 0.027982C30.8309 -0.112998 29.4373 0.389832 28.7215 0.704688L28.7262 0.699989Z" fill="#8A949E"/>
<path d="M43.5712 2.44745H52.4024C57.5362 2.44745 60.0343 5.19187 60.0343 8.72578C60.0343 11.7004 58.1999 13.2184 55.9671 13.7823V14.0126C58.3658 14.1441 60.9682 16.2259 60.9682 19.929C60.9682 23.6321 58.4368 26.3718 52.8006 26.3718H43.5664V2.44745H43.5712ZM56.4364 9.02184C56.4364 7.03871 55.0712 5.55372 52.1701 5.55372H47.2355V12.7907H52.1038C54.5356 12.7907 56.4364 11.3057 56.4364 9.02184ZM57.3371 19.7599C57.3371 17.4807 55.5026 15.6291 52.6062 15.6291H47.2402V23.2609H52.4735C55.9386 23.2609 57.3418 21.743 57.3418 19.7599H57.3371Z" fill="white"/>
<path d="M68.5705 26.3671H64.9062V2.44745H68.5705V26.3718V26.3671Z" fill="white"/>
<path d="M72.8358 23.9564L85.502 5.58662H72.7031V2.44745H90.0005V4.85822L77.3344 23.228H90.1001V26.3671H72.8358V23.9564Z" fill="white"/>
<path d="M4.89629 36.7905H7.04366V34.8638H8.16238V43.9993H7.04366V40.5453H4.97688C4.5787 41.4522 3.85343 41.9786 2.96224 41.9786C1.57807 41.9786 0.601562 40.738 0.601562 38.7454C0.601562 36.7529 1.57807 35.5263 2.96224 35.5263C3.79654 35.5263 4.48389 35.987 4.89629 36.7905ZM1.68709 38.7502C1.67762 40.1552 2.19431 40.9729 2.96224 40.9729C3.73018 40.9729 4.23739 40.1552 4.24687 38.7502C4.23739 37.3591 3.72544 36.5368 2.96224 36.5368C2.19905 36.5368 1.67762 37.3544 1.68709 38.7502ZM5.31344 38.7502C5.31344 39.0697 5.28975 39.361 5.24234 39.6383H7.04366V37.7116H5.20916C5.27553 38.0311 5.30871 38.3789 5.30871 38.7502H5.31344Z" fill="white"/>
<path d="M14.896 38.9985L14.2845 39.8773C13.2796 39.5295 12.578 38.867 12.1846 37.9976C11.7769 38.9938 11.009 39.7739 9.89504 40.1593L9.29297 39.2523C10.8194 38.7589 11.5826 37.5371 11.5826 36.2212V35.3518H12.725V36.1696C12.7155 37.4102 13.4502 38.5428 14.896 38.9985ZM17.0955 42.2317C17.0955 43.3408 15.9057 43.9799 13.9479 43.9799C11.9902 43.9799 10.8099 43.3454 10.8194 42.2317C10.8099 41.1227 11.9997 40.4742 13.9479 40.4742C15.8963 40.4742 17.0955 41.1227 17.0955 42.2317ZM11.9428 42.2317C11.9428 42.7863 12.6681 43.1011 13.9479 43.1011C15.2278 43.1011 15.9626 42.7863 15.9626 42.2317C15.9626 41.6772 15.2278 41.3435 13.9479 41.3435C12.6681 41.3435 11.9428 41.6584 11.9428 42.2317ZM17.0671 40.2298H15.9389V37.5464H14.1044V36.6254H15.9389V34.8584H17.0671V40.2298Z" fill="white"/>
<path d="M18.9129 42.3733L18.3203 41.4758C20.7284 40.3385 21.8472 38.7971 22.0463 36.72H18.7849V35.8319H23.1934C23.1934 38.548 22.1363 40.8601 18.9081 42.3733H18.9129ZM25.9523 43.9899H24.8098V34.8638H25.9523V43.9899Z" fill="white"/>
<path d="M32.0902 36.9402H33.7493V34.8584H34.8775V39.7551H33.7493V37.8472H32.0997C31.8722 38.8717 30.9241 39.5625 29.7248 39.5625C28.3074 39.5625 27.293 38.6649 27.293 37.4008C27.293 36.1367 28.3122 35.2484 29.7248 35.2626C30.9146 35.2532 31.8532 35.9346 32.0855 36.9402H32.0902ZM28.3738 37.4054C28.3738 38.1339 28.9332 38.6179 29.7296 38.6179C30.5259 38.6179 31.0521 38.1339 31.0616 37.4054C31.0521 36.6677 30.5022 36.2024 29.7296 36.2024C28.9569 36.2024 28.3738 36.6677 28.3738 37.4054ZM29.9287 41.1509H33.7493V40.1828H34.8775V43.8765H28.8099V40.1828H29.9287V41.1509ZM33.7493 42.9695V42.0202H29.9287V42.9695H33.7493Z" fill="white"/>
<path d="M43.1982 39.2817H46.8435V40.1886H38.4531V39.2817H42.0795V38.1209H43.1982V39.2817ZM46.0898 36.166H43.4399C43.6249 36.9085 44.7294 37.5758 46.4453 37.7403L46.0377 38.619C44.369 38.4546 43.1366 37.8061 42.6342 36.8803C42.1364 37.8061 40.9133 38.4499 39.2448 38.619L38.8466 37.7403C40.5483 37.5758 41.6528 36.9132 41.8425 36.166H39.2163V35.2684H46.0898V36.166ZM45.8243 42.3739C45.8148 43.403 44.6345 43.9811 42.6388 43.9811C40.6432 43.9811 39.4297 43.4077 39.4297 42.3739C39.4297 41.34 40.6337 40.7808 42.6388 40.7808C44.644 40.7808 45.8148 41.3447 45.8243 42.3739ZM40.5815 42.3739C40.572 42.8767 41.2831 43.1304 42.6388 43.1304C43.9946 43.1304 44.6867 42.8767 44.6962 42.3739C44.6867 41.8898 43.9614 41.6361 42.6388 41.6361C41.3163 41.6361 40.572 41.8898 40.5815 42.3739Z" fill="white"/>
<path d="M52.832 36.6073H47.3711V35.7097H49.5422V34.7886H50.6703V35.7097H52.8272V36.6073H52.832ZM52.3532 38.5246C52.3437 39.4927 51.4383 40.1318 50.1016 40.1318C48.7648 40.1318 47.8404 39.4974 47.8404 38.5246C47.8404 37.5518 48.7553 36.9174 50.1016 36.9174C51.4478 36.9174 52.3437 37.5518 52.3532 38.5246ZM49.7934 41.3442H53.4909V40.5547H54.6191V43.8771H48.67V40.5547H49.7887V41.3442H49.7934ZM48.9402 38.5246C48.9402 39.018 49.3999 39.3 50.1016 39.3C50.8031 39.3 51.2724 39.018 51.2724 38.5246C51.2724 38.0312 50.8031 37.7492 50.1016 37.7492C49.3999 37.7492 48.9402 38.0406 48.9402 38.5246ZM53.4909 42.989V42.2135H49.7934V42.989H53.4909ZM54.6238 37.1101H55.9085V38.0406H54.6238V40.1928H53.4956V34.8638H54.6238V37.1148V37.1101Z" fill="white"/>
<path d="M61.8177 39.1302L61.2489 40.0183C60.2249 39.6753 59.4949 38.9797 59.1015 38.1198C58.6938 39.0926 57.9259 39.8727 56.8309 40.258L56.2383 39.3698C57.7174 38.867 58.4995 37.631 58.4995 36.4327V36.3622H56.5844V35.4552H61.5522V36.3622H59.6466V36.4233C59.6466 37.5324 60.3908 38.6555 61.8177 39.1302ZM64.0078 42.2505C64.0078 43.3501 62.8179 43.9893 60.8602 43.9893C58.9024 43.9893 57.722 43.3549 57.7315 42.2505C57.722 41.1509 58.9118 40.5118 60.8602 40.5118C62.8084 40.5118 64.0078 41.1462 64.0078 42.2505ZM58.8549 42.2505C58.8549 42.8144 59.5803 43.1199 60.8602 43.1199C62.14 43.1199 62.8748 42.8191 62.8748 42.2505C62.8748 41.6819 62.14 41.3718 60.8602 41.3718C59.5803 41.3718 58.8549 41.6725 58.8549 42.2505ZM63.9793 40.2815H62.851V38.0493H61.2821V37.1282H62.851V34.8584H63.9793V40.2815Z" fill="white"/>
<path d="M73.5899 42.8856H65.1758V41.9646H68.8022V40.1882H66.1049V35.4654H67.2331V36.9597H71.4995V35.4654H72.6276V40.1882H69.9209V41.9646H73.5852V42.8856H73.5899ZM71.5041 39.2812V37.8573H67.2379V39.2812H71.5041Z" fill="white"/>
<path d="M82.5 42.927H74.0859V41.9872H77.7028V40.192H74.8112V39.3038H76.1053V36.5782H74.7828V35.6713H81.77V36.5782H80.4238V39.3038H81.7368V40.192H78.8263V41.9872H82.5047V42.927H82.5ZM79.3003 39.3038V36.5782H77.2335V39.3038H79.3003Z" fill="white"/>
<path d="M87.6824 36.283H84.5774V36.9691H87.4074V37.815H84.5774V38.5904C86.0327 38.5856 86.9618 38.5528 88.0615 38.3883L88.1516 39.2764C86.9192 39.4691 85.8905 39.4785 84.1508 39.4785H83.4492V35.3807H87.6871V36.2783L87.6824 36.283ZM90.7067 42.3827H85.7767V43.0406H91.0006V43.91H84.6438V41.5697H89.5737V40.9635H84.6343V40.0847H90.7019V42.3874L90.7067 42.3827ZM90.7067 39.7276H89.5785V37.7492H87.9905V36.861H89.5785V34.8638H90.7067V39.7323V39.7276Z" fill="white"/>
</g>
</g>
<defs>
<clipPath id="clip0_1637_9170">
<rect width="91" height="44" fill="white"/>
</clipPath>
</defs>
</svg>
