<svg width="278" height="42" viewBox="0 0 278 42" fill="none" xmlns="http://www.w3.org/2000/svg">
<g clip-path="url(#clip0_1637_8571)">
<path d="M55.7927 17.7197C54.6574 17.7009 53.5531 17.3466 52.6186 16.7013C51.6842 16.056 50.9614 15.1486 50.5413 14.0934C50.1212 13.0381 50.0224 11.8821 50.2575 10.7709C50.4927 9.65962 51.0511 8.64278 51.8626 7.84829C52.674 7.0538 53.7023 6.51718 54.8179 6.30595C55.9336 6.09473 57.0868 6.21833 58.1323 6.66123C59.1779 7.10412 60.0692 7.84651 60.694 8.79496C61.3187 9.74341 61.6491 10.8555 61.6435 11.9914C61.6461 12.7549 61.4955 13.5112 61.2008 14.2155C60.9061 14.9198 60.4732 15.5579 59.9277 16.0919C59.3822 16.626 58.7353 17.0452 58.025 17.3248C57.3148 17.6044 56.5557 17.7387 55.7927 17.7197ZM68.2659 27.1856H52.9276V19.9839H55.9143V24.5606H68.2709L68.2659 27.1856ZM55.7927 15.1179C56.4316 15.1848 57.0758 15.0561 57.64 14.7487C58.2042 14.4413 58.6618 13.9698 58.9522 13.3965C59.2426 12.8232 59.3521 12.1753 59.2662 11.5383C59.1803 10.9014 58.9031 10.3056 58.4713 9.82981C58.0395 9.35398 57.4734 9.02054 56.8479 8.87366C56.2225 8.72679 55.5672 8.77339 54.9689 9.00729C54.3705 9.24119 53.8572 9.65137 53.497 10.1835C53.1368 10.7157 52.9466 11.3447 52.9517 11.9873C52.9179 12.3827 52.9661 12.7808 53.0931 13.1568C53.2202 13.5327 53.4234 13.8784 53.69 14.1722C53.9566 14.466 54.281 14.7016 54.6428 14.8643C55.0046 15.027 55.396 15.1134 55.7927 15.1179ZM67.8088 21.5256H64.8221V6.01376H67.8088V21.5256Z" fill="white"/>
<path d="M78.72 6.4228V8.95233C78.72 11.8668 81.2958 14.4204 83.8244 15.2837C83.2468 15.8626 82.3316 17.0414 81.9227 17.5479C79.9904 16.6108 78.3318 15.1918 77.1066 13.4275C76.5289 15.0656 73.9521 17.2816 72.3849 18.0504C71.6273 17.3408 70.8311 16.6734 70 16.0515C71.4799 15.3587 72.7999 14.3663 73.8768 13.1371C74.902 12.0064 75.4836 10.5428 75.5143 9.01664V6.41477L78.72 6.4228ZM73.712 23.4532C73.712 20.8282 76.7701 18.9237 81.6585 18.9237C86.5218 18.9237 89.6049 20.803 89.6049 23.4532C89.6049 26.055 86.57 27.9333 81.6585 27.9333C76.7691 27.9323 73.712 26.0782 73.712 23.4532ZM77.0584 23.3808C77.0584 24.634 79.1058 25.5736 81.6796 25.5736C84.3277 25.5736 86.351 24.7546 86.351 23.4773C86.351 22.1286 84.3287 21.3095 81.6796 21.3095C79.1048 21.3095 77.0584 22.0562 77.0584 23.3808ZM89.1227 18.8524H86.1089V12.2286H82.0161V9.53118H86.1089V6.01376H89.1227V18.8524Z" fill="white"/>
<path d="M106.798 19.8634V22.3447C104.285 22.8778 101.73 23.1923 99.1626 23.2843C96.5144 23.3848 92.5412 23.3316 92.3242 23.3316V20.6342C92.6135 20.6342 97.8867 20.6583 100.68 20.5337C102.561 20.4654 105.426 20.0804 106.798 19.8634ZM93.144 12.1793C93.0923 10.9993 93.3946 9.83089 94.0121 8.8242C94.6296 7.81751 95.5341 7.01865 96.6091 6.53034C97.6841 6.04203 98.8806 5.88658 100.045 6.08404C101.209 6.2815 102.287 6.82283 103.141 7.63837C103.995 8.45391 104.586 9.50636 104.837 10.6604C105.088 11.8145 104.989 13.0173 104.551 14.1143C104.113 15.2112 103.358 16.1522 102.381 16.816C101.405 17.4798 100.252 17.8362 99.0712 17.8394C98.3056 17.8776 97.5402 17.7594 96.8218 17.492C96.1034 17.2246 95.4469 16.8136 94.8925 16.2841C94.3381 15.7545 93.8973 15.1176 93.597 14.412C93.2967 13.7065 93.1433 12.9472 93.146 12.1803L93.144 12.1793ZM96.0825 12.1793C96.0599 12.582 96.1209 12.9849 96.2616 13.3628C96.4024 13.7407 96.6199 14.0853 96.9004 14.375C97.1809 14.6646 97.5183 14.893 97.8914 15.0458C98.2645 15.1986 98.6652 15.2724 99.0682 15.2626C99.6715 15.2745 100.265 15.1069 100.773 14.781C101.281 14.4551 101.68 13.9856 101.921 13.4321C102.162 12.8786 102.233 12.266 102.125 11.6721C102.018 11.0781 101.736 10.5296 101.316 10.096C100.896 9.66243 100.357 9.36336 99.767 9.23677C99.177 9.11017 98.5627 9.16174 98.002 9.38493C97.4414 9.60812 96.9596 9.99288 96.6178 10.4904C96.2761 10.9879 96.0897 11.5757 96.0825 12.1793ZM110.549 27.5705H107.61V6.01377H110.549V27.5705Z" fill="white"/>
<path d="M132.973 25.5696H112.84V22.9466H118.209V19.8151H115.397V12.0346H127.46V9.45782H115.396V6.80872H130.373V14.6375H118.31V17.1901H130.758V19.8151H128.009V22.9466H132.97L132.973 25.5696ZM125.028 22.9436V19.8121H121.198V22.9436H125.028Z" fill="white"/>
<path d="M141.334 9.98847V12.4004C141.253 14.158 141.574 15.911 142.272 17.5258C143.022 18.9412 144.147 20.1232 145.523 20.9427C144.825 21.6402 144.174 22.2914 143.549 22.9899C142.001 21.9024 140.711 20.4883 139.769 18.8473C138.889 20.7189 137.566 22.3478 135.915 23.5928C135.15 22.9258 134.345 22.3066 133.504 21.7386C135.053 20.8098 136.313 19.4662 137.14 17.8594C137.921 16.1885 138.292 14.3553 138.224 12.5119V9.98344H135.02V7.38156H144.531V9.98344L141.334 9.98847ZM153.397 27.5756H150.556V16.6213H148.822V26.5706H145.956V6.37456H148.821V13.5049H150.555V6.01376H153.396L153.397 27.5756Z" fill="white"/>
<path d="M169.026 14.2516V16.8052C166.299 17.2922 163.537 17.5577 160.767 17.5992H156.434V6.83282H166.86V9.45782H159.367V14.9259H162.306C164.557 14.8374 166.802 14.6122 169.026 14.2516ZM173.601 27.1856H158.575V19.8151H161.634V24.5606H173.601V27.1856ZM175.745 14.1069H173.001V21.4532H170.038V6.01376H173.001V11.4306H175.742L175.745 14.1069Z" fill="white"/>
<path d="M197.463 11.6738H184.75V9.31412H197.463V11.6738ZM185.308 16.2032C185.308 14.0586 187.859 12.4446 191.11 12.4446C194.506 12.4446 196.865 14.0586 196.865 16.2274C196.865 18.2986 194.482 19.9126 191.086 19.9126C187.879 19.9116 185.304 18.2976 185.304 16.2032H185.308ZM202.668 27.1866H187.567V21.213H190.674V24.5616H202.665L202.668 27.1866ZM194.457 8.15739H187.691V5.89319H194.457V8.15739ZM188.362 16.1741C188.362 17.2334 189.687 17.6193 191.13 17.6193C192.528 17.6193 193.778 17.2344 193.778 16.1982C193.778 15.1621 192.527 14.7048 191.13 14.7048C189.709 14.7099 188.362 15.1691 188.362 16.1741ZM204.807 15.0425H202.038V21.6663H199.081V6.01378H202.042V12.2768H204.807V15.0425Z" fill="white"/>
<path d="M223.858 14.9259V17.4062C221.143 17.759 218.409 17.9442 215.671 17.9609L210.855 17.9851V11.1442H218.537V9.24176H210.855V6.68812H221.497V13.5049H213.862V15.4555L217.065 15.4314C218.994 15.4073 222.341 15.1179 223.858 14.9259ZM227.977 27.3545H212.975V19.5488H227.976L227.977 27.3545ZM225.014 24.826V22.1045H215.956V24.826H225.014ZM227.977 18.7318H224.991V6.01376H227.977V18.7318Z" fill="white"/>
<path d="M252.415 19.189H249.429V15.6515H245.745V17.6022H235.344V6.61777H238.329V9.77341H242.808V6.61777H245.746V8.76239H249.43V6.01376H252.416L252.415 19.189ZM236.909 23.5004C236.909 21.0432 239.678 19.1649 244.831 19.1649C250.032 19.1649 252.754 21.0432 252.754 23.5004C252.754 25.9576 250.009 27.8359 244.831 27.8359C239.702 27.8369 236.912 25.9575 236.912 23.5014L236.909 23.5004ZM242.808 14.9731V12.325H238.329V14.9742L242.808 14.9731ZM244.855 25.4249C247.722 25.4249 249.477 24.5817 249.477 23.4984C249.477 22.3426 247.695 21.5708 244.829 21.5708C241.916 21.5708 240.182 22.3175 240.182 23.4743C240.184 24.5606 241.965 25.4279 244.855 25.4279V25.4249ZM249.43 13.117V11.2869H245.746V13.117H249.43Z" fill="white"/>
<path d="M273.742 14.2275V16.757C271.419 17.0813 269.08 17.2739 266.735 17.3339V20.6583H263.721V17.359H259.367V14.8536H266.109C268.664 14.813 271.214 14.6038 273.742 14.2275ZM266.302 13.8425C262.739 13.8425 260.908 11.9401 260.908 9.79551C260.908 7.72325 262.762 5.7756 266.302 5.7756C269.938 5.7756 271.696 7.70215 271.696 9.79551C271.695 11.9643 269.865 13.8425 266.302 13.8425ZM278.005 27.1866H262.545V21.6211H265.604V24.5355H278.005V27.1866ZM263.822 9.80054C263.822 10.499 264.616 11.5593 266.325 11.5593C268.083 11.5593 268.829 10.499 268.829 9.80054C268.829 9.05384 268.083 7.99156 266.301 7.99156C264.544 7.98956 263.822 9.04881 263.822 9.79551V9.80054ZM277.618 22.1809H274.657V20.5427H270.081V18.2042H274.657V6.01378H277.619L277.618 22.1809Z" fill="white"/>
<path d="M52.5586 34.9862H53.1071V40.1297H52.5586V34.9862Z" fill="#8A949E"/>
<path d="M58.6788 39.3398V34.9862H59.2213V40.1297H58.5492L56.1462 35.741V40.1297H55.5977V34.9862H56.3109L58.6788 39.3398Z" fill="#8A949E"/>
<path d="M61.5254 38.5781H62.0679C62.0547 38.7508 62.0799 38.9242 62.1416 39.086C62.2034 39.2479 62.3001 39.394 62.4249 39.5141C62.5497 39.6341 62.6995 39.7251 62.8636 39.7805C63.0276 39.8358 63.2019 39.8542 63.3739 39.8343C64.0198 39.8343 64.6156 39.5257 64.6156 38.8454C64.6156 38.2343 64.279 38.0002 63.611 37.8293L62.973 37.6635C62.1563 37.4625 61.6831 37.1078 61.6831 36.4073C61.6729 36.194 61.7085 35.981 61.7876 35.7826C61.8667 35.5842 61.9874 35.4051 62.1415 35.2574C62.2957 35.1097 62.4797 34.9967 62.6812 34.9262C62.8827 34.8557 63.097 34.8292 63.3096 34.8486C63.5257 34.8224 63.7448 34.8429 63.9524 34.9085C64.1599 34.9742 64.351 35.0835 64.5127 35.2292C64.6745 35.3748 64.8033 35.5534 64.8903 35.753C64.9774 35.9526 65.0207 36.1685 65.0174 36.3862H64.4679C64.4726 36.235 64.4443 36.0845 64.385 35.9453C64.3257 35.8061 64.2368 35.6815 64.1244 35.5802C64.012 35.4789 63.879 35.4033 63.7344 35.3587C63.5899 35.3141 63.4373 35.3015 63.2875 35.3219C63.1538 35.3086 63.0188 35.3237 62.8914 35.3661C62.7639 35.4085 62.6468 35.4774 62.5477 35.5681C62.4487 35.6589 62.3698 35.7695 62.3164 35.8928C62.263 36.0161 62.2361 36.1493 62.2376 36.2837C62.2376 36.7922 62.4295 36.9781 63.3568 37.2243L64.0158 37.3972C64.3371 37.4367 64.6323 37.5942 64.8441 37.8392C65.0559 38.0841 65.1692 38.399 65.1621 38.7228C65.1621 39.8212 64.3654 40.2885 63.3287 40.2885C63.0939 40.3125 62.8568 40.2855 62.6334 40.2094C62.4101 40.1333 62.2058 40.0098 62.0346 39.8473C61.8633 39.6849 61.7292 39.4874 61.6413 39.2684C61.5534 39.0493 61.5139 38.8138 61.5254 38.5781Z" fill="#8A949E"/>
<path d="M67.4396 34.9862H70.7548V35.4807H67.9821V37.2243H70.5308V37.6987H67.9781V39.6554H70.791V40.1297H67.4336L67.4396 34.9862Z" fill="#8A949E"/>
<path d="M75.0779 34.8566C76.4582 34.8566 77.3161 35.9551 77.3161 37.5831C77.3161 39.2112 76.4582 40.2966 75.0779 40.2966C73.6975 40.2966 72.8477 39.2112 72.8477 37.5831C72.8477 35.9551 73.6985 34.8566 75.0779 34.8566ZM75.0779 35.33C74.007 35.33 73.4243 36.1882 73.4243 37.5761C73.4243 38.8826 74.0833 39.8081 75.0779 39.8081C76.0724 39.8081 76.7395 38.8876 76.7395 37.5761C76.7395 36.2646 76.0744 35.33 75.0779 35.33Z" fill="#8A949E"/>
<path d="M82.6222 39.3398V34.9862H83.1647V40.1297H82.4906L80.0876 35.741V40.1297H79.5391V34.9862H80.2523L82.6222 39.3398Z" fill="#8A949E"/>
<path d="M85.4688 37.6374C85.4688 35.9962 86.3337 34.8495 87.6246 34.8495C88.0912 34.8135 88.5535 34.9591 88.9153 35.2559C89.2772 35.5527 89.5105 35.9778 89.5666 36.4425H89.004C88.9574 36.1136 88.7875 35.8149 88.5287 35.6069C88.2699 35.3989 87.9416 35.2974 87.6106 35.3229C86.8692 35.3229 86.0313 36.0033 86.0313 37.6022C86.0313 39.0373 86.5869 39.8081 87.6307 39.8081C88.572 39.8081 89.1376 39.0795 89.1376 37.8916H87.6859V37.4515H89.6449V40.1297H89.3154L89.1577 39.4423C88.9757 39.7089 88.7291 39.9249 88.441 40.0703C88.1528 40.2156 87.8326 40.2855 87.5101 40.2734C86.1559 40.2744 85.4688 39.1418 85.4688 37.6374Z" fill="#8A949E"/>
<path d="M97.8729 39.4946L99.1979 34.9893H100.043V40.1327H99.5003V35.5732L98.1481 40.1327H97.5705L96.2183 35.6003V40.1327H95.6758V34.9893H96.5277L97.8729 39.4946Z" fill="#8A949E"/>
<path d="M102.537 34.9862H105.852V35.4807H103.079V37.2243H105.632V37.6987H103.079V39.6554H105.892V40.1297H102.535L102.537 34.9862Z" fill="#8A949E"/>
<path d="M108.199 34.9862H110.053C111.294 34.9862 111.975 36.0716 111.975 37.4786C111.975 38.9619 111.398 40.1297 110.046 40.1297H108.199V34.9862ZM108.748 39.6765H109.928C110.993 39.6765 111.425 38.7981 111.425 37.4856C111.425 36.5108 111.15 35.4465 109.918 35.4465H108.744L108.748 39.6765Z" fill="#8A949E"/>
<path d="M114.246 34.9862H114.796V40.1297H114.246V34.9862Z" fill="#8A949E"/>
<path d="M117.062 37.5087C117.062 36.0535 117.831 34.8445 119.197 34.8445C119.651 34.8223 120.096 34.974 120.442 35.2687C120.787 35.5633 121.008 35.9788 121.058 36.4304H120.528C120.487 36.1125 120.328 35.8218 120.083 35.6157C119.837 35.4097 119.523 35.3034 119.203 35.3179C118.27 35.3179 117.617 36.149 117.617 37.6293C117.617 39.0433 118.22 39.7991 119.189 39.7991C119.565 39.7857 119.92 39.6258 120.179 39.3537C120.438 39.0815 120.581 38.7187 120.576 38.3429H121.104C121.087 38.8593 120.871 39.3491 120.501 39.7099C120.131 40.0708 119.636 40.2748 119.12 40.2794C117.846 40.2744 117.062 39.2715 117.062 37.5087Z" fill="#8A949E"/>
<path d="M124.721 34.9862H125.386L127.033 40.1297H126.436L125.976 38.564H124.054L123.559 40.1297H123.004L124.721 34.9862ZM125.036 35.5078L124.198 38.0966H125.798L125.036 35.5078Z" fill="#8A949E"/>
<path d="M129.145 34.9862H129.687V39.6554H132.049V40.1297H129.145V34.9862Z" fill="#8A949E"/>
<path d="M137.719 34.9862H140.857V35.4807H138.262V37.2444H140.541V37.7188H138.262V40.1307H137.72L137.719 34.9862Z" fill="#8A949E"/>
<path d="M145.04 34.8566C146.42 34.8566 147.278 35.9551 147.278 37.5831C147.278 39.2112 146.42 40.2966 145.04 40.2966C143.659 40.2966 142.809 39.2112 142.809 37.5831C142.809 35.9551 143.66 34.8566 145.04 34.8566ZM145.04 35.33C143.97 35.33 143.385 36.1882 143.385 37.5761C143.385 38.8826 144.044 39.8081 145.04 39.8081C146.035 39.8081 146.701 38.8876 146.701 37.5761C146.701 36.2646 146.036 35.33 145.04 35.33Z" fill="#8A949E"/>
<path d="M150.032 34.9792V38.1891C150.032 39.1438 150.396 39.8101 151.254 39.8101C152.235 39.8101 152.537 39.1438 152.537 38.1891V34.9822H153.087V37.8866C153.087 39.4453 152.607 40.2764 151.279 40.2764C149.981 40.2764 149.48 39.4453 149.48 37.8866V34.9822L150.032 34.9792Z" fill="#8A949E"/>
<path d="M158.638 39.3398V34.9862H159.18V40.1297H158.506L156.104 35.741V40.1297H155.555V34.9862H156.269L158.638 39.3398Z" fill="#8A949E"/>
<path d="M161.68 34.9862H163.532C164.776 34.9862 165.455 36.0716 165.455 37.4786C165.455 38.9619 164.878 40.1297 163.526 40.1297H161.68V34.9862ZM162.229 39.6765H163.409C164.473 39.6765 164.906 38.7981 164.906 37.4856C164.906 36.5108 164.63 35.4465 163.399 35.4465H162.225L162.229 39.6765Z" fill="#8A949E"/>
<path d="M169.068 34.9862H169.734L171.382 40.1297H170.779L170.319 38.564H168.405L167.91 40.1297H167.355L169.068 34.9862ZM169.384 35.5078L168.547 38.0966H170.145L169.384 35.5078Z" fill="#8A949E"/>
<path d="M176.775 34.9862V35.4666H175.194V40.1297H174.653V35.4666H173.066V34.9862H176.775Z" fill="#8A949E"/>
<path d="M178.848 34.9862H179.397V40.1297H178.848V34.9862Z" fill="#8A949E"/>
<path d="M183.86 34.8566C185.24 34.8566 186.098 35.9551 186.098 37.5831C186.098 39.2112 185.24 40.2966 183.86 40.2966C182.48 40.2966 181.629 39.2112 181.629 37.5831C181.629 35.9551 182.481 34.8566 183.86 34.8566ZM183.86 35.33C182.79 35.33 182.206 36.1882 182.206 37.5761C182.206 38.8826 182.865 39.8081 183.86 39.8081C184.856 39.8081 185.522 38.8876 185.522 37.5761C185.522 36.2646 184.856 35.33 183.86 35.33Z" fill="#8A949E"/>
<path d="M191.406 39.3398V34.9862H191.949V40.1297H191.276L188.874 35.741V40.1297H188.324V34.9862H189.037L191.406 39.3398Z" fill="#8A949E"/>
<path d="M198.02 34.9862H198.569V37.1771H201.095V34.9862H201.651V40.1297H201.095V37.6504H198.569V40.1297H198.02V34.9862Z" fill="#8A949E"/>
<path d="M205.493 34.9862H206.158L207.806 40.1297H207.208L206.748 38.564H204.826L204.332 40.1297H203.777L205.493 34.9862ZM205.809 35.5078L204.971 38.0966H206.57L205.809 35.5078Z" fill="#8A949E"/>
<path d="M209.922 34.9862H210.464V39.6554H212.826V40.1297H209.923L209.922 34.9862Z" fill="#8A949E"/>
<path d="M214.922 34.9862H215.464V39.6554H217.825V40.1297H214.922V34.9862Z" fill="#8A949E"/>
<path d="M219.574 34.9862H220.177L221.55 37.5409L222.909 34.9862H223.52L221.812 38.0353V40.1297H221.27V38.0353L219.574 34.9862Z" fill="#8A949E"/>
<path d="M227.842 39.4946L229.167 34.9893H230.011V40.1327H229.468V35.5732L228.116 40.1327H227.539L226.187 35.6003V40.1327H225.645V34.9893H226.495L227.842 39.4946Z" fill="#8A949E"/>
<path d="M236.078 34.9862H236.628V37.1771H239.153V34.9862H239.709V40.1297H239.153V37.6504H236.628V40.1297H236.078V34.9862Z" fill="#8A949E"/>
<path d="M244.177 34.8566C245.556 34.8566 246.414 35.9551 246.414 37.5831C246.414 39.2112 245.556 40.2966 244.177 40.2966C242.797 40.2966 241.945 39.2112 241.945 37.5831C241.945 35.9551 242.797 34.8566 244.177 34.8566ZM244.177 35.33C243.106 35.33 242.522 36.1882 242.522 37.5761C242.522 38.8826 243.18 39.8081 244.177 39.8081C245.173 39.8081 245.837 38.8876 245.837 37.5761C245.837 36.2646 245.172 35.33 244.177 35.33Z" fill="#8A949E"/>
<path d="M248.447 38.578H248.99C248.976 38.7508 249.001 38.9243 249.063 39.0862C249.125 39.2481 249.222 39.3944 249.346 39.5145C249.471 39.6346 249.621 39.7255 249.785 39.7808C249.949 39.8361 250.124 39.8544 250.296 39.8343C250.941 39.8343 251.538 39.5257 251.538 38.8454C251.538 38.2343 251.202 38.0002 250.534 37.8293L249.895 37.6635C249.078 37.4625 248.604 37.1078 248.604 36.4073C248.594 36.1939 248.629 35.9808 248.709 35.7823C248.788 35.5839 248.908 35.4047 249.063 35.257C249.217 35.1092 249.401 34.9963 249.603 34.9259C249.804 34.8554 250.019 34.829 250.231 34.8485C250.448 34.8222 250.667 34.8426 250.874 34.9082C251.082 34.9737 251.273 35.0831 251.435 35.2288C251.597 35.3744 251.726 35.5532 251.813 35.7528C251.9 35.9524 251.943 36.1684 251.939 36.3862H251.391C251.395 36.235 251.367 36.0846 251.308 35.9455C251.248 35.8064 251.159 35.6819 251.047 35.5806C250.935 35.4793 250.802 35.4037 250.657 35.3591C250.513 35.3144 250.36 35.3017 250.21 35.3219C250.077 35.3085 249.942 35.3234 249.814 35.3658C249.686 35.4081 249.569 35.4769 249.47 35.5677C249.371 35.6585 249.292 35.7692 249.238 35.8926C249.185 36.0159 249.158 36.1492 249.16 36.2837C249.16 36.7922 249.351 36.9781 250.279 37.2243L250.937 37.3972C251.258 37.4365 251.554 37.5939 251.766 37.8388C251.978 38.0838 252.091 38.3988 252.084 38.7227C252.084 39.8212 251.287 40.2885 250.251 40.2885C250.016 40.3125 249.779 40.2855 249.555 40.2094C249.332 40.1332 249.128 40.0097 248.956 39.8473C248.785 39.6849 248.651 39.4874 248.563 39.2683C248.475 39.0493 248.436 38.8138 248.447 38.578Z" fill="#8A949E"/>
<path d="M254.359 34.9862H256.413C256.599 34.9816 256.784 35.0166 256.955 35.0889C257.126 35.1612 257.28 35.2691 257.407 35.4054C257.534 35.5418 257.63 35.7036 257.689 35.8799C257.748 36.0563 257.769 36.2432 257.751 36.4284C257.775 36.6156 257.758 36.8058 257.701 36.9858C257.644 37.1657 257.549 37.3311 257.421 37.4703C257.294 37.6095 257.138 37.7193 256.963 37.7919C256.789 37.8645 256.601 37.8982 256.413 37.8906H254.906V40.1297H254.363L254.359 34.9862ZM256.2 37.4243C256.335 37.4431 256.472 37.4305 256.601 37.3877C256.731 37.3448 256.848 37.2729 256.946 37.1773C257.043 37.0817 257.116 36.9652 257.161 36.8365C257.206 36.7079 257.221 36.5707 257.204 36.4354C257.204 35.732 256.854 35.4666 256.2 35.4666H254.903V37.4243H256.2Z" fill="#8A949E"/>
<path d="M260.07 34.9862H260.62V40.1297H260.07V34.9862Z" fill="#8A949E"/>
<path d="M266.398 34.9862V35.4666H264.819V40.1297H264.277V35.4666H262.691V34.9862H266.398Z" fill="#8A949E"/>
<path d="M269.814 34.9862H270.479L272.126 40.1297H271.528L271.068 38.564H269.146L268.652 40.1297H268.098L269.814 34.9862ZM270.129 35.5078L269.291 38.0966H270.89L270.129 35.5078Z" fill="#8A949E"/>
<path d="M274.238 34.9862H274.781V39.6554H277.143V40.1297H274.238V34.9862Z" fill="#8A949E"/>
<path d="M20.9187 0.836578C16.9305 0.838161 13.0324 2.0223 9.71721 4.23929C6.40202 6.45627 3.81867 9.60653 2.29383 13.2917C0.76899 16.9768 0.371148 21.0314 1.15061 24.9427C1.93007 28.854 3.85183 32.4462 6.67287 35.2653C9.49392 38.0844 13.0875 40.0037 16.9993 40.7804C20.9112 41.5572 24.9654 41.1565 28.6495 39.6291C32.3336 38.1017 35.4821 35.5162 37.6968 32.1994C39.9115 28.8827 41.0929 24.9837 41.0917 20.9956C41.0827 15.6494 38.954 10.525 35.1724 6.746C31.3908 2.967 26.2649 0.841866 20.9187 0.836578ZM37.6847 12.1366C37.692 12.1225 37.704 12.1115 37.7187 12.1056C37.7377 12.0931 37.7574 12.0817 37.7777 12.0716C37.7964 12.0614 37.8162 12.0533 37.8367 12.0476C37.8512 12.0399 37.8674 12.0365 37.8837 12.0376C37.8997 12.0376 37.9087 12.0376 37.9157 12.0476C37.9227 12.0576 37.9327 12.0606 37.9327 12.0646L38.6647 13.6036V13.6366C38.6647 13.6456 38.6647 13.6586 38.6517 13.6636C38.6482 13.671 38.6431 13.6776 38.6366 13.6828C38.6302 13.688 38.6227 13.6917 38.6147 13.6936C38.5999 13.7074 38.583 13.7188 38.5647 13.7276C38.5425 13.7362 38.5198 13.7436 38.4967 13.7496C38.4838 13.7564 38.4693 13.7596 38.4547 13.7586C38.4446 13.759 38.4347 13.7558 38.4267 13.7496C38.4177 13.7426 38.4057 13.7396 38.4057 13.7316L38.1117 13.1076L36.1297 14.0476C36.1217 14.0476 36.1107 14.0526 36.1017 14.0476C36.0956 14.0471 36.0896 14.0451 36.0844 14.0418C36.0791 14.0385 36.0748 14.0339 36.0717 14.0286C36.0599 14.0194 36.0497 14.0083 36.0417 13.9956C36.0337 13.9726 36.0167 13.9486 36.0077 13.9196C35.9898 13.8991 35.9798 13.8728 35.9797 13.8456C35.9702 13.8309 35.9647 13.814 35.9637 13.7966C35.9637 13.7816 35.9637 13.7726 35.9707 13.7726C35.9777 13.7726 35.9797 13.7496 35.9907 13.7496L37.9747 12.8126L37.6827 12.1956C37.6737 12.1806 37.6667 12.1716 37.6737 12.1616C37.6751 12.1496 37.6788 12.138 37.6847 12.1276V12.1366ZM37.2167 10.9106C37.2311 10.9129 37.2447 10.9184 37.2567 10.9266C37.2657 10.9396 37.2827 10.9536 37.2957 10.9736C37.316 10.998 37.3331 11.0249 37.3467 11.0536C37.3697 11.0896 37.3857 11.1226 37.3957 11.1386C37.4099 11.1558 37.4192 11.1765 37.4227 11.1986C37.4272 11.2122 37.4272 11.2269 37.4227 11.2406C37.4235 11.2484 37.4218 11.2563 37.4181 11.2632C37.4144 11.2702 37.4087 11.2759 37.4017 11.2796L35.8257 13.2046C35.8037 13.2276 35.7887 13.2476 35.7757 13.2576C35.7691 13.2613 35.7618 13.2638 35.7542 13.2646C35.7467 13.2655 35.739 13.2648 35.7317 13.2626C35.7207 13.2626 35.7097 13.2496 35.6947 13.2276C35.6737 13.2035 35.6546 13.1777 35.6377 13.1506C35.6217 13.1186 35.6067 13.0916 35.5947 13.0726C35.5858 13.0542 35.5785 13.0351 35.5727 13.0156C35.5719 13.0076 35.5737 12.9995 35.5777 12.9926C35.5857 12.9776 35.5897 12.9776 35.5947 12.9626L36.0097 12.4626L35.4787 11.5896L34.8537 11.7346C34.8421 11.7396 34.8294 11.7416 34.8167 11.7406C34.8077 11.7406 34.8037 11.7346 34.7857 11.7226C34.7734 11.7133 34.7637 11.7009 34.7577 11.6866C34.7375 11.6673 34.7191 11.6462 34.7027 11.6236C34.6857 11.5866 34.6697 11.5616 34.6617 11.5386C34.6523 11.5226 34.6491 11.5037 34.6527 11.4856C34.6592 11.4727 34.6688 11.4617 34.6807 11.4536C34.6957 11.4386 34.7167 11.4386 34.7497 11.4316L37.1777 10.9116L37.2167 10.9106ZM35.2087 8.38458C35.2467 8.34958 35.2837 8.33558 35.3087 8.34958C35.3337 8.36358 35.3697 8.36857 35.3877 8.39157L35.7327 8.82556C35.8549 8.9624 35.9493 9.12168 36.0107 9.29456C36.0555 9.43733 36.0695 9.588 36.0517 9.73657C36.0302 9.88482 35.9777 10.0269 35.8977 10.1536C35.8029 10.3014 35.6831 10.4317 35.5437 10.5386C35.3951 10.6611 35.2289 10.7605 35.0507 10.8336C34.9025 10.8903 34.7444 10.9168 34.5857 10.9116C34.4325 10.8938 34.2854 10.8411 34.1557 10.7576C34.0004 10.6593 33.8633 10.5348 33.7507 10.3896L33.4227 9.98157C33.4067 9.95974 33.3977 9.9336 33.3967 9.90656C33.3981 9.88656 33.404 9.86716 33.4141 9.84982C33.4242 9.83249 33.4381 9.8177 33.4547 9.80658L35.2087 8.38458ZM33.3017 6.39056C33.3187 6.38894 33.3358 6.39087 33.352 6.39621C33.3682 6.40155 33.3831 6.41017 33.3957 6.42157L33.5057 6.53757C33.5326 6.55465 33.5561 6.57672 33.5747 6.60257C33.5866 6.6255 33.596 6.64963 33.6027 6.67456C33.6071 6.70373 33.6071 6.7334 33.6027 6.76257C33.5977 6.79557 33.5857 6.82356 33.5747 6.87756L33.2477 8.07758C33.2287 8.14958 33.2067 8.22057 33.1887 8.28857C33.1707 8.35657 33.1477 8.42758 33.1287 8.49557C33.1097 8.56357 33.0927 8.62856 33.0717 8.69556C33.0507 8.76256 33.0307 8.82358 33.0107 8.88858V8.89355C33.0837 8.80855 33.1507 8.72756 33.2277 8.65256C33.3047 8.57756 33.3747 8.48757 33.4477 8.41257L34.3767 7.40558C34.3767 7.39958 34.3847 7.39958 34.3987 7.39258C34.4086 7.39124 34.4186 7.39374 34.4267 7.39957C34.4436 7.40194 34.4591 7.41007 34.4707 7.42258C34.4949 7.43643 34.518 7.45214 34.5397 7.46957C34.5542 7.49072 34.5717 7.50959 34.5917 7.52557C34.6047 7.53818 34.6141 7.55407 34.6187 7.57156C34.6223 7.58227 34.6223 7.59388 34.6187 7.60458C34.6204 7.61114 34.6204 7.61801 34.6187 7.62457L33.0317 9.34058C33.0179 9.35642 33.0013 9.36963 32.9827 9.37958C32.9643 9.3868 32.9445 9.38987 32.9247 9.38858C32.9097 9.38858 32.8907 9.38158 32.8667 9.37958C32.8427 9.37758 32.8387 9.36256 32.8327 9.34656L32.7477 9.27658C32.7294 9.25425 32.7124 9.23087 32.6967 9.20657C32.6803 9.18597 32.6705 9.16086 32.6687 9.13458C32.6582 9.09901 32.6582 9.06114 32.6687 9.02557C32.6712 8.97729 32.6814 8.92971 32.6987 8.88458L33.1267 7.32156C33.1457 7.24856 33.1627 7.15556 33.1937 7.06256C33.2247 6.96956 33.2467 6.90256 33.2767 6.82156H33.2737C33.2127 6.89256 33.1477 6.96557 33.0807 7.03357C33.0184 7.1095 32.9516 7.18163 32.8807 7.24957L31.8527 8.37457C31.8424 8.37427 31.8321 8.37633 31.8227 8.38058C31.8179 8.38209 31.8128 8.38231 31.8079 8.38126C31.803 8.3802 31.7985 8.37791 31.7947 8.37457C31.7796 8.37102 31.7649 8.36598 31.7507 8.35956C31.7286 8.34103 31.7085 8.32027 31.6907 8.29758C31.6693 8.28423 31.6504 8.2673 31.6347 8.24756C31.6228 8.23429 31.6127 8.21952 31.6047 8.20358C31.5977 8.20358 31.5967 8.17856 31.5977 8.17056C31.5987 8.16256 31.6047 8.15656 31.6107 8.14856L33.1927 6.43457C33.2033 6.41613 33.2195 6.40154 33.2389 6.39291C33.2583 6.38428 33.28 6.38205 33.3007 6.38657L33.3017 6.39056ZM30.9737 4.72757C30.9737 4.72057 30.9837 4.70956 30.9927 4.70956C31.0017 4.70956 31.0147 4.70056 31.0277 4.70956C31.0421 4.71373 31.0559 4.71979 31.0687 4.72757C31.0887 4.72757 31.1117 4.75357 31.1407 4.76157C31.1697 4.76957 31.1827 4.79557 31.2007 4.81357C31.2187 4.83157 31.2297 4.84358 31.2357 4.85358C31.2417 4.86358 31.2447 4.87158 31.2447 4.88358C31.245 4.88799 31.2444 4.89241 31.2428 4.89655C31.2413 4.90068 31.2388 4.90443 31.2357 4.90756L30.3747 6.17456C30.3143 6.25672 30.2686 6.34876 30.2397 6.44656C30.2161 6.528 30.208 6.61314 30.2157 6.69757C30.2251 6.77535 30.2544 6.84939 30.3007 6.91257C30.3492 6.98163 30.4099 7.04126 30.4797 7.08856C30.5519 7.1366 30.6317 7.17211 30.7157 7.19357C30.7898 7.21339 30.8677 7.21339 30.9417 7.19357C31.0207 7.17335 31.0954 7.13951 31.1627 7.09357C31.2397 7.02727 31.307 6.95053 31.3627 6.86557L32.2337 5.59857C32.2337 5.57957 32.2417 5.57257 32.2557 5.57257C32.2575 5.57063 32.2597 5.56908 32.2621 5.56802C32.2645 5.56696 32.2671 5.56641 32.2697 5.56641C32.2724 5.56641 32.275 5.56696 32.2774 5.56802C32.2798 5.56908 32.2819 5.57063 32.2837 5.57257C32.2997 5.57257 32.3117 5.57957 32.3367 5.59857C32.3606 5.60053 32.3828 5.61164 32.3987 5.62958C32.4228 5.64115 32.4445 5.65709 32.4627 5.67657C32.4777 5.68957 32.4907 5.70458 32.4907 5.71558C32.4961 5.71804 32.5007 5.72178 32.5042 5.7265C32.5077 5.73122 32.5099 5.73677 32.5107 5.74258C32.5107 5.75458 32.5057 5.76557 32.5057 5.77457L31.6327 7.04956C31.5554 7.16566 31.4583 7.26723 31.3457 7.34958C31.248 7.42124 31.1368 7.47227 31.0187 7.49957C30.9015 7.52584 30.7795 7.52101 30.6647 7.48557C30.5345 7.45189 30.4118 7.39425 30.3027 7.31558C30.1989 7.2485 30.1078 7.16351 30.0337 7.06458C29.9691 6.97312 29.9242 6.86928 29.9017 6.75958C29.8758 6.64274 29.8803 6.52118 29.9147 6.40656C29.9516 6.27268 30.0101 6.14571 30.0877 6.03058L30.9737 4.72757ZM28.0457 3.99457C28.1475 3.87578 28.2728 3.77943 28.4137 3.71158C28.549 3.64941 28.697 3.62025 28.8457 3.62656C29.0123 3.632 29.1755 3.67545 29.3227 3.75357C29.471 3.82036 29.6046 3.91587 29.7157 4.03458C29.811 4.1386 29.8797 4.26419 29.9157 4.40057C29.9485 4.54622 29.9506 4.69709 29.9217 4.84357C29.885 5.02602 29.8245 5.20286 29.7417 5.36957C29.6651 5.53632 29.564 5.6907 29.4417 5.82758C29.3389 5.94878 29.2114 6.04662 29.0677 6.11456C28.9356 6.17992 28.7889 6.21023 28.6417 6.20258C28.4727 6.19342 28.3073 6.14984 28.1557 6.07455C28.0082 6.00603 27.8746 5.91078 27.7617 5.79358C27.6706 5.68803 27.6052 5.56273 27.5707 5.42758C27.5371 5.27947 27.5371 5.12568 27.5707 4.97757C27.6046 4.79352 27.6648 4.61535 27.7497 4.44858C27.8274 4.28365 27.927 4.12993 28.0457 3.99158V3.99457ZM25.7177 5.03857L26.4497 2.81656C26.4546 2.79673 26.4639 2.77827 26.4769 2.76251C26.4898 2.74676 26.5062 2.73412 26.5247 2.72556C26.5529 2.71564 26.5836 2.71564 26.6117 2.72556L27.6557 3.07758C27.6667 3.07758 27.6717 3.07758 27.6777 3.09058C27.6843 3.10064 27.6891 3.11181 27.6917 3.12357C27.6944 3.13812 27.6944 3.15302 27.6917 3.16757C27.6917 3.19257 27.6787 3.20657 27.6727 3.23557C27.6679 3.25488 27.6591 3.27296 27.6467 3.28857C27.6418 3.30602 27.6329 3.32209 27.6207 3.33557C27.6102 3.33976 27.599 3.34211 27.5877 3.34256C27.5877 3.35056 27.5767 3.35056 27.5687 3.34256L26.7147 3.06656L26.4457 3.87357L27.2457 4.14258C27.2527 4.15158 27.2567 4.15157 27.2707 4.15857C27.2747 4.16672 27.2771 4.17554 27.2777 4.18457C27.2838 4.1909 27.2872 4.19931 27.2872 4.20807C27.2872 4.21682 27.2838 4.22524 27.2777 4.23157C27.2771 4.25423 27.2723 4.27659 27.2637 4.29758C27.2527 4.31958 27.2467 4.34058 27.2377 4.35458C27.2287 4.36858 27.2247 4.37956 27.2137 4.38956C27.2067 4.39927 27.1974 4.40717 27.1867 4.41257H27.1637L26.3507 4.14157L26.0207 5.14157C26.0205 5.14681 26.0187 5.15185 26.0154 5.15598C26.0122 5.1601 26.0078 5.16312 26.0027 5.16458C26.0027 5.17258 25.9927 5.18057 25.9777 5.18057C25.9627 5.18057 25.9427 5.17258 25.9267 5.17258C25.8995 5.16806 25.8729 5.15997 25.8477 5.14856C25.8223 5.14328 25.798 5.13383 25.7757 5.12057C25.76 5.11517 25.7456 5.10629 25.7337 5.09457C25.7238 5.08938 25.716 5.08088 25.7117 5.07056C25.7102 5.06479 25.7099 5.05879 25.711 5.05292C25.712 5.04705 25.7143 5.04145 25.7177 5.03656V5.03857ZM23.6527 2.12857C23.6527 2.11157 23.6527 2.10557 23.6667 2.09857C23.6807 2.09157 23.6797 2.08957 23.6927 2.08157H23.7507C23.776 2.08065 23.8013 2.08369 23.8257 2.09058C23.85 2.09228 23.8737 2.09838 23.8957 2.10858C23.9152 2.10972 23.9338 2.11708 23.9487 2.12958C23.9545 2.13138 23.9597 2.13448 23.964 2.13864C23.9684 2.1428 23.9717 2.14791 23.9737 2.15356C23.9737 2.15356 23.9737 2.16356 23.9737 2.17856L23.6127 4.33356L24.4887 4.47556C24.4971 4.47953 24.5051 4.48423 24.5127 4.48956C24.5204 4.49925 24.5259 4.51054 24.5287 4.52258C24.5354 4.53558 24.5388 4.54998 24.5387 4.56458C24.537 4.58562 24.533 4.60639 24.5267 4.62656C24.5217 4.65156 24.5137 4.67757 24.5117 4.69257C24.5089 4.70821 24.5024 4.72295 24.4927 4.73557C24.4915 4.74138 24.4888 4.74681 24.485 4.75134C24.4811 4.75588 24.4762 4.75939 24.4707 4.76157C24.4602 4.76428 24.4492 4.76428 24.4387 4.76157L23.3677 4.58557C23.3526 4.58577 23.3377 4.58255 23.324 4.57614C23.3103 4.56973 23.2982 4.56032 23.2887 4.54858C23.2665 4.5139 23.2586 4.47196 23.2667 4.43158L23.6527 2.12857ZM20.7827 4.34357C20.7846 4.31826 20.7929 4.29386 20.8067 4.27258L21.7407 1.97256C21.7456 1.96013 21.7539 1.94935 21.7647 1.94156C21.7647 1.93256 21.7807 1.92957 21.7947 1.92157C21.8151 1.91486 21.8363 1.91083 21.8577 1.90958H21.9527C21.9937 1.91758 22.0337 1.91757 22.0527 1.92157C22.0724 1.92661 22.0925 1.93027 22.1127 1.93256C22.1271 1.93886 22.1398 1.94847 22.1497 1.96057C22.1605 1.97007 22.1673 1.98327 22.1687 1.99756L22.8787 4.38156C22.8879 4.4038 22.893 4.42752 22.8937 4.45157C22.8937 4.46675 22.888 4.48138 22.8777 4.49258C22.8604 4.4985 22.8427 4.50316 22.8247 4.50656H22.7247C22.6942 4.50551 22.6638 4.50219 22.6337 4.49658C22.6087 4.49658 22.5907 4.49657 22.5807 4.48257C22.5726 4.47931 22.5651 4.47455 22.5587 4.46857C22.5487 4.45157 22.5437 4.44456 22.5437 4.43356L22.3587 3.81256L21.3407 3.75656L21.1107 4.35657C21.1107 4.36219 21.1096 4.36776 21.1073 4.37292C21.1051 4.37809 21.1018 4.38272 21.0977 4.38657C21.0897 4.39557 21.0827 4.39557 21.0647 4.40857C21.0487 4.4147 21.0318 4.41839 21.0147 4.41956H20.9297C20.9001 4.41824 20.8707 4.41458 20.8417 4.40857C20.8226 4.40548 20.8044 4.39794 20.7887 4.38657C20.7827 4.37557 20.7737 4.36258 20.7827 4.34158V4.34357ZM18.8057 2.75156C18.8364 2.59647 18.8994 2.4496 18.9907 2.32056C19.0741 2.19909 19.1847 2.09877 19.3137 2.02756C19.4462 1.96082 19.59 1.91946 19.7377 1.90558C19.8078 1.90086 19.8782 1.90354 19.9477 1.91357C20.0197 1.92557 20.0777 1.93756 20.1407 1.94656C20.1936 1.96601 20.245 1.98907 20.2947 2.01556C20.3417 2.03956 20.3697 2.05857 20.3947 2.06857C20.4197 2.07857 20.4257 2.09956 20.4257 2.10956C20.4257 2.11956 20.4407 2.13057 20.4457 2.13757C20.4502 2.15196 20.4535 2.16668 20.4557 2.18158C20.4557 2.20258 20.4557 2.22056 20.4557 2.24356C20.4639 2.26583 20.4639 2.29029 20.4557 2.31256C20.4557 2.32956 20.4557 2.34656 20.4557 2.35156C20.4539 2.36453 20.4483 2.37668 20.4397 2.38657C20.4317 2.38657 20.4247 2.39758 20.4157 2.39758C20.389 2.39374 20.3634 2.38418 20.3407 2.36957C20.2989 2.33976 20.2548 2.31333 20.2087 2.29056C20.149 2.261 20.0863 2.23787 20.0217 2.22156C19.8345 2.17704 19.6374 2.20153 19.4667 2.29056C19.382 2.34731 19.3101 2.42125 19.2557 2.50757C19.1965 2.61272 19.1549 2.72693 19.1327 2.84558C19.104 2.98535 19.0973 3.12872 19.1127 3.27057C19.1204 3.41397 19.149 3.55548 19.1977 3.69058C19.2286 3.80209 19.2851 3.90482 19.3627 3.99057C19.4272 4.06751 19.5122 4.12471 19.6077 4.15558C19.7066 4.19666 19.8144 4.21147 19.9207 4.19858C20.0066 4.19453 20.0911 4.17591 20.1707 4.14355C20.2364 4.11955 20.2981 4.08586 20.3537 4.04358C20.4017 4.00958 20.4447 3.97658 20.4787 3.95258C20.4876 3.94103 20.4987 3.93143 20.5115 3.92438C20.5242 3.91732 20.5382 3.91295 20.5527 3.91156C20.5593 3.91002 20.5661 3.91002 20.5727 3.91156C20.5817 3.91156 20.5867 3.92056 20.5957 3.93356C20.5959 3.94738 20.599 3.961 20.6047 3.97357C20.6047 3.99757 20.6047 4.02558 20.6137 4.05258V4.11057C20.6137 4.12257 20.6137 4.14056 20.6087 4.14456C20.6037 4.14856 20.6087 4.17157 20.5977 4.17957C20.5867 4.18757 20.5887 4.19556 20.5777 4.20856C20.5557 4.23512 20.5293 4.25778 20.4997 4.27557C20.4577 4.31375 20.4101 4.34542 20.3587 4.36957C20.2967 4.39457 20.2277 4.42356 20.1587 4.45056C20.0765 4.47593 19.9916 4.4914 19.9057 4.49658C19.758 4.50886 19.6094 4.49117 19.4687 4.44458C19.3387 4.40311 19.2209 4.3303 19.1257 4.23257C19.0212 4.12296 18.9399 3.99336 18.8867 3.85156C18.824 3.68073 18.7853 3.50202 18.7717 3.32056C18.7543 3.12955 18.7661 2.93703 18.8067 2.74957L18.8057 2.75156ZM17.6317 2.21857C17.6317 2.20957 17.6457 2.20558 17.6567 2.18958C17.6677 2.17358 17.6867 2.18258 17.7037 2.17758C17.7275 2.16828 17.7524 2.16189 17.7777 2.15857C17.8051 2.15369 17.8329 2.15167 17.8607 2.15256H17.9077C17.9167 2.15256 17.9307 2.15857 17.9377 2.16257L17.9467 2.18457L18.3587 4.58456C18.3593 4.59485 18.3565 4.60503 18.3507 4.61356C18.3507 4.62156 18.3457 4.62558 18.3287 4.63458C18.3148 4.64101 18.3004 4.64635 18.2857 4.65057L18.2097 4.67657H18.0777C18.0674 4.67665 18.0572 4.67351 18.0487 4.66757C18.0441 4.65887 18.0401 4.64984 18.0367 4.64056L17.6317 2.24957V2.21857ZM15.1187 2.84256C15.1359 2.81498 15.1632 2.79524 15.1947 2.78757L15.7277 2.63458C15.9034 2.58106 16.0876 2.56069 16.2707 2.57455C16.4173 2.58868 16.5589 2.63477 16.6857 2.70956C16.8153 2.78986 16.9258 2.89734 17.0097 3.02457C17.1025 3.17108 17.1723 3.33093 17.2167 3.49857C17.2755 3.68529 17.2999 3.88113 17.2887 4.07657C17.2828 4.23364 17.2418 4.38742 17.1687 4.52658C17.0972 4.66001 16.9943 4.77398 16.8687 4.85858C16.7159 4.96039 16.5468 5.03545 16.3687 5.08057L15.8687 5.22556C15.8401 5.22872 15.8111 5.22567 15.7837 5.21658C15.7494 5.19447 15.7242 5.16075 15.7127 5.12158L15.1127 2.95157C15.1044 2.93402 15.1007 2.9147 15.1017 2.89532C15.1028 2.87595 15.1086 2.85713 15.1187 2.84058V2.84256ZM13.0857 3.63556C13.1067 3.60856 13.1237 3.58356 13.1527 3.57956L14.2247 3.12756C14.2346 3.1224 14.2456 3.12 14.2567 3.12057C14.2667 3.12757 14.2747 3.12956 14.2817 3.13956C14.2887 3.14956 14.2987 3.16158 14.3117 3.17258C14.3221 3.19167 14.3305 3.21178 14.3367 3.23257C14.3477 3.25857 14.3547 3.27358 14.3627 3.29358C14.364 3.30855 14.364 3.32359 14.3627 3.33856C14.3624 3.34842 14.3597 3.35806 14.3547 3.36658C14.3547 3.37558 14.3387 3.37558 14.3287 3.37558L13.4487 3.75357L13.7557 4.48956L14.5127 4.17456C14.5162 4.17075 14.5206 4.16785 14.5255 4.16611C14.5304 4.16437 14.5356 4.16386 14.5407 4.16458C14.5497 4.17458 14.5597 4.17456 14.5697 4.18356C14.5827 4.19308 14.5925 4.20633 14.5977 4.22156C14.6229 4.25217 14.6376 4.29001 14.6397 4.32956C14.6459 4.34305 14.649 4.35774 14.6487 4.37256C14.6487 4.38856 14.6397 4.39258 14.6397 4.40158C14.6397 4.41058 14.6297 4.41656 14.6177 4.41656L13.8597 4.73557L14.2147 5.57156L15.1087 5.20258C15.1167 5.19058 15.1217 5.18658 15.1307 5.19058C15.1397 5.19458 15.1557 5.20257 15.1647 5.20657C15.1737 5.21057 15.1867 5.22758 15.1927 5.23758L15.2207 5.29758C15.2312 5.31672 15.2377 5.33781 15.2397 5.35956C15.2397 5.37756 15.2487 5.38658 15.2397 5.40158C15.2405 5.41283 15.2377 5.42402 15.2317 5.43356C15.2317 5.44756 15.2167 5.44758 15.2077 5.45358L14.1267 5.90857C14.0982 5.91803 14.0673 5.91803 14.0387 5.90857C14.0107 5.90857 13.9817 5.87756 13.9627 5.82956L13.0877 3.75458C13.0737 3.69858 13.0737 3.66158 13.0857 3.63358V3.63556ZM9.90873 5.44656C9.91904 5.41116 9.94085 5.38021 9.97072 5.35858L10.1437 5.25858C10.1755 5.23977 10.209 5.22404 10.2437 5.21158C10.2731 5.20672 10.3029 5.2047 10.3327 5.20557C10.3616 5.20433 10.3902 5.21279 10.4137 5.22958C10.4444 5.24123 10.4716 5.26051 10.4927 5.28558L12.0547 6.47256H12.0617L11.7247 4.53357C11.7167 4.49869 11.7114 4.46327 11.7087 4.42758C11.71 4.39962 11.7154 4.37199 11.7247 4.34558C11.7329 4.32151 11.7455 4.29914 11.7617 4.27957C11.7786 4.257 11.801 4.2391 11.8267 4.22757L12.0087 4.11356C12.0249 4.1037 12.043 4.09725 12.0617 4.09457C12.0693 4.08905 12.0784 4.08606 12.0877 4.08606C12.0971 4.08606 12.1062 4.08905 12.1137 4.09457C12.1267 4.09457 12.1427 4.10858 12.1597 4.11658C12.1799 4.13037 12.1964 4.1489 12.2077 4.17056L13.4307 6.14658C13.4324 6.15785 13.4324 6.1693 13.4307 6.18057C13.4312 6.18899 13.4283 6.19727 13.4227 6.20358C13.4137 6.21758 13.3967 6.22757 13.3877 6.24457C13.3787 6.26157 13.3477 6.27258 13.3167 6.28958C13.2857 6.30658 13.2697 6.31556 13.2507 6.32156C13.2336 6.32655 13.2169 6.33292 13.2007 6.34058C13.1917 6.34658 13.1807 6.34657 13.1737 6.33057C13.1737 6.33057 13.1527 6.33058 13.1527 6.31558L11.9927 4.44858L12.4177 6.78156V6.80957C12.4131 6.81863 12.4077 6.82732 12.4017 6.83557C12.3923 6.8507 12.3801 6.86393 12.3657 6.87457C12.3473 6.88804 12.328 6.90009 12.3077 6.91058C12.2887 6.92296 12.269 6.93431 12.2487 6.94458C12.2338 6.94754 12.2193 6.95258 12.2057 6.95956C12.1931 6.96134 12.1803 6.96134 12.1677 6.95956L12.1407 6.94955L10.2787 5.50357L11.4357 7.37958C11.4407 7.3881 11.4434 7.39771 11.4437 7.40756C11.4387 7.40756 11.4387 7.42057 11.4257 7.43057C11.4175 7.44603 11.4071 7.46017 11.3947 7.47256C11.3747 7.48156 11.3547 7.49557 11.3277 7.51257C11.3081 7.52969 11.2858 7.54352 11.2617 7.55356C11.2427 7.55356 11.2277 7.56656 11.2067 7.56656C11.2016 7.56911 11.1959 7.57047 11.1902 7.57047C11.1845 7.57047 11.1789 7.56911 11.1737 7.56656C11.1687 7.55996 11.1634 7.55363 11.1577 7.54758L9.93572 5.57056C9.92244 5.55272 9.91317 5.53224 9.90851 5.5105C9.90385 5.48876 9.90393 5.46629 9.90873 5.44458V5.44656ZM7.43973 7.63257C7.50578 7.47706 7.60313 7.33683 7.72573 7.22058C7.78861 7.15884 7.85726 7.10324 7.93073 7.05457C8.00273 7.01057 8.06673 6.97356 8.13073 6.94156C8.18578 6.91698 8.24261 6.89662 8.30072 6.88058C8.33565 6.87343 8.3711 6.86908 8.40673 6.86758C8.42992 6.86841 8.45243 6.87568 8.47173 6.88858C8.50033 6.90141 8.52488 6.9218 8.54273 6.94757C8.56013 6.96319 8.57619 6.98025 8.59073 6.99857C8.60138 7.01197 8.61012 7.02678 8.61672 7.04257C8.62081 7.04917 8.62291 7.05682 8.62273 7.06458C8.62273 7.08658 8.61673 7.08856 8.60473 7.09256C8.58165 7.10877 8.55478 7.11878 8.52672 7.12158C8.47249 7.13138 8.41928 7.14609 8.36773 7.16556C8.29577 7.18825 8.22639 7.21844 8.16073 7.25558C8.07406 7.30235 7.9943 7.36089 7.92373 7.42957C7.83242 7.51927 7.76059 7.62686 7.71273 7.74557C7.67604 7.85355 7.66208 7.96794 7.67173 8.08157C7.68131 8.20376 7.71532 8.32278 7.77173 8.43158C7.83643 8.55107 7.91681 8.66139 8.01073 8.75958C8.11306 8.8654 8.23111 8.95477 8.36072 9.02457C8.47045 9.0777 8.58851 9.11154 8.70972 9.12457C8.82678 9.12727 8.94316 9.10613 9.05181 9.06247C9.16045 9.01881 9.25909 8.95353 9.34172 8.87057C9.39959 8.81828 9.44886 8.7572 9.48772 8.68958C9.53119 8.62451 9.56489 8.55342 9.58773 8.47858L9.07172 7.95557L8.66173 8.35556C8.65348 8.36164 8.6441 8.366 8.63414 8.36841C8.62419 8.37081 8.61383 8.37121 8.60372 8.36957C8.58172 8.35557 8.55372 8.33158 8.51372 8.29858C8.50469 8.28085 8.4925 8.26489 8.47773 8.25156C8.46873 8.23856 8.46373 8.22655 8.45273 8.21255V8.17957C8.45273 8.17257 8.46372 8.16556 8.46872 8.15656L9.03173 7.61258C9.03875 7.60271 9.04847 7.59506 9.05973 7.59058C9.07393 7.58231 9.09039 7.5788 9.10672 7.58057C9.12436 7.57821 9.14228 7.58173 9.15772 7.59058C9.17662 7.60127 9.19353 7.61512 9.20772 7.63156L9.87772 8.31757C9.89887 8.33812 9.91585 8.36256 9.92772 8.38956C9.93473 8.4053 9.93834 8.42235 9.93834 8.43958C9.93834 8.4568 9.93473 8.47382 9.92772 8.48956C9.91172 8.52856 9.89672 8.57056 9.87172 8.63156C9.8454 8.68927 9.81395 8.7445 9.77773 8.79657C9.74843 8.85461 9.71143 8.90844 9.66773 8.95657C9.63139 9.00561 9.59017 9.05085 9.54473 9.09158C9.42553 9.22012 9.28076 9.3223 9.11972 9.39157C8.9744 9.44358 8.82107 9.46964 8.66672 9.46857C8.51281 9.45413 8.36277 9.41214 8.22373 9.34457C8.06313 9.26759 7.91751 9.16262 7.79372 9.03458C7.66379 8.89806 7.55585 8.7422 7.47373 8.57257C7.40412 8.42601 7.36532 8.26674 7.35973 8.10458C7.34865 7.94151 7.37606 7.7781 7.43973 7.62756V7.63257ZM5.30573 10.0806L5.40572 9.95056C5.43072 9.92856 5.45572 9.90357 5.47272 9.88657C5.49352 9.8698 5.51776 9.85785 5.54372 9.85156C5.571 9.8492 5.59844 9.8492 5.62572 9.85156C5.66465 9.85001 5.70363 9.85338 5.74172 9.86157L6.97173 10.0726C7.04773 10.0836 7.11972 10.0966 7.19472 10.1106C7.26972 10.1246 7.33573 10.1386 7.40273 10.1486C7.46973 10.1586 7.53973 10.1806 7.60273 10.1896C7.66573 10.1986 7.73872 10.2176 7.80272 10.2306C7.72272 10.1666 7.63573 10.1026 7.54673 10.0446C7.45273 9.96956 7.37072 9.90757 7.28972 9.84457L6.20072 9.01657C6.19346 9.01089 6.18677 9.00452 6.18073 8.99756V8.96356C6.18598 8.94542 6.19337 8.92796 6.20273 8.91156C6.21173 8.90156 6.22972 8.87257 6.24672 8.85257C6.26372 8.83257 6.28172 8.79857 6.29772 8.79257C6.30961 8.78003 6.32267 8.76865 6.33672 8.75858C6.34096 8.75402 6.34641 8.75077 6.35242 8.74918C6.35844 8.74758 6.36479 8.74771 6.37073 8.74957C6.37073 8.74957 6.38573 8.75858 6.39373 8.75858L8.25373 10.1696C8.27211 10.1842 8.28798 10.2018 8.30072 10.2216C8.30484 10.2392 8.3102 10.2566 8.31673 10.2736C8.3156 10.2905 8.31154 10.3071 8.30472 10.3226C8.30056 10.3386 8.29306 10.3536 8.28272 10.3666L8.22173 10.4526C8.19273 10.4846 8.18072 10.5076 8.15772 10.5186C8.13472 10.5296 8.10973 10.5426 8.08373 10.5566C8.04843 10.5628 8.01245 10.5645 7.97672 10.5616C7.92912 10.5611 7.88177 10.5547 7.83573 10.5426L6.23572 10.2736L5.97272 10.2236C5.88671 10.209 5.80159 10.1896 5.71773 10.1656V10.1746C5.79373 10.2236 5.86972 10.2846 5.94872 10.3406C6.02772 10.3966 6.10872 10.4596 6.17972 10.5146L7.39772 11.4356L7.41672 11.4576C7.41783 11.4685 7.41611 11.4795 7.41173 11.4896C7.41111 11.5093 7.40328 11.5282 7.38973 11.5426C7.37709 11.5645 7.362 11.585 7.34473 11.6036C7.33071 11.6251 7.31498 11.6455 7.29772 11.6646C7.28492 11.6777 7.27047 11.6892 7.25472 11.6986C7.25179 11.7029 7.24771 11.7063 7.24294 11.7084C7.23817 11.7106 7.2329 11.7113 7.22773 11.7106C7.22773 11.7106 7.20372 11.7026 7.20372 11.6986L5.34273 10.2856C5.32463 10.2767 5.30912 10.2633 5.29773 10.2466C5.28635 10.23 5.27946 10.2107 5.27773 10.1906C5.27327 10.1511 5.28321 10.1113 5.30573 10.0786V10.0806ZM4.19973 11.8276C4.27552 11.6853 4.37727 11.5584 4.49973 11.4536C4.60954 11.3661 4.7383 11.3054 4.87572 11.2766C5.02295 11.2504 5.17412 11.2565 5.31873 11.2946C5.4958 11.3386 5.66627 11.4059 5.82572 11.4946C5.98966 11.5846 6.14239 11.6937 6.28072 11.8196C6.39355 11.9292 6.48361 12.06 6.54572 12.2046C6.60445 12.344 6.62616 12.4963 6.60872 12.6466C6.59364 12.8114 6.54317 12.971 6.46073 13.1146C6.38321 13.258 6.2794 13.3855 6.15473 13.4906C6.04756 13.5827 5.91715 13.6436 5.77773 13.6666C5.63055 13.6965 5.47837 13.691 5.33373 13.6506C5.15391 13.6042 4.98007 13.537 4.81572 13.4506C4.65332 13.3625 4.50363 13.2529 4.37073 13.1246C4.25762 13.014 4.16694 12.8826 4.10372 12.7376C4.05396 12.5996 4.03255 12.453 4.04073 12.3066C4.06286 12.1383 4.11682 11.9757 4.19973 11.8276ZM3.79973 25.4706C3.67801 25.4692 3.55941 25.4318 3.45887 25.3632C3.35833 25.2946 3.28033 25.1977 3.2347 25.0849C3.18907 24.972 3.17785 24.8482 3.20244 24.729C3.22703 24.6098 3.28635 24.5004 3.37291 24.4149C3.45948 24.3293 3.56942 24.2712 3.68891 24.248C3.8084 24.2247 3.93209 24.2373 4.04442 24.2842C4.15676 24.3311 4.25272 24.4102 4.32021 24.5115C4.3877 24.6128 4.42372 24.7318 4.42373 24.8536C4.4236 24.9352 4.40728 25.0159 4.37571 25.0911C4.34413 25.1663 4.29792 25.2345 4.23978 25.2917C4.18164 25.3489 4.1127 25.394 4.03699 25.4244C3.96128 25.4547 3.88029 25.4698 3.79873 25.4686L3.79973 25.4706ZM4.44773 20.5156C4.44958 20.5425 4.44688 20.5696 4.43973 20.5956C4.44046 20.6142 4.43668 20.6327 4.42873 20.6496C4.42873 20.6606 4.41373 20.6656 4.41073 20.6826H4.38273L1.95473 20.6216C1.95473 20.6216 1.93573 20.6056 1.93073 20.6056C1.92573 20.6056 1.90972 20.5866 1.90972 20.5746C1.90972 20.5626 1.90273 20.5486 1.89873 20.5256V20.4466C1.89646 20.4203 1.89646 20.3939 1.89873 20.3676C1.89873 20.3456 1.90572 20.3336 1.90772 20.3186L1.93172 20.2946C1.93947 20.2878 1.94947 20.2843 1.95972 20.2846L4.38672 20.3506C4.39196 20.3512 4.39702 20.3529 4.40151 20.3557C4.406 20.3584 4.40983 20.3622 4.41272 20.3666C4.42472 20.3666 4.42872 20.3806 4.43372 20.3916C4.43583 20.4098 4.43918 20.4278 4.44373 20.4456C4.44642 20.4681 4.44741 20.4909 4.44672 20.5136L4.44773 20.5156ZM4.66973 18.1356C4.66373 18.1706 4.65573 18.1926 4.65073 18.2216C4.64573 18.2506 4.62173 18.2626 4.59873 18.2886C4.57306 18.31 4.54599 18.3297 4.51772 18.3476C4.47972 18.3566 4.43772 18.3796 4.37972 18.3926L2.85573 18.9516C2.77573 18.9786 2.68973 19.0046 2.61173 19.0376C2.53373 19.0706 2.43573 19.0946 2.35573 19.1156C2.44873 19.1256 2.55073 19.1386 2.64373 19.1476C2.73673 19.1566 2.83873 19.1726 2.92873 19.1886L4.44773 19.3936C4.44773 19.3936 4.46473 19.3936 4.46773 19.3996C4.47279 19.4022 4.47697 19.4063 4.4798 19.4112C4.48264 19.4162 4.484 19.4219 4.48372 19.4276C4.48832 19.4442 4.49002 19.4614 4.48873 19.4786C4.49148 19.5047 4.48979 19.531 4.48372 19.5566C4.48056 19.5843 4.47522 19.6117 4.46773 19.6386C4.46456 19.6536 4.45916 19.6681 4.45173 19.6816C4.44593 19.6912 4.43923 19.7002 4.43172 19.7086C4.4225 19.7106 4.41294 19.7106 4.40372 19.7086L2.08773 19.4086C2.06749 19.4059 2.04808 19.3989 2.03081 19.3881C2.01355 19.3772 1.99884 19.3627 1.98772 19.3456C1.97708 19.3314 1.96947 19.3153 1.96534 19.2981C1.96121 19.2809 1.96065 19.263 1.96372 19.2456L1.98772 19.0916C1.9879 19.0571 1.9954 19.023 2.00972 18.9916C2.01715 18.9685 2.03104 18.948 2.04973 18.9326C2.0675 18.9091 2.09088 18.8906 2.11773 18.8786L2.22573 18.8346L3.40172 18.4096C3.47572 18.3856 3.54073 18.3606 3.61373 18.3336C3.68673 18.3066 3.74673 18.2916 3.81372 18.2696C3.88072 18.2476 3.94272 18.2206 4.00672 18.2016C4.07072 18.1826 4.13573 18.1586 4.19973 18.1386C4.09973 18.1206 3.98872 18.1166 3.88172 18.0966C3.77472 18.0766 3.66273 18.0696 3.55773 18.0556L2.20273 17.8776C2.19496 17.8753 2.18754 17.872 2.18073 17.8676C2.17113 17.8583 2.16363 17.847 2.15873 17.8346C2.15664 17.8176 2.15664 17.8005 2.15873 17.7836C2.1572 17.7559 2.1572 17.7282 2.15873 17.7006C2.16673 17.6746 2.16973 17.6486 2.17473 17.6316C2.17593 17.6138 2.18217 17.5969 2.19272 17.5826C2.20172 17.5636 2.20872 17.5596 2.22272 17.5566C2.23672 17.5536 2.23572 17.5506 2.24472 17.5506L4.55373 17.8596C4.57677 17.8633 4.59905 17.8707 4.61972 17.8816C4.63554 17.8904 4.64975 17.9019 4.66173 17.9156C4.66978 17.9328 4.67679 17.9505 4.68273 17.9686C4.68478 17.9862 4.68478 18.004 4.68273 18.0216L4.66973 18.1356ZM5.00173 16.8276C4.97946 16.8988 4.95274 16.9686 4.92173 17.0366C4.89438 17.0978 4.86087 17.1561 4.82172 17.2106C4.79207 17.2517 4.7586 17.2898 4.72173 17.3246C4.69932 17.346 4.67561 17.3661 4.65073 17.3846C4.63113 17.398 4.60737 17.4041 4.58373 17.4016C4.54947 17.405 4.51493 17.3991 4.48372 17.3846C4.46076 17.3818 4.43825 17.376 4.41672 17.3676C4.40072 17.3566 4.38272 17.3546 4.37572 17.3436C4.36872 17.3326 4.35972 17.3296 4.35172 17.3206V17.2896C4.36927 17.2655 4.3894 17.2433 4.41173 17.2236C4.43873 17.1996 4.47672 17.1656 4.51172 17.1236C4.5544 17.071 4.5938 17.0159 4.62972 16.9586C4.67443 16.8888 4.70816 16.8126 4.72973 16.7326C4.74524 16.6691 4.75264 16.6039 4.75173 16.5386C4.74819 16.4806 4.73431 16.4237 4.71073 16.3706C4.68749 16.3187 4.65135 16.2735 4.60573 16.2396C4.55875 16.2016 4.50309 16.1758 4.44373 16.1646C4.38256 16.1412 4.3149 16.1412 4.25373 16.1646C4.19366 16.1802 4.13793 16.2093 4.09073 16.2496C4.03735 16.2927 3.98933 16.342 3.94773 16.3966C3.89673 16.4486 3.84772 16.5066 3.79372 16.5636C3.74829 16.6253 3.69633 16.682 3.63872 16.7326C3.58526 16.7862 3.52346 16.8307 3.45572 16.8646C3.38853 16.9015 3.31545 16.9265 3.23972 16.9386C3.14848 16.9516 3.05548 16.9437 2.96773 16.9156C2.877 16.8967 2.79185 16.8572 2.71898 16.7999C2.64611 16.7426 2.58749 16.6693 2.54772 16.5856C2.51089 16.5036 2.49019 16.4153 2.48673 16.3256C2.48269 16.2245 2.4938 16.1234 2.51972 16.0256C2.53104 15.9726 2.54955 15.9215 2.57473 15.8736C2.60173 15.8216 2.62872 15.7736 2.65372 15.7306C2.67837 15.6924 2.70686 15.6569 2.73873 15.6246C2.75892 15.6002 2.78172 15.578 2.80672 15.5586L2.83472 15.5436H2.90772C2.92702 15.551 2.94719 15.5561 2.96773 15.5586C2.99173 15.5686 3.00973 15.5686 3.02973 15.5786C3.04387 15.585 3.05757 15.5923 3.07073 15.6006C3.08073 15.6056 3.09073 15.6096 3.09273 15.6246C3.09473 15.6396 3.09873 15.6386 3.09273 15.6456C3.08673 15.6526 3.08073 15.6796 3.05173 15.7056C3.02273 15.7316 2.99572 15.7576 2.96672 15.7926C2.92728 15.8323 2.89147 15.8755 2.85973 15.9216C2.82861 15.9806 2.80445 16.043 2.78772 16.1076C2.76954 16.1647 2.7634 16.225 2.76972 16.2846C2.77077 16.3333 2.78532 16.3807 2.81173 16.4216C2.81856 16.443 2.82959 16.4629 2.84418 16.4801C2.85877 16.4973 2.87664 16.5114 2.89673 16.5216C2.93996 16.5573 2.99121 16.5819 3.04609 16.5934C3.10096 16.6049 3.1578 16.6029 3.21172 16.5876C3.26895 16.566 3.32362 16.5382 3.37473 16.5046C3.42473 16.4606 3.47473 16.4046 3.52373 16.3556C3.57273 16.3066 3.62372 16.2386 3.67072 16.1876C3.71967 16.126 3.77316 16.0682 3.83072 16.0146C3.88455 15.9612 3.94465 15.9145 4.00972 15.8756C4.08298 15.8344 4.16398 15.8087 4.24761 15.8003C4.33124 15.7919 4.41572 15.8008 4.49573 15.8266C4.60043 15.8527 4.69852 15.9004 4.78373 15.9666C4.86153 16.0285 4.92442 16.1071 4.96773 16.1966C5.01136 16.2864 5.03457 16.3847 5.03573 16.4846C5.04444 16.6001 5.03259 16.7162 5.00072 16.8276H5.00173ZM5.30672 15.5406C5.26975 15.5531 5.2297 15.5531 5.19272 15.5406L3.09273 14.7226C3.07478 14.7167 3.05818 14.7073 3.04392 14.695C3.02966 14.6826 3.01804 14.6675 3.00972 14.6506C3.00144 14.6211 3.00144 14.59 3.00972 14.5606L3.42873 13.4736C3.42873 13.4736 3.43772 13.4626 3.45072 13.4546C3.46372 13.4466 3.46872 13.4546 3.46872 13.4546H3.52373C3.54483 13.4606 3.56553 13.468 3.58573 13.4766C3.60649 13.4805 3.62643 13.488 3.64472 13.4986C3.65817 13.5047 3.66911 13.5153 3.67572 13.5286C3.68472 13.5286 3.69373 13.5446 3.69373 13.5566V13.5826L3.33973 14.4766L4.08072 14.7646L4.38073 13.9966C4.38177 13.9916 4.38381 13.9869 4.38674 13.9828C4.38966 13.9787 4.3934 13.9752 4.39772 13.9726C4.40901 13.9717 4.41995 13.9683 4.42972 13.9626C4.44448 13.9629 4.45906 13.966 4.47272 13.9716C4.49383 13.9728 4.51423 13.9797 4.53173 13.9916C4.5502 13.9954 4.56804 14.0018 4.58472 14.0106C4.59697 14.0172 4.6084 14.0252 4.61873 14.0346C4.62424 14.0392 4.62855 14.045 4.63134 14.0516C4.63412 14.0582 4.63528 14.0654 4.63472 14.0726C4.63972 14.0796 4.63472 14.0886 4.63472 14.0906L4.33472 14.8566L5.17873 15.1846L5.53173 14.2846C5.53203 14.2796 5.53368 14.2749 5.5365 14.2708C5.53932 14.2668 5.5432 14.2636 5.54772 14.2616C5.55568 14.2543 5.56595 14.25 5.57673 14.2496C5.59143 14.2464 5.60677 14.2489 5.61972 14.2566C5.64161 14.2588 5.66333 14.2625 5.68473 14.2676C5.70573 14.2806 5.72972 14.2896 5.74172 14.2956C5.75424 14.3045 5.76567 14.3149 5.77573 14.3266C5.77573 14.3356 5.78972 14.3436 5.79172 14.3566C5.79434 14.3604 5.79575 14.3649 5.79575 14.3696C5.79575 14.3742 5.79434 14.3787 5.79172 14.3826L5.36773 15.4766C5.36241 15.4907 5.35413 15.5036 5.34343 15.5143C5.33274 15.525 5.31989 15.5333 5.30573 15.5386L5.30672 15.5406ZM20.9737 36.2866C17.9445 36.2838 14.9841 35.383 12.4668 33.6981C9.94942 32.0131 7.98811 29.6196 6.8308 26.8202C5.67349 24.0208 5.37212 20.9411 5.96479 17.9704C6.55745 14.9997 8.01755 12.2715 10.1605 10.1305C12.3035 7.98946 15.0331 6.53185 18.0043 5.94189C20.9755 5.35194 24.0549 5.65614 26.8533 6.81601C29.6516 7.97588 32.0433 9.93936 33.726 12.4583C35.4086 14.9771 36.3067 17.9383 36.3067 20.9676C36.3043 25.0321 34.6877 28.9293 31.8123 31.8021C28.9369 34.6748 25.0383 36.2879 20.9737 36.2866ZM36.6457 15.3646C36.6352 15.361 36.6253 15.3556 36.6167 15.3486C36.6078 15.3334 36.5998 15.3177 36.5927 15.3016C36.5782 15.2797 36.5681 15.2553 36.5627 15.2296C36.5502 15.2074 36.5424 15.1829 36.5397 15.1576C36.5397 15.1336 36.5277 15.1196 36.5277 15.1106C36.5283 15.0992 36.5325 15.0883 36.5397 15.0796C36.5397 15.0676 36.5517 15.0636 36.5627 15.0596L38.8367 14.2146C38.8466 14.212 38.8569 14.212 38.8667 14.2146C38.8757 14.2146 38.8827 14.2286 38.8957 14.2286C38.901 14.2474 38.9098 14.2651 38.9217 14.2806C38.9277 14.2996 38.9377 14.3186 38.9507 14.3486C38.9598 14.3721 38.9661 14.3966 38.9697 14.4216C38.9754 14.4384 38.9788 14.4559 38.9797 14.4736C38.9797 14.4896 38.9797 14.5006 38.9697 14.5006C38.9642 14.5089 38.9579 14.5166 38.9507 14.5236L36.6757 15.3656C36.6653 15.3692 36.6539 15.3688 36.6437 15.3646H36.6457ZM37.2597 17.3406C37.0675 17.0692 36.9795 16.7376 37.0117 16.4066C37.032 16.265 37.087 16.1307 37.1717 16.0156C37.264 15.8964 37.3806 15.7983 37.5137 15.7276C37.6761 15.6368 37.8505 15.5695 38.0317 15.5276C38.2093 15.4777 38.3934 15.4555 38.5777 15.4616C38.7336 15.4638 38.8874 15.4979 39.0297 15.5616C39.1628 15.6252 39.2798 15.7182 39.3717 15.8336C39.4735 15.9706 39.5457 16.1272 39.5837 16.2936C39.6262 16.4478 39.6364 16.6092 39.6137 16.7676C39.5945 16.9065 39.5417 17.0387 39.4597 17.1526C39.373 17.276 39.2564 17.3754 39.1207 17.4416C38.9608 17.5315 38.7892 17.5988 38.6107 17.6416C38.4315 17.6872 38.2476 17.7113 38.0627 17.7136C37.904 17.7084 37.7474 17.6745 37.6007 17.6136C37.4656 17.5522 37.3478 17.4585 37.2577 17.3406H37.2597ZM38.2077 25.4696C38.1267 25.4696 38.0465 25.4536 37.9716 25.4226C37.8967 25.3916 37.8287 25.3461 37.7714 25.2888C37.7141 25.2316 37.6687 25.1635 37.6377 25.0887C37.6067 25.0138 37.5907 24.9336 37.5907 24.8526C37.5907 24.7715 37.6067 24.6913 37.6377 24.6165C37.6687 24.5416 37.7141 24.4736 37.7714 24.4163C37.8287 24.359 37.8967 24.3135 37.9716 24.2825C38.0465 24.2515 38.1267 24.2356 38.2077 24.2356C38.3714 24.2356 38.5283 24.3006 38.644 24.4163C38.7597 24.532 38.8247 24.6889 38.8247 24.8526C38.8247 25.0162 38.7597 25.1731 38.644 25.2888C38.5283 25.4046 38.3714 25.4696 38.2077 25.4696ZM40.0967 20.0116C40.0887 20.0116 40.0807 20.0246 40.0707 20.0246L37.7487 20.2566C37.7262 20.2583 37.7037 20.2549 37.6827 20.2466C37.6656 20.2418 37.6497 20.2336 37.6357 20.2226C37.6243 20.2093 37.6149 20.1945 37.6077 20.1786C37.6035 20.161 37.5968 20.1442 37.5877 20.1286V20.0166C37.5877 19.9826 37.5877 19.9596 37.5877 19.9286C37.5939 19.9022 37.6033 19.8767 37.6157 19.8526C37.6357 19.8246 37.6596 19.7996 37.6867 19.7786C37.7227 19.7566 37.7577 19.7236 37.8117 19.6906L39.1647 18.8086C39.2317 18.7626 39.3067 18.7146 39.3817 18.6736C39.456 18.6212 39.5335 18.5734 39.6137 18.5306C39.5137 18.5396 39.4187 18.5486 39.3247 18.5656C39.2307 18.5826 39.1247 18.5816 39.0357 18.5906L37.5187 18.7436H37.4877C37.4877 18.7336 37.4747 18.7286 37.4647 18.7146C37.4547 18.7006 37.4577 18.6806 37.4527 18.6736C37.4448 18.6438 37.4394 18.6133 37.4367 18.5826C37.435 18.5566 37.435 18.5305 37.4367 18.5046C37.434 18.4894 37.434 18.4738 37.4367 18.4586C37.4414 18.4486 37.4471 18.4393 37.4537 18.4306C37.4615 18.4254 37.4704 18.4223 37.4797 18.4216L39.7977 18.1886C39.8184 18.1828 39.8403 18.183 39.8608 18.1892C39.8814 18.1954 39.8997 18.2073 39.9137 18.2236C39.9372 18.2464 39.9527 18.2762 39.9577 18.3086L39.9697 18.4656C39.9758 18.4986 39.9758 18.5325 39.9697 18.5656C39.9693 18.5912 39.9617 18.6161 39.9477 18.6376C39.9333 18.662 39.9147 18.6837 39.8927 18.7016C39.8667 18.7136 39.8397 18.7466 39.7927 18.7736L38.7447 19.4486C38.6827 19.4936 38.6227 19.5336 38.5617 19.5776C38.5007 19.6216 38.4377 19.6506 38.3807 19.6836C38.3237 19.7166 38.2587 19.7606 38.2077 19.7956C38.1567 19.8306 38.0907 19.8686 38.0307 19.9036C38.1379 19.8853 38.2461 19.8737 38.3547 19.8686C38.4607 19.8556 38.5687 19.8446 38.6677 19.8366L40.0367 19.6986C40.0455 19.6988 40.054 19.702 40.0607 19.7076C40.0707 19.7076 40.0827 19.7166 40.0847 19.7296C40.0867 19.7426 40.0947 19.7606 40.1037 19.7776C40.1127 19.7946 40.1107 19.8256 40.1107 19.8556C40.1148 19.8794 40.1175 19.9034 40.1187 19.9276C40.1187 19.9576 40.1107 19.9716 40.1107 19.9806C40.1076 19.9916 40.1022 20.0018 40.0947 20.0106L40.0967 20.0116Z" fill="white"/>
<path d="M28.0082 5.57157C28.0847 5.66829 28.184 5.74458 28.2972 5.79359C28.4088 5.84846 28.5318 5.87654 28.6562 5.87559C28.7642 5.87495 28.8693 5.83992 28.9562 5.77558C29.0562 5.71748 29.1436 5.63997 29.2132 5.54758C29.29 5.443 29.3569 5.33152 29.4132 5.21458C29.4692 5.09374 29.5148 4.96827 29.5492 4.83958C29.5815 4.73104 29.592 4.6172 29.5802 4.50458C29.5694 4.39902 29.5299 4.29839 29.4662 4.21357C29.3913 4.1175 29.2951 4.04016 29.1852 3.98759C29.0742 3.92911 28.9494 3.9018 28.8242 3.90858C28.7176 3.91726 28.6147 3.95158 28.5242 4.00858C28.4267 4.06821 28.341 4.14513 28.2712 4.23557C28.1958 4.34112 28.1289 4.45247 28.0712 4.56858C28.012 4.69039 27.9638 4.81722 27.9272 4.94758C27.8973 5.05964 27.8878 5.17615 27.8992 5.29157C27.9122 5.39237 27.9496 5.48847 28.0082 5.57157Z" fill="white"/>
<path d="M4.6213 12.9056C4.71789 12.9908 4.8247 13.0637 4.9393 13.1226C5.06005 13.1867 5.1854 13.2419 5.3143 13.2876C5.42278 13.325 5.538 13.339 5.65229 13.3285C5.75744 13.328 5.85996 13.2956 5.9463 13.2356C6.0438 13.1599 6.12434 13.0647 6.18274 12.956C6.24113 12.8473 6.27606 12.7276 6.28529 12.6045C6.28184 12.4956 6.25272 12.3891 6.2003 12.2936C6.14405 12.1918 6.06906 12.1015 5.97929 12.0275C5.88142 11.9429 5.77323 11.871 5.6573 11.8136C5.54151 11.7436 5.41668 11.6897 5.2863 11.6536C5.17763 11.618 5.06357 11.6018 4.94929 11.6056C4.84654 11.6175 4.74814 11.6539 4.66229 11.7116C4.55989 11.7778 4.47759 11.8708 4.4243 11.9806C4.35718 12.0859 4.3224 12.2086 4.32429 12.3335C4.32507 12.4413 4.35256 12.5471 4.40429 12.6416C4.46061 12.7416 4.53407 12.831 4.6213 12.9056Z" fill="white"/>
<path d="M16.3087 4.78155C16.4386 4.74832 16.562 4.69357 16.6738 4.61956C16.7627 4.55565 16.8336 4.46987 16.8797 4.37054C16.9293 4.26361 16.9555 4.14737 16.9567 4.02954C16.9544 3.87867 16.9294 3.72901 16.8828 3.58554C16.8544 3.46125 16.8061 3.34239 16.7397 3.23355C16.6822 3.1331 16.6037 3.04615 16.5098 2.97854C16.4167 2.9147 16.3104 2.87299 16.1987 2.85656C16.0599 2.84085 15.9192 2.85413 15.7858 2.89557L15.4688 2.98355L15.9908 4.86956L16.3087 4.78155Z" fill="white"/>
<path d="M21.9244 2.24857L21.4414 3.48056L22.2904 3.51556L21.9244 2.24857Z" fill="white"/>
<path d="M37.0683 11.2236L35.7812 11.5186L36.2203 12.2416L37.0683 11.2236Z" fill="white"/>
<path d="M34.3185 10.4916C34.4142 10.5441 34.5214 10.5719 34.6305 10.5726C34.7481 10.5754 34.8648 10.5511 34.9715 10.5016C35.1101 10.4442 35.239 10.3656 35.3535 10.2686C35.4506 10.1853 35.5387 10.0921 35.6165 9.99057C35.6845 9.89877 35.7329 9.79393 35.7585 9.68259C35.7804 9.57005 35.7756 9.45392 35.7445 9.34357C35.7041 9.20888 35.6336 9.08511 35.5385 8.98157L35.3305 8.72858L33.8125 9.95859L34.0235 10.2186C34.11 10.3216 34.2091 10.4133 34.3185 10.4916Z" fill="white"/>
<path d="M38.1373 17.3686C38.2667 17.3651 38.3953 17.3463 38.5203 17.3126C38.6485 17.2768 38.7741 17.2323 38.8963 17.1796C39.001 17.1305 39.0959 17.0627 39.1763 16.9796C39.2483 16.9023 39.2987 16.8075 39.3223 16.7046C39.3499 16.5854 39.3468 16.4612 39.3133 16.3436C39.284 16.2232 39.2272 16.1113 39.1473 16.0166C39.0699 15.943 38.9784 15.8858 38.8783 15.8486C38.7684 15.8126 38.6528 15.7973 38.5373 15.8036C38.4081 15.8099 38.2799 15.8286 38.1543 15.8596C38.0216 15.895 37.8922 15.9415 37.7673 15.9986C37.6624 16.045 37.5666 16.1097 37.4843 16.1896C37.4122 16.266 37.361 16.3597 37.3353 16.4616C37.3153 16.5833 37.3224 16.708 37.3563 16.8266C37.3845 16.9485 37.4415 17.062 37.5223 17.1576C37.5999 17.2349 37.6939 17.2936 37.7973 17.3296C37.9067 17.366 38.0225 17.3793 38.1373 17.3686Z" fill="white"/>
<path d="M20.8906 0.000579834C16.7375 0.000580004 12.6776 1.23206 9.22428 3.53931C5.77098 5.84655 3.07935 9.12593 1.48974 12.9628C-0.0998811 16.7997 -0.516098 21.0218 0.293706 25.0953C1.10351 29.1687 3.10296 32.9105 6.03927 35.8477C8.97557 38.7848 12.7169 40.7854 16.7901 41.5963C20.8633 42.4073 25.0855 41.9923 28.9228 40.4038C32.7602 38.8153 36.0403 36.1245 38.3486 32.6719C40.6568 29.2193 41.8894 25.1597 41.8906 21.0066C41.8914 18.2483 41.3488 15.5169 40.2938 12.9684C39.2388 10.4199 37.6921 8.10411 35.742 6.15344C33.7919 4.20278 31.4766 2.65539 28.9284 1.59967C26.3801 0.543947 23.6489 0.000579721 20.8906 0.000579834ZM20.9186 41.4146C16.8806 41.4144 12.9333 40.2168 9.57593 37.9733C6.21853 35.7297 3.60179 32.541 2.0566 28.8104C0.511409 25.0797 0.107167 20.9746 0.894994 17.0142C1.68282 13.0537 3.62733 9.41589 6.48264 6.56058C9.33795 3.70527 12.9758 1.76076 16.9362 0.972931C20.8966 0.185105 25.0017 0.589362 28.7324 2.13455C32.4631 3.67974 35.6518 6.29646 37.8953 9.65387C40.1389 13.0113 41.3364 16.9586 41.3366 20.9966C41.3308 26.4105 39.1774 31.601 35.3489 35.4289C31.5203 39.2569 26.3296 41.4096 20.9156 41.4146H20.9186Z" fill="white"/>
<path d="M32.1976 24.6816V25.6946H27.5676V17.5026H28.5816V16.1946H22.8086V17.5016H23.8226V25.6946H22.8086V26.9946H33.3396V24.6796L32.1976 24.6816ZM25.6926 14.8016C26.0978 14.8014 26.4938 14.6811 26.8306 14.4558C27.1674 14.2306 27.4298 13.9106 27.5848 13.5362C27.7398 13.1619 27.7803 12.75 27.7012 12.3526C27.6221 11.9552 27.427 11.5902 27.1405 11.3037C26.854 11.0172 26.489 10.8221 26.0916 10.743C25.6942 10.6639 25.2823 10.7044 24.9079 10.8594C24.5336 11.0143 24.2136 11.2768 23.9883 11.6136C23.7631 11.9504 23.6428 12.3464 23.6426 12.7516C23.6429 13.2949 23.8588 13.8159 24.243 14.2001C24.6272 14.5843 25.1482 14.8003 25.6916 14.8006L25.6926 14.8016Z" fill="#8A949E"/>
<path d="M22.8052 17.4996V16.1946H16.9462V21.0946H14.6092V16.1946H8.61719V17.5016H10.9072V25.6946H8.61719V26.9946H14.5672V22.2376H16.8792V26.9946H22.8052V25.6946H20.4712V17.5026L22.8052 17.4996ZM15.7762 14.7996C16.1813 14.7992 16.5772 14.6787 16.9139 14.4534C17.2506 14.228 17.5129 13.9079 17.6677 13.5336C17.8225 13.1592 17.8629 12.7473 17.7836 12.35C17.7044 11.9527 17.5092 11.5878 17.2227 11.3014C16.9362 11.015 16.5712 10.82 16.1738 10.7409C15.7765 10.6619 15.3646 10.7025 14.9903 10.8575C14.616 11.0125 14.296 11.2749 14.0709 11.6117C13.8457 11.9485 13.7254 12.3445 13.7252 12.7496C13.7252 13.0192 13.7783 13.2861 13.8816 13.5352C13.9849 13.7842 14.1362 14.0104 14.327 14.2009C14.5177 14.3914 14.7442 14.5424 14.9934 14.6453C15.2426 14.7482 15.5096 14.801 15.7792 14.8006L15.7762 14.7996Z" fill="white"/>
<path d="M18.8775 30.4656C18.772 30.5147 18.6622 30.5539 18.5495 30.5826C18.4879 30.5995 18.425 30.6109 18.3615 30.6166C18.3384 30.6194 18.3151 30.6141 18.2955 30.6016C18.2877 30.5878 18.2829 30.5724 18.2815 30.5566C18.2806 30.5467 18.2824 30.5368 18.2868 30.528C18.2913 30.5192 18.2981 30.5118 18.3065 30.5066C18.3383 30.4897 18.3718 30.4763 18.4065 30.4666H18.4155C18.5319 30.4399 18.6431 30.3939 18.7445 30.3306C18.8173 30.2828 18.8844 30.2267 18.9445 30.1636V30.1556C18.9735 30.1286 18.9925 30.1086 19.0075 30.0956C19.0204 30.09 19.0344 30.0869 19.0485 30.0866C19.0715 30.0866 19.0895 30.0866 19.0935 30.1076C19.1019 30.1217 19.1054 30.1382 19.1035 30.1546V31.9906C19.1035 32.0226 19.0885 32.0306 19.0565 32.0306H18.9205C18.9062 32.0313 18.8918 32.0313 18.8775 32.0306C18.8725 32.0256 18.8725 32.0066 18.8725 31.9936L18.8775 30.4656Z" fill="white"/>
<path d="M20.6777 31.0146C20.616 31.0626 20.5489 31.1032 20.4777 31.1356C20.4149 31.1639 20.3466 31.1782 20.2777 31.1776C20.2157 31.1797 20.154 31.1684 20.0967 31.1446C20.0407 31.1207 19.9895 31.0868 19.9457 31.0446C19.8973 30.9943 19.8601 30.9343 19.8367 30.8686C19.8082 30.7925 19.7937 30.7118 19.7937 30.6306C19.7899 30.5559 19.8014 30.4813 19.8275 30.4113C19.8537 30.3413 19.8939 30.2774 19.9457 30.2236C20.0031 30.17 20.0706 30.1285 20.1443 30.1014C20.2179 30.0743 20.2963 30.0621 20.3747 30.0657C20.4531 30.0692 20.53 30.0884 20.6009 30.122C20.6718 30.1556 20.7353 30.2031 20.7877 30.2616C20.8994 30.4273 20.9535 30.6251 20.9417 30.8246C20.9451 31.0215 20.9051 31.2168 20.8247 31.3966C20.6963 31.6669 20.4763 31.883 20.2037 32.0066C20.1226 32.046 20.0346 32.0691 19.9447 32.0746C19.9288 32.077 19.9125 32.0738 19.8987 32.0656C19.8787 32.0606 19.8747 32.0446 19.8747 32.0266C19.8747 32.0086 19.8747 31.9896 19.8927 31.9796C19.9228 31.9657 19.9539 31.9541 19.9857 31.9446H19.9937C20.0935 31.905 20.188 31.8529 20.2747 31.7896C20.436 31.663 20.5566 31.492 20.6217 31.2976C20.6534 31.2069 20.6726 31.1124 20.6787 31.0166L20.6777 31.0146ZM20.6777 30.6396C20.6679 30.5672 20.6491 30.4963 20.6217 30.4286C20.5986 30.3688 20.5599 30.3163 20.5097 30.2766C20.4641 30.2368 20.4052 30.2157 20.3447 30.2176C20.3021 30.2155 20.2596 30.2234 20.2207 30.2408C20.1818 30.2581 20.1475 30.2844 20.1207 30.3176C20.0581 30.3951 20.0267 30.4932 20.0327 30.5926C20.0304 30.6946 20.0621 30.7945 20.1227 30.8766C20.1503 30.9188 20.1886 30.9528 20.2338 30.9751C20.279 30.9975 20.3294 31.0073 20.3797 31.0036C20.4393 31.0036 20.4983 30.991 20.5527 30.9666C20.6015 30.9448 20.6469 30.9162 20.6877 30.8816L20.6927 30.8746C20.693 30.796 20.688 30.7175 20.6777 30.6396Z" fill="white"/>
<path d="M22.1648 31.0146C22.1032 31.0628 22.036 31.1034 21.9648 31.1356C21.8999 31.164 21.8296 31.1783 21.7588 31.1776C21.6977 31.1799 21.6369 31.1686 21.5808 31.1446C21.5242 31.1218 21.4728 31.0878 21.4298 31.0446C21.3799 30.9949 21.3417 30.9348 21.3178 30.8686C21.2894 30.7924 21.2745 30.7119 21.2738 30.6306C21.2712 30.5559 21.2836 30.4815 21.31 30.4116C21.3364 30.3418 21.3765 30.2779 21.4278 30.2236C21.4804 30.17 21.5438 30.1282 21.6138 30.1008C21.6838 30.0734 21.7587 30.061 21.8338 30.0646C21.9174 30.0606 22.0008 30.0767 22.077 30.1115C22.1532 30.1463 22.2199 30.1988 22.2718 30.2646C22.3823 30.4308 22.4363 30.6282 22.4258 30.8276C22.434 31.0073 22.4024 31.1867 22.3333 31.3528C22.2641 31.519 22.1591 31.6678 22.0258 31.7886C21.9255 31.8792 21.8119 31.9538 21.6888 32.0096C21.6063 32.0489 21.517 32.0719 21.4258 32.0776C21.4092 32.0802 21.3923 32.077 21.3778 32.0686C21.37 32.0656 21.3633 32.0602 21.3588 32.0532C21.3543 32.0462 21.3522 32.0379 21.3528 32.0296C21.352 32.0201 21.3539 32.0107 21.3583 32.0024C21.3628 31.994 21.3695 31.9872 21.3778 31.9826C21.4073 31.968 21.4381 31.9563 21.4698 31.9476C21.5694 31.9089 21.6633 31.8568 21.7488 31.7926C21.8283 31.7274 21.9008 31.654 21.9648 31.5736C22.02 31.4875 22.0656 31.3956 22.1008 31.2996C22.1334 31.2092 22.1523 31.1145 22.1568 31.0186L22.1648 31.0146ZM22.1648 30.6396C22.1532 30.5677 22.1351 30.4971 22.1108 30.4286C22.087 30.3689 22.0481 30.3165 21.9978 30.2766C21.9492 30.2378 21.8889 30.217 21.8268 30.2176C21.7844 30.2162 21.7423 30.2244 21.7037 30.2417C21.665 30.2591 21.6309 30.285 21.6038 30.3176C21.5448 30.3968 21.5148 30.4939 21.5188 30.5926C21.5174 30.6945 21.549 30.7941 21.6088 30.8766C21.6359 30.918 21.6735 30.9516 21.7177 30.9739C21.762 30.9962 21.8113 31.0064 21.8608 31.0036C21.922 31.0039 21.9827 30.9913 22.0388 30.9666C22.0879 30.9436 22.1342 30.9151 22.1768 30.8816V30.8746C22.1787 30.796 22.174 30.7174 22.1628 30.6396H22.1648Z" fill="white"/>
<path d="M23.3186 30.4656C23.2129 30.515 23.1027 30.5541 22.9896 30.5826C22.9298 30.5998 22.8685 30.6112 22.8066 30.6166C22.7736 30.6166 22.7506 30.6166 22.7416 30.6016C22.733 30.588 22.7279 30.5726 22.7266 30.5566C22.7266 30.5316 22.7346 30.5126 22.7506 30.5066C22.7823 30.4895 22.8158 30.4761 22.8506 30.4666H22.8626C22.9787 30.4398 23.0896 30.3938 23.1906 30.3306C23.2632 30.2825 23.3302 30.2264 23.3906 30.1636V30.1556C23.4176 30.1286 23.4386 30.1086 23.4496 30.0956C23.4632 30.0898 23.4778 30.0868 23.4926 30.0866C23.5176 30.0866 23.5316 30.0866 23.5416 30.1076C23.5473 30.1226 23.55 30.1385 23.5496 30.1546V31.9906C23.5496 32.0226 23.5366 32.0306 23.5086 32.0306H23.3666C23.3456 32.0306 23.3336 32.0306 23.3236 32.0306C23.3177 32.0191 23.3146 32.0065 23.3146 31.9936L23.3186 30.4656Z" fill="white"/>
<path d="M11.9563 38.4166L11.8472 38.3346C11.7772 38.2856 11.7302 38.2516 11.7032 38.2346L10.6562 37.5686L10.9332 37.1306C10.9941 37.0378 11.0502 36.942 11.1012 36.8436C11.1622 36.7436 11.1892 36.6926 11.2012 36.6846L11.4722 36.8596L11.0972 37.4426C11.0891 37.4544 11.0834 37.4678 11.0805 37.4818C11.0776 37.4959 11.0775 37.5105 11.0802 37.5246C11.0943 37.5519 11.1158 37.5748 11.1422 37.5906L12.1003 38.2066L11.9563 38.4166Z" fill="black"/>
<path d="M11.606 34.8726C11.5671 34.8468 11.5263 34.8241 11.484 34.8046C11.46 34.7896 11.4345 34.7772 11.408 34.7676L11.55 34.5466L12.058 34.8786C12.072 34.8895 12.0881 34.8976 12.1052 34.9022C12.1224 34.9069 12.1404 34.908 12.158 34.9056C12.1763 34.8939 12.1919 34.8786 12.204 34.8606C12.2189 34.8395 12.2322 34.8175 12.244 34.7946C12.259 34.7626 12.28 34.7236 12.3 34.6756L12.573 34.8486L12.461 35.0196C12.438 35.0606 12.433 35.0766 12.443 35.1056C12.4573 35.1316 12.4793 35.1526 12.506 35.1656L12.806 35.3576L12.993 35.4746L12.855 35.6826L12.612 35.5186C12.6343 35.6003 12.6407 35.6854 12.631 35.7696C12.6257 35.8514 12.5961 35.9297 12.546 35.9946C12.5015 36.0696 12.4396 36.1327 12.3654 36.1785C12.2912 36.2243 12.207 36.2515 12.12 36.2576C11.9256 36.2779 11.7302 36.2302 11.567 36.1226C11.3967 36.0188 11.2698 35.8568 11.21 35.6666C11.1779 35.5867 11.1658 35.5003 11.1747 35.4148C11.1836 35.3292 11.2132 35.2471 11.261 35.1756C11.3053 35.1028 11.3667 35.042 11.44 34.9986C11.5121 34.9588 11.5906 34.9321 11.672 34.9196L11.606 34.8726Z" fill="black"/>
<path d="M13.729 36.7606L13.316 36.5026C13.3087 36.4926 13.299 36.4845 13.2878 36.4791C13.2767 36.4737 13.2644 36.4711 13.252 36.4716C13.233 36.4716 13.213 36.4836 13.195 36.5086L12.831 37.0796C12.775 37.1636 12.737 37.2326 12.711 37.2796C12.6879 37.3192 12.6687 37.3611 12.654 37.4046L12.375 37.2296L13.175 35.9826C13.2388 35.8893 13.2972 35.7925 13.35 35.6926C13.401 35.5926 13.429 35.5406 13.434 35.5376L13.705 35.7106L13.414 36.1726C13.4047 36.1815 13.3987 36.1932 13.3971 36.206C13.3954 36.2187 13.3982 36.2316 13.405 36.2426C13.421 36.2619 13.4411 36.2773 13.464 36.2876L13.664 36.4236C13.7041 36.4431 13.7432 36.4648 13.781 36.4886L13.869 36.5326L13.729 36.7606Z" fill="black"/>
<path d="M17.6584 37.7656L18.6994 37.9196C18.7262 37.9276 18.7547 37.9276 18.7814 37.9196C18.7973 37.9038 18.8087 37.8842 18.8144 37.8626L18.8374 37.6626C18.8427 37.6513 18.8445 37.6387 18.8426 37.6264C18.8406 37.6141 18.835 37.6026 18.8264 37.5936C18.8054 37.5765 18.7795 37.5667 18.7524 37.5656L17.7054 37.4146L17.7464 37.1516C17.7464 37.1516 17.7914 37.1606 17.8754 37.1836C17.9594 37.2066 18.0654 37.2176 18.2174 37.2356L19.1834 37.3896L19.0594 38.2186L18.0124 38.0556C17.986 38.0528 17.9593 38.0577 17.9354 38.0696C17.9264 38.0763 17.919 38.0848 17.9136 38.0947C17.9083 38.1045 17.9051 38.1154 17.9044 38.1266L17.8714 38.3266C17.8701 38.3375 17.8711 38.3486 17.8744 38.3591C17.8777 38.3696 17.8831 38.3793 17.8904 38.3876C17.9086 38.4077 17.9335 38.4205 17.9604 38.4236L19.3954 38.6366C19.423 38.6388 19.4507 38.6347 19.4764 38.6246C19.488 38.6172 19.4973 38.607 19.5037 38.5949C19.51 38.5828 19.513 38.5692 19.5124 38.5556L19.6214 37.8396C19.6422 37.7233 19.6542 37.6057 19.6574 37.4876C19.6664 37.3786 19.6664 37.3216 19.6674 37.3156L19.9904 37.3736L19.7844 38.7516C19.7724 38.8516 19.7624 38.9336 19.7574 39.0116C19.7505 39.0653 19.7489 39.1195 19.7524 39.1736L19.4294 39.1246L19.4484 38.9856C19.4527 38.9584 19.4478 38.9306 19.4344 38.9066C19.4135 38.8889 19.3884 38.8768 19.3614 38.8716L17.5234 38.5976L17.6584 37.7656Z" fill="black"/>
<path d="M19.2991 40.5146C19.2351 40.4986 19.1521 40.4866 19.0431 40.4636L17.9531 40.3036L18.1231 39.1286C18.1852 39.1417 18.248 39.1511 18.3111 39.1566C18.4231 39.1826 18.5371 39.2016 18.6521 39.2196L19.6941 39.3716L19.5131 40.5516C19.4291 40.5406 19.3551 40.5286 19.2991 40.5146Z" fill="black"/>
<path d="M25.0193 38.4396L23.9283 38.7166L23.7173 37.8716C23.6933 37.8076 23.6703 37.7206 23.6293 37.6086C23.6037 37.5493 23.5839 37.4877 23.5703 37.4246L23.8903 37.3456L23.9653 37.6556C23.9763 37.6976 23.9923 37.7176 24.0143 37.7216C24.0258 37.7272 24.0385 37.7301 24.0513 37.7301C24.0641 37.7301 24.0768 37.7272 24.0883 37.7216L24.7423 37.5506C24.7646 37.5438 24.7851 37.5322 24.8023 37.5166C24.8233 37.5026 24.8253 37.4786 24.8203 37.4376L24.7403 37.1296L25.0273 37.0536L25.0773 37.2376C25.0863 37.2716 25.0983 37.2946 25.1203 37.2896C25.1476 37.2907 25.1748 37.288 25.2013 37.2816L25.6093 37.1816C25.6383 37.1646 25.6593 37.1596 25.6803 37.1466C25.6913 37.1351 25.6989 37.1208 25.7021 37.1052C25.7052 37.0896 25.704 37.0734 25.6983 37.0586C25.6883 37.0376 25.6983 37.0376 25.6983 37.0586C25.6983 37.0796 25.6983 37.0646 25.6853 37.0066C25.6672 36.9455 25.6459 36.8854 25.6213 36.8266C25.6053 36.7866 25.6003 36.7626 25.5953 36.7626L25.9093 36.6866L26.2663 38.0796C26.2854 38.158 26.3084 38.2355 26.3353 38.3116C26.3557 38.3535 26.3727 38.397 26.3863 38.4416L26.0733 38.5256L25.9433 38.0366C25.9433 38.0216 25.9263 38.0046 25.9093 37.9976C25.8866 37.9909 25.8627 37.9892 25.8393 37.9926L25.3973 38.1046C25.3726 38.109 25.3505 38.1226 25.3353 38.1426C25.3271 38.1486 25.3214 38.1575 25.3196 38.1676C25.3177 38.1776 25.3198 38.188 25.3253 38.1966L25.3693 38.3726C25.3603 38.3726 25.3133 38.3816 25.2253 38.3936C25.1373 38.4056 25.0673 38.4326 25.0193 38.4396Z" fill="black"/>
<path d="M26.5126 39.6766C26.3875 39.8434 26.2064 39.9594 26.0026 40.0036C25.8036 40.0593 25.5914 40.0438 25.4026 39.9596C25.3179 39.9243 25.2425 39.8698 25.1825 39.8004C25.1224 39.7309 25.0794 39.6485 25.0566 39.5596C25.0342 39.4713 25.0332 39.379 25.0538 39.2903C25.0743 39.2015 25.1157 39.119 25.1746 39.0496C25.2987 38.8846 25.4749 38.7666 25.6746 38.7146C25.8749 38.6658 26.0855 38.6837 26.2746 38.7656C26.3605 38.7988 26.4371 38.8521 26.4983 38.9208C26.5595 38.9896 26.6034 39.0719 26.6265 39.161C26.6496 39.2502 26.6511 39.3435 26.6309 39.4333C26.6108 39.5231 26.5696 39.6069 26.5106 39.6776L26.5126 39.6766Z" fill="black"/>
<path d="M29.5297 34.7946C29.5872 34.6257 29.7041 34.4835 29.8587 34.3946C30.0032 34.2901 30.182 34.2447 30.3587 34.2676C30.4381 34.2749 30.5148 34.3001 30.5832 34.3411C30.6516 34.3821 30.7099 34.438 30.7537 34.5046C30.7962 34.5709 30.8224 34.6463 30.8303 34.7247C30.8381 34.803 30.8273 34.8821 30.7987 34.9556C30.7427 35.1267 30.6289 35.2731 30.4767 35.3696C30.3233 35.465 30.1426 35.5072 29.9627 35.4895C29.8849 35.4811 29.8099 35.4559 29.7427 35.4157C29.6755 35.3755 29.6179 35.3212 29.5737 35.2566C29.5318 35.188 29.5061 35.1107 29.4985 35.0306C29.4909 34.9506 29.5015 34.8699 29.5297 34.7946Z" fill="black"/>
<path d="M30.646 36.0056C30.593 35.9296 30.565 35.8696 30.555 35.8566C30.5435 35.8387 30.5281 35.8237 30.51 35.8126C30.494 35.7956 30.464 35.8126 30.422 35.8386L30.146 36.0156C30.0897 36.05 30.0353 36.0874 29.983 36.1276C29.9 36.1856 29.85 36.2156 29.842 36.2206L29.707 36.0096L31.426 34.9096C31.4359 34.8996 31.4446 34.8885 31.452 34.8766C31.4601 34.8669 31.4645 34.8547 31.4645 34.8421C31.4645 34.8295 31.4601 34.8173 31.452 34.8076L31.101 34.2656C31.034 34.1656 30.967 34.0656 30.906 33.9856C30.8674 33.9382 30.8313 33.8888 30.798 33.8376L31.075 33.6616L32.056 35.2026C32.0886 35.2581 32.1261 35.3106 32.168 35.3596C32.189 35.3857 32.2129 35.4096 32.239 35.4306L31.953 35.6086L31.868 35.4706C31.863 35.4556 31.853 35.4516 31.83 35.4516C31.807 35.4516 31.807 35.4566 31.785 35.4676L31.263 35.7956L31.129 35.5956L31.658 35.2556C31.667 35.2446 31.681 35.2356 31.685 35.2186C31.6905 35.213 31.6936 35.2054 31.6936 35.1976C31.6936 35.1897 31.6905 35.1822 31.685 35.1766L31.652 35.1156C31.6478 35.1078 31.6418 35.1013 31.6345 35.0964C31.6272 35.0915 31.6188 35.0884 31.61 35.0876C31.59 35.0899 31.5712 35.0983 31.556 35.1116L30.845 35.5646C30.8205 35.5746 30.8003 35.593 30.788 35.6166C30.7844 35.6288 30.7837 35.6418 30.7862 35.6543C30.7886 35.6668 30.7941 35.6786 30.802 35.6886L31.023 36.0366L30.745 36.2126C30.7197 36.1401 30.6865 36.0707 30.646 36.0056Z" fill="black"/>
<path d="M32.5421 36.5326L31.4901 37.1996L31.173 36.7166C31.1283 36.6419 31.0785 36.5704 31.0241 36.5026C30.9581 36.4026 30.9241 36.3516 30.9141 36.3446L31.1871 36.1716L31.5681 36.7666C31.5739 36.7779 31.5828 36.7874 31.5937 36.794C31.6047 36.8005 31.6173 36.8038 31.6301 36.8036C31.6621 36.8004 31.6926 36.7882 31.7181 36.7686L32.673 36.1686L32.8141 36.3686L32.5421 36.5326Z" fill="black"/>
<path d="M19.3514 39.5776C19.3284 39.561 19.3008 39.5519 19.2724 39.5516L18.4984 39.4356C18.4727 39.4319 18.4466 39.4372 18.4244 39.4506C18.4128 39.4558 18.403 39.4644 18.3964 39.4753C18.3898 39.4862 18.3867 39.4988 18.3874 39.5116L18.3174 40.0336C18.3143 40.0534 18.3186 40.0737 18.3294 40.0906C18.3511 40.1072 18.3765 40.1182 18.4034 40.1226L19.1784 40.2296C19.1916 40.2341 19.2057 40.2359 19.2196 40.2347C19.2336 40.2335 19.2471 40.2293 19.2594 40.2226C19.2682 40.2101 19.2756 40.1967 19.2814 40.1826L19.3564 39.6426C19.3614 39.6209 19.3597 39.5982 19.3514 39.5776Z" fill="white"/>
<path d="M25.8825 37.7376C25.8907 37.7289 25.8967 37.7184 25.9001 37.7069C25.9034 37.6954 25.9039 37.6833 25.9015 37.6716L25.8426 37.4716C25.8426 37.4446 25.8275 37.4236 25.8045 37.4236C25.7941 37.417 25.7824 37.4127 25.7701 37.411C25.7579 37.4093 25.7454 37.4102 25.7335 37.4136L25.3036 37.5266C25.276 37.5344 25.2504 37.548 25.2286 37.5666C25.2218 37.5762 25.2174 37.5873 25.2157 37.5989C25.2139 37.6105 25.2149 37.6224 25.2185 37.6336L25.2756 37.8336C25.278 37.8447 25.2837 37.8549 25.2919 37.8629C25.3 37.8709 25.3103 37.8763 25.3215 37.8786C25.3444 37.885 25.3687 37.885 25.3916 37.8786L25.8276 37.7666C25.8426 37.7566 25.8655 37.7456 25.8825 37.7376Z" fill="white"/>
<path d="M24.971 37.8506C24.9708 37.8384 24.967 37.8266 24.96 37.8166C24.9531 37.8066 24.9433 37.799 24.932 37.7946C24.9056 37.7862 24.8773 37.7862 24.851 37.7946L24.202 37.9726C24.1882 37.9729 24.1748 37.9765 24.1628 37.9831C24.1508 37.9897 24.1405 37.9992 24.133 38.0106C24.1254 38.0202 24.1204 38.0315 24.1183 38.0436C24.1162 38.0556 24.1171 38.068 24.121 38.0796L24.196 38.3546C24.1973 38.3647 24.2016 38.3741 24.2081 38.3819C24.2147 38.3897 24.2233 38.3955 24.233 38.3986C24.2445 38.4076 24.2588 38.4125 24.2735 38.4125C24.2881 38.4125 24.3024 38.4076 24.314 38.3986L24.964 38.2246C24.9783 38.2247 24.9923 38.221 25.0048 38.214C25.0172 38.207 25.0276 38.1969 25.035 38.1846C25.045 38.1646 25.053 38.1486 25.044 38.1326L24.971 37.8506Z" fill="white"/>
<path d="M26.0965 38.9886C25.9762 38.9346 25.8402 38.9268 25.7145 38.9666C25.587 38.9962 25.4743 39.0703 25.3965 39.1756C25.3591 39.2191 25.3331 39.2712 25.3207 39.3272C25.3083 39.3832 25.31 39.4414 25.3255 39.4966C25.3419 39.5513 25.3709 39.6014 25.4101 39.6429C25.4494 39.6844 25.4978 39.7161 25.5515 39.7356C25.6668 39.7889 25.7976 39.7985 25.9195 39.7626C26.0458 39.7337 26.1582 39.662 26.2375 39.5596C26.2739 39.5145 26.2993 39.4616 26.3114 39.4049C26.3236 39.3483 26.3223 39.2896 26.3075 39.2336C26.2949 39.1787 26.2691 39.1277 26.2323 39.085C26.1955 39.0423 26.1489 39.0092 26.0965 38.9886Z" fill="white"/>
<path d="M30.2971 35.1636C30.3877 35.1064 30.4556 35.0194 30.4891 34.9176C30.5053 34.8737 30.5111 34.8266 30.5059 34.78C30.5007 34.7335 30.4846 34.6888 30.4591 34.6496C30.4323 34.6114 30.3976 34.5794 30.3574 34.5558C30.3172 34.5321 30.2725 34.5174 30.2261 34.5126C30.122 34.5084 30.0193 34.5368 29.9322 34.5938C29.845 34.6508 29.7779 34.7336 29.7401 34.8306C29.7249 34.8753 29.7195 34.9227 29.7244 34.9696C29.7292 35.0166 29.7441 35.0619 29.7681 35.1026C29.795 35.1408 29.8302 35.1725 29.8711 35.1954C29.9119 35.2182 29.9574 35.2316 30.0041 35.2346C30.1068 35.2426 30.2094 35.2178 30.2971 35.1636Z" fill="white"/>
<path d="M11.771 35.9026C11.872 35.9712 11.9958 35.9977 12.116 35.9766C12.1683 35.9734 12.2192 35.9584 12.2649 35.9328C12.3106 35.9071 12.35 35.8715 12.38 35.8286C12.4098 35.7812 12.4284 35.7277 12.4343 35.672C12.4402 35.6164 12.4333 35.5601 12.414 35.5076C12.3745 35.3944 12.2971 35.2983 12.195 35.2356C12.1449 35.1992 12.0881 35.1733 12.0278 35.1592C11.9675 35.1451 11.905 35.1432 11.844 35.1536C11.7913 35.1604 11.7405 35.178 11.6947 35.2051C11.649 35.2323 11.6093 35.2685 11.578 35.3116C11.5515 35.3565 11.5357 35.407 11.5321 35.4591C11.5284 35.5112 11.537 35.5634 11.557 35.6116C11.5896 35.7318 11.6659 35.8356 11.771 35.9026Z" fill="white"/>
</g>
<defs>
<clipPath id="clip0_1637_8571">
<rect width="278" height="42" fill="white"/>
</clipPath>
</defs>
</svg>
