<svg width="206" height="44" viewBox="0 0 206 44" fill="none" xmlns="http://www.w3.org/2000/svg">
<g clip-path="url(#clip0_1637_8371)">
<path d="M5.33968 16.2538C8.36102 16.545 8.10352 17.4613 10.2493 19.6022C13.1162 22.4539 15.9229 22.608 17.9228 21.0409C16.7212 20.6726 15.3307 19.6793 14.5582 18.9428C12.3866 16.9132 11.7858 14.2157 5.37402 16.0654C5.09077 16.1339 5.15085 16.2367 5.33968 16.2538Z" fill="white"/>
<path d="M70.8985 11.972C61.1393 7.6302 51.1569 10.0794 43.14 17.2386C35.3206 24.2094 29.9732 32.4134 19.4844 32.5932C27.5098 35.3764 43.346 34.3316 52.0324 25.6652C52.2641 25.4255 52.0839 25.4597 51.938 25.5368C46.9167 28.5769 38.96 30.0669 35.5352 28.9451C44.6335 23.079 51.895 12.8026 70.8556 12.3659C71.5595 12.2888 71.5251 12.2546 70.8985 11.972Z" fill="white"/>
<path d="M18.7458 27.9603C16.9691 27.9859 15.1408 26.9926 14.0593 26.2647C12.48 25.2113 11.3642 23.687 10.1453 22.4881C8.14542 20.527 4.79792 19.0712 0.214421 20.8953C-0.0344954 20.998 -0.0859954 21.1179 0.162921 21.1265C4.36875 21.3406 4.22284 21.8458 7.75059 25.7594C10.1453 28.4056 16.497 29.1506 18.7458 27.9603Z" fill="white"/>
<path d="M62.5042 7.02215C61.0107 6.1401 55.4316 3.27984 49.9812 3.84504C47.1658 4.13621 44.7024 4.88124 42.2304 6.65392C41.0631 7.39895 40.2562 7.97272 39.5524 8.4951C39.4923 8.53792 39.2262 8.74345 39.1404 8.80339C36.9087 10.4562 34.9517 11.2783 33.8188 11.6465C33.4153 11.7664 33.0634 11.8692 32.7887 11.9377C36.4452 7.2705 40.385 2.80028 45.2432 0.899148C45.3977 0.839203 45.3891 0.650803 45.2346 0.607984C39.3293 -0.873526 33.1407 -0.0428517 28.2739 7.43321C22.7205 15.9369 19.4073 26.0848 11.7424 22.4196C16.4804 26.9241 22.3257 24.9715 27.3555 18.8999C28.0593 18.035 28.7803 17.1358 29.4842 16.2195L30.3253 15.1319C32.7201 14.9521 34.4882 14.3783 35.4925 13.9501L33.8359 16.2195C28.334 23.747 20.9609 32.773 10 28.3114C22.6518 36.7037 32.1107 24.629 36.8057 20.2187C42.6252 14.7637 48.4705 7.78432 62.5214 7.39895C62.839 7.39039 63.0707 7.35613 62.5042 7.02215Z" fill="#8A949E"/>
<path d="M133.324 19.1054C132.68 18.7715 132.165 18.4632 131.779 18.172C131.384 17.8894 130.963 17.5297 130.5 17.1016C130.011 16.6391 129.633 16.2366 129.367 15.8941C129.118 15.5515 128.929 15.2689 128.818 15.0463C128.715 15.3032 128.517 15.62 128.217 16.0054C127.916 16.3822 127.487 16.8361 126.946 17.3585C126.491 17.8123 126.037 18.2063 125.564 18.5659C125.075 18.9256 124.5 19.2853 123.813 19.6535L122.062 17.8894C122.904 17.3756 123.693 16.8104 124.423 16.1767C125.144 15.543 125.728 14.8836 126.157 14.1985C126.509 13.6247 126.792 12.9482 127.006 12.1603C127.23 11.3725 127.324 10.5418 127.324 9.66831V7.94702H130.294V9.83102C130.294 10.6274 130.397 11.4153 130.594 12.2032C130.8 12.991 131.075 13.659 131.427 14.2156C131.796 14.7894 132.277 15.3374 132.886 15.8598C133.496 16.3822 134.182 16.8446 134.946 17.2386L133.324 19.1054Z" fill="white"/>
<path d="M135.152 27.0782C134.534 27.6006 133.822 27.8575 133.007 27.8575C132.183 27.8575 131.487 27.6006 130.912 27.0782C130.337 26.5644 130.054 25.9392 130.054 25.2113C130.054 24.4663 130.354 23.8326 130.955 23.3188C131.556 22.7964 132.268 22.5395 133.084 22.5395C133.908 22.5395 134.603 22.7878 135.187 23.3188C135.779 23.8326 136.071 24.4663 136.071 25.2113C136.071 25.9392 135.762 26.5644 135.152 27.0782ZM137.513 21.6831C136.311 20.7154 134.843 20.2273 133.092 20.2273C131.367 20.2273 129.899 20.7069 128.689 21.6831C127.488 22.6508 126.887 23.8326 126.887 25.2113C126.887 26.5815 127.488 27.7462 128.689 28.7139C129.899 29.6816 131.367 30.1697 133.092 30.1697C134.843 30.1697 136.311 29.6816 137.513 28.7139C138.706 27.7462 139.307 26.573 139.307 25.2113C139.307 23.8326 138.706 22.6422 137.513 21.6831Z" fill="white"/>
<path d="M137.009 7.46747H139.79V20.4671H137.009V13.5048H133.129V11.1927H137.009V7.46747Z" fill="white"/>
<path d="M158.928 7.46747H161.701V20.1759H158.928V7.46747ZM151.71 26.7528H158.834V23.4215H151.71V26.7528ZM148.903 21.1779H161.632V29.005H148.903V21.1779ZM155.435 18.84C154.817 18.5231 154.285 18.2148 153.864 17.9151C153.443 17.6154 153.031 17.2728 152.628 16.8875C152.139 16.4165 151.753 15.9969 151.486 15.6629C151.203 15.3203 151.032 15.0292 150.903 14.7894C150.826 15.012 150.628 15.3203 150.293 15.7143C149.967 16.1167 149.598 16.5364 149.178 16.956C148.714 17.4184 148.233 17.8466 147.718 18.232C147.212 18.6259 146.611 19.0113 145.907 19.3881L144.156 17.6154C145.057 17.0673 145.864 16.4507 146.603 15.7828C147.341 15.1148 147.916 14.4211 148.353 13.6847C148.671 13.1452 148.929 12.4943 149.135 11.7236C149.332 10.9443 149.435 10.1736 149.435 9.40285V7.94703H152.405V9.57412C152.405 10.302 152.508 11.0471 152.705 11.8007C152.903 12.5543 153.152 13.2137 153.461 13.7703C153.83 14.3955 154.319 14.9778 154.937 15.5344C155.546 16.0911 156.259 16.5706 157.057 16.9817L155.435 18.84Z" fill="white"/>
<path d="M173.838 16.8875H169.761V13.719H173.838V16.8875ZM173.838 8.23822V11.501H169.761V8.23822H166.988V19.1312H176.61V8.23822H173.838Z" fill="white"/>
<path d="M178.979 27.0782C178.378 27.6006 177.666 27.8575 176.85 27.8575C176.035 27.8575 175.348 27.6006 174.773 27.0782C174.198 26.5644 173.924 25.9392 173.924 25.2113C173.924 24.4663 174.224 23.8326 174.816 23.3188C175.426 22.7964 176.112 22.5395 176.936 22.5395C177.752 22.5395 178.447 22.7878 179.031 23.3188C179.606 23.8326 179.898 24.4663 179.898 25.2113C179.898 25.9392 179.589 26.5644 178.979 27.0782ZM181.322 21.6831C180.129 20.7154 178.67 20.2273 176.936 20.2273C175.228 20.2273 173.76 20.7069 172.567 21.6831C171.366 22.6508 170.773 23.8326 170.773 25.2113C170.773 26.5815 171.374 27.7462 172.567 28.7139C173.76 29.6816 175.228 30.1697 176.936 30.1697C178.67 30.1697 180.129 29.6816 181.322 28.7139C182.507 27.7462 183.108 26.573 183.108 25.2113C183.108 23.8326 182.507 22.6422 181.322 21.6831Z" fill="white"/>
<path d="M180.801 7.46747H183.582V20.5356H180.801V17.0074H177.453V14.7894H180.801V12.7684H177.522V10.5504H180.801V7.46747Z" fill="white"/>
<path d="M77.6367 18.6002C78.5895 18.1891 79.5079 17.6924 80.392 17.1358C81.2761 16.5706 82.0743 15.9455 82.7781 15.2518C83.4734 14.5753 84.0571 13.8474 84.5206 13.0681C84.9926 12.2888 85.2759 11.4838 85.3961 10.6446H78.7783V8.36664H88.8036C88.6921 9.74538 88.4088 11.0385 87.9625 12.2374C87.5161 13.4278 86.8981 14.5239 86.1256 15.5258C85.3016 16.5877 84.3146 17.5297 83.1558 18.3518C81.9971 19.174 80.701 19.8762 79.2676 20.4414L77.6367 18.6002Z" fill="white"/>
<path d="M90.1352 27.044C89.5258 27.5663 88.7962 27.8318 87.9808 27.8318C87.1568 27.8318 86.4529 27.5749 85.8693 27.044C85.2856 26.5216 85.0024 25.8879 85.0024 25.1514C85.0024 24.3978 85.3028 23.7555 85.9122 23.2331C86.5216 22.7193 87.234 22.4453 88.058 22.4453C88.882 22.4453 89.5944 22.7108 90.1781 23.2331C90.7704 23.7555 91.0622 24.3978 91.0622 25.1514C91.0622 25.8964 90.7532 26.5216 90.1352 27.044ZM92.5128 21.5889C91.3025 20.6127 89.8262 20.116 88.058 20.116C86.3156 20.116 84.8393 20.6127 83.629 21.5889C82.4102 22.5652 81.8008 23.7641 81.8008 25.1514C81.8008 26.5301 82.4102 27.7119 83.629 28.6882C84.8393 29.673 86.3242 30.1611 88.058 30.1611C89.8176 30.1611 91.3025 29.6644 92.5128 28.6882C93.7144 27.7119 94.3239 26.5301 94.3239 25.1514C94.3239 23.7641 93.7144 22.5652 92.5128 21.5889Z" fill="white"/>
<path d="M97.6023 12.1689V14.5325H94.5638V19.9961H91.7656V7.25336H94.5638V12.1689H97.6023Z" fill="white"/>
<path d="M111.688 27.1896C111.078 27.6863 110.357 27.926 109.507 27.926C108.683 27.926 107.971 27.6777 107.387 27.181C106.804 26.6843 106.503 26.0934 106.503 25.3998C106.503 24.6804 106.804 24.0724 107.413 23.5757C108.022 23.0876 108.743 22.8392 109.585 22.8392C110.434 22.8392 111.147 23.0876 111.722 23.5843C112.297 24.0895 112.589 24.6804 112.589 25.3912C112.597 26.102 112.297 26.7014 111.688 27.1896ZM114.031 22.0086C112.812 21.0751 111.336 20.6041 109.593 20.6041C107.868 20.6041 106.392 21.0751 105.164 22.0086C103.945 22.9506 103.327 24.081 103.327 25.3912C103.327 26.6929 103.937 27.8062 105.164 28.7567C106.392 29.6987 107.868 30.1697 109.593 30.1697C111.344 30.1697 112.821 29.6987 114.031 28.7567C115.241 27.8147 115.85 26.7014 115.85 25.3912C115.85 24.081 115.241 22.9506 114.031 22.0086ZM110.889 17.6154V15.5601H115.765V13.325H106.023V10.2678H115.541V7.95563H103.259V15.5687H108.134V17.624H99.4648V19.9105H119.533V17.624H110.889V17.6154Z" fill="white"/>
<path d="M198.274 22.2654V20.1673H202.806V7.49316H205.612V24.0467H202.806V22.2654H198.274ZM195.879 23.3702V26.8898H205.75V29.2277H193.055V23.3702H195.879ZM196.222 10.499C195.707 10.0109 195.141 9.76252 194.531 9.76252C193.931 9.76252 193.373 10.0023 192.849 10.499C192.325 10.9871 192.068 11.5866 192.068 12.2888C192.068 12.9825 192.325 13.5733 192.849 14.0615C193.373 14.5496 193.931 14.7979 194.531 14.7979C195.141 14.7979 195.707 14.5496 196.222 14.0615C196.737 13.5733 196.995 12.9825 196.995 12.2888C196.995 11.5866 196.737 10.9871 196.222 10.499ZM190.738 8.88047C191.776 7.93847 193.046 7.46747 194.531 7.46747C196.016 7.46747 197.269 7.93847 198.325 8.88047C199.372 9.81391 199.896 10.9529 199.896 12.2888C199.896 13.6076 199.347 14.7123 198.257 15.6029C197.158 16.5021 195.922 16.9389 194.54 16.9389C193.132 16.9389 191.896 16.5021 190.806 15.6029C189.725 14.7123 189.175 13.6076 189.175 12.2888C189.167 10.9529 189.699 9.82247 190.738 8.88047ZM192.403 19.6364L187.527 19.6621V17.4698H191.562C193.184 17.4698 195.055 17.4013 197.158 17.2814C199.269 17.1529 200.892 17.0245 202.016 16.896V19.0369C201.398 19.1226 200.523 19.1997 199.398 19.2939C198.282 19.3795 197.124 19.4651 195.913 19.5422V22.4538H193.038V19.645H192.403V19.6364Z" fill="white"/>
<path d="M78.5625 34.4943H79.4895V37.9969H79.5238C79.7127 37.7143 79.9015 37.4573 80.0903 37.2176L82.2791 34.4943H83.4292L80.8371 37.5772L83.6267 41.7563H82.5366L80.1933 38.1938L79.5067 38.9902V41.7563H78.5797V34.4943H78.5625Z" fill="white"/>
<path d="M86.647 39.093C85.6256 39.0673 84.4668 39.2557 84.4668 40.2662C84.4668 40.8914 84.8702 41.174 85.3337 41.174C86.0118 41.174 86.4496 40.7458 86.5955 40.3005C86.6298 40.2063 86.6384 40.0949 86.6384 40.0007V39.093H86.647ZM87.5568 40.506C87.5568 40.9599 87.574 41.3966 87.6341 41.7563H86.7929L86.7071 41.0969H86.6728C86.3981 41.5079 85.8316 41.8762 85.102 41.8762C84.0634 41.8762 83.5312 41.1311 83.5312 40.3775C83.5312 39.1187 84.6385 38.425 86.6212 38.4422V38.3308C86.6212 37.9027 86.5011 37.1148 85.4539 37.1234C84.9647 37.1234 84.4668 37.2604 84.1063 37.5087L83.8917 36.875C84.3123 36.6095 84.9389 36.4211 85.5913 36.4211C87.1706 36.4211 87.5568 37.5087 87.5568 38.5535V40.506Z" fill="white"/>
<path d="M88.5273 37.954C88.5273 37.406 88.5187 36.9778 88.4844 36.541H89.3084L89.3599 37.3888H89.377C89.6345 36.9007 90.2268 36.4211 91.0765 36.4211C91.789 36.4211 92.8876 36.8493 92.8876 38.6391V41.7477H91.952V38.7419C91.952 37.9027 91.643 37.1919 90.759 37.1919C90.1581 37.1919 89.6775 37.6372 89.5058 38.1596C89.4629 38.2795 89.4457 38.4507 89.4457 38.6049V41.7477H88.5101V37.954H88.5273Z" fill="white"/>
<path d="M97.3508 38.5878C97.3508 38.4336 97.3422 38.2966 97.2993 38.1681C97.1277 37.6115 96.6813 37.1576 95.9947 37.1576C95.102 37.1576 94.4668 37.9198 94.4668 39.1358C94.4668 40.1463 94.9904 41.0113 95.9861 41.0113C96.5698 41.0113 97.0933 40.643 97.2822 40.035C97.3337 39.8809 97.3594 39.701 97.3594 39.5298V38.5878H97.3508ZM98.2864 40.9856C98.2864 42.1931 98.0375 42.9124 97.5568 43.3748C97.0504 43.8373 96.3294 44 95.6771 44C95.0591 44 94.381 43.8458 93.969 43.5718L94.2007 42.8353C94.5355 43.058 95.0677 43.2549 95.7114 43.2549C96.6642 43.2549 97.368 42.7497 97.368 41.4223V40.8486H97.3508C97.0762 41.3367 96.5097 41.7221 95.72 41.7221C94.4411 41.7221 93.5312 40.6259 93.5312 39.1701C93.5312 37.406 94.6642 36.4126 95.8573 36.4126C96.75 36.4126 97.2307 36.875 97.4624 37.3032H97.4882L97.5225 36.5325H98.3465C98.3122 36.9007 98.3036 37.3203 98.3036 37.9541V40.9856H98.2864Z" fill="white"/>
<path d="M102.802 38.6648C102.802 38.5364 102.793 38.3822 102.759 38.2538C102.621 37.6629 102.115 37.1662 101.411 37.1662C100.441 37.1662 99.8747 38.0311 99.8747 39.1701C99.8747 40.232 100.398 41.1055 101.394 41.1055C102.021 41.1055 102.596 40.6773 102.759 39.9751C102.793 39.8466 102.802 39.7182 102.802 39.564V38.6648ZM103.737 34.109V40.4032C103.737 40.8657 103.746 41.3966 103.78 41.7477H102.939L102.896 40.84H102.87C102.587 41.4223 101.969 41.8591 101.128 41.8591C99.8833 41.8591 98.9219 40.7972 98.9219 39.2129C98.9133 37.4659 99.9863 36.4126 101.222 36.4126C102.021 36.4126 102.553 36.7894 102.776 37.2004H102.793V34.1004H103.737V34.109Z" fill="white"/>
<path d="M106.881 41.1568C107.773 41.1568 108.443 40.309 108.443 39.1273C108.443 38.2452 108.005 37.1319 106.906 37.1319C105.816 37.1319 105.336 38.1681 105.336 39.1529C105.336 40.2919 105.971 41.1568 106.872 41.1568H106.881ZM106.846 41.8676C105.464 41.8676 104.383 40.8314 104.383 39.1872C104.383 37.4402 105.516 36.4211 106.932 36.4211C108.408 36.4211 109.404 37.5087 109.404 39.093C109.404 41.0284 108.074 41.8676 106.855 41.8676H106.846Z" fill="white"/>
<path d="M110.055 37.954C110.055 37.406 110.046 36.9778 110.012 36.541H110.836L110.887 37.3888H110.904C111.162 36.9007 111.754 36.4211 112.604 36.4211C113.316 36.4211 114.415 36.8493 114.415 38.6391V41.7477H113.479V38.7419C113.479 37.9027 113.17 37.1919 112.295 37.1919C111.685 37.1919 111.213 37.6372 111.042 38.1596C110.999 38.2795 110.982 38.4507 110.982 38.6049V41.7477H110.046V37.954H110.055Z" fill="white"/>
<path d="M118.879 38.5878C118.879 38.4336 118.87 38.2966 118.827 38.1681C118.656 37.6115 118.209 37.1576 117.523 37.1576C116.63 37.1576 115.995 37.9198 115.995 39.1358C115.995 40.1463 116.519 41.0113 117.514 41.0113C118.098 41.0113 118.621 40.643 118.81 40.035C118.862 39.8809 118.888 39.701 118.888 39.5298V38.5878H118.879ZM119.815 40.9856C119.815 42.1931 119.574 42.9124 119.085 43.3748C118.579 43.8373 117.858 44 117.205 44C116.587 44 115.909 43.8458 115.497 43.5718L115.729 42.8353C116.072 43.058 116.596 43.2549 117.24 43.2549C118.192 43.2549 118.896 42.7497 118.896 41.4223V40.8486H118.879C118.604 41.3367 118.038 41.7221 117.24 41.7221C115.969 41.7221 115.051 40.6259 115.051 39.1701C115.051 37.406 116.184 36.4126 117.377 36.4126C118.27 36.4126 118.742 36.875 118.982 37.3032H119.008L119.042 36.5325H119.866C119.832 36.9007 119.823 37.3203 119.823 37.9541V40.9856H119.815Z" fill="white"/>
<path d="M122.46 40.6088C122.872 40.8743 123.464 41.0798 124.108 41.0798C125.052 41.0798 125.601 40.5831 125.601 39.8381C125.601 39.1701 125.224 38.7762 124.254 38.4079C123.086 37.9797 122.365 37.3546 122.365 36.3441C122.365 35.2137 123.292 34.3745 124.683 34.3745C125.404 34.3745 125.945 34.5457 126.254 34.7256L125.996 35.4877C125.773 35.3507 125.292 35.1452 124.649 35.1452C123.67 35.1452 123.301 35.7361 123.301 36.2328C123.301 36.9093 123.739 37.2433 124.726 37.6286C125.936 38.1168 126.537 38.6905 126.537 39.761C126.537 40.8828 125.73 41.8591 124.039 41.8591C123.353 41.8591 122.597 41.645 122.211 41.3881L122.46 40.6088Z" fill="white"/>
<path d="M130.01 39.093C128.989 39.0673 127.83 39.2557 127.83 40.2662C127.83 40.8914 128.234 41.174 128.706 41.174C129.384 41.174 129.821 40.7458 129.967 40.3005C130.002 40.2063 130.01 40.0949 130.01 40.0007V39.093ZM130.92 40.506C130.92 40.9599 130.937 41.3966 130.997 41.7563H130.156L130.07 41.0969H130.036C129.761 41.5079 129.195 41.8762 128.465 41.8762C127.427 41.8762 126.895 41.1311 126.895 40.3775C126.895 39.1187 128.002 38.425 129.985 38.4422V38.3308C129.985 37.9027 129.864 37.1148 128.817 37.1234C128.328 37.1234 127.83 37.2604 127.47 37.5087L127.255 36.875C127.684 36.6095 128.311 36.4211 128.955 36.4211C130.534 36.4211 130.92 37.5087 130.92 38.5535V40.506Z" fill="white"/>
<path d="M135.558 41.5679C135.317 41.6878 134.777 41.8676 134.081 41.8676C132.528 41.8676 131.523 40.8057 131.523 39.1958C131.523 37.5944 132.605 36.4211 134.287 36.4211C134.837 36.4211 135.326 36.5582 135.583 36.7037L135.369 37.4231C135.146 37.3032 134.794 37.1747 134.287 37.1747C133.111 37.1747 132.468 38.0654 132.468 39.1529C132.468 40.3604 133.232 41.0969 134.253 41.0969C134.785 41.0969 135.137 40.9684 135.403 40.8485L135.558 41.5679Z" fill="white"/>
<path d="M136.133 38.1681C136.133 37.5515 136.124 37.0292 136.09 36.541H136.905L136.948 37.5601H136.983C137.214 36.8579 137.789 36.4211 138.416 36.4211C138.51 36.4211 138.588 36.4297 138.673 36.4554V37.3375C138.57 37.3289 138.467 37.3203 138.347 37.3203C137.686 37.3203 137.223 37.8256 137.094 38.5278C137.077 38.6648 137.06 38.819 137.06 38.9817V41.7563H136.124L136.133 38.1681Z" fill="white"/>
<path d="M142.25 38.6306C142.259 38.0397 142.001 37.0891 140.963 37.0891C140.01 37.0891 139.607 37.9712 139.529 38.6306H142.25ZM139.529 39.3071C139.547 40.5917 140.345 41.114 141.28 41.114C141.95 41.114 142.362 40.9941 142.705 40.8571L142.877 41.5251C142.551 41.6792 141.976 41.8591 141.16 41.8591C139.589 41.8591 138.637 40.7972 138.637 39.23C138.637 37.6458 139.564 36.4126 141.057 36.4126C142.731 36.4126 143.169 37.9112 143.169 38.8704C143.169 39.0673 143.16 39.2129 143.134 39.3242L139.529 39.3071Z" fill="white"/>
<path d="M147.289 38.6648C147.289 38.5364 147.281 38.3822 147.246 38.2538C147.109 37.6629 146.602 37.1662 145.899 37.1662C144.929 37.1662 144.362 38.0311 144.362 39.1701C144.362 40.232 144.886 41.1055 145.881 41.1055C146.508 41.1055 147.083 40.6773 147.255 39.9751C147.289 39.8466 147.298 39.7182 147.298 39.564V38.6648H147.289ZM148.225 34.109V40.4032C148.225 40.8657 148.233 41.3966 148.268 41.7477H147.426L147.384 40.84H147.366C147.083 41.4223 146.465 41.8591 145.624 41.8591C144.379 41.8591 143.418 40.7972 143.418 39.2129C143.409 37.4659 144.482 36.4126 145.727 36.4126C146.525 36.4126 147.057 36.7894 147.272 37.2004H147.298V34.1004H148.225V34.109Z" fill="white"/>
<path d="M151.924 34.4943V37.5344H155.383V34.4943H156.319V41.7563H155.383V38.348H151.924V41.7563H150.988V34.4943H151.924Z" fill="white"/>
<path d="M160.63 38.6306C160.639 38.0397 160.381 37.0891 159.342 37.0891C158.39 37.0891 157.986 37.9712 157.909 38.6306H160.63ZM157.9 39.3071C157.918 40.5917 158.716 41.114 159.651 41.114C160.321 41.114 160.733 40.9941 161.076 40.8571L161.248 41.5251C160.922 41.6792 160.347 41.8591 159.531 41.8591C157.961 41.8591 157.008 40.7972 157.008 39.23C157.008 37.6458 157.935 36.4126 159.428 36.4126C161.102 36.4126 161.54 37.9112 161.54 38.8704C161.54 39.0673 161.531 39.2129 161.505 39.3242L157.9 39.3071Z" fill="white"/>
<path d="M164.87 39.093C163.848 39.0673 162.698 39.2557 162.698 40.2662C162.698 40.8914 163.101 41.174 163.565 41.174C164.243 41.174 164.681 40.7458 164.827 40.3005C164.861 40.2063 164.87 40.0949 164.87 40.0007V39.093ZM165.779 40.506C165.779 40.9599 165.797 41.3966 165.857 41.7563H165.016L164.93 41.0969H164.895C164.621 41.5079 164.054 41.8762 163.325 41.8762C162.286 41.8762 161.754 41.1311 161.754 40.3775C161.754 39.1187 162.861 38.425 164.844 38.4422V38.3308C164.844 37.9027 164.724 37.1148 163.677 37.1234C163.187 37.1234 162.689 37.2604 162.329 37.5087L162.114 36.875C162.544 36.6095 163.162 36.4211 163.814 36.4211C165.393 36.4211 165.779 37.5087 165.779 38.5535V40.506Z" fill="white"/>
<path d="M166.758 38.1681C166.758 37.5515 166.749 37.0292 166.715 36.541H167.53L167.573 37.5601H167.608C167.839 36.8579 168.414 36.4211 169.041 36.4211C169.135 36.4211 169.213 36.4297 169.298 36.4554V37.3375C169.195 37.3289 169.092 37.3203 168.972 37.3203C168.311 37.3203 167.848 37.8256 167.719 38.5278C167.702 38.6648 167.685 38.819 167.685 38.9817V41.7563H166.749L166.758 38.1681Z" fill="white"/>
<path d="M171.067 35.2907V36.541H172.406V37.2604H171.067V40.0693C171.067 40.7201 171.248 41.0798 171.771 41.0798C172.029 41.0798 172.175 41.0541 172.312 41.0198L172.355 41.7392C172.175 41.8077 171.891 41.8676 171.531 41.8676C171.093 41.8676 170.741 41.7135 170.518 41.4651C170.261 41.174 170.158 40.7115 170.158 40.0949V37.2518H169.359V36.5325H170.158V35.5733L171.067 35.2907Z" fill="white"/>
<path d="M175.607 34.4943V37.5344H179.067V34.4943H180.002V41.7563H179.067V38.348H175.607V41.7563H174.672V34.4943H175.607Z" fill="white"/>
<path d="M183.177 41.1568C184.07 41.1568 184.74 40.309 184.74 39.1273C184.74 38.2452 184.302 37.1319 183.203 37.1319C182.113 37.1319 181.632 38.1681 181.632 39.1529C181.632 40.2919 182.268 41.1568 183.169 41.1568H183.177ZM183.143 41.8676C181.761 41.8676 180.68 40.8314 180.68 39.1872C180.68 37.4402 181.813 36.4211 183.229 36.4211C184.705 36.4211 185.701 37.5087 185.701 39.093C185.701 41.0284 184.371 41.8676 183.152 41.8676H183.143Z" fill="white"/>
<path d="M186.224 40.7972C186.507 40.9684 186.996 41.1654 187.469 41.1654C188.138 41.1654 188.456 40.8314 188.456 40.3861C188.456 39.9322 188.19 39.6839 187.511 39.427C186.576 39.0844 186.138 38.5792 186.138 37.954C186.138 37.1148 186.816 36.4297 187.915 36.4297C188.438 36.4297 188.893 36.5667 189.168 36.7551L188.945 37.4317C188.747 37.3118 188.37 37.1319 187.889 37.1319C187.34 37.1319 187.039 37.4574 187.039 37.8427C187.039 38.288 187.34 38.4764 188.001 38.7333C188.885 39.0673 189.348 39.5212 189.348 40.3005C189.348 41.2254 188.636 41.8762 187.434 41.8762C186.868 41.8762 186.353 41.7221 185.992 41.508L186.224 40.7972Z" fill="white"/>
<path d="M190.963 39.6325C190.963 39.761 190.971 39.9065 191.006 40.0179C191.16 40.6773 191.735 41.1226 192.396 41.1226C193.383 41.1226 193.958 40.3005 193.958 39.1101C193.958 38.0654 193.426 37.1747 192.439 37.1747C191.804 37.1747 191.195 37.6286 191.014 38.3394C190.989 38.4679 190.963 38.6134 190.963 38.7248V39.6325ZM190.027 38.2452C190.027 37.5772 190.019 37.0377 189.984 36.541H190.826L190.877 37.4317H190.903C191.272 36.7894 191.89 36.4211 192.714 36.4211C193.967 36.4211 194.903 37.4916 194.903 39.0673C194.903 40.9427 193.77 41.8676 192.568 41.8676C191.873 41.8676 191.298 41.5679 190.989 41.0455H190.971V43.8801H190.036V38.2452H190.027Z" fill="white"/>
<path d="M195.536 36.541H196.471V41.7477H195.536V36.541ZM195.982 35.5819C195.63 35.5819 195.398 35.2993 195.398 34.9653C195.398 34.6313 195.639 34.3659 196.008 34.3659C196.368 34.3659 196.6 34.6313 196.6 34.9653C196.6 35.2993 196.368 35.5819 195.991 35.5819H195.982Z" fill="white"/>
<path d="M198.618 35.2907V36.541H199.957V37.2604H198.618V40.0693C198.618 40.7201 198.798 41.0798 199.322 41.0798C199.58 41.0798 199.725 41.0541 199.863 41.0198L199.906 41.7392C199.725 41.8077 199.442 41.8676 199.082 41.8676C198.644 41.8676 198.292 41.7135 198.069 41.4651C197.811 41.174 197.708 40.7115 197.708 40.0949V37.2518H196.91V36.5325H197.708V35.5733L198.618 35.2907Z" fill="white"/>
<path d="M203.185 39.093C202.164 39.0673 201.005 39.2557 201.005 40.2662C201.005 40.8914 201.409 41.174 201.881 41.174C202.559 41.174 202.996 40.7458 203.142 40.3005C203.177 40.2063 203.185 40.0949 203.185 40.0007V39.093ZM204.104 40.506C204.104 40.9599 204.121 41.3966 204.181 41.7563H203.34L203.254 41.0969H203.22C202.945 41.5079 202.378 41.8762 201.649 41.8762C200.61 41.8762 200.078 41.1311 200.078 40.3775C200.078 39.1187 201.185 38.425 203.168 38.4422V38.3308C203.168 37.9027 203.048 37.1148 202.001 37.1234C201.512 37.1234 201.014 37.2604 200.653 37.5087L200.439 36.875C200.868 36.6095 201.494 36.4211 202.138 36.4211C203.717 36.4211 204.104 37.5087 204.104 38.5535V40.506Z" fill="white"/>
<path d="M205.998 34.109H205.062V41.7477H205.998V34.109Z" fill="white"/>
</g>
<defs>
<clipPath id="clip0_1637_8371">
<rect width="206" height="44" fill="white"/>
</clipPath>
</defs>
</svg>
