<svg width="433" height="42" viewBox="0 0 433 42" fill="none" xmlns="http://www.w3.org/2000/svg">
<g clip-path="url(#clip0_1653_5917)">
<mask id="mask0_1653_5917" style="mask-type:luminance" maskUnits="userSpaceOnUse" x="0" y="3" width="220" height="36">
<path d="M220 3H0V39H220V3Z" fill="white"/>
</mask>
<g mask="url(#mask0_1653_5917)">
<path d="M94.3242 18.6105H104.475V20.8011C100.932 21.2664 97.8929 23.5218 97.8929 26.2452C97.8929 29.2935 101.722 31.7631 105.793 31.7631H106.761C110.832 31.7631 114.662 29.2935 114.662 26.2452C114.662 23.5758 111.74 21.3474 108.285 20.8335V18.6105H118.513V15.9816H94.3242V18.6105ZM110.967 26.2416C110.967 27.9336 108.524 29.0856 106.278 29.0856C104.032 29.0856 101.582 27.9336 101.582 26.2416C101.582 24.5496 104.028 23.3931 106.278 23.3931C108.529 23.3931 110.967 24.5415 110.967 26.2416Z" fill="white"/>
<path d="M139.738 17.5809L143.091 17.5395V7.9257H139.738V17.5809Z" fill="white"/>
<path d="M124.054 21.2727H139.735V22.8297H124.054V27.6357C124.031 27.9069 124.063 28.1802 124.15 28.4383C124.237 28.6964 124.376 28.934 124.558 29.136C124.992 29.4534 125.524 29.6062 126.061 29.5671H143.088V26.9526H127.561V25.3407H143.088V18.6546H124.054V21.2727Z" fill="white"/>
<path d="M194.296 7.9257H190.93V19.6608H194.276L194.296 14.1303H197.668V11.4438H194.296V7.9257Z" fill="white"/>
<path d="M174.586 23.3841H190.931V29.6706L194.298 29.6796V20.7156H174.586V23.3841Z" fill="white"/>
<path d="M173.632 13.935C173.629 14.6981 173.813 15.4503 174.167 16.1267C174.52 16.8032 175.034 17.3835 175.662 17.8176C176.982 18.8007 178.596 19.3117 180.242 19.2684C181.862 19.3184 183.449 18.8056 184.733 17.8176C185.352 17.3776 185.855 16.7946 186.199 16.1185C186.543 15.4424 186.717 14.6933 186.708 13.935C186.705 13.4529 186.603 12.9765 186.41 12.5346C186.206 12.0947 185.929 11.692 185.592 11.343H188.24V8.7762H181.929V6.6909H178.312V8.7762H171.883V11.343H174.778C174.415 11.6805 174.122 12.0852 173.914 12.5346C173.729 12.9782 173.633 13.4542 173.633 13.935M177.913 12.1107C178.553 11.6018 179.349 11.3302 180.167 11.3421C180.976 11.3319 181.763 11.6037 182.392 12.1107C182.699 12.3319 182.95 12.6214 183.125 12.9562C183.3 13.291 183.394 13.6618 183.4 14.0394C183.389 14.4047 183.292 14.7621 183.117 15.0831C182.942 15.404 182.694 15.6794 182.392 15.8871C181.775 16.4193 180.983 16.7074 180.167 16.6971C179.342 16.7092 178.541 16.4213 177.913 15.8871C177.622 15.6725 177.384 15.3946 177.216 15.0745C177.048 14.7544 176.956 14.4004 176.946 14.0394C176.951 13.6661 177.041 13.2988 177.209 12.9649C177.376 12.6311 177.617 12.3391 177.913 12.1107Z" fill="white"/>
<path d="M166.203 14.8701H163.353V7.9257H160.262V29.721L163.353 29.6913V17.5485H166.203V29.721L169.399 29.6913V7.9257H166.203V14.8701Z" fill="white"/>
<path d="M150.774 10.5906H157.639V7.9257H147.401V22.3581C147.377 22.6174 147.422 22.8784 147.533 23.1141C147.644 23.3498 147.817 23.5514 148.032 23.6982C148.493 23.94 149.013 24.0479 149.532 24.0096H158.139V21.3285H150.774V10.5906Z" fill="white"/>
<path d="M215.098 23.5731L218.465 23.556L218.472 7.9257H199.777V10.5906H215.096L215.098 23.5731Z" fill="white"/>
<path d="M211.794 25.8375V16.8861H208.476V25.8375H205.599V16.8861H202.292V25.8375H198.23V28.5186H220.402V25.8375H211.794Z" fill="white"/>
<path d="M101.351 13.6515C103.25 13.2895 105.001 12.3795 106.386 11.0343C107.743 12.388 109.482 13.2939 111.37 13.6299C113.22 14.1188 115.117 14.4051 117.029 14.484L117.622 11.766V11.7615C115.453 11.7186 113.306 11.309 111.274 10.5501C109.411 9.8571 108.128 8.688 108.128 7.6647H104.642C104.654 8.58 103.332 9.8391 101.461 10.5501C99.4487 11.3296 97.3147 11.7506 95.1562 11.7939V11.8182L95.7459 14.4867C97.6398 14.418 99.52 14.1379 101.351 13.6515Z" fill="white"/>
<path d="M129.256 13.1205C130.123 14.3126 131.258 15.2846 132.57 15.9582C134.005 16.6026 135.526 17.0358 137.085 17.2443L137.743 14.5299C135.52 14.2599 133.078 13.0548 132.096 11.7597C131.31 10.6525 130.921 9.31315 130.992 7.9581H127.386C127.456 9.3249 127.057 10.6747 126.257 11.7858C124.751 13.3415 122.748 14.3243 120.594 14.565V14.5884L121.23 17.2371C122.74 17.009 124.213 16.5854 125.612 15.9771C127.047 15.3446 128.301 14.3638 129.259 13.1241" fill="white"/>
<path d="M30.5762 39H20.9286C21.0395 39 21.3921 38.5248 21.4813 38.4321C21.668 38.2179 21.842 37.9956 22.0124 37.7634C22.4271 37.1856 22.7568 36.5516 22.9916 35.8806C23.829 33.6081 23.7729 31.1034 22.8347 28.8705C21.7616 26.8723 20.5689 24.9405 19.2633 23.0853C17.3893 20.2639 16.4457 16.9284 16.5647 13.5453C16.7628 11.2607 17.671 9.0949 19.1623 7.3506H28.4492C27.188 8.59683 26.2914 10.1629 25.8559 11.8802C25.4204 13.5974 25.4626 15.4007 25.9778 17.0958C26.616 19.0524 27.5593 20.8964 28.7729 22.5597C29.875 24.1651 30.8485 25.8549 31.6843 27.6132C32.6444 29.8041 32.9188 32.2335 32.4714 34.5828C32.2608 35.7133 31.8806 36.8056 31.3435 37.8228C31.2533 37.9803 30.7845 38.9928 30.5762 38.9928" fill="white"/>
<path d="M35.9345 29.7588H51.9539V3H30.8736C29.9663 3.93235 29.3175 5.08406 28.9906 6.34219C28.6637 7.60032 28.67 8.92166 29.009 10.1766C29.5554 12.459 31.1837 14.5164 32.6345 16.4694C34.9409 19.5708 37.4573 23.0628 36.755 27.1938C36.6183 28.0866 36.3414 28.9522 35.9345 29.7588Z" fill="white"/>
<path d="M0 3V29.7588H15.7589C16.3842 28.1618 16.3752 26.3868 15.7336 24.7962C14.2107 21.0297 11.7366 18.9894 10.358 15.7008C9.05877 12.585 8.90549 9.7347 10.0334 5.6424C10.3474 4.73983 10.7165 3.85737 11.1389 3L0 3Z" fill="white"/>
<path d="M84.2953 3H71.2134V24.2238C71.2134 24.33 71.19 24.8439 71.1656 25.3695C71.0205 28.6995 70.2505 29.3592 69.4336 29.7588H84.2953V3Z" fill="white"/>
<path d="M55.5078 7.37579V33.8997L55.5213 34.3281C55.5617 35.4382 56.0289 36.49 56.8259 37.2653C57.6229 38.0405 58.6885 38.4795 59.8012 38.4911C60.914 38.5027 61.9885 38.0859 62.8015 37.3275C63.6145 36.569 64.1036 35.5271 64.1672 34.4181L64.1744 33.8997V7.37579H55.5078Z" fill="white"/>
</g>
</g>
<line x1="236.5" y1="9" x2="236.5" y2="33" stroke="white"/>
<g clip-path="url(#clip1_1653_5917)">
<path d="M271.291 21.1851V19.0714H256.727V17.1018H270.812V10.9529H254.211V13.0666H268.321V15.0362H254.235V21.1851H271.291ZM272.848 8.98327V6.82152H270.74V0H254.068V2.11371H268.249V6.81752H252.203V8.98327H272.848ZM295.845 19.72V17.5102H286.982V13.571H294.068V11.3612H279.891V8.16661H293.641V0.648526H277.4V2.85831H291.15V6.00486H277.4V13.571H284.443V17.5102H275.196V19.72H295.845ZM317.213 10.8128V0.124101H314.718V4.03927H310.793V0.436352H308.298V3.15055H301.762V0.436352H299.267V10.1842H310.793V6.24506H314.722V10.8087L317.213 10.8128ZM317.692 21.1892V18.9754H303.654V17.5342H317.213V11.7455H301.143V13.9553H314.722V15.3724H301.163V21.1851L317.692 21.1892ZM308.298 8.07053H301.762V5.21222H308.298V8.07053ZM333.694 17.3901V1.17695H322.483V17.3901H333.694ZM331.199 15.1803H324.97V3.38674H331.199V15.1803ZM340.377 21.1371V0.120096H337.882V21.1371H340.377ZM364.213 21.1131V0.120096H361.717V7.9024H358.843V0.360292H356.375V20.5126H358.843V10.1602H361.717V21.1131H364.213ZM354.942 17.6303V15.4205H347.588V10.1602H354.176V1.03284H345.093V3.24262H351.704V7.99847H345.117V17.6303H354.942ZM387.832 19.72V17.5102H380.287V9.00329H377.891V17.5102H374.442V9.00329H372.046V17.5102H367.187V19.72H387.832ZM385.629 14.0754V0.88872H369.147V3.09851H383.137V14.0754H385.629ZM404.625 8.33475C407.547 8.33475 409.416 6.58133 409.416 4.17938C409.416 1.77744 407.547 0.0480392 404.625 0.0480392H396.408C393.486 0.0480392 391.593 1.77744 391.593 4.17938C391.593 6.58133 393.49 8.33475 396.408 8.33475H404.625ZM408.793 21.1851V14.2195H405.799V11.8656H410.829V9.65582H390.18V11.8656H395.21V14.2195H391.857V16.4293H406.302V21.1851H408.793ZM404.409 2.16175C406.158 2.16175 406.924 3.00243 406.924 4.17938C406.924 5.35634 406.158 6.22104 404.409 6.22104H396.624C394.875 6.22104 394.085 5.35634 394.085 4.17938C394.085 3.00243 394.875 2.16175 396.624 2.16175H404.409ZM403.283 14.2195H397.73V11.8656H403.287L403.283 14.2195ZM427.526 4.17938C427.526 1.87752 425.394 0.144116 421.082 0.144116C416.77 0.144116 414.638 1.87752 414.638 4.17938C414.638 6.48125 416.77 8.19063 421.082 8.19063C425.394 8.19063 427.526 6.48125 427.526 4.17938ZM432.484 16.6455V0.120096H429.989V12.8304H424.719V14.9441H429.989V16.6455H432.484ZM432.984 20.949V18.8553H418.591V14.9401H416.095V20.945L432.984 20.949ZM428.312 11.3652V9.15141H413.7V11.3612H419.401V15.0642H421.896V11.3612L428.312 11.3652ZM425.034 4.17938C425.034 5.1882 423.717 6.0529 421.082 6.0529C418.447 6.0529 417.129 5.1882 417.129 4.17938C417.129 3.14655 418.447 2.27784 421.082 2.27784C423.717 2.27784 425.034 3.14655 425.034 4.17938Z" fill="white"/>
<path d="M260.882 33.2719C260.882 33.9198 260.876 34.4662 260.863 34.9113C260.851 35.3563 260.816 35.8544 260.758 36.4055C260.701 36.9546 260.611 37.5447 260.488 38.1759L259.702 38.0758C259.825 37.4753 259.916 36.9045 259.975 36.3634C260.034 35.8223 260.07 35.3359 260.084 34.9043C260.096 34.4699 260.105 33.9268 260.109 33.2749V32.6524H253.089V31.9789H260.882V33.2719ZM252.004 39.6501H254.635V35.9051H255.433V39.6531H257.435V35.9051H258.22V39.6531H262.185V40.3397H252.004V39.6501ZM273.012 36.9179H270.212V38.4681H271.732V42H270.933V39.1157H263.946V38.4681H265.619V36.9179H262.824V36.2443H273.012V36.9179ZM263.99 33.1949C263.988 32.9825 264.029 32.7718 264.111 32.5758C264.192 32.3798 264.313 32.2026 264.465 32.055C264.847 31.6991 265.314 31.4475 265.821 31.3244C266.501 31.1454 267.202 31.0608 267.905 31.0732C268.608 31.0608 269.309 31.1454 269.989 31.3244C270.496 31.4475 270.963 31.6991 271.345 32.055C271.497 32.2026 271.618 32.3798 271.699 32.5758C271.781 32.7718 271.822 32.9825 271.82 33.1949C271.822 33.4069 271.781 33.6171 271.7 33.8127C271.618 34.0082 271.497 34.1849 271.345 34.3318C270.962 34.6859 270.495 34.9363 269.989 35.0594C269.309 35.2379 268.608 35.3201 267.905 35.3036C267.202 35.3201 266.501 35.2379 265.821 35.0594C265.315 34.9363 264.848 34.6859 264.465 34.3318C264.313 34.185 264.192 34.0083 264.11 33.8128C264.028 33.6172 263.988 33.4069 263.99 33.1949ZM264.814 33.1949C264.813 33.3446 264.847 33.4926 264.911 33.6275C264.976 33.7624 265.071 33.8807 265.188 33.9735C265.505 34.2266 265.875 34.4027 266.271 34.4879C266.806 34.6163 267.356 34.6772 267.906 34.6691C268.456 34.6772 269.006 34.6163 269.541 34.4879C269.938 34.4023 270.31 34.2263 270.628 33.9735C270.746 33.8809 270.842 33.7628 270.908 33.628C270.975 33.4932 271.01 33.3452 271.011 33.1949C271.01 33.0437 270.975 32.8946 270.909 32.7588C270.842 32.623 270.746 32.5039 270.628 32.4102C270.31 32.1589 269.939 31.9849 269.543 31.9018C269.006 31.7753 268.456 31.7154 267.905 31.7237C267.354 31.7154 266.804 31.7753 266.267 31.9018C265.872 31.9856 265.502 32.1607 265.187 32.4132C265.07 32.5068 264.976 32.6257 264.911 32.7611C264.846 32.8964 264.813 33.0448 264.814 33.1949ZM269.426 38.4681V36.9179H266.423V38.4681H269.426ZM283.863 38.1679H279.11V42H278.337V38.1629H273.636V37.5064H283.862L283.863 38.1679ZM274.98 31.2683H275.778V32.9026H281.721V31.2643H282.52V36.0542H274.98V31.2683ZM281.721 35.3977V33.5642H275.778V35.3937L281.721 35.3977ZM293.499 32.3482H292.283V36.1413C292.786 36.1072 293.335 36.0542 293.93 35.9821L293.968 36.6046C292.934 36.7601 291.893 36.8603 290.848 36.9049C289.743 36.9536 288.579 36.9779 287.355 36.9779L287.255 36.2774C287.905 36.2774 288.412 36.2754 288.775 36.2714V32.3442H287.569V31.6706H293.499V32.3482ZM289.052 39.9674C289.047 39.7678 289.083 39.5692 289.158 39.3844C289.234 39.1995 289.346 39.0324 289.489 38.8935C289.85 38.5617 290.29 38.3287 290.766 38.2169C292.074 37.9078 293.436 37.9078 294.745 38.2169C295.221 38.3287 295.661 38.5617 296.021 38.8935C296.164 39.0326 296.277 39.1997 296.354 39.3844C296.43 39.5691 296.468 39.7675 296.464 39.9674C296.467 40.1676 296.43 40.3664 296.353 40.5516C296.277 40.7367 296.164 40.9044 296.021 41.0442C295.661 41.378 295.222 41.6131 294.745 41.7268C294.093 41.8956 293.421 41.9747 292.748 41.962C292.079 41.9741 291.411 41.895 290.762 41.7268C290.287 41.6124 289.848 41.3774 289.489 41.0442C289.347 40.9046 289.234 40.7369 289.159 40.5516C289.083 40.3663 289.047 40.1674 289.052 39.9674ZM289.559 36.2513C290.281 36.2387 290.932 36.2177 291.511 36.1883V32.3452H289.559V36.2513ZM289.833 39.9674C289.832 40.1058 289.863 40.2425 289.923 40.3669C289.984 40.4914 290.072 40.6002 290.181 40.6849C290.48 40.918 290.829 41.0781 291.2 41.1523C291.71 41.2663 292.231 41.319 292.752 41.3094C293.274 41.319 293.795 41.2663 294.304 41.1523C294.675 41.077 295.023 40.917 295.323 40.6849C295.433 40.6004 295.522 40.4919 295.584 40.3676C295.646 40.2432 295.679 40.1064 295.681 39.9674C295.679 39.8293 295.645 39.6935 295.583 39.5702C295.521 39.447 295.432 39.3394 295.323 39.2558C295.023 39.0237 294.676 38.8629 294.305 38.7854C293.282 38.5652 292.224 38.5652 291.201 38.7854C290.832 38.8622 290.485 39.0232 290.187 39.2558C290.077 39.339 289.988 39.4465 289.927 39.5699C289.865 39.6934 289.833 39.8294 289.833 39.9674ZM293.558 34.8472H295.623V33.5382H293.563V32.8646H295.628V30.7939H296.426V37.7315H295.628V35.5047H293.563L293.558 34.8472ZM306.638 35.4317H308.527V36.1182H306.643V42H305.845V30.7909H306.643L306.638 35.4317ZM298.166 39.1667C299.515 38.5366 300.692 37.5893 301.597 36.4055C302.399 35.3245 302.873 34.0341 302.962 32.6895H298.66V32.0159H303.78C303.781 33.0557 303.593 34.087 303.226 35.0594C302.843 36.0501 302.266 36.9538 301.529 37.7175C300.688 38.5805 299.701 39.287 298.614 39.8042L298.166 39.1667ZM318.052 39.0396H317.253V30.7939H318.052V39.0396ZM309.157 34.3258C309.149 33.831 309.278 33.3437 309.531 32.9187C309.779 32.5067 310.137 32.1722 310.564 31.9529C311.022 31.7175 311.531 31.5986 312.046 31.6066C312.559 31.599 313.066 31.7179 313.522 31.9529C313.95 32.1728 314.309 32.507 314.558 32.9187C314.813 33.3431 314.944 33.8306 314.936 34.3258C314.944 34.8251 314.813 35.3168 314.558 35.7459C314.311 36.1599 313.951 36.4956 313.522 36.7147C313.065 36.9477 312.559 37.0655 312.046 37.058C311.532 37.0659 311.023 36.9481 310.564 36.7147C310.135 36.4961 309.777 36.1602 309.531 35.7459C309.278 35.3162 309.149 34.8247 309.157 34.3258ZM309.929 34.3258C309.924 34.6918 310.019 35.0521 310.205 35.3676C310.386 35.6744 310.649 35.924 310.965 36.0882C311.298 36.2621 311.669 36.3505 312.045 36.3454C312.419 36.3501 312.788 36.2617 313.119 36.0882C313.435 35.9234 313.699 35.674 313.883 35.3676C314.07 35.0529 314.166 34.6922 314.161 34.3258C314.166 33.9626 314.07 33.6052 313.883 33.294C313.698 32.9878 313.434 32.7375 313.119 32.5694C312.789 32.3906 312.42 32.2987 312.045 32.3022C311.669 32.297 311.297 32.3876 310.965 32.5654C310.651 32.7329 310.388 32.9835 310.205 33.29C310.019 33.603 309.924 33.9616 309.929 34.3258ZM310.917 38.1879H311.716V41.0602H318.419V41.7338H310.917V38.1879ZM328.901 37.4763H328.103V34.4529H325.684V33.7793H328.104V30.7939H328.902L328.901 37.4763ZM319.766 36.6887C320.304 36.4886 320.801 36.1914 321.232 35.812C321.663 35.4396 322.019 34.9878 322.281 34.4809C322.535 33.9984 322.669 33.4613 322.671 32.9156V32.3312H320.044V31.6576H326.051V32.3312H323.47V32.9026C323.472 33.4017 323.599 33.8922 323.84 34.3288C324.094 34.7977 324.436 35.213 324.847 35.5518C325.271 35.9061 325.757 36.1795 326.279 36.3584L325.865 37.006C325.238 36.7742 324.664 36.4167 324.178 35.9551C323.704 35.5112 323.333 34.9679 323.091 34.3638C322.854 35.0389 322.468 35.652 321.963 36.1583C321.46 36.6732 320.853 37.0748 320.183 37.3362L319.766 36.6887ZM321.527 39.9163C321.522 39.7115 321.558 39.5078 321.633 39.3173C321.709 39.1268 321.821 38.9534 321.964 38.8074C322.322 38.4651 322.764 38.2235 323.244 38.1069C324.547 37.7848 325.908 37.7848 327.211 38.1069C327.692 38.224 328.134 38.4655 328.493 38.8074C328.638 38.9535 328.752 39.1271 328.829 39.3181C328.906 39.509 328.944 39.7134 328.94 39.9193C328.943 40.1247 328.905 40.3286 328.828 40.519C328.752 40.7094 328.638 40.8825 328.493 41.0282C328.135 41.3717 327.694 41.6159 327.214 41.7368C326.566 41.912 325.898 41.9966 325.227 41.988C324.557 41.9966 323.888 41.912 323.241 41.7368C322.761 41.6165 322.321 41.3722 321.964 41.0282C321.821 40.8819 321.708 40.708 321.633 40.517C321.558 40.3259 321.522 40.1216 321.527 39.9163ZM322.313 39.9163C322.312 40.0586 322.342 40.1995 322.402 40.3286C322.461 40.4577 322.549 40.5719 322.658 40.6629C322.951 40.9062 323.298 41.0751 323.669 41.1553C324.17 41.2769 324.684 41.3344 325.199 41.3265C325.724 41.3342 326.247 41.2767 326.757 41.1553C327.135 41.0742 327.488 40.9067 327.791 40.6659C327.903 40.5763 327.995 40.4624 328.058 40.3326C328.121 40.2029 328.154 40.0606 328.155 39.9163C328.154 39.7722 328.121 39.63 328.059 39.4999C327.998 39.3698 327.908 39.255 327.797 39.1637C327.5 38.9191 327.151 38.7476 326.776 38.6633C325.758 38.431 324.701 38.431 323.682 38.6633C323.309 38.7471 322.96 38.9186 322.665 39.1637C322.554 39.2548 322.465 39.3697 322.404 39.5C322.343 39.6302 322.312 39.7725 322.313 39.9163ZM339.959 32.7255H333.293V32.0519H336.233V30.7429H337.018V32.0519H339.959V32.7255ZM333.95 35.3937C333.942 35.0135 334.057 34.641 334.279 34.3328C334.52 34.0155 334.845 33.7727 335.217 33.6322C335.665 33.4591 336.143 33.3748 336.623 33.384C337.1 33.3743 337.575 33.4586 338.02 33.6322C338.39 33.7744 338.714 34.017 338.955 34.3328C339.178 34.6403 339.295 35.0131 339.287 35.3937C339.295 35.7723 339.178 36.143 338.955 36.4485C338.715 36.7652 338.391 37.0079 338.02 37.1491C337.575 37.3202 337.1 37.4032 336.623 37.3933C336.143 37.4027 335.666 37.3198 335.217 37.1491C334.844 37.0094 334.519 36.7664 334.279 36.4485C334.058 36.1423 333.942 35.7719 333.95 35.3937ZM334.698 38.4561H341.958V42H341.159V39.1157H334.7L334.698 38.4561ZM334.711 35.3937C334.706 35.6511 334.79 35.9023 334.948 36.1052C335.124 36.3227 335.356 36.4867 335.62 36.5786C335.942 36.6943 336.282 36.7502 336.624 36.7437C336.962 36.7495 337.297 36.6935 337.615 36.5786C337.88 36.4866 338.114 36.3228 338.292 36.1052C338.451 35.9035 338.538 35.654 338.539 35.3967C338.539 35.1374 338.452 34.8857 338.292 34.6821C338.114 34.4645 337.883 34.2981 337.62 34.1997C337.302 34.0772 336.963 34.0177 336.622 34.0245C336.279 34.018 335.938 34.0775 335.618 34.1997C335.355 34.2969 335.123 34.4636 334.946 34.6821C334.79 34.886 334.708 35.1368 334.713 35.3937H334.711ZM341.16 30.7899H341.959V33.9535H343.683V34.64H341.961V37.7786H341.162L341.16 30.7899ZM353.291 37.3713H352.492V34.3518H350.062V33.6783H352.495V30.7939H353.294L353.291 37.3713ZM344.155 36.5836C344.692 36.3884 345.189 36.0968 345.621 35.7229C346.054 35.3561 346.411 34.908 346.672 34.4039C346.925 33.9241 347.057 33.3901 347.058 32.8476V32.2421H344.43V31.5555H350.437V32.2421H347.852V32.8516C347.855 33.3477 347.983 33.835 348.223 34.2687C348.478 34.7397 348.821 35.157 349.233 35.4977C349.658 35.8547 350.143 36.1332 350.666 36.3204L350.247 36.9559C349.622 36.7232 349.05 36.3658 348.567 35.9051C348.09 35.4583 347.718 34.9115 347.477 34.3038C347.239 34.9701 346.855 35.574 346.352 36.0702C345.848 36.5765 345.242 36.9686 344.574 37.2201L344.155 36.5836ZM346.051 37.9557H353.287V41.8349H346.057L346.051 37.9557ZM352.507 41.1743V38.6073H346.843V41.1743H352.507ZM365.091 37.4133H354.906V36.7528H365.091V37.4133ZM356.071 33.403C356.068 33.1838 356.109 32.9662 356.19 32.7628C356.272 32.5594 356.393 32.3742 356.547 32.2181C356.925 31.8482 357.393 31.584 357.905 31.4515C358.583 31.2642 359.283 31.1756 359.986 31.1883C360.689 31.1756 361.39 31.2642 362.067 31.4515C362.579 31.5827 363.047 31.8456 363.427 32.2141C363.58 32.3702 363.701 32.5554 363.783 32.7588C363.864 32.9622 363.905 33.1798 363.902 33.399C363.905 33.6183 363.864 33.8359 363.783 34.0393C363.701 34.2427 363.58 34.4278 363.427 34.584C363.047 34.9525 362.579 35.2154 362.067 35.3466C361.39 35.5339 360.689 35.6225 359.986 35.6098C359.283 35.6225 358.583 35.5339 357.905 35.3466C357.393 35.2154 356.925 34.9525 356.546 34.584C356.393 34.4282 356.272 34.2437 356.191 34.041C356.109 33.8383 356.069 33.6215 356.071 33.403ZM356.249 38.4852H357.061V41.0602H363.967V41.7338H356.248L356.249 38.4852ZM356.895 33.403C356.893 33.5589 356.926 33.7132 356.991 33.8549C357.055 33.9966 357.15 34.1222 357.269 34.2227C357.582 34.4856 357.953 34.6686 358.352 34.7561C358.887 34.8867 359.437 34.9486 359.987 34.9403C360.539 34.9489 361.089 34.887 361.625 34.7561C362.023 34.6677 362.395 34.4848 362.708 34.2227C362.828 34.1226 362.925 33.9974 362.992 33.8558C363.059 33.7143 363.094 33.5597 363.095 33.403C363.094 33.2478 363.059 33.0947 362.993 32.9543C362.927 32.814 362.831 32.6898 362.712 32.5904C362.397 32.3267 362.025 32.1406 361.625 32.0469C361.091 31.9096 360.541 31.8443 359.99 31.8528C359.439 31.8443 358.889 31.9096 358.355 32.0469C357.957 32.1402 357.586 32.3264 357.272 32.5904C357.153 32.6896 357.058 32.8139 356.993 32.9544C356.928 33.0949 356.894 33.2481 356.895 33.403ZM375.184 37.9067H374.423V34.604H372.726V37.5064H371.979V31.0101H372.726V33.9455H374.423V30.7949H375.184V37.9067ZM365.667 32.1891H368.186V30.868H368.984V32.1891H371.479V32.8626H365.663L365.667 32.1891ZM366.199 35.4287C366.192 35.0691 366.297 34.7161 366.499 34.4189C366.71 34.1205 367.001 33.888 367.338 33.7483C367.733 33.5838 368.158 33.5037 368.585 33.5131C369.012 33.505 369.436 33.5861 369.83 33.7513C370.167 33.8916 370.459 34.1239 370.672 34.4219C370.875 34.7188 370.983 35.0714 370.979 35.4317C370.983 35.7891 370.875 36.1388 370.672 36.4325C370.459 36.7281 370.167 36.9571 369.83 37.093C369.435 37.2542 369.011 37.3332 368.585 37.3252C368.159 37.3332 367.735 37.2542 367.34 37.093C367.003 36.9577 366.712 36.7285 366.501 36.4325C366.298 36.1387 366.193 35.7887 366.199 35.4317V35.4287ZM366.909 35.4287C366.907 35.6662 366.981 35.898 367.122 36.0892C367.273 36.2921 367.479 36.4485 367.715 36.5406C367.991 36.6509 368.286 36.705 368.583 36.6997C368.878 36.7045 369.171 36.6504 369.444 36.5406C369.679 36.4489 369.883 36.2924 370.033 36.0892C370.172 35.8973 370.245 35.6656 370.242 35.4287C370.245 35.1886 370.172 34.9538 370.033 34.7581C369.884 34.5535 369.681 34.3941 369.447 34.2978C369.174 34.1833 368.879 34.1271 368.583 34.1326C368.285 34.1272 367.99 34.1834 367.715 34.2978C367.479 34.3939 367.274 34.5532 367.122 34.7581C366.98 34.9537 366.905 35.19 366.909 35.4317V35.4287ZM367.807 40.0534C367.805 39.858 367.843 39.6641 367.918 39.4841C367.994 39.3041 368.107 39.1418 368.249 39.0076C368.611 38.6829 369.051 38.4565 369.525 38.35C370.182 38.1882 370.857 38.1125 371.533 38.1249C372.206 38.1124 372.877 38.1881 373.53 38.35C374.003 38.458 374.441 38.6842 374.803 39.0076C374.946 39.1417 375.059 39.3041 375.135 39.4846C375.212 39.665 375.249 39.8595 375.246 40.0554C375.249 40.2491 375.211 40.4411 375.134 40.6191C375.058 40.797 374.945 40.9569 374.803 41.0883C374.439 41.4101 374 41.6342 373.527 41.7398C372.873 41.8995 372.203 41.9742 371.53 41.962C370.857 41.9735 370.184 41.8988 369.529 41.7398C369.054 41.6356 368.614 41.4113 368.25 41.0883C368.108 40.9566 367.996 40.7968 367.92 40.6191C367.844 40.4414 367.806 40.2498 367.808 40.0564L367.807 40.0534ZM368.606 40.0534C368.606 40.1848 368.637 40.3144 368.696 40.4315C368.756 40.5486 368.842 40.6499 368.948 40.727C369.246 40.9472 369.589 41.098 369.952 41.1683C370.459 41.2796 370.977 41.332 371.495 41.3245C372.023 41.3322 372.55 41.2812 373.066 41.1723C373.436 41.103 373.787 40.9534 374.093 40.734C374.202 40.657 374.292 40.5556 374.356 40.4376C374.42 40.3197 374.455 40.1885 374.46 40.0544C374.457 39.9178 374.422 39.7838 374.36 39.6624C374.297 39.541 374.208 39.4355 374.099 39.3539C373.799 39.1306 373.452 38.9796 373.084 38.9125C372.574 38.8061 372.053 38.758 371.532 38.7694C371.006 38.7578 370.48 38.8058 369.964 38.9125C369.597 38.9788 369.25 39.1299 368.95 39.3539C368.842 39.4356 368.754 39.5418 368.695 39.6639C368.635 39.786 368.605 39.9205 368.607 40.0564L368.606 40.0534ZM386.072 42H385.3V30.7909H386.072V42ZM376.454 39.1077C376.978 38.7918 377.43 38.3698 377.782 37.8687C378.172 37.3231 378.473 36.7183 378.672 36.0772C378.882 35.4179 378.989 34.7298 378.988 34.0376V32.8396H376.721V32.166H381.916V32.8396H379.764V34.0336C379.763 34.6881 379.864 35.3388 380.063 35.9621C380.254 36.5718 380.545 37.1452 380.925 37.6585C381.274 38.1383 381.72 38.5395 382.233 38.8364L381.734 39.4459C381.154 39.0852 380.66 38.6015 380.287 38.0288C379.87 37.4035 379.563 36.7117 379.378 35.9831C379.19 36.7639 378.874 37.5079 378.443 38.1849C378.066 38.7935 377.559 39.3101 376.957 39.6971L376.454 39.1077ZM381.046 34.8892H383.058V31.0862H383.818V41.3905H383.058V35.5588H381.042L381.046 34.8892ZM399.012 33.2759C399.012 33.9238 399.005 34.4702 398.993 34.9153C398.98 35.3603 398.947 35.858 398.893 36.4085C398.836 36.9589 398.746 37.5497 398.623 38.1809L397.838 38.0808C397.96 37.4803 398.051 36.9095 398.11 36.3684C398.17 35.8273 398.206 35.3403 398.218 34.9073C398.226 34.4689 398.229 33.9238 398.229 33.2719V32.6494H391.209V31.9759H399.003L399.012 33.2759ZM390.128 39.6541H392.764V35.9051H393.563V39.6531H395.565V35.9051H396.351V39.6531H400.317V40.3397H390.121L390.128 39.6541ZM411.141 36.9229H408.34V38.4731H409.86V42H409.062V39.1157H402.075V38.4681H403.748V36.9179H400.947V36.2443H411.135L411.141 36.9229ZM402.119 33.1999C402.117 32.9875 402.158 32.7768 402.239 32.5808C402.321 32.3848 402.442 32.2076 402.594 32.06C402.976 31.7041 403.443 31.4525 403.949 31.3294C404.629 31.1504 405.331 31.0658 406.034 31.0782C406.736 31.0658 407.438 31.1504 408.118 31.3294C408.624 31.4525 409.091 31.7041 409.473 32.06C409.625 32.2076 409.746 32.3848 409.828 32.5808C409.91 32.7768 409.95 32.9875 409.948 33.1999C409.951 33.4119 409.91 33.6221 409.828 33.8177C409.746 34.0132 409.626 34.1899 409.473 34.3368C409.09 34.6909 408.624 34.9413 408.118 35.0644C407.438 35.2429 406.736 35.3251 406.034 35.3086C405.331 35.3251 404.629 35.2429 403.949 35.0644C403.443 34.9413 402.977 34.6909 402.594 34.3368C402.44 34.1899 402.317 34.0127 402.234 33.8162C402.151 33.6197 402.11 33.4082 402.112 33.1949L402.119 33.1999ZM402.942 33.1999C402.942 33.3496 402.975 33.4976 403.04 33.6325C403.105 33.7674 403.199 33.8857 403.317 33.9785C403.633 34.2316 404.004 34.4077 404.4 34.4929C404.935 34.6213 405.484 34.6822 406.035 34.6741C406.585 34.6822 407.134 34.6213 407.669 34.4929C408.066 34.4073 408.438 34.2313 408.756 33.9785C408.875 33.8859 408.97 33.7678 409.037 33.633C409.103 33.4982 409.138 33.3502 409.14 33.1999C409.139 33.0487 409.103 32.8997 409.037 32.7638C408.971 32.628 408.875 32.5089 408.756 32.4152C408.44 32.1632 408.069 31.9881 407.673 31.9038C407.137 31.7773 406.587 31.7174 406.036 31.7257C405.484 31.7174 404.934 31.7773 404.398 31.9038C404.003 31.9876 403.633 32.1627 403.318 32.4152C403.199 32.5076 403.103 32.6258 403.037 32.7609C402.971 32.896 402.936 33.0444 402.935 33.1949L402.942 33.1999ZM407.555 38.4731V36.9179H404.551V38.4681L407.555 38.4731ZM420.958 42H420.172V30.7909H420.958V42ZM411.948 39.1667C413.328 38.5553 414.535 37.6128 415.465 36.4225C416.284 35.3406 416.769 34.0424 416.862 32.6875H412.443V32.0269H417.663C417.664 33.0751 417.472 34.1145 417.096 35.0924C416.702 36.086 416.112 36.9893 415.36 37.7476C414.499 38.6092 413.494 39.3134 412.392 39.8282L411.948 39.1667ZM428.772 32.2421C428.768 32.8099 428.749 33.3437 428.715 33.8434C428.67 34.421 428.587 34.995 428.467 35.5618L427.669 35.4987C427.784 34.9472 427.868 34.3895 427.919 33.8284C427.959 33.3453 427.982 32.8563 427.986 32.3612H423.26V31.6746H428.772V32.2421ZM422.563 36.6767C423.487 36.6767 424.324 36.666 425.072 36.6447V34.1226H425.857V36.6196C427.361 36.5603 428.632 36.4565 429.671 36.3084L429.722 36.9179C428.616 37.0977 427.5 37.2133 426.38 37.2642C425.2 37.3215 423.957 37.3502 422.651 37.3502L422.563 36.6767ZM424.311 38.4681H425.11V41.0602H431.648V41.7338H424.311V38.4681ZM430.483 30.7939H431.281V34.5169H433.005V35.2045H431.281V39.2448H430.483V30.7939Z" fill="white"/>
</g>
<defs>
<clipPath id="clip0_1653_5917">
<rect width="220" height="36" fill="white" transform="translate(0 3)"/>
</clipPath>
<clipPath id="clip1_1653_5917">
<rect width="181" height="42" fill="white" transform="translate(252)"/>
</clipPath>
</defs>
</svg>
