<svg width="193" height="40" viewBox="0 0 193 40" fill="none" xmlns="http://www.w3.org/2000/svg">
<g clip-path="url(#clip0_1637_8987)">
<mask id="mask0_1637_8987" style="mask-type:luminance" maskUnits="userSpaceOnUse" x="0" y="0" width="193" height="40">
<path d="M193 0H0V40H193V0Z" fill="white"/>
</mask>
<g mask="url(#mask0_1637_8987)">
<path d="M9.09521 5.66217L10.0697 5.03416L8.94296 3.28182L9.33882 3.02859L9.88695 3.87944L10.0595 3.76802L9.51138 2.91717L9.9174 2.66394L11.6937 5.41907L11.2877 5.68243L10.3234 4.19344L10.1509 4.30486L11.1151 5.79385L10.7193 6.04708L10.3336 5.44946L9.14597 6.20914C9.07491 6.24966 9.01401 6.26992 8.96326 6.25979C8.90236 6.23953 8.8516 6.18888 8.7907 6.09772L7.5625 4.19344L8.7501 3.43376L9.01401 3.83892L8.24258 4.33525L9.10536 5.68243L9.09521 5.66217Z" fill="white"/>
<path d="M12.6802 2.07646C12.7513 2.11698 12.8122 2.16763 12.8629 2.21827C12.9137 2.27905 12.9644 2.34995 12.9847 2.42085C13.0862 2.66395 13.0761 2.89692 12.9644 3.11977C12.8629 3.33248 12.7005 3.49454 12.4772 3.57558C12.2539 3.66674 12.0306 3.66674 11.8073 3.57558C11.5637 3.48441 11.4013 3.32235 11.2997 3.07925C11.2693 3.00834 11.249 2.92731 11.249 2.84628C11.249 2.77537 11.249 2.69434 11.2693 2.61331L11.0358 2.70447L10.8633 2.27905L11.5535 2.00556L11.4419 1.73207L11.9392 1.52949L12.0509 1.80298L12.7513 1.52949L12.9238 1.95491L12.6701 2.0562L12.6802 2.07646ZM11.7667 2.59305C11.7261 2.69434 11.7261 2.80576 11.7667 2.92731C11.8073 3.03873 11.8885 3.10964 11.99 3.16028C12.0915 3.21093 12.2031 3.21093 12.3046 3.16028C12.4061 3.11976 12.4772 3.04886 12.5279 2.93744C12.5787 2.82602 12.5787 2.7146 12.5279 2.60318C12.4873 2.49176 12.4061 2.41072 12.2945 2.37021C12.1828 2.32969 12.0813 2.32969 11.9798 2.37021C11.8682 2.41072 11.7971 2.48163 11.7565 2.59305M14.0099 2.31956L14.3652 3.19067L13.8983 3.37299L13.0659 1.28639L13.5328 1.10406L13.8374 1.86375L14.2129 1.71181L14.3956 2.1575L14.0201 2.30943L14.0099 2.31956ZM11.8377 4.01113L12.3046 3.81868L12.5686 4.4872L14.5885 3.67687L14.7712 4.12255L12.5076 5.02404C12.4264 5.05443 12.3655 5.05443 12.3249 5.03417C12.264 5.00379 12.2234 4.94301 12.1828 4.84172L11.8479 4.001L11.8377 4.01113Z" fill="white"/>
</g>
<path d="M14.6875 0.779961L14.7789 1.2459L16.8495 0.860994L17.2454 2.95773L16.4334 3.11979L16.1898 1.79288L15.6924 1.88404L15.9462 3.21096L15.0022 3.38315L15.0935 3.85922L18.0676 3.29199L17.9762 2.82605L17.7326 2.86657L17.2556 0.293762L14.6875 0.779961Z" fill="white"/>
<mask id="mask1_1637_8987" style="mask-type:luminance" maskUnits="userSpaceOnUse" x="0" y="0" width="193" height="40">
<path d="M193 0H0V40H193V0Z" fill="white"/>
</mask>
<g mask="url(#mask1_1637_8987)">
<path d="M20.0788 0.719169C20.0788 0.719169 20.1194 0.810332 20.1397 0.850848C20.16 0.901494 20.1701 0.95214 20.16 1.00279C20.16 1.2155 20.0788 1.38769 19.9164 1.51937C19.7641 1.65105 19.5915 1.71183 19.3885 1.71183C19.1855 1.71183 19.013 1.64092 18.8607 1.50924C18.7085 1.36743 18.6273 1.19524 18.6273 0.982527C18.6273 0.942011 18.6273 0.891365 18.6476 0.840719C18.6577 0.800202 18.678 0.759686 18.7085 0.70904H18.4648V0.293745H19.1246V0H19.6524V0.303874H20.3021V0.729298H20.0585L20.0788 0.719169ZM19.1957 0.800202C19.1348 0.850848 19.1043 0.921752 19.1043 1.00279C19.1043 1.08382 19.1348 1.14459 19.1957 1.20537C19.2566 1.26614 19.3276 1.29653 19.4088 1.29653C19.49 1.29653 19.5509 1.26614 19.6118 1.2155C19.6727 1.16485 19.7032 1.09395 19.7032 1.02304C19.7032 0.942011 19.6727 0.871107 19.622 0.810332C19.5712 0.759686 19.5002 0.729298 19.419 0.729298C19.3378 0.729298 19.2566 0.749557 19.2058 0.810332M20.84 0.425424V0.192454H21.3374L21.3171 1.66118H20.8197V1.46873H20.3934V1.02304H20.8197V0.860977H20.3934V0.415295H20.8197L20.84 0.425424ZM20.8197 2.26893L18.6679 2.24867V1.79286L21.3273 1.82325V2.84629L19.1652 2.8159V2.96784L21.307 2.99823V3.46417L18.8912 3.43378C18.81 3.43378 18.7491 3.41352 18.7085 3.37301C18.6679 3.32236 18.6476 3.25146 18.6476 3.14003V2.39048L20.8096 2.42087V2.26893H20.8197Z" fill="white"/>
<path d="M23.8158 0.698895C23.9681 0.901478 24.0188 1.13445 23.9681 1.38768C23.9173 1.64091 23.7752 1.83336 23.562 1.96504C23.359 2.08659 23.1357 2.1271 22.9124 2.07646C22.679 2.02581 22.4962 1.91439 22.3541 1.72194C22.2019 1.50923 22.1511 1.28639 22.2019 1.04329C22.2526 0.790057 22.3947 0.597603 22.6079 0.465925C22.8109 0.344375 23.0241 0.313987 23.2575 0.354504C23.4808 0.40515 23.6737 0.51657 23.8158 0.709024M22.8718 0.88122C22.7805 0.941994 22.7196 1.02303 22.6891 1.13445C22.6688 1.24587 22.6891 1.34716 22.75 1.43832C22.8109 1.52948 22.8921 1.58013 22.9936 1.60039C23.0951 1.62065 23.1966 1.60039 23.288 1.54974C23.3895 1.48897 23.4402 1.40794 23.4707 1.29651C23.491 1.18509 23.4707 1.0838 23.3996 0.99264C23.3387 0.911607 23.2575 0.860961 23.156 0.830574C23.0545 0.810316 22.9632 0.830574 22.8718 0.88122ZM25.0237 1.89413L24.9019 2.4715L24.4147 2.3702L24.7395 0.790057L25.2267 0.891349L25.115 1.42819L25.5109 1.50923L25.4196 1.97517L25.0237 1.89413ZM22.2729 2.13723L22.7602 2.23853L22.7094 2.50188L24.3335 2.82602L24.3842 2.56266L24.8714 2.66395L24.638 3.79841C24.6177 3.90983 24.5771 3.97061 24.5263 4.01113C24.4857 4.04151 24.4147 4.05164 24.3436 4.03138L22.2323 3.60596C22.1511 3.5857 22.1004 3.55531 22.0699 3.5148C22.0395 3.46415 22.0293 3.38312 22.0496 3.28183L22.2831 2.14736L22.2729 2.13723ZM24.2421 3.2717L22.618 2.93744L22.5673 3.18054L24.1914 3.5148L24.2421 3.2717Z" fill="white"/>
<path d="M27.6207 2.3702C27.6308 2.43097 27.6308 2.49175 27.6207 2.54239C27.6207 2.60317 27.6004 2.66394 27.5801 2.72472C27.4887 2.93743 27.3365 3.08937 27.1233 3.1704C26.9203 3.24131 26.7173 3.2413 26.5143 3.16027C26.3113 3.07924 26.159 2.9273 26.0677 2.73485C25.9662 2.52214 25.9662 2.30942 26.0575 2.09671C26.0778 2.03594 26.1083 1.98529 26.1489 1.93464C26.1895 1.89413 26.2301 1.85361 26.2808 1.8131L26.088 1.73206L26.2605 1.31677L26.8797 1.57L26.9914 1.29651L27.4786 1.49909L27.3669 1.77258L27.976 2.02581L27.8034 2.4411L27.6105 2.36007L27.6207 2.3702ZM26.7072 2.09671C26.6158 2.13723 26.5549 2.198 26.5143 2.28917C26.4839 2.3702 26.4839 2.46136 26.5143 2.54239C26.5448 2.63356 26.6057 2.69433 26.697 2.72472C26.7782 2.76524 26.8696 2.75511 26.9508 2.72472C27.0421 2.6842 27.0929 2.62343 27.1335 2.54239C27.1741 2.45123 27.1741 2.3702 27.1335 2.27904C27.103 2.198 27.0421 2.13723 26.9508 2.09671C26.8594 2.05619 26.7782 2.05619 26.697 2.09671M28.5342 3.21092L28.2906 3.78828L27.8339 3.59582L28.4632 2.10684L28.9199 2.29929L28.7169 2.77536L29.0925 2.9273L28.9098 3.37298L28.5342 3.21092ZM27.6511 5.31778L27.1944 5.12533L27.5496 4.27448L25.5703 3.44389L25.753 2.99821L28.1993 4.02125L27.6613 5.30765L27.6511 5.31778Z" fill="white"/>
<path d="M30.2793 6.4725L28.2695 5.12533L28.5334 4.73029L29.1831 5.16584L29.4267 4.80119C29.2947 4.64926 29.2237 4.47706 29.2034 4.28461C29.1831 4.08202 29.2338 3.88957 29.3556 3.70725C29.3962 3.63634 29.4571 3.5857 29.5282 3.53505C29.5891 3.4844 29.6601 3.45402 29.7413 3.4135L29.5586 3.29195L29.8124 2.90704L30.4113 3.31221L30.5737 3.05898L31.0203 3.35273L30.8477 3.60595L31.4466 4.00099L31.1929 4.3859L31.0406 4.28461L31 4.25422C31 4.33525 31 4.41629 30.9797 4.49732C30.9594 4.57835 30.9289 4.65939 30.8782 4.73029C30.7564 4.91261 30.6041 5.02404 30.4011 5.09494C30.2083 5.14559 30.0256 5.14559 29.8327 5.08481L29.5891 5.44946L30.5432 6.0876L31.8526 4.1428L32.2688 4.41629L30.4417 7.14103L30.0256 6.85741L30.2793 6.48263V6.4725ZM30.0459 3.80854C29.9342 3.8288 29.8428 3.88957 29.7718 3.99086C29.7007 4.09215 29.6804 4.20357 29.7007 4.315C29.721 4.42642 29.7718 4.51758 29.8733 4.57835C29.9647 4.63913 30.0662 4.65939 30.1778 4.629C30.2895 4.60874 30.3808 4.54797 30.4519 4.44667C30.5229 4.34538 30.5432 4.23396 30.5229 4.12254C30.5026 4.01112 30.4417 3.93009 30.3504 3.86931C30.2489 3.80854 30.1474 3.77815 30.0459 3.80854Z" fill="white"/>
</g>
<path d="M6.28313 9.40995L6.8008 8.76169L7.16622 9.05543L5.77561 10.7774L5.4102 10.4836L5.92787 9.83538L4.12109 8.38691L4.47636 7.95135L6.28313 9.40995Z" fill="white"/>
<path d="M5.65187 10.9496L5.36766 11.4358L4.41352 10.8787L3.85525 11.8308L4.80939 12.3879L4.52517 12.8741L2.10938 11.4662L2.40374 10.98L3.44923 11.5978L4.0075 10.6457L2.95186 10.0278L3.23607 9.54163L5.65187 10.9496Z" fill="white"/>
<path d="M0.972656 14.2011L1.41927 14.3733L1.9877 12.9248L2.68808 13.1983L2.18056 14.5049L2.61702 14.6771L3.13469 13.3705L3.70312 13.5933L3.155 15.0013L3.60161 15.1735L4.35274 13.2489L1.74409 12.2259L0.972656 14.2011Z" fill="white"/>
<path d="M0.394356 16.5713L1.22669 16.7029L1.62256 17.2297L0.201498 17.7766L0.0898438 18.4958L1.94737 17.6753L2.85076 18.8908L2.97256 18.1413L1.92707 16.8144L3.15527 17.0169L3.24662 16.4598L0.48571 16.0142L0.394356 16.5713Z" fill="white"/>
<mask id="mask2_1637_8987" style="mask-type:luminance" maskUnits="userSpaceOnUse" x="0" y="0" width="193" height="40">
<path d="M193 0H0V40H193V0Z" fill="white"/>
</mask>
<g mask="url(#mask2_1637_8987)">
<path d="M1.45162 19.3872C1.85764 19.3872 2.40576 19.529 2.39561 20.1772C2.38546 20.866 1.74598 20.9369 1.43132 20.9268C0.629435 20.9167 0.467028 20.4406 0.477179 20.1469C0.477179 19.8126 0.670036 19.61 0.832443 19.5189C0.944098 19.4581 1.12681 19.3872 1.44147 19.3872M1.45162 18.8098C0.812142 18.8098 0.0204098 19.0934 0.000109004 20.1469C-0.0100414 21.1193 0.690337 21.494 1.42117 21.5143C2.2332 21.5244 2.87268 21.099 2.89298 20.1874C2.90313 19.3264 2.34486 18.8301 1.45162 18.8199" fill="white"/>
<path d="M2.48768 22.4158L2.55873 22.8513C2.61963 23.2261 2.62979 23.297 2.58918 23.4084C2.54858 23.5199 2.44708 23.5806 2.33542 23.6009C2.25422 23.611 2.07151 23.6212 1.98016 23.4388C1.92941 23.3477 1.88881 23.1147 1.8685 22.9425L1.79745 22.5272L2.49783 22.4158H2.48768ZM0.102332 22.2335L0.193686 22.7906L1.35083 22.6082L1.37113 22.7197C1.43204 23.0944 1.37113 23.135 0.934666 23.5503L0.396694 24.0466L0.498198 24.7151L0.985418 24.2897C1.38128 23.9352 1.46249 23.8136 1.56399 23.5604C1.59444 23.6718 1.6452 23.763 1.69595 23.8541C1.8482 24.1074 2.14257 24.2086 2.43693 24.1681C2.71099 24.1276 3.00535 23.9453 3.06625 23.6009C3.0764 23.5097 3.0967 23.3679 3.0358 22.9628L2.84294 21.7979L0.0820312 22.2436L0.102332 22.2335Z" fill="white"/>
</g>
<path d="M0.660156 25.2418L1.29963 27.2575L1.74625 27.1157L1.27933 25.6267L2.00001 25.4039L2.42633 26.741L2.87295 26.5991L2.44663 25.2621L3.0455 25.0798L3.49212 26.508L3.94889 26.3662L3.31956 24.4011L0.660156 25.2418Z" fill="white"/>
<path d="M2.8609 28.0881L3.95714 27.9869L3.18571 28.7871L2.8609 28.0983V28.0881ZM2.63759 30.1849L4.67782 27.9767L4.42406 27.4399L1.42969 27.6627L1.6936 28.2097L2.36353 28.1489L2.8406 29.1517L2.37368 29.6379L2.63759 30.195V30.1849Z" fill="white"/>
<path d="M5.25804 29.101L5.56255 29.5568L4.64901 31.532V31.5421L6.20203 30.4988L6.48624 30.9344L4.17194 32.4841L3.85728 32.0182L4.75052 30.0835L4.74037 30.0734L3.22796 31.0863L2.93359 30.6609L5.25804 29.101Z" fill="white"/>
<mask id="mask3_1637_8987" style="mask-type:luminance" maskUnits="userSpaceOnUse" x="0" y="0" width="193" height="40">
<path d="M193 0H0V40H193V0Z" fill="white"/>
</mask>
<g mask="url(#mask3_1637_8987)">
<path d="M6.43498 33.6186C6.35378 33.7402 6.14062 34.0745 6.49589 34.429C6.7801 34.7025 7.03386 34.6619 7.15566 34.5404C7.31807 34.3682 7.21657 34.196 6.93235 33.7503C6.7801 33.5072 6.44513 32.9704 6.87145 32.5247C7.08461 32.312 7.56168 32.0993 8.1504 32.6766C8.54627 33.0615 8.74928 33.5579 8.32296 34.0238L7.89664 33.649C7.97785 33.5275 8.1301 33.3148 7.81544 33.0008C7.69364 32.8792 7.43988 32.707 7.28762 32.8691C7.16581 33.0008 7.23687 33.173 7.48048 33.568C7.71394 33.9326 8.0286 34.4391 7.55153 34.9253C7.31807 35.1684 6.96281 35.219 6.70905 35.138C6.44513 35.0469 6.24213 34.8544 6.15077 34.7632C5.93761 34.5505 5.41994 34.0238 5.98837 33.2844L6.41468 33.6288L6.43498 33.6186Z" fill="white"/>
<path d="M8.7301 35.0975C8.96355 34.7633 9.38987 34.3885 9.90754 34.743C10.476 35.1279 10.1816 35.7053 9.9989 35.9585C9.54213 36.6169 9.06506 36.4852 8.8113 36.313C8.53724 36.1206 8.47633 35.8471 8.49664 35.6648C8.49664 35.5331 8.54739 35.3406 8.7301 35.0874M8.24287 34.7835C7.87746 35.3102 7.6846 36.1307 8.54739 36.7283C9.34927 37.2854 10.0598 36.9106 10.476 36.313C10.9429 35.6445 10.9327 34.8747 10.1816 34.3581C9.47108 33.8719 8.7504 34.0542 8.24287 34.7937" fill="white"/>
<path d="M12.8283 37.9944C12.6862 38.1666 12.2294 38.7136 11.3971 38.3287C10.7069 38.0147 10.4734 37.3057 10.8287 36.5156C11.1535 35.8065 11.8031 35.3507 12.6253 35.7255C12.7674 35.7863 13.1125 35.9686 13.2648 36.3738C13.3358 36.5561 13.3257 36.7384 13.2952 36.9309L12.737 36.8195C12.7979 36.5156 12.6557 36.2725 12.3918 36.1509C11.7625 35.8572 11.4377 36.5561 11.3666 36.7182C11.255 36.9511 11.1738 37.2044 11.2042 37.4171C11.2347 37.5994 11.3565 37.7817 11.5798 37.883C11.9249 38.035 12.199 37.8526 12.3817 37.6095L12.808 37.9944H12.8283Z" fill="white"/>
</g>
<path d="M13.082 38.9567L13.62 39.1289L14.4828 36.4751L13.9448 36.3029L13.082 38.9567Z" fill="white"/>
<path d="M14.3008 39.3518L16.3816 39.7873L16.473 39.3315L14.9504 39.0074L15.1128 38.2679L16.4831 38.5617L16.5846 38.0957L15.2042 37.802L15.3361 37.2044L16.8079 37.5082L16.9094 37.0524L14.8794 36.627L14.3008 39.3518Z" fill="white"/>
<path d="M17.043 37.5488L17.8652 37.6095L17.6926 39.919L18.2509 39.9595L18.4336 37.6501L19.2558 37.721L19.2964 37.2449L17.0836 37.0727L17.043 37.5488Z" fill="white"/>
<path d="M21.1856 37.1739L20.5867 38.2983L19.8863 37.2246L19.2266 37.255L20.3127 38.825L20.3634 40L20.9217 39.9797L20.8709 38.8047L21.8352 37.1436L21.1856 37.1739Z" fill="white"/>
<mask id="mask4_1637_8987" style="mask-type:luminance" maskUnits="userSpaceOnUse" x="0" y="0" width="193" height="40">
<path d="M193 0H0V40H193V0Z" fill="white"/>
</mask>
<g mask="url(#mask4_1637_8987)">
<path d="M23.7309 38.2375C23.6294 37.8425 23.6294 37.2753 24.2486 37.1233C24.9185 36.9613 25.1519 37.5589 25.223 37.8628C25.4159 38.6427 24.9997 38.9162 24.7155 38.9871C24.3805 39.0681 24.1471 38.9364 24.0151 38.7946C23.9237 38.7035 23.8121 38.5414 23.7309 38.2375ZM23.1625 38.3895C23.3147 39.0175 23.8019 39.6961 24.8271 39.4429C25.7813 39.2099 25.964 38.43 25.7813 37.721C25.5884 36.9309 24.9997 36.4244 24.1166 36.6473C23.2741 36.86 22.9392 37.5184 23.1523 38.3895" fill="white"/>
</g>
<path d="M25.6992 36.2522L27.4654 35.5027L27.6481 35.9382L26.3996 36.465L26.6635 37.0727L27.7395 36.6169L27.9222 37.0524L26.8462 37.5083L27.3131 38.6022L26.7955 38.8149L25.6992 36.2522Z" fill="white"/>
<path d="M28.6055 34.8848L29.0622 34.5607L29.7017 35.452L30.5949 34.8139L29.9555 33.9225L30.4122 33.5984L32.0363 35.8673L31.5795 36.1915L30.869 35.1988L29.9758 35.8369L30.6863 36.8296L30.2194 37.1537L28.6055 34.8848Z" fill="white"/>
<path d="M32.3794 33.963L30.5117 33.5275L30.9786 33.0717L32.2271 33.3958L31.9023 32.16L32.3692 31.7042L32.7753 33.5781L33.5974 34.4087L33.2016 34.8037L32.3794 33.963Z" fill="white"/>
<mask id="mask5_1637_8987" style="mask-type:luminance" maskUnits="userSpaceOnUse" x="0" y="0" width="193" height="40">
<path d="M193 0H0V40H193V0Z" fill="white"/>
</mask>
<g mask="url(#mask5_1637_8987)">
<path d="M33.3151 31.2079C33.5181 30.9344 33.5993 30.8331 33.7617 30.8027C33.8835 30.7723 33.985 30.8027 34.0662 30.8736C34.3911 31.1167 34.1474 31.4307 33.9749 31.6637L33.782 31.9068L33.1527 31.4307L33.3151 31.218V31.2079ZM34.6651 33.2742L35.0001 32.8285L34.1576 32.2005L34.3809 31.9068C34.5332 31.7042 34.7057 31.4611 34.7565 31.2484C34.7971 31.0559 34.7971 30.7115 34.4012 30.4178C34.0256 30.1342 33.7008 30.2152 33.5181 30.3064C33.376 30.3874 33.2644 30.4988 32.97 30.8837L32.4219 31.6029L34.655 33.2843L34.6651 33.2742Z" fill="white"/>
</g>
<path d="M33.8828 29.6278L34.8877 27.8248L35.2937 28.0476L34.5629 29.3644L35.111 29.6683L35.7911 28.4426L36.1971 28.6655L35.517 29.9012L36.187 30.2659L36.9381 28.8985L37.3543 29.1314L36.3189 30.9851L33.8828 29.6278Z" fill="white"/>
<mask id="mask6_1637_8987" style="mask-type:luminance" maskUnits="userSpaceOnUse" x="0" y="0" width="193" height="40">
<path d="M193 0H0V40H193V0Z" fill="white"/>
</mask>
<g mask="url(#mask6_1637_8987)">
<path d="M35.6903 27.136L35.8425 26.7207C35.9745 26.3662 36.0049 26.3054 36.0963 26.2244C36.1978 26.1535 36.3094 26.1535 36.4109 26.194C36.482 26.2244 36.6444 26.3054 36.6342 26.508C36.6342 26.6093 36.553 26.8321 36.482 26.9942L36.3297 27.3791L35.67 27.1259L35.6903 27.136ZM37.6493 28.4832L37.8523 27.9565L36.7662 27.5412L36.8068 27.4297C36.9388 27.0752 36.9997 27.0651 37.5985 26.9233L38.3091 26.7612L38.5527 26.1332L37.9234 26.2548C37.4057 26.3561 37.2737 26.427 37.0606 26.589C37.091 26.4776 37.1012 26.3662 37.091 26.2649C37.091 25.9711 36.888 25.728 36.6038 25.6268C36.35 25.5255 36.0049 25.5356 35.7715 25.7989C35.7106 25.8699 35.6294 25.9813 35.4771 26.3662L35.0508 27.4703L37.6594 28.4629L37.6493 28.4832Z" fill="white"/>
</g>
<path d="M36.5426 24.5733L36.3497 25.3735L35.8828 25.2621L36.4005 23.1147L36.8573 23.2261L36.6644 24.0263L38.9279 24.5632L38.796 25.1101L36.5426 24.5733Z" fill="white"/>
<path d="M36.4297 22.902L36.6327 20.8458L37.0996 20.8863L36.9575 22.3854L37.5767 22.4462L37.7086 21.0483L38.1756 21.099L38.0436 22.4867L38.7947 22.5677L38.947 21.018L39.4139 21.0585L39.2109 23.1653L36.4297 22.902Z" fill="white"/>
<path d="M36.6335 20.4811L36.6031 19.9342L38.4098 18.6984V18.6883L36.5422 18.7997L36.5117 18.273L39.3031 18.121L39.3335 18.6883L37.5775 19.8936V19.9038L39.3944 19.8025L39.4249 20.3292L36.6335 20.4811Z" fill="white"/>
<mask id="mask7_1637_8987" style="mask-type:luminance" maskUnits="userSpaceOnUse" x="0" y="0" width="193" height="40">
<path d="M193 0H0V40H193V0Z" fill="white"/>
</mask>
<g mask="url(#mask7_1637_8987)">
<path d="M38.1669 17.0777C38.2989 17.0271 38.6744 16.8751 38.5729 16.3788C38.4917 15.9939 38.2583 15.8825 38.0857 15.923C37.8624 15.9736 37.8421 16.1762 37.832 16.7029C37.8218 16.9866 37.7914 17.6247 37.1925 17.7462C36.8981 17.807 36.3906 17.7057 36.218 16.9055C36.1064 16.3687 36.218 15.842 36.8271 15.69L36.9692 16.237C36.8271 16.2876 36.5835 16.3788 36.6748 16.8144C36.7053 16.9764 36.8169 17.2702 37.0402 17.2195C37.2128 17.1891 37.2534 16.9967 37.2737 16.5409C37.2838 16.1053 37.3041 15.5077 37.9741 15.376C38.309 15.3051 38.6237 15.4672 38.7861 15.6799C38.9485 15.9027 39.0094 16.1762 39.0399 16.2978C39.1008 16.5915 39.2226 17.3208 38.3293 17.6146L38.1669 17.0878V17.0777Z" fill="white"/>
</g>
<path d="M38.4003 14.1088L35.7383 14.9468L35.9063 15.4781L38.5683 14.64L38.4003 14.1088Z" fill="white"/>
<mask id="mask8_1637_8987" style="mask-type:luminance" maskUnits="userSpaceOnUse" x="0" y="0" width="193" height="40">
<path d="M193 0H0V40H193V0Z" fill="white"/>
</mask>
<g mask="url(#mask8_1637_8987)">
<path d="M36.7235 13.5528C36.348 13.725 35.7897 13.8263 35.5258 13.2489C35.2416 12.6209 35.7897 12.2866 36.0739 12.155C36.8149 11.8207 37.1498 12.1853 37.2717 12.4588C37.4138 12.7728 37.3224 13.0261 37.2107 13.178C37.1397 13.2894 36.9976 13.4312 36.7134 13.5528M36.9773 14.0795C37.566 13.8161 38.1547 13.2084 37.7183 12.2562C37.3123 11.3649 36.5205 11.3244 35.8506 11.6181C35.1096 11.9524 34.7137 12.6108 35.0893 13.4414C35.4446 14.2314 36.1551 14.434 36.9773 14.0694" fill="white"/>
</g>
<path d="M34.4298 11.9625L34.1252 11.5067L35.0388 9.53154L35.0286 9.52141L33.4858 10.5546L33.1914 10.1292L35.5159 8.56927L35.8305 9.04535L34.9373 10.98V10.9901L36.4598 9.97723L36.7441 10.4027L34.4298 11.9625Z" fill="white"/>
<path d="M14.8998 10.038H20.2287L14.3719 30.6812H9.04297L14.8998 10.038Z" fill="white"/>
<path d="M25.081 9.99744H30.3795L24.4821 30.6406H19.1836L25.081 9.99744Z" fill="white"/>
<mask id="mask9_1637_8987" style="mask-type:luminance" maskUnits="userSpaceOnUse" x="0" y="0" width="193" height="40">
<path d="M193 0H0V40H193V0Z" fill="white"/>
</mask>
<g mask="url(#mask9_1637_8987)">
<path d="M19.9053 19.5594C19.9053 19.5594 19.753 16.3991 16.3933 16.3991C13.2263 16.3991 12.8203 19.3467 12.8203 19.9646C12.8203 20.5318 13.0132 21.9803 14.7286 21.9803C16.444 21.9803 16.3527 20.3799 16.4846 20.0152C16.6166 19.6506 16.7891 18.4756 17.9158 18.3236C19.5805 18.1109 19.9053 19.5594 19.9053 19.5594Z" fill="#8A949E"/>
<path d="M20.0586 20.471C20.0586 20.471 20.2108 23.6313 23.5706 23.6313C26.7376 23.6313 27.1436 20.6837 27.1436 20.0557C27.1436 19.4986 26.9507 18.04 25.2353 18.04C23.5199 18.04 23.6112 19.6404 23.4793 20.0051C23.3473 20.3697 23.1748 21.5447 22.0481 21.6967C20.3834 21.9094 20.0586 20.4609 20.0586 20.4609" fill="#8A949E"/>
<path d="M61.9284 22.4564V12.702H59.6141V21.6055H57.6247V4.09223H59.6141V10.7572H61.9284V3.66681H63.9179V22.4564H61.9284ZM55.1378 18.1414C54.4983 18.2021 53.6051 18.2427 52.4784 18.273L48.875 18.3136V5.97625H55.3104V7.80963H50.9051V16.4093L53.2397 16.389C53.8792 16.3789 54.5186 16.3384 55.1378 16.2979C55.757 16.2573 56.2341 16.1966 56.5589 16.1358V17.9692C56.2544 18.0299 55.7874 18.0806 55.148 18.1414" fill="white"/>
<path d="M84.0655 11.0712V17.5842H82.0354V3.66678H84.0655V9.21756H86.6335V11.0712H84.0655ZM76.5846 11.3345C76.138 11.0205 75.4681 10.8686 74.5748 10.8686C73.6816 10.8686 73.0117 11.0205 72.5549 11.3345C72.0981 11.6486 71.8647 12.0436 71.8647 12.5298C71.8647 13.016 72.088 13.3908 72.5447 13.6946C72.9914 13.9985 73.6714 14.1505 74.5748 14.1505C75.4782 14.1505 76.1278 13.9985 76.5846 13.7048C77.0312 13.4009 77.2647 13.016 77.2647 12.5298C77.2647 12.0436 77.0414 11.6486 76.5846 11.3345ZM71.55 3.57562H77.5591V5.25706H71.55V3.57562ZM71.4587 22.0309V16.8448H73.6308V20.2583H84.5933V22.0309H71.4587ZM70.9613 14.8088C70.068 14.1505 69.6214 13.4009 69.6214 12.55C69.6214 11.6384 70.068 10.8787 70.9714 10.2609C71.8748 9.65311 73.0726 9.33911 74.5545 9.33911C76.0365 9.33911 77.3256 9.64298 78.1782 10.2609C79.041 10.8686 79.4673 11.6384 79.4673 12.55C79.4673 13.4617 79.0309 14.1707 78.1681 14.819C77.3053 15.4672 76.0872 15.7914 74.5342 15.7914C72.9812 15.7914 71.8545 15.4672 70.9613 14.8088ZM68.8398 6.61437H80.2591V8.32619H68.8398V6.61437Z" fill="white"/>
<path d="M105.515 10.3115C105.272 12.5399 104.957 14.4037 104.571 15.8926H102.521C102.551 15.7508 102.734 14.6873 103.069 12.7121C103.414 10.7369 103.607 9.03521 103.668 7.607H92.0051V5.79388H105.921C105.891 6.57383 105.759 8.08307 105.515 10.3115ZM90.0664 19.9544V18.1616H96.3597V11.6688H98.4506V18.1616H108.104V19.9544H90.0664Z" fill="white"/>
<path d="M126.201 14.1504V12.3373H123.045V10.6761H126.201V8.80226H123.451V7.16134H126.201V3.67691H128.231V14.1606H126.201V14.1504ZM119.685 10.4027C119.299 10.1494 118.639 10.0279 117.726 10.0279C116.812 10.0279 116.183 10.1494 115.767 10.3925C115.351 10.6356 115.137 10.9598 115.137 11.3548C115.137 11.7296 115.34 12.0335 115.757 12.2766C116.163 12.5197 116.822 12.6412 117.726 12.6412C118.629 12.6412 119.289 12.5197 119.685 12.2867C120.07 12.0537 120.273 11.7397 120.273 11.3345C120.273 10.9598 120.081 10.6559 119.685 10.4027ZM115.127 22.2335V17.9894H126.008V16.7942H115.127V15.1735H128.201V19.4885H117.36V20.6432H128.668V22.2436H115.127V22.2335ZM114.884 3.55536H120.476V5.11525H114.884V3.55536ZM121.248 13.33C120.446 13.8668 119.269 14.1302 117.716 14.1302C116.163 14.1302 115.066 13.8668 114.234 13.33C113.402 12.7931 112.985 12.1347 112.985 11.3548C112.985 10.5749 113.402 9.87595 114.244 9.35936C115.087 8.84277 116.254 8.57942 117.756 8.57942C119.258 8.57942 120.466 8.84277 121.258 9.36949C122.05 9.8962 122.446 10.5546 122.446 11.3548C122.446 12.155 122.05 12.7931 121.248 13.33ZM112.184 6.18894H123.187V7.76908H112.184V6.18894Z" fill="white"/>
<path d="M148.024 9.21758V13.9378H145.974V3.66681H148.024V7.38421H150.582V9.21758H148.024ZM145.974 18.3136H137.549V20.4711H145.974V18.3136ZM135.499 22.2335V14.5759H137.549V16.5815H145.974V14.5759H148.024V22.2335H135.499ZM139.731 6.8271C139.183 6.36116 138.544 6.11806 137.813 6.11806C137.082 6.11806 136.453 6.36116 135.894 6.83723C135.346 7.3133 135.062 7.89066 135.062 8.55919C135.062 9.22771 135.336 9.84559 135.894 10.3318C136.443 10.818 137.092 11.0611 137.813 11.0611C138.534 11.0611 139.173 10.818 139.731 10.3318C140.279 9.84559 140.564 9.2581 140.564 8.55919C140.564 7.86028 140.29 7.30317 139.731 6.8271ZM141.193 11.76C140.208 12.5703 139.082 12.9755 137.813 12.9755C136.544 12.9755 135.427 12.5703 134.443 11.7701C133.448 10.9699 132.961 9.90636 132.961 8.5997C132.961 7.29304 133.448 6.23961 134.423 5.43941C135.397 4.63921 136.534 4.24417 137.813 4.24417C139.092 4.24417 140.208 4.63921 141.193 5.43941C142.178 6.23961 142.675 7.29304 142.675 8.5997C142.675 9.90636 142.178 10.9497 141.193 11.76Z" fill="white"/>
<path d="M169.452 10.666V15.6192H167.422V3.66678H169.452V8.81239H172.01V10.666H169.452ZM161.981 11.0104C161.535 10.7369 160.865 10.6053 159.962 10.6053C159.058 10.6053 158.378 10.7471 157.921 11.0205C157.465 11.294 157.241 11.6688 157.241 12.1246C157.241 12.5804 157.465 12.9552 157.921 13.249C158.378 13.5427 159.058 13.6845 159.962 13.6845C160.865 13.6845 161.535 13.5326 161.981 13.2388C162.428 12.9451 162.651 12.5602 162.651 12.1044C162.651 11.6486 162.428 11.2839 161.981 11.0104ZM156.927 3.57562H162.936V5.21654H156.927V3.57562ZM167.381 22.4564V18.4655H156.155V16.7739H169.472V22.4462H167.381V22.4564ZM156.368 14.3429C155.475 13.7453 155.028 13.0059 155.028 12.1246C155.028 11.2434 155.475 10.5141 156.368 9.9266C157.262 9.33911 158.459 9.05549 159.962 9.05549C161.464 9.05549 162.722 9.34924 163.565 9.9266C164.418 10.5141 164.834 11.2434 164.834 12.1246C164.834 13.0059 164.407 13.7453 163.545 14.3429C162.682 14.9405 161.474 15.2343 159.921 15.2343C158.449 15.2343 157.262 14.9304 156.368 14.3429ZM154.227 6.46243H165.646V8.10335H154.227V6.46243Z" fill="white"/>
<path d="M190.424 3.66681H192.474V22.4564H190.424V3.66681ZM184.943 11.8714C184.435 11.5777 183.796 11.4359 183.024 11.4359C182.253 11.4359 181.664 11.5777 181.157 11.8714C180.649 12.1652 180.395 12.5197 180.395 12.9248C180.395 13.33 180.649 13.7048 181.157 13.9682C181.664 14.2416 182.294 14.3733 183.045 14.3733C183.796 14.3733 184.445 14.2416 184.953 13.9682C185.46 13.6947 185.714 13.3604 185.714 12.9451C185.714 12.5298 185.46 12.155 184.943 11.8714ZM179.979 4.24417H185.927V5.97625H179.979V4.24417ZM177.452 7.25253H188.475V9.00487H177.452V7.25253ZM186.526 19.4784C185.278 19.5392 183.836 19.5898 182.212 19.6202L176.457 19.6405V17.8274H182.03V15.9028C180.954 15.7509 180.071 15.3964 179.391 14.8696C178.71 14.3328 178.365 13.6947 178.365 12.935C178.365 12.0841 178.812 11.365 179.705 10.7775C180.598 10.19 181.705 9.89623 183.035 9.89623C184.364 9.89623 185.491 10.19 186.394 10.7876C187.298 11.3751 187.744 12.1044 187.744 12.9552C187.744 13.6643 187.409 14.2923 186.75 14.819C186.09 15.3558 185.237 15.7002 184.202 15.8522V17.797C185.227 17.797 186.201 17.7565 187.135 17.6754C188.059 17.5944 188.891 17.5032 189.612 17.4121V19.2252C188.8 19.3265 187.775 19.4075 186.526 19.4683" fill="white"/>
</g>
<path d="M51.36 28.0071V34.8443H50.6901L50.7002 28.0071H48.4062V27.3791H53.6439V28.0071H51.36Z" fill="white"/>
<mask id="mask10_1637_8987" style="mask-type:luminance" maskUnits="userSpaceOnUse" x="0" y="0" width="193" height="40">
<path d="M193 0H0V40H193V0Z" fill="white"/>
</mask>
<g mask="url(#mask10_1637_8987)">
<path d="M57.6245 34.8037V31.4105C57.6245 30.9243 57.5129 30.5495 57.2794 30.2963C57.046 30.043 56.7313 29.9114 56.3253 29.9114C55.8787 29.9114 55.4929 30.0734 55.1884 30.4077C54.8839 30.742 54.7317 31.0863 54.7317 31.4611V34.7936H54.082V27.3487H54.7317V30.1241C54.9448 29.8506 55.1986 29.6278 55.5132 29.4353C55.8178 29.2428 56.2035 29.1618 56.6602 29.2023C57.1678 29.2327 57.5636 29.4454 57.8478 29.8405C58.1321 30.2355 58.2742 30.6711 58.2742 31.1471V34.7936H57.6144L57.6245 34.8037Z" fill="white"/>
<path d="M62.8211 31.7042C62.8008 31.1471 62.6283 30.7014 62.3136 30.3571C61.9888 30.0127 61.6031 29.8506 61.1463 29.8506C60.6895 29.8506 60.3241 30.0228 59.9993 30.3571C59.6846 30.6913 59.5121 31.1471 59.4816 31.7042H62.8313H62.8211ZM59.4613 32.2917C59.4715 32.9197 59.6542 33.4161 60.0094 33.801C60.3647 34.1859 60.7403 34.3783 61.1463 34.3783C61.5828 34.3783 61.9177 34.277 62.1512 34.0643C62.3846 33.8516 62.5471 33.6186 62.6181 33.3654H63.3489C63.2271 33.7301 62.9937 34.0947 62.6587 34.4594C62.3237 34.824 61.8162 35.0063 61.1564 35.0063C60.4459 35.0063 59.8775 34.7227 59.441 34.1656C59.0046 33.6085 58.7812 32.9197 58.7812 32.1094C58.7812 31.2991 58.9944 30.6002 59.4309 30.0431C59.8673 29.486 60.4358 29.2125 61.1463 29.2125C61.8061 29.2125 62.3745 29.4657 62.8516 29.9823C63.3286 30.4989 63.5621 31.2586 63.5418 32.2715H59.4715L59.4613 32.2917Z" fill="white"/>
<path d="M72.1207 34.8038L69.2481 31.056C68.9842 31.3396 68.7406 31.6029 68.5071 31.8359C68.2737 32.0689 68.1011 32.2411 67.9895 32.3525V34.8038H67.3398V27.3892H67.9895V31.4004C68.5579 30.8331 69.1568 30.1849 69.8064 29.4657C70.4459 28.7364 71.0245 28.0375 71.5421 27.3791H72.3846C71.9278 27.9868 71.4711 28.5541 71.0143 29.0909C70.5575 29.6176 70.1312 30.1038 69.7252 30.5394L72.9429 34.824H72.1308L72.1207 34.8038Z" fill="white"/>
<path d="M75.9885 33.7301C76.3032 33.2945 76.4555 32.7577 76.4555 32.1094C76.4555 31.4611 76.3032 30.9243 75.9885 30.4887C75.6739 30.0633 75.2679 29.8506 74.7502 29.8506C74.2325 29.8506 73.8367 30.0633 73.5321 30.4887C73.2175 30.9142 73.0652 31.4611 73.0652 32.1094C73.0652 32.7577 73.2175 33.2945 73.5321 33.7301C73.8367 34.1656 74.2427 34.3783 74.7502 34.3783C75.2577 34.3783 75.6739 34.1656 75.9885 33.7301ZM76.5062 30.0532C76.9325 30.6002 77.1558 31.2889 77.1558 32.1195C77.1558 32.9501 76.9427 33.6186 76.5062 34.1859C76.0799 34.743 75.4912 35.0266 74.7502 35.0266C74.0092 35.0266 73.4408 34.743 73.0145 34.1859C72.5882 33.6288 72.375 32.94 72.375 32.1195C72.375 31.2991 72.5882 30.6002 73.0145 30.0532C73.4408 29.5062 74.0194 29.2327 74.7502 29.2327C75.481 29.2327 76.0799 29.5062 76.5062 30.0532Z" fill="white"/>
<path d="M80.2501 29.9519C80.108 29.9519 79.9558 29.962 79.7731 29.9924C79.6005 30.0228 79.4381 30.0734 79.2858 30.1646C79.0016 30.3469 78.7885 30.5698 78.6362 30.8534C78.4941 31.137 78.4231 31.5118 78.4231 31.9777V34.7936H77.7734V29.4252H78.4231V30.2659L78.484 30.2862C78.5753 30.1038 78.6971 29.9418 78.8392 29.8C78.9813 29.6582 79.1437 29.5467 79.3163 29.4556C79.4787 29.3745 79.6411 29.3138 79.8238 29.2834C80.0065 29.253 80.1385 29.2327 80.2501 29.2327V29.9519Z" fill="white"/>
<path d="M84.0867 31.7042C84.0664 31.1471 83.8939 30.7014 83.5792 30.3571C83.2544 30.0127 82.8687 29.8506 82.4119 29.8506C81.9552 29.8506 81.5897 30.0228 81.2751 30.3571C80.9604 30.6913 80.7879 31.1471 80.7574 31.7042H84.107H84.0867ZM80.727 32.2917C80.7371 32.9197 80.9198 33.4161 81.2751 33.801C81.6202 34.1859 82.0059 34.3783 82.4119 34.3783C82.8484 34.3783 83.1834 34.277 83.4168 34.0643C83.6503 33.8516 83.8127 33.6186 83.8837 33.3654H84.6146C84.4928 33.7301 84.2593 34.0947 83.9243 34.4594C83.5894 34.824 83.0818 35.0063 82.4221 35.0063C81.7115 35.0063 81.1431 34.7227 80.7067 34.1656C80.2702 33.6085 80.0469 32.9197 80.0469 32.1094C80.0469 31.2991 80.26 30.6002 80.6965 30.0431C81.133 29.486 81.7014 29.2125 82.4119 29.2125C83.0717 29.2125 83.6401 29.4657 84.1172 29.9823C84.5943 30.4989 84.8277 31.2586 84.8074 32.2715H80.7371L80.727 32.2917Z" fill="white"/>
<path d="M88.8665 31.8663C88.7955 31.9271 88.694 31.9878 88.5925 32.0385C88.491 32.0891 88.3793 32.1195 88.2778 32.1398C88.0748 32.1904 87.7906 32.2309 87.4252 32.2816C87.0598 32.3221 86.806 32.3626 86.6537 32.4031C86.3188 32.5044 86.0752 32.6462 85.9026 32.8387C85.7402 33.0311 85.659 33.2641 85.6793 33.5376C85.6996 33.8617 85.8316 34.0947 86.0955 34.2365C86.3492 34.3783 86.6537 34.4391 87.009 34.4087C87.4759 34.3682 87.9022 34.1859 88.288 33.8719C88.6737 33.5579 88.8665 33.2337 88.8665 32.8995V31.8663ZM89.0188 34.8341C88.9782 34.7531 88.9477 34.6316 88.9173 34.4796C88.8868 34.3175 88.8665 34.1555 88.8665 33.9732C88.6737 34.2163 88.3996 34.4391 88.0443 34.6518C87.6992 34.8645 87.3237 34.9759 86.9176 34.9962C86.4101 35.0367 85.9838 34.9354 85.6184 34.7025C85.2631 34.4695 85.0601 34.1251 85.0094 33.6592C84.9688 33.1831 85.0601 32.8083 85.2834 32.5348C85.5169 32.2613 85.8011 32.0689 86.1564 31.9473C86.4406 31.846 86.7451 31.7853 87.0902 31.765C87.4353 31.7447 87.7601 31.7042 88.0545 31.6435C88.2169 31.6029 88.3895 31.5422 88.5722 31.4611C88.7549 31.37 88.8462 31.218 88.8462 30.9749C88.8462 30.6812 88.7244 30.4178 88.491 30.1747C88.2575 29.9316 87.8921 29.8101 87.4049 29.8101C86.9379 29.8101 86.5725 29.9215 86.3086 30.1342C86.0447 30.3469 85.9229 30.6305 85.9331 30.9749H85.3037C85.2631 30.4381 85.4458 30.0025 85.8722 29.6784C86.2985 29.3543 86.806 29.1821 87.4049 29.1821C88.0037 29.1821 88.4808 29.334 88.897 29.648C89.3131 29.962 89.5263 30.4077 89.5263 30.9749V33.9225C89.5263 34.1656 89.5466 34.3682 89.5872 34.5303C89.6278 34.6923 89.6481 34.7835 89.6583 34.8037H88.9985L89.0188 34.8341Z" fill="white"/>
<path d="M93.9331 34.8038V31.4206C93.9331 30.9344 93.8215 30.5596 93.588 30.3064C93.3545 30.0532 93.0399 29.9215 92.6339 29.9215C92.1771 29.9215 91.8015 30.0836 91.497 30.4178C91.1925 30.7521 91.0403 31.1167 91.0403 31.5118V34.7936H90.3906V29.4252H91.0403V30.1444C91.2534 29.8709 91.5072 29.6379 91.8218 29.4454C92.1365 29.253 92.5121 29.1821 92.9688 29.2226C93.4763 29.253 93.8722 29.4657 94.1564 29.8607C94.4406 30.2558 94.5827 30.6913 94.5827 31.1674V34.8038H93.923H93.9331Z" fill="white"/>
<path d="M103.137 31.8359C103.361 32.1803 103.442 32.5652 103.391 33.0008C103.33 33.5477 103.087 34.0238 102.65 34.4492C102.224 34.8746 101.615 35.0772 100.813 35.0772C99.9298 35.0772 99.2599 34.8037 98.8234 34.2466C98.3869 33.6895 98.1738 33.0818 98.1839 32.4133H98.8336C98.8336 33.0818 99.0264 33.5882 99.4121 33.9326C99.7979 34.2669 100.275 34.4391 100.833 34.4391C101.341 34.4391 101.757 34.3175 102.102 34.0542C102.437 33.801 102.65 33.4566 102.711 33.0311C102.762 32.6969 102.711 32.4234 102.538 32.2006C102.366 31.9777 102.143 31.7954 101.848 31.6435C101.544 31.5016 101.209 31.4004 100.843 31.3497C100.478 31.2991 100.133 31.2079 99.808 31.0661C99.3614 30.8838 99.0163 30.6508 98.7727 30.357C98.529 30.0633 98.4174 29.6683 98.4377 29.1719C98.458 28.6959 98.6712 28.2299 99.0467 27.7842C99.4324 27.3386 100.011 27.1157 100.803 27.1157C101.737 27.1157 102.366 27.4095 102.711 28.0071C103.056 28.6047 103.219 29.0909 103.198 29.4859H102.538C102.538 29.0301 102.386 28.625 102.072 28.2907C101.757 27.9564 101.331 27.7842 100.803 27.7842C100.275 27.7842 99.8994 27.9159 99.5948 28.1894C99.2903 28.4629 99.1381 28.7972 99.1279 29.1821C99.1178 29.5771 99.2193 29.8709 99.4426 30.0532C99.6659 30.2355 99.8892 30.3773 100.123 30.4685C100.366 30.5596 100.681 30.6407 101.077 30.7116C101.473 30.7723 101.848 30.8939 102.214 31.0661C102.61 31.2383 102.914 31.5016 103.137 31.8562" fill="white"/>
<path d="M107.24 33.7301C107.555 33.2945 107.707 32.7577 107.707 32.1094C107.707 31.4611 107.555 30.9243 107.24 30.4887C106.925 30.0532 106.519 29.8506 106.012 29.8506C105.504 29.8506 105.098 30.0633 104.794 30.4887C104.489 30.9142 104.327 31.4611 104.327 32.1094C104.327 32.7577 104.479 33.2945 104.794 33.7301C105.098 34.1656 105.504 34.3783 106.012 34.3783C106.519 34.3783 106.936 34.1656 107.24 33.7301ZM107.768 30.0532C108.194 30.6002 108.407 31.2889 108.407 32.1195C108.407 32.9501 108.194 33.6186 107.768 34.1859C107.342 34.743 106.753 35.0266 106.012 35.0266C105.271 35.0266 104.703 34.743 104.276 34.1859C103.85 33.6288 103.637 32.94 103.637 32.1195C103.637 31.2991 103.85 30.6002 104.276 30.0532C104.703 29.5062 105.281 29.2327 106.012 29.2327C106.743 29.2327 107.331 29.5062 107.768 30.0532Z" fill="white"/>
<path d="M113.361 33.2135C113.26 33.649 113.026 34.0643 112.661 34.4391C112.296 34.824 111.798 35.0063 111.149 35.0063C110.418 35.0063 109.839 34.7227 109.413 34.1656C108.987 33.6085 108.773 32.9197 108.773 32.0993C108.773 31.2788 108.987 30.59 109.413 30.0329C109.839 29.4758 110.418 29.2023 111.149 29.2023C111.788 29.2023 112.306 29.4049 112.691 29.8202C113.077 30.2355 113.301 30.6407 113.361 31.0458H112.661C112.62 30.7926 112.478 30.5394 112.235 30.2558C111.991 29.9823 111.636 29.8405 111.149 29.8405C110.661 29.8405 110.235 30.0532 109.931 30.4786C109.626 30.904 109.464 31.4409 109.464 32.0993C109.464 32.7577 109.616 33.3046 109.931 33.7301C110.235 34.1555 110.641 34.3682 111.149 34.3682C111.544 34.3682 111.869 34.2568 112.133 34.0238C112.397 33.7908 112.57 33.5173 112.651 33.1932H113.361V33.2135Z" fill="white"/>
</g>
<path d="M113.978 34.8037H114.628V29.3036H113.978V34.8037ZM113.938 28.1489H114.668V27.3183H113.938V28.1489Z" fill="white"/>
<mask id="mask11_1637_8987" style="mask-type:luminance" maskUnits="userSpaceOnUse" x="0" y="0" width="193" height="40">
<path d="M193 0H0V40H193V0Z" fill="white"/>
</mask>
<g mask="url(#mask11_1637_8987)">
<path d="M119.306 31.7042C119.286 31.1471 119.113 30.7014 118.799 30.3571C118.474 30.0127 118.088 29.8506 117.631 29.8506C117.175 29.8506 116.809 30.0228 116.495 30.3571C116.18 30.6913 116.007 31.1471 115.977 31.7042H119.327H119.306ZM115.936 32.2917C115.946 32.9197 116.129 33.4161 116.484 33.801C116.84 34.1859 117.215 34.3783 117.621 34.3783C118.058 34.3783 118.393 34.277 118.626 34.0643C118.86 33.8516 119.012 33.6186 119.093 33.3654H119.814C119.692 33.7301 119.459 34.0947 119.124 34.4594C118.789 34.824 118.281 35.0063 117.621 35.0063C116.911 35.0063 116.342 34.7227 115.906 34.1656C115.469 33.6085 115.246 32.9197 115.246 32.1094C115.246 31.2991 115.459 30.6002 115.896 30.0431C116.332 29.486 116.901 29.2125 117.611 29.2125C118.271 29.2125 118.839 29.4657 119.316 29.9823C119.793 30.4989 120.027 31.2586 120.007 32.2715H115.936V32.2917Z" fill="white"/>
<path d="M121.398 29.9722V33.4667C121.398 33.6085 121.398 33.7301 121.398 33.8212C121.398 33.9124 121.438 34.0036 121.53 34.0846C121.601 34.1555 121.692 34.196 121.794 34.2062C121.905 34.2163 121.986 34.2264 122.057 34.2264V34.8038H121.54C121.398 34.8038 121.276 34.7633 121.164 34.6822C121.053 34.6012 120.971 34.51 120.9 34.3986C120.829 34.2872 120.789 34.1758 120.768 34.0542C120.748 33.9327 120.738 33.7605 120.738 33.5376V29.9519H120.129V29.3644H120.738V27.6931H121.388V29.3644H122.098V29.9519H121.388L121.398 29.9722Z" fill="white"/>
<path d="M124.746 35.4824C124.685 35.6546 124.614 35.8065 124.533 35.9483C124.442 36.08 124.34 36.1914 124.218 36.2725C124.107 36.3434 123.995 36.394 123.884 36.4143C123.772 36.4345 123.65 36.4447 123.498 36.4447H123.244V35.8369H123.599C123.741 35.8572 123.863 35.8065 123.955 35.7154C124.046 35.6141 124.107 35.5027 124.158 35.371L124.432 34.6619L122.422 29.4353H123.092L124.777 33.7605L126.421 29.4353H127.081L124.746 35.4925V35.4824Z" fill="white"/>
<path d="M133.955 33.7301C134.27 33.2945 134.422 32.7577 134.422 32.1094C134.422 31.4611 134.27 30.9243 133.955 30.4887C133.64 30.0633 133.234 29.8506 132.727 29.8506C132.219 29.8506 131.813 30.0633 131.509 30.4887C131.194 30.9142 131.042 31.4611 131.042 32.1094C131.042 32.7577 131.194 33.2945 131.509 33.7301C131.813 34.1656 132.219 34.3783 132.727 34.3783C133.234 34.3783 133.65 34.1656 133.955 33.7301ZM134.483 30.0532C134.909 30.6002 135.122 31.2889 135.122 32.1195C135.122 32.9501 134.909 33.6186 134.483 34.1859C134.056 34.743 133.468 35.0266 132.727 35.0266C131.986 35.0266 131.417 34.743 130.991 34.1859C130.565 33.6288 130.352 32.94 130.352 32.1195C130.352 31.2991 130.565 30.6002 130.991 30.0532C131.417 29.5062 131.996 29.2327 132.727 29.2327C133.458 29.2327 134.046 29.5062 134.483 30.0532Z" fill="white"/>
<path d="M136.489 29.9721V34.8341H135.839V29.9721H135.23V29.3847H135.839V28.6047C135.839 28.392 135.85 28.2198 135.87 28.0881C135.89 27.9564 135.931 27.8349 136.002 27.7235C136.063 27.6222 136.154 27.5411 136.266 27.4702C136.377 27.3993 136.509 27.3588 136.652 27.3487H137.169V27.9463C137.108 27.9463 137.017 27.9463 136.905 27.9362C136.794 27.9362 136.702 27.9767 136.621 28.0577C136.55 28.1286 136.509 28.2198 136.499 28.3211C136.499 28.4224 136.489 28.5439 136.489 28.6857V29.3847H137.2V29.9721H136.489Z" fill="white"/>
</g>
<path d="M145.536 34.8341V31.2282H141.669V34.8038H141.02V27.3791H141.669V30.5799H145.536V27.3791H146.186V34.8341H145.536Z" fill="white"/>
<mask id="mask12_1637_8987" style="mask-type:luminance" maskUnits="userSpaceOnUse" x="0" y="0" width="193" height="40">
<path d="M193 0H0V40H193V0Z" fill="white"/>
</mask>
<g mask="url(#mask12_1637_8987)">
<path d="M149.008 35.4824C148.947 35.6546 148.876 35.8065 148.795 35.9483C148.704 36.08 148.602 36.1914 148.48 36.2725C148.369 36.3434 148.257 36.394 148.145 36.4143C148.034 36.4345 147.912 36.4447 147.76 36.4447H147.506V35.8369H147.861C148.003 35.8572 148.125 35.8065 148.216 35.7154C148.308 35.6141 148.369 35.5027 148.419 35.371L148.693 34.6619L146.684 29.4353H147.354L149.038 33.7605L150.683 29.4353H151.343L149.008 35.4925V35.4824Z" fill="white"/>
<path d="M155.332 33.7402C155.637 33.3249 155.779 32.7779 155.779 32.1195C155.779 31.4611 155.627 30.9142 155.332 30.4887C155.038 30.0633 154.622 29.8607 154.114 29.8607C153.607 29.8607 153.201 30.0734 152.917 30.4887C152.622 30.904 152.48 31.451 152.48 32.1195C152.48 32.788 152.622 33.3249 152.917 33.7402C153.201 34.1555 153.607 34.3682 154.114 34.3682C154.622 34.3682 155.038 34.1555 155.332 33.7402ZM155.86 30.0228C156.276 30.5698 156.489 31.2585 156.489 32.1195C156.489 32.9805 156.276 33.6693 155.86 34.2061C155.444 34.743 154.896 35.0063 154.216 35.0063C153.861 35.0063 153.536 34.9253 153.241 34.7531C152.947 34.5809 152.714 34.3479 152.521 34.0441L152.47 34.0643V36.4345H151.82V29.415H152.47V30.1241L152.521 30.1443C152.703 29.8506 152.947 29.6278 153.241 29.4556C153.536 29.2834 153.861 29.2023 154.216 29.2023C154.896 29.2023 155.444 29.4758 155.86 30.0127" fill="white"/>
<path d="M160.925 31.7042C160.905 31.1471 160.732 30.7014 160.417 30.3571C160.093 30.0127 159.707 29.8506 159.25 29.8506C158.793 29.8506 158.428 30.0228 158.113 30.3571C157.799 30.6913 157.626 31.1471 157.596 31.7042H160.945H160.925ZM157.555 32.2917C157.565 32.9197 157.748 33.4161 158.103 33.801C158.458 34.1859 158.834 34.3783 159.24 34.3783C159.677 34.3783 160.011 34.277 160.245 34.0643C160.478 33.8516 160.641 33.6186 160.712 33.3654H161.443C161.321 33.7301 161.087 34.0947 160.752 34.4594C160.417 34.824 159.91 35.0063 159.25 35.0063C158.54 35.0063 157.971 34.7227 157.535 34.1656C157.098 33.6085 156.875 32.9197 156.875 32.1094C156.875 31.2991 157.088 30.6002 157.525 30.0431C157.961 29.486 158.53 29.2125 159.24 29.2125C159.9 29.2125 160.458 29.4657 160.945 29.9823C161.422 30.4989 161.656 31.2586 161.636 32.2715H157.565L157.555 32.2917Z" fill="white"/>
<path d="M164.752 29.9519C164.61 29.9519 164.457 29.962 164.275 29.9924C164.102 30.0228 163.94 30.0734 163.798 30.1646C163.513 30.3469 163.3 30.5698 163.148 30.8534C163.006 31.137 162.935 31.5118 162.935 31.9777V34.7936H162.285V29.4252H162.935V30.2659L162.996 30.2862C163.087 30.1038 163.209 29.9418 163.351 29.8C163.493 29.6582 163.655 29.5467 163.828 29.4556C163.99 29.3745 164.153 29.3138 164.336 29.2834C164.518 29.253 164.65 29.2327 164.752 29.2327V29.9519Z" fill="white"/>
<path d="M166.245 29.9722V33.4667C166.245 33.6085 166.245 33.7301 166.245 33.8212C166.245 33.9124 166.286 34.0036 166.377 34.0846C166.448 34.1555 166.54 34.196 166.641 34.2062C166.743 34.2163 166.834 34.2264 166.905 34.2264V34.8038H166.387C166.245 34.8038 166.124 34.7633 166.012 34.6822C165.9 34.6012 165.809 34.51 165.748 34.3986C165.677 34.2872 165.636 34.1758 165.616 34.0542C165.596 33.9327 165.586 33.7605 165.586 33.5376V29.9519H164.977V29.3644H165.586V27.6931H166.235V29.3644H166.946V29.9519H166.235L166.245 29.9722Z" fill="white"/>
<path d="M171.3 31.7042C171.28 31.1471 171.107 30.7014 170.792 30.3571C170.468 30.0127 170.082 29.8506 169.625 29.8506C169.168 29.8506 168.803 30.0228 168.488 30.3571C168.174 30.6913 168.001 31.1471 167.971 31.7042H171.32H171.3ZM167.93 32.2917C167.94 32.9197 168.123 33.4161 168.478 33.801C168.823 34.1859 169.209 34.3783 169.615 34.3783C170.052 34.3783 170.386 34.277 170.62 34.0643C170.853 33.8516 171.006 33.6186 171.087 33.3654H171.818C171.696 33.7301 171.462 34.0947 171.127 34.4594C170.792 34.824 170.295 35.0063 169.625 35.0063C168.915 35.0063 168.346 34.7227 167.91 34.1656C167.473 33.6085 167.25 32.9197 167.25 32.1094C167.25 31.2991 167.463 30.6002 167.9 30.0431C168.336 29.486 168.905 29.2125 169.615 29.2125C170.275 29.2125 170.843 29.4657 171.32 29.9823C171.797 30.4989 172.031 31.2586 172.011 32.2715H167.94L167.93 32.2917Z" fill="white"/>
<path d="M176.191 34.8038V31.4206C176.191 30.9344 176.069 30.5596 175.846 30.3064C175.612 30.0532 175.298 29.9215 174.892 29.9215C174.435 29.9215 174.059 30.0836 173.755 30.4178C173.45 30.7521 173.298 31.1167 173.298 31.5118V34.7936H172.648V29.4252H173.298V30.1444C173.511 29.8709 173.765 29.6379 174.08 29.4454C174.394 29.253 174.77 29.1821 175.227 29.2226C175.734 29.253 176.13 29.4657 176.414 29.8607C176.698 30.2558 176.841 30.6913 176.841 31.1674V34.8038H176.181H176.191Z" fill="white"/>
<path d="M181.206 32.5247C181.419 32.7273 181.51 33.0109 181.48 33.3857C181.439 33.8314 181.246 34.2163 180.891 34.5303C180.536 34.8544 180.059 35.0165 179.48 35.0266C178.638 35.0368 178.049 34.8139 177.744 34.3581C177.43 33.9023 177.277 33.487 177.277 33.1325H177.927C177.927 33.5275 178.089 33.8314 178.394 34.0542C178.698 34.2771 179.054 34.3784 179.46 34.3784C179.795 34.3784 180.099 34.3075 180.373 34.1555C180.637 34.0036 180.8 33.7706 180.84 33.4668C180.871 33.2237 180.81 33.0211 180.657 32.8793C180.505 32.7375 180.312 32.6058 180.089 32.5045C179.845 32.3931 179.581 32.3019 179.287 32.2411C178.993 32.1803 178.749 32.1094 178.536 32.0385C178.262 31.9271 178.018 31.7752 177.805 31.5625C177.592 31.3498 177.491 31.0661 177.501 30.7015C177.521 30.3166 177.694 29.9621 178.008 29.6379C178.333 29.3138 178.8 29.1619 179.409 29.1619C180.079 29.1619 180.576 29.3644 180.891 29.7696C181.206 30.1748 181.358 30.5496 181.338 30.9041H180.698C180.698 30.661 180.597 30.4179 180.383 30.1748C180.18 29.9317 179.835 29.8101 179.378 29.8101C178.993 29.8101 178.688 29.8912 178.475 30.0532C178.262 30.2153 178.15 30.428 178.14 30.7015C178.13 30.9851 178.231 31.1877 178.445 31.3092C178.658 31.4308 178.851 31.522 179.033 31.5929C179.257 31.6638 179.51 31.7245 179.795 31.7853C180.079 31.836 180.333 31.9271 180.546 32.0487C180.779 32.1702 181.003 32.3323 181.216 32.5247" fill="white"/>
</g>
<path d="M182.13 34.8037H182.78V29.3036H182.13V34.8037ZM182.09 28.1489H182.811V27.3183H182.09V28.1489Z" fill="white"/>
<mask id="mask13_1637_8987" style="mask-type:luminance" maskUnits="userSpaceOnUse" x="0" y="0" width="193" height="40">
<path d="M193 0H0V40H193V0Z" fill="white"/>
</mask>
<g mask="url(#mask13_1637_8987)">
<path d="M187.012 33.7301C187.327 33.2945 187.479 32.7577 187.479 32.1094C187.479 31.4611 187.327 30.9243 187.012 30.4887C186.697 30.0633 186.291 29.8506 185.784 29.8506C185.276 29.8506 184.87 30.0633 184.566 30.4887C184.261 30.9142 184.099 31.4611 184.099 32.1094C184.099 32.7577 184.251 33.2945 184.566 33.7301C184.88 34.1656 185.276 34.3783 185.784 34.3783C186.291 34.3783 186.707 34.1656 187.012 33.7301ZM187.53 30.0532C187.956 30.6002 188.169 31.2889 188.169 32.1195C188.169 32.9501 187.956 33.6186 187.53 34.1859C187.103 34.7531 186.515 35.0266 185.774 35.0266C185.033 35.0266 184.464 34.743 184.038 34.1859C183.612 33.6288 183.398 32.94 183.398 32.1195C183.398 31.2991 183.612 30.6002 184.038 30.0532C184.464 29.5062 185.043 29.2327 185.774 29.2327C186.504 29.2327 187.103 29.5062 187.53 30.0532Z" fill="white"/>
<path d="M192.341 34.8038V31.4206C192.341 30.9344 192.229 30.5596 191.996 30.3064C191.762 30.0532 191.448 29.9215 191.042 29.9215C190.595 29.9215 190.209 30.0836 189.915 30.4178C189.61 30.7521 189.458 31.1167 189.458 31.5118V34.7936H188.809V29.4252H189.458V30.1444C189.671 29.8709 189.925 29.6379 190.24 29.4454C190.554 29.253 190.93 29.1821 191.387 29.2226C191.894 29.253 192.29 29.4657 192.574 29.8607C192.859 30.2558 193.001 30.6913 193.001 31.1674V34.8038H192.341Z" fill="white"/>
</g>
</g>
<defs>
<clipPath id="clip0_1637_8987">
<rect width="193" height="40" fill="white"/>
</clipPath>
</defs>
</svg>
