<svg width="218" height="48" viewBox="0 0 218 48" fill="none" xmlns="http://www.w3.org/2000/svg">
<g clip-path="url(#clip0_1637_9191)">
<mask id="mask0_1637_9191" style="mask-type:luminance" maskUnits="userSpaceOnUse" x="0" y="0" width="218" height="48">
<path d="M218 0H0V48H218V0Z" fill="white"/>
</mask>
<g mask="url(#mask0_1637_9191)">
<path d="M17.5097 4.83372C18.1309 5.52983 19.0317 6.87512 19.0394 8.39246C19.0394 9.90982 18.1542 11.263 17.5408 11.9668C16.9195 11.2707 16.0187 9.92546 16.011 8.4081C16.011 6.89076 16.8963 5.53765 17.5097 4.83372ZM17.5097 3.04262C17.0593 3.04262 14.5899 5.45162 14.5977 8.41593C14.6133 11.3724 17.1059 13.7657 17.5563 13.758C18.0067 13.758 20.4759 11.3489 20.4682 8.38465C20.4527 5.42816 17.9601 3.0348 17.5175 3.04262" fill="white"/>
<path d="M26.8738 1.64249C27.1378 2.54196 27.3786 4.14535 26.7418 5.52192C26.0973 6.89848 24.7228 7.73537 23.8687 8.10298C23.6047 7.20352 23.3561 5.60013 24.0007 4.22356C24.6452 2.84699 26.0197 2.0101 26.8738 1.64249ZM27.495 0C26.7495 0 23.8687 1.13411 22.7194 3.62132C21.4692 6.30406 22.7116 9.53429 23.1155 9.72984C23.1465 9.74548 23.1931 9.75331 23.2552 9.75331C24.0007 9.75331 26.8815 8.6192 28.0308 6.13199C29.2732 3.44925 28.0386 0.219 27.6347 0.0234643C27.6038 0.00782142 27.5571 0 27.5027 0" fill="white"/>
<path d="M8.12299 1.71992C8.97717 2.07971 10.3671 2.90878 11.0194 4.27752C11.6717 5.64627 11.4387 7.25748 11.1824 8.15695C10.3283 7.79716 8.93834 6.96808 8.28606 5.59934C7.63379 4.23059 7.86674 2.61938 8.12299 1.71992ZM7.48624 0.0852461C7.42413 0.0852461 7.37754 0.0930675 7.34647 0.10871C6.94268 0.304245 5.73131 3.55013 7.00481 6.21723C8.17735 8.6888 11.066 9.79944 11.8115 9.79162C11.8736 9.79162 11.9201 9.7838 11.9512 9.76815C12.3551 9.57262 13.5664 6.32673 12.3007 3.65963C11.1204 1.18807 8.23171 0.0774247 7.48624 0.0852461Z" fill="white"/>
<path d="M8.37954 20.6587C9.47442 20.7057 10.9731 21.0967 11.9593 22.0901C13.0309 23.1616 13.3493 24.7494 13.4037 25.6879C12.3088 25.641 10.81 25.2499 9.82387 24.2566C8.75227 23.185 8.43389 21.5894 8.37177 20.6587M8.11552 19.2274C7.57972 19.2274 7.20699 19.3056 7.11381 19.3994C6.79543 19.7202 6.74109 23.185 8.82992 25.2656C10.2898 26.7282 12.4174 27.1193 13.6677 27.1193C14.2034 27.1193 14.5762 27.041 14.6694 26.9471C14.9878 26.6265 15.042 23.1616 12.961 21.0732C11.5012 19.6106 9.37348 19.2196 8.12328 19.2274" fill="white"/>
<path d="M14.1867 40.2885C13.7907 40.2885 13.4801 39.9679 13.4724 39.5768L13.418 25.9128C13.418 25.5217 13.7286 25.1932 14.1246 25.1932C14.5129 25.1932 14.8313 25.506 14.8313 25.9049L14.8857 39.5689C14.8857 39.96 14.575 40.2807 14.179 40.2885" fill="white"/>
<path d="M33.6477 11.2061C33.5934 12.1369 33.275 13.7325 32.2034 14.8041C31.2172 15.7895 29.7108 16.1884 28.6236 16.2353C28.678 15.3046 28.9964 13.709 30.068 12.6375C31.0541 11.652 32.5606 11.2532 33.6477 11.1984M33.8651 9.76703C32.6071 9.76703 30.5105 10.1738 29.0663 11.6207C26.9851 13.709 27.0473 17.174 27.3657 17.4946C27.4666 17.5962 27.8548 17.6666 28.414 17.6666C29.6719 17.6666 31.7685 17.2599 33.2128 15.8129C35.2939 13.7247 35.2317 10.2598 34.9135 9.93911C34.8125 9.83742 34.4243 9.76703 33.8651 9.76703Z" fill="white"/>
<path d="M1.42957 11.3439C2.5167 11.3831 4.03091 11.7742 5.02486 12.7519C6.10422 13.8155 6.43036 15.4033 6.49248 16.3418C5.40535 16.3028 3.8989 15.9195 2.90496 14.9419C1.8256 13.8781 1.49946 12.2903 1.42957 11.3518M1.20438 9.92047C0.653054 9.92047 0.25703 9.99869 0.163847 10.1004C-0.146761 10.421 -0.185587 13.886 1.91878 15.9586C3.37863 17.3899 5.47524 17.781 6.72544 17.7732C7.28453 17.7732 7.67279 17.6871 7.76597 17.5933C8.07658 17.2726 8.1154 13.7999 6.01104 11.735C4.55894 10.3037 2.45458 9.92047 1.20438 9.92047Z" fill="white"/>
<path d="M10.761 12.4799C11.6462 12.7692 13.0906 13.481 13.8515 14.795C14.6126 16.109 14.5116 17.728 14.3252 18.6431C13.4399 18.3537 11.9879 17.6419 11.2269 16.3279C10.4659 15.0139 10.5669 13.3949 10.7532 12.4799M10.0699 10.8921C9.96895 10.8921 9.89906 10.9077 9.86024 10.9312C9.47198 11.158 8.52463 14.4899 10.0078 17.0475C11.3356 19.3392 14.1622 20.2309 15.0086 20.223C15.1018 20.223 15.1794 20.2073 15.2182 20.1839C15.6065 19.9571 16.5538 16.6252 15.0707 14.0676C13.7428 11.7759 10.9163 10.8843 10.0699 10.8921Z" fill="white"/>
<path d="M24.3194 12.4201C24.5135 13.3353 24.63 14.9543 23.8767 16.276C23.1313 17.5979 21.6869 18.3175 20.8017 18.6147C20.6076 17.6996 20.4989 16.0806 21.2444 14.7587C21.9976 13.437 23.4342 12.7174 24.3194 12.4201ZM24.995 10.8324C24.1407 10.8324 21.3297 11.7475 20.0175 14.047C18.5576 16.6124 19.536 19.9443 19.9243 20.1634C19.9631 20.1868 20.0408 20.2024 20.1339 20.2024C20.9881 20.2024 23.7991 19.2795 25.1114 16.98C26.5713 14.4146 25.5928 11.0905 25.2046 10.8637C25.1658 10.8402 25.0882 10.8324 24.995 10.8324Z" fill="white"/>
<path d="M26.7745 20.5812C26.7279 21.5197 26.4173 23.1075 25.3534 24.1947C24.3751 25.188 22.8764 25.5947 21.7815 25.6573C21.8281 24.7187 22.1387 23.1231 23.2025 22.0438C24.1887 21.0505 25.6796 20.6437 26.7745 20.5812ZM27.023 19.1498C25.7728 19.1498 23.6529 19.5722 22.2008 21.0427C20.1353 23.1466 20.2207 26.6115 20.539 26.9244C20.6322 27.0182 21.005 27.0886 21.5407 27.0886C22.791 27.0886 24.9186 26.6741 26.363 25.1959C28.4363 23.0918 28.3431 19.627 28.0247 19.3063C27.9315 19.2125 27.551 19.1421 27.023 19.1421" fill="white"/>
<path d="M21.1282 40.2545C20.7399 40.2545 20.4138 39.9337 20.4138 39.5426L20.3594 25.8787C20.3594 25.4876 20.6699 25.167 21.066 25.1591C21.462 25.1591 21.7727 25.4798 21.7804 25.8708L21.8348 39.5349C21.8348 39.926 21.5164 40.2466 21.1282 40.2545Z" fill="white"/>
<path d="M17.6553 40.2767C17.2671 40.2767 16.941 39.956 16.941 39.5649L16.8711 21.9668C16.8711 21.5757 17.1816 21.2549 17.5777 21.2472C17.966 21.2472 18.2843 21.5678 18.2843 21.9589L18.362 39.5571C18.362 39.9481 18.0436 40.2688 17.6553 40.2767Z" fill="white"/>
<path d="M22.8814 42.6564L12.4527 42.7034C12.0644 42.7034 11.746 42.3905 11.7383 41.9916C11.7383 41.6005 12.0567 41.2799 12.4449 41.2799L22.8735 41.233C23.2618 41.233 23.5802 41.5458 23.588 41.9447C23.588 42.3358 23.2773 42.6564 22.8814 42.6642" fill="white"/>
<path d="M22.8891 45.3063L12.4604 45.3532C12.0722 45.3532 11.7539 45.0404 11.7539 44.6415C11.7539 44.2504 12.0722 43.9297 12.4604 43.922L22.8891 43.8751C23.2774 43.8751 23.5958 44.1957 23.6035 44.5868C23.6035 44.9779 23.293 45.2985 22.8969 45.2985" fill="white"/>
<path d="M17.3081 47.9577C16.9199 47.9577 16.5938 47.6448 16.5938 47.2458C16.5938 46.8547 16.912 46.5341 17.3003 46.5341L26.5098 46.495C26.6108 46.495 29.2743 46.409 29.2665 44.4302C29.2587 41.763 27.5815 41.6927 27.3874 41.6927C27.3252 41.6927 25.9042 41.7161 25.9119 43.3586C25.9119 43.7497 25.6013 44.0704 25.2053 44.0782C24.8093 44.0782 24.4986 43.7653 24.4909 43.3665C24.4832 41.1138 26.2535 40.2691 27.3718 40.2613C27.5038 40.2613 30.6565 40.2926 30.672 44.4223C30.6876 47.1364 27.9542 47.895 26.5098 47.9185L17.2925 47.9577H17.3081Z" fill="white"/>
<path d="M18.0668 47.9568L8.85728 47.996C7.40519 47.9881 4.67184 47.2451 4.65631 44.531C4.64077 40.4014 7.78568 40.3466 7.91769 40.3466C9.03587 40.3466 10.8141 41.1757 10.8296 43.4282C10.8296 43.8193 10.519 44.1399 10.123 44.1478C9.73475 44.1478 9.40861 43.8272 9.40861 43.4361C9.40861 41.7936 7.9798 41.7779 7.91769 41.7779C7.73133 41.7779 6.05405 41.864 6.06181 44.531C6.06957 46.5098 8.73304 46.5724 8.84952 46.5724L18.0512 46.5334C18.4395 46.5334 18.7579 46.854 18.7657 47.2451C18.7657 47.6362 18.4473 47.9568 18.0591 47.9647" fill="white"/>
<path d="M39.7422 42.2265V22.188C39.7422 21.5389 39.9673 20.9835 40.4177 20.5299C40.8681 20.0762 41.4194 19.8494 42.0639 19.8494H44.3236V42.2343H39.7344L39.7422 42.2265Z" fill="white"/>
<path d="M46.9999 42.2265V22.188C46.9999 21.5389 47.2251 20.9835 47.6755 20.5299C48.1259 20.0762 48.6772 19.8494 49.3217 19.8494H51.5814V28.1793H60.7521V19.8494H65.4035V42.2343H60.7521V32.2777H51.5814V42.2343H46.9922L46.9999 42.2265Z" fill="white"/>
<path d="M88.6308 34.4847C88.4134 37.0892 87.4427 39.1228 85.7266 40.6011C83.9639 42.0324 81.6343 42.7519 78.7535 42.7519C75.3911 42.7519 72.8287 41.7352 71.0659 39.6938C69.3033 37.7384 68.418 34.8602 68.418 31.0433C68.418 27.2264 69.3187 24.2074 71.128 22.2599C72.9761 20.2184 75.6474 19.2017 79.1417 19.2017C81.9838 19.2017 84.2435 19.9213 85.9208 21.3526C87.5126 22.7448 88.4211 24.6923 88.6386 27.2108H85.8586C84.8259 27.2108 84.0959 26.7571 83.6611 25.8421C83.3583 25.279 82.9932 24.7783 82.5662 24.3482C81.7042 23.699 80.5628 23.3705 79.1417 23.3705C77.1616 23.3705 75.6319 24.0197 74.5525 25.3259C73.5197 26.6242 72.9995 28.5326 72.9995 31.0511C72.9995 33.5696 73.512 35.3451 74.5525 36.6434C75.5465 37.9887 77.0296 38.6614 79.0097 38.6614C80.3842 38.6614 81.5334 38.3172 82.4342 37.6211C83.2495 36.972 83.8319 35.9317 84.1813 34.5004H88.6386L88.6308 34.4847Z" fill="white"/>
<path d="M92.0781 42.2265V22.188C92.0781 21.5389 92.3033 20.9835 92.7536 20.5299C93.204 20.0762 93.7554 19.8494 94.3998 19.8494H108.222V23.6898H96.5974V28.5078H105.256V30.0016C105.256 30.6508 105.03 31.2061 104.58 31.6597C104.13 32.1134 103.578 32.3402 102.934 32.3402H96.6052V42.2343H92.0859L92.0781 42.2265Z" fill="white"/>
<path d="M113.34 42.2274V36.0719C113.34 35.8763 113.411 35.7043 113.55 35.5634C113.69 35.4227 113.861 35.3522 114.055 35.3522H114.746V42.2274H113.34Z" fill="white"/>
<path d="M119.769 42.2278H119.078C118.884 42.2278 118.721 42.1652 118.589 42.04C118.465 41.9149 118.402 41.7507 118.402 41.5474V38.8254C118.402 38.5048 118.309 38.2702 118.115 38.1293C117.921 37.9807 117.704 37.9104 117.471 37.9104C117.237 37.9104 117.02 37.9807 116.834 38.1293C116.648 38.2779 116.554 38.5126 116.554 38.8254V42.2278H115.164V39.107C115.164 38.1998 115.397 37.5975 115.871 37.2846C116.337 36.9796 116.857 36.8076 117.431 36.7841C118.014 36.7841 118.55 36.9404 119.039 37.2456C119.528 37.5506 119.777 38.1762 119.777 39.107V42.2278H119.769Z" fill="white"/>
<path d="M120.344 40.1185V39.5397C120.344 39.1799 120.523 39 120.88 39H123.085V40.1185H120.344Z" fill="white"/>
<path d="M123.559 42.2274V36.0719C123.559 35.8763 123.629 35.7043 123.769 35.5634C123.908 35.4227 124.072 35.3522 124.274 35.3522H124.965V37.9099H127.783V35.3522H129.212V42.2274H127.783V39.1691H124.965V42.2274H123.559Z" fill="white"/>
<path d="M130.499 41.7451C130.22 41.5026 130.026 41.1819 129.901 40.7751C129.785 40.3685 129.723 39.9461 129.723 39.5082C129.723 39.1483 129.768 38.7885 129.87 38.4287C129.971 38.0689 130.126 37.7718 130.335 37.5293C130.677 37.1304 131.12 36.8958 131.664 36.8175C132.207 36.7472 132.696 36.7862 133.131 36.9505C133.636 37.1539 134.001 37.4981 134.242 37.9907C134.466 38.4287 134.575 38.9449 134.575 39.5316C134.575 39.9539 134.528 40.3215 134.436 40.6344C134.342 40.9394 134.227 41.1975 134.078 41.4165C133.76 41.8545 133.357 42.1283 132.867 42.2378C132.432 42.3551 131.99 42.3707 131.547 42.269C131.105 42.1674 130.747 42.0032 130.483 41.7607M131.438 38.2411C131.159 38.5461 131.035 39.0075 131.066 39.6098C131.088 40.2199 131.205 40.6422 131.399 40.8768C131.478 40.9863 131.617 41.0724 131.819 41.1506C132.02 41.221 132.223 41.2289 132.425 41.1662C132.626 41.1037 132.813 40.955 132.969 40.7204C133.131 40.478 133.216 40.0947 133.225 39.5628C133.225 39.0858 133.146 38.726 132.999 38.4835C132.844 38.2411 132.673 38.0925 132.472 38.022C132.269 37.9517 132.075 37.9517 131.873 38.0143C131.679 38.0768 131.532 38.1471 131.438 38.2411Z" fill="white"/>
<path d="M139.773 36.9112V40.032C139.773 40.9784 139.525 41.5963 139.035 41.8934C138.546 42.1828 138.011 42.3314 137.427 42.3314C136.861 42.3002 136.341 42.1438 135.866 41.8465C135.401 41.5572 135.16 40.9471 135.16 40.032V36.9112H136.55V40.3057C136.55 40.6264 136.644 40.8611 136.83 41.0097C137.016 41.1583 137.226 41.2286 137.467 41.2286C137.707 41.2286 137.917 41.1583 138.111 41.0097C138.305 40.8611 138.399 40.6264 138.399 40.3057V37.5839C138.399 37.3961 138.461 37.2397 138.585 37.1067C138.709 36.9739 138.872 36.9034 139.074 36.9034H139.765L139.773 36.9112Z" fill="white"/>
<path d="M140.223 40.4687H141.573C141.588 40.7347 141.69 40.938 141.869 41.0709C142.063 41.2039 142.334 41.2743 142.66 41.2743C142.901 41.2743 143.104 41.2273 143.274 41.1335C143.429 41.0397 143.514 40.9146 143.514 40.7503C143.514 40.5078 143.235 40.3279 142.676 40.2106C142.435 40.1714 142.257 40.1324 142.14 40.0932C141.441 39.9212 140.967 39.71 140.735 39.4753C140.471 39.2329 140.338 38.9122 140.338 38.5134C140.338 38.005 140.532 37.5904 140.914 37.2541C141.309 36.9491 141.829 36.7927 142.458 36.7927C143.142 36.7927 143.693 36.9491 144.105 37.2541C144.486 37.5904 144.695 38.0206 144.718 38.5524H143.864C143.616 38.5524 143.422 38.443 143.29 38.2161C143.235 38.1613 143.181 38.1067 143.134 38.0519C142.979 37.9345 142.754 37.872 142.482 37.872C142.21 37.872 142.016 37.9111 141.884 37.9893C141.767 38.0675 141.705 38.1926 141.705 38.3491C141.705 38.5603 142.047 38.7402 142.738 38.8887C142.816 38.9122 142.886 38.9356 142.948 38.9514C143.01 38.967 143.064 38.9748 143.119 38.9748C143.795 39.1468 144.26 39.3502 144.524 39.577C144.772 39.8195 144.904 40.1402 144.904 40.5391C144.904 41.1256 144.695 41.5794 144.268 41.9C143.872 42.1894 143.274 42.338 142.482 42.338C141.69 42.338 141.162 42.1815 140.797 41.8765C140.409 41.5715 140.223 41.1256 140.223 40.5391V40.4766V40.4687Z" fill="white"/>
<path d="M149.153 40.5853H150.146C149.999 41.1484 149.728 41.5708 149.316 41.868C148.905 42.173 148.391 42.3294 147.77 42.3294C147.017 42.3294 146.427 42.0792 146.008 41.5864C145.589 41.1094 145.371 40.421 145.371 39.5294C145.371 38.6378 145.573 38.012 145.985 37.5271C146.404 37.0344 146.994 36.7841 147.747 36.7841C148.54 36.7841 149.153 37.0265 149.596 37.5037C150.014 37.9963 150.232 38.6847 150.232 39.5607V39.7796C150.232 39.85 150.232 39.897 150.209 39.9205H146.777C146.792 40.335 146.893 40.64 147.071 40.8434C147.243 41.0546 147.499 41.164 147.849 41.164C148.073 41.164 148.267 41.1171 148.423 41.0233C148.461 41.0076 148.5 40.9841 148.532 40.9529C148.563 40.9216 148.602 40.8824 148.64 40.8434C148.656 40.8042 148.702 40.7496 148.788 40.687C148.873 40.6166 148.998 40.5853 149.153 40.5853ZM146.768 39.0288H148.796C148.772 38.669 148.679 38.4031 148.516 38.231C148.346 38.0434 148.097 37.9494 147.779 37.9494C147.484 37.9494 147.25 38.0434 147.064 38.231C146.877 38.4187 146.777 38.6847 146.768 39.0288Z" fill="white"/>
<path d="M159.536 39.8484C159.474 40.6462 159.171 41.2719 158.643 41.7255C158.1 42.1635 157.386 42.3826 156.5 42.3826C155.467 42.3826 154.683 42.0697 154.14 41.4439C153.596 40.8417 153.324 39.9579 153.324 38.7846C153.324 37.6115 153.604 36.6886 154.155 36.0863C154.722 35.4605 155.546 35.1478 156.617 35.1478C157.487 35.1478 158.186 35.3667 158.698 35.8047C159.187 36.2349 159.466 36.8293 159.529 37.6036H158.675C158.356 37.6036 158.131 37.4629 157.999 37.1813C157.905 37.0092 157.789 36.8528 157.657 36.7198C157.393 36.5164 157.043 36.4226 156.609 36.4226C155.996 36.4226 155.529 36.6259 155.196 37.0249C154.877 37.4237 154.722 38.0103 154.722 38.7846C154.722 39.559 154.877 40.1065 155.196 40.5053C155.499 40.9199 155.957 41.1232 156.563 41.1232C156.99 41.1232 157.339 41.0138 157.611 40.8026C157.859 40.5993 158.037 40.2785 158.146 39.8405H159.513L159.536 39.8484Z" fill="white"/>
<path d="M160.637 41.7451C160.356 41.5026 160.162 41.1819 160.038 40.7751C159.922 40.3685 159.859 39.9461 159.859 39.5082C159.859 39.1483 159.906 38.7885 160.007 38.4287C160.108 38.0689 160.264 37.7718 160.473 37.5293C160.814 37.1304 161.257 36.8958 161.801 36.8175C162.345 36.7472 162.834 36.7862 163.269 36.9505C163.774 37.1539 164.138 37.4981 164.379 37.9907C164.604 38.4287 164.713 38.9449 164.713 39.5316C164.713 39.9539 164.666 40.3215 164.573 40.6344C164.48 40.9394 164.363 41.1975 164.216 41.4165C163.898 41.8545 163.493 42.1283 163.004 42.2378C162.569 42.3551 162.127 42.3707 161.684 42.269C161.241 42.1674 160.884 42.0032 160.62 41.7607M161.576 38.2411C161.296 38.5461 161.172 39.0075 161.203 39.6098C161.226 40.2199 161.343 40.6422 161.537 40.8768C161.614 40.9863 161.754 41.0724 161.957 41.1506C162.158 41.221 162.36 41.2289 162.561 41.1662C162.764 41.1037 162.95 40.955 163.105 40.7204C163.26 40.478 163.354 40.0947 163.362 39.5628C163.362 39.0858 163.284 38.726 163.136 38.4835C162.981 38.2411 162.81 38.0925 162.608 38.022C162.407 37.9517 162.213 37.9517 162.01 38.0143C161.816 38.0768 161.669 38.1471 161.576 38.2411Z" fill="white"/>
<path d="M169.91 36.9112V40.032C169.91 40.9784 169.661 41.5963 169.172 41.8934C168.684 42.1828 168.147 42.3314 167.565 42.3314C166.998 42.3002 166.477 42.1438 166.004 41.8465C165.538 41.5572 165.297 40.9471 165.297 40.032V36.9112H166.688V40.3057C166.688 40.6264 166.78 40.8611 166.967 41.0097C167.153 41.1583 167.362 41.2286 167.603 41.2286C167.844 41.2286 168.053 41.1583 168.249 41.0097C168.443 40.8611 168.535 40.6264 168.535 40.3057V37.5839C168.535 37.3961 168.597 37.2397 168.722 37.1067C168.846 36.9739 169.009 36.9034 169.211 36.9034H169.902L169.91 36.9112Z" fill="white"/>
<path d="M175.082 42.2278H174.391C174.197 42.2278 174.033 42.1652 173.901 42.04C173.777 41.9149 173.715 41.7507 173.715 41.5474V38.8254C173.715 38.5048 173.622 38.2702 173.427 38.1293C173.233 37.9807 173.016 37.9104 172.783 37.9104C172.55 37.9104 172.333 37.9807 172.146 38.1293C171.96 38.2779 171.867 38.5126 171.867 38.8254V42.2278H170.477V39.107C170.477 38.1998 170.71 37.5975 171.184 37.2846C171.649 36.9796 172.169 36.8076 172.745 36.7841C173.327 36.7841 173.862 36.9404 174.352 37.2456C174.841 37.5506 175.089 38.1762 175.089 39.107V42.2278H175.082Z" fill="white"/>
<path d="M175.539 40.4687H176.89C176.906 40.7347 177.006 40.938 177.185 41.0709C177.379 41.2039 177.651 41.2743 177.977 41.2743C178.218 41.2743 178.42 41.2273 178.591 41.1335C178.746 41.0397 178.831 40.9146 178.831 40.7503C178.831 40.5078 178.552 40.3279 178 40.2106C177.759 40.1714 177.581 40.1324 177.465 40.0932C176.765 39.9212 176.292 39.71 176.059 39.4753C175.795 39.2329 175.663 38.9122 175.663 38.5134C175.663 38.005 175.857 37.5904 176.238 37.2541C176.633 36.9491 177.154 36.7927 177.783 36.7927C178.467 36.7927 179.017 36.9491 179.429 37.2541C179.81 37.5904 180.019 38.0206 180.043 38.5524H179.188C178.94 38.5524 178.746 38.443 178.614 38.2161C178.559 38.1613 178.505 38.1067 178.45 38.0519C178.296 37.9345 178.078 37.872 177.799 37.872C177.52 37.872 177.333 37.9111 177.2 37.9893C177.085 38.0675 177.023 38.1926 177.023 38.3491C177.023 38.5603 177.364 38.7402 178.055 38.8887C178.132 38.9122 178.202 38.9356 178.264 38.9514C178.326 38.967 178.381 38.9748 178.435 38.9748C179.111 39.1468 179.576 39.3502 179.841 39.577C180.09 39.8195 180.222 40.1402 180.222 40.5391C180.222 41.1256 180.011 41.5794 179.584 41.9C179.188 42.1894 178.591 42.338 177.799 42.338C177.006 42.338 176.479 42.1815 176.114 41.8765C175.733 41.5715 175.539 41.1256 175.539 40.5391V40.4766V40.4687Z" fill="white"/>
<path d="M184.469 40.5853H185.463C185.315 41.1484 185.036 41.5708 184.632 41.868C184.22 42.173 183.708 42.3294 183.087 42.3294C182.333 42.3294 181.743 42.0792 181.324 41.5864C180.904 41.1094 180.688 40.421 180.688 39.5294C180.688 38.6378 180.889 38.012 181.3 37.5271C181.72 37.0344 182.309 36.7841 183.063 36.7841C183.855 36.7841 184.469 37.0265 184.911 37.5037C185.331 37.9963 185.548 38.6847 185.548 39.5607V39.7796C185.548 39.85 185.548 39.897 185.525 39.9205H182.093C182.108 40.335 182.202 40.64 182.388 40.8434C182.558 41.0546 182.815 41.164 183.164 41.164C183.39 41.164 183.584 41.1171 183.738 41.0233C183.778 41.0076 183.817 40.9841 183.847 40.9529C183.879 40.9216 183.917 40.8824 183.956 40.8434C183.972 40.8042 184.019 40.7496 184.104 40.687C184.189 40.6166 184.313 40.5853 184.469 40.5853ZM182.085 39.0288H184.111C184.088 38.669 183.995 38.4031 183.832 38.231C183.661 38.0434 183.412 37.9494 183.094 37.9494C182.806 37.9494 182.567 38.0434 182.38 38.231C182.194 38.4187 182.093 38.6847 182.085 39.0288Z" fill="white"/>
<path d="M186.176 35.3522H186.89C187.076 35.3522 187.232 35.4149 187.364 35.54C187.496 35.6651 187.566 35.8215 187.566 36.0093V42.2274H186.176V35.3522Z" fill="white"/>
<path d="M190.797 42.2274V36.0719C190.797 35.8763 190.867 35.7043 191.006 35.5634C191.146 35.4227 191.317 35.3522 191.511 35.3522H195.759V36.5334H192.187V38.0115H194.843V38.473C194.843 38.6763 194.772 38.8406 194.633 38.9815C194.493 39.1222 194.322 39.1926 194.128 39.1926H192.187V42.2351H190.797V42.2274Z" fill="white"/>
<path d="M196.597 41.7451C196.317 41.5026 196.123 41.1819 195.999 40.7751C195.882 40.3685 195.82 39.9461 195.82 39.5082C195.82 39.1483 195.867 38.7885 195.969 38.4287C196.069 38.0689 196.225 37.7718 196.434 37.5293C196.776 37.1304 197.219 36.8958 197.762 36.8175C198.306 36.7472 198.795 36.7862 199.23 36.9505C199.735 37.1539 200.1 37.4981 200.341 37.9907C200.565 38.4287 200.674 38.9449 200.674 39.5316C200.674 39.9539 200.627 40.3215 200.535 40.6344C200.441 40.9394 200.324 41.1975 200.177 41.4165C199.859 41.8545 199.454 42.1283 198.966 42.2378C198.531 42.3551 198.089 42.3707 197.645 42.269C197.202 42.1674 196.846 42.0032 196.582 41.7607M197.537 38.2411C197.257 38.5461 197.133 39.0075 197.164 39.6098C197.187 40.2199 197.304 40.6422 197.498 40.8768C197.575 40.9863 197.716 41.0724 197.917 41.1506C198.119 41.221 198.321 41.2289 198.524 41.1662C198.725 41.1037 198.912 40.955 199.066 40.7204C199.23 40.478 199.315 40.0947 199.322 39.5628C199.322 39.0858 199.245 38.726 199.098 38.4835C198.942 38.2411 198.771 38.0925 198.569 38.022C198.368 37.9517 198.174 37.9517 197.972 38.0143C197.778 38.0768 197.63 38.1471 197.537 38.2411Z" fill="white"/>
<path d="M201.265 42.222V39.6409C201.265 39.1247 201.343 38.6867 201.49 38.3348C201.646 37.9827 201.847 37.7012 202.119 37.4822C202.367 37.2866 202.663 37.138 203.005 37.0442C203.339 36.9503 203.687 36.9034 204.045 36.9034H204.239V38.3191H203.781C203.401 38.3191 203.113 38.413 202.927 38.6006C202.74 38.7884 202.648 39.0778 202.648 39.4766V42.2141H201.258L201.265 42.222Z" fill="white"/>
<path d="M209.339 36.9112V40.032C209.339 40.9784 209.099 41.5963 208.602 41.8934C208.112 42.1828 207.577 42.3314 206.994 42.3314C206.427 42.3002 205.907 42.1438 205.434 41.8465C204.967 41.5572 204.727 40.9471 204.727 40.032V36.9112H206.116V40.3057C206.116 40.6264 206.21 40.8611 206.396 41.0097C206.583 41.1583 206.792 41.2286 207.033 41.2286C207.274 41.2286 207.483 41.1583 207.677 41.0097C207.871 40.8611 207.965 40.6264 207.965 40.3057V37.5839C207.965 37.3961 208.027 37.2397 208.151 37.1067C208.276 36.9739 208.439 36.9034 208.641 36.9034H209.332L209.339 36.9112Z" fill="white"/>
<path d="M214.519 42.2278H213.152V38.8254C213.152 38.5048 213.059 38.2702 212.865 38.1293C212.671 37.9807 212.454 37.9104 212.22 37.9104C211.987 37.9104 211.77 37.9807 211.584 38.1293C211.398 38.2779 211.304 38.5126 211.304 38.8254V42.2278H209.914V39.107C209.914 38.1998 210.147 37.5975 210.62 37.2846C211.087 36.9796 211.607 36.8076 212.181 36.7841C212.484 36.7841 212.78 36.8153 213.074 36.8858C213.362 36.9562 213.633 37.0891 213.866 37.2846C214.06 37.1126 214.301 36.9875 214.573 36.917C214.845 36.8466 215.124 36.7997 215.42 36.7841C216.002 36.7841 216.538 36.9404 217.027 37.2456C217.516 37.5506 217.764 38.1762 217.764 39.107V42.2278H217.066C216.864 42.2278 216.709 42.1652 216.576 42.04C216.452 41.9149 216.39 41.7507 216.39 41.5474V38.8254C216.39 38.5048 216.297 38.2702 216.103 38.1293C215.909 37.9807 215.699 37.9104 215.459 37.9104C215.218 37.9104 215.008 37.9807 214.814 38.1293C214.62 38.2779 214.527 38.5126 214.527 38.8254V42.2278H214.519Z" fill="white"/>
<path d="M112.363 23.3112C112.363 22.9045 112.441 22.5213 112.604 22.1615C112.759 21.8017 112.985 21.4888 113.264 21.2229C113.544 20.9569 113.877 20.7458 114.258 20.5894C114.638 20.4329 115.05 20.3547 115.485 20.3547C115.92 20.3547 116.323 20.4329 116.696 20.5894C117.076 20.7458 117.402 20.9569 117.69 21.2229C117.969 21.4888 118.195 21.8017 118.358 22.1615C118.521 22.5213 118.599 22.9045 118.599 23.3112C118.599 23.7179 118.513 24.1168 118.358 24.4688C118.195 24.8207 117.969 25.1336 117.69 25.3917C117.411 25.6498 117.076 25.861 116.696 26.0017C116.316 26.1504 115.912 26.2208 115.485 26.2208C115.058 26.2208 114.638 26.1504 114.258 26.0017C113.877 25.8531 113.551 25.6498 113.264 25.3917C112.985 25.1336 112.759 24.8207 112.604 24.4688C112.448 24.1168 112.363 23.7257 112.363 23.3112ZM113.629 23.3112C113.629 23.8196 113.8 24.2341 114.133 24.5626C114.476 24.8912 114.918 25.0553 115.477 25.0553C115.734 25.0553 115.974 25.0084 116.199 24.9224C116.425 24.8364 116.619 24.7113 116.79 24.5626C116.952 24.414 117.092 24.2263 117.185 24.0152C117.278 23.804 117.333 23.5693 117.333 23.3112C117.333 23.0531 117.287 22.834 117.185 22.6151C117.092 22.396 116.952 22.2084 116.79 22.0441C116.619 21.8798 116.425 21.7547 116.199 21.6609C115.974 21.5671 115.734 21.52 115.477 21.52C115.197 21.52 114.941 21.5671 114.717 21.6609C114.491 21.7547 114.297 21.8798 114.133 22.0441C113.971 22.2084 113.847 22.396 113.761 22.6151C113.676 22.834 113.629 23.0687 113.629 23.3112ZM116.471 29.498C116.471 29.7717 116.487 29.9985 116.51 30.1706C116.534 30.3427 116.596 30.4756 116.681 30.5773C116.766 30.6711 116.898 30.7415 117.061 30.7728C117.232 30.812 117.449 30.8276 117.722 30.8276H122.637V31.9538H117.605C117.139 31.9538 116.751 31.9226 116.44 31.8679C116.129 31.8131 115.881 31.6957 115.702 31.5315C115.516 31.3594 115.384 31.1247 115.306 30.8197C115.229 30.5147 115.19 30.108 115.19 29.5996V27.7929H116.471V29.498ZM121.223 20.0966H122.505V27.9962H121.223V20.0966Z" fill="white"/>
<path d="M127.471 21.2489V19.6534H128.728V21.2489H131.649V22.3831H124.582V21.2489H127.471ZM125.117 25.8792C125.117 25.4725 125.196 25.0971 125.35 24.7529C125.506 24.4089 125.716 24.1195 125.979 23.8692C126.243 23.6188 126.563 23.4312 126.927 23.2904C127.292 23.1495 127.687 23.087 128.107 23.087C128.527 23.087 128.907 23.1574 129.272 23.2904C129.629 23.4312 129.948 23.6188 130.22 23.8692C130.491 24.1195 130.709 24.4089 130.864 24.7529C131.02 25.0893 131.097 25.4725 131.097 25.8792C131.097 26.286 131.02 26.6614 130.864 27.0056C130.709 27.3496 130.499 27.6548 130.22 27.905C129.948 28.1553 129.629 28.3508 129.272 28.4995C128.907 28.6402 128.519 28.7107 128.107 28.7107C127.696 28.7107 127.292 28.6402 126.927 28.4995C126.563 28.3586 126.243 28.1631 125.979 27.905C125.716 27.6548 125.506 27.3496 125.35 27.0056C125.196 26.6614 125.117 26.286 125.117 25.8792ZM126.384 25.8792C126.384 26.3877 126.539 26.7944 126.849 27.0994C127.16 27.4123 127.58 27.5687 128.107 27.5687C128.612 27.5687 129.024 27.4123 129.342 27.0994C129.66 26.7865 129.824 26.3798 129.824 25.8792C129.824 25.6368 129.777 25.4177 129.7 25.2223C129.613 25.0189 129.497 24.8469 129.342 24.6982C129.186 24.5496 129.009 24.4323 128.791 24.3463C128.574 24.2602 128.348 24.2211 128.107 24.2211C127.843 24.2211 127.602 24.2602 127.393 24.3463C127.183 24.4323 126.996 24.5496 126.849 24.6982C126.702 24.8469 126.585 25.0268 126.508 25.2223C126.43 25.4177 126.391 25.6447 126.391 25.8792M133.046 20.0914H134.328V23.9865H135.966V25.1284H134.328V29.9151H133.046V20.0836V20.0914Z" fill="white"/>
<path d="M147.469 26.769V27.9032H142.702V31.4541H141.42V27.9032H136.652V26.769H147.469ZM142.065 25.7835C141.623 25.7835 141.211 25.7132 140.823 25.5724C140.435 25.4316 140.1 25.2361 139.813 24.978C139.526 24.7276 139.3 24.4226 139.138 24.0707C138.974 23.7188 138.897 23.3354 138.897 22.921C138.897 22.5064 138.974 22.1309 139.138 21.7712C139.3 21.4114 139.526 21.1064 139.813 20.8483C140.1 20.5901 140.435 20.3868 140.823 20.2382C141.211 20.0895 141.623 20.0114 142.065 20.0114C142.508 20.0114 142.903 20.0818 143.292 20.2304C143.68 20.3789 144.014 20.5823 144.293 20.8404C144.573 21.0985 144.798 21.4114 144.969 21.7633C145.133 22.1153 145.218 22.5064 145.218 22.921C145.218 23.3354 145.133 23.7188 144.969 24.0707C144.806 24.4226 144.581 24.7199 144.293 24.978C144.014 25.2282 143.68 25.4316 143.292 25.5724C142.903 25.7132 142.491 25.7835 142.065 25.7835ZM140.147 22.921C140.147 23.4371 140.318 23.8516 140.659 24.1802C141.001 24.5087 141.467 24.6651 142.057 24.6651C142.329 24.6651 142.585 24.626 142.818 24.54C143.051 24.4539 143.253 24.3366 143.416 24.1802C143.587 24.0238 143.719 23.8439 143.811 23.6248C143.905 23.4136 143.96 23.179 143.96 22.921C143.96 22.6629 143.913 22.4438 143.811 22.2249C143.719 22.0058 143.587 21.8181 143.416 21.6539C143.245 21.4896 143.051 21.3645 142.818 21.2707C142.585 21.1767 142.329 21.1298 142.057 21.1298C141.77 21.1298 141.506 21.1767 141.265 21.2784C141.024 21.3723 140.823 21.5052 140.659 21.6695C140.488 21.8338 140.364 22.0214 140.279 22.2405C140.194 22.4594 140.147 22.6863 140.147 22.921Z" fill="white"/>
<path d="M159.223 29.6685H148.406V28.5344H159.223V29.6685ZM154.744 20.408C154.697 20.6348 154.642 20.8694 154.572 21.0884C154.503 21.3153 154.416 21.5421 154.324 21.7768C154.486 22.0661 154.744 22.3712 155.069 22.6762C155.395 22.9812 155.768 23.2706 156.171 23.5444C156.576 23.8181 157.003 24.0684 157.446 24.2952C157.888 24.522 158.307 24.7019 158.696 24.8349C158.61 25.0148 158.525 25.1947 158.44 25.3746C158.354 25.5545 158.269 25.7344 158.167 25.9142C157.811 25.8047 157.414 25.6483 156.987 25.4293C156.561 25.2103 156.141 24.9679 155.729 24.6941C155.318 24.4204 154.929 24.1231 154.565 23.8181C154.2 23.5052 153.912 23.208 153.68 22.9109C153.439 23.2549 153.151 23.5834 152.817 23.9041C152.483 24.217 152.134 24.5142 151.769 24.7801C151.404 25.0538 151.031 25.2885 150.658 25.5076C150.285 25.7188 149.937 25.8986 149.611 26.0394C149.502 25.8673 149.4 25.703 149.308 25.531C149.214 25.3589 149.105 25.1947 149.005 25.0226C149.556 24.7723 150.084 24.4907 150.573 24.1778C151.063 23.8651 151.513 23.5052 151.901 23.1142C152.289 22.7231 152.623 22.2851 152.895 21.8002C153.166 21.3153 153.369 20.7755 153.501 20.1733C153.71 20.2202 153.919 20.2594 154.122 20.2906C154.324 20.3298 154.533 20.3688 154.744 20.408Z" fill="white"/>
<path d="M165.047 20.5566C165.498 20.5566 165.808 20.6583 165.987 20.8616C166.166 21.065 166.252 21.37 166.252 21.7768C166.252 22.4338 166.15 23.0908 165.956 23.7399C165.755 24.3891 165.459 25.0227 165.047 25.6327C164.636 26.2428 164.124 26.8138 163.51 27.3456C162.897 27.8852 162.166 28.3546 161.328 28.7612C161.234 28.5814 161.134 28.4093 161.033 28.245C160.94 28.0808 160.839 27.901 160.746 27.7288C161.624 27.3065 162.353 26.8138 162.927 26.2662C163.503 25.7188 163.96 25.1478 164.294 24.5455H160.916V23.4193H164.799C164.868 23.2081 164.923 22.9891 164.962 22.7701C165.001 22.5511 165.024 22.3321 165.024 22.1287C165.024 21.9567 164.985 21.8472 164.908 21.7846C164.83 21.722 164.674 21.6907 164.458 21.6907H160.916V20.5566H165.047ZM168.775 20.0795H170.056V23.912H171.694V25.0539H170.056V29.9111H168.775V20.0795Z" fill="white"/>
<path d="M183.196 26.0598V27.1939H178.863V29.3917H177.583V27.1939H172.379V26.0598H183.196ZM175.09 29.947C175.09 30.1582 175.105 30.3381 175.128 30.4788C175.152 30.6197 175.206 30.7369 175.284 30.8152C175.361 30.9012 175.47 30.956 175.61 30.995C175.749 31.0342 175.928 31.0498 176.146 31.0498H181.876V32.1839H176.146C175.695 32.1839 175.322 32.1526 175.02 32.0901C174.725 32.0275 174.484 31.918 174.297 31.7538C174.119 31.5895 173.987 31.3627 173.917 31.0733C173.84 30.7838 173.808 30.4163 173.808 29.9626V28.2341H175.09V29.947ZM177.822 25.3871C177.38 25.3871 176.969 25.3245 176.588 25.1916C176.208 25.0586 175.873 24.8709 175.587 24.6285C175.307 24.386 175.082 24.0887 174.919 23.7525C174.755 23.4083 174.678 23.0328 174.678 22.6105C174.678 22.1881 174.755 21.8284 174.919 21.4686C175.082 21.1166 175.307 20.8194 175.587 20.5613C175.866 20.311 176.2 20.1077 176.588 19.9669C176.969 19.8261 177.38 19.7557 177.822 19.7557C178.265 19.7557 178.662 19.8261 179.034 19.9669C179.415 20.1077 179.741 20.3032 180.029 20.5613C180.308 20.8116 180.533 21.1166 180.688 21.4608C180.844 21.8049 180.929 22.1881 180.929 22.6027C180.929 23.0172 180.851 23.4005 180.688 23.7446C180.533 24.0887 180.308 24.3781 180.029 24.6206C179.748 24.863 179.415 25.0508 179.034 25.1838C178.654 25.3168 178.25 25.3793 177.822 25.3793M175.975 22.6027C175.975 23.1033 176.138 23.5021 176.457 23.8072C176.775 24.1123 177.233 24.2687 177.822 24.2687C178.374 24.2687 178.816 24.12 179.143 23.8072C179.469 23.5021 179.632 23.1033 179.632 22.6027C179.632 22.3603 179.594 22.1412 179.508 21.93C179.422 21.7189 179.306 21.5389 179.143 21.3826C178.988 21.2262 178.794 21.101 178.568 21.0071C178.343 20.9133 178.095 20.8664 177.822 20.8664C177.536 20.8664 177.272 20.9133 177.046 21.0071C176.821 21.101 176.627 21.2262 176.464 21.3904C176.308 21.5468 176.184 21.7345 176.099 21.9457C176.014 22.1568 175.975 22.3759 175.975 22.6027Z" fill="white"/>
<path d="M194.938 26.2879H184.137V25.1929H194.938V26.2879ZM190.341 20.1246C190.302 20.2654 190.271 20.4061 190.232 20.5391C190.193 20.6721 190.139 20.8129 190.068 20.9537C190.279 21.2352 190.543 21.5012 190.853 21.7436C191.164 21.9861 191.505 22.2129 191.878 22.4085C192.251 22.6118 192.631 22.7839 193.035 22.9403C193.439 23.0967 193.827 23.2297 194.2 23.3314C194.122 23.5113 194.045 23.6912 193.967 23.8711C193.889 24.051 193.812 24.2309 193.734 24.4107C193.377 24.3325 192.989 24.2153 192.585 24.0588C192.181 23.9024 191.785 23.7225 191.397 23.5113C191.008 23.3001 190.644 23.0733 190.309 22.823C189.968 22.5727 189.68 22.3068 189.447 22.0409C189.223 22.3224 188.959 22.5884 188.656 22.8386C188.36 23.0889 188.035 23.3157 187.685 23.5269C187.336 23.7381 186.971 23.9336 186.598 24.1057C186.218 24.2778 185.837 24.4263 185.464 24.5515C185.371 24.3716 185.278 24.1995 185.184 24.0353C185.099 23.8711 185.007 23.699 184.905 23.5269C185.378 23.3705 185.845 23.175 186.295 22.9403C186.745 22.7135 187.165 22.4397 187.545 22.1347C187.926 21.8297 188.251 21.4856 188.524 21.1101C188.795 20.7347 188.989 20.3202 189.106 19.8665C189.308 19.9135 189.518 19.9525 189.727 19.9917C189.937 20.0307 190.147 20.0698 190.349 20.1168M193.493 27.2342V30.2768H186.862V30.7461C186.862 30.9416 186.893 31.0667 186.948 31.1293C187.001 31.1841 187.118 31.2154 187.297 31.2154H193.587V32.2947H186.761C186.389 32.2869 186.101 32.2008 185.899 32.0288C185.689 31.8567 185.589 31.5595 185.589 31.1372V29.2053H192.22V28.3293H185.589V27.2421H193.501L193.493 27.2342Z" fill="white"/>
<path d="M204.067 24.9426H205.814V26.0767H201.947V28.5404H206.714V29.6745H195.898V28.5404H200.666V26.0767H196.891V24.9426H198.514V21.6575H196.891V20.5312H205.698V21.6575H204.075V24.9426H204.067ZM202.801 21.6575H199.765V24.9426H202.801V21.6575Z" fill="white"/>
<path d="M213.97 20.408V24.0919H209.544V24.9835C209.544 25.1165 209.544 25.226 209.566 25.312C209.582 25.3981 209.606 25.4607 209.653 25.5076C209.698 25.5545 209.76 25.5858 209.847 25.6014C209.932 25.617 210.041 25.6327 210.18 25.6327H214.607V26.759H209.862C209.551 26.759 209.295 26.7355 209.093 26.6808C208.891 26.626 208.728 26.54 208.604 26.4148C208.48 26.2897 208.394 26.1176 208.34 25.8987C208.286 25.6796 208.262 25.4059 208.262 25.0774V22.9656H212.696V21.5422H208.262V20.408H213.97ZM218 27.854V31.9759H212.362C211.796 31.9759 211.391 31.8586 211.151 31.616C210.903 31.3736 210.779 30.9435 210.779 30.3256V27.854H218ZM212.044 28.9334V30.263C212.044 30.5211 212.082 30.6931 212.153 30.7792C212.23 30.8653 212.378 30.9043 212.596 30.9043H216.718V28.9334H212.044ZM216.718 24.0372H214.537V22.9031H216.718V20.0795H218V26.9936H216.718V24.0293V24.0372Z" fill="white"/>
</g>
</g>
<defs>
<clipPath id="clip0_1637_9191">
<rect width="218" height="48" fill="white"/>
</clipPath>
</defs>
</svg>
