<svg width="101" height="40" viewBox="0 0 101 40" fill="none" xmlns="http://www.w3.org/2000/svg">
<g clip-path="url(#clip0_1637_9123)">
<path d="M29.5404 11.9487C29.5404 11.9487 25.5373 9.53783 18.4377 4.71054C18.4377 4.71054 8.97342 -2.34388 3.69241 0.813075C3.69241 0.813075 -2.68082 4.3375 1.32771 12.5055C1.32771 12.5055 7.15484 27.5386 30.4524 39.9716L33.9094 38.3011C33.9094 38.3011 24.2594 33.4739 13.1567 22.895C13.1567 22.895 3.32651 13.8028 3.50675 7.30516C3.50675 7.30516 2.96062 4.14818 5.69123 2.66716C8.42184 1.18055 11.5183 1.55359 15.8873 3.96446C20.2563 6.37533 29.5404 11.9431 29.5404 11.9431V11.9487Z" fill="white"/>
<path d="M19.8885 11.9487C19.8885 11.9487 23.8916 9.53783 30.9912 4.71054C30.9912 4.71054 40.4555 -2.34388 45.7363 0.813075C45.7363 0.813075 52.1097 4.3375 48.1012 12.5055C48.1012 12.5055 42.2742 27.5386 18.9765 39.9716L15.5195 38.3011C15.5195 38.3011 25.1695 33.4739 36.2723 22.895C36.2723 22.895 46.1024 13.8028 45.9221 7.30516C45.9221 7.30516 46.4681 4.14818 43.7377 2.66716C41.0071 1.18055 37.9107 1.55359 33.5416 3.96446C29.1726 6.37533 19.8885 11.9431 19.8885 11.9431V11.9487Z" fill="white"/>
<path d="M61.0559 37.778H56.5721L51.5805 31.6922L51.0183 32.3771V37.778H47.1953V21.2136H51.0183V28.1845L56.3101 21.2136H60.1276L53.6942 28.9696L61.0504 37.778H61.0559Z" fill="white"/>
<path d="M72.8973 32.8782C72.8973 34.6263 72.2968 35.9237 71.0952 36.7643C69.8936 37.6052 68.2281 38.0226 66.0872 38.0226C64.8642 38.0226 63.8318 37.956 62.9908 37.8168C62.1497 37.6776 61.4562 37.505 60.9102 37.2934V34.4427C61.3362 34.6986 62.0077 34.938 62.9253 35.1554C63.8428 35.378 64.7384 35.4837 65.6232 35.4837C66.8682 35.4837 67.7258 35.3224 68.1953 34.9939C68.6651 34.6653 68.8999 34.1307 68.8999 33.3847C68.8999 32.8947 68.7306 32.466 68.3918 32.0931C68.0533 31.72 67.0978 31.2299 65.5139 30.6064C64.2578 30.1109 63.2803 29.4761 62.5923 28.7022C61.9039 27.9283 61.5599 26.8815 61.5599 25.5508C61.5599 24.2201 62.117 23.1956 63.2255 22.3215C64.3399 21.4418 65.8745 21.0019 67.8348 21.0019C68.7851 21.0019 69.6427 21.0798 70.4017 21.2302C71.1607 21.3805 71.696 21.5141 72.0018 21.6311V24.1366C71.3575 23.9807 70.7185 23.8471 70.0794 23.7246C69.4404 23.6076 68.7634 23.5464 68.0478 23.5464C67.032 23.5464 66.295 23.7023 65.8469 24.0197C65.3991 24.3314 65.1754 24.7268 65.1754 25.1889C65.1754 25.7791 65.3447 26.219 65.6832 26.5196C66.0217 26.8203 67.0103 27.2601 68.6541 27.8503C70.1832 28.3904 71.27 29.0808 71.9198 29.9049C72.5698 30.7344 72.8921 31.7255 72.8921 32.8782H72.8973Z" fill="white"/>
<path d="M87.2124 37.778H83.3894V30.6455H79.0532V37.778H75.2305V21.2136H79.0532V28.101H83.3894V21.2136H87.2124V37.778Z" fill="white"/>
<path d="M100.821 23.6857H94.3386V28.14H99.3902V30.6455H94.3386V37.778H90.5156V21.2136H100.821V23.6857Z" fill="white"/>
</g>
<defs>
<clipPath id="clip0_1637_9123">
<rect width="101" height="40" fill="white"/>
</clipPath>
</defs>
</svg>
