<svg width="301" height="44" viewBox="0 0 301 44" fill="none" xmlns="http://www.w3.org/2000/svg">
<g clip-path="url(#clip0_1637_7764)">
<path d="M63.1049 32.3934H61.1113L58.6216 35.4989C58.4369 35.7318 58.0673 35.5959 58.0673 35.3048V32.704C58.0673 32.5293 57.9312 32.3934 57.7561 32.3934H56.4141V41.0789H57.7561C57.9312 41.0789 58.0673 40.9431 58.0673 40.7684V38.4296L58.6606 37.7115C58.7967 37.5465 59.0496 37.5659 59.1565 37.7406L61.2571 41.0789H63.241L60.0415 36.0811L63.0952 32.3934H63.1049Z" fill="white"/>
<path d="M69.2512 35.2952C68.9789 34.9846 68.6482 34.742 68.269 34.5673C67.8897 34.3926 67.4812 34.3053 67.0339 34.3053C66.5865 34.3053 66.1684 34.3926 65.7891 34.577C65.4098 34.7614 65.0792 35.004 64.8069 35.3243C64.5248 35.6348 64.3109 36.0036 64.1553 36.4209C63.9997 36.8382 63.9219 37.2846 63.9219 37.7698V37.7989C63.9219 38.2744 63.9997 38.7305 64.1553 39.1478C64.3109 39.5651 64.5248 39.9339 64.8069 40.2347C65.0792 40.5453 65.4098 40.7879 65.7891 40.9626C66.1684 41.1372 66.5768 41.2246 67.0242 41.2246C67.4715 41.2246 67.8897 41.1372 68.269 40.9529C68.6482 40.7685 68.9789 40.5259 69.2512 40.2056C69.5332 39.8951 69.7472 39.5263 69.9028 39.109C70.0584 38.6917 70.1362 38.2453 70.1362 37.7601V37.731C70.1362 37.2555 70.0584 36.7993 69.9028 36.3821C69.7472 35.9648 69.5332 35.596 69.2512 35.2952ZM68.5218 37.7892C68.5218 38.0415 68.4926 38.2744 68.4246 38.4879C68.3565 38.7111 68.2592 38.8955 68.1328 39.0605C68.0064 39.2255 67.8508 39.3516 67.666 39.4487C67.4812 39.5457 67.277 39.5942 67.0339 39.5942C66.7908 39.5942 66.5963 39.5457 66.4212 39.4487C66.2364 39.3516 66.0808 39.2158 65.9447 39.0411C65.8085 38.8761 65.7016 38.682 65.6335 38.4588C65.5654 38.2356 65.5265 38.0027 65.5265 37.7601V37.731C65.5265 37.4787 65.5557 37.2457 65.6238 37.0323C65.6918 36.809 65.7891 36.6247 65.9155 36.4597C66.0419 36.2947 66.1975 36.1686 66.3823 36.0715C66.5671 35.9745 66.7713 35.9259 67.0144 35.9259C67.2381 35.9259 67.4423 35.9745 67.6271 36.0715C67.8119 36.1686 67.9772 36.3044 68.1134 36.4791C68.2495 36.6441 68.3565 36.8479 68.4246 37.0614C68.4926 37.2846 68.5315 37.5175 68.5315 37.7601V37.7892H68.5218Z" fill="white"/>
<path d="M73.0635 35.761V34.7323C73.0635 34.5576 72.9273 34.4218 72.7523 34.4218H71.4297V41.0693H72.8107C72.9468 41.0693 73.0635 40.9529 73.0635 40.817V38.6141C73.0635 37.8086 73.2191 37.2166 73.5303 36.8382C73.8415 36.4597 74.2694 36.2656 74.814 36.2656H74.9015V34.2956C74.4153 34.2665 74.0263 34.3927 73.7443 34.6644C73.4622 34.9361 73.2288 35.3049 73.0732 35.7513L73.0635 35.761Z" fill="white"/>
<path d="M128.04 35.761V34.7323C128.04 34.5576 127.904 34.4218 127.729 34.4218H126.406V41.0693H127.787C127.923 41.0693 128.04 40.9529 128.04 40.817V38.6141C128.04 37.8086 128.196 37.2166 128.507 36.8382C128.818 36.4597 129.246 36.2656 129.791 36.2656H129.878V34.2956C129.392 34.2665 129.003 34.3927 128.721 34.6644C128.439 34.9361 128.205 35.3049 128.05 35.7513L128.04 35.761Z" fill="white"/>
<path d="M81.328 37.9056C81.328 37.4301 81.2697 36.9837 81.1627 36.547C81.0557 36.1103 80.8807 35.7318 80.6473 35.3921C80.4139 35.0525 80.1221 34.7905 79.772 34.5964C79.4219 34.4023 79.0037 34.2955 78.5272 34.2955C78.109 34.2955 77.72 34.3829 77.3699 34.5673C77.0198 34.7516 76.7281 34.9943 76.4752 35.3145C76.2224 35.625 76.0279 35.9938 75.8917 36.4208C75.7556 36.8381 75.6875 37.2845 75.6875 37.76V37.7891C75.6875 38.3035 75.7653 38.7693 75.9112 39.1866C76.057 39.6039 76.271 39.9629 76.5433 40.2735C76.8156 40.584 77.1268 40.8169 77.4964 40.9819C77.8659 41.1469 78.2646 41.2342 78.6925 41.2342C79.2177 41.2342 79.665 41.1275 80.054 40.9043C80.443 40.6811 80.7737 40.3802 81.0363 39.992L80.1027 39.041C79.8693 39.2836 79.6553 39.4583 79.4414 39.5651C79.2274 39.6718 78.9843 39.73 78.712 39.73C78.3522 39.73 78.041 39.6233 77.7978 39.4001C77.5547 39.1769 77.3894 38.8566 77.3116 38.4296H81.0752C81.2113 38.4296 81.3183 38.3326 81.328 38.187C81.328 38.187 81.328 38.1773 81.328 38.1676C81.328 38.09 81.328 38.0026 81.328 37.9347V37.9056ZM79.2663 37.2263H77.2921C77.3602 36.7993 77.4964 36.4499 77.7006 36.1976C77.9145 35.9453 78.1868 35.8094 78.5272 35.8094C78.8676 35.8094 79.1496 35.9356 79.3538 36.1976C79.4705 36.3432 79.5678 36.5179 79.6359 36.7216C79.7137 36.9643 79.5192 37.2263 79.2663 37.2263Z" fill="white"/>
<path d="M86.9902 35.0914C86.786 34.8487 86.5234 34.6644 86.2025 34.5382C85.8816 34.412 85.5023 34.3441 85.0452 34.3441C84.559 34.3441 84.1408 34.3926 83.8004 34.4897C83.4601 34.5867 83.1294 34.7129 82.8182 34.8779L83.2267 36.3141C83.4892 36.1977 83.7421 36.1103 83.9852 36.0521C84.2283 35.9939 84.5006 35.9551 84.8118 35.9551C85.2203 35.9551 85.5315 36.0618 85.7357 36.2656C85.9399 36.4694 86.0469 36.7702 86.0469 37.1681V37.2749C85.8427 37.1972 85.6287 37.1293 85.4051 37.0808C85.1911 37.0322 84.9285 37.0031 84.6368 37.0031C84.2964 37.0031 83.9852 37.042 83.6935 37.1293C83.4114 37.2166 83.1683 37.3428 82.9641 37.5175C82.7599 37.6922 82.6043 37.9057 82.4876 38.1774C82.3709 38.4394 82.3125 38.7596 82.3125 39.1187V39.1478C82.3125 39.4778 82.3611 39.7689 82.4681 40.0212C82.5751 40.2735 82.7112 40.487 82.896 40.6617C83.0808 40.8364 83.285 40.9626 83.5281 41.0499C83.7713 41.1372 84.0241 41.1761 84.2964 41.1761C84.6951 41.1761 85.0355 41.0984 85.3175 40.9431C85.5996 40.7879 85.833 40.5841 86.0372 40.3318V41.0499H87.6126V37.1972C87.6126 36.7508 87.564 36.3432 87.4668 35.9842C87.3695 35.6251 87.2139 35.3243 86.9902 35.072V35.0914ZM86.0664 38.7305C86.0664 39.0799 85.9497 39.3613 85.7163 39.5748C85.4829 39.7883 85.1717 39.8951 84.7924 39.8951C84.5298 39.8951 84.3159 39.8271 84.1505 39.6816C83.9852 39.5457 83.9074 39.3419 83.9074 39.0896V39.0605C83.9074 38.7596 84.0047 38.5364 84.2089 38.3812C84.4131 38.2259 84.6854 38.1483 85.0355 38.1483C85.2397 38.1483 85.4245 38.1677 85.5996 38.2162C85.7746 38.2647 85.9302 38.3229 86.0761 38.4006V38.7402L86.0664 38.7305Z" fill="white"/>
<path d="M98.4445 36.9934C98.746 36.547 98.8918 35.9744 98.8918 35.2757V35.2466C98.8918 34.4217 98.6779 33.7618 98.25 33.2669C97.7443 32.6846 97.0149 32.3838 96.0618 32.3838H92.6289V41.0693H94.0488C94.1752 41.0693 94.2822 40.9625 94.2822 40.8267V38.2841H95.5756L97.1802 41.0596H99.1155L97.2775 37.9639C97.754 37.7601 98.143 37.4301 98.4445 36.9934ZM97.2191 35.3825C97.2191 35.7512 97.1122 36.0521 96.8885 36.2753C96.6745 36.4985 96.3536 36.6149 95.9549 36.6149H94.6031C94.428 36.6149 94.2822 36.4694 94.2822 36.285V34.1209H95.9257C96.3341 34.1209 96.6551 34.2276 96.8788 34.4314C97.1122 34.6352 97.2191 34.9458 97.2191 35.3631V35.3922V35.3825Z" fill="white"/>
<path d="M110.514 37.7018C110.349 37.5562 110.164 37.4301 109.96 37.3233C109.756 37.2166 109.551 37.1292 109.347 37.0613C109.192 37.0031 109.046 36.9448 108.9 36.8866C108.764 36.8284 108.637 36.7702 108.53 36.7022C108.423 36.644 108.336 36.5761 108.277 36.5081C108.209 36.4402 108.18 36.3529 108.18 36.2655V36.2364C108.18 36.1006 108.229 35.9938 108.326 35.9065C108.423 35.8191 108.579 35.7803 108.773 35.7803C108.968 35.7803 109.221 35.8385 109.493 35.9453C109.678 36.0229 109.863 36.1103 110.047 36.2267C110.203 36.3141 110.397 36.2655 110.475 36.1006L110.952 35.101C110.641 34.8584 110.29 34.674 109.921 34.5381C109.542 34.4023 109.172 34.3344 108.812 34.3344C108.52 34.3344 108.248 34.3829 107.995 34.4702C107.742 34.5576 107.519 34.6934 107.334 34.8778C107.149 35.0622 106.994 35.2854 106.887 35.5377C106.78 35.7997 106.721 36.1006 106.721 36.4402V36.4693C106.721 36.7896 106.77 37.0613 106.877 37.2845C106.984 37.5077 107.11 37.6921 107.276 37.8474C107.441 38.0026 107.626 38.1288 107.83 38.2161C108.034 38.3132 108.238 38.3908 108.433 38.4587C108.589 38.517 108.744 38.5655 108.88 38.6237C109.026 38.6722 109.153 38.7208 109.26 38.779C109.367 38.8372 109.454 38.8954 109.522 38.9731C109.59 39.0507 109.619 39.1381 109.619 39.2351V39.2642C109.619 39.4098 109.561 39.5359 109.454 39.6233C109.347 39.7106 109.172 39.7591 108.929 39.7591C108.657 39.7591 108.365 39.6912 108.054 39.5651C107.742 39.4292 107.431 39.2351 107.11 38.9731L106.41 40.2152C106.799 40.5646 107.198 40.8169 107.626 40.9819C108.054 41.1469 108.472 41.2245 108.871 41.2245C109.182 41.2245 109.464 41.1857 109.736 41.0984C110.008 41.011 110.242 40.8849 110.436 40.7102C110.641 40.5355 110.796 40.3123 110.903 40.0503C111.01 39.7785 111.068 39.4583 111.068 39.0895V39.0604C111.068 38.7596 111.01 38.4976 110.903 38.2841C110.796 38.0706 110.66 37.8862 110.495 37.7406L110.514 37.7018Z" fill="white"/>
<path d="M117.392 35.2952C117.12 34.9846 116.789 34.742 116.41 34.5673C116.03 34.3926 115.622 34.3053 115.175 34.3053C114.727 34.3053 114.309 34.3926 113.93 34.577C113.55 34.7614 113.22 35.004 112.947 35.3243C112.665 35.6348 112.451 36.0036 112.296 36.4209C112.14 36.8382 112.062 37.2846 112.062 37.7698V37.7989C112.062 38.2744 112.14 38.7305 112.296 39.1478C112.451 39.5651 112.665 39.9339 112.947 40.2347C113.22 40.5453 113.55 40.7879 113.93 40.9626C114.309 41.1372 114.717 41.2246 115.165 41.2246C115.612 41.2246 116.03 41.1372 116.41 40.9529C116.789 40.7685 117.12 40.5259 117.392 40.2056C117.674 39.8951 117.888 39.5263 118.043 39.109C118.199 38.6917 118.277 38.2453 118.277 37.7601V37.731C118.277 37.2555 118.199 36.7993 118.043 36.3821C117.888 35.9648 117.674 35.596 117.392 35.2952ZM116.672 37.7892C116.672 38.0415 116.643 38.2744 116.575 38.4879C116.507 38.7111 116.41 38.8955 116.283 39.0605C116.157 39.2255 116.001 39.3516 115.816 39.4487C115.632 39.5457 115.427 39.5942 115.184 39.5942C114.941 39.5942 114.747 39.5457 114.572 39.4487C114.387 39.3516 114.231 39.2158 114.095 39.0411C113.959 38.8761 113.852 38.682 113.784 38.4588C113.716 38.2356 113.677 38.0027 113.677 37.7601V37.731C113.677 37.4787 113.706 37.2457 113.774 37.0323C113.842 36.809 113.939 36.6247 114.066 36.4597C114.192 36.2947 114.348 36.1686 114.533 36.0715C114.717 35.9745 114.922 35.9259 115.165 35.9259C115.388 35.9259 115.593 35.9745 115.777 36.0715C115.962 36.1686 116.128 36.3044 116.264 36.4791C116.4 36.6441 116.507 36.8479 116.575 37.0614C116.643 37.2846 116.682 37.5175 116.682 37.7601V37.7892H116.672Z" fill="white"/>
<path d="M123.168 38.1191C123.168 38.5656 123.081 38.9052 122.896 39.1284C122.711 39.3516 122.468 39.4681 122.147 39.4681C121.826 39.4681 121.593 39.3516 121.418 39.1284C121.243 38.9052 121.165 38.5656 121.165 38.1191V34.8973C121.165 34.6352 120.961 34.4218 120.708 34.4218H119.531V38.7208C119.531 39.4875 119.697 40.0892 120.037 40.5356C120.377 40.9723 120.854 41.1955 121.476 41.1955C121.68 41.1955 121.865 41.1663 122.031 41.1081C122.196 41.0499 122.342 40.9723 122.478 40.8752C122.614 40.7782 122.741 40.6617 122.847 40.5356C122.954 40.4094 123.061 40.2735 123.149 40.128V41.079H124.326C124.579 41.079 124.783 40.8655 124.783 40.6035V34.907C124.783 34.645 124.579 34.4315 124.326 34.4315H123.149V38.1289L123.168 38.1191Z" fill="white"/>
<path d="M134.42 39.4001C134.216 39.5263 133.982 39.5942 133.71 39.5942C133.486 39.5942 133.292 39.5457 133.107 39.4487C132.932 39.3516 132.776 39.2255 132.65 39.0605C132.523 38.8955 132.426 38.7014 132.358 38.4782C132.29 38.255 132.261 38.0124 132.261 37.7601V37.731C132.261 37.4787 132.29 37.2457 132.358 37.0323C132.426 36.809 132.523 36.6247 132.65 36.4597C132.776 36.2947 132.922 36.1686 133.088 36.0715C133.253 35.9745 133.447 35.9259 133.652 35.9259C133.943 35.9259 134.186 35.9939 134.391 36.12C134.527 36.2074 134.653 36.3238 134.789 36.45C134.887 36.547 135.052 36.547 135.139 36.45L135.966 35.4213C135.694 35.072 135.383 34.8002 135.023 34.6061C134.663 34.412 134.216 34.3053 133.671 34.3053C133.224 34.3053 132.825 34.3926 132.455 34.577C132.086 34.7614 131.775 35.004 131.502 35.3243C131.24 35.6348 131.026 36.0036 130.88 36.4306C130.734 36.8479 130.656 37.2943 130.656 37.7698V37.7989C130.656 38.2744 130.734 38.7111 130.88 39.1284C131.026 39.5457 131.24 39.9048 131.502 40.2153C131.765 40.5259 132.086 40.7685 132.455 40.9529C132.825 41.1372 133.224 41.2246 133.652 41.2246C134.225 41.2246 134.692 41.1081 135.042 40.8849C135.402 40.6617 135.713 40.3706 135.995 40.0115L135.042 38.8955C134.838 39.109 134.644 39.2837 134.439 39.4098L134.42 39.4001Z" fill="white"/>
<path d="M151.448 39.1866C151.146 39.371 150.787 39.4583 150.359 39.4583C150.038 39.4583 149.746 39.3904 149.474 39.2448C149.201 39.0993 148.978 38.9052 148.783 38.6529C148.598 38.4006 148.443 38.1191 148.336 37.7892C148.229 37.4592 148.171 37.1099 148.171 36.7314V36.7023C148.171 36.3335 148.229 35.9841 148.336 35.6542C148.443 35.3242 148.589 35.0428 148.783 34.7905C148.978 34.5382 149.211 34.3441 149.474 34.2082C149.746 34.0724 150.038 33.9947 150.349 33.9947C150.728 33.9947 151.069 34.0821 151.37 34.2567C151.535 34.3538 151.71 34.4702 151.876 34.6061C152.099 34.7905 152.43 34.7517 152.615 34.5188L153.325 33.5774C153.15 33.3833 152.965 33.199 152.771 33.034C152.566 32.869 152.352 32.7234 152.119 32.6167C151.886 32.5002 151.623 32.4129 151.331 32.345C151.039 32.277 150.719 32.2479 150.368 32.2479C149.785 32.2479 149.26 32.3644 148.783 32.5973C148.307 32.8302 147.889 33.1601 147.548 33.5677C147.208 33.9753 146.935 34.4508 146.741 34.9943C146.546 35.5377 146.449 36.12 146.449 36.7411V36.7702C146.449 37.3913 146.546 37.9736 146.741 38.517C146.935 39.0605 147.198 39.536 147.548 39.9339C147.889 40.3317 148.297 40.652 148.774 40.8849C149.25 41.1178 149.756 41.2343 150.31 41.2343C150.67 41.2343 151.001 41.1954 151.292 41.1275C151.584 41.0596 151.856 40.9528 152.099 40.817C152.343 40.6811 152.576 40.5161 152.78 40.322C152.984 40.1279 153.189 39.9144 153.383 39.6815L152.333 38.4491C152.041 38.7596 151.74 39.0119 151.448 39.1963V39.1866Z" fill="white"/>
<path d="M154.676 41.0693H155.969C156.154 41.0693 156.31 40.914 156.31 40.7199V34.7711C156.31 34.577 156.164 34.4218 155.969 34.4218H154.676V41.0693Z" fill="white"/>
<path d="M154.629 33.6939H156.01C156.195 33.6939 156.35 33.5386 156.35 33.3445V32.3644C156.35 32.1703 156.204 32.015 156.01 32.015H154.629V33.6939Z" fill="white"/>
<path d="M175.527 41.0693H176.782C176.986 41.0693 177.161 40.8946 177.161 40.6811V32.4032C177.161 32.1897 176.996 32.015 176.782 32.015H175.527V41.0693Z" fill="white"/>
<path d="M186.808 32.7234H185.495V34.4217H184.805V36.0326H185.495V39.1866C185.495 39.5747 185.534 39.895 185.622 40.1473C185.699 40.3996 185.816 40.6034 185.962 40.7587C186.108 40.9139 186.283 41.0207 186.487 41.0886C186.691 41.1469 186.915 41.1857 187.168 41.1857C187.44 41.1857 187.683 41.1469 187.888 41.0789C188.092 41.011 188.286 40.9139 188.452 40.7975V39.2836C188.199 39.4486 187.936 39.5359 187.644 39.5359C187.294 39.5359 187.119 39.3224 187.119 38.8857V36.0326H188.16C188.335 36.0326 188.471 35.887 188.471 35.7027V34.7419C188.471 34.5575 188.335 34.412 188.16 34.412H187.119V33.0339C187.119 32.8495 186.983 32.704 186.808 32.704V32.7234Z" fill="white"/>
<path d="M198.146 35.2952C197.873 34.9846 197.543 34.742 197.164 34.5673C196.784 34.3926 196.376 34.3053 195.928 34.3053C195.481 34.3053 195.063 34.3926 194.684 34.577C194.304 34.7614 193.974 35.004 193.701 35.3243C193.419 35.6348 193.205 36.0036 193.05 36.4209C192.894 36.8382 192.816 37.2846 192.816 37.7698V37.7989C192.816 38.2744 192.894 38.7305 193.05 39.1478C193.205 39.5651 193.419 39.9339 193.701 40.2347C193.974 40.5453 194.304 40.7879 194.684 40.9626C195.063 41.1372 195.471 41.2246 195.919 41.2246C196.366 41.2246 196.784 41.1372 197.164 40.9529C197.543 40.7685 197.873 40.5259 198.146 40.2056C198.428 39.8951 198.642 39.5263 198.797 39.109C198.953 38.6917 199.031 38.2453 199.031 37.7601V37.731C199.031 37.2555 198.953 36.7993 198.797 36.3821C198.642 35.9648 198.428 35.596 198.146 35.2952ZM197.416 37.7892C197.416 38.0415 197.377 38.2744 197.319 38.4879C197.251 38.7111 197.154 38.8955 197.027 39.0605C196.901 39.2255 196.745 39.3516 196.561 39.4487C196.376 39.5457 196.172 39.5942 195.928 39.5942C195.685 39.5942 195.491 39.5457 195.316 39.4487C195.131 39.3516 194.975 39.2158 194.839 39.0411C194.703 38.8761 194.596 38.682 194.528 38.4588C194.46 38.2356 194.421 38.0027 194.421 37.7601V37.731C194.421 37.4787 194.46 37.2457 194.528 37.0323C194.596 36.809 194.693 36.6247 194.82 36.4597C194.946 36.2947 195.102 36.1686 195.287 36.0715C195.471 35.9745 195.676 35.9259 195.919 35.9259C196.142 35.9259 196.347 35.9745 196.531 36.0715C196.716 36.1686 196.881 36.3044 197.018 36.4791C197.154 36.6441 197.261 36.8479 197.329 37.0614C197.397 37.2846 197.436 37.5175 197.436 37.7601V37.7892H197.416Z" fill="white"/>
<path d="M203.642 34.2956C203.438 34.2956 203.253 34.3247 203.088 34.3829C202.923 34.4412 202.777 34.5188 202.641 34.6158C202.505 34.7129 202.378 34.8293 202.271 34.9555C202.164 35.0817 202.057 35.2175 201.97 35.3631V34.7129C201.97 34.5479 201.843 34.412 201.678 34.412H200.336V41.0596H201.678C201.843 41.0596 201.97 40.9237 201.97 40.7588V37.3622C201.97 36.9158 202.057 36.5761 202.242 36.3529C202.427 36.1297 202.67 36.0133 202.991 36.0133C203.312 36.0133 203.545 36.1297 203.72 36.3529C203.895 36.5761 203.973 36.9158 203.973 37.3622V41.0596H205.315C205.48 41.0596 205.607 40.9237 205.607 40.7588V36.7605C205.607 35.9939 205.442 35.3922 205.101 34.9458C204.761 34.5091 204.284 34.2859 203.662 34.2859L203.642 34.2956Z" fill="white"/>
<path d="M215.331 36.7896C215.127 36.5858 214.874 36.4111 214.583 36.2656C214.281 36.12 213.95 35.9938 213.571 35.8774C213.25 35.7803 212.978 35.693 212.774 35.6154C212.56 35.5377 212.394 35.4601 212.278 35.3825C212.151 35.3048 212.074 35.2078 212.025 35.101C211.976 34.9943 211.957 34.8778 211.957 34.7323V34.7032C211.957 34.4897 212.035 34.3053 212.2 34.1597C212.365 34.0141 212.599 33.9462 212.92 33.9462C213.241 33.9462 213.561 34.0238 213.882 34.1791C214.096 34.2859 214.31 34.412 214.534 34.5576C214.719 34.6837 214.981 34.6158 215.098 34.4217L215.73 33.3639C215.341 33.0049 214.923 32.7331 214.456 32.5488C213.999 32.3547 213.493 32.2673 212.939 32.2673C212.55 32.2673 212.2 32.3256 211.879 32.4517C211.558 32.5779 211.286 32.7526 211.052 32.9855C210.819 33.2184 210.644 33.4901 210.518 33.8103C210.391 34.1306 210.323 34.4897 210.323 34.8875V34.9166C210.323 35.3436 210.381 35.7027 210.498 35.9938C210.615 36.285 210.78 36.5276 210.994 36.7217C211.208 36.9158 211.471 37.0807 211.782 37.2166C212.093 37.3525 212.433 37.4689 212.813 37.5757C213.124 37.663 213.386 37.7504 213.581 37.8377C213.775 37.925 213.931 38.0027 214.048 38.09C214.155 38.1773 214.232 38.2647 214.271 38.352C214.31 38.4491 214.33 38.5558 214.33 38.682V38.7111C214.33 38.9634 214.232 39.1672 214.048 39.3128C213.863 39.4583 213.591 39.5263 213.25 39.5263C212.822 39.5263 212.424 39.4292 212.064 39.2448C211.704 39.0507 211.354 38.7984 211.004 38.4782L210.031 39.8271C210.479 40.3026 210.984 40.652 211.529 40.8752C212.083 41.0984 212.638 41.2148 213.211 41.2148C213.62 41.2148 213.989 41.1566 214.33 41.0305C214.66 40.914 214.952 40.7393 215.195 40.5064C215.438 40.2832 215.623 40.0018 215.759 39.6621C215.895 39.3225 215.964 38.944 215.964 38.517V38.4879C215.964 38.1094 215.915 37.7795 215.808 37.5077C215.701 37.236 215.545 36.9934 215.341 36.7993L215.331 36.7896Z" fill="white"/>
<path d="M231.066 38.8761L229.84 34.645C229.801 34.5188 229.685 34.4218 229.558 34.4218H228.051L230.317 41.1178H231.795L233.925 34.8293C233.993 34.6255 233.847 34.4218 233.643 34.4218H232.369L231.075 38.8761H231.066Z" fill="white"/>
<path d="M257.266 32.3256L254.047 41.0693H255.399C255.593 41.0693 255.778 40.9431 255.846 40.749L256.42 39.1284H259.328C259.493 39.1284 259.629 39.2351 259.687 39.3904L260.281 41.079H261.632C261.807 41.079 261.934 40.8946 261.876 40.7199L258.793 32.3353H257.266V32.3256ZM257.003 37.4398L258.005 34.6255L259.007 37.4398H257.013H257.003Z" fill="white"/>
<path d="M267.263 35.2952C267.039 35.0137 266.786 34.7808 266.504 34.5867C266.222 34.3926 265.853 34.3053 265.415 34.3053C265.085 34.3053 264.764 34.3732 264.462 34.5091C264.151 34.645 263.879 34.8487 263.645 35.1108C263.412 35.3728 263.217 35.7027 263.081 36.0812C262.935 36.4694 262.867 36.9061 262.867 37.401V37.4301C262.867 37.9251 262.935 38.3618 263.081 38.7499C263.217 39.1381 263.412 39.4584 263.645 39.7204C263.879 39.9824 264.151 40.1862 264.462 40.3221C264.773 40.4579 265.094 40.5259 265.425 40.5259C265.863 40.5259 266.222 40.4288 266.504 40.2444C266.786 40.0503 267.059 39.7883 267.302 39.4487V39.7689C267.302 40.3609 267.166 40.817 266.903 41.1178C266.631 41.4187 266.222 41.5739 265.668 41.5739C265.279 41.5739 264.939 41.5157 264.637 41.409C264.443 41.341 264.248 41.2537 264.054 41.1469C263.879 41.0499 263.655 41.1469 263.577 41.3313L263.169 42.3697C263.538 42.5929 263.927 42.7676 264.355 42.884C264.783 43.0005 265.23 43.0684 265.707 43.0684C266.261 43.0684 266.747 43.0005 267.156 42.8549C267.564 42.7094 267.905 42.4862 268.177 42.1756C268.663 41.6128 268.906 40.7394 268.906 39.5554V34.7711C268.906 34.5673 268.751 34.412 268.556 34.412H267.273V35.2757L267.263 35.2952ZM267.282 37.4204C267.282 37.6436 267.243 37.8474 267.175 38.0415C267.107 38.2356 267.01 38.3909 266.884 38.5267C266.757 38.6626 266.611 38.7693 266.436 38.847C266.261 38.9246 266.076 38.9634 265.882 38.9634C265.483 38.9634 265.153 38.8276 264.88 38.5461C264.618 38.2647 264.482 37.8959 264.482 37.4301V37.401C264.482 37.1778 264.52 36.974 264.589 36.7799C264.657 36.5858 264.754 36.4306 264.88 36.2947C265.007 36.1589 265.153 36.0521 265.318 35.9745C265.483 35.8968 265.668 35.8677 265.872 35.8677C266.076 35.8677 266.261 35.9065 266.427 35.9745C266.602 36.0521 266.748 36.1589 266.874 36.2947C267 36.4306 267.098 36.5956 267.166 36.7799C267.234 36.974 267.273 37.1778 267.273 37.401V37.4301L267.282 37.4204Z" fill="white"/>
<path d="M293.851 34.4217L292.597 38.944L291.352 34.6352C291.313 34.4993 291.196 34.412 291.07 34.412H289.562L291.819 41.0887C291.751 41.2536 291.673 41.3701 291.585 41.4283C291.498 41.4865 291.391 41.5254 291.245 41.5254C291.138 41.5254 291.021 41.4962 290.895 41.4477C290.768 41.3992 290.652 41.3313 290.545 41.2633L290 42.6317C290.204 42.7675 290.428 42.884 290.652 42.9713C290.885 43.049 291.148 43.0975 291.449 43.0975C291.692 43.0975 291.906 43.0684 292.091 43.0004C292.276 42.9325 292.441 42.8257 292.587 42.6802C292.733 42.5346 292.869 42.3405 292.986 42.1076C293.112 41.8747 293.219 41.5836 293.326 41.2439L295.407 34.839C295.475 34.6352 295.329 34.4314 295.125 34.4314H293.851V34.4217Z" fill="white"/>
<path d="M105.535 37.9056C105.535 37.4301 105.477 36.9837 105.37 36.547C105.263 36.1103 105.088 35.7318 104.854 35.3921C104.621 35.0525 104.329 34.7905 103.979 34.5964C103.629 34.4023 103.211 34.2955 102.734 34.2955C102.316 34.2955 101.927 34.3829 101.577 34.5673C101.227 34.7516 100.935 34.9943 100.682 35.3145C100.429 35.625 100.235 35.9938 100.099 36.4208C99.9626 36.8381 99.8945 37.2845 99.8945 37.76V37.7891C99.8945 38.3035 99.9723 38.7693 100.118 39.1866C100.264 39.6039 100.478 39.9629 100.75 40.2735C101.023 40.584 101.334 40.8169 101.703 40.9819C102.073 41.1469 102.472 41.2342 102.9 41.2342C103.425 41.2342 103.872 41.1275 104.261 40.9043C104.65 40.6811 104.981 40.3802 105.243 39.992L104.31 39.041C104.076 39.2836 103.862 39.4583 103.648 39.5651C103.434 39.6718 103.191 39.73 102.919 39.73C102.549 39.73 102.248 39.6233 102.005 39.4001C101.762 39.1769 101.596 38.8566 101.519 38.4296H105.282C105.418 38.4296 105.525 38.3326 105.535 38.187C105.535 38.187 105.535 38.1773 105.535 38.1676C105.535 38.09 105.535 38.0026 105.535 37.9347V37.9056ZM103.473 37.2263H101.499C101.567 36.7993 101.703 36.4499 101.908 36.1976C102.122 35.9453 102.394 35.8094 102.734 35.8094C103.075 35.8094 103.357 35.9356 103.561 36.1976C103.678 36.3432 103.775 36.5179 103.843 36.7216C103.921 36.9643 103.726 37.2263 103.473 37.2263Z" fill="white"/>
<path d="M142.492 37.9056C142.492 37.4301 142.434 36.9837 142.327 36.547C142.22 36.1103 142.045 35.7318 141.811 35.3921C141.578 35.0525 141.286 34.7905 140.936 34.5964C140.586 34.4023 140.168 34.2955 139.691 34.2955C139.273 34.2955 138.884 34.3829 138.534 34.5673C138.184 34.7516 137.892 34.9943 137.639 35.3145C137.386 35.625 137.192 35.9938 137.056 36.4208C136.92 36.8381 136.852 37.2845 136.852 37.76V37.7891C136.852 38.3035 136.929 38.7693 137.075 39.1866C137.221 39.6039 137.435 39.9629 137.707 40.2735C137.98 40.584 138.291 40.8169 138.66 40.9819C139.03 41.1469 139.429 41.2342 139.857 41.2342C140.382 41.2342 140.829 41.1275 141.218 40.9043C141.607 40.6811 141.938 40.3802 142.2 39.992L141.267 39.041C141.033 39.2836 140.819 39.4583 140.605 39.5651C140.391 39.6718 140.148 39.73 139.876 39.73C139.516 39.73 139.205 39.6233 138.962 39.4001C138.719 39.1769 138.553 38.8566 138.476 38.4296H142.239C142.375 38.4296 142.482 38.3326 142.492 38.187C142.492 38.187 142.492 38.1773 142.492 38.1676C142.492 38.09 142.492 38.0026 142.492 37.9347V37.9056ZM140.43 37.2263H138.456C138.524 36.7993 138.66 36.4499 138.865 36.1976C139.079 35.9453 139.351 35.8094 139.691 35.8094C140.032 35.8094 140.314 35.9356 140.518 36.1976C140.635 36.3432 140.732 36.5179 140.8 36.7216C140.878 36.9643 140.683 37.2263 140.43 37.2263Z" fill="white"/>
<path d="M159.528 35.761V34.7323C159.528 34.5576 159.392 34.4218 159.217 34.4218H157.895V41.0693H159.275C159.412 41.0693 159.528 40.9529 159.528 40.817V38.6141C159.528 37.8086 159.684 37.2166 159.995 36.8382C160.306 36.4597 160.734 36.2656 161.279 36.2656H161.366V34.2956C160.88 34.2665 160.491 34.3927 160.209 34.6644C159.927 34.9361 159.694 35.3049 159.538 35.7513L159.528 35.761Z" fill="white"/>
<path d="M165.939 39.4001C165.735 39.5263 165.502 39.5942 165.229 39.5942C165.006 39.5942 164.811 39.5457 164.626 39.4487C164.451 39.3516 164.296 39.2255 164.169 39.0605C164.043 38.8955 163.946 38.7014 163.878 38.4782C163.81 38.255 163.78 38.0124 163.78 37.7601V37.731C163.78 37.4787 163.81 37.2457 163.878 37.0323C163.946 36.809 164.043 36.6247 164.169 36.4597C164.296 36.2947 164.442 36.1686 164.607 36.0715C164.772 35.9745 164.967 35.9259 165.171 35.9259C165.463 35.9259 165.706 35.9939 165.91 36.12C166.046 36.2074 166.173 36.3238 166.309 36.45C166.406 36.547 166.572 36.547 166.659 36.45L167.486 35.4213C167.213 35.072 166.902 34.8002 166.542 34.6061C166.183 34.412 165.735 34.3053 165.191 34.3053C164.743 34.3053 164.344 34.3926 163.975 34.577C163.605 34.7614 163.294 35.004 163.022 35.3243C162.759 35.6348 162.545 36.0036 162.399 36.4306C162.254 36.8479 162.176 37.2943 162.176 37.7698V37.7989C162.176 38.2744 162.254 38.7111 162.399 39.1284C162.545 39.5457 162.759 39.9048 163.022 40.2153C163.284 40.5259 163.605 40.7685 163.975 40.9529C164.344 41.1372 164.743 41.2246 165.171 41.2246C165.745 41.2246 166.212 41.1081 166.562 40.8849C166.922 40.6617 167.233 40.3706 167.515 40.0115L166.562 38.8955C166.358 39.109 166.163 39.2837 165.959 39.4098L165.939 39.4001Z" fill="white"/>
<path d="M172.239 38.1191C172.239 38.5656 172.151 38.9052 171.966 39.1284C171.782 39.3516 171.539 39.4681 171.218 39.4681C170.897 39.4681 170.663 39.3516 170.488 39.1284C170.313 38.9052 170.235 38.5656 170.235 38.1191V34.8973C170.235 34.6352 170.031 34.4218 169.778 34.4218H168.602V38.7208C168.602 39.4875 168.767 40.0892 169.107 40.5356C169.448 40.9723 169.924 41.1955 170.547 41.1955C170.751 41.1955 170.936 41.1663 171.101 41.1081C171.266 41.0499 171.412 40.9723 171.548 40.8752C171.684 40.7782 171.811 40.6617 171.918 40.5356C172.025 40.4094 172.132 40.2735 172.219 40.128V41.079H173.396C173.649 41.079 173.853 40.8655 173.853 40.6035V34.907C173.853 34.645 173.649 34.4315 173.396 34.4315H172.219V38.1289L172.239 38.1191Z" fill="white"/>
<path d="M183.072 35.0914C182.868 34.8487 182.605 34.6644 182.285 34.5382C181.964 34.412 181.584 34.3441 181.127 34.3441C180.641 34.3441 180.223 34.3926 179.882 34.4897C179.542 34.5867 179.211 34.7129 178.9 34.8779L179.309 36.3141C179.571 36.1977 179.824 36.1103 180.067 36.0521C180.31 35.9939 180.583 35.9551 180.894 35.9551C181.302 35.9551 181.614 36.0618 181.818 36.2656C182.022 36.4694 182.129 36.7702 182.129 37.1681V37.2749C181.925 37.1972 181.711 37.1293 181.487 37.0808C181.273 37.0322 181.011 37.0031 180.719 37.0031C180.378 37.0031 180.067 37.042 179.775 37.1293C179.493 37.2166 179.25 37.3428 179.046 37.5175C178.842 37.6922 178.686 37.9057 178.57 38.1774C178.453 38.4394 178.395 38.7596 178.395 39.1187V39.1478C178.395 39.4778 178.443 39.7689 178.55 40.0212C178.657 40.2735 178.793 40.487 178.978 40.6617C179.153 40.8364 179.367 40.9626 179.61 41.0499C179.853 41.1372 180.106 41.1761 180.378 41.1761C180.777 41.1761 181.118 41.0984 181.4 40.9431C181.682 40.7879 181.915 40.5841 182.119 40.3318V41.0499H183.695V37.1972C183.695 36.7508 183.646 36.3432 183.549 35.9842C183.452 35.6251 183.296 35.3243 183.072 35.072V35.0914ZM182.158 38.7305C182.158 39.0799 182.041 39.3613 181.808 39.5748C181.575 39.7883 181.263 39.8951 180.884 39.8951C180.622 39.8951 180.408 39.8271 180.242 39.6816C180.077 39.5457 179.999 39.3419 179.999 39.0896V39.0605C179.999 38.7596 180.096 38.5364 180.301 38.3812C180.505 38.2259 180.777 38.1483 181.127 38.1483C181.331 38.1483 181.516 38.1677 181.691 38.2162C181.866 38.2647 182.022 38.3229 182.168 38.4006V38.7402L182.158 38.7305Z" fill="white"/>
<path d="M189.859 41.0693H191.153C191.338 41.0693 191.493 40.914 191.493 40.7199V34.7711C191.493 34.577 191.347 34.4218 191.153 34.4218H189.859V41.0693Z" fill="white"/>
<path d="M189.812 33.6939H191.193C191.378 33.6939 191.534 33.5386 191.534 33.3445V32.3644C191.534 32.1703 191.388 32.015 191.193 32.015H189.812V33.6939Z" fill="white"/>
<path d="M222.701 37.9056C222.701 37.4301 222.643 36.9837 222.536 36.547C222.429 36.1103 222.254 35.7318 222.02 35.3921C221.787 35.0525 221.495 34.7905 221.145 34.5964C220.795 34.4023 220.377 34.2955 219.9 34.2955C219.482 34.2955 219.093 34.3829 218.743 34.5673C218.393 34.7516 218.101 34.9943 217.848 35.3145C217.595 35.625 217.401 35.9938 217.265 36.4208C217.129 36.8381 217.051 37.2845 217.051 37.76V37.7891C217.051 38.3035 217.129 38.7693 217.274 39.1866C217.42 39.6039 217.634 39.9629 217.907 40.2735C218.179 40.584 218.49 40.8169 218.86 40.9819C219.229 41.1469 219.628 41.2342 220.056 41.2342C220.581 41.2342 221.028 41.1275 221.417 40.9043C221.806 40.6811 222.137 40.3802 222.4 39.992L221.466 39.041C221.233 39.2836 221.019 39.4583 220.805 39.5651C220.591 39.6718 220.348 39.73 220.075 39.73C219.715 39.73 219.404 39.6233 219.161 39.4001C218.918 39.1769 218.753 38.8566 218.675 38.4296H222.438C222.575 38.4296 222.682 38.3326 222.691 38.187C222.691 38.187 222.691 38.1773 222.691 38.1676C222.691 38.09 222.691 38.0026 222.691 37.9347L222.701 37.9056ZM220.639 37.2263H218.665C218.733 36.7993 218.869 36.4499 219.074 36.1976C219.288 35.9453 219.56 35.8094 219.9 35.8094C220.241 35.8094 220.523 35.9356 220.727 36.1976C220.844 36.3432 220.941 36.5179 221.009 36.7216C221.087 36.9643 220.892 37.2263 220.639 37.2263Z" fill="white"/>
<path d="M225.657 35.761V34.7323C225.657 34.5576 225.521 34.4218 225.346 34.4218H224.023V41.0693H225.404C225.541 41.0693 225.657 40.9529 225.657 40.817V38.6141C225.657 37.8086 225.813 37.2166 226.124 36.8382C226.435 36.4597 226.863 36.2656 227.408 36.2656H227.495V34.2956C227.009 34.2665 226.62 34.3927 226.338 34.6644C226.056 34.9361 225.823 35.3049 225.667 35.7513L225.657 35.761Z" fill="white"/>
<path d="M235.062 41.0693H236.356C236.541 41.0693 236.696 40.914 236.696 40.7199V34.7711C236.696 34.577 236.55 34.4218 236.356 34.4218H235.062V41.0693Z" fill="white"/>
<path d="M235.016 33.6939H236.397C236.581 33.6939 236.737 33.5386 236.737 33.3445V32.3644C236.737 32.1703 236.591 32.015 236.397 32.015H235.016V33.6939Z" fill="white"/>
<path d="M241.795 39.4001C241.591 39.5263 241.357 39.5942 241.085 39.5942C240.861 39.5942 240.667 39.5457 240.482 39.4487C240.307 39.3516 240.151 39.2255 240.025 39.0605C239.898 38.8955 239.801 38.7014 239.733 38.4782C239.665 38.255 239.636 38.0124 239.636 37.7601V37.731C239.636 37.4787 239.665 37.2457 239.733 37.0323C239.801 36.809 239.898 36.6247 240.025 36.4597C240.151 36.2947 240.297 36.1686 240.463 36.0715C240.628 35.9745 240.822 35.9259 241.027 35.9259C241.318 35.9259 241.561 35.9939 241.766 36.12C241.902 36.2074 242.028 36.3238 242.164 36.45C242.262 36.547 242.427 36.547 242.514 36.45L243.341 35.4213C243.069 35.072 242.758 34.8002 242.398 34.6061C242.038 34.412 241.591 34.3053 241.046 34.3053C240.599 34.3053 240.2 34.3926 239.83 34.577C239.461 34.7614 239.15 35.004 238.877 35.3243C238.615 35.6348 238.401 36.0036 238.255 36.4306C238.109 36.8479 238.031 37.2943 238.031 37.7698V37.7989C238.031 38.2744 238.109 38.7111 238.255 39.1284C238.401 39.5457 238.615 39.9048 238.877 40.2153C239.14 40.5259 239.461 40.7685 239.83 40.9529C240.2 41.1372 240.599 41.2246 241.027 41.2246C241.6 41.2246 242.067 41.1081 242.417 40.8849C242.777 40.6617 243.088 40.3706 243.37 40.0115L242.417 38.8955C242.213 39.109 242.019 39.2837 241.814 39.4098L241.795 39.4001Z" fill="white"/>
<path d="M249.863 37.9056C249.863 37.4301 249.805 36.9837 249.698 36.547C249.591 36.1103 249.416 35.7318 249.182 35.3921C248.949 35.0525 248.657 34.7905 248.307 34.5964C247.957 34.4023 247.539 34.2955 247.062 34.2955C246.644 34.2955 246.255 34.3829 245.905 34.5673C245.555 34.7516 245.263 34.9943 245.01 35.3145C244.758 35.625 244.563 35.9938 244.427 36.4208C244.291 36.8381 244.223 37.2845 244.223 37.76V37.7891C244.223 38.3035 244.3 38.7693 244.446 39.1866C244.592 39.6039 244.806 39.9629 245.078 40.2735C245.351 40.584 245.662 40.8169 246.032 40.9819C246.401 41.1469 246.8 41.2342 247.228 41.2342C247.753 41.2342 248.2 41.1275 248.589 40.9043C248.978 40.6811 249.309 40.3802 249.571 39.992L248.638 39.041C248.404 39.2836 248.19 39.4583 247.977 39.5651C247.763 39.6718 247.519 39.73 247.247 39.73C246.887 39.73 246.576 39.6233 246.333 39.4001C246.09 39.1769 245.925 38.8566 245.847 38.4296H249.61C249.746 38.4296 249.853 38.3326 249.863 38.187C249.863 38.187 249.863 38.1773 249.863 38.1676C249.863 38.09 249.863 38.0026 249.863 37.9347V37.9056ZM247.792 37.2263H245.818C245.886 36.7993 246.022 36.4499 246.226 36.1976C246.44 35.9453 246.712 35.8094 247.053 35.8094C247.393 35.8094 247.675 35.9356 247.879 36.1976C247.996 36.3432 248.093 36.5179 248.161 36.7216C248.239 36.9643 248.045 37.2263 247.792 37.2263Z" fill="white"/>
<path d="M275.742 37.9056C275.742 37.4301 275.684 36.9837 275.577 36.547C275.47 36.1103 275.295 35.7318 275.061 35.3921C274.828 35.0525 274.536 34.7905 274.186 34.5964C273.836 34.4023 273.418 34.2955 272.941 34.2955C272.523 34.2955 272.134 34.3829 271.784 34.5673C271.434 34.7516 271.142 34.9943 270.889 35.3145C270.636 35.625 270.442 35.9938 270.306 36.4208C270.17 36.8381 270.102 37.2845 270.102 37.76V37.7891C270.102 38.3035 270.179 38.7693 270.325 39.1866C270.471 39.6039 270.685 39.9629 270.957 40.2735C271.23 40.584 271.541 40.8169 271.91 40.9819C272.28 41.1469 272.679 41.2342 273.107 41.2342C273.632 41.2342 274.079 41.1275 274.468 40.9043C274.857 40.6811 275.188 40.3802 275.45 39.992L274.517 39.041C274.283 39.2836 274.069 39.4583 273.855 39.5651C273.641 39.6718 273.398 39.73 273.126 39.73C272.766 39.73 272.455 39.6233 272.212 39.4001C271.969 39.1769 271.803 38.8566 271.726 38.4296H275.489C275.625 38.4296 275.732 38.3326 275.742 38.187C275.742 38.187 275.742 38.1773 275.742 38.1676C275.742 38.09 275.742 38.0026 275.742 37.9347V37.9056ZM273.671 37.2263H271.696C271.765 36.7993 271.901 36.4499 272.105 36.1976C272.319 35.9453 272.591 35.8094 272.932 35.8094C273.272 35.8094 273.554 35.9356 273.758 36.1976C273.875 36.3432 273.972 36.5179 274.04 36.7216C274.118 36.9643 273.924 37.2263 273.671 37.2263Z" fill="white"/>
<path d="M280.381 34.2956C280.177 34.2956 279.992 34.3247 279.826 34.3829C279.661 34.4412 279.515 34.5188 279.379 34.6158C279.243 34.7129 279.116 34.8293 279.009 34.9555C278.903 35.0817 278.796 35.2175 278.708 35.3631V34.7129C278.708 34.5479 278.582 34.412 278.416 34.412H277.074V41.0596H278.416C278.582 41.0596 278.708 40.9237 278.708 40.7588V37.3622C278.708 36.9158 278.796 36.5761 278.98 36.3529C279.165 36.1297 279.408 36.0133 279.729 36.0133C280.05 36.0133 280.283 36.1297 280.459 36.3529C280.634 36.5761 280.711 36.9158 280.711 37.3622V41.0596H282.053C282.219 41.0596 282.345 40.9237 282.345 40.7588V36.7605C282.345 35.9939 282.18 35.3922 281.839 34.9458C281.499 34.5091 281.023 34.2859 280.4 34.2859L280.381 34.2956Z" fill="white"/>
<path d="M287.365 39.4001C287.161 39.5263 286.928 39.5942 286.655 39.5942C286.432 39.5942 286.237 39.5457 286.052 39.4487C285.877 39.3516 285.722 39.2255 285.595 39.0605C285.469 38.8955 285.372 38.7014 285.303 38.4782C285.235 38.255 285.206 38.0124 285.206 37.7601V37.731C285.206 37.4787 285.235 37.2457 285.303 37.0323C285.372 36.809 285.469 36.6247 285.595 36.4597C285.722 36.2947 285.867 36.1686 286.033 36.0715C286.198 35.9745 286.393 35.9259 286.597 35.9259C286.889 35.9259 287.132 35.9939 287.336 36.12C287.472 36.2074 287.599 36.3238 287.735 36.45C287.832 36.547 287.997 36.547 288.085 36.45L288.911 35.4213C288.639 35.072 288.328 34.8002 287.968 34.6061C287.608 34.412 287.161 34.3053 286.616 34.3053C286.169 34.3053 285.77 34.3926 285.401 34.577C285.031 34.7614 284.72 35.004 284.448 35.3243C284.185 35.6348 283.971 36.0036 283.825 36.4306C283.679 36.8479 283.602 37.2943 283.602 37.7698V37.7989C283.602 38.2744 283.679 38.7111 283.825 39.1284C283.971 39.5457 284.185 39.9048 284.448 40.2153C284.71 40.5259 285.031 40.7685 285.401 40.9529C285.77 41.1372 286.169 41.2246 286.597 41.2246C287.171 41.2246 287.637 41.1081 287.988 40.8849C288.347 40.6617 288.659 40.3706 288.941 40.0115L287.988 38.8955C287.783 39.109 287.589 39.2837 287.385 39.4098L287.365 39.4001Z" fill="white"/>
<path d="M248.808 11.1214C252.338 11.1214 254.176 9.33573 254.176 7.21046C254.176 5.08518 252.406 3.29956 248.808 3.29956C245.209 3.29956 243.449 5.16282 243.449 7.21046C243.449 9.2581 245.287 11.1214 248.808 11.1214ZM248.808 5.38602C250.782 5.38602 251.589 6.48262 251.589 7.20075C251.589 7.87036 250.782 8.91844 248.837 8.91844C246.892 8.91844 246.085 7.87036 246.085 7.20075C246.085 6.48262 246.863 5.38602 248.808 5.38602Z" fill="white"/>
<path d="M252.512 17.798H257.17V19.4963H259.806V4.4544C259.806 4.00799 259.455 3.64893 259.018 3.64893H257.17V15.5078H252.512V17.798Z" fill="white"/>
<path d="M246.473 18.1862H249.225V14.6247C250.606 14.6247 254.817 14.3239 256.499 13.9842V11.5775C255.517 11.791 250.839 12.1889 248.641 12.1889H241.805V14.6538H246.463V18.1862H246.473Z" fill="white"/>
<path d="M247.912 19.0111H245.141V24.1739H260.273V21.7575H247.912V19.0111Z" fill="white"/>
<path d="M238.332 3.64893H236.484V24.6494H239.11V4.4544C239.11 4.00799 238.77 3.64893 238.332 3.64893Z" fill="white"/>
<path d="M230.787 15.1487C230.748 15.1002 230.719 15.0613 230.69 15.0031C229.387 13.0428 229.085 10.2285 229.085 9.08339V8.20028H233.461V5.79358H221.918V8.20028H226.294V9.08339C226.294 10.277 225.895 12.8875 224.796 14.8575C223.882 16.4685 222.511 17.8271 220.916 18.9334C220.76 19.0402 220.605 19.1372 220.449 19.244L222.637 21.0587C223.746 20.2726 224.631 19.5836 225.555 18.5355C226.615 17.2934 227.276 16.2453 227.733 15.0516C228.22 16.0609 228.803 17.0507 229.688 18.0794C230.826 19.3895 231.847 20.0009 231.847 20.0009C231.876 20.03 231.925 20.0494 231.954 20.0591C232.217 20.2241 232.411 20.3406 232.528 20.4085L234.23 18.3414C233.597 17.963 232.022 16.8567 230.797 15.139L230.787 15.1487Z" fill="white"/>
<path d="M280.987 4.4544C280.987 4.00799 280.628 3.64893 280.19 3.64893H278.449V19.079H280.987V4.4544Z" fill="white"/>
<path d="M274.168 18.5937H276.706V4.8037C276.706 4.35729 276.346 4.00793 275.899 4.00793H274.168V8.11292H271.25V10.6458H274.168V18.584V18.5937Z" fill="white"/>
<path d="M269.355 14.2268C270.211 15.1487 271.009 15.828 271.563 16.0706L272.681 14.712L273.197 14.1006C273.07 14.0521 272.924 13.9551 272.749 13.8386C272.711 13.761 272.642 13.693 272.545 13.6348C272.545 13.6348 271.563 12.907 270.61 11.7036C270.571 11.6454 270.532 11.6066 270.493 11.5484C269.56 10.3741 269.161 7.04549 269.161 7.04549C269.112 6.60879 269.054 5.90037 269.054 5.45396V5.02697C269.054 4.58056 268.714 4.2312 268.256 4.2312H266.263V6.25943C266.263 8.66614 265.738 10.1994 264.853 11.626C264.824 11.6939 264.785 11.7522 264.746 11.8007C263.851 13.1787 262.48 14.2462 262.48 14.2462C262.412 14.2947 262.363 14.3432 262.314 14.4112C262.149 14.5276 262.003 14.6344 261.848 14.7217L263.841 16.4976C264.473 16.09 265.096 15.5466 265.981 14.5179C266.72 13.6639 267.459 12.4024 267.663 11.888C267.906 12.4412 268.665 13.4893 269.346 14.2268H269.355Z" fill="white"/>
<path d="M268.821 17.6136H266.195V24.1739H281.434V21.7575H268.821V17.6136Z" fill="white"/>
<path d="M300.213 3.64893H298.375V10.9564H295.156V13.5184H298.375V24.6591H301.001V4.4544C301.001 4.00799 300.641 3.64893 300.213 3.64893Z" fill="white"/>
<path d="M288.027 17.9047C287.619 17.9047 287.356 17.9047 287.317 17.9047V14.1394H294.047V11.6065H287.317V8.21969H294.339V5.71594H284.691V20.3891C284.915 20.3891 289.359 20.4182 291.907 20.2532C293.473 20.1465 294.971 19.9427 296.177 19.7971V17.3807C295.029 17.5263 293.249 17.7204 291.693 17.8174C290.254 17.895 288.834 17.9144 288.027 17.9144V17.9047Z" fill="white"/>
<path d="M182.966 12.15C184.299 12.8681 186.146 13.266 188.432 13.266C190.912 13.266 192.857 12.7905 194.179 12.0044C195.599 11.1504 196.329 9.92765 196.329 8.5205C196.329 6.91927 195.376 5.58976 193.576 4.73577C192.312 4.12438 190.562 3.77502 188.432 3.77502C186.156 3.77502 184.328 4.17291 182.996 4.87163C181.371 5.73532 180.516 7.02602 180.516 8.5205C180.516 10.015 181.371 11.2863 182.966 12.15ZM188.422 5.96823C191.447 5.96823 193.45 7.06483 193.45 8.56903C193.45 10.0732 191.379 11.0728 188.422 11.0728C185.466 11.0728 183.297 10.0053 183.297 8.5205C183.297 7.03572 185.32 5.96823 188.422 5.96823Z" fill="white"/>
<path d="M178.426 17.7591H183.434V24.4067H185.292C185.72 24.4067 186.079 24.0573 186.079 23.6206V17.7591H190.922V24.6493H192.751C193.198 24.6493 193.548 24.2902 193.548 23.8632V17.7591H197.604C198.061 17.7591 198.411 17.3904 198.411 16.9537V15.333H178.426V17.7688V17.7591Z" fill="white"/>
<path d="M210.792 12.7905H217.104V10.6264H204.548V9.41338H215.985C216.413 9.41338 216.763 9.04461 216.763 8.60791V7.40456H204.548V6.18179H216.043C216.481 6.18179 216.841 5.82273 216.841 5.39573V4.0177H201.816V12.8002H207.816V14.3529H199.316V16.6529H218.514C218.951 16.6529 219.321 16.2841 219.321 15.8474V14.3529H210.802V12.8002L210.792 12.7905Z" fill="white"/>
<path d="M209.314 17.6331C204.043 17.6331 201.242 19.0887 201.242 21.2431C201.242 23.3975 204.131 24.9308 209.314 24.9308C214.497 24.9308 217.405 23.4848 217.405 21.3305C217.405 19.1761 214.517 17.6331 209.314 17.6331ZM209.314 22.7861C206.377 22.7861 204.471 22.1456 204.471 21.2237C204.471 20.2436 206.406 19.836 209.333 19.836C212.261 19.836 214.167 20.3212 214.167 21.2625C214.167 22.2039 212.193 22.7861 209.304 22.7861H209.314Z" fill="white"/>
<path d="M90.5487 8.63691C90.7432 7.49178 90.9571 5.47326 90.9571 5.47326C91.0057 5.03655 90.6751 4.67749 90.2375 4.67749H75.8736V7.0842H87.991C87.991 7.16183 87.9715 7.23947 87.9715 7.3171C87.7867 9.02509 87.4172 10.8398 87.1254 12.1208H73.6562V14.5372H81.8739V18.0114H75.9319V20.4472H88.5161V24.9307H91.1613V18.8169C91.1613 18.3802 90.8015 18.0114 90.3639 18.0114H84.6358V14.5372H93.6607V12.1208H89.8387C90.0819 11.1504 90.2472 10.2381 90.5487 8.63691Z" fill="white"/>
<path d="M70.4108 4.73571C70.4108 4.29901 70.051 3.93994 69.6037 3.93994H67.7656V19.3312H70.4108V12.4605H73.2311V9.93729H70.4108V4.74541V4.73571Z" fill="white"/>
<path d="M65.3411 13.955C65.3411 11.9267 63.1821 10.2576 59.6616 10.2576C56.1412 10.2576 53.9336 11.9073 53.9336 13.955C53.9336 15.857 56.2968 17.6135 59.6325 17.6135C63.1529 17.6135 65.3411 15.8959 65.3411 13.955ZM56.8122 13.9259C56.8122 12.9748 57.9306 12.4023 59.6811 12.4023C61.4316 12.4023 62.5014 12.9748 62.5014 13.9259C62.5014 14.8769 61.4413 15.4592 59.6811 15.4592C57.9209 15.4592 56.8122 14.8672 56.8122 13.9259Z" fill="white"/>
<path d="M70.3009 22.0485H59.088V18.6326H56.2969V24.4649H71.0789V22.8443C71.0789 22.4076 70.7288 22.0582 70.2912 22.0582L70.3009 22.0485Z" fill="white"/>
<path d="M66.0036 7.92852C66.0036 7.49182 65.6341 7.14246 65.1964 7.14246H53.293V9.35507H66.0133V7.92852H66.0036Z" fill="white"/>
<path d="M62.9799 4.5902C62.9799 4.1535 62.6103 3.79443 62.1727 3.79443H56.2891V5.98764H62.9702V4.58049L62.9799 4.5902Z" fill="white"/>
<path d="M96.2206 11.4415L97.2903 12.8001C98.3698 12.5769 100.072 12.0432 101.686 11.0533C103.048 10.2187 104.137 9.20946 104.565 8.41369C105.002 9.20946 106.111 10.209 107.472 11.0533C107.55 11.0921 107.618 11.1406 107.686 11.1795C109.233 12.1014 110.847 12.5866 111.878 12.8098L113.434 10.8592C112.345 10.6263 110.264 9.88877 108.727 8.8601C107.025 7.73438 106.13 6.21078 106.13 4.68718V4.29901C106.13 4.08551 105.78 3.90112 105.343 3.90112H103.009V4.68718C103.009 6.22049 102.143 7.73438 100.431 8.8601C98.8852 9.88877 96.4831 10.5875 96.4831 10.5875C96.415 10.6069 96.3567 10.6457 96.3081 10.6651C96.0941 10.7234 95.8996 10.7719 95.7148 10.8107L96.2011 11.4415H96.2108H96.2206Z" fill="white"/>
<path d="M111.926 22.0485H99.8478V18.4675H97.0859V24.4649H112.724V22.8442C112.724 22.4075 112.374 22.0582 111.936 22.0582L111.926 22.0485Z" fill="white"/>
<path d="M94.5664 16.352H103.406V20.4764H106.12V16.352H113.773C114.211 16.352 114.571 15.9832 114.571 15.5562V13.9355H94.5761V16.352H94.5664Z" fill="white"/>
<path d="M128.659 6.60864H116.629V8.73392H128.659V6.60864Z" fill="white"/>
<path d="M125.608 4.49309C125.608 4.05639 125.248 3.70703 124.811 3.70703H119.695V5.80319H125.608V4.49309Z" fill="white"/>
<path d="M133.017 22.0194H121.551V19.5156H118.73V24.4649H133.814V22.8151C133.814 22.3784 133.454 22.0194 133.017 22.0194Z" fill="white"/>
<path d="M129.808 17.827V15.6532C128.126 15.8473 124.877 16.1967 124.197 16.1967V15.071C126.589 14.741 128.194 13.6444 128.194 12.2567C128.194 10.5875 125.898 9.34534 122.718 9.34534C119.538 9.34534 117.224 10.6166 117.224 12.2567C117.224 13.5862 118.692 14.6731 120.929 15.0224C121.055 15.0321 121.182 15.0613 121.318 15.071V16.2646H115.609V18.4675H120.083C123.487 18.4675 128.019 18.0308 129.798 17.827H129.808ZM120.034 12.2664C120.034 11.5774 121.376 11.2086 122.718 11.2086C124.06 11.2086 125.402 11.5774 125.402 12.2664C125.402 12.9554 124.012 13.3145 122.689 13.3145C121.367 13.3145 120.044 12.9651 120.044 12.2664H120.034Z" fill="white"/>
<path d="M133.145 4.73571C133.145 4.29901 132.795 3.93994 132.348 3.93994H130.5V19.8552H133.135V13.2853H135.139C135.576 13.2853 135.936 12.9263 135.936 12.4993V10.7816H133.145V4.73571Z" fill="white"/>
<path d="M154.139 4.73571C154.139 4.29901 153.78 3.93994 153.342 3.93994H151.504V24.9404H154.149V14.6925H156.162C156.6 14.6925 156.96 14.3334 156.96 13.8967V12.0626H154.149V4.74541L154.139 4.73571Z" fill="white"/>
<path d="M146.381 15.4398C146.361 15.3912 146.313 15.3427 146.283 15.2942C144.98 13.3242 144.737 10.1605 144.737 10.1605C144.708 9.73353 144.669 9.17067 144.669 8.93777V8.49136H149.065V6.87072C149.065 6.43402 148.705 6.07495 148.267 6.07495H137.521V8.48166H141.888V9.36476C141.888 10.5584 141.499 13.1592 140.39 15.1389C139.476 16.7499 138.114 18.0988 136.51 19.2245C136.354 19.3312 136.208 19.4283 136.043 19.535L138.231 21.3498C139.349 20.5637 140.225 19.8747 141.139 18.8169C142.199 17.565 142.86 16.5169 143.327 15.333C143.804 16.3423 144.397 17.3321 145.282 18.3705C146.42 19.6903 147.431 20.3017 147.431 20.3017C147.47 20.3211 147.499 20.3308 147.557 20.3502C147.801 20.5152 147.995 20.6413 148.121 20.6996L149.823 18.6228C149.182 18.2443 147.616 17.1477 146.39 15.43L146.381 15.4398Z" fill="white"/>
<path d="M164.974 11.4027C168.494 11.4027 170.322 9.6171 170.322 7.49183C170.322 5.36655 168.553 3.58093 164.974 3.58093C161.395 3.58093 159.605 5.44419 159.605 7.49183C159.605 9.53947 161.444 11.4027 164.974 11.4027ZM164.974 5.67709C166.938 5.67709 167.745 6.7834 167.745 7.49183C167.745 8.16144 166.938 9.20952 164.993 9.20952C163.048 9.20952 162.241 8.16144 162.241 7.49183C162.241 6.7834 163.009 5.67709 164.974 5.67709Z" fill="white"/>
<path d="M168.672 18.089H173.33V19.7776H175.956V4.73571C175.956 4.29901 175.596 3.93994 175.178 3.93994H173.33V15.7988H168.672V18.089Z" fill="white"/>
<path d="M175.622 22.0485H164.059V19.3119H161.297V24.465H176.419V22.8443C176.419 22.4076 176.059 22.0583 175.622 22.0583V22.0485Z" fill="white"/>
<path d="M162.621 18.4676H165.364V14.9061C166.764 14.9061 170.956 14.5955 172.648 14.2656V11.8589C171.665 12.0821 166.988 12.48 164.761 12.48H157.953V14.9449H162.611V18.4773L162.621 18.4676Z" fill="white"/>
<path d="M42.0885 29.2202C42.8957 28.7544 43.6056 28.1042 44.228 27.3666C44.9379 26.5224 45.57 25.5616 45.9396 24.4747C46.4064 23.0385 46.455 21.379 46.1146 19.9136C45.7937 18.5162 44.9865 17.4099 43.8779 16.6529C42.8276 15.9348 41.4272 15.5854 40.2213 16.0804C39.9003 16.2065 39.5697 16.4103 39.2974 16.6529C38.6944 17.1867 38.286 17.8757 37.9651 18.652C36.7883 21.5051 37.7608 24.0283 39.1126 26.5612C39.2877 26.9008 40.9215 29.8801 41.1354 29.7733C41.4466 29.6278 41.787 29.3949 42.0885 29.2202Z" fill="url(#paint0_radial_1637_7764)"/>
<path d="M9.44308 36.0035C9.51115 36.9351 9.77373 37.8571 10.1433 38.7499C10.5809 39.7591 11.1547 40.7684 11.9716 41.5836C13.0511 42.6511 14.5196 43.4371 15.988 43.7962C17.3884 44.1359 18.7499 43.9127 19.917 43.2625C21.0256 42.6511 21.9787 41.5545 22.0759 40.2541C22.1051 39.9144 22.0759 39.5262 21.9787 39.1769C21.7647 38.3908 21.3368 37.7212 20.7825 37.0807C18.7499 34.7322 16.0464 34.4702 13.1678 34.5381C12.7885 34.5381 9.375 34.6546 9.375 34.8972C9.375 35.2466 9.4139 35.6445 9.44308 36.0035Z" fill="url(#paint1_radial_1637_7764)"/>
<path d="M19.5379 4.69696C18.6821 4.28938 17.7388 4.04676 16.776 3.93031C15.6673 3.79445 14.5003 3.79445 13.3917 4.08558C11.9135 4.47376 10.513 5.33746 9.47247 6.40495C8.49024 7.43362 8.02344 8.7049 8.02344 10.015C8.02344 11.3251 8.52914 12.6255 9.62807 13.3533C9.91982 13.5474 10.2796 13.7124 10.6298 13.8094C11.4272 14.0132 12.2344 13.9841 13.0707 13.8289C16.1244 13.266 17.6804 11.0922 19.0225 8.60786C19.2072 8.27791 20.7633 5.31805 20.559 5.19189C20.2478 5.00751 19.8783 4.86194 19.5573 4.69696H19.5379Z" fill="url(#paint2_radial_1637_7764)"/>
<path d="M26.8793 12.2276C28.3478 13.6251 30.0594 15.1778 31.946 15.7795C33.6674 16.3326 35.8458 16.0027 37.1684 14.6635C39.5024 12.3053 39.6288 9.70449 38.6563 7.26867C37.6644 4.78433 35.554 2.91137 33.2589 1.84388C30.3414 0.485254 27.4433 0.116485 24.3313 0.00973601C20.9762 -0.097013 17.4363 0.698752 14.4312 2.29028C12.4668 3.32866 10.6093 4.96871 9.17969 6.73492C10.0258 5.68684 12.282 5.13369 13.4587 4.90078C16.0164 4.39615 18.7783 4.67758 21.1415 6.69611C23.1643 8.41379 24.7398 10.1897 26.6556 12.0141C26.7334 12.0821 26.8112 12.1597 26.8793 12.2276Z" fill="url(#paint3_radial_1637_7764)"/>
<path d="M12.2617 25.8916C12.7188 23.9216 13.205 21.6604 12.7674 19.7389C12.3784 17.9727 10.9877 16.2647 9.15939 15.8086C5.9404 14.9838 3.62584 16.2065 2.01148 18.2736C0.367946 20.3697 -0.186381 23.1355 0.0470199 25.6587C0.348496 28.8514 1.48633 31.5396 2.98398 34.2762C4.58862 37.2264 7.06851 39.866 9.95685 41.6516C11.8532 42.8258 14.2067 43.5828 16.4629 43.9224C15.1306 43.7186 13.5065 42.0592 12.7188 41.1567C10.9974 39.2158 9.84015 36.6829 10.3847 33.6454C10.8516 31.0252 11.5907 28.7932 12.1936 26.2021C12.2131 26.0954 12.2422 25.9983 12.2617 25.8916Z" fill="url(#paint4_linear_1637_7764)"/>
<path d="M31.7498 31.2678C29.7854 31.7627 27.5486 32.3547 26.0315 33.626C24.6408 34.7808 23.7461 36.7896 24.174 38.6141C24.9229 41.8456 27.0526 43.3498 29.6298 43.835C32.2653 44.3397 34.9786 43.5633 37.1181 42.2047C39.8314 40.4773 41.6986 38.2453 43.4588 35.6833C45.3649 32.9078 46.5805 29.5016 46.8528 26.1147C47.0279 23.9021 46.6389 21.4663 45.9192 19.3119C46.3471 20.5832 45.5983 22.7764 45.1607 23.9021C44.2076 26.3185 42.4766 28.4923 39.5202 29.3948C36.9819 30.1712 34.6382 30.5399 32.061 31.1804C31.9541 31.1998 31.8568 31.229 31.7498 31.2581V31.2678Z" fill="url(#paint5_linear_1637_7764)"/>
</g>
<defs>
<radialGradient id="paint0_radial_1637_7764" cx="0" cy="0" r="1" gradientTransform="matrix(-5.05067 12.5437 -12.5703 -5.03997 37.7557 20.9422)" gradientUnits="userSpaceOnUse">
<stop stop-color="#E8E8E8"/>
<stop offset="0.57" stop-color="#777777"/>
<stop offset="0.78" stop-color="#5B5B5B"/>
<stop offset="1" stop-color="#444444"/>
</radialGradient>
<radialGradient id="paint1_radial_1637_7764" cx="0" cy="0" r="1" gradientTransform="matrix(-8.97986 -10.1605 10.1821 -8.96084 22.6825 38.6014)" gradientUnits="userSpaceOnUse">
<stop stop-color="#E8E8E8"/>
<stop offset="0.57" stop-color="#777777"/>
<stop offset="0.78" stop-color="#5B5B5B"/>
<stop offset="1" stop-color="#444444"/>
</radialGradient>
<radialGradient id="paint2_radial_1637_7764" cx="0" cy="0" r="1" gradientTransform="matrix(13.324 -2.59889 2.60441 13.2958 8.89219 15.3809)" gradientUnits="userSpaceOnUse">
<stop stop-color="#E8E8E8"/>
<stop offset="0.57" stop-color="#767676"/>
<stop offset="0.78" stop-color="#5A5A5A"/>
<stop offset="1" stop-color="#434343"/>
</radialGradient>
<radialGradient id="paint3_radial_1637_7764" cx="0" cy="0" r="1" gradientTransform="matrix(37.3092 -7.27728 7.29272 37.2301 8.4399 20.0076)" gradientUnits="userSpaceOnUse">
<stop stop-color="#E3E3E3"/>
<stop offset="0.64" stop-color="#A1A1A1"/>
<stop offset="0.88" stop-color="#646464"/>
<stop offset="1" stop-color="#4D4D4D"/>
</radialGradient>
<linearGradient id="paint4_linear_1637_7764" x1="13.2835" y1="41.0498" x2="6.73273" y2="24.2977" gradientUnits="userSpaceOnUse">
<stop stop-color="#4D4D4D"/>
<stop offset="1" stop-color="#BFBFBF"/>
</linearGradient>
<linearGradient id="paint5_linear_1637_7764" x1="22.5182" y1="32.4522" x2="51.5355" y2="31.0608" gradientUnits="userSpaceOnUse">
<stop stop-color="#D4D4D4"/>
<stop offset="1" stop-color="#4D4D4D"/>
</linearGradient>
<clipPath id="clip0_1637_7764">
<rect width="301" height="44" fill="white"/>
</clipPath>
</defs>
</svg>
