<svg width="136" height="44" viewBox="0 0 136 44" fill="none" xmlns="http://www.w3.org/2000/svg">
<g clip-path="url(#clip0_1637_9854)">
<mask id="mask0_1637_9854" style="mask-type:luminance" maskUnits="userSpaceOnUse" x="0" y="0" width="136" height="44">
<path d="M136 0H0V44H136V0Z" fill="white"/>
</mask>
<g mask="url(#mask0_1637_9854)">
<path d="M75.5279 27.8601C67.832 27.8601 61.5703 21.6108 61.5703 13.93C61.5703 6.24937 67.832 0 75.5279 0C80.1236 0 84.4245 2.25885 87.0333 6.04556L82.0491 9.46598C80.5689 7.31903 78.1306 6.03636 75.5279 6.03636C71.1655 6.03636 67.6186 9.57792 67.6186 13.93C67.6186 18.2823 71.1671 21.8237 75.5279 21.8237C78.1321 21.8237 80.5705 20.5426 82.0491 18.3957L87.0318 21.8161C84.423 25.6013 80.1221 27.8617 75.5264 27.8617L75.5279 27.8601Z" fill="white"/>
<path d="M123.614 27.8601C115.918 27.8601 109.656 21.6108 109.656 13.93C109.656 6.24937 115.917 0 123.614 0C128.21 0 132.51 2.25885 135.119 6.04556L130.135 9.46598C128.655 7.31903 126.216 6.03636 123.614 6.03636C119.251 6.03636 115.705 9.57792 115.705 13.93C115.705 18.2823 119.253 21.8237 123.614 21.8237C126.218 21.8237 128.657 20.5426 130.135 18.3957L135.117 21.8161C132.509 25.6013 128.208 27.8617 123.612 27.8617L123.614 27.8601Z" fill="white"/>
<path d="M31.7773 4.94782V6.18145H39.8663V25.8705H41.1039C42.7423 25.8705 44.0705 24.5449 44.0705 22.9098V6.18299H49.1944C50.8312 6.18299 52.161 4.85741 52.161 3.22228V1.98865H34.7424C33.1041 1.98865 31.7773 3.31422 31.7773 4.94935V4.94782Z" fill="white"/>
<path d="M41.1033 26.5265H39.2101V6.83748H31.1211V4.94796C31.1211 2.95422 32.7457 1.33289 34.7434 1.33289H52.8176V3.2224C52.8176 5.21614 51.193 6.83748 49.1954 6.83748H44.7271V22.9115C44.7271 24.9052 43.1025 26.5265 41.1033 26.5265ZM40.5229 25.2163H41.1033C42.3778 25.2163 43.4143 24.1819 43.4143 22.9115V5.52723H49.1954C50.4683 5.52723 51.5048 4.49282 51.5048 3.2224V2.64314H34.7418C33.4689 2.64314 32.4324 3.67755 32.4324 4.94796V5.52723H40.5214V25.2163H40.5229Z" fill="white"/>
<path d="M28.993 21.6777H19.2334C15.4838 21.6777 13.6058 19.1063 13.6058 13.9633C13.6058 11.2662 14.0757 9.2954 15.0124 8.04952C15.9505 6.8067 17.3693 6.18299 19.2687 6.18299H26.0279C27.6663 6.18299 28.9945 4.85741 28.9945 3.22228V1.98865H20.3467C13.0761 1.98865 9.4278 5.93933 9.40625 13.8422V13.948C9.40625 21.8968 13.0408 25.872 20.3128 25.872H26.0295C27.6679 25.872 28.9961 24.5464 28.9961 22.9113V21.6777H28.993Z" fill="white"/>
<path d="M26.0288 26.5267H20.3123C12.6394 26.5267 8.75 22.2956 8.75 13.9483V13.8426C8.77303 5.5412 12.6747 1.33459 20.346 1.33459H29.651V3.22412C29.651 5.21785 28.0265 6.8392 26.0288 6.8392H19.2696C17.5744 6.8392 16.3538 7.36483 15.5384 8.44522C14.6939 9.57157 14.264 11.4289 14.264 13.9651C14.264 18.7157 15.89 21.0236 19.2358 21.0236H29.651V22.9117C29.651 24.9054 28.0265 26.5267 26.0288 26.5267ZM20.346 2.64331C13.4471 2.64331 10.0828 6.30743 10.0613 13.8441V13.9483C10.0613 21.5309 13.4133 25.2165 20.3107 25.2165H26.0273C27.3003 25.2165 28.3367 24.182 28.3367 22.9117V22.3339H19.2328C16.366 22.3339 12.9495 20.8827 12.9495 13.9651C12.9495 11.0994 13.4517 9.03521 14.4866 7.65906C15.5538 6.24613 17.1614 5.52894 19.2681 5.52894H26.0273C27.3003 5.52894 28.3367 4.49453 28.3367 3.22412V2.64485H20.3445L20.346 2.64331Z" fill="white"/>
<path d="M3.62128 1.98865C1.98445 1.98865 0.65625 3.31422 0.65625 4.94935V25.8705H1.89386C3.53222 25.8705 4.86042 24.5449 4.86042 22.9098V1.98865H3.62282H3.62128Z" fill="white"/>
<path d="M1.89326 26.5265H0V4.94949C0 2.95576 1.62455 1.33289 3.62222 1.33289H5.51548V22.9099C5.51548 24.9036 3.89092 26.525 1.89326 26.525V26.5265ZM1.31284 25.2163H1.89326C3.16618 25.2163 4.20263 24.1819 4.20263 22.9115V2.64314H3.62222C2.34929 2.64314 1.31284 3.67755 1.31284 4.94949V25.2163Z" fill="white"/>
<path d="M108.299 13.8675C108.299 16.7241 107.36 19.1653 105.483 21.1851C103.568 23.2768 101.191 24.3235 98.357 24.3235C95.5222 24.3235 93.1272 23.2845 91.209 21.2065C89.3324 19.1974 88.3945 16.7655 88.3945 13.9089C88.3945 11.0524 89.3324 8.6204 91.209 6.61134C93.1404 4.56092 95.5239 3.53723 98.357 3.53723C101.19 3.53723 103.546 4.56245 105.464 6.61134C107.354 8.60661 108.299 11.0264 108.299 13.8675ZM103.963 13.9089C103.963 12.2416 103.45 10.8195 102.423 9.64564C101.355 8.4028 100.001 7.78062 98.357 7.78062C96.7117 7.78062 95.3517 8.39666 94.269 9.62417C93.2402 10.8149 92.7289 12.2431 92.7289 13.9089C92.7289 15.5747 93.2508 16.9708 94.2902 18.1737C95.3853 19.4442 96.7409 20.0816 98.3579 20.0816C99.9748 20.0816 101.343 19.4442 102.424 18.1737C103.453 16.9723 103.963 15.5502 103.963 13.9089Z" fill="white"/>
<path d="M8.87659 36.5646V36.9094H11.1352V42.4079H11.4807C11.9384 42.4079 12.3099 42.0386 12.3099 41.582V36.9094H13.741C14.197 36.9094 14.5686 36.5386 14.5686 36.082V35.7372H9.70266C9.24511 35.7372 8.875 36.108 8.875 36.5646H8.87659Z" fill="white"/>
<path d="M11.4783 42.592H10.9501V37.0935H8.69141V36.5648C8.69141 36.0086 9.1444 35.5549 9.70333 35.5549H14.752V36.0821C14.752 36.6384 14.2975 37.092 13.7401 37.092H12.4918V41.5821C12.4918 42.1384 12.0372 42.592 11.4799 42.592H11.4783ZM11.3171 42.2258H11.4783C11.8346 42.2258 12.1232 41.9361 12.1232 41.5821V36.7258H13.7386C14.0948 36.7258 14.3835 36.4377 14.3835 36.0821V35.9197H9.70174C9.34549 35.9197 9.05688 36.2093 9.05688 36.5633V36.7242H11.3171V42.2242V42.2258Z" fill="white"/>
<path d="M8.09832 41.2388H5.37283C4.32562 41.2388 3.80048 40.5201 3.80048 39.0841C3.80048 38.3302 3.931 37.78 4.19357 37.4322C4.45614 37.0843 4.85229 36.9111 5.38358 36.9111H7.27069C7.72827 36.9111 8.09986 36.5403 8.09986 36.0836V35.7388H5.68454C3.65308 35.7388 2.63505 36.8421 2.62891 39.0504V39.0795C2.62891 41.3001 3.64386 42.4096 5.67531 42.4096H7.27223C7.72981 42.4096 8.10139 42.0387 8.10139 41.5836V41.2388H8.09832Z" fill="white"/>
<path d="M7.26745 42.592H5.67054C3.52854 42.592 2.44141 41.4104 2.44141 39.0781V39.049C2.44755 36.7303 3.53775 35.5549 5.68129 35.5549H8.28088V36.0821C8.28088 36.6384 7.82637 37.092 7.26745 37.092H5.38034C4.90587 37.092 4.56499 37.2376 4.33774 37.541C4.10128 37.8552 3.98151 38.3731 3.98151 39.0827C3.98151 40.4098 4.43601 41.0549 5.36959 41.0549H8.27934V41.5821C8.27934 42.1384 7.82483 42.592 7.26592 42.592H7.26745ZM5.68129 35.9212C3.75426 35.9212 2.81453 36.9449 2.80839 39.049V39.0781C2.80839 41.1959 3.74504 42.2258 5.67054 42.2258H7.26745C7.62369 42.2258 7.91236 41.9361 7.91236 41.5821V41.4212H5.37112C4.57113 41.4212 3.61606 41.0151 3.61606 39.0827C3.61606 38.2812 3.75732 37.705 4.04599 37.3204C4.34388 36.925 4.79225 36.7258 5.38188 36.7258H7.26899C7.62522 36.7258 7.9139 36.4377 7.9139 36.0821V35.9197H5.68282L5.68129 35.9212Z" fill="white"/>
<path d="M1.01276 35.7372C0.555182 35.7372 0.183594 36.108 0.183594 36.5646V42.4079H0.529079C0.986655 42.4079 1.35824 42.0386 1.35824 41.582V35.7372H1.01122H1.01276Z" fill="white"/>
<path d="M0.528208 42.592H0V36.5648C0 36.0086 0.454505 35.5549 1.01188 35.5549H1.54009V41.5821C1.54009 42.1384 1.08713 42.592 0.528208 42.592ZM0.366982 42.2258H0.528208C0.884442 42.2258 1.17311 41.9361 1.17311 41.5821V35.9197H1.01035C0.655653 35.9197 0.365446 36.2093 0.365446 36.5648V42.2258H0.366982Z" fill="white"/>
<path d="M21.2851 40.8236C21.2344 41.3493 21.0271 41.7754 20.6601 42.1002C20.2932 42.4251 19.8202 42.5875 19.2398 42.5875C18.6087 42.5875 18.0959 42.3791 17.6997 41.9638C17.3036 41.547 17.1055 40.9907 17.1055 40.2934C17.1055 39.5961 17.3081 39.0307 17.7135 38.597C18.1188 38.1633 18.6609 37.9457 19.3381 37.9457C19.8831 37.9457 20.3346 38.1081 20.6923 38.4361C21.0502 38.7625 21.2482 39.1717 21.2866 39.662L20.0582 39.7325C20.0168 39.1977 19.7833 38.9295 19.3595 38.9295C18.8375 38.9295 18.5765 39.3555 18.5765 40.2091C18.5765 40.7761 18.6486 41.1363 18.7945 41.2895C18.9404 41.4428 19.1184 41.5194 19.3273 41.5194C19.7342 41.5194 19.9768 41.262 20.0567 40.7471L21.2851 40.8221V40.8236Z" fill="white"/>
<path d="M23.845 37.9473C24.5252 37.9473 25.0549 38.1695 25.4372 38.6139C25.818 39.0583 26.0084 39.6145 26.0084 40.2812C26.0084 40.9478 25.8104 41.4887 25.4143 41.9286C25.0181 42.3684 24.4914 42.5875 23.8358 42.5875C23.1801 42.5875 22.6918 42.3699 22.3095 41.9347C21.9271 41.4995 21.7383 40.9401 21.7383 40.2581C21.7383 39.7846 21.8243 39.3832 21.9962 39.0521C22.1682 38.7211 22.4047 38.4545 22.7056 38.2507C23.0066 38.0469 23.3858 37.9457 23.845 37.9457V37.9473ZM23.8803 38.8069C23.63 38.8069 23.4427 38.9035 23.3168 39.0965C23.1908 39.2897 23.1279 39.6728 23.1279 40.2459C23.1279 40.7715 23.1877 41.1501 23.3091 41.38C23.4288 41.6098 23.6177 41.7248 23.8726 41.7248C24.0952 41.7248 24.2764 41.6266 24.4147 41.4305C24.5528 41.2343 24.6219 40.862 24.6219 40.3118C24.6219 39.7264 24.5605 39.3295 24.4392 39.1211C24.3179 38.9127 24.1321 38.8084 23.8818 38.8084L23.8803 38.8069Z" fill="white"/>
<path d="M33.2174 42.4958H31.9V40.0301C31.9 39.6837 31.8892 39.457 31.8693 39.3528C31.8493 39.2485 31.794 39.1612 31.7081 39.0922C31.6206 39.0233 31.5007 38.988 31.3473 38.988C31.2029 38.988 31.0555 39.0401 30.905 39.1428C30.7545 39.2455 30.6793 39.5413 30.6793 40.0285V42.4943H29.3618V40.0285C29.3618 39.673 29.345 39.4432 29.3127 39.339C29.2805 39.2348 29.219 39.1505 29.1284 39.0861C29.0378 39.0217 28.9242 38.9895 28.786 38.9895C28.5588 38.9895 28.3899 39.0616 28.2793 39.2041C28.1687 39.3466 28.1135 39.6225 28.1135 40.0316V42.4974H26.8359V38.041H28.0735V38.7199C28.2824 38.2049 28.7016 37.9475 29.3311 37.9475C29.9008 37.9475 30.3123 38.2049 30.5657 38.7199C30.8129 38.2049 31.2459 37.9475 31.8616 37.9475C32.1565 37.9475 32.4098 38.0073 32.6217 38.1283C32.8335 38.2493 32.9856 38.4057 33.0777 38.6003C33.1698 38.7949 33.2143 39.129 33.2143 39.601V42.4958H33.2174Z" fill="white"/>
<path d="M34.3008 44.0007V38.041H35.5123V38.6937C35.7365 38.1973 36.128 37.9475 36.6885 37.9475C37.1721 37.9475 37.5668 38.1406 37.8755 38.5283C38.1825 38.9145 38.3376 39.4784 38.3376 40.2155C38.3376 41.0001 38.1825 41.5932 37.8709 41.9916C37.5606 42.3901 37.1553 42.5893 36.6578 42.5893C36.1603 42.5893 35.7948 42.3932 35.5799 42.0024V44.0007H34.3024H34.3008ZM35.5784 40.5465C35.5784 40.8607 35.5968 41.0783 35.6352 41.1994C35.6736 41.3205 35.7549 41.4277 35.8778 41.5227C36.0021 41.6192 36.1357 41.6667 36.28 41.6667C36.4597 41.6667 36.6209 41.5748 36.7622 41.3909C36.9035 41.207 36.9741 40.8025 36.9741 40.1757C36.9741 39.296 36.7407 38.8562 36.2754 38.8562C36.0989 38.8562 35.9376 38.9344 35.7933 39.0907C35.6489 39.247 35.5768 39.5106 35.5768 39.8845V40.5465H35.5784Z" fill="white"/>
<path d="M39.1836 42.4962V36.4736H40.501V42.4962H39.1836Z" fill="white"/>
<path d="M45.5938 40.4883H42.7208C42.7178 40.568 42.7162 40.637 42.7162 40.6952C42.7162 41.0124 42.8007 41.253 42.9696 41.4139C43.1385 41.5764 43.3412 41.656 43.5776 41.656C44.0168 41.656 44.2809 41.4231 44.3684 40.9542L45.5615 41.0431C45.2283 42.0729 44.5526 42.5877 43.5331 42.5877C43.0878 42.5877 42.7101 42.4989 42.4 42.3211C42.0897 42.1433 41.8334 41.8844 41.6307 41.5427C41.4295 41.2009 41.3281 40.7933 41.3281 40.3166C41.3281 39.6087 41.5308 39.0355 41.9362 38.6003C42.3416 38.1651 42.8621 37.9475 43.4994 37.9475C44.0736 37.9475 44.5665 38.1497 44.978 38.5544C45.3895 38.9589 45.5953 39.6041 45.5953 40.4883H45.5938ZM42.7162 39.7251H44.304C44.2625 39.1137 44.0107 38.8072 43.5485 38.8072C43.054 38.8072 42.7761 39.1137 42.7178 39.7251H42.7162Z" fill="white"/>
<path d="M49.9979 38.0391L48.7096 40.1018L50.2143 42.494H48.7127L47.7852 40.9569L46.8716 42.494H45.7461L47.2232 40.0911L45.9503 38.0376H47.4535L48.1645 39.2421L48.8754 38.0376H50.001L49.9979 38.0391Z" fill="white"/>
<path d="M54.8724 37.9473C55.5526 37.9473 56.0823 38.1695 56.4646 38.6139C56.8454 39.0583 57.0358 39.6145 57.0358 40.2812C57.0358 40.9478 56.8378 41.4887 56.4416 41.9286C56.0454 42.3684 55.5203 42.5875 54.8631 42.5875C54.206 42.5875 53.7192 42.3699 53.3368 41.9347C52.9545 41.4995 52.7656 40.9401 52.7656 40.2581C52.7656 39.7846 52.8516 39.3832 53.0236 39.0521C53.1956 38.7211 53.432 38.4545 53.733 38.2507C54.034 38.0469 54.4133 37.9457 54.8724 37.9457V37.9473ZM54.9077 38.8069C54.6573 38.8069 54.47 38.9035 54.3441 39.0965C54.2183 39.2897 54.1553 39.6728 54.1553 40.2459C54.1553 40.7715 54.2152 41.1501 54.3364 41.38C54.4563 41.6098 54.6451 41.7248 54.9 41.7248C55.1227 41.7248 55.3038 41.6266 55.442 41.4305C55.5802 41.2343 55.6494 40.862 55.6494 40.3118C55.6494 39.7264 55.5879 39.3295 55.4665 39.1211C55.3453 38.9127 55.1595 38.8084 54.9092 38.8084L54.9077 38.8069Z" fill="white"/>
<path d="M59.2409 39.063V42.4957H57.9588V39.063H57.4414V38.0394H57.9588C57.965 37.5812 57.9972 37.2455 58.0586 37.0356C58.1185 36.8256 58.2752 36.6387 58.5254 36.4747C58.7757 36.3123 59.1166 36.2295 59.5465 36.2295C59.7231 36.2295 59.9273 36.2464 60.1561 36.2785V37.2931C59.9673 37.2778 59.8106 37.2716 59.6878 37.2716C59.5082 37.2716 59.3884 37.3191 59.33 37.4126C59.2717 37.506 59.2409 37.6593 59.2409 37.8708V38.0378H60.0501V39.0615H59.2409V39.063Z" fill="white"/>
<path d="M66.9491 40.8236C66.8985 41.3493 66.6911 41.7754 66.3242 42.1002C65.9571 42.4251 65.4842 42.5875 64.9038 42.5875C64.2728 42.5875 63.7599 42.3791 63.3638 41.9638C62.9676 41.547 62.7695 40.9907 62.7695 40.2934C62.7695 39.5961 62.9722 39.0307 63.3776 38.597C63.7829 38.1633 64.3234 37.9457 65.0021 37.9457C65.5472 37.9457 65.9986 38.1081 66.3564 38.4361C66.7141 38.7625 66.9122 39.1717 66.9506 39.662L65.7222 39.7325C65.6808 39.1977 65.4474 38.9295 65.0236 38.9295C64.5015 38.9295 64.2405 39.3555 64.2405 40.2091C64.2405 40.7761 64.3127 41.1363 64.4586 41.2895C64.6044 41.4428 64.7825 41.5194 64.9914 41.5194C65.3983 41.5194 65.6409 41.262 65.7207 40.7471L66.9491 40.8221V40.8236Z" fill="white"/>
<path d="M68.9338 42.4959H67.6562V38.0395H68.8632V38.8686C69.0489 38.251 69.3699 37.9414 69.8275 37.9414C69.892 37.9414 69.9718 37.9461 70.067 37.9552V39.2517C69.7983 39.2517 69.5895 39.2931 69.4421 39.3758C69.2931 39.4586 69.1718 39.6057 69.0782 39.8202C68.983 40.0333 68.9369 40.3214 68.9369 40.683V42.4959H68.9338Z" fill="white"/>
<path d="M74.8101 40.4883H71.9372C71.9341 40.568 71.9326 40.637 71.9326 40.6952C71.9326 41.0124 72.0171 41.253 72.1859 41.4139C72.3549 41.5764 72.5575 41.656 72.794 41.656C73.2331 41.656 73.4973 41.4231 73.5848 40.9542L74.7779 41.0431C74.4447 42.0729 73.769 42.5877 72.7479 42.5877C72.3027 42.5877 71.925 42.4989 71.6147 42.3211C71.3031 42.1433 71.0481 41.8844 70.8454 41.5427C70.6443 41.2009 70.543 40.7933 70.543 40.3166C70.543 39.6087 70.7456 39.0355 71.151 38.6003C71.5564 38.1651 72.0769 37.9475 72.7141 37.9475C73.2884 37.9475 73.7814 38.1497 74.1928 38.5544C74.6043 38.9589 74.8101 39.6041 74.8101 40.4883ZM71.9326 39.7251H73.5187C73.4773 39.1137 73.2254 38.8072 72.7633 38.8072C72.2673 38.8072 71.9909 39.1137 71.9326 39.7251Z" fill="white"/>
<path d="M79.5338 42.4955H78.2562C78.2148 42.3194 78.1949 42.0864 78.1949 41.7983C77.9706 42.1156 77.748 42.327 77.5269 42.4312C77.3042 42.5354 77.0525 42.5875 76.7699 42.5875C76.3522 42.5875 76.0144 42.4741 75.7565 42.2473C75.4985 42.0205 75.3711 41.7171 75.3711 41.3339C75.3711 41.0551 75.4463 40.7976 75.5952 40.5616C75.7457 40.3256 75.9868 40.1417 76.3184 40.0084C76.6501 39.8735 77.2566 39.7755 78.1365 39.7096V39.4536C78.1365 39.0215 77.9199 38.8054 77.4885 38.8054C77.0278 38.8054 76.7699 39.0215 76.7177 39.4536L75.5015 39.3387C75.5814 38.833 75.8209 38.4744 76.2217 38.2629C76.6225 38.0515 77.077 37.9457 77.5837 37.9457C77.8877 37.9457 78.1733 37.981 78.4405 38.0515C78.7092 38.1219 78.918 38.2276 79.0685 38.3687C79.219 38.5097 79.3203 38.6598 79.3741 38.8161C79.4278 38.974 79.4539 39.2483 79.4539 39.6391V41.6604C79.4539 42.0481 79.4801 42.327 79.5338 42.494V42.4955ZM78.1365 40.3608C77.2167 40.4513 76.7576 40.7302 76.7576 41.1946C76.7576 41.3508 76.8068 41.4857 76.9035 41.5976C77.0002 41.7109 77.1384 41.7676 77.318 41.7676C77.5499 41.7676 77.7449 41.6711 77.9016 41.4796C78.0581 41.2864 78.138 41.0489 78.138 40.767V40.3608H78.1365Z" fill="white"/>
<path d="M82.0253 39.0633V40.9466C82.0253 41.1826 82.0607 41.3389 82.1313 41.4186C82.202 41.4983 82.3677 41.5382 82.6288 41.5382C82.7485 41.5382 82.8883 41.532 83.0464 41.5198V42.4944C82.6641 42.5588 82.3877 42.5909 82.2203 42.5909C81.6722 42.5909 81.2837 42.4852 81.0534 42.2753C80.8231 42.0653 80.7079 41.6852 80.7079 41.1351V39.0617H80V38.038H80.7832L80.8891 36.7232L82.0253 36.6343V38.038H82.985V39.0617H82.0253V39.0633Z" fill="white"/>
<path d="M85.0441 36.3507V37.6656H83.7266V36.3507H85.0441ZM85.0441 38.041V42.4974H83.7266V38.041H85.0441Z" fill="white"/>
<path d="M89.6378 38.0394L88.1089 42.4957H87.0848L85.5508 38.0394H86.9204L87.7819 40.8637L88.6629 38.0394H89.6414H89.6378Z" fill="white"/>
<path d="M94.1101 40.4883H91.2364C91.2338 40.568 91.232 40.637 91.232 40.6952C91.232 41.0124 91.3168 41.253 91.4872 41.4139C91.6559 41.5764 91.859 41.656 92.0948 41.656C92.5346 41.656 92.7987 41.4231 92.8861 40.9542L94.0792 41.0431C93.7454 42.0729 93.0698 42.5877 92.0507 42.5877C91.6056 42.5877 91.2276 42.4989 90.9159 42.3211C90.6041 42.1433 90.3489 41.8844 90.1467 41.5427C89.9435 41.2009 89.8438 40.7933 89.8438 40.3166C89.8438 39.6087 90.0469 39.0355 90.4522 38.6003C90.8576 38.1651 91.3777 37.9475 92.0153 37.9475C92.5894 37.9475 93.0821 38.1497 93.4937 38.5544C93.9052 38.9589 94.1101 39.6041 94.1101 40.4883ZM91.232 39.7251H92.8198C92.7783 39.1137 92.5267 38.8072 92.0648 38.8072C91.5702 38.8072 91.2921 39.1137 91.2338 39.7251H91.232Z" fill="white"/>
<path d="M101.001 36.4736V42.4962H99.7843V41.7989C99.484 42.3246 99.0734 42.5881 98.555 42.5881C98.0357 42.5881 97.6736 42.3874 97.3875 41.9859C97.1022 41.5843 96.9609 41.0281 96.9609 40.3154C96.9609 39.6029 97.104 38.9945 97.3875 38.5746C97.6736 38.1563 98.0851 37.9463 98.6256 37.9463C99.1016 37.9463 99.4672 38.1332 99.7233 38.5071V36.4736H101.001ZM99.7233 39.9063C99.7233 39.2059 99.5096 38.8566 99.0848 38.8566C98.5762 38.8566 98.3209 39.35 98.3209 40.3385C98.3209 41.2181 98.5594 41.6579 99.0354 41.6579C99.2182 41.6579 99.3789 41.5782 99.5158 41.4204C99.6544 41.261 99.7216 41.0357 99.7216 40.7415V39.9078L99.7233 39.9063Z" fill="white"/>
<path d="M106.095 40.4883H103.222C103.219 40.568 103.217 40.637 103.217 40.6952C103.217 41.0124 103.302 41.253 103.471 41.4139C103.639 41.5764 103.843 41.656 104.079 41.656C104.518 41.656 104.782 41.4231 104.87 40.9542L106.063 41.0431C105.73 42.0729 105.054 42.5877 104.034 42.5877C103.589 42.5877 103.211 42.4989 102.899 42.3211C102.589 42.1433 102.333 41.8844 102.13 41.5427C101.928 41.2009 101.828 40.7933 101.828 40.3166C101.828 39.6087 102.03 39.0355 102.436 38.6003C102.841 38.1651 103.362 37.9475 103.999 37.9475C104.573 37.9475 105.067 38.1497 105.478 38.5544C105.89 38.9589 106.095 39.6041 106.095 40.4883ZM103.217 39.7251H104.803C104.762 39.1137 104.51 38.8072 104.048 38.8072C103.554 38.8072 103.276 39.1137 103.217 39.7251Z" fill="white"/>
<path d="M110.353 38.0394L108.824 42.4957H107.8L106.266 38.0394H107.635L108.496 40.8637L109.378 38.0394H110.356H110.353Z" fill="white"/>
<path d="M114.821 40.4883H111.948C111.946 40.568 111.944 40.637 111.944 40.6952C111.944 41.0124 112.029 41.253 112.197 41.4139C112.366 41.5764 112.569 41.656 112.805 41.656C113.245 41.656 113.509 41.4231 113.596 40.9542L114.789 41.0431C114.456 42.0729 113.781 42.5877 112.759 42.5877C112.314 42.5877 111.936 42.4989 111.626 42.3211C111.316 42.1433 111.06 41.8844 110.857 41.5427C110.655 41.2009 110.555 40.7933 110.555 40.3166C110.555 39.6087 110.757 39.0355 111.162 38.6003C111.568 38.1651 112.088 37.9475 112.725 37.9475C113.299 37.9475 113.792 38.1497 114.204 38.5544C114.615 38.9589 114.821 39.6041 114.821 40.4883ZM111.944 39.7251H113.53C113.488 39.1137 113.237 38.8072 112.775 38.8072C112.279 38.8072 112.002 39.1137 111.944 39.7251Z" fill="white"/>
<path d="M115.652 42.4962V36.4736H116.97V42.4962H115.652Z" fill="white"/>
<path d="M119.903 37.9473C120.583 37.9473 121.113 38.1695 121.495 38.6139C121.876 39.0583 122.067 39.6145 122.067 40.2812C122.067 40.9478 121.869 41.4887 121.472 41.9286C121.077 42.3684 120.55 42.5875 119.894 42.5875C119.238 42.5875 118.75 42.3699 118.367 41.9347C117.987 41.4995 117.797 40.9401 117.797 40.2581C117.797 39.7846 117.883 39.3832 118.055 39.0521C118.227 38.7211 118.463 38.4545 118.764 38.2507C119.065 38.0469 119.444 37.9457 119.903 37.9457V37.9473ZM119.938 38.8069C119.689 38.8069 119.501 38.9035 119.375 39.0965C119.25 39.2897 119.186 39.6728 119.186 40.2459C119.186 40.7715 119.246 41.1501 119.366 41.38C119.487 41.6098 119.674 41.7248 119.93 41.7248C120.154 41.7248 120.335 41.6266 120.473 41.4305C120.611 41.2343 120.68 40.862 120.68 40.3118C120.68 39.7264 120.618 39.3295 120.497 39.1211C120.376 38.9127 120.19 38.8084 119.94 38.8084L119.938 38.8069Z" fill="white"/>
<path d="M122.898 44.0007V38.041H124.11V38.6937C124.334 38.1973 124.726 37.9475 125.286 37.9475C125.769 37.9475 126.164 38.1406 126.473 38.5283C126.782 38.9145 126.935 39.4784 126.935 40.2155C126.935 41.0001 126.78 41.5932 126.469 41.9916C126.158 42.3901 125.753 42.5893 125.255 42.5893C124.758 42.5893 124.393 42.3932 124.177 42.0024V44.0007H122.9H122.898ZM124.176 40.5465C124.176 40.8607 124.194 41.0783 124.233 41.1994C124.271 41.3205 124.353 41.4277 124.476 41.5227C124.6 41.6192 124.734 41.6667 124.878 41.6667C125.058 41.6667 125.217 41.5748 125.36 41.3909C125.501 41.207 125.572 40.8025 125.572 40.1757C125.572 39.296 125.338 38.8562 124.873 38.8562C124.696 38.8562 124.535 38.9344 124.391 39.0907C124.247 39.247 124.175 39.5106 124.175 39.8845V40.5465H124.176Z" fill="white"/>
<path d="M131.795 40.4883H128.922C128.919 40.568 128.917 40.637 128.917 40.6952C128.917 41.0124 129.001 41.253 129.171 41.4139C129.339 41.5764 129.542 41.656 129.778 41.656C130.218 41.656 130.482 41.4231 130.57 40.9542L131.763 41.0431C131.429 42.0729 130.753 42.5877 129.734 42.5877C129.289 42.5877 128.911 42.4989 128.599 42.3211C128.289 42.1433 128.032 41.8844 127.83 41.5427C127.627 41.2009 127.527 40.7933 127.527 40.3166C127.527 39.6087 127.73 39.0355 128.136 38.6003C128.541 38.1651 129.061 37.9475 129.699 37.9475C130.273 37.9475 130.766 38.1497 131.177 38.5544C131.589 38.9589 131.795 39.6041 131.795 40.4883ZM128.917 39.7251H130.505C130.464 39.1137 130.212 38.8072 129.749 38.8072C129.255 38.8072 128.977 39.1137 128.919 39.7251H128.917Z" fill="white"/>
<path d="M133.898 42.4959H132.621V38.0395H133.827V38.8686C134.014 38.251 134.334 37.9414 134.791 37.9414C134.855 37.9414 134.935 37.9461 135.03 37.9552V39.2517C134.762 39.2517 134.552 39.2931 134.405 39.3758C134.257 39.4586 134.135 39.6057 134.039 39.8202C133.946 40.0333 133.898 40.3214 133.898 40.683V42.4959Z" fill="white"/>
</g>
</g>
<defs>
<clipPath id="clip0_1637_9854">
<rect width="136" height="44" fill="white"/>
</clipPath>
</defs>
</svg>
