<svg width="130" height="28" viewBox="0 0 130 28" fill="none" xmlns="http://www.w3.org/2000/svg">
<g clip-path="url(#clip0_1637_6164)">
<path d="M27.6482 18.0213V14.4189H0V18.0144C9.32055 16.5413 18.3346 16.5413 27.6482 18.0144V18.0213Z" fill="white"/>
<path d="M27.6482 22.8386V19.0059C18.3346 17.5328 9.32751 17.5258 0 19.0059V22.8177C9.64795 19.5155 18.0211 19.5225 27.6482 22.8386Z" fill="white"/>
<path d="M27.6482 23.8584C18.0072 20.3537 9.66885 20.3467 0 23.8374V27.7819C9.77334 22.2456 17.8748 22.2526 27.6482 27.7819V23.8514V23.8584Z" fill="white"/>
<path d="M27.6482 9.8457V13.4481H0V9.85268C9.32055 11.3258 18.3346 11.3258 27.6482 9.85268V9.8457Z" fill="#8A949E"/>
<path d="M27.6482 5.02832V8.8611C18.3346 10.3342 9.32751 10.3412 0 8.8611V5.04926C9.64795 8.35146 18.0211 8.34448 27.6482 5.02832Z" fill="#8A949E"/>
<path d="M27.6482 4.00962C18.0072 7.51428 9.66885 7.52126 0 4.03057V0.0791016C9.77334 5.61534 17.8748 5.60836 27.6482 0.0791016V4.00962Z" fill="#8A949E"/>
<path d="M58.8485 1.96387H55.9297V25.561H58.8485V1.96387Z" fill="white"/>
<path d="M51.3819 7.31859H48.8742C48.8881 7.19991 48.8951 7.07424 48.8951 6.96254V4.26074C48.8951 4.03036 48.8463 3.87677 48.7488 3.79299C48.6513 3.70921 48.505 3.67431 48.296 3.67431H39.6094V6.02704H45.9763V6.71819C45.9763 7.98183 45.8509 9.18961 45.5932 10.3066C45.3424 11.4237 44.9244 12.4988 44.3532 13.5111C43.782 14.5304 43.0366 15.5287 42.138 16.4852C41.2324 17.4416 40.1179 18.3981 38.8083 19.3336L38.7734 19.3545L40.5219 21.3163L40.5428 21.3372L40.5707 21.3233C42.9391 19.7664 44.806 18.0001 46.1087 16.0733C47.4113 14.1534 48.2612 11.9961 48.6373 9.66434H51.375V13.9719H47.7596V16.3246H51.375V25.547H54.2241V1.96387H51.375V7.31859H51.3819Z" fill="white"/>
<path d="M69.1573 14.3491C70.0908 14.3491 70.9546 14.2025 71.7138 13.9093C72.4731 13.6161 73.1349 13.1972 73.6783 12.6736C74.2216 12.143 74.6466 11.5077 74.9391 10.7746C75.2317 10.0416 75.3849 9.22476 75.3849 8.33813C75.3849 7.45149 75.2387 6.62769 74.9391 5.90162C74.6466 5.16857 74.2216 4.53327 73.6783 4.00268C73.1349 3.4721 72.4731 3.05321 71.7138 2.76698C70.9546 2.47376 70.0908 2.32715 69.1573 2.32715C68.2239 2.32715 67.3601 2.47376 66.6008 2.76698C65.8415 3.06019 65.1797 3.47908 64.6364 4.00268C64.093 4.53327 63.6681 5.16857 63.3755 5.90162C63.0829 6.62769 62.9297 7.45149 62.9297 8.33813C62.9297 9.22476 63.076 10.0486 63.3755 10.7746C63.6681 11.5007 64.093 12.143 64.6364 12.6736C65.1797 13.2042 65.8415 13.623 66.6008 13.9093C67.3601 14.2025 68.2239 14.3491 69.1573 14.3491ZM66.6983 5.67123C67.2626 5.008 68.0915 4.6729 69.1573 4.6729C70.2231 4.6729 71.0451 5.01498 71.6094 5.6852C72.1736 6.36239 72.4592 7.24903 72.4592 8.33114C72.4592 9.41326 72.1736 10.3069 71.6094 10.9771C71.0451 11.6473 70.2231 11.9894 69.1573 11.9894C68.0915 11.9894 67.2626 11.6473 66.6983 10.9771C66.1341 10.3069 65.8485 9.41326 65.8485 8.33114C65.8485 7.24903 66.1341 6.33447 66.6983 5.67123Z" fill="white"/>
<path d="M79.3797 16.9529C78.704 16.534 77.896 16.2199 76.9695 16.0314C76.043 15.8359 75.0329 15.7451 73.9532 15.7451C72.8735 15.7451 71.8634 15.8429 70.9369 16.0314C70.0104 16.2268 69.2024 16.534 68.5267 16.9529C67.851 17.3718 67.3215 17.9093 66.9384 18.5516C66.5622 19.1939 66.3672 19.9549 66.3672 20.8346C66.3672 21.7142 66.5622 22.4961 66.9384 23.1244C67.3146 23.7528 67.851 24.2903 68.5267 24.7092C69.1954 25.1281 70.0104 25.4353 70.9369 25.6308C71.8634 25.8262 72.8735 25.917 73.9532 25.917C75.0329 25.917 76.043 25.8193 76.9695 25.6308C77.896 25.4353 78.704 25.1281 79.3797 24.7092C80.0554 24.2903 80.5849 23.7598 80.961 23.1244C81.3372 22.4961 81.5322 21.7212 81.5322 20.8346C81.5322 19.9479 81.3372 19.1939 80.961 18.5516C80.5849 17.9163 80.0485 17.3788 79.3797 16.9529ZM77.478 22.8592C76.7187 23.3199 75.5345 23.5573 73.9532 23.5573C72.3719 23.5573 71.1946 23.3199 70.4354 22.8592C69.683 22.3984 69.2999 21.7142 69.2999 20.8276C69.2999 19.9409 69.683 19.2568 70.4354 18.796C71.1946 18.3352 72.3789 18.0978 73.9532 18.0978C75.5275 18.0978 76.7117 18.3352 77.478 18.796C78.2303 19.2568 78.6135 19.9409 78.6135 20.8276C78.6135 21.7142 78.2303 22.3984 77.478 22.8592Z" fill="white"/>
<path d="M81.2694 1.96387H78.3438V15.4589H81.2694V12.1427H84.9056V9.78302H81.2694V7.18595H84.9056V4.83322H81.2694V1.96387Z" fill="white"/>
<path d="M93.1978 12.2822C93.6228 11.8144 93.9711 11.3397 94.2288 10.8719C94.5005 11.3257 94.8488 11.7656 95.2598 12.1984C95.6847 12.6382 96.1654 13.0571 96.6878 13.4341C97.2172 13.8111 97.7815 14.1532 98.3666 14.4534C98.9587 14.7536 99.5648 14.9979 100.164 15.1864H100.192L101.313 13.1618L101.334 13.1269L101.292 13.113C100.547 12.8477 99.8225 12.5195 99.1329 12.1356C98.4502 11.7516 97.8372 11.3048 97.3217 10.8021C96.7993 10.2995 96.3813 9.73397 96.0748 9.11961C95.7683 8.50524 95.615 7.84201 95.615 7.14387V5.36362H100.359V3.00391H87.7574V5.36362H92.6475V7.11595C92.6475 7.84899 92.4664 8.54713 92.1111 9.20338C91.7559 9.85963 91.2822 10.4949 90.7179 11.0744C90.1467 11.6538 89.4849 12.1984 88.7465 12.6801C88.0081 13.1618 87.2488 13.5947 86.5035 13.9647L86.4688 13.9856L87.9454 15.9823L87.9594 16.0033L87.9872 15.9893C88.6421 15.7031 89.2969 15.361 89.9168 14.97C90.5438 14.5791 91.1429 14.1532 91.7001 13.6994C92.2574 13.2456 92.7659 12.7709 93.2048 12.2892L93.1978 12.2822Z" fill="white"/>
<path d="M99.6016 7.56992V9.92963H103.537V18.3492H106.456V1.96387H103.537V7.56992H99.6016Z" fill="white"/>
<path d="M94.0711 17.1973H91.1523V24.1438C91.1523 24.8977 91.5424 25.2817 92.3157 25.2817H106.972V22.929H94.0711V17.1973Z" fill="white"/>
<path d="M122.517 3.54897H111.985V5.90868H120.191V7.13043C120.191 8.39406 120.023 9.60882 119.703 10.7398C119.376 11.8708 118.86 12.9529 118.17 13.9443C117.481 14.9426 116.575 15.8921 115.488 16.7647C114.395 17.6374 113.064 18.4682 111.539 19.2362L111.504 19.2571L112.932 21.2747L112.946 21.2957L112.974 21.2817C116.373 19.676 118.937 17.6723 120.608 15.3126C122.273 12.9529 123.123 10.1883 123.123 7.09552V4.12843C123.123 3.89804 123.074 3.74445 122.977 3.66068C122.879 3.5769 122.726 3.54199 122.524 3.54199L122.517 3.54897Z" fill="white"/>
<path d="M129.991 1.96387H127.023V25.561H129.991V1.96387Z" fill="white"/>
</g>
<defs>
<clipPath id="clip0_1637_6164">
<rect width="130" height="28" fill="white"/>
</clipPath>
</defs>
</svg>
