<svg width="201" height="48" viewBox="0 0 201 48" fill="none" xmlns="http://www.w3.org/2000/svg">
<g clip-path="url(#clip0_1637_9245)">
<mask id="mask0_1637_9245" style="mask-type:luminance" maskUnits="userSpaceOnUse" x="0" y="0" width="201" height="48">
<path d="M201 0H0V48H201V0Z" fill="white"/>
</mask>
<g mask="url(#mask0_1637_9245)">
<path d="M36.8645 35.7819C36.8645 35.7819 39.7311 27.1349 32.5569 24.854C28.8716 31.43 36.8645 35.7819 36.8645 35.7819Z" fill="white"/>
<path d="M36.8324 3.26495C36.8324 3.26495 28.1627 6.84052 31.2128 13.9851C38.8169 12.4433 36.8324 3.26495 36.8324 3.26495Z" fill="white"/>
<path d="M7.28486 5.36438C7.28486 5.36438 6.42026 14.3241 13.8302 14.943C15.937 7.79842 7.28486 5.36438 7.28486 5.36438Z" fill="white"/>
<path d="M18.3926 5.00574C18.3926 5.00574 16.7661 8.98366 20.0694 10.2849C22.0124 7.31068 18.3926 5.00574 18.3926 5.00574Z" fill="white"/>
<path d="M16.8462 23.6227C16.8462 23.6227 16.3222 21.4774 16.5449 19.4304C16.7654 17.3857 13.7089 16.4782 13.7089 19.402C13.7089 19.402 12.9732 18.5054 11.7768 19.1965C10.8336 19.7432 11.1567 21.8054 12.6741 22.4352C14.1892 23.0672 16.7677 23.5768 16.8484 23.6227H16.8462Z" fill="white"/>
<path d="M26.448 21.8426C27.8256 22.0591 29.1159 21.1144 29.332 19.7345C29.5482 18.3545 28.605 17.0621 27.2274 16.8456C25.8498 16.6291 24.5595 17.5738 24.3433 18.9516C24.1272 20.3315 25.0703 21.624 26.448 21.8405V21.8426Z" fill="white"/>
<path d="M24.7761 0C24.7761 0 19.0299 5.30758 23.4772 10.0137C28.9768 6.6044 24.7761 0 24.7761 0Z" fill="white"/>
<path d="M13.8135 14.9102C11.2591 7.26039 2.07422 10.4752 2.07422 10.4752C2.07422 10.4752 6.85333 18.9647 13.8157 14.9102H13.8135Z" fill="white"/>
<path d="M42.8506 8.75195C42.8506 8.75195 33.3164 6.0883 31.2227 14.0201C38.5518 17.6832 42.8506 8.75195 42.8506 8.75195Z" fill="white"/>
<path d="M32.5289 24.8409C32.1511 34.1439 43.3795 34.4478 43.3795 34.4478C43.3795 34.4478 41.6985 23.3254 32.5289 24.8409Z" fill="white"/>
<path d="M36.8563 17.9566C32.5532 18.3152 26.8811 24.1323 25.8987 25.0727C24.914 26.0153 24.8289 26.5969 23.9709 26.3345C23.1107 26.0721 23.401 24.1673 23.401 24.1673C23.4774 16.2486 19.6524 12.2969 19.8358 12.778C20.0192 13.2569 20.8204 15.9599 21.089 18.7767C21.3575 21.5912 20.2768 27.288 19.9777 28.7904C19.8293 29.5405 19.4887 31.1107 19.1328 33.49C19.1786 33.595 19.2223 33.7 19.266 33.7962C19.4603 34.2401 19.6262 34.6031 19.7222 34.8044C20.0629 35.5282 23.8049 40.9757 22.5037 48.0001H27.3942C27.392 44.4289 23.5866 34.5681 26.8942 28.1868C29.632 22.9077 36.8585 17.9566 36.8585 17.9566H36.8563Z" fill="white"/>
<path d="M44.6469 21.4729C44.6469 21.4729 38.5906 17.0314 34.9883 22.0984C39.2129 26.6602 44.6469 21.4729 44.6469 21.4729Z" fill="white"/>
<path d="M0 29.6608C0 29.6608 8.46224 31.9723 10.2809 24.9327C3.7639 21.7224 0 29.6608 0 29.6608Z" fill="white"/>
<path d="M2.51562 21.0794C2.51562 21.0794 5.38659 24.8911 8.50204 22.468C6.76639 18.9209 2.51562 21.0794 2.51562 21.0794Z" fill="white"/>
<path d="M16.5356 47.9999H22.5024C23.8036 40.9757 20.0615 35.526 19.721 34.8042C19.6271 34.6031 19.4589 34.2401 19.2646 33.7961C18.7603 32.6436 18.0617 30.9204 17.9045 29.8663C17.6883 28.4054 17.756 26.9337 17.7888 26.6669C17.8215 26.4001 16.3762 28.8843 17.4045 32.8908C17.4045 32.8908 17.6665 33.6277 17.2626 33.8705C16.8587 34.111 16.5291 33.8268 16.2518 33.6627C15.6383 33.3019 12.0316 31.0691 9.80469 31.4299C9.80469 31.4299 14.3349 33.3872 16.147 35.9087C17.959 38.4301 17.8608 45.7649 16.5334 48.0022L16.5356 47.9999Z" fill="white"/>
<path d="M15.5369 31.7316C16.2093 31.4495 16.5237 30.6754 16.2442 30.004C15.9626 29.3304 15.1876 29.0133 14.5173 29.2954C13.8448 29.5775 13.5282 30.3517 13.8099 31.0231C14.0915 31.6944 14.8644 32.0116 15.5369 31.7294V31.7316Z" fill="white"/>
<path d="M107.263 19.4785H94.6428C94.5287 19.4785 94.4375 19.5704 94.4375 19.6841V20.8082C94.4375 20.8234 94.4375 20.8388 94.4418 20.8541C94.4834 21.5408 95.0707 22.0744 95.795 22.0744H98.072V27.1195H94.6428C94.5287 27.1195 94.4375 27.2114 94.4375 27.3251V28.4491C94.4375 28.4645 94.4375 28.4798 94.4418 28.4951C94.4834 29.1818 95.0707 29.7153 95.795 29.7153H108.416C108.53 29.7153 108.622 29.6235 108.622 29.5098V28.3857C108.622 28.3704 108.622 28.3529 108.615 28.3376C108.571 27.6531 107.984 27.1217 107.259 27.1217H104.982V22.0765H108.414C108.528 22.0765 108.619 21.9847 108.619 21.871V20.7426C108.619 20.7272 108.619 20.7098 108.613 20.6944C108.569 20.01 107.982 19.4785 107.257 19.4785H107.263ZM102.266 22.0744V27.1195H100.797V22.0744H102.266Z" fill="white"/>
<path d="M107.263 31.2025H94.6428C94.5287 31.2025 94.4375 31.2944 94.4375 31.4081V32.5321C94.4375 32.5474 94.4375 32.5627 94.4418 32.578C94.4834 33.2647 95.0707 33.7983 95.795 33.7983H100.168V39.9041C100.168 40.0178 100.26 40.1097 100.373 40.1097H101.531C102.279 40.1097 102.891 39.5258 102.891 38.8107V33.7962H108.416C108.53 33.7962 108.622 33.7043 108.622 33.5905V32.4665C108.622 32.4512 108.622 32.4337 108.615 32.4184C108.571 31.7339 107.984 31.2025 107.259 31.2025H107.263Z" fill="white"/>
<path d="M132.956 30.3825H128.222V23.7956C128.222 23.0805 127.611 22.4966 126.862 22.4966H125.705C125.591 22.4966 125.5 22.5884 125.5 22.7021V31.6771C125.5 32.3922 126.111 32.9739 126.86 32.9739H134.113C134.226 32.9739 134.318 32.8821 134.318 32.7684V31.6443C134.318 31.6268 134.316 31.6093 134.311 31.5918C134.268 30.9073 133.683 30.3803 132.958 30.3803L132.956 30.3825Z" fill="white"/>
<path d="M122.638 31.2025H110.018C109.904 31.2025 109.812 31.2944 109.812 31.4081V32.53C109.812 32.5475 109.815 32.5671 109.821 32.5847C109.867 33.2691 110.452 33.7962 111.174 33.7962H123.798C123.912 33.7962 124.003 33.7043 124.003 33.5906V32.4665C124.003 32.449 124.001 32.4316 123.997 32.4141C123.951 31.7295 123.366 31.2003 122.641 31.2003L122.638 31.2025Z" fill="white"/>
<path d="M112.404 29.6738C112.404 29.6738 112.428 29.6738 112.437 29.6738H120.779C121.528 29.6738 122.139 29.0921 122.139 28.3748C122.139 27.6575 121.528 27.078 120.779 27.078H113.732V26.236H121.934C122.047 26.236 122.139 26.1442 122.139 26.0304V20.7469C122.139 20.0471 121.543 19.4807 120.81 19.4807H111.28C111.166 19.4807 111.074 19.5726 111.074 19.6863V20.8103C111.074 20.8279 111.077 20.8475 111.084 20.865C111.129 21.5495 111.715 22.0765 112.439 22.0765H119.485V23.6424H111.282C111.168 23.6424 111.077 23.7342 111.077 23.8479V28.4054C111.077 29.1052 111.673 29.6738 112.407 29.6738H112.404Z" fill="white"/>
<path d="M120.812 37.5729H114.28V36.5254C114.28 35.8475 113.732 35.3007 113.027 35.2635C113.013 35.2614 112.998 35.2592 112.983 35.2592H111.83C111.717 35.2592 111.625 35.3926 111.625 35.5063V38.9026C111.625 39.6024 112.221 40.1688 112.985 40.1688H121.971C122.085 40.1688 122.177 40.0769 122.177 39.9632V38.8391C122.177 38.8238 122.177 38.8063 122.17 38.791C122.124 38.1043 121.537 37.5729 120.814 37.5729H120.812Z" fill="white"/>
<path d="M143.081 27.7713V26.6472C143.081 26.5335 142.989 26.4416 142.876 26.4416H137.624V23.7977C137.624 23.0825 137.014 22.4987 136.265 22.4987H135.108C134.994 22.4987 134.902 22.5905 134.902 22.7043V31.6792C134.902 32.3943 135.513 32.9761 136.265 32.9761H137.419C137.533 32.9761 137.624 32.8842 137.624 32.7705V29.0353H141.718C142.441 29.0353 143.026 28.5083 143.074 27.8259C143.079 27.8085 143.081 27.7909 143.081 27.7713Z" fill="white"/>
<path d="M146.141 29.7153H154.483C155.235 29.7153 155.846 29.1337 155.846 28.4163V20.7775C155.846 20.0625 155.235 19.4785 154.483 19.4785H146.141C146.048 19.4785 145.956 19.4873 145.87 19.5048C145.36 19.6032 144.949 19.9794 144.826 20.4517C144.82 20.467 144.807 20.502 144.803 20.5195C144.788 20.6026 144.781 20.69 144.781 20.7775V28.4163C144.781 29.1315 145.392 29.7153 146.141 29.7153ZM153.123 22.0765V27.1217H147.503V22.0765H153.123Z" fill="white"/>
<path d="M157.395 32.4184C157.351 31.7339 156.764 31.2025 156.039 31.2025H143.42C143.307 31.2025 143.215 31.2944 143.215 31.4081V32.53C143.215 32.5474 143.217 32.5649 143.221 32.5824C143.267 33.2669 143.854 33.7962 144.575 33.7962H148.945V39.9019C148.945 40.0157 149.037 40.1075 149.151 40.1075H150.306C151.057 40.1075 151.668 39.5258 151.668 38.8107V33.7962H157.194C157.308 33.7962 157.399 33.7043 157.399 33.5905V32.4665C157.399 32.449 157.399 32.4337 157.393 32.4184H157.395Z" fill="white"/>
<path d="M61.0236 29.1578C61.4821 28.8691 61.8794 28.5061 62.2069 28.0709C62.7265 27.3777 62.9688 26.586 62.9317 25.7331C62.9121 24.9349 62.6719 24.2264 62.2178 23.6249C61.779 23.0498 61.172 22.5665 60.4188 22.1925C59.6896 21.8295 58.8119 21.554 57.8077 21.3747C56.8208 21.1997 55.7358 21.0969 54.5852 21.0707C54.0634 21.051 53.6704 21.1231 53.391 21.2806C53.1465 21.4184 52.8604 21.7202 52.8932 22.3456L52.9434 25.1864C52.9609 26.107 52.974 27.0102 52.9827 27.9003C52.9914 28.786 52.9958 29.6739 52.9958 30.5596C52.9958 31.4453 53.0046 32.355 53.022 33.2648V34.0542C53.022 34.4063 53.0264 34.7715 53.0351 35.152C53.0438 35.5238 53.0482 35.8803 53.0482 36.2192V36.9759C53.0482 37.7216 53.4521 37.9468 53.6944 38.0147C53.9455 38.0847 54.297 38.1262 54.7664 38.1437C54.9607 38.1502 55.155 38.1546 55.3471 38.1546C56.2707 38.1546 57.1571 38.0737 57.9845 37.9119C58.9954 37.7129 59.8927 37.4045 60.6481 36.9977C61.4231 36.5823 62.0541 36.0552 62.5256 35.4341C63.0147 34.789 63.2701 34.0433 63.2919 33.221C63.3291 32.1866 63.0693 31.2703 62.5213 30.5005C62.1392 29.9626 61.6371 29.512 61.0257 29.16L61.0236 29.1578ZM56.1375 32.0117C56.131 31.4912 56.1201 30.9598 56.1091 30.4131H56.9518C57.5718 30.4131 58.1002 30.5005 58.5172 30.6689C58.9277 30.8373 59.2551 31.0516 59.491 31.3119C59.7289 31.5721 59.8992 31.8629 59.9996 32.1779C60.1022 32.5037 60.1481 32.8295 60.1328 33.151C60.1175 33.5556 60.0193 33.8989 59.8271 34.1964C59.6285 34.5091 59.3665 34.7759 59.0281 35.0055C58.6853 35.2351 58.2901 35.4123 57.8513 35.5304C57.4038 35.6506 56.9278 35.7097 56.4388 35.7097H56.1484V34.0236C56.1484 33.3369 56.144 32.6677 56.1353 32.0095L56.1375 32.0117ZM59.5281 26.5707C59.3927 26.8331 59.2006 27.0671 58.9582 27.2683C58.7071 27.476 58.3993 27.6445 58.0391 27.7691C57.6767 27.8959 57.2772 27.9615 56.8492 27.9615H56.0654C56.0524 27.2399 56.0414 26.5117 56.0348 25.7812C56.0283 25.0661 56.0239 24.3554 56.0218 23.6512C56.4846 23.7015 56.9256 23.7693 57.3383 23.8568C57.8535 23.9661 58.301 24.1126 58.6635 24.3007C59.0041 24.4757 59.2748 24.6922 59.4625 24.9458C59.6372 25.1776 59.7224 25.4466 59.7224 25.7659C59.7224 26.0567 59.6591 26.3192 59.5259 26.5728L59.5281 26.5707Z" fill="white"/>
<path d="M75.1535 21.1712C74.4852 21.1581 73.7975 21.1471 73.0904 21.1406C72.3804 21.134 71.6579 21.1296 70.9244 21.1296H68.4049C67.5382 21.1296 66.7195 21.1427 65.9422 21.169C65.5056 21.1887 65.1497 21.3112 64.8812 21.5342C64.5122 21.8448 64.4336 22.1859 64.4336 22.4178C64.4336 22.6671 64.5166 23.0345 64.9139 23.3756C65.2217 23.6424 65.6715 23.7736 66.2806 23.7474H66.2849C66.9596 23.7233 67.715 23.732 68.5796 23.7145C68.5861 24.6068 68.6058 25.5275 68.6429 26.4723C68.6844 27.5635 68.7237 28.6219 68.7586 29.6498C68.7761 30.0675 68.7848 30.4108 68.7848 30.6798V31.4583C68.7848 32.016 68.7761 32.6305 68.7586 33.3019C68.7411 33.9776 68.7237 34.5878 68.7084 35.1279L68.6582 36.1427C68.6407 36.5057 68.6407 36.8665 68.6582 37.2273C68.6822 37.6406 68.8874 37.9753 69.2476 38.1896C69.5533 38.3732 69.8939 38.4673 70.2607 38.4673C70.6274 38.4673 70.9746 38.3689 71.2802 38.1764C71.6361 37.9534 71.8392 37.61 71.8628 37.1793C71.8808 36.8162 71.8894 36.4575 71.8894 36.1033C71.8894 35.749 71.898 35.4319 71.9152 35.0995L71.9655 33.2647C71.9834 32.6239 71.9921 32.0029 71.9921 31.3971V30.5551C71.9921 30.2031 71.9813 29.9056 71.9655 29.6782C71.931 28.6832 71.9023 27.6247 71.8765 26.505C71.8542 25.5384 71.8348 24.5893 71.8198 23.6621H75.0702C75.5526 23.6621 75.9352 23.5396 76.2037 23.2947C76.4808 23.0388 76.623 22.7414 76.623 22.4155C76.623 22.0897 76.4808 21.812 76.2016 21.5539C75.9396 21.3177 75.5921 21.1865 75.1557 21.1668L75.1535 21.1712Z" fill="white"/>
<path d="M88.7515 27.7407C88.4479 27.6029 88.0832 27.5263 87.6862 27.5089C87.2864 27.4804 86.6166 27.4673 85.6733 27.4673H82.7064C82.7021 27.218 82.695 26.9774 82.6842 26.7457C82.667 26.3958 82.6562 26.0502 82.6476 25.7091L82.621 24.6746C82.6124 24.3291 82.6081 23.9617 82.6081 23.5681C82.6081 23.5593 82.6081 23.5528 82.6081 23.5441H82.6404C83.1709 23.5441 83.6906 23.5396 84.1953 23.5331C84.6971 23.5244 85.2347 23.5221 85.8126 23.5221H87.6029C87.7623 23.5221 87.9217 23.5178 88.081 23.5113C88.2885 23.5003 88.4787 23.4587 88.651 23.38C88.8391 23.2925 88.9963 23.1657 89.114 22.9973C89.2425 22.8158 89.3064 22.584 89.3064 22.3041C89.3064 21.6721 88.959 21.4009 88.7537 21.2959C88.4873 21.1603 88.1665 21.0838 87.8018 21.0663C87.5398 21.0532 87.2038 21.0466 86.7932 21.0466H81.1516C80.5866 21.0466 80.1451 21.1822 79.8393 21.4446C79.5227 21.7158 79.3418 22.0635 79.3203 22.4987C79.3375 22.7961 79.3483 23.0914 79.3569 23.3887C79.3655 23.684 79.3706 23.8852 79.3706 24.0033L79.466 27.3427L79.5751 36.7638C79.5227 37.2427 79.7044 37.632 80.0863 37.8616C80.3921 38.0453 80.7323 38.1393 81.0992 38.1393C81.6146 38.1393 82.0467 37.984 82.3985 37.6647C82.6038 37.4592 82.7215 37.2296 82.7524 36.9781C82.7696 36.8163 82.7804 36.6019 82.7804 36.3351C82.7804 35.2264 82.7718 34.0936 82.7545 32.9367C82.7387 31.9242 82.7301 30.927 82.728 29.9494C82.896 29.945 83.0776 29.9429 83.2807 29.945C83.6669 29.9516 84.0661 29.956 84.4767 29.956H85.5377C85.8851 29.956 86.2017 29.9604 86.4874 29.9669L87.2541 29.9866C87.4551 29.9932 87.6029 30.0041 87.7192 30.0172C88.1334 30.0544 88.4981 29.9953 88.7932 29.8532C89.0114 29.7482 89.3804 29.4771 89.3804 28.8319C89.3804 28.1299 88.9827 27.8434 88.7451 27.7363L88.7515 27.7407Z" fill="white"/>
<path d="M189.855 40.5689H196.13V39.3421C196.13 38.6641 195.58 38.113 194.905 38.113H191.08V35.1236C191.08 34.4478 190.53 33.8989 189.857 33.8989H188.633V39.3421C188.633 40.0178 189.183 40.5689 189.857 40.5689H189.855Z" fill="white"/>
<path d="M201.002 27.5591V26.3301H195.913V23.6578C195.913 22.982 195.362 22.4331 194.69 22.4331H193.465V31.454C193.465 32.1297 194.015 32.6808 194.688 32.6808H195.913V28.7838H199.777C200.452 28.7838 201.002 28.2327 201.002 27.5569V27.5591Z" fill="white"/>
<path d="M190.929 22.8114H182.38C181.742 22.8114 181.223 23.3319 181.223 23.9705V31.1479C181.223 31.7864 181.742 32.3069 182.38 32.3069H190.929V31.1479C190.929 30.5092 190.41 29.9888 189.772 29.9888H183.535V25.1274H189.772C190.41 25.1274 190.929 24.609 190.929 23.9705V22.8114Z" fill="white"/>
<path d="M170.566 31.5853L166.588 27.592L169.297 24.8562C169.354 24.7971 169.404 24.7359 169.448 24.6703L169.461 24.6506C169.494 24.6003 169.522 24.5435 169.549 24.4888V24.4582L169.572 24.432C169.622 24.2986 169.648 24.1564 169.648 24.0055C169.648 23.8656 169.625 23.7299 169.579 23.6031L169.549 23.5856V23.5266C169.52 23.4609 169.489 23.4041 169.457 23.3582L169.434 23.3188C169.406 23.2772 169.376 23.2379 169.341 23.2007H169.253V23.111C169.214 23.0783 169.175 23.0476 169.134 23.017L169.103 22.9973C169.04 22.9558 168.976 22.923 168.908 22.8924C168.815 22.8552 168.749 22.8355 168.69 22.8246L168.66 22.818C168.589 22.8049 168.52 22.8005 168.448 22.8005H159.597V24.0033C159.597 24.6659 160.136 25.2061 160.798 25.2061H165.562L159.102 31.7186L159.944 32.5693C160.404 33.033 161.195 33.0286 161.645 32.5693L164.893 29.2978L168.02 32.4316C168.478 32.8865 169.26 32.8865 169.717 32.4316L170.564 31.583L170.566 31.5853Z" fill="white"/>
<path d="M177.115 33.2276H178.383V23.7081C178.383 23.0476 177.846 22.5096 177.186 22.5096H175.92V26.4133H174.25V23.6359C174.25 22.9995 173.731 22.4637 173.093 22.4419L172.96 22.4375H171.785V31.9548C171.785 32.6152 172.322 33.1532 172.981 33.1532H174.25V28.8823H175.92V32.0292C175.92 32.6896 176.457 33.2276 177.117 33.2276H177.115Z" fill="white"/>
</g>
</g>
<defs>
<clipPath id="clip0_1637_9245">
<rect width="201" height="48" fill="white"/>
</clipPath>
</defs>
</svg>
