<svg width="139" height="42" viewBox="0 0 139 42" fill="none" xmlns="http://www.w3.org/2000/svg">
<g clip-path="url(#clip0_1653_5877)">
<mask id="mask0_1653_5877" style="mask-type:luminance" maskUnits="userSpaceOnUse" x="47" y="6" width="92" height="30">
<path d="M139 6H47V36H139V6Z" fill="white"/>
</mask>
<g mask="url(#mask0_1653_5877)">
<path d="M50.6224 28.8301V31.6695H52.0647V28.8301H53.445V35.9158H52.0647V32.9524H50.6224V35.9158H49.2422V28.8301H50.6224Z" fill="white"/>
<path d="M56.4485 34.2988L56.1319 35.9172H54.793L56.3296 28.8315H57.9839L59.3629 35.9172H58.0265L57.7215 34.2988H56.4485ZM57.5936 33.2249L57.3635 31.7433C57.2873 31.3109 57.1955 30.6075 57.1309 30.1338H57.0973C57.0262 30.6062 56.9202 31.3419 56.8466 31.7523L56.5829 33.2249H57.5936Z" fill="white"/>
<path d="M60.7969 35.9158V28.8301H62.0582L63.1529 31.6076C63.3622 32.1509 63.7125 33.057 63.9102 33.6791H63.9322C63.8908 32.9305 63.7965 31.7005 63.7965 30.3969V28.8301H65.0075V35.9158H63.7448L62.6592 33.2235C62.4291 32.6246 62.1022 31.7315 61.9419 31.0887H61.9212C61.9535 31.8025 62.0052 32.8995 62.0052 34.3283V35.9145H60.7969V35.9158Z" fill="white"/>
<path d="M67.6668 35.9161V33.2031L66.1094 28.8291H67.5853L68.0674 30.5212C68.1941 30.9729 68.3311 31.4995 68.4383 32.0261H68.459C68.5404 31.5098 68.658 30.9961 68.7834 30.4915L69.206 28.8291H70.6354L69.0457 33.1502V35.9148H67.6668V35.9161Z" fill="white"/>
<path d="M72.5632 34.2988L72.2478 35.9172H70.9102L72.4482 28.8315H74.0985L75.4801 35.9172H74.1438L73.8375 34.2988H72.5632ZM73.7108 33.2249L73.4782 31.7433C73.4071 31.3109 73.3102 30.6075 73.2469 30.1338H73.2171C73.1435 30.6062 73.0375 31.3419 72.9638 31.7523L72.7002 33.2249H73.7095H73.7108Z" fill="white"/>
<path d="M76.9141 35.9158V28.8301H78.1767L79.2714 31.6076C79.482 32.1509 79.8284 33.057 80.03 33.6791H80.0507C80.0093 32.9305 79.9124 31.7005 79.9124 30.3969V28.8301H81.1221V35.9158H79.8607L78.7764 33.2235C78.5438 32.6246 78.2181 31.7315 78.0604 31.0887H78.0397C78.0708 31.8025 78.1238 32.8995 78.1238 34.3283V35.9145H76.9141V35.9158Z" fill="white"/>
<path d="M86.935 35.7276C86.6313 35.8554 85.9773 35.9793 85.463 35.9793C84.6526 35.9793 84.0413 35.7496 83.5683 35.2759C82.957 34.6899 82.6287 33.6368 82.6494 32.4171C82.6843 29.8397 84.1551 28.771 85.6607 28.771C86.1996 28.771 86.5977 28.8742 86.8213 28.9801L86.577 30.1675C86.3793 30.072 86.1156 30.01 85.7667 30.01C84.8284 30.01 84.0827 30.6502 84.0827 32.5023C84.0827 34.2059 84.747 34.8164 85.388 34.8164C85.5146 34.8164 85.609 34.8087 85.662 34.7842V33.0702H85.03V31.9434H86.9363V35.7289L86.935 35.7276Z" fill="white"/>
<path d="M92.2853 28.8304V33.4355C92.2853 34.4744 92.6007 34.7932 92.9612 34.7932C93.3619 34.7932 93.6449 34.5093 93.6449 33.4355V28.8304H95.0226V33.1941C95.0226 35.0113 94.3402 35.9987 92.9703 35.9987C91.4853 35.9987 90.9062 34.9804 90.9062 33.2031V28.8291H92.2866L92.2853 28.8304Z" fill="white"/>
<path d="M96.8672 35.9158V28.8301H98.1325L99.2258 31.6076C99.4352 32.1509 99.7829 33.057 99.9845 33.6791H100.002C99.9599 32.9305 99.8656 31.7005 99.8656 30.3969V28.8301H101.076V35.9158H99.8139L98.7308 33.2235C98.4982 32.6246 98.1712 31.7315 98.0136 31.0887H97.9903C98.0226 31.8025 98.0769 32.8995 98.0769 34.3283V35.9145H96.8672V35.9158Z" fill="white"/>
<path d="M104.331 28.8301V35.9158H102.949V28.8301H104.331Z" fill="white"/>
<path d="M107.202 35.9158L105.613 28.8301H107.14L107.646 31.8902C107.772 32.6465 107.92 33.519 108.013 34.3502H108.033C108.128 33.5087 108.244 32.6582 108.372 31.858L108.854 28.8301H110.373L108.748 35.9158H107.202Z" fill="white"/>
<path d="M114.625 32.8055H113.003V34.7182H114.839V35.9172H111.625V28.8315H114.712V30.0331H113.003V31.6607H114.625V32.8068V32.8055Z" fill="white"/>
<path d="M116.426 28.9358C116.86 28.8519 117.405 28.8003 117.931 28.8003C118.691 28.8003 119.366 28.9035 119.826 29.3256C120.26 29.7128 120.387 30.1877 120.387 30.7969C120.387 31.5533 120.016 32.236 119.291 32.5742V32.5935C119.776 32.7833 120.016 33.2376 120.156 33.9926C120.291 34.7812 120.483 35.655 120.609 35.9157H119.168C119.083 35.7156 118.924 35.0019 118.818 34.2236C118.691 33.3408 118.473 33.0879 118.009 33.0879H117.809V35.9144H116.427V28.9332L116.426 28.9358ZM117.807 32.0282H118.05C118.649 32.0282 118.995 31.5429 118.995 30.9221C118.995 30.3013 118.753 29.8922 118.134 29.8702C118.015 29.8702 117.881 29.8806 117.806 29.9128L117.807 32.0282Z" fill="white"/>
<path d="M121.873 34.5091C122.157 34.6652 122.64 34.7814 123.038 34.7814C123.694 34.7814 124.006 34.4445 124.006 33.9825C124.006 33.4675 123.694 33.2171 123.094 32.8261C122.123 32.2362 121.756 31.4902 121.756 30.8501C121.756 29.713 122.514 28.7695 123.997 28.7695C124.463 28.7695 124.902 28.8934 125.114 29.0199L124.893 30.2099C124.695 30.0821 124.386 29.966 123.988 29.966C123.399 29.966 123.112 30.3248 123.112 30.7042C123.112 31.1224 123.323 31.3431 124.093 31.8064C125.029 32.3756 125.376 33.0906 125.376 33.8354C125.376 35.1312 124.419 35.9804 123.029 35.9804C122.462 35.9804 121.9 35.8359 121.672 35.6978L121.873 34.5117V34.5091Z" fill="white"/>
<path d="M128.207 28.8301V35.9158H126.832V28.8301H128.207Z" fill="white"/>
<path d="M130.858 30.1001H129.605V28.8301H133.502V30.1001H132.239V35.9158H130.858V30.1001Z" fill="white"/>
<path d="M136.031 35.9161V33.2031L134.473 28.8291H135.947L136.432 30.5212C136.559 30.9729 136.694 31.4995 136.799 32.0261H136.82C136.904 31.5098 137.02 30.9961 137.145 30.4915L137.567 28.8291H139.001L137.412 33.1502V35.9148H136.033L136.031 35.9161Z" fill="white"/>
<path d="M61.9232 6.62339H59.2208V20.1533H61.9232V12.8302H64.5855V11.253H61.9232V6.62339ZM52.967 18.5761H50.262V25.4824H62.2411V23.8846H52.967V18.5761ZM135.331 21.1329H137.876V6.60145H124.78V8.20057H135.331V21.1329ZM71.6459 6.21425C64.9435 6.21425 64.9435 15.9935 71.6459 15.9935C78.3482 15.9935 78.3314 6.21425 71.6459 6.21425ZM71.6459 7.72044C74.9169 7.72044 74.9169 14.5041 71.6459 14.5041C68.3748 14.5041 68.3567 7.72044 71.6459 7.72044ZM55.3734 9.11693H57.8212V7.5191H53.7631V6H51.0568V7.52039H47V9.11822H49.4426C46.4494 11.4259 47.4368 17.2068 52.4125 17.2068C57.3882 17.2068 58.3549 11.4246 55.3747 9.11822L55.3734 9.11693ZM52.4112 9.59319C55.4819 9.59319 55.4819 15.7935 52.4112 15.7935C49.3405 15.7935 49.316 9.59319 52.4112 9.59319ZM107.415 20.1533H116.865V25.4837H119.569V18.5774H107.415V20.1533ZM119.569 6.62339H116.865V17.7037H119.569V12.8289H122.231V11.2517H119.569V6.62339ZM113.02 9.11693H115.468V7.5191H111.409V6H108.701V7.52039H104.648V9.11822H107.091C104.094 11.4259 105.083 17.2068 110.062 17.2068C115.042 17.2068 115.998 11.4246 113.022 9.11822L113.02 9.11693ZM110.054 9.59319C113.128 9.59319 113.128 15.7935 110.054 15.7935C106.981 15.7935 106.959 9.59319 110.054 9.59319ZM76.0374 16.7886C69.1335 16.7886 69.1102 26.1316 76.0374 26.1316C82.9646 26.1316 82.9207 16.7886 76.0374 16.7886ZM76.0374 24.6332C72.6578 24.6332 72.6578 18.2393 76.0374 18.2393C79.417 18.2393 79.395 24.6332 76.0374 24.6332ZM133.647 22.6301V14.4461H131.149V22.6301H129.356V14.4461H126.855V22.6301H124.122V24.2292H138.932V22.6301H133.647ZM80.9717 6.64146H78.2513V16.7112H80.9717V14.0627H83.6379V12.461H80.9717V10.1779H83.6379V8.59938H80.9717V6.64146ZM98.7925 12.461H97.5376V6.62339H94.9916V17.381H89.9383V8.2238H93.6669V6.62339H87.2334V18.9827H94.9916V25.5031H97.5376V14.064H98.7925V25.5031H101.336V6.62339H98.7925V12.461Z" fill="white"/>
</g>
<mask id="mask1_1653_5877" style="mask-type:luminance" maskUnits="userSpaceOnUse" x="0" y="0" width="42" height="42">
<path d="M42 0H0V42H42V0Z" fill="white"/>
</mask>
<g mask="url(#mask1_1653_5877)">
<path d="M0 21C0 32.5795 9.42052 41.9985 21 41.9985C32.5795 41.9985 41.9985 32.578 41.9985 21C41.9985 9.42203 32.5795 0 21 0C9.42052 0 0 9.42203 0 21ZM0.161771 21C0.161771 9.50972 9.50972 0.161771 21 0.161771C32.4903 0.161771 41.8367 9.50972 41.8367 21C41.8367 32.4903 32.4888 41.8382 21 41.8382C9.51123 41.8382 0.161771 32.4918 0.161771 21Z" fill="white"/>
<path d="M26.3143 14.1619V14.8573H19.5426V14.1664H16.289V14.8573H11.1395V17.7737C11.1395 17.7737 11.4706 17.7737 11.64 17.7737C11.1274 18.4223 10.875 19.1949 10.875 20.1958C10.875 21.0061 11.2257 21.9012 11.8138 22.5891C12.5002 23.4765 13.7037 24.0314 14.951 24.0314H21.248V23.4009H21.6063V24.0148L30.9134 24.0299L30.9089 21.0076H29.5693V17.8448H30.9149L30.921 14.8573H29.6162V14.1543L26.3158 14.1619H26.3143ZM29.4469 14.3206V15.0236H30.7516C30.7516 15.1748 30.7456 17.5273 30.7456 17.6785H29.4015V21.174H30.7411C30.7411 21.3267 30.7456 23.7109 30.7456 23.8636C30.5838 23.8636 21.9328 23.8485 21.7711 23.8485V23.2346H21.0817V23.8651H14.9495C13.7521 23.8651 12.5985 23.3359 11.9408 22.4848C11.3754 21.8241 11.0398 20.9683 11.0398 20.1973C11.0398 19.1692 11.3013 18.3906 11.8622 17.745L11.9817 17.6074C11.9817 17.6074 11.4253 17.6089 11.3028 17.6105V15.0267H16.4523V14.3357H19.3717V15.0267H26.476V14.3312C26.6287 14.3312 29.2896 14.3251 29.4439 14.3251" fill="white"/>
<path d="M24.533 18.0048C24.533 17.4771 24.1927 17.1234 23.7739 17.1234C23.3551 17.1234 23.0165 17.4771 23.0165 18.0048C23.0165 18.5324 23.3581 18.8907 23.7739 18.8907C24.1897 18.8907 24.533 18.5475 24.533 18.0048ZM17.1519 18.5974C17.1519 18.1454 16.842 17.8052 16.4565 17.8052C16.071 17.8052 15.7625 18.1469 15.7625 18.5974C15.7625 19.048 16.074 19.3912 16.4565 19.3912C16.839 19.3912 17.1519 19.057 17.1519 18.5974ZM24.6448 20.0851C24.1685 20.0851 23.7376 20.3935 23.7376 20.9061C23.7376 21.4186 24.1685 21.7255 24.6448 21.7255C25.121 21.7255 25.5519 21.4141 25.5519 20.9061C25.5519 20.3981 25.124 20.0851 24.6448 20.0851ZM30.2313 17.2504V15.5374H28.9114V14.8691H26.9806V15.5374H18.8845V14.8691H16.9538V15.5374H11.8724V17.2504H13.4009C12.3411 17.713 11.6562 18.7244 11.6562 20.2015C11.6562 22.1836 13.5204 23.313 15.0216 23.313H20.6277V22.7113H22.2137V23.313H30.2296V21.6H28.9099V17.2519H30.2296L30.2313 17.2504ZM15.6899 16.6456H17.2261V17.0977H15.6899V16.6456ZM15.0262 18.5974C15.0262 18.2497 15.2303 17.9413 15.5584 17.7387H15.0141V17.2851H17.9003V17.7387H17.356C17.6826 17.9398 17.8868 18.2482 17.8868 18.5974C17.8868 19.2022 17.2714 19.6951 16.4565 19.6951C15.6416 19.6951 15.0262 19.2037 15.0262 18.5974ZM19.2142 22.0113L16.523 22.0082C15.9682 22.0082 15.6264 21.6877 15.6264 21.1616V20.1138H16.4791V21.5577H19.2142V22.0113ZM19.8022 18.413H19.1627V20.3361H18.378V16.6456H19.1627V17.9609H19.8022V18.413ZM22.2152 18.0048C22.2152 17.3033 22.8881 16.7333 23.7725 16.7333C24.6569 16.7333 25.3327 17.3033 25.3327 18.0048C25.3327 18.7063 24.6615 19.2778 23.7725 19.2778C22.8835 19.2778 22.2152 18.7093 22.2152 18.0048ZM27.0034 17.7629H26.3381V18.413H27.0034V18.865H26.3381V20.9061H26.3366C26.3306 21.597 25.5851 22.1609 24.6463 22.1609C23.7074 22.1609 22.962 21.597 22.956 20.9061C22.962 20.2136 23.7074 19.6512 24.6463 19.6512C24.9804 19.6512 25.2919 19.7223 25.5535 19.8478V16.6456H26.3397V17.3093H27.0048V17.7629H27.0034Z" fill="white"/>
<path d="M21.08 1.15347C10.1219 1.11114 1.20024 9.96017 1.1564 20.9213C1.11406 31.8824 9.96461 40.801 20.9227 40.8448C31.8824 40.8887 40.8024 32.0396 40.8448 21.0785C40.8886 10.1174 32.0381 1.19732 21.0785 1.15347M39.3314 18.2679L37.7999 18.8727V18.8833L39.4281 19.0602L39.4826 19.7496L37.2904 19.2371L35.9508 19.4049L35.8631 18.7336L37.18 18.5703L39.212 17.5528L39.3314 18.2679ZM37.756 23.9511C37.75 24.4908 37.4053 24.9247 37.4053 24.9247C37.4053 24.9247 37.0681 24.4848 37.0742 23.9451C37.0817 23.4053 37.4264 22.9714 37.4264 22.9714C37.4264 22.9714 37.7621 23.4144 37.756 23.9526M36.802 26.801C36.802 26.801 36.2305 26.2416 36.0415 25.4282C35.8541 24.6163 36.0748 24.0494 36.0748 24.0494C36.0748 24.0494 36.6584 24.4969 36.8459 25.3118C37.0364 26.1222 36.802 26.801 36.802 26.801ZM35.6167 29.1958C35.6167 29.1958 35.1495 28.5427 35.1057 27.7111C35.0618 26.8781 35.3763 26.3595 35.3763 26.3595C35.3763 26.3595 35.8752 26.9008 35.9176 27.7338C35.9629 28.5684 35.6167 29.1973 35.6167 29.1973M39.0139 16.6155L38.4167 16.7984L38.2564 16.2027L35.5063 17.0479L35.3083 16.4038L38.0599 15.5587L37.8649 14.9766L38.4605 14.7952L39.0154 16.6139L39.0139 16.6155ZM37.9752 13.5917L34.8169 15.0643L34.5342 14.452L37.6925 12.9809L37.9752 13.5917ZM20.9469 34.8502C13.2999 34.82 7.12227 28.5941 7.15251 20.9455C7.18275 13.2969 13.4087 7.12086 21.0573 7.1511C28.7044 7.18133 34.8789 13.4073 34.8487 21.0558C34.8199 28.7029 28.594 34.8805 20.9469 34.8502ZM31.2685 33.7949C30.9389 34.5781 30.3463 35.0044 30.3463 35.0044C30.3463 35.0044 30.2057 34.2001 30.5323 33.4139C30.8588 32.6323 31.3759 32.2936 31.3759 32.2936C31.3759 32.2936 31.5951 33.0133 31.2685 33.7965M29.1897 35.1299C28.6968 35.8224 28.0195 36.1006 28.0195 36.1006C28.0195 36.1006 28.0649 35.2841 28.5592 34.5947C29.0536 33.9053 29.6357 33.6936 29.6357 33.6936C29.6357 33.6936 29.6871 34.442 29.1897 35.1299ZM14.1087 36.1021C14.1087 36.1021 13.4314 35.8239 12.937 35.1314C12.4411 34.4435 12.4925 33.6952 12.4925 33.6952C12.4925 33.6952 13.0746 33.9068 13.569 34.5962C14.0649 35.2857 14.1087 36.1021 14.1087 36.1021ZM11.7819 35.0029C11.7819 35.0029 11.1893 34.5766 10.8597 33.7934C10.5331 33.0103 10.7523 32.2906 10.7523 32.2906C10.7523 32.2906 11.2709 32.6308 11.5975 33.4109C11.924 34.1971 11.7819 35.0014 11.7819 35.0014M35.2992 10.893C35.7679 10.5921 36.356 10.6526 36.7506 11.2619C36.8716 11.4524 36.9381 11.6686 36.9411 11.788L36.3953 12.0103C36.3953 11.8969 36.3605 11.7396 36.2547 11.5749C36.099 11.333 35.8767 11.3103 35.721 11.4116C35.5487 11.5219 35.5124 11.6686 35.526 12.107C35.5396 12.6422 35.3385 12.9733 35.0301 13.1714C34.4979 13.5131 33.8932 13.3468 33.5258 12.7753C33.3761 12.5425 33.2884 12.2733 33.2839 12.1433L33.8266 11.9105C33.8357 12.0677 33.9173 12.2975 34.0232 12.4608C34.1955 12.7299 34.4178 12.7723 34.6083 12.6483C34.8199 12.5107 34.8396 12.3142 34.8411 11.9664C34.8275 11.4116 35.0361 11.0623 35.3007 10.893M34.5372 8.35758C34.7882 8.6282 34.9605 8.91546 34.9651 9.22237C34.9711 9.50358 34.8426 9.7092 34.6234 9.91179C34.3513 10.1643 33.9839 10.2595 33.6225 10.1129L33.615 10.1189C33.7087 10.3563 33.6271 10.5936 33.4003 10.8945C33.1629 11.206 32.8953 11.6127 32.8454 11.7442L32.3828 11.1803C32.4266 11.085 32.6292 10.7902 32.8742 10.4923C33.1478 10.1507 33.1644 9.98889 33.0102 9.82259L32.9437 9.75153L31.9307 10.6934L31.4485 10.2187L34.0156 7.83598C34.1683 7.98414 34.3634 8.16859 34.5372 8.35758ZM32.7608 6.67788L32.3964 7.15714L31.7312 6.65671L31.2504 7.29321L31.8824 7.77097L31.5452 8.21848L30.9117 7.74073L30.3478 8.4876L31.0629 9.02734L30.7016 9.51114L29.4497 8.56622L31.5573 5.76924L32.7608 6.67637V6.67788ZM28.3884 4.00336L29.0657 4.30876L28.2024 6.93339L28.2115 6.93792L29.8186 4.69732L30.4582 5.06621L28.1646 7.7876L27.4979 7.44591L28.3869 4.00488L28.3884 4.00336ZM26.6059 3.33814L27.2454 3.55434L26.1191 6.86686L25.4811 6.64915L26.6059 3.33814ZM23.0681 2.58522L23.6698 2.66082L24.1718 5.16298H24.1808L24.5119 2.80142L25.097 2.92388L24.5089 6.37701L23.9087 6.25153L23.437 3.75239H23.4279L23.0711 6.10336L22.48 6.03382L23.0711 2.5822L23.0681 2.58522ZM20.0368 2.493L20.1124 4.75477C20.1305 5.26427 20.2908 5.41244 20.4646 5.4079C20.6597 5.40185 20.7942 5.25671 20.7761 4.73209L20.696 2.47334L21.3733 2.47788L21.4459 4.59148C21.4761 5.48047 21.1571 5.97485 20.4903 5.99753C19.7646 6.02323 19.4653 5.53339 19.4351 4.66557L19.3625 2.5444L20.0368 2.493ZM15.7204 3.21719C15.9713 3.13857 16.1724 3.12647 16.2919 3.1431L16.3554 3.73274C16.248 3.71762 16.118 3.7282 15.9547 3.77961C15.5193 3.92021 15.2668 4.32993 15.5435 5.19321C15.7975 5.98695 16.1981 6.1714 16.4975 6.07615C16.5564 6.0565 16.5973 6.03835 16.6199 6.02172L16.3629 5.22345L16.0696 5.31719L15.9003 4.79256L16.7878 4.50682L17.3532 6.27269C17.2307 6.37701 16.9465 6.53274 16.7061 6.60984C16.3281 6.73079 16.0091 6.71416 15.7173 6.56449C15.3469 6.38155 15.0355 5.94008 14.8631 5.36859C14.4927 4.16362 15.0189 3.44397 15.7189 3.2187M11.664 4.99364L12.7994 5.93101C13.0186 6.11546 13.3815 6.41935 13.6143 6.63706L13.6234 6.63403C13.4284 6.3241 13.0957 5.81913 12.7873 5.26125L12.4109 4.57939L12.94 4.31028L14.6439 7.37939L14.0921 7.6485L12.9733 6.74138C12.7314 6.5403 12.3806 6.2349 12.1614 5.99753L12.1523 6.00358C12.3353 6.30293 12.6165 6.75801 12.9567 7.37032L13.3437 8.06881L12.8357 8.38025L11.1379 5.31416L11.6655 4.99516L11.664 4.99364ZM9.39311 6.56298L12.2053 8.81568L11.6731 9.22086L11.032 8.69472L10.5558 9.09688L10.9625 9.81956L10.4787 10.2731L8.77627 7.08306L9.3916 6.56146L9.39311 6.56298ZM6.65964 9.27075L7.46547 9.63511C7.67562 9.73187 7.91298 9.84829 8.14279 9.97529L8.14884 9.96773C7.98556 9.77269 7.82832 9.56557 7.68016 9.35844L7.18124 8.66298L7.65143 8.15498L8.75661 10.1038L9.79679 10.9882L9.35834 11.5008L8.33933 10.633L6.21363 9.82712L6.65812 9.26924L6.65964 9.27075ZM4.73501 12.1222L7.278 12.5243L7.28404 12.5152L5.1659 11.3844L5.48188 10.8794L8.52681 12.6181L8.18966 13.1412L5.72681 12.7541L5.69808 12.7405L7.76784 13.8774L7.50024 14.4096L4.45229 12.6634L4.73653 12.1222H4.73501ZM3.59959 14.6394L7.16612 15.1217L6.93026 15.7371L6.13199 15.6237L5.93242 16.2148L6.63393 16.6139L6.44949 17.255L3.3456 15.3833L3.59959 14.6409V14.6394ZM7.024 27.7111C6.97864 28.5427 6.51298 29.1958 6.51298 29.1958C6.51298 29.1958 6.16676 28.5684 6.2091 27.7323C6.25445 26.9008 6.75337 26.358 6.75337 26.358C6.75337 26.358 7.06633 26.8766 7.024 27.7096M2.60175 18.8833L4.00478 19.0662L4.097 18.3677L2.68339 18.1848L2.80737 17.5165L6.28016 17.9716L6.15618 18.6399L4.71687 18.4494L4.62465 19.1479L6.06244 19.3384L6.00953 20.0066L2.53523 19.5515L2.60024 18.8833H2.60175ZM6.08815 25.4267C5.89916 26.2401 5.32616 26.7995 5.32616 26.7995C5.32616 26.7995 5.09333 26.1206 5.28231 25.3103C5.46979 24.4969 6.05489 24.0479 6.05489 24.0479C6.05489 24.0479 6.27562 24.6148 6.08815 25.4267ZM5.05704 23.9435C5.06158 24.4833 4.72443 24.9232 4.72443 24.9232C4.72443 24.9232 4.37972 24.4908 4.37216 23.9496C4.36612 23.4114 4.70327 22.9684 4.70327 22.9684C4.70327 22.9684 5.04949 23.4038 5.05704 23.942M2.75445 24.326C2.75445 24.326 3.63739 24.4818 4.2875 25.2181C4.93761 25.9543 5.07216 26.8993 5.07216 26.8993C5.07216 26.8993 4.15143 26.6513 3.50132 25.915C2.8497 25.1787 2.75445 24.326 2.75445 24.326ZM3.54819 27.2258C3.54819 27.2258 4.44625 27.2258 5.21579 27.8366C5.98383 28.4504 6.28016 29.3576 6.28016 29.3576C6.28016 29.3576 5.32918 29.2714 4.55964 28.6576C3.7916 28.0453 3.54819 27.2243 3.54819 27.2243M8.10953 32.2831C8.03394 32.8047 7.69527 33.3852 7.38836 33.3399C7.07843 33.296 6.91666 32.6429 6.98923 32.1213C7.02854 31.8703 7.11622 31.6526 7.23415 31.4969C7.05273 31.5664 6.81687 31.5906 6.56741 31.5558C6.0443 31.4818 5.46223 31.1401 5.50758 30.8317C5.55294 30.5247 6.20607 30.363 6.72767 30.4386C6.97864 30.4749 7.19787 30.5641 7.35057 30.6805C7.28253 30.499 7.25683 30.2632 7.29311 30.0137C7.36871 29.4906 7.70737 28.9085 8.01579 28.9539C8.32422 28.9993 8.4875 29.6524 8.41191 30.174C8.37562 30.425 8.28642 30.6427 8.16698 30.7969C8.34992 30.7273 8.58426 30.7031 8.83523 30.7409C9.35683 30.8135 9.9389 31.1537 9.89657 31.4621C9.85121 31.7705 9.19808 31.9338 8.67346 31.8567C8.424 31.8219 8.20478 31.7327 8.05057 31.6133C8.12011 31.7962 8.1443 32.0321 8.10802 32.2831M9.80435 35.3189C8.89873 35.1103 8.35748 34.5131 8.35748 34.5131C8.35748 34.5131 9.12098 34.1457 10.0236 34.3513C10.9277 34.56 11.5506 35.2101 11.5506 35.2101C11.5506 35.2101 10.7055 35.5245 9.80435 35.3189ZM12.3428 36.8656C11.4584 36.8686 10.8264 36.4286 10.8264 36.4286C10.8264 36.4286 11.4554 35.9237 12.3383 35.9222C13.2227 35.9176 13.9409 36.3878 13.9409 36.3878C13.9409 36.3878 13.2243 36.8625 12.3413 36.8656M17.1536 37.1876C16.9329 37.2965 16.7076 37.3463 16.5141 37.3373C16.6713 37.4461 16.8225 37.6215 16.9299 37.8422C17.1597 38.3064 17.2081 38.9625 16.9344 39.0956C16.6608 39.2332 16.1679 38.7932 15.9396 38.3321C15.8292 38.1083 15.7824 37.8815 15.7899 37.6926C15.6811 37.8483 15.5057 37.9995 15.2819 38.1083C14.8193 38.3366 14.1631 38.3835 14.0271 38.1098C13.8925 37.8377 14.3294 37.3448 14.7936 37.115C15.0158 37.0047 15.2411 36.9593 15.4331 36.9669C15.2759 36.8565 15.1277 36.6826 15.0158 36.4604C14.7891 35.9977 14.7407 35.3401 15.0143 35.2055C15.288 35.0695 15.7793 35.5079 16.0091 35.972C16.118 36.1928 16.1664 36.4196 16.1573 36.6085C16.2662 36.4543 16.44 36.3016 16.6638 36.1928C17.1279 35.9645 17.7841 35.9161 17.9202 36.1898C18.0547 36.4649 17.6163 36.9563 17.1521 37.1846M21.0029 38.769C20.6143 38.769 20.2999 38.4546 20.2999 38.066C20.2999 37.6774 20.6143 37.366 21.0029 37.366C21.3914 37.366 21.7044 37.6805 21.7044 38.066C21.7044 38.4515 21.3899 38.769 21.0029 38.769ZM28.0981 38.1114C27.9636 38.385 27.3044 38.3366 26.8448 38.1098C26.6225 38.001 26.4456 37.8498 26.3368 37.6941C26.3459 37.8846 26.296 38.1098 26.1856 38.3336C25.9588 38.7947 25.4659 39.2347 25.1938 39.0971C24.9186 38.9641 24.9685 38.3079 25.1968 37.8438C25.3057 37.623 25.4554 37.4476 25.6111 37.3388C25.4191 37.3479 25.1953 37.298 24.9716 37.1891C24.5074 36.9623 24.069 36.4695 24.205 36.1943C24.3381 35.9206 24.9957 35.969 25.4599 36.1973C25.6821 36.3062 25.8575 36.4589 25.9664 36.6131C25.9558 36.4226 26.0057 36.1973 26.1145 35.9766C26.3428 35.5124 26.8342 35.074 27.1078 35.2101C27.3815 35.3446 27.3331 36.0023 27.1048 36.4649C26.9945 36.6872 26.8463 36.861 26.6891 36.9714C26.8796 36.9638 27.1063 37.0092 27.3271 37.1196C27.7912 37.3494 28.2297 37.8407 28.0936 38.1144M29.7869 36.8656C28.9055 36.8641 28.1888 36.3878 28.1888 36.3878C28.1888 36.3878 28.907 35.9176 29.7914 35.9222C30.6759 35.9222 31.3048 36.4286 31.3048 36.4286C31.3048 36.4286 30.6713 36.8686 29.7869 36.8656ZM32.3253 35.3189C31.4227 35.5245 30.5791 35.2101 30.5791 35.2101C30.5791 35.2101 31.202 34.5584 32.1061 34.3513C33.0072 34.1457 33.7722 34.5131 33.7722 34.5131C33.7722 34.5131 33.231 35.1118 32.3253 35.3189ZM35.5593 31.5543C35.3113 31.5906 35.0754 31.5664 34.894 31.4954C35.0119 31.6526 35.1027 31.8703 35.1389 32.1198C35.2145 32.6414 35.0513 33.2945 34.7443 33.3384C34.4344 33.3837 34.0958 32.8032 34.0217 32.2816C33.9854 32.0306 34.0096 31.7962 34.0791 31.6118C33.9234 31.7297 33.7042 31.8204 33.4547 31.8552C32.9316 31.9323 32.2785 31.769 32.2346 31.4606C32.1908 31.1522 32.7713 30.8135 33.296 30.7394C33.5454 30.7016 33.7813 30.7258 33.9627 30.7954C33.8433 30.6412 33.7541 30.4219 33.7178 30.1725C33.6422 29.6509 33.804 28.9962 34.1139 28.9524C34.4223 28.9085 34.7595 29.4891 34.8366 30.0122C34.8729 30.2617 34.8456 30.4975 34.7791 30.679C34.9333 30.561 35.151 30.4718 35.402 30.4371C35.9236 30.3615 36.5783 30.5232 36.6221 30.8301C36.6675 31.1386 36.0854 31.4787 35.5608 31.5543M37.567 28.6576C36.799 29.2699 35.848 29.3576 35.848 29.3576C35.848 29.3576 36.1443 28.4504 36.9139 27.8366C37.685 27.2258 38.5815 27.2258 38.5815 27.2258C38.5815 27.2258 38.3396 28.0468 37.5685 28.6591M38.6284 25.915C37.9767 26.6513 37.0545 26.8993 37.0545 26.8993C37.0545 26.8993 37.1891 25.9558 37.8392 25.2181C38.4923 24.4818 39.3752 24.326 39.3752 24.326C39.3752 24.326 39.2785 25.1787 38.6284 25.915ZM15.7279 36.6509C15.4528 36.7869 15.3379 37.1226 15.4724 37.3993C15.6115 37.6759 15.9472 37.7878 16.2238 37.6502C16.5005 37.5157 16.6139 37.1785 16.4778 36.9049C16.3418 36.6267 16.0076 36.5133 15.7279 36.6494M8.26676 31.2278C8.31061 30.9163 8.09441 30.6276 7.78447 30.5807C7.47303 30.5368 7.18124 30.753 7.1389 31.066C7.09203 31.3774 7.30823 31.6677 7.62119 31.7131C7.93264 31.7569 8.22292 31.5407 8.26676 31.2278ZM4.11061 15.2442L4.10456 15.2578C4.3132 15.3666 4.63674 15.5314 4.81666 15.6297L5.45769 15.982L5.61493 15.5148L4.89074 15.3893C4.68059 15.3561 4.3389 15.2895 4.1091 15.2442M26.4003 36.6509C26.1221 36.5148 25.788 36.6282 25.6504 36.9064C25.5143 37.1816 25.6292 37.5187 25.9059 37.6517C26.1811 37.7893 26.5167 37.6774 26.6543 37.4008C26.7903 37.1226 26.6754 36.7885 26.3988 36.6524M10.0901 7.85412C9.92681 7.71503 9.66828 7.48371 9.49592 7.32496L9.48383 7.33555C9.60478 7.53511 9.7983 7.84354 9.90111 8.02043L10.2685 8.6539L10.645 8.3349L10.0901 7.85412ZM34.3452 30.5807C34.0353 30.6276 33.8176 30.9163 33.8629 31.2278C33.9083 31.5407 34.1955 31.7569 34.5085 31.7131C34.8215 31.6677 35.0377 31.3774 34.9923 31.066C34.9485 30.753 34.6582 30.5368 34.3467 30.5807M34.1154 9.45671C34.3301 9.25714 34.4042 9.02734 34.2046 8.79753C34.1653 8.7552 34.1169 8.70984 34.0821 8.69321L33.3217 9.39926L33.4033 9.48544C33.6029 9.70012 33.8901 9.66384 34.1139 9.45671" fill="white"/>
<path d="M18.2272 28.916L18.2831 28.9478C18.2831 28.9659 18.2861 28.9841 18.2907 29.0098C18.2937 29.0339 18.3027 29.0566 18.3148 29.0733C18.3466 29.1186 18.3889 29.1579 18.4418 29.1897C18.4963 29.2229 18.5522 29.2501 18.6142 29.2698C18.6747 29.291 18.7382 29.3076 18.7986 29.3152C18.8606 29.3242 18.9196 29.3288 18.9695 29.3288C19.4578 29.3288 19.7194 29.0521 19.7526 28.5033C19.6196 28.5774 19.4865 28.6393 19.3565 28.6923C19.2235 28.7452 19.0859 28.7709 18.9408 28.7709C18.8274 28.7709 18.711 28.7542 18.5915 28.724C18.4721 28.6923 18.3647 28.6439 18.2695 28.5774C18.1727 28.5108 18.0941 28.4247 18.0336 28.3203C17.9732 28.216 17.9414 28.0905 17.9414 27.9424C17.9414 27.7655 17.9762 27.6128 18.0487 27.4873C18.1168 27.3618 18.2105 27.2575 18.3239 27.1758C18.4373 27.0942 18.5643 27.0352 18.7034 26.9959C18.844 26.9566 18.9816 26.9385 19.1207 26.9385C19.293 26.9385 19.4518 26.9702 19.5954 27.0352C19.7375 27.0987 19.863 27.191 19.9658 27.3074C20.0686 27.4238 20.1503 27.5629 20.2047 27.7231C20.2621 27.8834 20.2909 28.0603 20.2909 28.2523C20.2909 28.4806 20.2576 28.6847 20.1941 28.8661C20.1306 29.0491 20.0384 29.2063 19.9205 29.3378C19.7995 29.4694 19.6604 29.5676 19.4941 29.6372C19.3293 29.7037 19.1434 29.7385 18.9408 29.7385C18.8002 29.7385 18.6777 29.7264 18.5809 29.7052C18.4811 29.681 18.398 29.6553 18.333 29.6206C18.2665 29.5888 18.2135 29.5601 18.1727 29.5329C18.1319 29.5072 18.0971 29.4936 18.0729 29.4936C18.0397 29.4936 18.0079 29.5056 17.9853 29.5253L17.9475 29.4875L18.2302 28.913L18.2272 28.916ZM18.8561 27.4162C18.7835 27.4313 18.72 27.4571 18.6626 27.4948C18.6066 27.5296 18.5613 27.5795 18.528 27.64C18.4948 27.7005 18.4781 27.7761 18.4781 27.8668C18.4781 27.9575 18.4948 28.0331 18.528 28.0936C18.5613 28.154 18.6066 28.2024 18.6626 28.2387C18.72 28.2735 18.7835 28.3007 18.8561 28.3158C18.9287 28.3309 19.0027 28.3385 19.0783 28.3385C19.1539 28.3385 19.225 28.3309 19.2991 28.3158C19.3716 28.2992 19.4351 28.2735 19.4926 28.2387C19.55 28.2009 19.5954 28.154 19.6287 28.0936C19.6604 28.0316 19.6755 27.9575 19.6755 27.8668C19.6755 27.7761 19.6604 27.7005 19.6287 27.64C19.5954 27.5795 19.55 27.5296 19.4926 27.4948C19.4367 27.4586 19.3716 27.4313 19.2991 27.4162C19.225 27.4011 19.1539 27.392 19.0783 27.392C19.0027 27.392 18.9287 27.4011 18.8561 27.4162Z" fill="white"/>
<path d="M23.335 28.916L23.3909 28.9478C23.3909 28.9659 23.394 28.9841 23.4 29.0098C23.403 29.0339 23.4121 29.0566 23.4242 29.0733C23.4575 29.1186 23.4983 29.1579 23.5527 29.1897C23.6056 29.2229 23.6631 29.2501 23.7235 29.2698C23.784 29.291 23.8475 29.3076 23.9095 29.3152C23.9715 29.3242 24.0289 29.3288 24.0788 29.3288C24.5687 29.3288 24.8287 29.0521 24.862 28.5033C24.7305 28.5774 24.5974 28.6393 24.4659 28.6923C24.3343 28.7452 24.1937 28.7709 24.0501 28.7709C23.9367 28.7709 23.8203 28.7542 23.7009 28.724C23.5814 28.6923 23.4726 28.6439 23.3773 28.5774C23.2821 28.5108 23.2035 28.4247 23.1415 28.3203C23.081 28.216 23.0508 28.0905 23.0508 27.9424C23.0508 27.7655 23.087 27.6128 23.1581 27.4873C23.2276 27.3618 23.3199 27.2575 23.4333 27.1758C23.5467 27.0942 23.6737 27.0352 23.8127 26.9959C23.9518 26.9566 24.0924 26.9385 24.2285 26.9385C24.4009 26.9385 24.5596 26.9702 24.7032 27.0352C24.8469 27.0987 24.9724 27.191 25.0737 27.3074C25.1765 27.4238 25.2566 27.5629 25.314 27.7231C25.37 27.8834 25.3987 28.0603 25.3987 28.2523C25.3987 28.4806 25.3685 28.6847 25.3019 28.8661C25.2384 29.0491 25.1462 29.2063 25.0283 29.3378C24.9089 29.4694 24.7683 29.5676 24.6019 29.6372C24.4372 29.7037 24.2527 29.7385 24.0486 29.7385C23.908 29.7385 23.787 29.7264 23.6888 29.7052C23.589 29.681 23.5058 29.6553 23.4408 29.6206C23.3743 29.5888 23.3214 29.5601 23.2821 29.5329C23.2397 29.5072 23.208 29.4936 23.1823 29.4936C23.149 29.4936 23.1188 29.5056 23.0931 29.5253L23.0568 29.4875L23.3395 28.913L23.335 28.916ZM23.9639 27.4162C23.8914 27.4313 23.8264 27.4571 23.7689 27.4948C23.7145 27.5296 23.6676 27.5795 23.6343 27.64C23.6026 27.7005 23.5845 27.7761 23.5845 27.8668C23.5845 27.9575 23.6026 28.0331 23.6343 28.0936C23.6676 28.154 23.7145 28.2024 23.7689 28.2387C23.8264 28.2735 23.8898 28.3007 23.9639 28.3158C24.0365 28.3309 24.1091 28.3385 24.1862 28.3385C24.2633 28.3385 24.3328 28.3309 24.4069 28.3158C24.4795 28.2992 24.5445 28.2735 24.6019 28.2387C24.6579 28.2009 24.7017 28.154 24.7365 28.0936C24.7683 28.0316 24.7849 27.9575 24.7849 27.8668C24.7849 27.7761 24.7683 27.7005 24.7365 27.64C24.7017 27.5795 24.6579 27.5296 24.6019 27.4948C24.5445 27.4586 24.4795 27.4313 24.4069 27.4162C24.3343 27.4011 24.2618 27.392 24.1862 27.392C24.1106 27.392 24.0365 27.4011 23.9639 27.4162Z" fill="white"/>
<path d="M20.487 27.3512L20.5429 27.3043C20.5671 27.3209 20.5943 27.3285 20.6216 27.3285C20.6397 27.3285 20.6654 27.3088 20.7092 27.268C20.7516 27.2272 20.8136 27.1849 20.8952 27.135C20.9768 27.0836 21.0797 27.0412 21.2082 27.0019C21.3352 26.9611 21.4909 26.9399 21.6723 26.9399C21.7948 26.9399 21.9172 26.952 22.0412 26.9792C22.1652 27.008 22.2771 27.0518 22.3768 27.1153C22.4781 27.1758 22.5628 27.2529 22.6263 27.3497C22.6913 27.4449 22.7216 27.5613 22.7216 27.6959C22.7216 27.8229 22.6898 27.9378 22.6233 28.0436C22.5568 28.151 22.4676 28.2175 22.3542 28.2462V28.2568C22.4872 28.29 22.5976 28.3596 22.6838 28.4639C22.7699 28.5667 22.8138 28.6967 22.8138 28.854C22.8138 29.0309 22.773 29.179 22.6943 29.2939C22.6142 29.4104 22.5129 29.5011 22.3965 29.5691C22.2771 29.6386 22.1455 29.6825 22.0049 29.7037C21.8643 29.7278 21.7298 29.7384 21.6043 29.7384C21.4622 29.7384 21.3306 29.7233 21.2082 29.6931C21.0842 29.6643 20.9768 29.6281 20.8831 29.5903C20.7894 29.551 20.7108 29.5147 20.6503 29.4799C20.5883 29.4481 20.5444 29.4315 20.5203 29.4315C20.5051 29.4315 20.4915 29.4345 20.4794 29.4436C20.4689 29.4497 20.4583 29.4572 20.4447 29.4618L20.4023 29.4481L20.676 28.6967L20.7274 28.7255C20.7244 28.7345 20.7213 28.7451 20.7213 28.7633V28.7996C20.7213 28.8797 20.7561 28.9523 20.8257 29.0142C20.8952 29.0793 20.9753 29.1322 21.0721 29.1745C21.1689 29.2183 21.2702 29.2516 21.373 29.2758C21.4803 29.297 21.568 29.3091 21.6391 29.3091C21.695 29.3091 21.763 29.303 21.8401 29.2894C21.9157 29.2773 21.9898 29.2546 22.0548 29.2229C22.1213 29.1911 22.1788 29.1488 22.2257 29.0959C22.2725 29.0399 22.2967 28.9689 22.2967 28.8812C22.2967 28.7935 22.274 28.7285 22.2302 28.6801C22.1848 28.6272 22.1304 28.5894 22.0639 28.5607C21.9989 28.5335 21.9293 28.5153 21.8552 28.5062C21.7827 28.4972 21.7192 28.4926 21.6663 28.4926C21.5892 28.4926 21.5257 28.5002 21.4697 28.5168C21.4153 28.5319 21.3775 28.5713 21.3594 28.6348H21.3034V27.9227H21.3594C21.3654 27.9922 21.4002 28.0391 21.4591 28.0602C21.5211 28.0844 21.5892 28.095 21.6648 28.095C21.7146 28.095 21.7736 28.0905 21.8386 28.0799C21.9036 28.0693 21.9656 28.0512 22.0231 28.024C22.0805 27.9952 22.1289 27.9559 22.1697 27.9091C22.2105 27.8607 22.2317 27.7987 22.2317 27.7261C22.2317 27.6535 22.2136 27.6006 22.1773 27.5568C22.1425 27.5129 22.0956 27.4797 22.0382 27.4555C21.9792 27.4313 21.9172 27.4132 21.8447 27.4056C21.7751 27.398 21.7041 27.392 21.6315 27.392C21.5468 27.392 21.4606 27.4026 21.373 27.4253C21.2853 27.4434 21.2051 27.4721 21.1326 27.5084C21.0615 27.5417 21.001 27.5825 20.9542 27.6233C20.9058 27.6656 20.8831 27.708 20.8831 27.7488C20.8831 27.7654 20.8861 27.7805 20.8876 27.7987C20.8907 27.8199 20.8952 27.838 20.9013 27.8546L20.8604 27.8864L20.4825 27.3512H20.487Z" fill="white"/>
<path d="M16.8479 29.6643C16.8811 29.6643 16.9068 29.6553 16.931 29.6341C16.9537 29.616 16.9673 29.5767 16.9673 29.5162V27.7669C16.9431 27.7669 16.9189 27.7669 16.8902 27.773C16.86 27.7745 16.8312 27.7805 16.8025 27.7896C16.7738 27.7987 16.7481 27.8108 16.7254 27.8274C16.7012 27.8425 16.6861 27.8652 16.677 27.8924H16.6211V27.2332H16.677C16.677 27.2635 16.6906 27.2862 16.7194 27.2967C16.7496 27.3104 16.7738 27.3164 16.7995 27.3164C16.8524 27.3164 16.8978 27.2967 16.934 27.2605C16.9718 27.2257 16.9885 27.1803 16.9885 27.1274C16.9885 27.079 16.9794 27.0473 16.9582 27.0352C16.9371 27.0201 16.9114 27.0095 16.8751 27.0019V26.9399H17.6356V27.0019C17.5993 27.0095 17.5675 27.0231 17.5418 27.0382C17.5176 27.0564 17.5055 27.0821 17.5055 27.1168V29.5162C17.5055 29.5767 17.5191 29.616 17.5418 29.6341C17.5675 29.6553 17.5962 29.6643 17.628 29.6643V29.7263H16.8509V29.6643H16.8479Z" fill="white"/>
</g>
</g>
<defs>
<clipPath id="clip0_1653_5877">
<rect width="139" height="42" fill="white"/>
</clipPath>
</defs>
</svg>
