<svg width="298" height="42" viewBox="0 0 298 42" fill="none" xmlns="http://www.w3.org/2000/svg">
<g clip-path="url(#clip0_1637_8494)">
<path d="M21.032 0.835999C17.0438 0.837581 13.1457 2.02172 9.83049 4.23871C6.5153 6.45569 3.93195 9.60595 2.40711 13.2911C0.882271 16.9763 0.484429 21.0308 1.26389 24.9421C2.04335 28.8534 3.96511 32.4457 6.78615 35.2647C9.6072 38.0838 13.2008 40.0031 17.1126 40.7798C21.0244 41.5566 25.0787 41.1559 28.7628 39.6285C32.4469 38.1011 35.5954 35.5156 37.8101 32.1989C40.0247 28.8821 41.2062 24.9832 41.205 20.995C41.196 15.6488 39.0673 10.5244 35.2857 6.74542C31.5041 2.96642 26.3782 0.841286 21.032 0.835999ZM37.798 12.136C37.8053 12.1219 37.8173 12.1109 37.832 12.105C37.851 12.0925 37.8707 12.0811 37.891 12.071C37.9097 12.0608 37.9295 12.0527 37.95 12.047C37.9644 12.0394 37.9807 12.0359 37.997 12.037C38.013 12.037 38.022 12.037 38.029 12.047C38.036 12.057 38.046 12.06 38.046 12.064L38.778 13.603V13.636C38.778 13.645 38.778 13.658 38.765 13.663C38.7615 13.6704 38.7563 13.677 38.7499 13.6822C38.7435 13.6874 38.736 13.6911 38.728 13.693C38.7132 13.7068 38.6963 13.7183 38.678 13.727C38.6558 13.7357 38.6331 13.743 38.61 13.749C38.5971 13.7559 38.5826 13.759 38.568 13.758C38.5579 13.7584 38.548 13.7552 38.54 13.749C38.531 13.742 38.519 13.739 38.519 13.731L38.225 13.107L36.243 14.047C36.235 14.047 36.224 14.052 36.215 14.047C36.2088 14.0465 36.2029 14.0445 36.1977 14.0412C36.1924 14.0379 36.1881 14.0334 36.185 14.028C36.1731 14.0188 36.163 14.0077 36.155 13.995C36.147 13.972 36.13 13.948 36.121 13.919C36.1031 13.8985 36.0931 13.8722 36.093 13.845C36.0835 13.8303 36.078 13.8134 36.077 13.796C36.077 13.781 36.077 13.772 36.084 13.772C36.091 13.772 36.093 13.749 36.104 13.749L38.088 12.812L37.796 12.195C37.787 12.18 37.78 12.171 37.787 12.161C37.7883 12.149 37.7921 12.1375 37.798 12.127V12.136ZM37.33 10.91C37.3443 10.9124 37.358 10.9178 37.37 10.926C37.379 10.939 37.396 10.953 37.409 10.973C37.4292 10.9974 37.4464 11.0243 37.46 11.053C37.483 11.089 37.499 11.122 37.509 11.138C37.5232 11.1552 37.5325 11.1759 37.536 11.198C37.5404 11.2116 37.5404 11.2263 37.536 11.24C37.5367 11.2478 37.5351 11.2557 37.5314 11.2627C37.5277 11.2696 37.522 11.2753 37.515 11.279L35.939 13.204C35.917 13.227 35.902 13.247 35.889 13.257C35.8824 13.2608 35.8751 13.2632 35.8675 13.264C35.86 13.2649 35.8523 13.2642 35.845 13.262C35.834 13.262 35.823 13.249 35.808 13.227C35.787 13.2029 35.7679 13.1771 35.751 13.15C35.735 13.118 35.72 13.091 35.708 13.072C35.6991 13.0536 35.6917 13.0346 35.686 13.015C35.6852 13.007 35.687 12.9989 35.691 12.992C35.699 12.977 35.703 12.977 35.708 12.962L36.123 12.462L35.592 11.589L34.967 11.734C34.9553 11.739 34.9426 11.7411 34.93 11.74C34.921 11.74 34.917 11.734 34.899 11.722C34.8866 11.7127 34.877 11.7003 34.871 11.686C34.8508 11.6667 34.8324 11.6456 34.816 11.623C34.799 11.586 34.783 11.561 34.775 11.538C34.7656 11.522 34.7624 11.5032 34.766 11.485C34.7725 11.4721 34.7821 11.4611 34.794 11.453C34.809 11.438 34.83 11.438 34.863 11.431L37.291 10.911L37.33 10.91ZM35.322 8.384C35.36 8.349 35.397 8.335 35.422 8.349C35.447 8.363 35.483 8.36799 35.501 8.39099L35.846 8.82498C35.9682 8.96182 36.0626 9.1211 36.124 9.29398C36.1688 9.43675 36.1828 9.58742 36.165 9.73599C36.1434 9.88424 36.091 10.0263 36.011 10.153C35.9162 10.3008 35.7964 10.4311 35.657 10.538C35.5084 10.6605 35.3422 10.7599 35.164 10.833C35.0157 10.8897 34.8577 10.9162 34.699 10.911C34.5458 10.8932 34.3987 10.8405 34.269 10.757C34.1137 10.6587 33.9766 10.5342 33.864 10.389L33.536 9.98099C33.52 9.95916 33.511 9.93302 33.51 9.90598C33.5114 9.88598 33.5173 9.86658 33.5274 9.84924C33.5374 9.83191 33.5513 9.81712 33.568 9.806L35.322 8.384ZM33.415 6.38998C33.432 6.38836 33.4491 6.39029 33.4653 6.39563C33.4814 6.40097 33.4963 6.40959 33.509 6.42099L33.619 6.53699C33.6459 6.55407 33.6693 6.57614 33.688 6.60199C33.6999 6.62492 33.7093 6.64905 33.716 6.67398C33.7203 6.70315 33.7203 6.73282 33.716 6.76199C33.711 6.79499 33.699 6.82298 33.688 6.87698L33.361 8.077C33.342 8.149 33.32 8.21999 33.302 8.28799C33.284 8.35599 33.261 8.427 33.242 8.495C33.223 8.56299 33.206 8.62798 33.185 8.69498C33.164 8.76198 33.144 8.823 33.124 8.888V8.89297C33.197 8.80797 33.264 8.72698 33.341 8.65198C33.418 8.57698 33.488 8.48699 33.561 8.41199L34.49 7.405C34.49 7.399 34.498 7.399 34.512 7.392C34.5219 7.39067 34.5319 7.39316 34.54 7.39899C34.5569 7.40136 34.5724 7.40949 34.584 7.422C34.6082 7.43585 34.6313 7.45156 34.653 7.46899C34.6675 7.49014 34.685 7.50901 34.705 7.52499C34.718 7.5376 34.7273 7.55349 34.732 7.57098C34.7356 7.58169 34.7356 7.5933 34.732 7.604C34.7337 7.61056 34.7337 7.61743 34.732 7.62399L33.145 9.34C33.1312 9.35584 33.1146 9.36905 33.096 9.379C33.0776 9.38622 33.0578 9.38929 33.038 9.388C33.023 9.388 33.004 9.381 32.98 9.379C32.956 9.377 32.952 9.36198 32.946 9.34598L32.861 9.276C32.8427 9.25367 32.8256 9.23029 32.81 9.20599C32.7936 9.18539 32.7838 9.16028 32.782 9.134C32.7715 9.09843 32.7715 9.06056 32.782 9.02499C32.7845 8.97671 32.7946 8.92913 32.812 8.884L33.24 7.32098C33.259 7.24798 33.276 7.15498 33.307 7.06198C33.338 6.96898 33.36 6.90198 33.39 6.82098H33.387C33.326 6.89198 33.261 6.96499 33.194 7.03299C33.1317 7.10892 33.0649 7.18105 32.994 7.24899L31.966 8.37399C31.9557 8.37369 31.9454 8.37575 31.936 8.38C31.9312 8.38151 31.9261 8.38173 31.9212 8.38068C31.9163 8.37962 31.9118 8.37733 31.908 8.37399C31.8929 8.37044 31.8781 8.3654 31.864 8.35898C31.8419 8.34045 31.8218 8.31969 31.804 8.297C31.7826 8.28365 31.7637 8.26672 31.748 8.24698C31.7361 8.23372 31.726 8.21894 31.718 8.203C31.711 8.203 31.71 8.17798 31.711 8.16998C31.712 8.16198 31.718 8.15598 31.724 8.14798L33.306 6.43399C33.3166 6.41555 33.3327 6.40096 33.3522 6.39233C33.3716 6.3837 33.3932 6.38147 33.414 6.38599L33.415 6.38998ZM31.087 4.72699C31.087 4.71999 31.097 4.70898 31.106 4.70898C31.115 4.70898 31.128 4.69998 31.141 4.70898C31.1554 4.71315 31.1692 4.71921 31.182 4.72699C31.202 4.72699 31.225 4.75299 31.254 4.76099C31.283 4.76899 31.296 4.79499 31.314 4.81299C31.332 4.83099 31.343 4.843 31.349 4.853C31.355 4.863 31.358 4.871 31.358 4.883C31.3583 4.88741 31.3577 4.89183 31.3561 4.89597C31.3545 4.9001 31.3521 4.90385 31.349 4.90698L30.488 6.17398C30.4276 6.25614 30.3819 6.34818 30.353 6.44598C30.3294 6.52742 30.3213 6.61256 30.329 6.69699C30.3384 6.77477 30.3677 6.84881 30.414 6.91199C30.4625 6.98105 30.5231 7.04068 30.593 7.08798C30.6652 7.13602 30.745 7.17153 30.829 7.19299C30.903 7.21281 30.981 7.21281 31.055 7.19299C31.1339 7.17277 31.2087 7.13893 31.276 7.09299C31.353 7.02669 31.4203 6.94995 31.476 6.86499L32.347 5.59799C32.347 5.57899 32.355 5.57199 32.369 5.57199C32.3708 5.57005 32.3729 5.5685 32.3754 5.56744C32.3778 5.56638 32.3804 5.56583 32.383 5.56583C32.3856 5.56583 32.3882 5.56638 32.3907 5.56744C32.3931 5.5685 32.3952 5.57005 32.397 5.57199C32.413 5.57199 32.425 5.57899 32.45 5.59799C32.4739 5.59995 32.4961 5.61106 32.512 5.629C32.5361 5.64057 32.5578 5.65651 32.576 5.67599C32.591 5.68899 32.604 5.704 32.604 5.715C32.6093 5.71746 32.614 5.7212 32.6175 5.72592C32.6209 5.73064 32.6232 5.73619 32.624 5.742C32.624 5.754 32.619 5.76499 32.619 5.77399L31.746 7.04898C31.6687 7.16508 31.5716 7.26665 31.459 7.349C31.3613 7.42066 31.2501 7.47169 31.132 7.49899C31.0148 7.52526 30.8928 7.52043 30.778 7.48499C30.6478 7.45131 30.5251 7.39367 30.416 7.315C30.3122 7.24792 30.2211 7.16293 30.147 7.064C30.0824 6.97255 30.0374 6.8687 30.015 6.759C29.9891 6.64216 29.9936 6.5206 30.028 6.40598C30.0649 6.2721 30.1234 6.14513 30.201 6.03L31.087 4.72699ZM28.159 3.99399C28.2608 3.8752 28.3861 3.77885 28.527 3.711C28.6622 3.64883 28.8103 3.61967 28.959 3.62598C29.1256 3.63142 29.2888 3.67487 29.436 3.75299C29.5843 3.81978 29.7179 3.91529 29.829 4.034C29.9243 4.13802 29.9929 4.26361 30.029 4.39999C30.0618 4.54564 30.0638 4.69651 30.035 4.84299C29.9983 5.02544 29.9377 5.20228 29.855 5.36899C29.7784 5.53574 29.6773 5.69012 29.555 5.827C29.4522 5.9482 29.3247 6.04604 29.181 6.11398C29.0489 6.17934 28.9022 6.20965 28.755 6.202C28.586 6.19284 28.4206 6.14926 28.269 6.07397C28.1214 6.00545 27.9879 5.9102 27.875 5.793C27.7838 5.68745 27.7185 5.56215 27.684 5.427C27.6503 5.27889 27.6503 5.1251 27.684 4.97699C27.7178 4.79294 27.7781 4.61477 27.863 4.448C27.9407 4.28307 28.0403 4.12935 28.159 3.991V3.99399ZM25.831 5.03799L26.563 2.81598C26.5679 2.79615 26.5772 2.77769 26.5901 2.76193C26.6031 2.74618 26.6195 2.73354 26.638 2.72498C26.6662 2.71506 26.6969 2.71506 26.725 2.72498L27.769 3.077C27.78 3.077 27.785 3.077 27.791 3.09C27.7976 3.10006 27.8024 3.11123 27.805 3.12299C27.8076 3.13754 27.8076 3.15244 27.805 3.16699C27.805 3.19199 27.792 3.20599 27.786 3.23499C27.7812 3.2543 27.7723 3.27238 27.76 3.28799C27.755 3.30544 27.7461 3.32151 27.734 3.33499C27.7235 3.33918 27.7123 3.34153 27.701 3.34198C27.701 3.34998 27.69 3.34998 27.682 3.34198L26.828 3.06598L26.559 3.87299L27.359 4.142C27.366 4.151 27.37 4.15099 27.384 4.15799C27.388 4.16614 27.3903 4.17496 27.391 4.18399C27.3971 4.19032 27.4004 4.19873 27.4004 4.20749C27.4004 4.21624 27.3971 4.22466 27.391 4.23099C27.3903 4.25365 27.3856 4.27601 27.377 4.297C27.366 4.319 27.36 4.34 27.351 4.354C27.342 4.368 27.338 4.37898 27.327 4.38898C27.32 4.39869 27.3107 4.40659 27.3 4.41199H27.277L26.464 4.14099L26.134 5.14099C26.1338 5.14623 26.1319 5.15127 26.1287 5.1554C26.1255 5.15952 26.121 5.16254 26.116 5.164C26.116 5.172 26.106 5.17999 26.091 5.17999C26.076 5.17999 26.056 5.172 26.04 5.172C26.0127 5.16748 25.9862 5.15939 25.961 5.14798C25.9356 5.1427 25.9113 5.13325 25.889 5.12C25.8732 5.11459 25.8589 5.10571 25.847 5.09399C25.8371 5.0888 25.8293 5.0803 25.825 5.06998C25.8235 5.06421 25.8232 5.05821 25.8243 5.05234C25.8253 5.04647 25.8276 5.04087 25.831 5.03598V5.03799ZM23.766 2.12799C23.766 2.11099 23.766 2.10499 23.78 2.09799C23.794 2.09099 23.793 2.08899 23.806 2.08099H23.864C23.8893 2.08007 23.9146 2.08311 23.939 2.09C23.9632 2.0917 23.987 2.0978 24.009 2.108C24.0285 2.10914 24.047 2.1165 24.062 2.129C24.0677 2.1308 24.073 2.1339 24.0773 2.13806C24.0817 2.14222 24.085 2.14733 24.087 2.15298C24.087 2.15298 24.087 2.16298 24.087 2.17798L23.726 4.33298L24.602 4.47498C24.6104 4.47896 24.6184 4.48365 24.626 4.48898C24.6337 4.49867 24.6392 4.50996 24.642 4.522C24.6487 4.535 24.6521 4.5494 24.652 4.564C24.6503 4.58504 24.6463 4.60581 24.64 4.62598C24.635 4.65098 24.627 4.67699 24.625 4.69199C24.6222 4.70763 24.6157 4.72237 24.606 4.73499C24.6048 4.7408 24.6021 4.74623 24.5983 4.75076C24.5944 4.7553 24.5895 4.75881 24.584 4.76099C24.5735 4.7637 24.5625 4.7637 24.552 4.76099L23.481 4.58499C23.4659 4.58519 23.4509 4.58197 23.4373 4.57556C23.4236 4.56915 23.4115 4.55974 23.402 4.548C23.3798 4.51332 23.3719 4.47138 23.38 4.431L23.766 2.12799ZM20.896 4.34299C20.8979 4.31768 20.9062 4.29328 20.92 4.272L21.854 1.97198C21.8588 1.95955 21.8672 1.94877 21.878 1.94098C21.878 1.93198 21.894 1.92899 21.908 1.92099C21.9284 1.91428 21.9496 1.91025 21.971 1.909H22.066C22.107 1.917 22.147 1.91699 22.166 1.92099C22.1857 1.92603 22.2058 1.92969 22.226 1.93198C22.2404 1.93828 22.253 1.94789 22.263 1.95999C22.2738 1.96949 22.2806 1.98269 22.282 1.99698L22.992 4.38098C23.0012 4.40322 23.0063 4.42694 23.007 4.45099C23.007 4.46617 23.0013 4.4808 22.991 4.492C22.9737 4.49792 22.956 4.50258 22.938 4.50598H22.838C22.8075 4.50493 22.7771 4.50161 22.747 4.496C22.722 4.496 22.704 4.49599 22.694 4.48199C22.6859 4.47873 22.6784 4.47397 22.672 4.46799C22.662 4.45099 22.657 4.44398 22.657 4.43298L22.472 3.81198L21.454 3.75598L21.224 4.35599C21.224 4.36161 21.2229 4.36718 21.2206 4.37234C21.2184 4.37751 21.2151 4.38214 21.211 4.38599C21.203 4.39499 21.196 4.39499 21.178 4.40799C21.162 4.41412 21.1451 4.41781 21.128 4.41898H21.043C21.0134 4.41766 20.984 4.414 20.955 4.40799C20.9359 4.4049 20.9177 4.39736 20.902 4.38599C20.896 4.37499 20.887 4.362 20.896 4.341V4.34299ZM18.919 2.75098C18.9497 2.59589 19.0127 2.44902 19.104 2.31998C19.1874 2.19851 19.298 2.09819 19.427 2.02698C19.5595 1.96024 19.7033 1.91888 19.851 1.905C19.9211 1.90028 19.9915 1.90296 20.061 1.91299C20.133 1.92499 20.191 1.93698 20.254 1.94598C20.3069 1.96543 20.3583 1.98849 20.408 2.01498C20.455 2.03898 20.483 2.05799 20.508 2.06799C20.533 2.07799 20.539 2.09898 20.539 2.10898C20.539 2.11898 20.554 2.12999 20.559 2.13699C20.5635 2.15138 20.5668 2.1661 20.569 2.181C20.569 2.202 20.569 2.21998 20.569 2.24298C20.5772 2.26525 20.5772 2.28971 20.569 2.31198C20.569 2.32898 20.569 2.34598 20.569 2.35098C20.5672 2.36395 20.5616 2.3761 20.553 2.38599C20.545 2.38599 20.538 2.397 20.529 2.397C20.5023 2.39316 20.4767 2.3836 20.454 2.36899C20.4122 2.33918 20.368 2.31275 20.322 2.28998C20.2623 2.26042 20.1996 2.23729 20.135 2.22098C19.9477 2.17646 19.7507 2.20096 19.58 2.28998C19.4952 2.34673 19.4234 2.42067 19.369 2.50699C19.3097 2.61214 19.2682 2.72635 19.246 2.845C19.2173 2.98477 19.2105 3.12814 19.226 3.26999C19.2337 3.41339 19.2623 3.5549 19.311 3.69C19.3418 3.80151 19.3983 3.90424 19.476 3.98999C19.5405 4.06693 19.6255 4.12413 19.721 4.155C19.8199 4.19608 19.9277 4.21089 20.034 4.198C20.1198 4.19395 20.2044 4.17533 20.284 4.14297C20.3497 4.11897 20.4113 4.08528 20.467 4.043C20.515 4.009 20.558 3.976 20.592 3.952C20.6009 3.94045 20.612 3.93085 20.6247 3.9238C20.6375 3.91674 20.6515 3.91237 20.666 3.91098C20.6726 3.90945 20.6794 3.90945 20.686 3.91098C20.695 3.91098 20.7 3.91998 20.709 3.93298C20.7092 3.9468 20.7123 3.96042 20.718 3.97299C20.718 3.99699 20.718 4.025 20.727 4.052V4.10999C20.727 4.12199 20.727 4.13998 20.722 4.14398C20.717 4.14798 20.722 4.17099 20.711 4.17899C20.7 4.18699 20.702 4.19498 20.691 4.20798C20.669 4.23454 20.6426 4.2572 20.613 4.27499C20.5709 4.31317 20.5234 4.34484 20.472 4.36899C20.41 4.39399 20.341 4.42298 20.272 4.44998C20.1898 4.47535 20.1049 4.49082 20.019 4.496C19.8713 4.50828 19.7227 4.49059 19.582 4.444C19.452 4.40253 19.3342 4.32972 19.239 4.23199C19.1345 4.12238 19.0532 3.99278 19 3.85098C18.9373 3.68015 18.8986 3.50144 18.885 3.31998C18.8676 3.12897 18.8794 2.93645 18.92 2.74899L18.919 2.75098ZM17.745 2.21799C17.745 2.20899 17.759 2.205 17.77 2.189C17.781 2.173 17.8 2.182 17.817 2.177C17.8408 2.1677 17.8657 2.16131 17.891 2.15799C17.9184 2.15311 17.9462 2.15109 17.974 2.15198H18.021C18.03 2.15198 18.044 2.15799 18.051 2.16199L18.06 2.18399L18.472 4.58398C18.4726 4.59427 18.4698 4.60445 18.464 4.61298C18.464 4.62098 18.459 4.625 18.442 4.634C18.4281 4.64043 18.4137 4.64577 18.399 4.64999L18.323 4.67599H18.191C18.1806 4.67607 18.1705 4.67293 18.162 4.66699C18.1574 4.65829 18.1534 4.64926 18.15 4.63998L17.745 2.24899V2.21799ZM15.232 2.84198C15.2492 2.8144 15.2764 2.79466 15.308 2.78699L15.841 2.634C16.0167 2.58048 16.2009 2.56011 16.384 2.57397C16.5305 2.5881 16.6722 2.63419 16.799 2.70898C16.9285 2.78928 17.0391 2.89676 17.123 3.02399C17.2158 3.1705 17.2856 3.33035 17.33 3.49799C17.3888 3.68471 17.4132 3.88055 17.402 4.07599C17.3961 4.23307 17.3551 4.38684 17.282 4.526C17.2105 4.65943 17.1075 4.7734 16.982 4.858C16.8291 4.95981 16.6601 5.03487 16.482 5.07999L15.982 5.22498C15.9534 5.22814 15.9244 5.22509 15.897 5.216C15.8627 5.19389 15.8375 5.16017 15.826 5.121L15.226 2.95099C15.2177 2.93344 15.2139 2.91412 15.215 2.89474C15.216 2.87537 15.2219 2.85655 15.232 2.84V2.84198ZM13.199 3.63498C13.22 3.60798 13.237 3.58298 13.266 3.57898L14.338 3.12698C14.3478 3.12182 14.3589 3.11942 14.37 3.12C14.38 3.127 14.388 3.12898 14.395 3.13898C14.402 3.14898 14.412 3.161 14.425 3.172C14.4354 3.19109 14.4437 3.2112 14.45 3.23199C14.461 3.25799 14.468 3.273 14.476 3.293C14.4773 3.30797 14.4773 3.32301 14.476 3.33798C14.4757 3.34784 14.473 3.35748 14.468 3.366C14.468 3.375 14.452 3.375 14.442 3.375L13.562 3.75299L13.869 4.48898L14.626 4.17398C14.6295 4.17017 14.6339 4.16727 14.6388 4.16553C14.6436 4.16379 14.6489 4.16328 14.654 4.164C14.663 4.174 14.673 4.17398 14.683 4.18298C14.696 4.1925 14.7058 4.20575 14.711 4.22098C14.7361 4.25159 14.7509 4.28943 14.753 4.32898C14.7592 4.34247 14.7622 4.35716 14.762 4.37198C14.762 4.38798 14.753 4.392 14.753 4.401C14.753 4.41 14.743 4.41599 14.731 4.41599L13.973 4.73499L14.328 5.57098L15.222 5.202C15.23 5.19 15.235 5.186 15.244 5.19C15.253 5.194 15.269 5.20199 15.278 5.20599C15.287 5.20999 15.3 5.227 15.306 5.237L15.334 5.297C15.3445 5.31614 15.351 5.33723 15.353 5.35898C15.353 5.37698 15.362 5.386 15.353 5.401C15.3538 5.41225 15.351 5.42344 15.345 5.43298C15.345 5.44698 15.33 5.447 15.321 5.453L14.24 5.90799C14.2114 5.91745 14.1806 5.91745 14.152 5.90799C14.124 5.90799 14.095 5.87698 14.076 5.82898L13.201 3.754C13.187 3.698 13.187 3.661 13.199 3.633V3.63498ZM10.022 5.44598C10.0323 5.41058 10.0541 5.37963 10.084 5.358L10.257 5.258C10.2888 5.23919 10.3223 5.22346 10.357 5.211C10.3864 5.20614 10.4162 5.20412 10.446 5.20499C10.4749 5.20375 10.5034 5.21221 10.527 5.229C10.5577 5.24065 10.5849 5.25993 10.606 5.285L12.168 6.47198H12.175L11.838 4.53299C11.83 4.49811 11.8247 4.46269 11.822 4.427C11.8233 4.39904 11.8287 4.37141 11.838 4.345C11.8462 4.32093 11.8588 4.29856 11.875 4.27899C11.8919 4.25642 11.9143 4.23852 11.94 4.22699L12.122 4.11298C12.1382 4.10312 12.1562 4.09667 12.175 4.09399C12.1825 4.08847 12.1917 4.08548 12.201 4.08548C12.2104 4.08548 12.2195 4.08847 12.227 4.09399C12.24 4.09399 12.256 4.108 12.273 4.116C12.2932 4.12979 12.3097 4.14832 12.321 4.16998L13.544 6.146C13.5456 6.15727 13.5456 6.16872 13.544 6.17999C13.5445 6.18841 13.5416 6.19669 13.536 6.203C13.527 6.217 13.51 6.22699 13.501 6.24399C13.492 6.26099 13.461 6.272 13.43 6.289C13.399 6.306 13.383 6.31498 13.364 6.32098C13.3469 6.32597 13.3301 6.33234 13.314 6.34C13.305 6.346 13.294 6.34599 13.287 6.32999C13.287 6.32999 13.266 6.33 13.266 6.315L12.106 4.448L12.531 6.78098V6.80899C12.5263 6.81805 12.521 6.82675 12.515 6.83499C12.5055 6.85012 12.4933 6.86335 12.479 6.87399C12.4606 6.88746 12.4412 6.89951 12.421 6.91C12.402 6.92238 12.3823 6.93373 12.362 6.944C12.347 6.94696 12.3326 6.952 12.319 6.95898C12.3064 6.96076 12.2936 6.96076 12.281 6.95898L12.254 6.94897L10.392 5.50299L11.549 7.379C11.554 7.38752 11.5567 7.39713 11.557 7.40698C11.552 7.40698 11.552 7.41999 11.539 7.42999C11.5308 7.44545 11.5204 7.45959 11.508 7.47198C11.488 7.48098 11.468 7.49499 11.441 7.51199C11.4214 7.52911 11.3991 7.54294 11.375 7.55298C11.356 7.55298 11.341 7.56598 11.32 7.56598C11.3149 7.56853 11.3092 7.56989 11.3035 7.56989C11.2978 7.56989 11.2921 7.56853 11.287 7.56598C11.282 7.55938 11.2767 7.55305 11.271 7.547L10.049 5.56998C10.0357 5.55214 10.0265 5.53166 10.0218 5.50992C10.0171 5.48818 10.0172 5.46571 10.022 5.444V5.44598ZM7.55301 7.63199C7.61906 7.47648 7.71641 7.33625 7.83901 7.22C7.90189 7.15826 7.97054 7.10266 8.04401 7.05399C8.11601 7.00999 8.18001 6.97298 8.24401 6.94098C8.29906 6.9164 8.35589 6.89604 8.41401 6.88C8.44894 6.87285 8.48439 6.8685 8.52001 6.867C8.5432 6.86783 8.56571 6.8751 8.58501 6.888C8.61361 6.90083 8.63816 6.92122 8.65601 6.94699C8.67341 6.96262 8.68947 6.97967 8.70401 6.99799C8.71466 7.01139 8.7234 7.0262 8.73 7.04199C8.73409 7.04859 8.73619 7.05624 8.73601 7.064C8.73601 7.086 8.73001 7.08798 8.71801 7.09198C8.69493 7.10819 8.66806 7.1182 8.64 7.121C8.58578 7.1308 8.53256 7.14551 8.48101 7.16498C8.40905 7.18767 8.33967 7.21786 8.27401 7.255C8.18734 7.30177 8.10758 7.36031 8.03701 7.42899C7.9457 7.51869 7.87387 7.62628 7.82601 7.745C7.78932 7.85297 7.77536 7.96736 7.78501 8.08099C7.79459 8.20318 7.8286 8.3222 7.88501 8.431C7.94971 8.55049 8.03009 8.66081 8.12401 8.759C8.22634 8.86482 8.34439 8.9542 8.474 9.02399C8.58373 9.07712 8.70179 9.11096 8.823 9.12399C8.94006 9.12669 9.05645 9.10555 9.16509 9.06189C9.27373 9.01823 9.37237 8.95295 9.45501 8.87C9.51287 8.8177 9.56214 8.75662 9.601 8.689C9.64447 8.62393 9.67817 8.55284 9.70101 8.478L9.185 7.95499L8.77501 8.35498C8.76676 8.36106 8.75738 8.36542 8.74743 8.36783C8.73747 8.37023 8.72711 8.37063 8.717 8.36899C8.695 8.35499 8.667 8.331 8.627 8.298C8.61797 8.28027 8.60578 8.26431 8.59101 8.25098C8.58201 8.23798 8.57701 8.22598 8.56601 8.21198V8.17899C8.56601 8.17199 8.577 8.16498 8.58201 8.15598L9.14501 7.612C9.15203 7.60213 9.16175 7.59448 9.17301 7.59C9.18721 7.58173 9.20367 7.57822 9.22001 7.57999C9.23764 7.57763 9.25556 7.58115 9.271 7.59C9.2899 7.60069 9.30682 7.61454 9.321 7.63098L9.991 8.31699C10.0121 8.33754 10.0291 8.36198 10.041 8.38898C10.048 8.40472 10.0516 8.42177 10.0516 8.439C10.0516 8.45622 10.048 8.47324 10.041 8.48898C10.025 8.52798 10.01 8.56998 9.985 8.63098C9.95868 8.68869 9.92723 8.74392 9.89101 8.79599C9.86172 8.85403 9.82471 8.90786 9.78101 8.95599C9.74467 9.00503 9.70346 9.05027 9.65801 9.091C9.53881 9.21954 9.39404 9.32172 9.23301 9.39099C9.08768 9.443 8.93435 9.46906 8.78 9.46799C8.6261 9.45355 8.47605 9.41156 8.33701 9.34399C8.17641 9.26701 8.0308 9.16204 7.907 9.034C7.77707 8.89748 7.66913 8.74162 7.58701 8.57199C7.5174 8.42543 7.4786 8.26616 7.47301 8.104C7.46193 7.94093 7.48934 7.77752 7.55301 7.62698V7.63199ZM5.41901 10.08L5.519 9.94998C5.544 9.92798 5.569 9.90299 5.586 9.88599C5.6068 9.86922 5.63104 9.85727 5.657 9.85098C5.68428 9.84862 5.71172 9.84862 5.739 9.85098C5.77794 9.84943 5.81691 9.8528 5.855 9.86099L7.08501 10.072C7.16101 10.083 7.233 10.096 7.308 10.11C7.383 10.124 7.44901 10.138 7.51601 10.148C7.58301 10.158 7.65301 10.18 7.71601 10.189C7.77901 10.198 7.852 10.217 7.916 10.23C7.836 10.166 7.74901 10.102 7.66001 10.044C7.56601 9.96898 7.484 9.90699 7.403 9.84399L6.314 9.01599C6.30674 9.01031 6.30005 9.00394 6.29401 8.99698V8.96298C6.29926 8.94484 6.30665 8.92738 6.31601 8.91098C6.32501 8.90098 6.343 8.87199 6.36 8.85199C6.37701 8.83199 6.395 8.79799 6.411 8.79199C6.42289 8.77945 6.43595 8.76807 6.45 8.758C6.45424 8.75344 6.45969 8.75019 6.4657 8.7486C6.47172 8.747 6.47807 8.74713 6.48401 8.74899C6.48401 8.74899 6.49901 8.758 6.50701 8.758L8.36701 10.169C8.38539 10.1836 8.40126 10.2012 8.41401 10.221C8.41813 10.2387 8.42348 10.256 8.43001 10.273C8.42889 10.2899 8.42482 10.3065 8.418 10.322C8.41384 10.338 8.40634 10.353 8.396 10.366L8.33501 10.452C8.30601 10.484 8.294 10.507 8.271 10.518C8.248 10.529 8.22301 10.542 8.19701 10.556C8.16171 10.5623 8.12573 10.564 8.09 10.561C8.0424 10.5605 7.99505 10.5541 7.94901 10.542L6.349 10.273L6.086 10.223C6 10.2084 5.91488 10.189 5.83101 10.165V10.174C5.90701 10.223 5.983 10.284 6.062 10.34C6.141 10.396 6.222 10.459 6.293 10.514L7.51101 11.435L7.53 11.457C7.53111 11.4679 7.5294 11.4789 7.52501 11.489C7.52439 11.5087 7.51657 11.5276 7.50301 11.542C7.49037 11.564 7.47528 11.5844 7.45801 11.603C7.44399 11.6245 7.42827 11.645 7.411 11.664C7.39821 11.6772 7.38375 11.6886 7.368 11.698C7.36507 11.7023 7.36099 11.7057 7.35622 11.7079C7.35145 11.71 7.34618 11.7107 7.34101 11.71C7.34101 11.71 7.31701 11.702 7.31701 11.698L5.45601 10.285C5.43791 10.2761 5.4224 10.2627 5.41102 10.246C5.39963 10.2294 5.39274 10.2101 5.39101 10.19C5.38655 10.1505 5.39649 10.1107 5.41901 10.078V10.08ZM4.31301 11.827C4.3888 11.6847 4.49055 11.5579 4.61301 11.453C4.72282 11.3655 4.85158 11.3049 4.989 11.276C5.13623 11.2498 5.2874 11.2559 5.43201 11.294C5.60908 11.338 5.77955 11.4053 5.939 11.494C6.10294 11.584 6.25567 11.6931 6.394 11.819C6.50684 11.9286 6.59689 12.0594 6.659 12.204C6.71774 12.3434 6.73944 12.4957 6.722 12.646C6.70693 12.8108 6.65645 12.9705 6.57401 13.114C6.49649 13.2574 6.39268 13.385 6.26801 13.49C6.16085 13.5821 6.03043 13.643 5.89101 13.666C5.74384 13.6959 5.59165 13.6905 5.44701 13.65C5.26719 13.6036 5.09335 13.5365 4.92901 13.45C4.7666 13.362 4.61691 13.2523 4.48401 13.124C4.3709 13.0134 4.28022 12.882 4.217 12.737C4.16724 12.599 4.14583 12.4524 4.15401 12.306C4.17615 12.1377 4.2301 11.9751 4.31301 11.827ZM3.91301 25.47C3.79129 25.4686 3.67269 25.4312 3.57215 25.3626C3.47161 25.294 3.39361 25.1971 3.34798 25.0843C3.30235 24.9714 3.29113 24.8476 3.31572 24.7284C3.34032 24.6092 3.39963 24.4999 3.4862 24.4143C3.57276 24.3287 3.6827 24.2706 3.80219 24.2474C3.92168 24.2241 4.04537 24.2368 4.1577 24.2837C4.27004 24.3306 4.366 24.4096 4.43349 24.511C4.50098 24.6123 4.537 24.7313 4.53701 24.853C4.53688 24.9346 4.52056 25.0153 4.48899 25.0905C4.45741 25.1657 4.41121 25.2339 4.35306 25.2911C4.29492 25.3484 4.22599 25.3934 4.15027 25.4238C4.07456 25.4542 3.99357 25.4692 3.91201 25.468L3.91301 25.47ZM4.56101 20.515C4.56286 20.5419 4.56016 20.569 4.55301 20.595C4.55374 20.6136 4.54996 20.6321 4.54201 20.649C4.54201 20.66 4.52701 20.665 4.52401 20.682H4.49601L2.06801 20.621C2.06801 20.621 2.04901 20.605 2.04401 20.605C2.03901 20.605 2.023 20.586 2.023 20.574C2.023 20.562 2.01601 20.548 2.01201 20.525V20.446C2.00974 20.4197 2.00974 20.3933 2.01201 20.367C2.01201 20.345 2.019 20.333 2.021 20.318L2.045 20.294C2.05276 20.2873 2.06275 20.2837 2.073 20.284L4.5 20.35C4.50525 20.3506 4.5103 20.3523 4.51479 20.3551C4.51928 20.3579 4.52311 20.3616 4.52601 20.366C4.53801 20.366 4.542 20.38 4.547 20.391C4.54911 20.4092 4.55246 20.4272 4.55701 20.445C4.5597 20.4675 4.56069 20.4903 4.56 20.513L4.56101 20.515ZM4.78301 18.135C4.77701 18.17 4.76901 18.192 4.76401 18.221C4.75901 18.25 4.73501 18.262 4.71201 18.288C4.68634 18.3094 4.65927 18.3291 4.631 18.347C4.593 18.356 4.551 18.379 4.493 18.392L2.96901 18.951C2.88901 18.978 2.80301 19.004 2.72501 19.037C2.64701 19.07 2.54901 19.094 2.46901 19.115C2.56201 19.125 2.66401 19.138 2.75701 19.147C2.85001 19.156 2.95201 19.172 3.04201 19.188L4.56101 19.393C4.56101 19.393 4.57801 19.393 4.58101 19.399C4.58607 19.4016 4.59025 19.4057 4.59308 19.4106C4.59592 19.4156 4.59728 19.4213 4.597 19.427C4.6016 19.4436 4.6033 19.4608 4.60201 19.478C4.60477 19.5041 4.60307 19.5305 4.597 19.556C4.59384 19.5837 4.5885 19.6111 4.58101 19.638C4.57784 19.653 4.57244 19.6675 4.56501 19.681C4.55921 19.6906 4.55251 19.6996 4.545 19.708C4.53578 19.71 4.52622 19.71 4.517 19.708L2.20101 19.408C2.18077 19.4053 2.16136 19.3984 2.14409 19.3875C2.12683 19.3766 2.11212 19.3621 2.101 19.345C2.09036 19.3309 2.08275 19.3147 2.07862 19.2975C2.07449 19.2803 2.07393 19.2624 2.077 19.245L2.101 19.091C2.10118 19.0565 2.10868 19.0224 2.12301 18.991C2.13043 18.9679 2.14432 18.9474 2.16301 18.932C2.18078 18.9086 2.20416 18.89 2.23101 18.878L2.33901 18.834L3.515 18.409C3.589 18.385 3.65401 18.36 3.72701 18.333C3.80001 18.306 3.86001 18.291 3.92701 18.269C3.99401 18.247 4.056 18.22 4.12 18.201C4.184 18.182 4.24901 18.158 4.31301 18.138C4.21301 18.12 4.102 18.116 3.995 18.096C3.888 18.076 3.77601 18.069 3.67101 18.055L2.31601 17.877C2.30824 17.8747 2.30082 17.8714 2.29401 17.867C2.28441 17.8577 2.27691 17.8464 2.27201 17.834C2.26993 17.817 2.26993 17.7999 2.27201 17.783C2.27048 17.7553 2.27048 17.7276 2.27201 17.7C2.28001 17.674 2.28301 17.648 2.28801 17.631C2.28921 17.6133 2.29545 17.5963 2.306 17.582C2.315 17.563 2.322 17.559 2.336 17.556C2.35 17.553 2.34901 17.55 2.35801 17.55L4.66701 17.859C4.69005 17.8627 4.71233 17.8701 4.73301 17.881C4.74882 17.8899 4.76303 17.9014 4.77501 17.915C4.78307 17.9322 4.79007 17.9499 4.79601 17.968C4.79806 17.9856 4.79806 18.0034 4.79601 18.021L4.78301 18.135ZM5.11501 16.827C5.09274 16.8983 5.06602 16.9681 5.03501 17.036C5.00766 17.0972 4.97415 17.1555 4.935 17.21C4.90535 17.2511 4.87188 17.2892 4.83501 17.324C4.8126 17.3454 4.78889 17.3655 4.76401 17.384C4.74441 17.3975 4.72065 17.4035 4.69701 17.401C4.66276 17.4044 4.62821 17.3985 4.597 17.384C4.57404 17.3812 4.55153 17.3755 4.53 17.367C4.514 17.356 4.496 17.354 4.489 17.343C4.482 17.332 4.473 17.329 4.465 17.32V17.289C4.48255 17.2649 4.50268 17.2428 4.52501 17.223C4.55201 17.199 4.59 17.165 4.625 17.123C4.66768 17.0705 4.70708 17.0153 4.743 16.958C4.78771 16.8882 4.82144 16.812 4.84301 16.732C4.85852 16.6685 4.86592 16.6033 4.86501 16.538C4.86147 16.48 4.84759 16.4231 4.82401 16.37C4.80077 16.3181 4.76463 16.273 4.71901 16.239C4.67203 16.201 4.61637 16.1752 4.55701 16.164C4.49584 16.1406 4.42818 16.1406 4.36701 16.164C4.30694 16.1796 4.25121 16.2087 4.20401 16.249C4.15063 16.2921 4.10261 16.3414 4.06101 16.396C4.01001 16.448 3.961 16.506 3.907 16.563C3.86157 16.6247 3.80961 16.6814 3.752 16.732C3.69854 16.7856 3.63674 16.8302 3.569 16.864C3.50181 16.9009 3.42873 16.926 3.353 16.938C3.26176 16.951 3.16876 16.9432 3.08101 16.915C2.99028 16.8961 2.90513 16.8566 2.83226 16.7993C2.7594 16.7421 2.70077 16.6687 2.661 16.585C2.62417 16.503 2.60347 16.4148 2.60001 16.325C2.59597 16.2239 2.60708 16.1228 2.633 16.025C2.64432 15.9721 2.66283 15.9209 2.68801 15.873C2.71501 15.821 2.742 15.773 2.767 15.73C2.79165 15.6918 2.82014 15.6563 2.85201 15.624C2.8722 15.5996 2.895 15.5774 2.92 15.558L2.948 15.543H3.021C3.04031 15.5505 3.06047 15.5555 3.08101 15.558C3.10501 15.568 3.12301 15.568 3.14301 15.578C3.15715 15.5844 3.17085 15.5917 3.18401 15.6C3.19401 15.605 3.20401 15.609 3.20601 15.624C3.20801 15.639 3.21201 15.638 3.20601 15.645C3.20001 15.652 3.19401 15.679 3.16501 15.705C3.13601 15.731 3.10901 15.757 3.08001 15.792C3.04056 15.8317 3.00475 15.8749 2.97301 15.921C2.9419 15.98 2.91773 16.0424 2.90101 16.107C2.88282 16.1641 2.87668 16.2244 2.883 16.284C2.88405 16.3327 2.8986 16.3801 2.92501 16.421C2.93184 16.4425 2.94287 16.4624 2.95746 16.4795C2.97205 16.4967 2.98993 16.5108 3.01001 16.521C3.05324 16.5567 3.10449 16.5813 3.15937 16.5928C3.21424 16.6043 3.27108 16.6023 3.325 16.587C3.38223 16.5654 3.4369 16.5376 3.48801 16.504C3.53801 16.46 3.58801 16.404 3.63701 16.355C3.68601 16.306 3.737 16.238 3.784 16.187C3.83295 16.1254 3.88644 16.0676 3.944 16.014C3.99783 15.9606 4.05793 15.9139 4.12301 15.875C4.19627 15.8338 4.27726 15.8081 4.36089 15.7997C4.44452 15.7913 4.529 15.8002 4.60901 15.826C4.71371 15.8521 4.8118 15.8998 4.89701 15.966C4.97481 16.0279 5.0377 16.1065 5.08101 16.196C5.12464 16.2858 5.14785 16.3841 5.14901 16.484C5.15772 16.5995 5.14587 16.7156 5.114 16.827H5.11501ZM5.42 15.54C5.38303 15.5525 5.34298 15.5525 5.306 15.54L3.20601 14.722C3.18806 14.7161 3.17146 14.7068 3.1572 14.6944C3.14294 14.682 3.13132 14.6669 3.12301 14.65C3.11472 14.6206 3.11472 14.5894 3.12301 14.56L3.54201 13.473C3.54201 13.473 3.551 13.462 3.564 13.454C3.577 13.446 3.58201 13.454 3.58201 13.454H3.63701C3.65811 13.46 3.67881 13.4674 3.69901 13.476C3.71977 13.4799 3.73971 13.4874 3.758 13.498C3.77145 13.5042 3.78239 13.5147 3.78901 13.528C3.79801 13.528 3.80701 13.544 3.80701 13.556V13.582L3.45301 14.476L4.194 14.764L4.49401 13.996C4.49505 13.9911 4.4971 13.9864 4.50002 13.9822C4.50294 13.9781 4.50668 13.9746 4.51101 13.972C4.52229 13.9711 4.53323 13.9677 4.543 13.962C4.55777 13.9623 4.57234 13.9654 4.586 13.971C4.60712 13.9722 4.62751 13.9791 4.64501 13.991C4.66348 13.9948 4.68132 14.0012 4.698 14.01C4.71025 14.0166 4.72168 14.0247 4.73201 14.034C4.73752 14.0386 4.74183 14.0444 4.74462 14.0511C4.7474 14.0577 4.74856 14.0648 4.74801 14.072C4.75301 14.079 4.74801 14.088 4.74801 14.09L4.448 14.856L5.29201 15.184L5.64501 14.284C5.64532 14.2791 5.64696 14.2743 5.64978 14.2703C5.65261 14.2662 5.65648 14.263 5.661 14.261C5.66896 14.2537 5.67923 14.2495 5.69001 14.249C5.70471 14.2459 5.72006 14.2483 5.73301 14.256C5.75489 14.2582 5.77661 14.2619 5.79801 14.267C5.81901 14.28 5.843 14.289 5.855 14.295C5.86752 14.3039 5.87895 14.3143 5.88901 14.326C5.88901 14.335 5.903 14.343 5.905 14.356C5.90763 14.3598 5.90903 14.3643 5.90903 14.369C5.90903 14.3736 5.90763 14.3782 5.905 14.382L5.48101 15.476C5.47569 15.4901 5.46741 15.503 5.45672 15.5137C5.44602 15.5244 5.43317 15.5327 5.41901 15.538L5.42 15.54ZM21.087 36.286C18.0578 36.2832 15.0974 35.3824 12.5801 33.6975C10.0627 32.0125 8.10139 29.619 6.94408 26.8196C5.78677 24.0202 5.4854 20.9405 6.07807 17.9698C6.67074 14.9991 8.13084 12.2709 10.2738 10.1299C12.4167 7.98888 15.1463 6.53127 18.1176 5.94131C21.0888 5.35136 24.1682 5.65556 26.9666 6.81543C29.7649 7.9753 32.1566 9.93878 33.8393 12.4577C35.5219 14.9766 36.42 17.9378 36.42 20.967C36.4176 25.0315 34.801 28.9287 31.9256 31.8015C29.0502 34.6742 25.1516 36.2873 21.087 36.286ZM36.759 15.364C36.7485 15.3604 36.7386 15.355 36.73 15.348C36.7211 15.3328 36.7131 15.3171 36.706 15.301C36.6915 15.2791 36.6813 15.2547 36.676 15.229C36.6635 15.2068 36.6557 15.1823 36.653 15.157C36.653 15.133 36.641 15.119 36.641 15.11C36.6416 15.0986 36.6458 15.0878 36.653 15.079C36.653 15.067 36.665 15.063 36.676 15.059L38.95 14.214C38.9598 14.2114 38.9702 14.2114 38.98 14.214C38.989 14.214 38.996 14.228 39.009 14.228C39.0142 14.2468 39.0231 14.2645 39.035 14.28C39.041 14.299 39.051 14.318 39.064 14.348C39.073 14.3715 39.0794 14.396 39.083 14.421C39.0887 14.4378 39.0921 14.4553 39.093 14.473C39.093 14.489 39.093 14.5 39.083 14.5C39.0775 14.5083 39.0711 14.516 39.064 14.523L36.789 15.365C36.7786 15.3686 36.7672 15.3682 36.757 15.364H36.759ZM37.373 17.34C37.1808 17.0686 37.0928 16.737 37.125 16.406C37.1453 16.2644 37.2002 16.1301 37.285 16.015C37.3773 15.8958 37.4939 15.7977 37.627 15.727C37.7894 15.6362 37.9638 15.5689 38.145 15.527C38.3226 15.4771 38.5067 15.4549 38.691 15.461C38.8469 15.4633 39.0007 15.4973 39.143 15.561C39.2761 15.6246 39.3931 15.7176 39.485 15.833C39.5867 15.97 39.6589 16.1266 39.697 16.293C39.7395 16.4473 39.7497 16.6086 39.727 16.767C39.7078 16.906 39.6549 17.0381 39.573 17.152C39.4863 17.2754 39.3696 17.3749 39.234 17.441C39.0741 17.5309 38.9024 17.5983 38.724 17.641C38.5448 17.6866 38.3609 17.7108 38.176 17.713C38.0172 17.7078 37.8607 17.6739 37.714 17.613C37.5789 17.5516 37.4611 17.4579 37.371 17.34H37.373ZM38.321 25.469C38.24 25.469 38.1597 25.453 38.0849 25.422C38.01 25.391 37.942 25.3456 37.8847 25.2883C37.8274 25.231 37.782 25.163 37.751 25.0881C37.72 25.0132 37.704 24.933 37.704 24.852C37.704 24.771 37.72 24.6907 37.751 24.6159C37.782 24.541 37.8274 24.473 37.8847 24.4157C37.942 24.3584 38.01 24.313 38.0849 24.282C38.1597 24.2509 38.24 24.235 38.321 24.235C38.4846 24.235 38.6416 24.3 38.7573 24.4157C38.873 24.5314 38.938 24.6884 38.938 24.852C38.938 25.0156 38.873 25.1726 38.7573 25.2883C38.6416 25.404 38.4846 25.469 38.321 25.469ZM40.21 20.011C40.202 20.011 40.194 20.024 40.184 20.024L37.862 20.256C37.8395 20.2577 37.817 20.2543 37.796 20.246C37.7789 20.2412 37.7629 20.233 37.749 20.222C37.7376 20.2087 37.7282 20.1939 37.721 20.178C37.7168 20.1604 37.7101 20.1436 37.701 20.128V20.016C37.701 19.982 37.701 19.959 37.701 19.928C37.7072 19.9016 37.7166 19.8761 37.729 19.852C37.7489 19.824 37.7729 19.7991 37.8 19.778C37.836 19.756 37.871 19.723 37.925 19.69L39.278 18.808C39.345 18.762 39.42 18.714 39.495 18.673C39.5693 18.6206 39.6468 18.5728 39.727 18.53C39.627 18.539 39.532 18.548 39.438 18.565C39.344 18.582 39.238 18.581 39.149 18.59L37.632 18.743H37.601C37.601 18.733 37.588 18.728 37.578 18.714C37.568 18.7 37.571 18.68 37.566 18.673C37.558 18.6432 37.5527 18.6127 37.55 18.582C37.5483 18.556 37.5483 18.53 37.55 18.504C37.5473 18.4888 37.5473 18.4732 37.55 18.458C37.5546 18.4481 37.5603 18.4387 37.567 18.43C37.5748 18.4248 37.5837 18.4217 37.593 18.421L39.911 18.188C39.9317 18.1822 39.9536 18.1824 39.9741 18.1886C39.9946 18.1948 40.013 18.2067 40.027 18.223C40.0505 18.2458 40.0659 18.2756 40.071 18.308L40.083 18.465C40.0891 18.4981 40.0891 18.5319 40.083 18.565C40.0826 18.5906 40.075 18.6155 40.061 18.637C40.0466 18.6614 40.028 18.6831 40.006 18.701C39.98 18.713 39.953 18.746 39.906 18.773L38.858 19.448C38.796 19.493 38.736 19.533 38.675 19.577C38.614 19.621 38.551 19.65 38.494 19.683C38.437 19.716 38.372 19.76 38.321 19.795C38.27 19.83 38.204 19.868 38.144 19.903C38.2512 19.8848 38.3594 19.8731 38.468 19.868C38.574 19.855 38.682 19.844 38.781 19.836L40.15 19.698C40.1588 19.6982 40.1672 19.7014 40.174 19.707C40.184 19.707 40.196 19.716 40.198 19.729C40.2 19.742 40.208 19.76 40.217 19.777C40.226 19.794 40.224 19.825 40.224 19.855C40.2281 19.8788 40.2308 19.9029 40.232 19.927C40.232 19.957 40.224 19.971 40.224 19.98C40.2209 19.991 40.2155 20.0013 40.208 20.01L40.21 20.011Z" fill="white"/>
<path d="M28.1215 5.57099C28.198 5.66771 28.2973 5.744 28.4105 5.79301C28.5221 5.84788 28.645 5.87596 28.7694 5.87501C28.8775 5.87437 28.9826 5.83934 29.0695 5.775C29.1695 5.7169 29.2569 5.63939 29.3265 5.547C29.4033 5.44242 29.4702 5.33094 29.5265 5.214C29.5825 5.09316 29.628 4.96769 29.6625 4.839C29.6948 4.73046 29.7053 4.61662 29.6934 4.504C29.6826 4.39844 29.6432 4.29781 29.5794 4.21299C29.5045 4.11692 29.4084 4.03958 29.2985 3.98701C29.1875 3.92853 29.0627 3.90122 28.9374 3.908C28.8309 3.91668 28.7279 3.951 28.6374 4.008C28.54 4.06763 28.4543 4.14455 28.3845 4.23499C28.3091 4.34054 28.2422 4.45189 28.1845 4.568C28.1253 4.68981 28.0771 4.81665 28.0404 4.947C28.0106 5.05906 28.0011 5.17557 28.0124 5.29099C28.0255 5.39179 28.0629 5.48789 28.1215 5.57099Z" fill="white"/>
<path d="M4.73459 12.905C4.83117 12.9902 4.93798 13.0631 5.05258 13.122C5.17333 13.1862 5.29868 13.2413 5.42758 13.287C5.53606 13.3245 5.65128 13.3384 5.76558 13.328C5.87072 13.3274 5.97324 13.295 6.05958 13.235C6.15708 13.1594 6.23762 13.0641 6.29602 12.9554C6.35441 12.8467 6.38934 12.727 6.39857 12.604C6.39512 12.4951 6.366 12.3885 6.31358 12.293C6.25733 12.1912 6.18234 12.1009 6.09257 12.027C5.9947 11.9423 5.88652 11.8704 5.77058 11.813C5.65479 11.743 5.52997 11.6891 5.39958 11.653C5.29091 11.6174 5.17685 11.6012 5.06257 11.605C4.95983 11.6169 4.86142 11.6533 4.77557 11.711C4.67317 11.7772 4.59087 11.8703 4.53758 11.98C4.47046 12.0853 4.43568 12.2081 4.43757 12.333C4.43835 12.4407 4.46584 12.5465 4.51757 12.641C4.57389 12.741 4.64735 12.8304 4.73459 12.905Z" fill="white"/>
<path d="M16.422 4.78099C16.5519 4.74775 16.6753 4.69301 16.787 4.619C16.876 4.55509 16.9469 4.4693 16.993 4.36998C17.0426 4.26305 17.0688 4.14681 17.07 4.02897C17.0677 3.87811 17.0427 3.72845 16.996 3.58497C16.9677 3.46069 16.9194 3.34182 16.853 3.23298C16.7954 3.13254 16.717 3.04559 16.623 2.97798C16.53 2.91414 16.4236 2.87243 16.312 2.856C16.1731 2.84028 16.0325 2.85356 15.899 2.895L15.582 2.98298L16.104 4.869L16.422 4.78099Z" fill="white"/>
<path d="M22.0377 2.248L21.5547 3.48L22.4037 3.515L22.0377 2.248Z" fill="white"/>
<path d="M37.1815 11.223L35.8945 11.518L36.3335 12.241L37.1815 11.223Z" fill="white"/>
<path d="M34.4318 10.491C34.5274 10.5435 34.6347 10.5713 34.7438 10.572C34.8614 10.5748 34.9781 10.5505 35.0848 10.501C35.2234 10.4436 35.3523 10.365 35.4668 10.268C35.5639 10.1847 35.652 10.0915 35.7298 9.98999C35.7978 9.89819 35.8462 9.79335 35.8718 9.68201C35.8937 9.56947 35.8889 9.45334 35.8578 9.34299C35.8174 9.2083 35.7469 9.08453 35.6518 8.98099L35.4438 8.728L33.9258 9.95801L34.1368 10.218C34.2232 10.321 34.3224 10.4128 34.4318 10.491Z" fill="white"/>
<path d="M38.2506 17.368C38.38 17.3645 38.5086 17.3457 38.6336 17.312C38.7618 17.2762 38.8874 17.2317 39.0096 17.179C39.1143 17.1299 39.2092 17.0621 39.2896 16.979C39.3616 16.9018 39.412 16.8069 39.4356 16.704C39.4632 16.5848 39.4601 16.4606 39.4266 16.343C39.3973 16.2226 39.3405 16.1107 39.2606 16.016C39.1832 15.9424 39.0917 15.8853 38.9916 15.848C38.8817 15.812 38.766 15.7967 38.6506 15.803C38.5214 15.8093 38.3931 15.828 38.2676 15.859C38.1349 15.8944 38.0055 15.9409 37.8806 15.998C37.7757 16.0444 37.6799 16.1091 37.5976 16.189C37.5255 16.2654 37.4742 16.3591 37.4486 16.461C37.4286 16.5827 37.4357 16.7074 37.4696 16.826C37.4978 16.9479 37.5547 17.0614 37.6356 17.157C37.7131 17.2343 37.8071 17.2931 37.9106 17.329C38.02 17.3655 38.1358 17.3787 38.2506 17.368Z" fill="white"/>
<path d="M21.0039 0C16.8508 1.69516e-07 12.7909 1.23148 9.33756 3.53873C5.88426 5.84597 3.19263 9.12535 1.60302 12.9622C0.0134002 16.7991 -0.402816 21.0213 0.406987 25.0947C1.21679 29.1681 3.21624 32.91 6.15255 35.8471C9.08885 38.7842 12.8301 40.7848 16.9033 41.5958C20.9765 42.4067 25.1988 41.9917 29.0361 40.4032C32.8735 38.8147 36.1536 36.124 38.4619 32.6713C40.7701 29.2187 42.0027 25.1592 42.0039 21.006C42.0047 18.2477 41.4621 15.5163 40.4071 12.9678C39.3521 10.4193 37.8054 8.10353 35.8553 6.15286C33.9052 4.2022 31.5899 2.65481 29.0416 1.59909C26.4934 0.543367 23.7622 -1.12582e-07 21.0039 0ZM21.0319 41.414C16.9939 41.4138 13.0466 40.2162 9.68921 37.9727C6.33181 35.7292 3.71507 32.5405 2.16988 28.8098C0.62469 25.0791 0.220448 20.974 1.00827 17.0136C1.7961 13.0532 3.74061 9.41531 6.59592 6.56C9.45123 3.70469 13.0891 1.76018 17.0495 0.972351C21.0099 0.184525 25.115 0.588782 28.8457 2.13397C32.5764 3.67916 35.7651 6.29588 38.0086 9.65329C40.2521 13.0107 41.4497 16.958 41.4499 20.996C41.4441 26.4099 39.2906 31.6004 35.4621 35.4283C31.6336 39.2563 26.4428 41.409 21.0289 41.414H21.0319Z" fill="white"/>
<path d="M32.3109 24.681V25.694H27.6809V17.502H28.6949V16.194H22.9219V17.501H23.9359V25.694H22.9219V26.994H33.4529V24.679L32.3109 24.681ZM25.8059 14.801C26.211 14.8008 26.6071 14.6805 26.9439 14.4553C27.2807 14.23 27.5431 13.91 27.6981 13.5356C27.853 13.1613 27.8935 12.7494 27.8145 12.352C27.7354 11.9546 27.5402 11.5896 27.2537 11.3031C26.9672 11.0166 26.6022 10.8215 26.2049 10.7424C25.8075 10.6633 25.3956 10.7038 25.0212 10.8588C24.6469 11.0137 24.3268 11.2762 24.1016 11.613C23.8764 11.9498 23.7561 12.3458 23.7559 12.751C23.7561 13.2943 23.9721 13.8153 24.3563 14.1995C24.7405 14.5838 25.2615 14.7997 25.8049 14.8L25.8059 14.801Z" fill="#8A949E"/>
<path d="M22.9185 17.499V16.194H17.0595V21.094H14.7225V16.194H8.73047V17.501H11.0205V25.694H8.73047V26.994H14.6805V22.237H16.9925V26.994H22.9185V25.694H20.5845V17.502L22.9185 17.499ZM15.8895 14.799C16.2946 14.7986 16.6905 14.6781 17.0272 14.4528C17.3638 14.2275 17.6262 13.9074 17.781 13.533C17.9358 13.1586 17.9761 12.7467 17.8969 12.3494C17.8177 11.9521 17.6225 11.5872 17.336 11.3008C17.0494 11.0144 16.6844 10.8194 16.2871 10.7404C15.8897 10.6614 15.4779 10.7019 15.1036 10.8569C14.7293 11.0119 14.4093 11.2743 14.1841 11.6111C13.959 11.9479 13.8387 12.3439 13.8385 12.749C13.8385 13.0186 13.8916 13.2856 13.9949 13.5346C14.0981 13.7836 14.2495 14.0099 14.4402 14.2004C14.631 14.3909 14.8575 14.5419 15.1067 14.6448C15.3558 14.7477 15.6229 14.8004 15.8925 14.8L15.8895 14.799Z" fill="white"/>
<path d="M18.9908 30.465C18.8853 30.5141 18.7755 30.5533 18.6628 30.582C18.6012 30.5989 18.5383 30.6103 18.4748 30.616C18.4517 30.6188 18.4284 30.6135 18.4088 30.601C18.401 30.5872 18.3962 30.5718 18.3948 30.556C18.3938 30.5462 18.3957 30.5363 18.4001 30.5274C18.4045 30.5186 18.4114 30.5112 18.4198 30.506C18.4516 30.4891 18.4851 30.4757 18.5198 30.466H18.5288C18.6452 30.4393 18.7564 30.3933 18.8578 30.33C18.9306 30.2822 18.9977 30.2262 19.0578 30.163V30.155C19.0868 30.128 19.1058 30.108 19.1208 30.095C19.1337 30.0894 19.1476 30.0863 19.1618 30.086C19.1848 30.086 19.2028 30.086 19.2068 30.107C19.2151 30.1211 19.2187 30.1377 19.2168 30.154V31.99C19.2168 32.022 19.2018 32.03 19.1698 32.03H19.0338C19.0194 32.0307 19.0051 32.0307 18.9908 32.03C18.9858 32.025 18.9858 32.006 18.9858 31.993L18.9908 30.465Z" fill="white"/>
<path d="M20.791 31.014C20.7293 31.062 20.6621 31.1026 20.591 31.135C20.5281 31.1633 20.4599 31.1777 20.391 31.177C20.329 31.1791 20.2672 31.1678 20.21 31.144C20.154 31.1201 20.1028 31.0862 20.059 31.044C20.0106 30.9937 19.9734 30.9337 19.95 30.868C19.9215 30.7919 19.907 30.7113 19.907 30.63C19.9032 30.5554 19.9147 30.4808 19.9408 30.4108C19.967 30.3408 20.0072 30.2768 20.059 30.223C20.1164 30.1694 20.1839 30.1279 20.2575 30.1008C20.3312 30.0737 20.4095 30.0615 20.488 30.0651C20.5664 30.0686 20.6433 30.0878 20.7142 30.1214C20.7851 30.1551 20.8486 30.2025 20.901 30.261C21.0127 30.4267 21.0668 30.6245 21.055 30.824C21.0584 31.0209 21.0184 31.2162 20.938 31.396C20.8096 31.6663 20.5896 31.8825 20.317 32.006C20.2359 32.0454 20.1479 32.0685 20.058 32.074C20.042 32.0765 20.0258 32.0733 20.012 32.065C19.992 32.06 19.988 32.044 19.988 32.026C19.988 32.008 19.988 31.989 20.006 31.979C20.0361 31.9652 20.0672 31.9535 20.099 31.944H20.107C20.2068 31.9045 20.3013 31.8524 20.388 31.789C20.5493 31.6625 20.6699 31.4914 20.735 31.297C20.7667 31.2064 20.7859 31.1118 20.792 31.016L20.791 31.014ZM20.791 30.639C20.7812 30.5666 20.7624 30.4957 20.735 30.428C20.7119 30.3682 20.6732 30.3157 20.623 30.276C20.5774 30.2362 20.5184 30.2152 20.458 30.217C20.4154 30.2149 20.3729 30.2228 20.334 30.2402C20.2951 30.2576 20.2608 30.2839 20.234 30.317C20.1714 30.3945 20.14 30.4926 20.146 30.592C20.1437 30.694 20.1754 30.7939 20.236 30.876C20.2635 30.9182 20.3019 30.9522 20.3471 30.9746C20.3923 30.9969 20.4427 31.0067 20.493 31.003C20.5526 31.003 20.6116 30.9904 20.666 30.966C20.7148 30.9442 20.7602 30.9156 20.801 30.881L20.806 30.874C20.8063 30.7954 20.8013 30.7169 20.791 30.639Z" fill="white"/>
<path d="M22.278 31.014C22.2165 31.0622 22.1493 31.1028 22.078 31.135C22.0131 31.1634 21.9429 31.1777 21.872 31.177C21.811 31.1793 21.7502 31.1681 21.694 31.144C21.6375 31.1212 21.5861 31.0872 21.543 31.044C21.4932 30.9943 21.4549 30.9342 21.431 30.868C21.4027 30.7918 21.3878 30.7113 21.387 30.63C21.3845 30.5553 21.3969 30.4809 21.4233 30.4111C21.4497 30.3412 21.4897 30.2773 21.541 30.223C21.5937 30.1694 21.6571 30.1276 21.7271 30.1002C21.797 30.0728 21.872 30.0604 21.947 30.064C22.0307 30.06 22.1141 30.0761 22.1903 30.1109C22.2665 30.1457 22.3332 30.1982 22.385 30.264C22.4956 30.4302 22.5496 30.6276 22.539 30.827C22.5473 31.0067 22.5157 31.1861 22.4466 31.3523C22.3774 31.5184 22.2724 31.6672 22.139 31.788C22.0388 31.8786 21.9251 31.9532 21.802 32.009C21.7195 32.0483 21.6303 32.0714 21.539 32.077C21.5225 32.0796 21.5055 32.0764 21.491 32.068C21.4833 32.065 21.4766 32.0596 21.4721 32.0526C21.4676 32.0456 21.4655 32.0373 21.466 32.029C21.4652 32.0196 21.4672 32.0101 21.4716 32.0018C21.476 31.9934 21.4828 31.9866 21.491 31.982C21.5205 31.9675 21.5513 31.9557 21.583 31.947C21.6827 31.9083 21.7766 31.8562 21.862 31.792C21.9416 31.7269 22.014 31.6535 22.078 31.573C22.1333 31.4869 22.1788 31.395 22.214 31.299C22.2467 31.2087 22.2655 31.1139 22.27 31.018L22.278 31.014ZM22.278 30.639C22.2665 30.5672 22.2484 30.4965 22.224 30.428C22.2003 30.3683 22.1614 30.3159 22.111 30.276C22.0625 30.2372 22.0021 30.2164 21.94 30.217C21.8977 30.2156 21.8556 30.2238 21.817 30.2412C21.7783 30.2585 21.7441 30.2844 21.717 30.317C21.6581 30.3962 21.6281 30.4933 21.632 30.592C21.6307 30.6939 21.6622 30.7935 21.722 30.876C21.7492 30.9174 21.7868 30.951 21.831 30.9733C21.8752 30.9956 21.9246 31.0058 21.974 31.003C22.0353 31.0033 22.096 30.9908 22.152 30.966C22.2012 30.9431 22.2475 30.9145 22.29 30.881V30.874C22.292 30.7954 22.2873 30.7168 22.276 30.639H22.278Z" fill="white"/>
<path d="M23.4318 30.465C23.3261 30.5144 23.216 30.5536 23.1028 30.582C23.0431 30.5992 22.9818 30.6106 22.9198 30.616C22.8868 30.616 22.8638 30.616 22.8548 30.601C22.8463 30.5874 22.8412 30.572 22.8398 30.556C22.8398 30.531 22.8478 30.512 22.8638 30.506C22.8956 30.4889 22.9291 30.4755 22.9639 30.466H22.9758C23.092 30.4392 23.2028 30.3933 23.3038 30.33C23.3765 30.2819 23.4435 30.2258 23.5038 30.163V30.155C23.5308 30.128 23.5519 30.108 23.5629 30.095C23.5765 30.0892 23.5911 30.0862 23.6059 30.086C23.6309 30.086 23.6448 30.086 23.6548 30.107C23.6606 30.122 23.6633 30.1379 23.6628 30.154V31.99C23.6628 32.022 23.6498 32.03 23.6218 32.03H23.4798C23.4588 32.03 23.4468 32.03 23.4368 32.03C23.4309 32.0186 23.4279 32.0059 23.4278 31.993L23.4318 30.465Z" fill="white"/>
<path d="M12.0695 38.416L11.9605 38.334C11.8905 38.285 11.8435 38.251 11.8165 38.234L10.7695 37.568L11.0465 37.13C11.1074 37.0373 11.1635 36.9415 11.2145 36.843C11.2755 36.743 11.3025 36.692 11.3145 36.684L11.5855 36.859L11.2105 37.442C11.2024 37.4538 11.1967 37.4672 11.1938 37.4813C11.1908 37.4954 11.1908 37.5099 11.1935 37.524C11.2076 37.5514 11.2291 37.5743 11.2555 37.59L12.2135 38.206L12.0695 38.416Z" fill="black"/>
<path d="M11.7193 34.872C11.6804 34.8462 11.6396 34.8235 11.5973 34.804C11.5733 34.789 11.5478 34.7767 11.5213 34.767L11.6633 34.546L12.1713 34.878C12.1853 34.889 12.2014 34.897 12.2185 34.9016C12.2357 34.9063 12.2537 34.9074 12.2713 34.905C12.2896 34.8934 12.3052 34.878 12.3173 34.86C12.3321 34.839 12.3455 34.8169 12.3573 34.794C12.3723 34.762 12.3933 34.723 12.4133 34.675L12.6863 34.848L12.5743 35.019C12.5513 35.06 12.5463 35.076 12.5563 35.105C12.5706 35.131 12.5926 35.152 12.6193 35.165L12.9193 35.357L13.1063 35.474L12.9683 35.682L12.7253 35.518C12.7476 35.5997 12.754 35.6849 12.7443 35.769C12.739 35.8508 12.7094 35.9291 12.6593 35.994C12.6148 36.069 12.5529 36.1321 12.4787 36.1779C12.4045 36.2238 12.3203 36.2509 12.2333 36.257C12.0389 36.2773 11.8434 36.2296 11.6803 36.122C11.51 36.0182 11.3831 35.8562 11.3233 35.666C11.2912 35.5862 11.2791 35.4997 11.288 35.4142C11.2969 35.3286 11.3265 35.2465 11.3743 35.175C11.4185 35.1022 11.48 35.0414 11.5533 34.998C11.6254 34.9582 11.7039 34.9315 11.7853 34.919L11.7193 34.872Z" fill="black"/>
<path d="M13.8423 36.76L13.4293 36.502C13.4219 36.492 13.4123 36.484 13.4011 36.4786C13.39 36.4732 13.3777 36.4705 13.3653 36.471C13.3463 36.471 13.3263 36.483 13.3083 36.508L12.9443 37.079C12.8883 37.163 12.8503 37.232 12.8243 37.279C12.8011 37.3187 12.782 37.3605 12.7673 37.404L12.4883 37.229L13.2883 35.982C13.352 35.8887 13.4105 35.7919 13.4633 35.692C13.5143 35.592 13.5423 35.54 13.5473 35.537L13.8183 35.71L13.5273 36.172C13.518 36.1809 13.512 36.1927 13.5104 36.2054C13.5087 36.2181 13.5115 36.2311 13.5183 36.242C13.5343 36.2613 13.5544 36.2767 13.5773 36.287L13.7773 36.423C13.8174 36.4426 13.8564 36.4643 13.8943 36.488L13.9823 36.532L13.8423 36.76Z" fill="black"/>
<path d="M17.7717 37.765L18.8127 37.919C18.8395 37.9271 18.868 37.9271 18.8947 37.919C18.9106 37.9033 18.922 37.8836 18.9277 37.862L18.9507 37.662C18.956 37.6507 18.9578 37.6381 18.9559 37.6258C18.9539 37.6135 18.9483 37.6021 18.9397 37.593C18.9187 37.576 18.8928 37.5661 18.8657 37.565L17.8187 37.414L17.8597 37.151C17.8597 37.151 17.9047 37.16 17.9887 37.183C18.0727 37.206 18.1787 37.217 18.3307 37.235L19.2967 37.389L19.1727 38.218L18.1257 38.055C18.0992 38.0523 18.0725 38.0571 18.0487 38.069C18.0397 38.0757 18.0323 38.0842 18.0269 38.0941C18.0216 38.1039 18.0184 38.1148 18.0177 38.126L17.9847 38.326C17.9834 38.3369 17.9844 38.348 17.9877 38.3585C17.991 38.369 17.9964 38.3788 18.0037 38.387C18.0219 38.4072 18.0468 38.4199 18.0737 38.423L19.5087 38.636C19.5363 38.6382 19.564 38.6341 19.5897 38.624C19.6012 38.6167 19.6106 38.6064 19.6169 38.5943C19.6233 38.5822 19.6263 38.5687 19.6257 38.555L19.7347 37.839C19.7554 37.7227 19.7675 37.6051 19.7707 37.487C19.7797 37.378 19.7797 37.321 19.7807 37.315L20.1037 37.373L19.8977 38.751C19.8857 38.851 19.8757 38.933 19.8707 39.011C19.8638 39.0647 19.8622 39.119 19.8657 39.173L19.5427 39.124L19.5617 38.985C19.566 38.9578 19.5611 38.93 19.5477 38.906C19.5268 38.8883 19.5016 38.8762 19.4747 38.871L17.6367 38.597L17.7717 37.765Z" fill="black"/>
<path d="M19.4124 40.514C19.3484 40.498 19.2654 40.486 19.1564 40.463L18.0664 40.303L18.2364 39.128C18.2984 39.1411 18.3612 39.1505 18.4244 39.156C18.5364 39.182 18.6504 39.201 18.7654 39.219L19.8074 39.371L19.6264 40.551C19.5424 40.54 19.4684 40.528 19.4124 40.514Z" fill="black"/>
<path d="M25.1326 38.439L24.0416 38.716L23.8306 37.871C23.8066 37.807 23.7836 37.72 23.7426 37.608C23.717 37.5487 23.6972 37.4871 23.6836 37.424L24.0036 37.345L24.0786 37.655C24.0896 37.697 24.1056 37.717 24.1276 37.721C24.1391 37.7266 24.1518 37.7295 24.1646 37.7295C24.1774 37.7295 24.1901 37.7266 24.2016 37.721L24.8556 37.55C24.8779 37.5432 24.8983 37.5316 24.9156 37.516C24.9366 37.502 24.9386 37.478 24.9336 37.437L24.8536 37.129L25.1406 37.053L25.1906 37.237C25.1996 37.271 25.2116 37.294 25.2336 37.289C25.2608 37.2902 25.2881 37.2875 25.3146 37.281L25.7226 37.181C25.7516 37.164 25.7726 37.159 25.7936 37.146C25.8046 37.1346 25.8122 37.1202 25.8153 37.1046C25.8185 37.089 25.8172 37.0729 25.8116 37.058C25.8016 37.037 25.8116 37.037 25.8116 37.058C25.8116 37.079 25.8116 37.064 25.7986 37.006C25.7805 36.9449 25.7592 36.8848 25.7346 36.826C25.7186 36.786 25.7136 36.762 25.7086 36.762L26.0226 36.686L26.3796 38.079C26.3987 38.1574 26.4217 38.2349 26.4486 38.311C26.469 38.3529 26.486 38.3964 26.4996 38.441L26.1866 38.525L26.0566 38.036C26.0566 38.021 26.0396 38.004 26.0226 37.997C25.9999 37.9903 25.976 37.9886 25.9526 37.992L25.5106 38.104C25.4859 38.1084 25.4638 38.122 25.4486 38.142C25.4403 38.148 25.4347 38.157 25.4329 38.167C25.431 38.177 25.4331 38.1874 25.4386 38.196L25.4826 38.372C25.4736 38.372 25.4266 38.381 25.3386 38.393C25.2506 38.405 25.1806 38.432 25.1326 38.439Z" fill="black"/>
<path d="M26.6259 39.676C26.5008 39.8428 26.3197 39.9589 26.1159 40.003C25.9169 40.0588 25.7047 40.0432 25.5159 39.959C25.4312 39.9237 25.3558 39.8692 25.2958 39.7998C25.2357 39.7304 25.1926 39.6479 25.1699 39.559C25.1475 39.4707 25.1465 39.3784 25.167 39.2897C25.1876 39.201 25.229 39.1184 25.2879 39.049C25.412 38.8841 25.5882 38.766 25.7879 38.714C25.9881 38.6652 26.1988 38.6831 26.3879 38.765C26.4738 38.7983 26.5504 38.8515 26.6116 38.9203C26.6728 38.989 26.7167 39.0714 26.7398 39.1605C26.7628 39.2496 26.7644 39.3429 26.7442 39.4327C26.7241 39.5225 26.6828 39.6063 26.6239 39.677L26.6259 39.676Z" fill="black"/>
<path d="M29.643 34.794C29.7004 34.6251 29.8174 34.4829 29.972 34.394C30.1164 34.2896 30.2953 34.2441 30.472 34.267C30.5514 34.2744 30.6281 34.2995 30.6965 34.3405C30.7649 34.3815 30.8231 34.4374 30.867 34.504C30.9095 34.5703 30.9357 34.6457 30.9436 34.7241C30.9514 34.8025 30.9406 34.8816 30.912 34.955C30.856 35.1262 30.7421 35.2725 30.59 35.369C30.4366 35.4645 30.2559 35.5066 30.076 35.489C29.9982 35.4805 29.9231 35.4553 29.856 35.4151C29.7888 35.3749 29.7312 35.3206 29.687 35.256C29.6451 35.1874 29.6194 35.1101 29.6118 35.03C29.6041 34.95 29.6148 34.8693 29.643 34.794Z" fill="black"/>
<path d="M30.7593 36.005C30.7063 35.929 30.6783 35.869 30.6683 35.856C30.6568 35.8382 30.6414 35.8231 30.6233 35.812C30.6073 35.795 30.5773 35.812 30.5353 35.838L30.2593 36.015C30.203 36.0494 30.1486 36.0868 30.0963 36.127C30.0133 36.185 29.9633 36.215 29.9553 36.22L29.8203 36.009L31.5393 34.909C31.5492 34.899 31.5579 34.8879 31.5653 34.876C31.5734 34.8663 31.5778 34.8541 31.5778 34.8415C31.5778 34.8289 31.5734 34.8167 31.5653 34.807L31.2143 34.265C31.1473 34.165 31.0803 34.065 31.0193 33.985C30.9806 33.9377 30.9446 33.8882 30.9113 33.837L31.1883 33.661L32.1693 35.202C32.2019 35.2576 32.2394 35.3101 32.2813 35.359C32.3023 35.3852 32.3261 35.409 32.3523 35.43L32.0663 35.608L31.9813 35.47C31.9763 35.455 31.9663 35.451 31.9433 35.451C31.9203 35.451 31.9203 35.456 31.8983 35.467L31.3763 35.795L31.2423 35.595L31.7713 35.255C31.7803 35.244 31.7943 35.235 31.7983 35.218C31.8038 35.2124 31.8069 35.2049 31.8069 35.197C31.8069 35.1891 31.8038 35.1816 31.7983 35.176L31.7653 35.115C31.7611 35.1073 31.7551 35.1007 31.7478 35.0958C31.7405 35.0909 31.7321 35.0879 31.7233 35.087C31.7033 35.0894 31.6845 35.0977 31.6693 35.111L30.9583 35.564C30.9338 35.574 30.9135 35.5925 30.9013 35.616C30.8976 35.6282 30.897 35.6412 30.8994 35.6537C30.9019 35.6663 30.9073 35.678 30.9153 35.688L31.1363 36.036L30.8583 36.212C30.833 36.1396 30.7998 36.0701 30.7593 36.005Z" fill="black"/>
<path d="M32.6553 36.532L31.6033 37.199L31.2863 36.716C31.2416 36.6413 31.1918 36.5698 31.1373 36.502C31.0713 36.402 31.0373 36.351 31.0273 36.344L31.3003 36.171L31.6813 36.766C31.6872 36.7774 31.6961 36.7869 31.707 36.7934C31.718 36.7999 31.7306 36.8033 31.7433 36.803C31.7754 36.7998 31.8059 36.7877 31.8313 36.768L32.7863 36.168L32.9273 36.368L32.6553 36.532Z" fill="black"/>
<path d="M19.4647 39.577C19.4416 39.5604 19.4141 39.5513 19.3857 39.551L18.6117 39.435C18.586 39.4313 18.5599 39.4366 18.5377 39.45C18.5261 39.4552 18.5163 39.4639 18.5097 39.4747C18.5031 39.4856 18.5 39.4983 18.5007 39.511L18.4307 40.033C18.4276 40.0528 18.4318 40.0731 18.4427 40.09C18.4643 40.1066 18.4898 40.1176 18.5167 40.122L19.2917 40.229C19.3049 40.2336 19.319 40.2353 19.3329 40.2341C19.3469 40.2329 19.3604 40.2287 19.3727 40.222C19.3815 40.2095 19.3888 40.1961 19.3947 40.182L19.4697 39.642C19.4747 39.6203 19.4729 39.5976 19.4647 39.577Z" fill="white"/>
<path d="M25.9958 37.737C26.004 37.7283 26.01 37.7178 26.0133 37.7063C26.0166 37.6948 26.0171 37.6827 26.0148 37.671L25.9558 37.471C25.9558 37.444 25.9408 37.423 25.9178 37.423C25.9074 37.4165 25.8956 37.4122 25.8834 37.4104C25.8712 37.4087 25.8587 37.4096 25.8468 37.413L25.4168 37.526C25.3893 37.5338 25.3637 37.5475 25.3418 37.566C25.3351 37.5756 25.3307 37.5867 25.329 37.5983C25.3272 37.61 25.3282 37.6218 25.3318 37.633L25.3888 37.833C25.3913 37.8442 25.397 37.8543 25.4052 37.8623C25.4133 37.8703 25.4236 37.8758 25.4348 37.878C25.4577 37.8844 25.4819 37.8844 25.5048 37.878L25.9408 37.766C25.9558 37.756 25.9788 37.745 25.9958 37.737Z" fill="white"/>
<path d="M25.0842 37.85C25.0841 37.8378 25.0803 37.826 25.0733 37.816C25.0664 37.8061 25.0566 37.7984 25.0452 37.794C25.0189 37.7856 24.9906 37.7856 24.9642 37.794L24.3152 37.972C24.3015 37.9723 24.2881 37.9759 24.2761 37.9825C24.2641 37.9892 24.2538 37.9986 24.2462 38.01C24.2387 38.0196 24.2337 38.031 24.2316 38.043C24.2295 38.055 24.2304 38.0674 24.2342 38.079L24.3092 38.354C24.3106 38.3641 24.3148 38.3736 24.3214 38.3813C24.3279 38.3891 24.3366 38.3949 24.3462 38.398C24.3578 38.407 24.3721 38.4119 24.3867 38.4119C24.4014 38.4119 24.4157 38.407 24.4272 38.398L25.0772 38.224C25.0915 38.2241 25.1056 38.2205 25.1181 38.2134C25.1305 38.2064 25.1409 38.1963 25.1482 38.184C25.1582 38.164 25.1662 38.148 25.1572 38.132L25.0842 37.85Z" fill="white"/>
<path d="M26.2098 38.988C26.0895 38.934 25.9535 38.9262 25.8278 38.966C25.7003 38.9956 25.5875 39.0697 25.5098 39.175C25.4724 39.2185 25.4464 39.2706 25.434 39.3266C25.4216 39.3826 25.4233 39.4408 25.4388 39.496C25.4552 39.5507 25.4842 39.6008 25.5234 39.6423C25.5627 39.6838 25.6111 39.7155 25.6648 39.735C25.7801 39.7883 25.9109 39.7979 26.0328 39.762C26.1591 39.7331 26.2715 39.6614 26.3508 39.559C26.3872 39.514 26.4126 39.461 26.4247 39.4044C26.4369 39.3477 26.4355 39.289 26.4208 39.233C26.4082 39.1781 26.3823 39.1271 26.3456 39.0844C26.3088 39.0417 26.2622 39.0087 26.2098 38.988Z" fill="white"/>
<path d="M30.4104 35.163C30.501 35.1058 30.5689 35.0188 30.6024 34.917C30.6186 34.8731 30.6244 34.826 30.6192 34.7794C30.614 34.7329 30.5979 34.6882 30.5724 34.649C30.5456 34.6108 30.5109 34.5788 30.4707 34.5552C30.4305 34.5316 30.3857 34.5168 30.3394 34.512C30.2353 34.5078 30.1326 34.5362 30.0454 34.5932C29.9583 34.6502 29.8912 34.733 29.8533 34.83C29.8382 34.8747 29.8328 34.9221 29.8377 34.969C29.8425 35.016 29.8574 35.0614 29.8813 35.102C29.9083 35.1403 29.9435 35.1719 29.9844 35.1948C30.0252 35.2176 30.0707 35.231 30.1174 35.234C30.2201 35.2421 30.3227 35.2172 30.4104 35.163Z" fill="white"/>
<path d="M11.8843 35.902C11.9853 35.9706 12.109 35.9972 12.2293 35.976C12.2816 35.9728 12.3325 35.9578 12.3782 35.9322C12.4239 35.9066 12.4633 35.8709 12.4933 35.828C12.5231 35.7806 12.5417 35.7271 12.5476 35.6714C12.5535 35.6158 12.5465 35.5595 12.5273 35.507C12.4878 35.3938 12.4104 35.2978 12.3083 35.235C12.2582 35.1986 12.2013 35.1727 12.1411 35.1586C12.0808 35.1445 12.0183 35.1426 11.9573 35.153C11.9045 35.1598 11.8537 35.1774 11.808 35.2046C11.7623 35.2317 11.7226 35.2679 11.6913 35.311C11.6647 35.3559 11.649 35.4064 11.6454 35.4585C11.6417 35.5106 11.6502 35.5628 11.6703 35.611C11.7029 35.7313 11.7792 35.8351 11.8843 35.902Z" fill="white"/>
<path d="M55.8727 17.753C54.7303 17.7443 53.6162 17.3973 52.671 16.7558C51.7257 16.1143 50.9918 15.2071 50.5618 14.1487C50.1318 13.0904 50.0251 11.9284 50.2551 10.8094C50.4851 9.69045 51.0415 8.66473 51.8541 7.86179C52.6666 7.05885 53.6989 6.51468 54.8205 6.29803C55.9422 6.08139 57.1028 6.20196 58.156 6.64453C59.2091 7.0871 60.1075 7.83182 60.7377 8.78464C61.3679 9.73745 61.7016 10.8556 61.6967 11.998C61.7031 12.7614 61.5564 13.5183 61.2651 14.224C60.9738 14.9296 60.5439 15.5697 60.0009 16.1063C59.4579 16.6429 58.8127 17.0651 58.1036 17.348C57.3945 17.6308 56.6359 17.7685 55.8727 17.753ZM68.2887 27.253H53.0207V20.023H55.9937V24.618H68.2937L68.2887 27.253ZM55.8727 15.137C56.2669 15.1267 56.655 15.0356 57.0127 14.8696C57.3705 14.7035 57.6904 14.4659 57.9528 14.1714C58.2151 13.8769 58.4144 13.5317 58.5382 13.1572C58.662 12.7827 58.7078 12.3868 58.6727 11.994C58.6727 10.228 57.6187 8.80197 55.8727 8.80197C55.0947 8.89063 54.3766 9.26251 53.8552 9.84668C53.3338 10.4309 53.0456 11.1865 53.0456 11.9695C53.0456 12.7525 53.3338 13.5081 53.8552 14.0923C54.3766 14.6765 55.0947 15.0483 55.8727 15.137ZM67.8337 21.57H64.8607V5.99997H67.8337V21.57Z" fill="white"/>
<path d="M78.6409 6.40997V8.94897C78.6409 11.875 81.2049 14.437 83.7219 15.308C83.1469 15.889 82.2359 17.072 81.8289 17.58C79.9022 16.6369 78.2511 15.2131 77.0349 13.446C76.4599 15.09 73.8949 17.314 72.3349 18.088C71.5812 17.3758 70.7886 16.7058 69.9609 16.081C71.4362 15.3838 72.7504 14.3873 73.8199 13.155C74.8414 12.017 75.4199 10.5499 75.45 9.021V6.40997H78.6409ZM73.6559 23.503C73.6559 20.868 76.6999 18.957 81.5659 18.957C86.4069 18.957 89.4759 20.844 89.4759 23.503C89.4759 26.115 86.4549 28.003 81.5659 28.003C76.6989 28 73.6559 26.139 73.6559 23.504V23.503ZM76.9869 23.43C76.9869 24.687 79.0249 25.63 81.5869 25.63C84.2229 25.63 86.2369 24.808 86.2369 23.53C86.2369 22.177 84.2239 21.355 81.5869 21.355C79.0239 21.352 76.9869 22.101 76.9869 23.43ZM88.9959 18.885H85.9959V12.236H81.922V9.53H85.9959V5.99997H88.9959V18.885Z" fill="white"/>
<path d="M106.536 19.903V22.39C104.035 22.9251 101.492 23.2406 98.9359 23.333C96.2999 23.433 92.3449 23.381 92.1289 23.381V20.673C92.4169 20.673 97.6659 20.697 100.446 20.573C102.319 20.507 105.171 20.121 106.536 19.903ZM92.9469 12.19C92.9059 11.018 93.2157 9.86056 93.8367 8.86584C94.4578 7.87113 95.3616 7.08452 96.4325 6.60678C97.5035 6.12905 98.6926 5.98197 99.8477 6.18439C101.003 6.38681 102.071 6.92952 102.916 7.74295C103.76 8.55639 104.343 9.60348 104.589 10.7501C104.834 11.8967 104.732 13.0906 104.295 14.1787C103.858 15.2668 103.106 16.1997 102.135 16.8577C101.165 17.5157 100.02 17.8689 98.8469 17.872C98.0812 17.9072 97.3163 17.786 96.5989 17.5157C95.8816 17.2455 95.2268 16.8318 94.6747 16.3001C94.1226 15.7683 93.6846 15.1296 93.3875 14.423C93.0904 13.7163 92.9405 12.9565 92.9469 12.19ZM95.8719 12.19C95.8477 12.5923 95.907 12.9953 96.0462 13.3736C96.1853 13.7519 96.4013 14.0973 96.6805 14.388C96.9596 14.6788 97.296 14.9085 97.6683 15.0629C98.0407 15.2173 98.4409 15.2929 98.8439 15.285C99.4511 15.3024 100.05 15.1387 100.564 14.8148C101.077 14.4909 101.483 14.0214 101.729 13.4661C101.975 12.9108 102.051 12.2948 101.945 11.6966C101.84 11.0983 101.56 10.5449 101.139 10.1068C100.718 9.66869 100.177 9.36569 99.5831 9.23639C98.9896 9.10709 98.3711 9.15734 97.8062 9.38074C97.2414 9.60414 96.7558 9.99056 96.4114 10.4908C96.0669 10.9911 95.8791 11.5826 95.8719 12.19ZM110.272 27.641H107.347V5.99997H110.272V27.641Z" fill="white"/>
<path d="M132.537 25.652H112.496V23.012H117.841V19.864H115.041V12.044H127.049V9.459H115.04V6.79597H129.949V14.659H117.941V17.225H130.332V19.864H127.596V23.012H132.534L132.537 25.652ZM124.628 23.012V19.864H120.816V23.012H124.628Z" fill="white"/>
<path d="M140.806 9.98999V12.408C140.724 14.1732 141.043 15.9339 141.74 17.558C142.484 18.9774 143.603 20.1652 144.976 20.992C144.281 21.692 143.633 22.346 143.011 23.047C141.467 21.9525 140.183 20.5328 139.248 18.888C138.374 20.7636 137.058 22.3987 135.412 23.652C134.651 22.9825 133.849 22.3606 133.012 21.79C134.557 20.8543 135.811 19.5057 136.631 17.896C137.409 16.2168 137.779 14.3774 137.71 12.528V9.98999H134.521V7.37799H143.989V9.98999H140.806ZM152.814 27.641H149.986V16.641H148.26V26.627H145.407V6.36298H148.259V13.521H149.985V6.00098H152.813L152.814 27.641Z" fill="white"/>
<path d="M168.312 14.271V16.835C165.598 17.3249 162.849 17.5924 160.091 17.635H155.777V6.82498H166.156V9.461H158.697V14.951H161.622C163.864 14.8611 166.098 14.6341 168.312 14.271ZM172.866 27.257H157.909V19.857H160.954V24.621H172.866V27.257ZM175 14.126H172.268V21.502H169.319V6.00198H172.268V11.443H174.997L175 14.126Z" fill="white"/>
<path d="M53.0039 34.143H53.5499V39.261H53.0039V34.143Z" fill="#58616A"/>
<path d="M58.4811 38.475V34.143H59.0211V39.261H58.3521L55.9601 34.894V39.261H55.4141V34.143H56.1241L58.4811 38.475Z" fill="#58616A"/>
<path d="M60.4121 37.717H60.9521C60.939 37.8889 60.9641 38.0615 61.0255 38.2225C61.087 38.3835 61.1832 38.529 61.3075 38.6484C61.4317 38.7679 61.5808 38.8584 61.7441 38.9135C61.9074 38.9685 62.0809 38.9868 62.2521 38.967C62.8951 38.967 63.4881 38.66 63.4881 37.983C63.4881 37.375 63.1531 37.142 62.4881 36.972L61.8531 36.807C61.0401 36.607 60.5691 36.254 60.5691 35.557C60.5589 35.3448 60.5944 35.1328 60.6731 34.9354C60.7518 34.738 60.872 34.5598 61.0254 34.4128C61.1788 34.2658 61.362 34.1534 61.5626 34.0833C61.7632 34.0131 61.9765 33.9867 62.1881 34.006C62.4032 33.98 62.6214 34.0004 62.8279 34.0657C63.0345 34.131 63.2247 34.2398 63.3858 34.3847C63.5468 34.5297 63.6749 34.7074 63.7616 34.906C63.8482 35.1045 63.8914 35.3194 63.8881 35.536H63.3411C63.3458 35.3855 63.3177 35.2358 63.2586 35.0973C63.1996 34.9588 63.111 34.8348 62.9992 34.734C62.8873 34.6332 62.7549 34.558 62.611 34.5136C62.4671 34.4692 62.3153 34.4567 62.1661 34.477C62.033 34.4638 61.8987 34.4788 61.7718 34.521C61.6449 34.5632 61.5284 34.6317 61.4297 34.722C61.3311 34.8123 61.2527 34.9224 61.1995 35.0451C61.1463 35.1678 61.1196 35.3003 61.1211 35.434C61.1211 35.94 61.3121 36.125 62.2351 36.37L62.8911 36.542C63.2109 36.5813 63.5048 36.7381 63.7156 36.9818C63.9264 37.2255 64.0392 37.5388 64.0321 37.861C64.0321 38.954 63.2391 39.419 62.2071 39.419C61.9734 39.4429 61.7374 39.416 61.515 39.3403C61.2927 39.2645 61.0894 39.1416 60.9189 38.98C60.7485 38.8184 60.615 38.6219 60.5275 38.4039C60.44 38.1859 60.4006 37.9516 60.4121 37.717Z" fill="#58616A"/>
<path d="M65.4122 34.143H68.7122V34.635H65.9523V36.37H68.4892V36.842H65.9482V38.789H68.7482V39.261H65.4062L65.4122 34.143Z" fill="#58616A"/>
<path d="M71.8333 34.014C73.2073 34.014 74.0613 35.107 74.0613 36.727C74.0613 38.347 73.2073 39.427 71.8333 39.427C70.4593 39.427 69.6133 38.347 69.6133 36.727C69.6133 35.107 70.4603 34.014 71.8333 34.014ZM71.8333 34.485C70.7673 34.485 70.1873 35.339 70.1873 36.72C70.1873 38.02 70.8433 38.941 71.8333 38.941C72.8233 38.941 73.4873 38.025 73.4873 36.72C73.4873 35.415 72.8253 34.485 71.8333 34.485Z" fill="#58616A"/>
<path d="M78.4323 38.475V34.143H78.9723V39.261H78.3013L75.9093 34.894V39.261H75.3633V34.143H76.0733L78.4323 38.475Z" fill="#58616A"/>
<path d="M80.2617 36.781C80.2617 35.148 81.1227 34.007 82.4077 34.007C82.8721 33.9711 83.3324 34.116 83.6925 34.4113C84.0527 34.7066 84.2849 35.1296 84.3407 35.592H83.7807C83.7344 35.2648 83.5653 34.9675 83.3076 34.7606C83.05 34.5536 82.7232 34.4526 82.3937 34.478C81.6557 34.478 80.8217 35.155 80.8217 36.746C80.8217 38.174 81.3747 38.941 82.4137 38.941C83.3507 38.941 83.9137 38.216 83.9137 37.034H82.4687V36.596H84.4187V39.261H84.0907L83.9337 38.577C83.7525 38.8422 83.5071 39.0572 83.2203 39.2018C82.9335 39.3465 82.6147 39.416 82.2937 39.404C80.9457 39.405 80.2617 38.278 80.2617 36.781Z" fill="#58616A"/>
<path d="M90.9565 38.629L92.2755 34.146H93.1165V39.264H92.5765V34.727L91.2305 39.264H90.6555L89.3095 34.754V39.264H88.7695V34.146H89.6175L90.9565 38.629Z" fill="#58616A"/>
<path d="M95.0996 34.143H98.3996V34.635H95.6386V36.37H98.1806V36.842H95.6386V38.789H98.4386V39.261H95.0977L95.0996 34.143Z" fill="#58616A"/>
<path d="M100.242 34.143H102.087C103.323 34.143 104 35.223 104 36.623C104 38.099 103.426 39.261 102.08 39.261H100.242V34.143ZM100.788 38.81H101.963C103.023 38.81 103.453 37.936 103.453 36.63C103.453 35.66 103.179 34.601 101.953 34.601H100.784L100.788 38.81Z" fill="#58616A"/>
<path d="M105.758 34.143H106.305V39.261H105.758V34.143Z" fill="#58616A"/>
<path d="M108.059 36.653C108.059 35.205 108.824 34.002 110.184 34.002C110.635 33.9799 111.078 34.1308 111.422 34.424C111.766 34.7172 111.986 35.1307 112.036 35.58H111.509C111.468 35.2637 111.309 34.9744 111.065 34.7694C110.821 34.5643 110.508 34.4585 110.19 34.473C109.261 34.473 108.611 35.3 108.611 36.773C108.611 38.18 109.211 38.932 110.176 38.932C110.549 38.9187 110.903 38.7596 111.161 38.4888C111.419 38.218 111.561 37.8569 111.556 37.483H112.082C112.064 37.9969 111.849 38.4842 111.481 38.8433C111.113 39.2024 110.621 39.4054 110.107 39.41C108.839 39.405 108.059 38.407 108.059 36.653Z" fill="#58616A"/>
<path d="M115.178 34.143H115.84L117.48 39.261H116.885L116.427 37.703H114.514L114.022 39.261H113.469L115.178 34.143ZM115.492 34.662L114.658 37.238H116.25L115.492 34.662Z" fill="#58616A"/>
<path d="M119.078 34.143H119.618V38.789H121.969V39.261H119.078V34.143Z" fill="#58616A"/>
<path d="M125.426 34.13H128.55V34.622H125.967V36.377H128.235V36.849H125.967V39.249H125.427L125.426 34.13Z" fill="#58616A"/>
<path d="M132.217 34C133.591 34 134.445 35.093 134.445 36.713C134.445 38.333 133.591 39.413 132.217 39.413C130.843 39.413 129.996 38.333 129.996 36.713C129.996 35.093 130.844 34 132.217 34ZM132.217 34.471C131.152 34.471 130.57 35.325 130.57 36.706C130.57 38.006 131.226 38.927 132.217 38.927C133.208 38.927 133.871 38.011 133.871 36.706C133.871 35.401 133.209 34.471 132.217 34.471Z" fill="#58616A"/>
<path d="M136.682 34.123V37.317C136.682 38.267 137.044 38.93 137.898 38.93C138.875 38.93 139.176 38.267 139.176 37.317V34.126H139.723V37.016C139.723 38.567 139.245 39.394 137.923 39.394C136.631 39.394 136.133 38.567 136.133 37.016V34.126L136.682 34.123Z" fill="#58616A"/>
<path d="M144.757 38.462V34.13H145.296V39.248H144.625L142.234 34.881V39.248H141.688V34.13H142.398L144.757 38.462Z" fill="#58616A"/>
<path d="M147.277 34.13H149.121C150.359 34.13 151.035 35.21 151.035 36.61C151.035 38.086 150.461 39.248 149.115 39.248H147.277V34.13ZM147.824 38.797H148.998C150.057 38.797 150.488 37.923 150.488 36.617C150.488 35.647 150.214 34.588 148.988 34.588H147.82L147.824 38.797Z" fill="#58616A"/>
<path d="M154.135 34.13H154.798L156.438 39.248H155.838L155.38 37.69H153.475L152.982 39.248H152.43L154.135 34.13ZM154.449 34.649L153.616 37.225H155.207L154.449 34.649Z" fill="#58616A"/>
<path d="M161.407 34.13V34.608H159.833V39.248H159.294V34.608H157.715V34.13H161.407Z" fill="#58616A"/>
<path d="M162.965 34.13H163.512V39.248H162.965V34.13Z" fill="#58616A"/>
<path d="M167.459 34C168.833 34 169.687 35.093 169.687 36.713C169.687 38.333 168.833 39.413 167.459 39.413C166.085 39.413 165.238 38.333 165.238 36.713C165.238 35.093 166.086 34 167.459 34ZM167.459 34.471C166.394 34.471 165.812 35.325 165.812 36.706C165.812 38.006 166.468 38.927 167.459 38.927C168.45 38.927 169.113 38.011 169.113 36.706C169.113 35.401 168.45 34.471 167.459 34.471Z" fill="#58616A"/>
<path d="M174.466 38.462V34.13H175.006V39.248H174.336L171.945 34.881V39.248H171.398V34.13H172.108L174.466 38.462Z" fill="#58616A"/>
<path d="M191.687 17.34V16.988H194.855V14.744H191.643V12.1H189.091V14.74H185.835V16.984H189.091V17.336C189.091 20.372 188.013 23.562 185.219 25.168L186.799 27.2C188.564 26.0945 189.852 24.3677 190.407 22.36C190.993 24.239 192.287 25.8166 194.015 26.76L195.555 24.736C192.721 23.28 191.687 20.266 191.687 17.34ZM195.779 30.056H198.379V21.168H199.999V30.98H202.639V11.4H199.999V18.968H198.375V11.708H195.775L195.779 30.056ZM222.443 20.684H218.307V18.374C218.94 18.1892 219.5 17.8129 219.91 17.2968C220.321 16.7808 220.561 16.1503 220.599 15.492C220.599 13.116 217.827 11.708 213.515 11.708C209.159 11.708 206.365 13.116 206.387 15.492C206.414 16.1438 206.645 16.7706 207.048 17.2839C207.45 17.7971 208.004 18.1707 208.631 18.352V20.684H204.579V22.884H222.443V20.684ZM206.643 27.416C206.621 29.726 209.195 30.958 213.463 30.936C217.709 30.958 220.263 29.726 220.283 27.416C220.261 25.15 217.709 23.896 213.463 23.896C209.199 23.9 206.625 25.15 206.647 27.416H206.643ZM209.243 15.492C209.199 14.392 210.743 13.82 213.511 13.82C216.217 13.82 217.779 14.392 217.779 15.492C217.779 16.57 216.217 17.098 213.511 17.12C210.739 17.1 209.199 16.57 209.243 15.492ZM209.419 27.416C209.397 26.448 210.761 25.986 213.467 25.964C216.129 25.986 217.537 26.448 217.559 27.416C217.537 28.406 216.129 28.916 213.467 28.916C210.761 28.912 209.399 28.406 209.419 27.416ZM211.355 20.684V19.056C212.07 19.1472 212.79 19.1913 213.511 19.188C214.202 19.1907 214.893 19.1466 215.579 19.056V20.684H211.355ZM240.087 11.4H237.359V16.2H234.279V18.4H237.359V23.02H240.087V11.4ZM223.455 20.86L224.907 23.06C225.96 22.7051 226.925 22.1288 227.737 21.3698C228.549 20.6109 229.189 19.6869 229.615 18.66C230.059 19.5771 230.685 20.3936 231.456 21.0595C232.228 21.7254 233.127 22.2265 234.099 22.532L235.463 20.376C234.216 20.0462 233.107 19.3257 232.3 18.3201C231.492 17.3145 231.028 16.0767 230.975 14.788H234.847V12.588H224.247V14.788H228.207C228.163 16.1739 227.679 17.5098 226.824 18.6017C225.97 19.6936 224.79 20.4847 223.455 20.86ZM226.667 27.24C226.667 29.616 229.219 31 233.399 31.024C237.579 31 240.131 29.616 240.131 27.24C240.131 24.864 237.579 23.478 233.399 23.456C229.219 23.478 226.667 24.864 226.667 27.24ZM229.395 27.24C229.395 26.118 230.803 25.546 233.395 25.568C235.995 25.546 237.395 26.118 237.395 27.24C237.395 28.362 235.999 28.912 233.399 28.912C230.799 28.912 229.399 28.362 229.399 27.24H229.395ZM260.499 26.492H252.847V22.84H258.523V12.676H255.799V15.712H247.259V12.676H244.487V22.84H250.163V26.492H242.599V28.692H260.499V26.492ZM247.259 20.684V17.868H255.799V20.684H247.259ZM278.411 11.4H275.811V26.052H278.411V11.4ZM261.383 21.432L262.879 23.5C264.535 22.7069 265.82 21.3036 266.465 19.584C267.081 21.1137 268.252 22.3548 269.743 23.06L271.243 20.948C270.166 20.453 269.261 19.6491 268.642 18.6385C268.023 17.6279 267.718 16.4561 267.767 15.272V12.72H265.127V15.272C265.156 16.5492 264.82 17.8081 264.156 18.8998C263.492 19.9915 262.53 20.8702 261.383 21.432ZM265.167 30.632H278.899V28.432H267.899V24.336H265.167V30.632ZM269.479 18.132H271.855V25.48H274.455V11.708H271.855V15.888H269.479V18.132ZM297.111 11.4H294.427V18.352H290.951V20.552H294.427V31.024H297.111V11.4ZM281.535 26.58H283.075C286.003 26.6384 288.931 26.4618 291.831 26.052L291.567 23.852C289.151 24.2195 286.709 24.3814 284.267 24.336V20.684H289.943V18.528H284.263V15.272H290.643V13.072H281.535V26.58Z" fill="white"/>
</g>
<defs>
<clipPath id="clip0_1637_8494">
<rect width="297.112" height="42" fill="white"/>
</clipPath>
</defs>
</svg>
