<svg width="281" height="44" viewBox="0 0 281 44" fill="none" xmlns="http://www.w3.org/2000/svg">
<g clip-path="url(#clip0_1637_7578)">
<mask id="mask0_1637_7578" style="mask-type:luminance" maskUnits="userSpaceOnUse" x="0" y="0" width="281" height="44">
<path d="M281 0H0V44H281V0Z" fill="white"/>
</mask>
<g mask="url(#mask0_1637_7578)">
<path d="M28.9375 41.2912C29.9233 42.1396 31.1442 42.6683 32.438 42.807L31.0079 39.625C30.1207 39.7253 29.8698 40.7077 28.9375 41.2912Z" fill="white"/>
<path d="M19.3689 43.9297L19.385 41.644L19.0297 41.5027C15.397 40.1252 12.069 38.0516 9.23286 35.3984C6.88545 33.1771 4.91156 30.5927 3.38705 27.7443C2.27907 25.6896 1.39875 23.5204 0.761711 21.2751L0.717553 21.1247L0.605154 20.7237L0.567018 20.5914L0 18.3528L18.2419 18.5112L19.4984 22.0771L5.50057 21.9558L4.68668 21.9488L4.97771 22.7037C5.41323 23.8527 5.92519 24.9713 6.51017 26.052C7.85779 28.5643 9.59812 30.8456 11.6655 32.8099C14.2806 35.2496 17.3638 37.1342 20.7288 38.3498L22.9647 39.1658L22.9557 40.4089L26.0045 40.434L27.266 43.9989L19.3689 43.9297Z" fill="white"/>
<path d="M22.582 23.3513C23.6802 24.0184 24.946 24.3589 26.231 24.3327L24.6905 19.4987C24.1002 19.9683 23.6097 20.551 23.2478 21.2126C22.8859 21.8742 22.6589 22.6013 22.582 23.3513Z" fill="white"/>
<path d="M26.0352 33.0436C27.1351 33.8796 28.4468 34.3924 29.8226 34.5243L28.518 30.4481C27.9389 30.6724 27.4163 31.0211 26.9872 31.4697C26.5582 31.9182 26.2331 32.4556 26.0352 33.0436Z" fill="white"/>
<path d="M52.6535 35.8846C48.5413 39.0359 44.002 41.5881 39.1715 43.4646C39.1715 43.4646 33.7292 37.9829 28.9351 41.2911L27.8633 38.2606C27.8633 38.2606 34.7729 30.1914 52.6515 35.8846" fill="white"/>
<path d="M57.7247 30.9012C60.5146 28.2858 62.7897 25.1719 64.4326 21.7202C40.2957 11.5458 24.5547 28.8701 24.5547 28.8701L26.035 33.0435C26.035 33.0435 38.5946 21.7423 57.7247 30.9012Z" fill="white"/>
<path d="M69.7312 2.88717C33.2634 -8.80907 20.9727 18.813 20.9727 18.813L22.5784 23.3533C40.6427 3.47965 67.6909 14.5744 67.705 14.5794C69.1112 10.8442 69.7986 6.87724 69.7312 2.88717Z" fill="white"/>
<path d="M228.259 36.2044C228.27 36.3933 228.236 36.5821 228.162 36.756C228.087 36.9299 227.974 37.0842 227.829 37.2069C227.544 37.4406 227.185 37.565 226.816 37.5578C226.451 37.5609 226.096 37.4377 225.812 37.2089C225.667 37.0879 225.554 36.9333 225.482 36.7586C225.41 36.584 225.382 36.3944 225.4 36.2064L225.416 35.7744H226.076L226.067 36.0881C226.053 36.2089 226.066 36.3314 226.107 36.4461C226.148 36.5608 226.214 36.6647 226.301 36.7498C226.445 36.8731 226.629 36.9413 226.819 36.9423C226.929 36.9474 227.038 36.928 227.139 36.8855C227.24 36.8431 227.331 36.7786 227.404 36.6968C227.477 36.6149 227.531 36.5178 227.562 36.4126C227.593 36.3073 227.6 36.1965 227.583 36.0881L227.593 32.4701H228.245L228.259 36.2044Z" fill="white"/>
<path d="M80.0202 32.5272H79.3438V37.5889H80.0202V32.5272Z" fill="white"/>
<path d="M82.9648 37.5879V32.5262H83.6553L86.3228 36.5032V32.5262H86.9681V37.5879H86.2746L83.6051 33.615V37.5879H82.9648Z" fill="white"/>
<path d="M93.4799 35.8125L94.1573 35.9849C94.0448 36.4767 93.7805 36.9206 93.4016 37.2541C93.0131 37.5439 92.5386 37.6954 92.0538 37.6842C91.5847 37.7026 91.1203 37.5845 90.7171 37.3443C90.3608 37.1115 90.0871 36.7722 89.9353 36.3749C89.7557 35.9458 89.6663 35.4845 89.6723 35.0195C89.6641 34.5419 89.7671 34.069 89.9734 33.6381C90.1659 33.2626 90.4665 32.9532 90.8365 32.7498C91.2105 32.5363 91.6351 32.4269 92.0658 32.4331C92.5263 32.4192 92.978 32.5605 93.3484 32.8341C93.7051 33.1017 93.9602 33.4824 94.072 33.9138L93.4076 34.0742C93.3236 33.7588 93.1463 33.4762 92.8988 33.2631C92.6516 33.0896 92.3549 33.0003 92.0528 33.0085C91.7063 32.9963 91.3651 33.0966 91.0803 33.2942C90.8184 33.4772 90.6243 33.7415 90.5284 34.0461C90.4258 34.3582 90.3713 34.684 90.3668 35.0125C90.3601 35.3995 90.4283 35.7841 90.5675 36.1453C90.6687 36.4484 90.8757 36.705 91.1506 36.8681C91.4073 37.0262 91.7042 37.1069 92.0056 37.1007C92.3515 37.1142 92.6907 37.0028 92.961 36.7869C93.2386 36.5282 93.4234 36.1854 93.4869 35.8115" fill="white"/>
<path d="M96.7852 37.5879V32.5262H97.4566V34.6064H100.066V32.5262H100.745V37.5879H100.066V35.2059H97.4566V37.5879H96.7852Z" fill="white"/>
<path d="M103.672 37.5879V32.5262H107.329V33.1278H104.35V34.6786H107.139V35.2691H104.35V37.0044H107.443V37.5889L103.672 37.5879Z" fill="white"/>
<path d="M109.943 35.1268C109.898 34.4049 110.142 33.6949 110.62 33.1518C110.844 32.9157 111.116 32.7297 111.417 32.606C111.719 32.4823 112.043 32.4237 112.368 32.434C112.812 32.4316 113.249 32.5464 113.634 32.7669C114.005 32.9936 114.305 33.3211 114.497 33.7112C114.695 34.1418 114.795 34.6106 114.792 35.0844C114.789 35.5582 114.681 36.0254 114.477 36.4531C114.286 36.8398 113.979 37.1576 113.599 37.3624C113.221 37.5743 112.795 37.6851 112.361 37.6842C111.912 37.6867 111.471 37.5664 111.086 37.3363C110.716 37.114 110.418 36.7909 110.227 36.405C110.037 36.0059 109.94 35.5694 109.943 35.1278M110.635 35.1338C110.605 35.663 110.783 36.183 111.131 36.5834C111.286 36.7525 111.476 36.8863 111.687 36.9759C111.899 37.0654 112.127 37.1087 112.356 37.1027C112.591 37.1096 112.824 37.066 113.04 36.9748C113.256 36.8837 113.449 36.7471 113.608 36.5744C113.952 36.1516 114.125 35.6148 114.091 35.0706C114.1 34.6991 114.03 34.33 113.885 33.9879C113.758 33.6906 113.544 33.4393 113.269 33.2681C113 33.0967 112.686 33.0072 112.366 33.0105C111.911 33.0092 111.473 33.1834 111.143 33.4967C110.763 33.9538 110.582 34.5424 110.635 35.1338Z" fill="white"/>
<path d="M117.426 37.5879V32.5262H118.114L120.784 36.5032V32.5262H121.421V37.5879H120.737L118.071 33.615V37.5879H117.426Z" fill="white"/>
<path d="M127.151 35.9698L127.779 35.9147C127.801 36.1337 127.872 36.3449 127.988 36.5322C128.116 36.712 128.295 36.8494 128.502 36.9272C128.745 37.0382 129.009 37.0924 129.275 37.0856C129.506 37.0911 129.736 37.0534 129.953 36.9743C130.132 36.9168 130.288 36.802 130.396 36.6475C130.49 36.5278 130.541 36.3797 130.54 36.2275C130.545 36.0743 130.494 35.9243 130.396 35.8064C130.274 35.6673 130.114 35.5654 129.937 35.5127C129.641 35.41 129.339 35.325 129.033 35.2581C128.694 35.1917 128.365 35.0854 128.051 34.9413C127.832 34.8372 127.647 34.6744 127.516 34.4711C127.396 34.2817 127.334 34.0615 127.337 33.8375C127.336 33.5799 127.411 33.3277 127.555 33.1137C127.71 32.8833 127.932 32.7059 128.191 32.6054C128.811 32.3687 129.497 32.3729 130.114 32.6175C130.381 32.7267 130.611 32.9113 130.775 33.1488C130.931 33.39 131.017 33.6703 131.021 33.9578L130.378 33.9969C130.374 33.8592 130.341 33.724 130.281 33.6002C130.22 33.4764 130.134 33.3669 130.028 33.2791C129.771 33.0972 129.459 33.0113 129.145 33.0365C128.832 33.0082 128.519 33.0859 128.256 33.2571C128.169 33.3187 128.098 33.4001 128.049 33.4946C128 33.5891 127.974 33.694 127.974 33.8004C127.973 33.8855 127.991 33.9697 128.025 34.0475C128.06 34.1253 128.111 34.1948 128.174 34.2515C128.483 34.4321 128.824 34.5519 129.178 34.6044C129.565 34.6746 129.943 34.7858 130.306 34.9363C130.569 35.0397 130.796 35.2186 130.957 35.4505C131.102 35.6616 131.177 35.9126 131.171 36.1683C131.172 36.4384 131.092 36.7025 130.94 36.9262C130.776 37.1708 130.547 37.3643 130.278 37.4846C129.97 37.6196 129.637 37.6879 129.301 37.6851C128.908 37.6986 128.516 37.6303 128.15 37.4846C127.851 37.361 127.596 37.149 127.421 36.8771C127.24 36.6108 127.142 36.2967 127.141 35.9748" fill="white"/>
<path d="M133.906 37.5879V32.5262H137.565V33.1278H134.589V34.6786H137.377V35.2691H134.589V37.0044H137.686V37.5889L133.906 37.5879Z" fill="white"/>
<path d="M140.173 35.1268C140.13 34.4048 140.374 33.6953 140.852 33.1518C141.077 32.9161 141.349 32.7304 141.651 32.6067C141.952 32.4831 142.276 32.4242 142.602 32.434C143.048 32.4319 143.487 32.5466 143.875 32.7669C144.244 32.9962 144.542 33.3231 144.736 33.7112C144.937 34.1358 145.036 34.6011 145.027 35.0706C145.034 35.5506 144.926 36.0252 144.71 36.4541C144.522 36.8435 144.213 37.1623 143.83 37.3634C143.453 37.5754 143.028 37.6863 142.596 37.6852C142.148 37.6887 141.708 37.5683 141.324 37.3373C140.954 37.1156 140.656 36.7923 140.465 36.406C140.273 36.0075 140.173 35.571 140.173 35.1288M140.875 35.1348C140.847 35.6648 141.027 36.1849 141.377 36.5844C141.537 36.7496 141.73 36.8808 141.942 36.97C142.154 37.0593 142.382 37.1049 142.613 37.1041C142.843 37.1032 143.071 37.056 143.283 36.9651C143.494 36.8743 143.686 36.7417 143.845 36.5754C144.195 36.1554 144.371 35.6172 144.335 35.0716C144.347 34.7005 144.278 34.3313 144.135 33.9889C144.009 33.6928 143.796 33.4418 143.525 33.2691C143.253 33.1008 142.941 33.0116 142.621 33.0115C142.165 33.0067 141.725 33.1813 141.397 33.4977C141.207 33.723 141.064 33.9838 140.976 34.2648C140.888 34.5459 140.857 34.8416 140.884 35.1348" fill="white"/>
<path d="M150.043 35.61V35.0135H152.194V36.9043C151.882 37.1423 151.54 37.3379 151.176 37.4857C150.83 37.6157 150.464 37.6836 150.095 37.6862C149.62 37.6908 149.151 37.5801 148.729 37.3634C148.333 37.1587 148.01 36.8369 147.804 36.4421C147.595 36.0198 147.488 35.554 147.492 35.0827C147.492 34.6041 147.598 34.1314 147.804 33.6992C147.995 33.2976 148.306 32.9656 148.695 32.7499C149.109 32.5365 149.57 32.4278 150.036 32.4331C150.379 32.4288 150.72 32.49 151.04 32.6135C151.312 32.7207 151.553 32.8928 151.742 33.1148C151.919 33.3624 152.048 33.6414 152.121 33.9368L151.503 34.1123C151.441 33.8937 151.347 33.6857 151.223 33.4957C151.092 33.3415 150.925 33.2229 150.736 33.1509C150.518 33.0553 150.282 33.0071 150.043 33.0095C149.773 33.0058 149.505 33.0537 149.253 33.1509C149.048 33.2325 148.865 33.359 148.717 33.5208C148.582 33.669 148.473 33.8384 148.394 34.022C148.265 34.3461 148.199 34.6919 148.202 35.0406C148.189 35.4332 148.268 35.8234 148.435 36.1794C148.576 36.4767 148.814 36.7173 149.11 36.8621C149.402 37.0101 149.724 37.086 150.051 37.0837C150.344 37.0847 150.633 37.0256 150.901 36.9103C151.126 36.8274 151.336 36.7082 151.523 36.5574V35.606L150.043 35.61Z" fill="white"/>
<path d="M158.27 32.5262H158.945V35.4596C158.961 35.87 158.902 36.2798 158.773 36.6696C158.659 36.977 158.44 37.2342 158.155 37.3954C157.797 37.6028 157.387 37.703 156.974 37.6841C156.575 37.6975 156.179 37.615 155.818 37.4435C155.526 37.2892 155.298 37.0358 155.176 36.7288C155.031 36.322 154.965 35.8911 154.983 35.4596V32.5262H155.654V35.4516C155.639 35.7807 155.679 36.1101 155.773 36.426C155.858 36.629 156.007 36.7987 156.198 36.9092C156.419 37.0273 156.668 37.0863 156.919 37.0806C157.107 37.0988 157.296 37.0778 157.476 37.0189C157.655 36.9601 157.82 36.8647 157.96 36.7388C158.211 36.3591 158.32 35.9036 158.27 35.4516V32.5262Z" fill="white"/>
<path d="M164.215 37.5879V32.5262H164.898L167.565 36.5032V32.5262H168.208V37.5879H167.526L164.852 33.615V37.5879H164.215Z" fill="white"/>
<path d="M170.903 35.1268C170.861 34.4059 171.103 33.6973 171.577 33.1518C171.803 32.916 172.076 32.7303 172.379 32.6066C172.682 32.483 173.007 32.4242 173.334 32.4341C173.777 32.4316 174.213 32.5464 174.597 32.7669C174.97 32.9902 175.269 33.3188 175.456 33.7112C175.657 34.141 175.759 34.6098 175.757 35.0839C175.754 35.558 175.646 36.0256 175.441 36.4531C175.25 36.841 174.942 37.1591 174.56 37.3624C174.184 37.5748 173.759 37.6857 173.327 37.6842C172.877 37.6869 172.435 37.5666 172.049 37.3363C171.681 37.1137 171.383 36.7906 171.192 36.405C171.001 36.0061 170.902 35.5698 170.902 35.1278M171.598 35.1338C171.568 35.6641 171.748 36.1847 172.099 36.5834C172.256 36.7528 172.446 36.8868 172.659 36.9764C172.871 37.066 173.1 37.1091 173.331 37.1027C173.563 37.1097 173.794 37.0657 174.008 36.9739C174.221 36.8821 174.412 36.7447 174.567 36.5714C174.921 36.1533 175.099 35.614 175.062 35.0676C175.072 34.6956 175 34.3259 174.851 33.9849C174.726 33.6885 174.513 33.4374 174.241 33.2651C173.971 33.095 173.657 33.0056 173.338 33.0075C172.881 33.0019 172.44 33.1766 172.111 33.4937C171.922 33.719 171.778 33.9797 171.69 34.2608C171.602 34.5418 171.57 34.8375 171.598 35.1308" fill="white"/>
<path d="M178.367 37.588V32.5263H179.034V35.0246L181.564 32.5233H182.467L180.33 34.5865L182.56 37.587H181.67L179.864 35.0326L179.026 35.8346V37.584L178.367 37.588Z" fill="white"/>
<path d="M188.506 35.8125L189.183 35.9849C189.074 36.4794 188.807 36.925 188.421 37.2541C188.038 37.5456 187.565 37.6974 187.084 37.6842C186.615 37.7042 186.151 37.586 185.75 37.3443C185.391 37.1134 185.117 36.7736 184.966 36.3749C184.784 35.9463 184.694 35.4848 184.7 35.0195C184.689 34.5417 184.792 34.068 185.001 33.6381C185.192 33.2614 185.492 32.9516 185.863 32.7499C186.236 32.5368 186.66 32.4275 187.09 32.4331C187.55 32.4183 188.002 32.5596 188.371 32.8341C188.727 33.1018 188.982 33.4825 189.094 33.9138L188.431 34.0742C188.352 33.7553 188.171 33.4707 187.916 33.2631C187.672 33.0891 187.377 32.9997 187.077 33.0085C186.73 32.9967 186.388 33.0969 186.103 33.2942C185.84 33.4758 185.647 33.7408 185.554 34.0461C185.334 34.7303 185.344 35.4675 185.583 36.1453C185.686 36.4468 185.892 36.7026 186.164 36.8681C186.424 37.0257 186.723 37.1064 187.027 37.1007C187.372 37.1133 187.71 37.002 187.98 36.7869C188.259 36.5299 188.445 36.1873 188.506 35.8125Z" fill="white"/>
<path d="M191.812 37.5879V32.5262H192.484V34.6064H195.093V32.5262H195.767V37.5879H195.093V35.2059H192.484V37.5879H191.812Z" fill="white"/>
<path d="M198.707 37.5879V32.5262H202.359V33.1278H199.381V34.6786H202.171V35.2691H199.381V37.0044H202.48V37.5889L198.707 37.5879Z" fill="white"/>
<path d="M204.974 35.1268C204.929 34.4058 205.171 33.6962 205.646 33.1519C205.871 32.9156 206.144 32.7295 206.446 32.6058C206.748 32.4821 207.072 32.4236 207.399 32.4341C207.841 32.4309 208.277 32.5458 208.66 32.7669C209.036 32.9898 209.338 33.3182 209.528 33.7113C209.73 34.1346 209.832 34.5987 209.826 35.0676C209.835 35.5469 209.729 36.0214 209.516 36.4511C209.322 36.8393 209.012 37.1573 208.628 37.3604C208.244 37.5764 207.81 37.6877 207.37 37.6831C206.93 37.6786 206.498 37.5583 206.119 37.3343C205.752 37.1108 205.455 36.7879 205.264 36.403C205.074 36.0041 204.976 35.5676 204.977 35.1258M205.672 35.1318C205.642 35.66 205.818 36.1794 206.162 36.5814C206.319 36.7507 206.511 36.8846 206.724 36.9742C206.937 37.0637 207.167 37.1069 207.398 37.1007C207.63 37.1076 207.861 37.064 208.075 36.9727C208.289 36.8815 208.481 36.7449 208.637 36.5724C208.984 36.1503 209.158 35.6127 209.124 35.0676C209.132 34.6962 209.062 34.3272 208.917 33.9849C208.791 33.6893 208.58 33.4384 208.309 33.2651C208.038 33.0951 207.725 33.0057 207.406 33.0075C206.951 33.0022 206.514 33.1771 206.188 33.4937C205.999 33.7191 205.856 33.9799 205.768 34.2609C205.68 34.5419 205.648 34.8376 205.675 35.1308" fill="white"/>
<path d="M212.461 37.5879V32.5262H213.145L215.811 36.5032V32.5262H216.458V37.5879H215.765L213.1 33.615V37.5879H212.461Z" fill="white"/>
<path d="M221.733 35.61V35.0135H223.881V36.9042C223.567 37.1449 223.221 37.3406 222.853 37.4856C222.509 37.6169 222.145 37.6849 221.777 37.6861C221.305 37.6907 220.839 37.5799 220.42 37.3633C220.023 37.1616 219.699 36.839 219.497 36.442C219.283 36.0212 219.174 35.5547 219.18 35.0826C219.179 34.604 219.285 34.1313 219.491 33.6992C219.678 33.2951 219.991 32.9622 220.383 32.7498C220.796 32.5367 221.255 32.4279 221.72 32.433C222.059 32.428 222.396 32.4893 222.711 32.6135C222.986 32.715 223.229 32.888 223.414 33.1147C223.6 33.3577 223.732 33.6382 223.799 33.9368L223.176 34.1122C223.121 33.8919 223.027 33.6831 222.899 33.4957C222.769 33.3402 222.601 33.2213 222.411 33.1508C222.194 33.0547 221.959 33.0065 221.722 33.0095C221.451 33.0065 221.183 33.0545 220.93 33.1508C220.728 33.2361 220.545 33.362 220.393 33.5207C220.262 33.6713 220.154 33.8401 220.072 34.022C219.944 34.3462 219.878 34.6919 219.879 35.0405C219.865 35.434 219.947 35.825 220.118 36.1794C220.257 36.4778 220.494 36.7191 220.791 36.8621C221.083 37.0105 221.408 37.0865 221.736 37.0836C222.026 37.0846 222.313 37.0256 222.579 36.9102C222.807 36.826 223.02 36.707 223.211 36.5573V35.6059L221.733 35.61Z" fill="white"/>
<path d="M229.805 37.5879L231.745 32.5262H232.493L234.558 37.5879H233.794L233.208 36.0501H231.077L230.529 37.5879H229.805ZM231.276 35.5167H232.989L232.47 34.1062C232.305 33.6861 232.187 33.3323 232.102 33.0586C232.038 33.3878 231.944 33.7103 231.82 34.022L231.276 35.5167Z" fill="white"/>
<path d="M239.902 37.5879V32.5262H240.906L242.116 36.1212C242.225 36.4531 242.304 36.6917 242.358 36.8691C242.417 36.6806 242.507 36.415 242.632 36.0501L243.864 32.5262H244.745V37.5879H244.103V33.3603L242.609 37.5879H242.016L240.541 33.2771V37.5879H239.902Z" fill="white"/>
<path d="M250.914 32.5262H251.595V35.4596C251.609 35.8697 251.552 36.2791 251.425 36.6696C251.307 36.976 251.087 37.2324 250.802 37.3954C250.445 37.6017 250.037 37.7019 249.625 37.6841C249.225 37.6979 248.827 37.6154 248.466 37.4435C248.175 37.2868 247.947 37.0342 247.821 36.7288C247.676 36.3219 247.611 35.8911 247.628 35.4596V32.5262H248.302V35.4516C248.291 35.7805 248.33 36.1092 248.419 36.426C248.504 36.6313 248.656 36.8017 248.851 36.9092C249.07 37.0269 249.316 37.086 249.564 37.0806C249.753 37.0981 249.943 37.0768 250.122 37.018C250.302 36.9592 250.468 36.8642 250.609 36.7388C250.856 36.3578 250.963 35.9026 250.91 35.4516L250.914 32.5262Z" fill="white"/>
<path d="M254.265 35.9699L254.9 35.9147C254.915 36.1341 254.984 36.3463 255.101 36.5323C255.227 36.7112 255.404 36.8486 255.609 36.9273C256.073 37.1204 256.592 37.1371 257.068 36.9744C257.246 36.9175 257.4 36.8024 257.504 36.6476C257.602 36.5292 257.656 36.3809 257.657 36.2275C257.659 36.0746 257.608 35.9257 257.513 35.8065C257.388 35.6708 257.23 35.5697 257.055 35.5127C256.756 35.4126 256.453 35.3276 256.146 35.2581C255.808 35.1896 255.48 35.0834 255.166 34.9413C254.947 34.8371 254.762 34.6744 254.63 34.4711C254.511 34.2817 254.449 34.0614 254.454 33.8375C254.452 33.5808 254.525 33.3291 254.665 33.1137C254.821 32.8829 255.044 32.7054 255.304 32.6055C255.6 32.4878 255.917 32.4285 256.236 32.431C256.577 32.4252 256.916 32.4887 257.232 32.6175C257.497 32.7284 257.724 32.9128 257.888 33.1488C258.042 33.3911 258.128 33.6707 258.137 33.9578L257.497 33.9969C257.492 33.8595 257.458 33.7248 257.397 33.6013C257.337 33.4777 257.251 33.368 257.146 33.2791C256.889 33.0989 256.577 33.0132 256.264 33.0365C255.947 33.007 255.629 33.0847 255.361 33.2571C255.276 33.3201 255.207 33.402 255.158 33.4963C255.11 33.5905 255.085 33.6947 255.084 33.8005C255.084 33.8855 255.102 33.9696 255.136 34.0473C255.171 34.125 255.221 34.1946 255.285 34.2516C255.595 34.4333 255.937 34.5531 256.293 34.6045C256.679 34.6741 257.056 34.7853 257.418 34.9363C257.682 35.0409 257.91 35.2195 258.075 35.4506C258.219 35.6614 258.293 35.9128 258.285 36.1684C258.287 36.4388 258.205 36.7032 258.052 36.9263C257.891 37.171 257.663 37.3647 257.395 37.4847C257.086 37.6191 256.752 37.6874 256.415 37.6852C256.021 37.6977 255.628 37.6295 255.261 37.4847C254.963 37.359 254.708 37.1476 254.529 36.8771C254.355 36.608 254.259 36.2954 254.254 35.9749" fill="white"/>
<path d="M261.02 37.5879V32.5262H264.673V33.1278H261.702V34.6786H264.489V35.2691H261.702V37.0044H264.8V37.5889L261.02 37.5879Z" fill="white"/>
<path d="M270.815 32.5262H271.486V35.4596C271.501 35.8697 271.444 36.2792 271.318 36.6696C271.198 36.9763 270.976 37.2325 270.689 37.3954C270.335 37.6031 269.928 37.7034 269.518 37.6841C269.118 37.6968 268.72 37.6144 268.358 37.4435C268.067 37.2874 267.839 37.0347 267.714 36.7288C267.569 36.3217 267.501 35.8914 267.513 35.4596V32.5262H268.194V35.4516C268.177 35.7811 268.218 36.1111 268.317 36.426C268.397 36.6299 268.545 36.8004 268.735 36.9092C268.959 37.0259 269.207 37.0848 269.459 37.0806C269.646 37.0995 269.835 37.0789 270.014 37.02C270.192 36.9611 270.357 36.8653 270.496 36.7388C270.752 36.3615 270.865 35.9047 270.813 35.4516L270.815 32.5262Z" fill="white"/>
<path d="M274.367 37.5879V32.5262H275.371L276.585 36.1212C276.699 36.4531 276.778 36.6917 276.829 36.8691C276.888 36.6806 276.981 36.415 277.099 36.0501L278.334 32.5262H279.215V37.5879H278.574V33.3603L277.082 37.5879H276.489L275.017 33.2771V37.5879H274.367Z" fill="white"/>
<path d="M77.9755 14.5012C77.9443 13.6571 78.1668 12.8231 78.6143 12.1064C79.0618 11.3898 79.7139 10.8234 80.4865 10.4802C81.2591 10.137 82.1168 10.0328 82.9493 10.1809C83.7817 10.3291 84.5507 10.7228 85.1571 11.3113C85.7636 11.8999 86.1798 12.6564 86.352 13.4833C86.5243 14.3103 86.4447 15.1698 86.1236 15.9511C85.8025 16.7325 85.2546 17.3999 84.5504 17.8675C83.8462 18.335 83.018 18.5812 82.1725 18.5744C81.6259 18.5949 81.0809 18.5044 80.5703 18.3085C80.0597 18.1126 79.5942 17.8153 79.2019 17.4346C78.8095 17.0538 78.4986 16.5976 78.2878 16.0934C78.0771 15.5892 77.9708 15.0476 77.9755 14.5012ZM80.1684 14.5012C80.1305 14.7878 80.1553 15.0793 80.2412 15.3554C80.3271 15.6315 80.4719 15.8857 80.6657 16.1004C80.8595 16.3152 81.0976 16.4853 81.3636 16.5992C81.6297 16.713 81.9173 16.7678 82.2066 16.7598C82.496 16.7655 82.7831 16.7092 83.0489 16.5948C83.3147 16.4804 83.5529 16.3106 83.7476 16.0966C83.9423 15.8827 84.0889 15.6297 84.1776 15.3545C84.2663 15.0793 84.295 14.7884 84.2619 14.5012C84.2619 13.0295 83.44 12.1403 82.2066 12.1403C80.9562 12.1403 80.1684 13.0305 80.1684 14.5012ZM90.9608 25.3162H80.5788V20.422H82.6863V23.5197H90.9608V25.3162ZM90.6356 21.0385H88.5281V9.76135H90.6356V21.0385Z" fill="white"/>
<path d="M99.376 16.4019C100.363 17.2912 101.492 18.009 102.716 18.5252L101.448 20.0651C100.235 19.4782 99.1246 18.6996 98.1597 17.7593C96.9702 18.8677 95.5889 19.7509 94.0832 20.3658L92.8789 18.8771C96.3914 17.5428 98.1376 15.2681 98.4989 14.1032C97.4713 14.1373 96.4436 14.1373 95.4149 14.1373H93.8092V12.443H96.3442C97.9198 12.443 99.5125 12.443 101.072 12.4089C100.85 13.8644 100.267 15.2412 99.376 16.414M95.0928 9.92774H100.129V11.6561H95.0928V9.92774ZM106.073 25.3172H95.8294V21.1247H97.971V23.5207H106.074L106.073 25.3172ZM101.396 16.6205V14.844H103.64V9.76233H105.765V21.9117H103.64V16.6205H101.396Z" fill="white"/>
<path d="M107.582 17.0345H109.722C110.099 17.0345 110.509 17.0345 110.926 17.0175V13.7323H112.981V16.9663C114.608 16.8982 116.322 16.7779 117.798 16.5894V18.2666C115.127 18.5992 112.438 18.7666 109.747 18.7678H107.588L107.582 17.0345ZM116.85 10.3438C116.811 12.2359 116.599 14.1204 116.216 15.9739H114.142C114.448 14.682 114.632 13.3643 114.69 12.038H108.763V10.3438H116.85ZM115.154 19.5508C118.683 19.5508 120.55 20.9192 120.55 22.6485C120.55 24.3939 118.854 25.7463 115.326 25.7463C111.797 25.7463 109.793 24.3939 109.793 22.6485C109.793 20.9202 111.625 19.5508 115.155 19.5508M115.155 21.228C112.809 21.228 111.935 21.9297 111.935 22.6485C111.935 23.3844 112.809 24.1032 115.155 24.1032C117.484 24.1032 118.375 23.3854 118.375 22.6485C118.375 21.9297 117.484 21.228 115.155 21.228ZM118.256 19.624V9.76233H120.345V13.8004H122.538V15.5628H120.345V19.619L118.256 19.624Z" fill="white"/>
<path d="M130.475 11.1989H133.867V9.76135H135.987V18.9844H133.863V16.9794H130.643C130.25 17.374 129.78 17.6838 129.262 17.8897C128.744 18.0956 128.189 18.1932 127.632 18.1764C126.982 18.1574 126.347 17.9815 125.78 17.6637C125.212 17.3459 124.731 16.8957 124.376 16.3515C124.021 15.8074 123.803 15.1854 123.741 14.5389C123.679 13.8924 123.775 13.2404 124.02 12.6388C124.265 12.0372 124.652 11.5038 125.148 11.0842C125.645 10.6646 126.235 10.3713 126.87 10.2293C127.504 10.0873 128.164 10.1009 128.792 10.2689C129.42 10.4369 129.998 10.7543 130.476 11.1939M125.509 14.1714C125.486 14.4613 125.525 14.7528 125.622 15.0269C125.719 15.3011 125.872 15.5519 126.072 15.7631C126.273 15.9744 126.515 16.1415 126.783 16.2536C127.052 16.3657 127.341 16.4203 127.632 16.414C127.916 16.4156 128.197 16.3565 128.456 16.2408C128.715 16.1251 128.947 15.9553 129.135 15.743C129.323 15.5306 129.464 15.2805 129.547 15.0095C129.631 14.7384 129.655 14.4527 129.619 14.1714C129.655 13.8893 129.631 13.6027 129.547 13.3308C129.464 13.0589 129.324 12.8078 129.136 12.5942C128.948 12.3806 128.717 12.2093 128.457 12.0918C128.198 11.9743 127.917 11.9133 127.632 11.9127C127.341 11.9097 127.052 11.9672 126.783 12.0815C126.515 12.1957 126.274 12.3643 126.074 12.5766C125.875 12.7889 125.721 13.0402 125.624 13.3147C125.527 13.5892 125.487 13.8809 125.509 14.1714ZM133.868 25.6541V21.3934H125.577V19.6521H135.987V25.6591L133.868 25.6541ZM131.59 15.2671H133.885V12.8932H131.539C131.772 13.6669 131.789 14.4892 131.59 15.2721" fill="white"/>
<path d="M138.956 22.3047L137.414 21.0726C140.291 18.9333 142.231 15.9729 141.885 10.7027H144.078C144.12 12.0913 144.005 13.4802 143.736 14.8431C144.543 17.1845 146.103 19.1935 148.172 20.5574L146.754 21.997C145.118 20.8647 143.784 19.3505 142.866 17.5859C142.005 19.4773 140.657 21.1069 138.961 22.3087M148.981 9.76538H151.106V25.624H148.981V9.76538Z" fill="white"/>
<path d="M157.615 22.3348L156.176 21.0505C159.036 18.9112 160.955 15.9678 160.613 10.6977H162.805C162.851 12.116 162.73 13.5348 162.446 14.9252C163.262 17.2471 164.812 19.2408 166.862 20.6054L165.526 22.0942C163.857 20.934 162.498 19.383 161.568 17.5769C160.683 19.4769 159.321 21.116 157.615 22.3348ZM164.861 16.5683V14.7418H167.756V9.76233H169.88V25.625H167.756V16.5724L164.861 16.5683Z" fill="white"/>
<path d="M181.742 17.222C182.024 15.5814 182.192 13.9233 182.244 12.2596H173.931V10.446H184.398C184.378 12.7148 184.194 14.9792 183.851 17.222H186.472V19.0195H180.339V25.5358H178.176V19.0195H171.77V17.222H181.742Z" fill="white"/>
<path d="M192.777 9.8125H194.901V13.6631H203.279V15.3935H198.943V17.1047H205.419V18.8501H190.414V17.1027H196.803V15.3935H192.777V9.8125ZM200.984 25.6591V21.8767H192.469V20.0972H203.09V25.6591H200.984Z" fill="white"/>
<path d="M212.428 15.6651C213.444 16.3937 214.542 17.0023 215.699 17.4786L214.432 18.8992C213.245 18.4006 212.137 17.7319 211.143 16.9142C209.952 17.8846 208.609 18.6533 207.169 19.1899L205.832 17.8035C209.052 16.7428 211.006 14.9453 211.469 13.8165C210.476 13.8496 209.498 13.8496 208.523 13.8496H206.827V12.2255H209.482C211.059 12.2255 212.634 12.2255 214.211 12.1914C213.941 13.4886 213.325 14.6888 212.429 15.6651M208.196 9.76135H213.214V11.4205H208.196V9.76135ZM213.678 19.3784C217.225 19.3784 219.074 20.7819 219.074 22.5774C219.074 24.3408 217.225 25.7433 213.678 25.7433C210.131 25.7433 208.317 24.3398 208.317 22.5774C208.317 20.7809 210.132 19.3784 213.678 19.3784ZM213.678 21.0726C211.349 21.0726 210.458 21.7914 210.458 22.5764C210.458 23.3293 211.349 24.0651 213.678 24.0651C216.007 24.0651 216.916 23.3293 216.916 22.5764C216.916 21.7894 216.013 21.0726 213.678 21.0726ZM214.347 16.0601V14.2786H216.762V9.76135H218.887V19.5859H216.762V16.0591L214.347 16.0601Z" fill="white"/>
<path d="M227.201 16.7428C228.16 18.2327 229.399 19.523 230.85 20.5423L229.325 21.9619C228.079 20.9914 226.988 19.8378 226.088 18.5403C224.951 20.0595 223.574 21.3832 222.01 22.4591L220.469 21.0907C223.929 18.9854 226.138 15.4436 226.328 12.9112C225.248 12.9794 224.152 12.9794 223.192 12.9794H221.479V11.1127H224.135C225.591 11.1127 227.099 11.1127 228.708 11.0786C228.672 13.0604 228.155 15.0039 227.203 16.7428M235.802 17.4786H233.318V25.624H231.194V9.76135H233.318V15.6651H235.802V17.4786Z" fill="white"/>
<path d="M236.539 18.1634V10.2235H238.63V12.7218H241.901V10.2235H243.956V18.1634H236.539ZM246.287 25.6581V21.4837H238.166V19.7373H248.393V25.6581H246.287ZM241.901 14.4491H238.63V16.434H241.901V14.4491ZM250.774 15.0135H248.393V19.0696H246.286V9.76135H248.393V13.235H250.773L250.774 15.0135Z" fill="white"/>
<path d="M257.286 18.9523V17.8215H250.863V16.1794H265.87V17.8215H259.429V18.9523H263.557V23.0626H255.26V23.9358H263.945V25.63H253.157V21.4897H261.432V20.6506H253.157V18.9523H257.286ZM253.227 10.1393H263.47V15.3232H253.226L253.227 10.1393ZM261.33 11.8335H255.35V13.7503H261.33V11.8335Z" fill="white"/>
<path d="M271.34 14.3478V17.5137C273.001 17.4455 274.752 17.3252 276.257 17.1368V18.8651C273.586 19.1977 270.897 19.3651 268.206 19.3663H266.047V17.5819H268.186C268.529 17.5819 268.906 17.5819 269.282 17.5658V14.3478H271.34ZM275.177 10.5483C275.156 12.5238 274.96 14.4936 274.594 16.435H272.522C272.851 15.0836 273.041 13.7019 273.087 12.3117H267.228V10.5493L275.177 10.5483ZM279.065 25.3162H268.565V20.9052H270.706V23.5227H279.065V25.3162ZM276.717 22.034V9.76233H278.806V14.9984H280.999V16.812H278.806V22.034H276.717Z" fill="white"/>
</g>
</g>
<defs>
<clipPath id="clip0_1637_7578">
<rect width="281" height="44" fill="white"/>
</clipPath>
</defs>
</svg>
