<svg width="132" height="58" viewBox="0 0 132 58" fill="none" xmlns="http://www.w3.org/2000/svg">
<g clip-path="url(#clip0_1637_9720)">
<path d="M129.211 1.95692C128.113 1.95692 127.273 2.46769 127.273 3.25538C127.273 4.04308 127.841 4.43077 129.063 4.59077C130.137 4.73231 130.483 4.94154 130.483 5.31077C130.483 5.71077 129.958 5.99385 129.267 5.99385C128.465 5.99385 128.057 5.64308 128.014 5.29231H127.224C127.279 6.07385 128.045 6.65231 129.249 6.65231C130.366 6.65231 131.279 6.13539 131.279 5.26769C131.279 4.57231 130.798 4.13539 129.452 3.95077C128.353 3.80308 128.07 3.57538 128.07 3.20615C128.07 2.86769 128.539 2.60923 129.193 2.60923C129.847 2.60923 130.353 2.87385 130.384 3.24923H131.174C131.137 2.49231 130.31 1.95077 129.211 1.95077M126.693 5.02154H125.872C125.693 5.56308 125.205 5.93846 124.57 5.93846C123.675 5.93846 123.07 5.23692 123.07 4.30154C123.07 3.36615 123.675 2.66462 124.57 2.66462C125.205 2.66462 125.675 3.03385 125.854 3.56308H126.675C126.452 2.63385 125.625 1.95077 124.564 1.95077C123.236 1.95077 122.274 2.95385 122.274 4.29538C122.274 5.63692 123.249 6.64 124.582 6.64C125.625 6.64 126.452 5.98154 126.693 5.01538M121.471 2.06769H120.662V6.54769H121.471V2.06769ZM121.064 0C120.755 0 120.533 0.227692 120.533 0.529231C120.533 0.830769 120.761 1.05846 121.064 1.05846C121.366 1.05846 121.607 0.830769 121.607 0.529231C121.607 0.227692 121.379 0 121.064 0ZM120.07 2.06769H119.076V0.701539H118.268V2.06154H117.274V2.77538H118.268V6.53538H119.076V2.77538H120.07V2.06154V2.06769ZM114.774 2.66462C115.663 2.66462 116.274 3.36615 116.274 4.30154C116.274 5.23692 115.663 5.93846 114.774 5.93846C113.885 5.93846 113.268 5.23692 113.268 4.30154C113.268 3.36615 113.879 2.66462 114.774 2.66462ZM114.774 1.95692C113.441 1.95692 112.478 2.96 112.478 4.30154C112.478 5.64308 113.441 6.64615 114.774 6.64615C116.107 6.64615 117.064 5.64308 117.064 4.30154C117.064 2.96 116.101 1.95692 114.774 1.95692ZM109.62 5.93846C108.712 5.93846 108.083 5.23692 108.083 4.30154C108.083 3.36615 108.712 2.66462 109.62 2.66462C110.527 2.66462 111.12 3.36615 111.12 4.30154C111.12 5.23692 110.521 5.93846 109.62 5.93846ZM109.688 6.64615C110.959 6.64615 111.91 5.63692 111.91 4.30154C111.91 2.96615 110.959 1.95692 109.688 1.95692C108.873 1.95692 108.324 2.35077 108.095 2.73231V0.08H107.287V6.54154H108.095V5.87692C108.324 6.25846 108.873 6.65231 109.688 6.65231M104.194 2.66462C105.083 2.66462 105.694 3.36615 105.694 4.30154C105.694 5.23692 105.083 5.93846 104.194 5.93846C103.305 5.93846 102.688 5.23692 102.688 4.30154C102.688 3.36615 103.299 2.66462 104.194 2.66462ZM104.194 1.95692C102.861 1.95692 101.898 2.96 101.898 4.30154C101.898 5.64308 102.861 6.64615 104.194 6.64615C105.527 6.64615 106.484 5.64308 106.484 4.30154C106.484 2.96 105.521 1.95692 104.194 1.95692ZM98.8364 3.58769H97.3673V1.00923H98.8364C99.9289 1.00923 100.596 1.45231 100.596 2.30154C100.596 3.15077 99.9289 3.59385 98.8364 3.59385M101.657 6.54154L100.077 4.14769C100.941 3.84 101.416 3.18769 101.416 2.30154C101.416 1.06462 100.484 0.276923 98.8981 0.276923H96.5463V6.54154H97.3673V4.32615H98.8981C99.0154 4.32615 99.1326 4.32 99.2499 4.30769L100.676 6.53538H101.651L101.657 6.54154ZM93.4724 0.270769H92.6515V6.53538H93.4724V0.270769ZM87.7813 4.26462L89.0035 1.23692L90.2195 4.26462H87.7813ZM91.1392 6.54154H92.0404L89.4603 0.276923H88.5899L86.0036 6.54154H86.8678L87.4974 4.99077H90.5158L91.1454 6.54154H91.1392ZM79.4422 0.08V6.54154H80.2508V4.22769C80.2508 3.39692 80.8187 2.66462 81.6026 2.66462C82.331 2.66462 82.7692 3.15692 82.7692 4.06769V6.54769H83.5778V3.92615C83.5778 2.72 82.8309 1.96308 81.7754 1.96308C80.9545 1.96308 80.4422 2.42462 80.2508 2.75077V0.08H79.4422ZM78.8496 2.06769H77.8559V0.701539H77.0473V2.06154H76.0535V2.77538H77.0473V6.53538H77.8559V2.77538H78.8496V2.06154V2.06769ZM75.4547 2.06769H74.6461V6.54769H75.4547V2.06769ZM75.0473 0C74.7387 0 74.5165 0.227692 74.5165 0.529231C74.5165 0.830769 74.7449 1.05846 75.0473 1.05846C75.3498 1.05846 75.5905 0.830769 75.5905 0.529231C75.5905 0.227692 75.3622 0 75.0473 0ZM73.2388 2.06769L72.0537 5.56308L70.8747 2.06769H70.0599L68.8933 5.53846L67.7144 2.06769H66.8749L68.4612 6.54154H69.276L70.455 3.11385L71.6401 6.54154H72.4549L74.0412 2.06769H73.2388ZM63.7516 3.97538H60.8567C60.9431 3.2 61.4924 2.64 62.301 2.64C63.1096 2.64 63.659 3.19385 63.7516 3.97538ZM62.301 6.64615C63.3257 6.64615 64.1343 6.09231 64.3812 5.31692H63.5602C63.3936 5.68615 62.9183 5.96308 62.3072 5.96308C61.5048 5.96308 60.9492 5.39077 60.8628 4.62769H64.5355C64.5478 4.51692 64.5478 4.4 64.5478 4.30154C64.5478 2.95385 63.6158 1.95692 62.301 1.95692C60.9863 1.95692 60.0481 2.96 60.0481 4.30154C60.0481 5.64308 60.9925 6.64615 62.301 6.64615ZM56.9186 2.06769V6.54154H57.7272V4.22769C57.7272 3.41538 58.3691 2.67692 59.2888 2.67692C59.5604 2.67692 59.7826 2.72615 59.9555 2.8V2.03077C59.8011 1.97538 59.616 1.95077 59.3444 1.95077C58.4679 1.95077 57.9247 2.41231 57.7272 2.75077V2.06154H56.9186V2.06769ZM55.8816 6.54154V2.06769H55.073V4.38154C55.073 5.21231 54.5051 5.94462 53.7212 5.94462C52.9928 5.94462 52.5546 5.45231 52.5546 4.54769V2.06769H51.746V4.68923C51.746 5.89538 52.4929 6.65231 53.5484 6.65231C54.3693 6.65231 54.8816 6.19077 55.073 5.86462V6.54769H55.8816V6.54154ZM51.2522 2.06769H50.2584V0.701539H49.4498V2.06154H48.456V2.77538H49.4498V6.53538H50.2584V2.77538H51.2522V2.06154V2.06769ZM47.8634 6.54154V2.06769H47.0548V4.38154C47.0548 5.21231 46.4931 5.94462 45.703 5.94462C44.9747 5.94462 44.5364 5.45231 44.5364 4.54769V2.06769H43.7278V4.68923C43.7278 5.89538 44.4747 6.65231 45.5302 6.65231C46.3512 6.65231 46.8635 6.19077 47.0548 5.86462V6.54769H47.8634V6.54154ZM38.833 0.270769V6.53538H39.6539V3.87077H42.876V3.13846H39.6539V1.00923H43.2217V0.270769H38.8268H38.833ZM35.2467 3.97538H32.3518C32.4382 3.2 32.9876 2.64 33.7962 2.64C34.6048 2.64 35.1542 3.19385 35.2467 3.97538ZM33.7962 6.64615C34.827 6.64615 35.6294 6.09231 35.8763 5.31692H35.0554C34.8887 5.68615 34.4134 5.96308 33.8024 5.96308C32.9999 5.96308 32.4444 5.39077 32.358 4.62769H36.0307C36.0492 4.51692 36.0492 4.4 36.0492 4.30154C36.0492 2.95385 35.1171 1.95692 33.8024 1.95692C32.4876 1.95692 31.5494 2.96 31.5494 4.30154C31.5494 5.64308 32.4876 6.64615 33.8024 6.64615M26.7101 0.08V6.54154H27.5187V4.22769C27.5187 3.39692 28.0866 2.66462 28.8705 2.66462C29.5989 2.66462 30.0371 3.15692 30.0371 4.06769V6.54769H30.8457V3.92615C30.8457 2.72 30.0988 1.96308 29.0433 1.96308C28.2224 1.96308 27.7101 2.42462 27.5187 2.75077V0.08H26.7101ZM26.1114 2.06769H25.1176V0.701539H24.309V2.06154H23.3152V2.77538H24.309V6.53538H25.1176V2.77538H26.1114V2.06154V2.06769ZM17.9019 3.37231L15.6366 6.54154H16.5995L18.4265 3.97538L20.2474 6.54154H21.2289L18.9512 3.34769L21.1486 0.270769H20.1919L18.4451 2.74462L16.7044 0.270769H15.7106L17.9019 3.36615V3.37231ZM11.1923 4.26462L12.4145 1.23692L13.6305 4.26462H11.1923ZM14.5502 6.54154H15.4514L12.8712 0.270769H12.0009L9.41462 6.53538H10.2788L10.9084 4.98462H13.9268L14.5564 6.53538L14.5502 6.54154ZM8.47639 6.64C8.79119 6.64 9.02575 6.4 9.02575 6.08615C9.02575 5.77231 8.79119 5.53231 8.47639 5.53231C8.16159 5.53231 7.92086 5.77231 7.92086 6.08615C7.92086 6.4 8.16159 6.64 8.47639 6.64ZM0.742188 0.270769V6.53538H1.56314V1.91385L3.58773 5.48308H4.18647L6.21107 1.91385V6.53538H7.03202V0.270769H6.30983L3.88402 4.52308L1.46438 0.270769H0.742188Z" fill="white"/>
<path d="M109.432 19.2984V11.9753H112.253V20.3261C112.253 21.0646 111.655 21.6553 110.92 21.6553H106.914V19.2923H109.432V19.2984Z" fill="white"/>
<path d="M64.4297 27.1016V24.2154H71.6207V21.8524H57.3621V19.397H70.2813C71.022 19.397 71.6207 18.8001 71.6207 18.0616V13.5077C71.6207 12.7754 71.022 12.1724 70.2813 12.1724H54.6339V14.5354H68.7937V17.0277H55.8745C55.1338 17.0277 54.5413 17.6247 54.5413 18.3631V22.8801C54.5413 23.6185 55.14 24.2093 55.8745 24.2093H61.7632V27.0954H54.3438V29.4585H71.9417V27.0954H64.4297V27.1016Z" fill="white"/>
<path d="M77.1247 18.0123H88.5686V21.7662H77.1247V18.0123ZM84.1367 27.1016V24.1293H90.0624C90.8031 24.1293 91.3957 23.5323 91.3957 22.8V12.0554H88.5748V15.6493H77.1309V12.0554H74.3039V22.8C74.3039 23.5385 74.9088 24.1293 75.6433 24.1293H81.4702V27.1016H74.0508V29.4647H91.6487V27.1016H84.1367Z" fill="white"/>
<path d="M132 27.1016H114.402V29.4646H132V27.1016Z" fill="white"/>
<path d="M117.419 20.8369V14.5415H131.578V12.1785H115.937C115.196 12.1785 114.598 12.7754 114.598 13.5139V21.8708C114.598 22.6031 115.196 23.2 115.937 23.2H131.677V20.8369H117.425H117.419Z" fill="white"/>
<path d="M96.8454 14.9293C96.9935 13.8523 97.9132 13.0216 99.0366 13.0216H100.123C101.24 13.0216 102.166 13.8523 102.308 14.9293V17.1323C102.166 18.2093 101.246 19.04 100.123 19.04H99.0366C97.9194 19.04 96.9935 18.2093 96.8454 17.1323V14.9293ZM98.333 31.2493V29.5816H110.919C111.66 29.5816 112.258 28.9847 112.258 28.2523V24.7139C112.258 23.9754 111.66 23.3847 110.919 23.3847H101V21.6677H105.505V19.3047H104.444C104.777 18.757 104.975 18.117 104.975 17.4277V14.6462C104.975 12.6523 103.357 11.04 101.358 11.04H97.8083C95.8084 11.04 94.1912 12.6523 94.1912 14.6462V17.4277C94.1912 18.117 94.3887 18.757 94.722 19.3047H92.6172V21.6677H98.1663V23.3847H95.6047V25.7477H109.431V27.2308H96.8454C96.1047 27.2308 95.5059 27.8277 95.5059 28.56V32.2831C95.5059 33.0216 96.1108 33.6185 96.8454 33.6185H112.252V31.2554H98.333V31.2493Z" fill="white"/>
<path d="M9.98719 14.3631H8.41319C7.95642 14.3631 7.58606 13.9877 7.58606 13.5261V12.8738C7.58606 12.4246 7.22806 12.0615 6.78363 12.0615H1.61104C1.16661 12.0615 0.808604 12.4246 0.808604 12.8738V13.5508C0.808604 14 1.16661 14.3631 1.61104 14.3631H6.69722C7.15399 14.3631 7.52434 14.7384 7.52434 15.2V18.9477C7.52434 19.4092 7.15399 19.7846 6.69722 19.7846H4.00599C3.56156 19.7846 3.19738 20.1538 3.19738 20.5969V21.2492C3.19738 21.7169 2.8332 22.0861 2.37026 22.0861H0.802432C0.36418 22.0861 0 22.4492 0 22.8984V26.3446C0 26.7938 0.358008 27.1569 0.802432 27.1569H2.37643C2.8332 27.1569 3.20355 27.5261 3.20355 27.9938V28.6461C3.20355 29.0954 3.56156 29.4584 4.01216 29.4584H9.98719C10.4316 29.4584 10.7896 29.0954 10.7896 28.6461V27.9692C10.7896 27.52 10.4316 27.1569 9.98719 27.1569H4.08623C3.62946 27.1569 3.26528 26.7877 3.25911 26.3261V22.9108C3.26528 22.4492 3.62946 22.08 4.08623 22.08H6.77746C7.22188 22.08 7.57989 21.7169 7.57989 21.2677V20.6154C7.57989 20.1477 7.95025 19.7784 8.40701 19.7784H9.98102C10.4254 19.7784 10.7834 19.4154 10.7834 18.9661V15.1692C10.7834 14.72 10.4254 14.3569 9.98102 14.3569" fill="white"/>
<path d="M22.097 26.3261C22.097 26.7938 21.7328 27.1631 21.2822 27.1631H16.3627C15.9121 27.1631 15.5479 26.7877 15.5479 26.3261V15.2C15.5479 14.7323 15.9059 14.3631 16.3627 14.3631H21.2822C21.7328 14.3631 22.097 14.7384 22.097 15.2V26.3261ZM24.5105 14.3631H22.9612C22.5106 14.3631 22.1464 13.9877 22.1464 13.5261V12.8738C22.1464 12.4246 21.7946 12.0615 21.3563 12.0615H16.2763C15.838 12.0615 15.4862 12.4246 15.4862 12.8738V13.5261C15.4862 13.9938 15.122 14.3631 14.6714 14.3631H13.1221C12.6839 14.3631 12.332 14.7261 12.332 15.1754V26.3446C12.332 26.7938 12.6839 27.1569 13.1221 27.1569H14.6714C15.122 27.1569 15.4862 27.5323 15.4862 27.9938V28.6461C15.4862 29.0954 15.838 29.4584 16.2763 29.4584H21.3563C21.7946 29.4584 22.1464 29.0954 22.1464 28.6461V27.9938C22.1464 27.5261 22.5106 27.1569 22.9612 27.1569H24.5105C24.9487 27.1569 25.3006 26.7938 25.3006 26.3446V15.1754C25.3006 14.7261 24.9487 14.3631 24.5105 14.3631Z" fill="white"/>
<path d="M36.8309 14.3631H35.2569C34.8002 14.3631 34.4298 13.9877 34.4298 13.5261V12.8738C34.4298 12.4246 34.0718 12.0615 33.6274 12.0615H28.461C28.0165 12.0615 27.6585 12.4246 27.6585 12.8738V13.5508C27.6585 14 28.0165 14.3631 28.461 14.3631H33.5471C34.0039 14.3631 34.3743 14.7384 34.3743 15.2V18.9477C34.3743 19.4092 34.0039 19.7846 33.5471 19.7846H30.8559C30.4115 19.7846 30.0473 20.1538 30.0473 20.5969V21.2492C30.0473 21.7169 29.6831 22.0861 29.2202 22.0861H27.6462C27.2018 22.0861 26.8438 22.4492 26.8438 22.8984V26.3446C26.8438 26.7938 27.2018 27.1569 27.6462 27.1569H29.2202C29.6831 27.1569 30.0473 27.5261 30.0473 27.9938V28.6461C30.0473 29.0954 30.4053 29.4584 30.8559 29.4584H36.8309C37.2754 29.4584 37.6334 29.0954 37.6334 28.6461V27.9692C37.6334 27.52 37.2754 27.1569 36.8309 27.1569H30.93C30.4732 27.1569 30.109 26.7877 30.1029 26.3261V22.9108C30.109 22.4492 30.4732 22.08 30.93 22.08H33.6212C34.0656 22.08 34.4236 21.7169 34.4236 21.2677V20.6154C34.4236 20.1477 34.794 19.7784 35.2508 19.7784H36.8248C37.2692 19.7784 37.6272 19.4154 37.6272 18.9661V15.1692C37.6272 14.72 37.2692 14.3569 36.8248 14.3569" fill="white"/>
<path d="M46.9071 22.2031C47.1231 22.2031 47.3021 22.3816 47.3021 22.597V26.7631C47.3021 26.9785 47.1231 27.157 46.9071 27.157H42.253C42.0369 27.157 41.8579 26.9785 41.8579 26.7631V22.597C41.8579 22.3816 42.0369 22.2031 42.253 22.2031H46.9071ZM43.2715 14.2954H49.1662C49.6107 14.2954 49.9687 13.9323 49.9687 13.477V12.8C49.9687 12.3446 49.6107 11.9816 49.1662 11.9816H43.1974C42.753 11.9816 42.395 12.3446 42.395 12.8V13.4523C42.395 13.9262 42.0308 14.2954 41.5678 14.2954H39.9938C39.5494 14.2954 39.1914 14.6585 39.1914 15.1139V18.5785C39.1914 19.0277 39.5494 19.3908 39.9877 19.3908H41.3333C41.3333 19.3908 41.5864 19.3785 41.6851 19.5877C41.7098 19.637 41.7283 19.6923 41.7283 19.7723V20.4677C41.6172 20.6216 41.395 20.7262 41.1296 20.7262H39.8457C39.4815 20.7262 39.1914 20.9354 39.1914 21.2V27.6677C39.1914 27.9262 39.4877 28.1416 39.8457 28.1416H41.1296C41.5061 28.1416 41.8086 28.357 41.8086 28.6277V29.0031C41.8086 29.2616 42.0987 29.477 42.4629 29.477H46.6849C47.0491 29.477 47.3392 29.2677 47.3392 29.0031V28.6277C47.3392 28.357 47.6416 28.1416 48.0182 28.1416H49.302C49.6662 28.1416 49.9563 27.9323 49.9563 27.6677V21.2C49.9563 20.9354 49.6662 20.7262 49.302 20.7262H48.0182C47.6416 20.7262 47.3392 20.5108 47.3392 20.24V19.8646C47.3392 19.6 47.0429 19.3908 46.6849 19.3908H43.2283C42.79 19.3723 42.4443 19.0154 42.4382 18.56V15.1262C42.4443 14.6646 42.8085 14.2954 43.2653 14.2954" fill="white"/>
<path d="M10.122 40.6154C10.3196 40.4677 10.4183 40.2523 10.4183 39.9692C10.4183 39.6861 10.3196 39.4769 10.122 39.323C9.92453 39.1754 9.64676 39.1015 9.29493 39.1015H8.3567V40.8369H9.29493C9.64676 40.8369 9.92453 40.763 10.122 40.6154ZM10.4739 42.8184L9.56035 41.323C9.46158 41.3292 9.38751 41.3354 9.33196 41.3354H8.3567V42.8246H7.83203V38.6154H9.33196C9.66528 38.6154 9.95539 38.6707 10.1961 38.7815C10.4368 38.8923 10.622 39.0523 10.7516 39.2554C10.8813 39.4584 10.943 39.6984 10.943 39.9754C10.943 40.2707 10.8689 40.5292 10.7208 40.7446C10.5726 40.96 10.3628 41.1138 10.085 41.2184L11.0911 42.8246H10.4677L10.4739 42.8184Z" fill="white"/>
<path d="M22.6781 42.1907C22.9188 42.043 23.1101 41.8461 23.2459 41.5877C23.3817 41.3292 23.4496 41.04 23.4496 40.7138C23.4496 40.3877 23.3817 40.0984 23.2459 39.84C23.1101 39.5815 22.9188 39.3784 22.6781 39.2369C22.4373 39.0892 22.1657 39.0215 21.8571 39.0215C21.5485 39.0215 21.2831 39.0954 21.0423 39.2369C20.8016 39.3846 20.6164 39.5815 20.4745 39.84C20.3387 40.0984 20.2708 40.3877 20.2708 40.7138C20.2708 41.04 20.3387 41.3292 20.4745 41.5877C20.6102 41.8461 20.8016 42.0492 21.0423 42.1907C21.2831 42.3384 21.5608 42.4061 21.8571 42.4061C22.1534 42.4061 22.4312 42.3323 22.6719 42.1907M20.7831 42.6338C20.4621 42.443 20.209 42.1846 20.0239 41.8461C19.8387 41.5077 19.7461 41.1323 19.7461 40.7138C19.7461 40.2954 19.8387 39.92 20.0177 39.5815C20.1967 39.243 20.4498 38.9846 20.7769 38.7938C21.0979 38.603 21.4621 38.5107 21.8633 38.5107C22.2645 38.5107 22.6225 38.603 22.9496 38.7938C23.2706 38.9846 23.5237 39.243 23.7089 39.5815C23.894 39.92 23.9866 40.2954 23.9866 40.7138C23.9866 41.1323 23.894 41.5077 23.715 41.8461C23.536 42.1846 23.283 42.443 22.962 42.6338C22.641 42.8246 22.2768 42.9169 21.8756 42.9169C21.4744 42.9169 21.1164 42.8246 20.7893 42.6338" fill="white"/>
<path d="M35.417 42.16C35.5775 42.0369 35.6577 41.8646 35.6577 41.6369C35.6577 41.4092 35.5775 41.2369 35.417 41.1138C35.2565 40.9907 35.0343 40.9292 34.7504 40.9292H33.5035V42.3507H34.7504C35.0343 42.3507 35.2565 42.2892 35.417 42.1661M35.2442 40.2892C35.3923 40.1723 35.4664 40 35.4664 39.7784C35.4664 39.5569 35.3923 39.3907 35.2442 39.2676C35.096 39.1507 34.88 39.0892 34.596 39.0892H33.4973V40.4676H34.596C34.8738 40.4676 35.0898 40.4061 35.2442 40.2892ZM34.6146 38.6092C35.0528 38.6092 35.3985 38.7138 35.6392 38.9169C35.8799 39.1261 36.0034 39.4092 36.0034 39.7723C36.0034 39.9692 35.9417 40.1538 35.8244 40.3199C35.7071 40.4861 35.559 40.5907 35.38 40.64C35.6145 40.6892 35.8059 40.7999 35.9602 40.9784C36.1145 41.1569 36.1886 41.3723 36.1886 41.6246C36.1886 41.9876 36.0651 42.2769 35.812 42.4923C35.559 42.7076 35.2133 42.8123 34.7627 42.8123H32.9727V38.603H34.6084L34.6146 38.6092Z" fill="white"/>
<path d="M47.9359 42.1907C48.1766 42.043 48.3679 41.8461 48.5037 41.5877C48.6395 41.3292 48.7074 41.04 48.7074 40.7138C48.7074 40.3877 48.6395 40.0984 48.5037 39.84C48.3679 39.5815 48.1766 39.3784 47.9359 39.2369C47.6951 39.0892 47.4235 39.0215 47.1149 39.0215C46.8063 39.0215 46.5409 39.0954 46.3001 39.2369C46.0594 39.3846 45.8742 39.5815 45.7323 39.84C45.5965 40.0984 45.5286 40.3877 45.5286 40.7138C45.5286 41.04 45.5965 41.3292 45.7323 41.5877C45.8681 41.8461 46.0594 42.0492 46.3001 42.1907C46.5409 42.3384 46.8186 42.4061 47.1149 42.4061C47.4112 42.4061 47.689 42.3323 47.9297 42.1907M46.0409 42.6338C45.7199 42.443 45.4668 42.1846 45.2817 41.8461C45.0965 41.5077 45.0039 41.1323 45.0039 40.7138C45.0039 40.2954 45.0965 39.92 45.2755 39.5815C45.4545 39.243 45.7076 38.9846 46.0347 38.7938C46.3557 38.603 46.7199 38.5107 47.1211 38.5107C47.5223 38.5107 47.8803 38.603 48.2075 38.7938C48.5284 38.9846 48.7815 39.243 48.9667 39.5815C49.1519 39.92 49.2444 40.2954 49.2444 40.7138C49.2444 41.1323 49.1519 41.5077 48.9729 41.8461C48.7938 42.1846 48.5408 42.443 48.2136 42.6338C47.8927 42.8246 47.5285 42.9169 47.1273 42.9169C46.726 42.9169 46.368 42.8246 46.0409 42.6338Z" fill="white"/>
<path d="M59.6878 39.1077V42.8185H59.157V39.1077H57.7188V38.6093H61.1198V39.1077H59.6878Z" fill="white"/>
<path d="M75.2427 38.6093L74.0205 42.8185H73.4897L72.5206 39.4646L71.5515 42.8185H71.0207L69.8047 38.6093H70.3479L71.2984 41.9877L72.249 38.6093H72.8045L73.7613 41.9939L74.7119 38.6093H75.2427Z" fill="white"/>
<path d="M86.7484 42.1907C86.9891 42.043 87.1805 41.8461 87.3163 41.5877C87.452 41.3292 87.5199 41.04 87.5199 40.7138C87.5199 40.3877 87.452 40.0984 87.3163 39.84C87.1805 39.5815 86.9891 39.3784 86.7484 39.2369C86.5076 39.0892 86.2361 39.0215 85.9274 39.0215C85.6188 39.0215 85.3534 39.0954 85.1126 39.2369C84.8719 39.3846 84.6867 39.5815 84.5448 39.84C84.409 40.0984 84.3411 40.3877 84.3411 40.7138C84.3411 41.04 84.409 41.3292 84.5448 41.5877C84.6806 41.8461 84.8719 42.0492 85.1126 42.1907C85.3534 42.3384 85.6311 42.4061 85.9274 42.4061C86.2237 42.4061 86.5015 42.3323 86.7422 42.1907M84.8534 42.6338C84.5324 42.443 84.2794 42.1846 84.0942 41.8461C83.909 41.5077 83.8164 41.1323 83.8164 40.7138C83.8164 40.2954 83.909 39.92 84.088 39.5815C84.2732 39.243 84.5201 38.9846 84.8472 38.7938C85.1682 38.603 85.5324 38.5107 85.9336 38.5107C86.3348 38.5107 86.6928 38.603 87.02 38.7938C87.3409 38.9846 87.594 39.243 87.7792 39.5815C87.9644 39.92 88.057 40.2954 88.057 40.7138C88.057 41.1323 87.9644 41.5077 87.7854 41.8461C87.6064 42.1846 87.3533 42.443 87.0323 42.6338C86.7113 42.8246 86.3472 42.9169 85.9459 42.9169C85.5447 42.9169 85.1867 42.8246 84.8596 42.6338" fill="white"/>
<path d="M99.3392 40.6154C99.5367 40.4677 99.6354 40.2523 99.6354 39.9692C99.6354 39.6861 99.5367 39.4769 99.3392 39.323C99.1416 39.1754 98.8639 39.1015 98.512 39.1015H97.5738V40.8369H98.512C98.8639 40.8369 99.1416 40.763 99.3392 40.6154ZM99.6848 42.8184L98.7713 41.323C98.6725 41.3292 98.5984 41.3354 98.5429 41.3354H97.5676V42.8246H97.043V38.6154H98.5429C98.8762 38.6154 99.1663 38.6707 99.4071 38.7815C99.6478 38.8923 99.833 39.0523 99.9626 39.2554C100.092 39.4584 100.154 39.6984 100.154 39.9754C100.154 40.2707 100.08 40.5292 99.9317 40.7446C99.7836 40.96 99.5737 41.1138 99.2959 41.2184L100.302 42.8246H99.6787L99.6848 42.8184Z" fill="white"/>
<path d="M109.704 42.32H111.908V42.8184H109.18V38.6154H109.704V42.32Z" fill="white"/>
<path d="M123.452 41.9016C123.742 41.6185 123.89 41.2246 123.89 40.72C123.89 40.2154 123.742 39.8154 123.452 39.5323C123.162 39.2493 122.761 39.1077 122.248 39.1077H121.335V42.3262H122.248C122.761 42.3262 123.162 42.1846 123.452 41.9077M122.236 38.6093C122.687 38.6093 123.082 38.6954 123.409 38.8739C123.736 39.0462 123.989 39.2923 124.162 39.6123C124.335 39.9262 124.421 40.2954 124.421 40.72C124.421 41.1446 124.335 41.5077 124.162 41.8216C123.989 42.1354 123.742 42.3816 123.409 42.5539C123.082 42.7323 122.687 42.8185 122.236 42.8185H120.816V38.6093H122.236Z" fill="white"/>
<path d="M131.519 36.6647H0.488076C0.339935 36.6647 0.222656 36.7816 0.222656 36.9293V44.597C0.222656 44.7447 0.339935 44.8616 0.488076 44.8616H131.519C131.667 44.8616 131.784 44.7447 131.784 44.597V36.9293C131.784 36.7816 131.667 36.6647 131.519 36.6647ZM131.519 36.8493C131.562 36.8493 131.593 36.8862 131.593 36.9231V44.5908C131.593 44.6339 131.556 44.6647 131.519 44.6647H0.488076C0.444868 44.6647 0.414005 44.6277 0.414005 44.5908V36.9231C0.414005 36.8801 0.451041 36.8493 0.488076 36.8493H131.519Z" fill="white"/>
<path d="M3.68647 57.1508H1.76681V50.2031H0.242188V48.5354H3.68647V57.1508Z" fill="white"/>
<path d="M8.31928 57.1508H6.39962V50.2031H4.875V48.5354H8.31928V57.1508Z" fill="white"/>
<path d="M11.5876 56.1785C11.5876 56.7815 11.1432 57.2369 10.5382 57.2369C9.93333 57.2369 9.47656 56.7815 9.47656 56.1785C9.47656 55.5754 9.92099 55.12 10.5382 55.12C11.1555 55.12 11.5876 55.5754 11.5876 56.1785Z" fill="white"/>
<path d="M15.6091 55.4153H11.7266V53.8276L15.0659 48.5292H17.43V53.8276H18.5657V55.4153H17.43V57.1507H15.6091V55.4153ZM15.6091 53.8338V50.5107L13.5722 53.8338H15.6091Z" fill="white"/>
<path d="M18.6172 53.2984C18.6172 51.643 19.2838 50.3384 20.3023 49.243H21.9072C20.8825 50.3077 20.1727 51.6861 20.1727 53.2984C20.1727 54.9107 20.8825 56.2892 21.9072 57.3538H20.3023C19.2777 56.2646 18.6172 54.9538 18.6172 53.2984Z" fill="white"/>
<path d="M29.8956 55.5938H26.797V57.3108H25.2353V55.5938H22.1367V54.1969H29.8894V55.5938H29.8956ZM22.3157 53.6246V52.2031C23.8157 52.2031 25.2662 51.0585 25.5131 49.3723L27.0562 49.5938C26.9945 50.0246 26.8649 50.4246 26.6982 50.8123L29.8648 52.3631L29.1549 53.6308L25.9699 51.9569C25.0749 52.9846 23.7416 53.6308 22.3157 53.6185V53.6246Z" fill="white"/>
<path d="M30.1172 57.3538C31.1418 56.2892 31.8517 54.9107 31.8517 53.2984C31.8517 51.6861 31.1418 50.3077 30.1172 49.243H31.722C32.7467 50.3323 33.4072 51.643 33.4072 53.2984C33.4072 54.9538 32.7405 56.2584 31.722 57.3538H30.1172Z" fill="white"/>
<path d="M37.8377 51.6554C38.7821 51.6554 39.4796 52.3508 40.3314 52.3508C40.8745 52.3508 41.2202 52.16 41.5844 51.7662V53.4277C41.2017 53.8092 40.7141 54 40.1647 54C39.2327 54 38.5228 53.3046 37.671 53.3046C37.1278 53.3046 36.7821 53.4646 36.418 53.8031V52.1415C36.8007 51.8154 37.2883 51.6554 37.8377 51.6554Z" fill="white"/>
<path d="M50.6021 49.6739L47.3862 57.1508H45.3739L48.3552 50.2031H44.6641V48.5354H50.6021V49.68V49.6739Z" fill="white"/>
<path d="M50.7695 53.2984C50.7695 51.643 51.4362 50.3384 52.4546 49.243H54.0595C53.0349 50.3077 52.325 51.6861 52.325 53.2984C52.325 54.9107 53.0349 56.2892 54.0595 57.3538H52.4546C51.43 56.2646 50.7695 54.9538 50.7695 53.2984Z" fill="white"/>
<path d="M62.0418 55.4954V56.8677H54.2891V55.4954H57.3939V54.6646H54.7211V49.6738H61.6221V50.9908H56.2211V51.5446H61.4986V52.7877H56.2211V53.3538H61.7146V54.6707H58.9432V55.5015H62.048L62.0418 55.4954Z" fill="white"/>
<path d="M62.2617 57.3538C63.2864 56.2892 63.9962 54.9107 63.9962 53.2984C63.9962 51.6861 63.2864 50.3077 62.2617 49.243H63.8666C64.8912 50.3323 65.5517 51.643 65.5517 53.2984C65.5517 54.9538 64.8851 56.2584 63.8666 57.3538H62.2617Z" fill="white"/>
<path d="M67.4096 58.0001H65.9961L66.3788 55.2616H68.0639L67.4096 58.0001Z" fill="white"/>
<path d="M71.6523 53.7169V52.8307C73.6337 52.8307 75.1337 52.4615 75.7571 51.4338H71.6523V50.5538H76.0534C76.0657 50.4369 76.0781 50.3138 76.0781 50.1723V49.3784H71.6523V48.4923H77.0904V49.9754C77.0904 52.7323 74.8189 53.7169 71.6523 53.7169ZM80.0223 56.2338V57.1877H72.1029V54.3569H73.1646V56.24H80.0285L80.0223 56.2338ZM79.7816 54.9723H78.7323V48.2708H79.7816V54.9723Z" fill="white"/>
<path d="M83.2664 53.6431H81.4023V48.4923H85.3343V49.3723H82.3961V50.5969H85.0441V51.4523H82.3961V52.7631H83.3529C84.359 52.7631 85.2293 52.6584 85.8342 52.4369V53.3046C85.2417 53.5384 84.3096 53.6431 83.2664 53.6431ZM81.8344 54.5415H89.834V57.2984H88.7971V55.4277H81.8406V54.5415H81.8344ZM86.649 51.3477H85.5133V50.4184H86.649V48.3261H87.6366V53.9507H86.649V51.3477ZM89.834 48.2708V54.0431H88.8341V48.2708H89.834Z" fill="white"/>
<path d="M99.9786 55.8831V56.8677H90.9297V55.8831H99.9786ZM91.1087 53.9508V52.9538C93.0716 52.9538 94.874 50.8369 95.3431 48.3138L96.4233 48.5046C96.2936 49.2 96.0838 49.8708 95.7875 50.4738L99.775 53.1508L99.2009 53.9877L95.3307 51.3108C94.3122 52.9046 92.7753 53.9569 91.1087 53.9569V53.9508Z" fill="white"/>
<path d="M103.166 54.6892H104.271C104.302 55.6 104.981 56.3077 106.179 56.3077C107.376 56.3077 108.08 55.6308 108.08 54.7877C108.08 53.8338 107.314 53.2738 106.03 53.2738H105.098V52.3569H106.03C107.111 52.3569 107.845 51.7415 107.845 50.8677C107.845 50.0431 107.191 49.3661 106.061 49.3661C104.932 49.3661 104.29 50.1723 104.29 51.0708H103.179C103.179 49.5815 104.327 48.4185 106.061 48.4185C107.796 48.4185 108.944 49.5077 108.944 50.8369C108.944 51.8708 108.209 52.5908 107.425 52.7815C108.283 52.9415 109.166 53.6061 109.166 54.7815C109.166 56.1969 107.956 57.2738 106.172 57.2738C104.388 57.2738 103.222 56.1723 103.16 54.6954L103.166 54.6892Z" fill="white"/>
<path d="M111.221 51.9631C112.135 51.9631 112.789 52.7261 113.573 52.7261C114.079 52.7261 114.413 52.4492 114.752 52.0369V53.1077C114.443 53.4769 114.03 53.6984 113.468 53.6984C112.555 53.6984 111.9 52.9354 111.104 52.9354C110.604 52.9354 110.265 53.1384 109.938 53.4831V52.4246C110.246 52.1292 110.678 51.9569 111.221 51.9569V51.9631Z" fill="white"/>
<path d="M115.453 54.6893H116.558C116.589 55.6 117.256 56.3077 118.459 56.3077C119.663 56.3077 120.366 55.4831 120.366 54.3754C120.366 53.2677 119.601 52.48 118.478 52.48C117.546 52.48 117.002 52.9539 116.718 53.4831H115.626L115.873 48.6093H121.027V49.5693H116.891L116.743 52.3385C117.064 51.9446 117.688 51.5262 118.663 51.5262C120.274 51.5262 121.465 52.6769 121.465 54.3693C121.465 56.0616 120.243 57.2677 118.465 57.2677C116.688 57.2677 115.527 56.16 115.465 54.6893H115.453Z" fill="white"/>
<path d="M131.205 52.6707V53.4215H122.156V52.6707H126.156V52.1538C124.193 52.1107 122.891 51.7846 122.891 50.9784C122.891 50.1107 124.428 49.7969 126.675 49.7969C128.921 49.7969 130.458 50.1169 130.458 50.9784C130.458 51.7846 129.156 52.1107 127.193 52.1538V52.6707H131.199H131.205ZM130.835 49.3907H122.52V48.6523H126.138V47.9138H127.199V48.6523H130.835V49.3907ZM123.804 56.4554H130.742V57.1938H122.786V55.2184H129.563V54.7015H122.767V53.9631H130.582V55.9323H123.804V56.4615V56.4554ZM126.675 51.44C128.242 51.44 129.421 51.2923 129.421 50.9723C129.421 50.6523 128.242 50.5046 126.675 50.5046C125.107 50.5046 123.928 50.6523 123.928 50.9723C123.928 51.2923 125.113 51.44 126.675 51.44Z" fill="white"/>
</g>
<defs>
<clipPath id="clip0_1637_9720">
<rect width="132" height="58" fill="white"/>
</clipPath>
</defs>
</svg>
