<svg width="165" height="34" viewBox="0 0 165 34" fill="none" xmlns="http://www.w3.org/2000/svg">
<g clip-path="url(#clip0_1637_8974)">
<mask id="mask0_1637_8974" style="mask-type:luminance" maskUnits="userSpaceOnUse" x="0" y="0" width="165" height="34">
<path d="M164.433 0H0V34H164.433V0Z" fill="white"/>
</mask>
<g mask="url(#mask0_1637_8974)">
<path d="M109.483 19.2414C109.419 19.3106 109.356 19.3465 109.291 19.3465H102.204V22.8181C102.204 22.9978 102.114 23.0875 101.935 23.0875H100.269C100.09 23.0875 99.9999 22.9978 99.9999 22.8181V19.3465H92.6047C92.5281 19.3465 92.4644 19.3106 92.4125 19.2414C92.3614 19.1721 92.3359 19.1028 92.3359 19.0386V17.7916C92.3359 17.7147 92.3614 17.648 92.4125 17.589C92.4644 17.5325 92.5281 17.5017 92.6047 17.5017H109.294C109.358 17.5017 109.422 17.5351 109.486 17.5992C109.55 17.6633 109.584 17.7275 109.584 17.7916V19.0386C109.584 19.1028 109.553 19.1695 109.486 19.2414H109.483ZM107.405 26.4437C107.349 26.4822 107.279 26.5001 107.205 26.5001H96.3614C95.7873 26.5001 95.4003 26.3949 95.203 26.1845C95.0057 25.9741 94.9062 25.6175 94.9062 25.1197V21.0708C94.9062 21.0066 94.9343 20.945 94.9929 20.8886C95.0491 20.8296 95.1112 20.8014 95.175 20.8014H96.8224C96.8998 20.8014 96.9661 20.8296 97.0248 20.8886C97.0818 20.945 97.1124 21.0066 97.1124 21.0708V24.3525C97.1124 24.4808 97.1379 24.5629 97.189 24.6014C97.24 24.6399 97.3302 24.6578 97.4577 24.6578H107.211C107.274 24.6578 107.339 24.6809 107.403 24.7245C107.467 24.7682 107.497 24.8246 107.497 24.8888V26.2692C107.497 26.3462 107.469 26.4026 107.41 26.4411L107.405 26.4437ZM106.37 15.508C106.121 15.7133 105.755 15.816 105.268 15.816H96.6072C96.0204 15.816 95.6257 15.7159 95.4284 15.5183C95.2311 15.3207 95.1316 14.9717 95.1316 14.4714V10.597C95.1316 10.112 95.2566 9.7631 95.5058 9.55273C95.7542 9.34235 96.1233 9.23712 96.6072 9.23712H105.268C105.855 9.23712 106.247 9.33717 106.447 9.53471C106.644 9.73233 106.745 10.089 106.745 10.5996V14.474C106.745 14.9615 106.619 15.3054 106.37 15.5106V15.508ZM104.579 11.2872C104.579 11.1846 104.559 11.1179 104.52 11.0871C104.481 11.0563 104.412 11.0384 104.309 11.0384H97.5862C97.4705 11.0384 97.3965 11.0512 97.3659 11.0769C97.3353 11.1024 97.32 11.1666 97.32 11.2692V13.7633C97.32 13.8787 97.3353 13.948 97.3659 13.9737C97.3965 13.9993 97.4705 14.0122 97.5862 14.0122H104.309C104.425 14.0122 104.499 13.9993 104.531 13.9737C104.561 13.948 104.579 13.8762 104.579 13.7633V11.2872Z" fill="white"/>
<path d="M116.438 13.8786C117.025 13.8786 117.575 13.9581 118.085 14.1172C118.595 14.2788 119.044 14.4995 119.426 14.7791C119.807 15.0614 120.11 15.4026 120.325 15.8055C120.543 16.2083 120.651 16.6471 120.651 17.1192C120.651 17.5297 120.571 17.9095 120.412 18.261C120.253 18.6126 120.031 18.923 119.74 19.1924C119.454 19.4618 119.11 19.6876 118.716 19.8723C118.318 20.0571 117.893 20.1879 117.432 20.265V21.8763C118.926 21.7993 120.401 21.6454 121.857 21.417C121.921 21.4041 121.99 21.4068 122.067 21.4272C122.144 21.4478 122.187 21.5068 122.2 21.6094L122.316 22.8C122.329 22.9026 122.311 22.9796 122.26 23.0309C122.208 23.0822 122.149 23.113 122.088 23.1259C120.299 23.4209 118.447 23.6134 116.53 23.7006C114.614 23.7904 112.737 23.8237 110.898 23.7955C110.821 23.7955 110.756 23.7673 110.705 23.7083C110.654 23.6493 110.629 23.5826 110.629 23.5081V22.2612C110.629 22.0687 110.718 21.9738 110.898 21.9738C112.353 22.0123 113.822 22.0123 115.305 21.9738V20.2469C114.859 20.1572 114.447 20.0186 114.07 19.8338C113.693 19.6491 113.368 19.4207 113.094 19.1539C112.82 18.8845 112.605 18.5817 112.453 18.2431C112.299 17.9043 112.223 17.5297 112.223 17.1217C112.223 16.6496 112.335 16.2109 112.558 15.8081C112.781 15.4052 113.086 15.064 113.468 14.7817C113.852 14.4995 114.298 14.2788 114.808 14.1197C115.318 13.9607 115.861 13.8811 116.438 13.8811V13.8786ZM121.565 13.1396C121.506 13.196 121.44 13.2268 121.365 13.2268H111.249C111.185 13.2268 111.118 13.196 111.047 13.1319C110.978 13.0677 110.941 12.9985 110.941 12.9215V11.8464C110.941 11.7822 110.98 11.7181 111.057 11.6539C111.133 11.5898 111.203 11.559 111.267 11.559H121.365C121.442 11.559 121.509 11.5872 121.565 11.6437C121.621 11.7002 121.652 11.7695 121.652 11.8438V12.9368C121.652 13.0139 121.624 13.0806 121.565 13.1396ZM119.131 10.6738C119.075 10.738 119 10.7688 118.91 10.7688H113.775C113.724 10.7688 113.663 10.7431 113.594 10.6917C113.524 10.6405 113.488 10.5635 113.488 10.4608V9.3473C113.488 9.25745 113.524 9.18818 113.594 9.13684C113.663 9.08558 113.724 9.05991 113.775 9.05991H118.91C118.987 9.05991 119.057 9.09323 119.12 9.15741C119.184 9.2215 119.215 9.29077 119.215 9.36778V10.4429C119.215 10.5327 119.187 10.6096 119.128 10.6738H119.131ZM116.438 15.5849C115.826 15.5849 115.313 15.7285 114.905 16.0159C114.495 16.3033 114.293 16.6728 114.293 17.1192C114.293 17.5657 114.495 17.9377 114.898 18.2328C115.3 18.5279 115.815 18.6741 116.44 18.6741C117.066 18.6741 117.58 18.5279 117.982 18.2328C118.385 17.9403 118.585 17.5682 118.585 17.1192C118.585 16.6702 118.382 16.3033 117.982 16.0159C117.58 15.7285 117.066 15.5849 116.44 15.5849H116.438ZM127.963 18.0403C127.907 18.0917 127.845 18.1173 127.781 18.1173H125.271V26.6924C125.271 26.8592 125.188 26.9413 125.021 26.9413H123.315C123.148 26.9413 123.067 26.8592 123.067 26.6924V8.98545C123.067 8.81868 123.148 8.73657 123.315 8.73657H125.021C125.188 8.73657 125.271 8.82123 125.271 8.98545V16.2751H127.781C127.845 16.2751 127.907 16.3007 127.963 16.352C128.022 16.4033 128.05 16.4598 128.05 16.5239V17.8658C128.05 17.93 128.022 17.989 127.963 18.0378V18.0403Z" fill="white"/>
<path d="M130.024 22.3561C129.947 22.4202 129.853 22.4511 129.737 22.4511C129.622 22.4511 129.527 22.4074 129.451 22.3176L128.667 21.3965C128.602 21.3066 128.576 21.2091 128.589 21.0988C128.602 20.991 128.659 20.9038 128.761 20.8396C129.527 20.3035 130.232 19.6953 130.878 19.0179C131.523 18.3406 132.087 17.635 132.574 16.8985C133.059 16.1647 133.461 15.4257 133.781 14.6816C134.101 13.9401 134.324 13.2371 134.452 12.57C134.478 12.3904 134.478 12.2672 134.452 12.1953C134.426 12.126 134.329 12.0902 134.165 12.0902H130.006C129.942 12.0902 129.891 12.0619 129.853 12.0029C129.814 11.9464 129.796 11.8798 129.796 11.8002V10.5738C129.796 10.3813 129.873 10.2864 130.026 10.2864H135.256C135.818 10.2864 136.217 10.3761 136.453 10.5557C136.689 10.7353 136.807 10.992 136.807 11.323C136.807 11.4384 136.804 11.5693 136.797 11.7156C136.789 11.8618 136.774 11.9927 136.748 12.1081C136.607 12.8496 136.41 13.5758 136.154 14.2865C135.898 14.9972 135.592 15.6977 135.233 16.3879C135.426 16.7215 135.648 17.0653 135.905 17.4245C136.161 17.7837 136.427 18.1275 136.71 18.4612C136.989 18.7947 137.26 19.0949 137.525 19.3617C137.786 19.6312 138.026 19.8416 138.244 19.9955C138.385 20.0982 138.452 20.1982 138.447 20.2932C138.439 20.3907 138.393 20.4882 138.304 20.5908L137.576 21.494C137.396 21.7121 137.178 21.7172 136.925 21.5119C136.733 21.3708 136.52 21.1835 136.285 20.9449C136.048 20.7088 135.802 20.442 135.546 20.1494C135.29 19.8544 135.041 19.5413 134.798 19.2104C134.555 18.8794 134.332 18.5458 134.127 18.2123C133.014 19.7851 131.649 21.1681 130.026 22.3561H130.024ZM142.823 8.98545C142.823 8.81868 142.914 8.73657 143.092 8.73657H144.74C144.906 8.73657 144.989 8.82123 144.989 8.98545V26.6924C144.989 26.8592 144.904 26.9413 144.74 26.9413H143.072C142.905 26.9413 142.823 26.8592 142.823 26.6924V17.54H141.235V25.9611C141.235 26.0381 141.207 26.1022 141.148 26.1536C141.088 26.2048 141.03 26.2305 140.966 26.2305H139.415C139.339 26.2305 139.272 26.2048 139.213 26.1536C139.154 26.1022 139.126 26.0381 139.126 25.9611V9.33183C139.126 9.26774 139.154 9.2113 139.213 9.15996C139.269 9.10862 139.339 9.08295 139.415 9.08295H140.966C141.03 9.08295 141.091 9.10862 141.148 9.15996C141.204 9.2113 141.235 9.26774 141.235 9.33183V15.7003H142.823V8.98545Z" fill="white"/>
<path d="M158.331 17.9916C158.259 18.0378 158.192 18.0711 158.129 18.0968C157.654 18.2379 157.076 18.3559 156.386 18.4509C155.697 18.5458 154.964 18.6279 154.192 18.6895C153.419 18.7537 152.65 18.7998 151.884 18.8229C151.118 18.8486 150.42 18.8486 149.795 18.8229C149.375 18.7973 149.04 18.6895 148.788 18.497C148.54 18.3046 148.414 17.9864 148.414 17.5375V11.0536C148.414 10.6045 148.507 10.2915 148.694 10.1144C148.878 9.93482 149.214 9.84506 149.701 9.84506H156.445C156.624 9.84506 156.714 9.92717 156.714 10.0939V11.4358C156.714 11.6026 156.624 11.6847 156.445 11.6847H150.964C150.733 11.6847 150.62 11.795 150.62 12.0106V16.4418C150.62 16.6471 150.657 16.7805 150.726 16.8446C150.795 16.9088 150.951 16.9473 151.194 16.9602C151.602 16.9857 152.079 16.9884 152.622 16.9704C153.165 16.9499 153.734 16.9191 154.326 16.8729C154.921 16.8293 155.518 16.7677 156.117 16.6907C156.717 16.6137 157.281 16.5239 157.803 16.4213C158.021 16.3828 158.147 16.4521 158.185 16.6317L158.395 17.7068C158.42 17.8479 158.397 17.9403 158.329 17.9839L158.331 17.9916ZM162.22 26.5589C162.162 26.5975 162.103 26.6154 162.038 26.6154H151.905C151.33 26.6154 150.943 26.5128 150.746 26.3075C150.546 26.1022 150.449 25.7507 150.449 25.2529V21.1655C150.449 21.1014 150.477 21.0373 150.536 20.9731C150.595 20.9089 150.654 20.8781 150.718 20.8781H152.366C152.443 20.8781 152.509 20.9064 152.565 20.9654C152.622 21.0219 152.653 21.0912 152.653 21.1655V24.4652C152.653 24.5935 152.679 24.6756 152.73 24.7141C152.781 24.7526 152.871 24.7731 152.998 24.7731H162.041C162.106 24.7731 162.167 24.7988 162.223 24.8501C162.279 24.9014 162.308 24.9579 162.308 25.022V26.3844C162.308 26.4615 162.279 26.5179 162.223 26.5564L162.22 26.5589ZM164.348 16.3802C164.288 16.4239 164.229 16.4469 164.166 16.4469H161.56V21.417C161.56 21.5838 161.477 21.6658 161.311 21.6658H159.604C159.438 21.6658 159.356 21.5812 159.356 21.417V8.98545C159.356 8.81868 159.438 8.73657 159.604 8.73657H161.311C161.477 8.73657 161.56 8.82123 161.56 8.98545V14.6073H164.166C164.229 14.6073 164.291 14.6303 164.348 14.674C164.404 14.7201 164.434 14.774 164.434 14.8381V16.2186C164.434 16.2827 164.406 16.3366 164.348 16.3828V16.3802Z" fill="white"/>
<path d="M69.8966 25.7303C65.4918 25.7303 61.9225 21.82 61.9225 16.9936C61.9225 12.1673 65.4918 8.25695 69.8966 8.25695C72.4512 8.25695 74.9752 9.42445 76.4793 11.4489L83.1389 5.79631C79.9103 2.24518 75.1777 6.34051e-05 69.8991 6.34051e-05C61.4304 6.34051e-05 54.3609 5.76551 52.6697 13.4477H42.9916V20.8578H49.6794V23.7418C48.0728 25.1582 45.5949 25.7303 43.4349 25.7303C39.0327 25.7303 35.4633 21.82 35.4633 16.9936C35.4633 12.1673 38.9917 8.38524 43.586 8.25695C46.2766 8.18254 48.7621 8.72906 50.8043 9.90164C51.8138 7.33324 53.3436 5.01115 55.314 3.08934C51.8958 1.06745 47.5424 -0.00250244 43.4349 -0.00250244C34.4281 -0.00250244 27.0049 6.51987 25.9543 14.9358C23.848 14.0507 21.2242 13.422 18.1749 12.9191C13.1399 12.039 11.8305 11.4207 11.8305 9.91702V9.82208C11.8305 8.6495 13.086 7.79767 15.5255 7.72582C18.3236 7.63858 21.4343 8.30057 24.3862 9.79904C25.3855 7.34864 26.9383 5.03425 28.8754 3.10473C25.2932 1.02896 21.1063 -0.125663 15.7817 0.0359852C7.06192 0.305399 1.37087 4.52878 1.37087 11.0794C1.37087 17.63 7.68458 19.621 15.4178 20.9861C20.3505 21.8688 21.3446 22.5641 21.3446 23.9419C21.3446 25.1043 19.9968 25.7483 17.4088 25.9484C13.2244 26.2743 8.72493 25.2326 5.61161 22.8335L0 29.0608C4.46879 32.5376 10.5929 34.1822 17.0295 33.9847C23.0076 33.8025 27.1689 31.5907 30.2053 28.2141C33.4314 31.7524 38.159 33.9898 43.4298 33.9898C48.7006 33.9898 53.4333 31.7498 56.6618 28.2064C59.8905 31.7498 64.6206 33.9898 69.894 33.9898C75.1674 33.9898 79.9053 31.7472 83.1313 28.1961L76.4793 22.5692C74.8394 24.45 72.441 25.7303 69.894 25.7303H69.8966Z" fill="white"/>
</g>
</g>
<defs>
<clipPath id="clip0_1637_8974">
<rect width="165" height="34" fill="white"/>
</clipPath>
</defs>
</svg>
