<svg width="151" height="44" viewBox="0 0 151 44" fill="none" xmlns="http://www.w3.org/2000/svg">
<g clip-path="url(#clip0_1637_6702)">
<path d="M9.38505 29.2131H13.4916L16.0169 39.568L18.4872 29.2131H22.759L18.1489 43.5844H13.9715L11.4226 33.1197L8.8737 43.5844H4.55466L0.0546875 29.2131H4.53104L7.03279 39.5287L9.38505 29.2131Z" fill="white"/>
<path d="M34.3555 41.8584C33.1911 43.2861 31.4132 44 29.0374 44C26.6615 44 24.8835 43.2861 23.7113 41.8584C22.547 40.4308 21.957 38.705 21.957 36.6889C21.957 34.6729 22.5392 32.9941 23.7113 31.5429C24.8835 30.0916 26.6536 29.3622 29.0374 29.3622C31.421 29.3622 33.1911 30.0916 34.3555 31.5429C35.5277 32.9941 36.1098 34.7121 36.1098 36.6889C36.1098 38.6657 35.5277 40.4308 34.3555 41.8584ZM31.484 39.8895C32.0504 39.1364 32.3415 38.0617 32.3415 36.6733C32.3415 35.2847 32.0583 34.2179 31.484 33.4648C30.9175 32.7118 30.0994 32.343 29.0374 32.343C27.9752 32.343 27.1571 32.7196 26.5828 33.4648C26.0085 34.2179 25.7253 35.2847 25.7253 36.6733C25.7253 38.0617 26.0164 39.1285 26.5828 39.8895C27.1571 40.6425 27.9752 41.0191 29.0374 41.0191C30.0994 41.0191 30.9175 40.6425 31.484 39.8895Z" fill="white"/>
<path d="M26.2058 15.3831V23.7297C26.2058 24.5142 26.3003 25.1104 26.4812 25.5105C26.8116 26.2086 27.4488 26.5538 28.4086 26.5538C29.6359 26.5538 30.4776 26.0518 30.9339 25.0555C31.1699 24.5142 31.2879 23.8003 31.2879 22.9139V15.3831H34.9147V29.2209H31.4217V27.2677C31.3902 27.3147 31.3037 27.4402 31.1699 27.652C31.0362 27.8638 30.8709 28.052 30.69 28.2168C30.1236 28.7267 29.573 29.0798 29.0459 29.2602C28.5187 29.4406 27.8973 29.5425 27.1813 29.5425C25.1281 29.5425 23.7513 28.8052 23.0354 27.3147C22.6342 26.5068 22.4375 25.3065 22.4375 23.7219V15.3752H26.2058V15.3831Z" fill="white"/>
<path d="M47.7841 15.9715C48.6887 16.7089 49.1451 17.9405 49.1451 19.6741V28.9856H45.3767V20.592C45.3767 19.8624 45.2823 19.3054 45.0935 18.9132C44.7473 18.2072 44.0865 17.8542 43.111 17.8542C41.9152 17.8542 41.0892 18.3719 40.6408 19.3996C40.4126 19.9487 40.2946 20.6547 40.2946 21.5177V28.9856H36.668V15.1479H40.1609V17.2032C40.625 16.505 41.0577 16.0029 41.4747 15.6891C42.2141 15.1478 43.1582 14.8733 44.2911 14.8733C45.7151 14.8733 46.8793 15.2419 47.7841 15.9793V15.9715Z" fill="white"/>
<path d="M47.9091 29.8407C48.8138 30.5781 49.2701 31.8097 49.2701 33.5433V42.8548H45.5017V34.4611C45.5017 33.7316 45.4074 33.1668 45.2185 32.7824C44.8724 32.0764 44.2116 31.7234 43.236 31.7234C42.0403 31.7234 41.2142 32.2411 40.7658 33.2687C40.5376 33.8179 40.4197 34.5238 40.4197 35.3868V42.8548H36.793V29.0091H40.2859V31.0644C40.75 30.3662 41.1907 29.8642 41.5997 29.5505C42.3392 29.0092 43.2832 28.7346 44.4161 28.7346C45.8401 28.7346 47.0043 29.1034 47.9091 29.8407Z" fill="white"/>
<path d="M23.7427 29.2994L12.4771 13.0297L22.7908 0.352966H15.8285L6.12053 12.8886V0H0V29.1739H6.12053V14.2221L16.3084 29.2994H23.7427Z" fill="white"/>
<path d="M78.928 14.7399C76.568 14.7399 74.6562 16.646 74.6562 18.9994C74.6562 21.3528 76.568 23.2591 78.928 23.2591C81.2881 23.2591 83.2 21.3528 83.2 18.9994C83.2 16.646 81.2881 14.7399 78.928 14.7399ZM78.928 21.1253C77.7481 21.1253 76.7961 20.1682 76.7961 18.9915C76.7961 17.8148 77.7559 16.8657 78.928 16.8657C80.1006 16.8657 81.0601 17.8227 81.0601 18.9915C81.0601 20.1604 80.1085 21.1253 78.928 21.1253Z" fill="white"/>
<path d="M91.5564 14.7399C89.1962 14.7399 87.2852 16.646 87.2852 18.9994C87.2852 21.3528 89.1962 23.2591 91.5564 23.2591C93.9166 23.2591 95.8285 21.3528 95.8285 18.9994C95.8285 16.646 93.9166 14.7399 91.5564 14.7399ZM91.5564 21.1253C90.3767 21.1253 89.4251 20.1682 89.4251 18.9915C89.4251 17.8148 90.3846 16.8657 91.5564 16.8657C92.729 16.8657 93.6885 17.8227 93.6885 18.9915C93.6885 20.1604 92.729 21.1253 91.5564 21.1253Z" fill="white"/>
<path d="M146.053 26.3734C143.693 26.3734 141.781 28.2797 141.781 30.633C141.781 32.9864 143.693 34.8926 146.053 34.8926C148.413 34.8926 150.325 32.9864 150.325 30.633C150.325 28.2797 148.413 26.3734 146.053 26.3734ZM146.053 32.7589C144.873 32.7589 143.921 31.8019 143.921 30.633C143.921 29.4642 144.873 28.4992 146.053 28.4992C147.233 28.4992 148.185 29.4564 148.185 30.633C148.185 31.8097 147.225 32.7589 146.053 32.7589Z" fill="white"/>
<path d="M131.253 14.8577C128.892 14.8577 126.98 16.7639 126.98 19.1173C126.98 21.4706 128.892 23.3769 131.253 23.3769C133.613 23.3769 135.525 21.4706 135.525 19.1173C135.525 16.7639 133.613 14.8577 131.253 14.8577ZM131.253 21.2431C130.072 21.2431 129.12 20.2861 129.12 19.1094C129.12 17.9327 130.08 16.9835 131.253 16.9835C132.424 16.9835 133.385 17.9405 133.385 19.1094C133.385 20.2782 132.432 21.2431 131.253 21.2431Z" fill="white"/>
<path d="M62.5117 14.8577H69.4898V17.2581H71.2913V14.9753H73.2187V26.3734H71.4093V20.4978H69.4898V25.4164H67.2005V17.6189H62.7477L62.5117 14.8577Z" fill="white"/>
<path d="M69.6082 32.249V26.9696H66.9648V32.249V34.4141H69.6082H73.817V32.249H69.6082Z" fill="white"/>
<path d="M86.6862 15.1007H84.5234V30.4525H86.6862V15.1007Z" fill="white"/>
<path d="M84.6393 17.5011H82.4766V20.2623H84.6393V17.5011Z" fill="white"/>
<path d="M97.1354 17.6581H94.9727V20.4194H97.1354V17.6581Z" fill="white"/>
<path d="M136.612 17.7365H134.449V20.4978H136.612V17.7365Z" fill="white"/>
<path d="M84.7679 23.3768H74.9023V26.0126H84.7679V23.3768Z" fill="white"/>
<path d="M80.5503 25.5341H78.2695V28.1698H80.5503V25.5341Z" fill="white"/>
<path d="M83.68 32.0136V28.1698H81.3906V32.0136V34.414H83.68H88.2509V32.0136H83.68Z" fill="white"/>
<path d="M102.084 14.9752H100.039V26.491H102.084V14.9752Z" fill="white"/>
<path d="M98.5956 14.9752H96.5508V26.3734H98.5956V14.9752Z" fill="white"/>
<path d="M102.092 15.1007H100.047V26.4988H102.092V15.1007Z" fill="white"/>
<path d="M113.873 15.1007H111.828V26.4988H113.873V15.1007Z" fill="white"/>
<path d="M126.146 14.9752H124.102V26.3734H126.146V14.9752Z" fill="white"/>
<path d="M137.932 15.0929H135.887V26.491H137.932V15.0929Z" fill="white"/>
<path d="M149.724 15.3362H147.68V26.7264H149.724V15.3362Z" fill="white"/>
<path d="M96.5511 32.1313V26.9696H94.1445V32.1313V34.2885H96.5511H101.964V32.1313H96.5511Z" fill="white"/>
<path d="M108.926 17.258H110.508V15.1007H103.53V17.258H105.197L103.168 22.0588H105.575L106.897 18.3327L108.706 21.9333H110.988L108.926 17.258Z" fill="white"/>
<path d="M118.083 20.137V14.9752H115.676V20.137V22.4119H118.083H122.418V20.137H118.083Z" fill="white"/>
<path d="M139.379 14.9752H146.231V19.4153H141.66V20.4978H146.231V22.2942H139.379V17.6188H143.95V17.0149H139.379V14.9752Z" fill="white"/>
<path d="M67.3086 39.1991H68.056V40.6425L69.4721 39.1991H70.4632L68.9606 40.6425L70.542 42.6978H69.5586L68.4257 41.1759L68.056 41.529V42.6978H67.3086V39.1991Z" fill="white"/>
<path d="M70.9766 39.1991H71.7554V41.3485C71.7554 41.5838 71.7869 41.7643 71.842 41.8741C71.9364 42.0702 72.141 42.1643 72.4478 42.1643C72.7546 42.1643 72.9591 42.0702 73.0535 41.8741C73.1086 41.7643 73.1401 41.5917 73.1401 41.3485V39.1991H73.9189V41.3485C73.9189 41.7172 73.8559 42.0075 73.738 42.2114C73.5098 42.588 73.085 42.7841 72.4478 42.7841C71.8105 42.7841 71.3779 42.5958 71.1497 42.2114C71.0317 41.9996 70.9688 41.7172 70.9688 41.3485V39.1991H70.9766Z" fill="white"/>
<path d="M74.6563 39.1991H75.4509L76.9141 41.6387V39.1991H77.6222V42.6978H76.8591L75.3565 40.211V42.6978H74.6484V39.1991H74.6563Z" fill="white"/>
<path d="M78.8372 39.1991L79.3256 41.2073L79.4278 41.7642L79.5379 41.2152L79.9547 39.1991H80.7648L81.1973 41.2073L81.3075 41.7642L81.4183 41.223L81.9059 39.1991H82.6924L81.6621 42.6978H80.93L80.4895 40.6504L80.3558 39.9757L80.2221 40.6504L79.7817 42.6978H79.0739L78.0352 39.1991H78.8451H78.8372Z" fill="white"/>
<path d="M85.9696 42.3919C85.6944 42.6665 85.2933 42.7998 84.7664 42.7998C84.2394 42.7998 83.8376 42.6665 83.5623 42.3919C83.1927 42.0625 83.0039 41.576 83.0039 40.9485C83.0039 40.3209 83.1927 39.8267 83.5623 39.5051C83.8376 39.2306 84.2394 39.0972 84.7664 39.0972C85.2933 39.0972 85.6944 39.2306 85.9696 39.5051C86.3393 39.8267 86.528 40.3052 86.528 40.9485C86.528 41.5917 86.3393 42.0546 85.9696 42.3919ZM85.4978 41.8585C85.6786 41.6467 85.7652 41.3407 85.7652 40.9485C85.7652 40.5562 85.6786 40.2504 85.4978 40.0386C85.3169 39.8268 85.0809 39.7169 84.7742 39.7169C84.4675 39.7169 84.2308 39.8268 84.042 40.0386C83.8611 40.2504 83.7668 40.5562 83.7668 40.9485C83.7668 41.3407 83.8533 41.6467 84.042 41.8585C84.2229 42.0703 84.4675 42.1802 84.7742 42.1802C85.0809 42.1802 85.3169 42.0703 85.4978 41.8585Z" fill="white"/>
<path d="M87.1055 39.1991H87.8998L89.3634 41.6387V39.1991H90.0713V42.6978H89.3084L87.8055 40.211V42.6978H87.0977V39.1991H87.1055Z" fill="white"/>
<path d="M95.1514 39.8188H93.2316V40.564H94.9941V41.1681H93.2316V42.078H95.2457V42.6978H92.4688V39.1991H95.1514V39.8188Z" fill="white"/>
<path d="M95.8828 39.1991H96.6936L98.1722 41.6387V39.1991H98.8879V42.6978H98.1171L96.5985 40.211V42.6978H95.8828V39.1991Z" fill="white"/>
<path d="M102.105 40.2974C102.042 40.0621 101.9 39.8894 101.672 39.7953C101.546 39.7482 101.404 39.7169 101.247 39.7169C100.948 39.7169 100.705 39.8189 100.508 40.0307C100.311 40.2425 100.217 40.5563 100.217 40.9877C100.217 41.4191 100.319 41.7172 100.532 41.8977C100.736 42.0781 100.972 42.1644 101.239 42.1644C101.507 42.1644 101.711 42.0938 101.884 41.9526C102.049 41.8114 102.152 41.631 102.192 41.4035H101.334V40.823H102.876V42.6979H102.365L102.286 42.2664C102.137 42.4311 102.002 42.541 101.884 42.6115C101.68 42.7292 101.428 42.7842 101.129 42.7842C100.634 42.7842 100.233 42.6273 99.9181 42.3057C99.5956 41.984 99.4297 41.5446 99.4297 40.9799C99.4297 40.4151 99.5956 39.9601 99.9259 39.6228C100.256 39.2776 100.697 39.105 101.239 39.105C101.711 39.105 102.089 39.2148 102.38 39.4424C102.664 39.6698 102.829 39.9522 102.868 40.2817H102.105V40.2974Z" fill="white"/>
<path d="M104.325 42.7058H103.555V39.207H104.325V42.7058Z" fill="white"/>
<path d="M105.047 39.1991H105.857L107.336 41.6387V39.1991H108.052V42.6978H107.281L105.763 40.211V42.6978H105.047V39.1991Z" fill="white"/>
<path d="M111.476 39.8188H109.557V40.564H111.319V41.1681H109.557V42.078H111.571V42.6978H108.793V39.1991H111.476V39.8188Z" fill="white"/>
<path d="M114.913 39.8188H112.993V40.564H114.756V41.1681H112.993V42.078H115.007V42.6978H112.238V39.1991H114.921V39.8188H114.913Z" fill="white"/>
<path d="M118.02 39.2934C118.154 39.3483 118.272 39.4268 118.366 39.5366C118.445 39.6229 118.508 39.7248 118.555 39.8347C118.602 39.9445 118.626 40.0621 118.626 40.2033C118.626 40.3681 118.579 40.5328 118.492 40.6975C118.406 40.8623 118.256 40.9721 118.052 41.0428C118.225 41.1055 118.343 41.1996 118.414 41.3173C118.484 41.435 118.524 41.6153 118.524 41.8664V42.1018C118.524 42.2587 118.524 42.3684 118.547 42.4234C118.571 42.5096 118.618 42.5802 118.689 42.6195V42.7058H117.839C117.816 42.6273 117.8 42.5645 117.792 42.5175C117.777 42.4233 117.761 42.3214 117.761 42.2195V41.8978C117.753 41.6703 117.713 41.5212 117.634 41.4506C117.556 41.3721 117.406 41.3408 117.186 41.3408H116.423V42.7136H115.66V39.215H117.438C117.689 39.215 117.887 39.2463 118.028 39.3091L118.02 39.2934ZM116.423 39.8032V40.7525H117.257C117.422 40.7525 117.548 40.7367 117.634 40.6897C117.784 40.627 117.855 40.4936 117.855 40.2896C117.855 40.0778 117.784 39.9289 117.642 39.8582C117.563 39.819 117.445 39.7955 117.28 39.7955H116.423V39.8032Z" fill="white"/>
<path d="M120.075 42.7058H119.305V39.207H120.075V42.7058Z" fill="white"/>
<path d="M120.797 39.1991H121.599L123.078 41.6387V39.1991H123.794V42.6978H123.023L121.505 40.211V42.6978H120.789V39.1991H120.797Z" fill="white"/>
<path d="M127.022 40.2974C126.959 40.0621 126.818 39.8894 126.59 39.7953C126.464 39.7482 126.322 39.7169 126.165 39.7169C125.866 39.7169 125.623 39.8189 125.426 40.0307C125.229 40.2425 125.135 40.5563 125.135 40.9877C125.135 41.4191 125.237 41.7172 125.449 41.8977C125.662 42.0781 125.898 42.1644 126.157 42.1644C126.417 42.1644 126.629 42.0938 126.794 41.9526C126.959 41.8114 127.062 41.631 127.101 41.4035H126.244V40.823H127.794V42.6979H127.283L127.204 42.2664C127.054 42.4311 126.92 42.541 126.802 42.6115C126.598 42.7292 126.346 42.7842 126.047 42.7842C125.552 42.7842 125.151 42.6273 124.836 42.3057C124.513 41.984 124.348 41.5446 124.348 40.9799C124.348 40.4151 124.513 39.9601 124.844 39.6228C125.174 39.2776 125.615 39.105 126.157 39.105C126.629 39.105 127.007 39.2148 127.291 39.4424C127.574 39.6698 127.739 39.9522 127.786 40.2817H127.03L127.022 40.2974Z" fill="white"/>
<path d="M130.278 39.568C130.576 39.2777 130.946 39.1365 131.402 39.1365C132.016 39.1365 132.457 39.3326 132.74 39.717C132.897 39.9288 132.976 40.1484 132.992 40.368H132.228C132.181 40.2033 132.118 40.07 132.039 39.9915C131.898 39.8346 131.701 39.7641 131.434 39.7641C131.166 39.7641 130.946 39.8739 130.789 40.0856C130.631 40.2974 130.553 40.6034 130.553 40.9956C130.553 41.3879 130.639 41.686 130.804 41.8742C130.97 42.0703 131.182 42.1645 131.442 42.1645C131.701 42.1645 131.906 42.0782 132.039 41.9135C132.118 41.8272 132.181 41.6938 132.228 41.5134H132.992C132.929 41.8899 132.756 42.2037 132.488 42.439C132.22 42.6743 131.874 42.7999 131.449 42.7999C130.93 42.7999 130.521 42.6352 130.223 42.3136C129.924 41.9919 129.773 41.5447 129.773 40.9799C129.773 40.3681 129.939 39.8974 130.285 39.568H130.278Z" fill="white"/>
<path d="M136.438 42.3919C136.163 42.6665 135.762 42.7998 135.235 42.7998C134.707 42.7998 134.306 42.6665 134.031 42.3919C133.661 42.0625 133.473 41.576 133.473 40.9485C133.473 40.3209 133.661 39.8267 134.031 39.5051C134.306 39.2306 134.707 39.0972 135.235 39.0972C135.762 39.0972 136.163 39.2306 136.438 39.5051C136.808 39.8267 136.997 40.3052 136.997 40.9485C136.997 41.5917 136.816 42.0546 136.438 42.3919ZM135.959 41.8585C136.14 41.6467 136.226 41.3407 136.226 40.9485C136.226 40.5562 136.14 40.2504 135.959 40.0386C135.778 39.8268 135.542 39.7169 135.235 39.7169C134.928 39.7169 134.684 39.8268 134.503 40.0386C134.322 40.2504 134.236 40.5562 134.236 40.9485C134.236 41.3407 134.33 41.6467 134.503 41.8585C134.684 42.0703 134.928 42.1802 135.235 42.1802C135.542 42.1802 135.778 42.0703 135.959 41.8585Z" fill="white"/>
<path d="M137.895 41.9918H138.642V42.7056H137.895V41.9918Z" fill="white"/>
<path d="M139.285 43.2626C139.427 43.2234 139.529 43.1607 139.6 43.0743C139.663 42.988 139.702 42.8626 139.718 42.7056H139.293V41.9918H140.056V42.6115C140.056 42.7214 140.04 42.8311 140.009 42.9488C139.977 43.0664 139.922 43.1684 139.844 43.2469C139.757 43.3411 139.655 43.4116 139.537 43.4587C139.419 43.5058 139.34 43.5293 139.293 43.5293V43.2704L139.285 43.2626Z" fill="white"/>
<path d="M140.805 39.1991H141.568V42.078H143.392V42.6978H140.805V39.1991Z" fill="white"/>
<path d="M146.192 39.1991V39.8188H145.091V42.6978H144.328V39.8188H143.227V39.1991H146.192Z" fill="white"/>
<path d="M148.788 39.2777C149.048 39.3562 149.252 39.5052 149.418 39.7248C149.543 39.8974 149.63 40.0856 149.677 40.2896C149.724 40.4936 149.748 40.6897 149.748 40.8701C149.748 41.3329 149.646 41.733 149.457 42.0546C149.189 42.4861 148.781 42.7058 148.23 42.7058H146.648V39.207H148.23C148.458 39.207 148.647 39.2385 148.796 39.2855L148.788 39.2777ZM147.388 39.8032V42.1018H148.096C148.458 42.1018 148.71 41.9291 148.851 41.584C148.93 41.3957 148.969 41.1761 148.969 40.9172C148.969 40.5563 148.914 40.2817 148.796 40.0935C148.678 39.9052 148.45 39.8032 148.104 39.8032H147.396H147.388Z" fill="white"/>
<path d="M150.254 41.9918H151.001V42.7056H150.254V41.9918Z" fill="white"/>
</g>
<defs>
<clipPath id="clip0_1637_6702">
<rect width="151" height="44" fill="white"/>
</clipPath>
</defs>
</svg>
