<svg width="234" height="40" viewBox="0 0 234 40" fill="none" xmlns="http://www.w3.org/2000/svg">
<g clip-path="url(#clip0_1637_7866)">
<path d="M28.8754 0.0202613C31.4347 -0.299488 29.8351 3.1538 29.3233 4.3049C27.5318 8.71744 25.4204 12.8102 25.1005 17.6704C24.7166 23.5538 28.9394 28.5419 31.6906 33.3381C34.4418 38.1344 33.802 37.0472 33.1622 38.7099C32.0105 41.6516 27.0199 38.7739 25.2285 37.8146C21.2616 35.5764 17.2308 32.5707 12.944 30.972C8.65722 29.3732 7.6975 30.1406 4.8823 31.6115C2.06711 33.0823 1.68322 33.7218 0.787481 33.7218C-0.81206 33.7858 0.467573 31.2917 0.787481 30.5883C2.64295 26.8792 5.07425 23.7457 4.62638 19.2692C4.17851 14.7927 4.11453 17.0309 3.8586 15.8159C2.96286 11.9789 6.2899 13.6416 8.40129 13.8334C10.5127 14.0253 13.008 12.9381 14.9914 11.5312C18.1905 9.22904 20.8137 6.28735 23.6929 3.6654C26.5721 1.04346 27.4678 0.212111 28.8754 0.0202613Z" fill="#E2E3E3"/>
<path d="M27.4048 2.45055C28.4925 2.32265 28.1726 3.53769 27.9167 4.17719C27.2129 5.83989 26.3811 7.43864 25.6773 9.10133C23.246 15.3684 23.0541 20.8681 25.9333 27.0712C28.8124 33.2744 28.7485 31.8675 29.5162 34.1697C30.6039 37.623 28.0447 37.0474 25.9333 36.0242C22.4783 34.2976 19.2152 31.9314 15.6962 30.2687C11.4734 28.2863 8.21035 28.606 4.17951 30.8443C0.148666 33.0825 2.19608 32.1233 1.81219 32.1233C1.4283 32.1233 1.49228 31.9954 1.49228 31.8035C1.56575 31.2847 1.7396 30.7851 2.00413 30.3327C4.05154 26.2399 6.22692 23.0424 5.39516 18.1183C5.2672 17.2869 4.88331 16.2637 4.81932 15.4963C4.75534 14.7289 4.94729 14.7289 5.33118 14.4731C5.90701 14.1534 7.50655 14.4731 8.14637 14.4731C11.4094 14.601 14.0967 13.1302 16.6559 11.3396C19.2152 9.54898 21.6465 6.92704 24.2058 4.62484C26.765 2.32265 26.4451 2.5145 27.4048 2.3866V2.45055Z" fill="#8A949E"/>
<path d="M22.5415 9.93267C21.8454 11.6434 21.3307 13.4224 21.0059 15.2405C20.2611 19.6093 20.7257 24.0985 22.3495 28.2223C23.9491 32.3791 23.2453 30.2048 23.6931 31.228C21.0059 29.6932 18.1907 28.2863 15.0556 27.7107C11.3036 27.112 7.45811 27.693 4.05078 29.3734C4.91351 27.6494 5.62013 25.8516 6.16217 24.0016C6.79668 21.4061 6.90545 18.71 6.48208 16.0719H7.18588C12.6243 16.2637 17.359 14.0894 21.5178 10.7001C25.6766 7.31073 22.0936 10.1885 22.4135 9.93267C22.7334 9.67687 22.4135 9.86872 22.5415 9.93267Z" fill="white"/>
<path d="M47.4941 29.5014V26.8794C46.3666 26.6766 45.3345 26.116 44.5509 25.2807C44.1652 24.8707 43.8648 24.3882 43.6671 23.8613C43.4694 23.3344 43.3784 22.7734 43.3992 22.2111C43.3992 20.9321 43.4632 21.1879 43.6552 20.7402C43.8495 20.2994 44.1083 19.89 44.423 19.5252H42.1836V16.9032H47.4941C47.625 16.6232 47.6906 16.317 47.686 16.0079V15.1126L47.4301 14.2813L50.8211 13.386L51.0131 14.1534C51.077 14.4092 51.141 14.601 51.205 14.7929V15.88C51.1877 16.2428 51.0775 16.5951 50.8851 16.9032H56.2596V19.5252H54.1482C54.453 19.8853 54.6913 20.2967 54.852 20.7402C54.9869 21.2186 55.0516 21.7141 55.0439 22.2111C55.0668 23.3324 54.6801 24.4237 53.9562 25.2807C53.1877 26.1018 52.1806 26.661 51.077 26.8794V29.5014C52.3273 29.4982 53.5729 29.3479 54.788 29.0537C55.7122 28.8531 56.5841 28.461 57.3472 27.9026V14.601H60.9302V22.0832H64.0653V24.9609H60.9302V34.5534H57.3472V30.6525C56.5591 31.1517 55.6946 31.5189 54.788 31.7396C53.4218 32.0319 52.0258 32.1607 50.6292 32.1233H42.5035V29.3735H47.558L47.4941 29.5014ZM50.9491 20.5484C50.4879 20.1522 49.8931 19.9464 49.2856 19.9728C48.6586 19.9465 48.0438 20.1513 47.558 20.5484C47.3349 20.7609 47.1617 21.0203 47.0511 21.3078C46.9404 21.5953 46.895 21.9039 46.9182 22.2111C46.901 22.5273 46.9489 22.8437 47.059 23.1407C47.1691 23.4377 47.3389 23.709 47.558 23.9377C48.0438 24.3348 48.6586 24.5396 49.2856 24.5133C49.5871 24.532 49.8894 24.4907 50.175 24.3919C50.4605 24.2932 50.7236 24.1388 50.9491 23.9377C51.1779 23.7159 51.3542 23.4457 51.4649 23.1469C51.5756 22.8481 51.618 22.5284 51.5889 22.2111C51.6183 21.9033 51.5758 21.593 51.4648 21.3044C51.3538 21.0159 51.1772 20.7571 50.9491 20.5484Z" fill="white"/>
<path d="M71.7427 14.0255C72.0251 14.4985 72.2201 15.0184 72.3186 15.5603C72.4015 16.0462 72.4443 16.5382 72.4465 17.0312C72.4673 17.3772 72.4239 17.7241 72.3186 18.0544C72.2855 18.3795 72.2212 18.7007 72.1266 19.0136C72.6148 19.0947 73.0889 19.2455 73.5342 19.4613C73.9999 19.6677 74.3987 19.9999 74.6859 20.4205C74.8778 20.7402 75.0698 20.996 75.2617 21.3797L75.8375 22.339L76.4134 23.2982L76.9892 24.2575L74.4939 25.9202C74.2571 25.5722 74.0434 25.209 73.8541 24.833L73.2783 23.8738C73.0863 23.554 72.8944 23.2982 72.7664 23.0424C72.6318 22.7989 72.4822 22.564 72.3186 22.339C72.1623 22.1348 71.9912 21.9425 71.8067 21.7634C71.6291 21.6328 71.4356 21.5254 71.2309 21.4437C69.931 23.5356 68.0685 25.2198 65.8564 26.3039L64.1289 23.8738C64.8327 23.4261 65.4725 22.9145 66.0484 22.4669C66.6008 22.0427 67.0955 21.5483 67.5199 20.996C67.9007 20.4792 68.2226 19.9215 68.4797 19.3334C68.6806 18.6451 68.8092 17.9379 68.8635 17.223C68.8762 16.8807 68.8548 16.5379 68.7996 16.1998C68.7611 15.8812 68.6518 15.5753 68.4797 15.3045L71.8067 14.2174L71.7427 14.0255ZM82.1717 33.6581C81.8538 34.3058 81.3947 34.8739 80.8281 35.3208C80.2346 35.7948 79.5636 36.1626 78.8447 36.408C77.2642 36.9196 75.5625 36.9196 73.9821 36.408C73.2666 36.1844 72.5954 35.8382 71.9986 35.3848C71.4321 34.9379 70.9729 34.3697 70.655 33.7221C70.3136 33.0256 70.1384 32.2594 70.1432 31.4838C70.1382 30.7287 70.3137 29.9832 70.655 29.3095C70.9729 28.6619 71.4321 28.0937 71.9986 27.6468C72.5922 27.1729 73.2632 26.8051 73.9821 26.5597C74.7668 26.3029 75.5877 26.1733 76.4134 26.176C76.9076 26.1392 77.4045 26.1823 77.885 26.3039C78.3496 26.3635 78.8026 26.4928 79.2286 26.6876C79.4153 26.4323 79.566 26.1526 79.6764 25.8562C79.7503 25.5631 79.7932 25.263 79.8044 24.9609V21.2518H75.9015V18.502H79.8044V14.4732H83.3874V24.833C83.4172 25.5705 83.2399 26.3015 82.8755 26.9434C82.5446 27.4777 82.082 27.9181 81.5319 28.2224C81.8702 28.6756 82.1497 29.1698 82.3637 29.6932C82.5738 30.2447 82.6822 30.8297 82.6836 31.4199C82.6665 32.1724 82.4921 32.913 82.1717 33.5942V33.6581ZM78.3328 29.5653C77.7965 29.1112 77.1163 28.8619 76.4134 28.8619C75.7104 28.8619 75.0303 29.1112 74.4939 29.5653C74.2502 29.8088 74.0568 30.0979 73.9249 30.4161C73.793 30.7344 73.725 31.0754 73.725 31.4199C73.725 31.7643 73.793 32.1054 73.9249 32.4236C74.0568 32.7418 74.2502 33.0309 74.4939 33.2744C75.0303 33.7286 75.7104 33.9779 76.4134 33.9779C77.1163 33.9779 77.7965 33.7286 78.3328 33.2744C78.7862 32.7629 79.0366 32.1032 79.0366 31.4199C79.0366 30.7365 78.7862 30.0768 78.3328 29.5653Z" fill="white"/>
<path d="M93.1111 14.7929C93.4278 15.3542 93.6646 15.9568 93.8149 16.5835C93.9419 17.1503 94.0063 17.7293 94.0069 18.3101V19.0775C94.0302 19.6985 93.9873 20.3202 93.8789 20.9321C93.8192 21.4999 93.6903 22.0582 93.495 22.5948C93.9652 22.666 94.4197 22.8174 94.8386 23.0424C95.2451 23.3087 95.6114 23.6317 95.9263 24.0017C96.4323 24.6799 96.9021 25.3843 97.3339 26.112C97.8458 26.9434 98.4216 27.9026 99.1254 29.0537L96.5661 30.7164C95.9263 29.6932 95.3505 28.7979 94.8386 27.9666C94.3268 27.1352 93.8789 26.4957 93.495 25.9841C93.3579 25.7831 93.1843 25.6096 92.9831 25.4725C92.8066 25.3229 92.6134 25.1941 92.4073 25.0888C91.7269 26.2261 90.8865 27.2599 89.912 28.1584C88.8256 29.1345 87.671 30.0321 86.457 30.8443L84.6016 28.2863C85.4799 27.7096 86.3139 27.0684 87.0968 26.3678C87.7779 25.7879 88.3802 25.1214 88.8883 24.3854C89.3524 23.6701 89.7183 22.8958 89.976 22.0832C90.2465 21.1702 90.3759 20.2214 90.3599 19.2694V18.3741C90.4001 17.9176 90.3344 17.4581 90.168 17.0311C90.0603 16.6619 89.9321 16.2989 89.7841 15.944L93.1751 14.8568L93.1111 14.7929ZM100.469 34.6813V14.665H104.052V34.6813H100.469Z" fill="white"/>
<path d="M106.678 14.7929H115.316C115.554 14.7766 115.793 14.8141 116.014 14.9026C116.236 14.9912 116.435 15.1286 116.596 15.3045C116.864 15.6753 117 16.1261 116.98 16.5835C116.954 17.2939 116.78 17.9911 116.468 18.6299C116.125 19.3562 115.672 20.025 115.124 20.6123C115.457 20.6371 115.783 20.7239 116.084 20.8681C116.384 20.9613 116.65 21.1389 116.852 21.3797C117.04 21.5553 117.211 21.7479 117.363 21.9553C117.549 22.1557 117.721 22.3694 117.875 22.5948C118.067 22.7866 118.259 23.0424 118.451 23.2343C118.643 23.4901 118.899 23.7459 119.155 24.0656L116.98 26.0481C116.748 25.8084 116.534 25.5519 116.34 25.2807C116.164 25.0336 115.971 24.7986 115.764 24.5772C115.588 24.35 115.396 24.1363 115.188 23.9377C114.996 23.7459 114.868 23.554 114.676 23.3622C114.461 23.1479 114.225 22.9551 113.972 22.7866C113.735 22.6537 113.474 22.567 113.205 22.5308C112.278 23.3265 111.294 24.0533 110.261 24.7051C109.248 25.3195 108.176 25.8335 107.062 26.2399L105.719 23.7459C107.279 23.0297 108.758 22.1508 110.133 21.1239C111.23 20.3476 112.147 19.3443 112.821 18.1822C112.853 18.135 112.87 18.0794 112.87 18.0224C112.87 17.9654 112.853 17.9097 112.821 17.8625C112.733 17.7825 112.619 17.737 112.501 17.7346H106.551V14.9847L106.678 14.7929ZM122.802 33.6581C122.484 34.3058 122.025 34.8739 121.458 35.3208C120.865 35.7947 120.194 36.1625 119.475 36.4079C117.894 36.9196 116.193 36.9196 114.612 36.4079C113.897 36.1844 113.226 35.8382 112.629 35.3847C112.062 34.9379 111.603 34.3697 111.285 33.7221C110.944 33.0256 110.769 32.2594 110.773 31.4838C110.768 30.7286 110.944 29.9832 111.285 29.3095C111.603 28.6619 112.062 28.0937 112.629 27.6468C113.222 27.1729 113.893 26.8051 114.612 26.5597C115.397 26.3029 116.218 26.1733 117.043 26.176C117.538 26.1391 118.035 26.1823 118.515 26.3039C118.98 26.3635 119.433 26.4928 119.859 26.6876C120.045 26.4323 120.196 26.1526 120.307 25.8562C120.38 25.5631 120.423 25.263 120.435 24.9609V14.4731H124.017V18.9496H127.089V21.6995H124.017V24.833C124.047 25.5704 123.87 26.3015 123.506 26.9434C123.175 27.4777 122.712 27.9181 122.162 28.2224C122.5 28.6755 122.78 29.1698 122.994 29.6932C123.204 30.2447 123.312 30.8297 123.314 31.4199C123.297 32.1724 123.122 32.913 122.802 33.5942V33.6581ZM118.963 29.5014C118.445 29.0087 117.758 28.734 117.043 28.734C116.329 28.734 115.642 29.0087 115.124 29.5014C114.872 29.7518 114.674 30.0512 114.542 30.3812C114.409 30.7111 114.346 31.0646 114.356 31.4199C114.34 31.7663 114.401 32.112 114.534 32.4325C114.666 32.753 114.868 33.0404 115.124 33.2744C115.66 33.7286 116.341 33.9778 117.043 33.9778C117.746 33.9778 118.427 33.7286 118.963 33.2744C119.198 33.0277 119.381 32.7366 119.502 32.4181C119.623 32.0996 119.679 31.7602 119.667 31.4199C119.679 30.7151 119.428 30.031 118.963 29.5014Z" fill="white"/>
<path d="M137.582 27.455C137.109 28.0454 136.503 28.5155 135.814 28.8268C135.124 29.138 134.371 29.2815 133.615 29.2455C132.858 29.2959 132.099 29.1589 131.407 28.8466C130.716 28.5343 130.111 28.0563 129.648 27.455C128.753 26.3039 128.305 24.5772 128.305 22.4669C128.305 20.3565 128.753 18.6299 129.648 17.4788C130.144 16.916 130.755 16.4653 131.439 16.1565C132.123 15.8478 132.865 15.6881 133.615 15.6881C134.366 15.6881 135.108 15.8478 135.792 16.1565C136.475 16.4653 137.086 16.916 137.582 17.4788C138.575 18.9472 139.069 20.6962 138.99 22.4669C138.99 24.5772 138.542 26.3039 137.582 27.455ZM135.663 20.9321C135.594 20.4972 135.487 20.0692 135.343 19.6531C135.183 19.3201 134.966 19.0172 134.703 18.7578C134.402 18.5496 134.045 18.438 133.679 18.438C133.313 18.438 132.956 18.5496 132.655 18.7578C132.359 18.9869 132.136 19.2983 132.016 19.6531C131.842 20.0598 131.734 20.4915 131.696 20.9321C131.641 21.4203 131.62 21.9117 131.632 22.4029C131.62 22.8941 131.641 23.3855 131.696 23.8738C131.734 24.3143 131.842 24.746 132.016 25.1528C132.153 25.4986 132.373 25.8059 132.655 26.0481C132.956 26.2563 133.313 26.3678 133.679 26.3678C134.045 26.3678 134.402 26.2563 134.703 26.0481C135 25.819 135.222 25.5076 135.343 25.1528C135.494 24.739 135.602 24.3102 135.663 23.8738C135.74 23.3871 135.782 22.8956 135.791 22.4029C135.814 21.9091 135.771 21.4143 135.663 20.9321ZM140.013 34.1697V14.665H143.34V21.3797H145.26V14.665H148.587V34.6813H145.26V24.3854H143.34V34.1697H140.013Z" fill="white"/>
<path d="M162.79 22.1471C162.476 22.8331 162.017 23.4436 161.447 23.9377C160.873 24.4546 160.197 24.8466 159.463 25.0888C158.679 25.3456 157.858 25.4752 157.032 25.4725C156.158 25.4852 155.29 25.3333 154.473 25.0249C153.747 24.7353 153.077 24.3244 152.489 23.8098C151.94 23.306 151.503 22.693 151.206 22.0101C150.908 21.3273 150.757 20.5897 150.762 19.8449C150.772 19.071 150.946 18.308 151.274 17.6067C151.588 16.9207 152.047 16.3102 152.617 15.8161C153.192 15.2992 153.867 14.9072 154.601 14.665C155.382 14.3873 156.203 14.2362 157.032 14.2173C157.906 14.2047 158.774 14.3566 159.591 14.665C160.317 14.9546 160.987 15.3654 161.575 15.88C162.146 16.3593 162.586 16.9753 162.854 17.6706C163.162 18.3537 163.315 19.0961 163.302 19.8449C163.293 20.6394 163.118 21.4233 162.79 22.1471ZM166.501 33.0826C167.484 32.989 168.451 32.7742 169.38 32.4431L170.148 35.065C169.191 35.3887 168.206 35.6241 167.205 35.7684C166.02 35.9536 164.822 36.0392 163.622 36.0242H157.224C156.465 36.0782 155.714 35.8505 155.113 35.3847C154.845 35.1325 154.637 34.8236 154.504 34.4805C154.371 34.1375 154.317 33.7691 154.345 33.4023V27.9026H157.928V32.6349C157.928 32.8907 157.928 33.0826 158.056 33.1465C158.208 33.2439 158.388 33.2888 158.568 33.2744H163.558C164.586 33.3023 165.613 33.2381 166.629 33.0826H166.501ZM158.951 17.8625C158.709 17.5788 158.403 17.3558 158.059 17.2115C157.714 17.0671 157.341 17.0053 156.968 17.0311C156.596 17.0118 156.225 17.0765 155.881 17.2204C155.538 17.3643 155.231 17.5838 154.985 17.8625C154.528 18.4222 154.279 19.1227 154.281 19.8449C154.268 20.5884 154.517 21.3127 154.985 21.8913C155.237 22.1636 155.544 22.3787 155.886 22.5221C156.228 22.6655 156.597 22.7339 156.968 22.7227C157.34 22.742 157.711 22.6774 158.055 22.5334C158.398 22.3895 158.705 22.17 158.951 21.8913C159.428 21.3181 159.679 20.5901 159.655 19.8449C159.679 19.119 159.428 18.4109 158.951 17.8625ZM169.253 29.0537H165.67V14.4092H169.253V29.0537Z" fill="white"/>
<path d="M170.914 28.9258C171.682 28.3503 172.45 27.7747 173.153 27.1352C173.842 26.5009 174.484 25.8169 175.073 25.0888C175.628 24.4101 176.121 23.6823 176.544 22.9145C176.971 22.2187 177.294 21.4648 177.504 20.6763V20.2286C177.504 20.1007 177.312 20.0368 177.12 20.0368H171.554V17.223H174.689C174.869 16.9601 174.959 16.6459 174.945 16.3277C174.965 16.0236 174.922 15.7186 174.817 15.4324L174.497 14.5371L177.632 13.6418C177.696 13.8336 177.76 14.0894 177.824 14.2813C177.888 14.5371 177.952 14.7289 178.016 14.9208C178.048 15.3465 178.048 15.774 178.016 16.1998C177.996 16.5722 177.862 16.9295 177.632 17.223H179.424C179.736 17.1776 180.055 17.2264 180.34 17.363C180.625 17.4997 180.863 17.7181 181.023 17.9904C181.293 18.6374 181.36 19.3509 181.215 20.0368C181.061 20.7986 180.847 21.547 180.575 22.275C180.243 23.0671 179.858 23.8363 179.424 24.5772C179.542 24.6463 179.65 24.7325 179.744 24.833L180.063 25.1528C180.447 25.7283 180.895 26.3678 181.343 27.0713C181.791 27.7747 182.239 28.5421 182.751 29.3735L180.383 31.164C180.127 30.7164 179.871 30.2688 179.616 29.8851C179.36 29.5014 179.168 29.1177 178.912 28.734C178.697 28.4288 178.504 28.1081 178.336 27.7747C178.197 27.5189 178.025 27.2824 177.824 27.0713C177.184 27.8387 176.416 28.6061 175.649 29.3735C174.854 30.1452 173.998 30.851 173.089 31.4838L171.042 28.9258H170.914ZM183.518 34.1057V25.1528H181.087V22.339H183.518V14.601H186.845V34.0418H183.518V34.1057ZM188.253 34.6813V14.665H191.644V34.6813H188.253Z" fill="white"/>
<path d="M213.272 27.2631H208.217V28.734H208.921C209.204 28.7084 209.489 28.7469 209.755 28.8465C210.02 28.9462 210.26 29.1044 210.457 29.3095C210.764 29.6879 210.923 30.1653 210.904 30.6525L210.585 36.28H207.194V32.2512C207.194 31.9954 207.194 31.8675 207.002 31.7396C206.862 31.6115 206.679 31.5427 206.49 31.5477H195.485V28.7979H198.108V27.3271H193.438V24.6412H213.272V27.2631ZM208.921 20.8042C208.617 21.4256 208.153 21.9552 207.577 22.339C206.974 22.7509 206.302 23.0539 205.594 23.2343C204.001 23.6606 202.324 23.6606 200.731 23.2343C200.023 23.0539 199.352 22.7509 198.748 22.339C198.186 21.9394 197.726 21.4137 197.404 20.8042C197.068 20.1288 196.893 19.3845 196.893 18.6299C196.893 17.8753 197.068 17.131 197.404 16.4556C197.708 15.8341 198.172 15.3045 198.748 14.9208C199.363 14.5129 200.03 14.1902 200.731 13.9615C202.324 13.5352 204.001 13.5352 205.594 13.9615C206.316 14.1363 206.992 14.4634 207.577 14.9208C208.139 15.3204 208.599 15.846 208.921 16.4556C209.262 17.1293 209.438 17.8747 209.433 18.6299C209.446 19.3859 209.27 20.1332 208.921 20.8042ZM205.082 16.9672C204.545 16.5214 203.86 16.2932 203.163 16.3277C202.446 16.2933 201.741 16.5206 201.179 16.9672C200.932 17.1665 200.734 17.4203 200.601 17.7087C200.467 17.9971 200.403 18.3124 200.411 18.6299C200.396 18.9484 200.458 19.2659 200.591 19.5554C200.725 19.8449 200.927 20.0978 201.179 20.2926C201.758 20.6999 202.456 20.9025 203.163 20.8681C203.85 20.9032 204.528 20.6998 205.082 20.2926C205.335 20.0978 205.536 19.8448 205.67 19.5553C205.804 19.2658 205.865 18.9483 205.85 18.6299C205.866 18.3114 205.804 17.9939 205.67 17.7044C205.536 17.4149 205.335 17.1619 205.082 16.9672ZM201.563 28.734H204.826V27.2631H201.563V28.734Z" fill="white"/>
<path d="M220.307 29.5014V26.8794C219.179 26.6766 218.147 26.116 217.363 25.2807C216.978 24.8707 216.677 24.3882 216.48 23.8613C216.282 23.3344 216.191 22.7734 216.212 22.2111C216.212 20.9321 216.276 21.1879 216.468 20.7402C216.662 20.2994 216.921 19.89 217.235 19.5252H214.996V16.9032H220.243C220.374 16.6232 220.439 16.317 220.435 16.0079V15.1126L220.179 14.2813L223.57 13.386L223.762 14.1534C223.826 14.4092 223.89 14.601 223.954 14.7929V15.88C223.936 16.2428 223.826 16.5951 223.634 16.9032H229.072V19.5252H226.961C227.265 19.8853 227.504 20.2967 227.664 20.7402C227.799 21.2186 227.864 21.7141 227.856 22.2111C227.879 23.3324 227.493 24.4237 226.769 25.2807C226 26.1018 224.993 26.661 223.89 26.8794V29.5014C225.161 29.4979 226.428 29.3477 227.664 29.0537C228.628 28.8521 229.541 28.4608 230.352 27.9026V14.665H233.999V34.6173H230.352V30.6524C229.502 31.1355 228.601 31.5216 227.664 31.8035C226.276 32.0886 224.859 32.2173 223.442 32.1872H215.188V29.4374H220.435L220.307 29.5014ZM223.762 20.5484C223.3 20.1522 222.706 19.9464 222.098 19.9728C221.471 19.9465 220.856 20.1513 220.371 20.5484C220.147 20.7609 219.974 21.0203 219.864 21.3078C219.753 21.5953 219.708 21.9039 219.731 22.2111C219.714 22.5273 219.761 22.8437 219.872 23.1407C219.982 23.4377 220.151 23.709 220.371 23.9377C220.856 24.3348 221.471 24.5396 222.098 24.5133C222.4 24.532 222.702 24.4907 222.987 24.3919C223.273 24.2932 223.536 24.1388 223.762 23.9377C223.99 23.7159 224.167 23.4457 224.277 23.1469C224.388 22.8481 224.43 22.5284 224.401 22.2111C224.431 21.9033 224.388 21.593 224.277 21.3044C224.166 21.0159 223.99 20.7571 223.762 20.5484Z" fill="white"/>
<path d="M125.489 2.45055C125.804 2.22228 126.189 2.10937 126.577 2.1308H127.857C128.587 2.05666 129.319 2.26234 129.904 2.70635C130.11 2.94127 130.268 3.21504 130.366 3.51156C130.465 3.80807 130.504 4.12136 130.48 4.43299C130.515 4.76032 130.475 5.09127 130.364 5.40125C130.254 5.71124 130.074 5.99231 129.84 6.22359C129.249 6.59736 128.555 6.7763 127.857 6.73519H126.641V9.22923H125.169V3.5377C125.137 3.14816 125.251 2.76054 125.489 2.45055ZM127.089 3.2819C126.897 3.2819 126.769 3.2819 126.705 3.4098C126.677 3.51503 126.656 3.6218 126.641 3.72955V5.58409H127.729C128.07 5.62608 128.414 5.5344 128.688 5.32829C128.907 5.08279 129.022 4.76165 129.008 4.43299C129.022 4.10434 128.907 3.7832 128.688 3.5377C128.414 3.33159 128.07 3.2399 127.729 3.2819H127.089Z" fill="white"/>
<path d="M135.6 7.8863V8.1421C135.6 8.20605 135.664 8.27 135.792 8.27H136.176L136.304 9.16529C136.163 9.26424 136.013 9.34987 135.856 9.42109C135.669 9.47385 135.474 9.49545 135.28 9.48504C135.08 9.50451 134.878 9.45972 134.704 9.35714C134.512 9.22924 134.384 9.16529 134.32 9.03739C134.105 9.1818 133.867 9.28983 133.617 9.35714C133.303 9.43974 132.981 9.48271 132.657 9.48504C132.414 9.51656 132.166 9.49267 131.934 9.41514C131.701 9.33762 131.489 9.20848 131.313 9.03739C131.065 8.72927 130.93 8.34575 130.929 7.95025C130.903 7.73205 130.923 7.51065 130.989 7.30102C131.055 7.0914 131.166 6.89843 131.313 6.7352C131.695 6.47938 132.135 6.32528 132.593 6.28755H134.001V6.0957C134.001 5.90385 134.001 5.77595 133.809 5.712C133.681 5.5841 133.489 5.5841 133.233 5.5841H132.785L132.785 5.58693C132.4 5.65105 132.4 5.65105 132.015 5.71517L132.017 5.712C131.862 5.73295 131.712 5.77603 131.569 5.8399L131.377 4.75275C131.569 4.75275 131.761 4.62485 131.953 4.62485C132.081 4.62485 132.273 4.5609 132.401 4.5609H133.233C133.597 4.54629 133.961 4.56771 134.32 4.62485C134.575 4.64173 134.819 4.73044 135.024 4.88065C135.205 5.00429 135.34 5.18412 135.408 5.39225C135.493 5.63933 135.536 5.89857 135.536 6.15965V8.27L135.6 7.8863ZM134.128 7.18285H132.913C132.721 7.18285 132.593 7.31075 132.593 7.3747C132.593 7.5026 132.529 7.6305 132.593 7.7584C132.576 7.86918 132.599 7.98232 132.657 8.07815C132.657 8.1421 132.849 8.20605 133.105 8.20605C133.299 8.22019 133.494 8.19851 133.681 8.1421C133.873 8.1421 134.065 7.95025 134.256 7.82235V7.1189L134.128 7.18285Z" fill="white"/>
<path d="M137.197 9.29319V4.36905H138.54V4.75275C138.732 4.59223 138.948 4.46276 139.18 4.36905C139.386 4.29589 139.602 4.25281 139.82 4.24115H140.204C140.364 4.27753 140.515 4.34253 140.652 4.433V5.64805L140.076 5.4562C139.884 5.4562 139.756 5.39225 139.564 5.39225C139.475 5.37892 139.383 5.38335 139.295 5.40529C139.208 5.42724 139.125 5.46627 139.052 5.52015C138.86 5.52015 138.732 5.64805 138.604 5.8399V9.35714H137.133L137.197 9.29319Z" fill="white"/>
<path d="M145.772 7.8863V8.1421C145.772 8.20605 145.836 8.27 145.964 8.27H146.348L146.476 9.16529C146.335 9.26424 146.185 9.34987 146.028 9.42109C145.841 9.47385 145.646 9.49545 145.452 9.48504C145.251 9.50451 145.05 9.45972 144.876 9.35714C144.684 9.22924 144.556 9.16529 144.492 9.03739C144.277 9.1818 144.039 9.28983 143.789 9.35714C143.475 9.43974 143.153 9.48271 142.829 9.48504C142.586 9.51656 142.338 9.49267 142.106 9.41514C141.873 9.33762 141.661 9.20848 141.485 9.03739C141.237 8.72927 141.102 8.34575 141.101 7.95025C141.074 7.73205 141.095 7.51065 141.161 7.30102C141.227 7.0914 141.338 6.89843 141.485 6.7352C141.867 6.47938 142.307 6.32528 142.765 6.28755H144.172V6.0957C144.172 5.90385 144.172 5.77595 143.98 5.712C143.853 5.5841 143.661 5.5841 143.405 5.5841H142.957L142.954 5.58462C142.57 5.64855 142.57 5.64855 142.186 5.71248L142.189 5.712C142.042 5.76313 141.893 5.80583 141.741 5.8399L141.549 4.75275C141.741 4.75275 141.933 4.62485 142.125 4.62485C142.317 4.62485 142.445 4.5609 142.573 4.5609H143.405C143.768 4.54629 144.133 4.56771 144.492 4.62485C144.746 4.64173 144.991 4.73044 145.196 4.88065C145.377 5.00429 145.512 5.18412 145.58 5.39225C145.664 5.63933 145.708 5.89857 145.708 6.15965V8.27L145.772 7.8863ZM144.3 7.18285H143.085C142.893 7.18285 142.765 7.31075 142.765 7.3747C142.765 7.5026 142.701 7.6305 142.765 7.7584C142.748 7.86918 142.771 7.98232 142.829 8.07815C142.829 8.1421 143.021 8.20605 143.277 8.20605C143.471 8.22019 143.666 8.19851 143.853 8.1421C144.044 8.1421 144.236 7.95025 144.428 7.82235V7.1189L144.3 7.18285Z" fill="white"/>
<path d="M153.578 7.95025C153.665 7.85612 153.733 7.74535 153.777 7.6245C153.821 7.50366 153.84 7.37521 153.834 7.2468C153.843 7.13628 153.821 7.02524 153.77 6.92705C153.77 6.8631 153.642 6.79915 153.578 6.7352C153.514 6.7352 153.45 6.6073 153.386 6.6073C153.322 6.6073 153.258 6.54335 153.13 6.4794C152.994 6.46613 152.863 6.42242 152.746 6.3515C152.618 6.3515 152.554 6.28755 152.426 6.2236C152.298 6.2236 152.234 6.15965 152.106 6.0957C151.962 6.02018 151.812 5.95603 151.658 5.90385C151.218 5.77788 150.82 5.53475 150.506 5.2004C150.238 4.85386 150.102 4.4231 150.123 3.98536C150.097 3.65402 150.163 3.32197 150.315 3.02611C150.452 2.76988 150.65 2.55054 150.89 2.38661C151.134 2.19559 151.419 2.06419 151.722 2.00291C152.059 1.92889 152.401 1.88607 152.746 1.87501C153.113 1.85782 153.48 1.90103 153.834 2.00291C154.217 2.13081 154.601 2.25871 155.049 2.38661L154.729 3.53771C154.377 3.38265 154.013 3.25439 153.642 3.15401C153.37 3.08027 153.091 3.03737 152.81 3.02611C152.489 2.99292 152.169 3.08454 151.914 3.28191C151.828 3.36362 151.76 3.46312 151.716 3.57354C151.672 3.68396 151.652 3.80265 151.658 3.92141C151.658 4.17721 151.658 4.24116 151.85 4.36906C151.991 4.50416 152.169 4.59336 152.362 4.62485C152.49 4.62485 152.682 4.75275 152.746 4.75275C152.864 4.75517 152.978 4.80063 153.066 4.88065L153.386 5.00855C153.522 5.02182 153.653 5.06554 153.77 5.13645C153.987 5.21059 154.201 5.29597 154.409 5.39225C154.605 5.48293 154.779 5.61365 154.921 5.77595C155.064 5.93458 155.193 6.10581 155.305 6.28755C155.389 6.53462 155.433 6.79387 155.433 7.05495C155.446 7.35746 155.389 7.65884 155.267 7.93597C155.145 8.2131 154.961 8.45862 154.729 8.6537C154.115 9.08768 153.367 9.29146 152.618 9.22924C151.658 9.22924 151.786 9.22924 151.338 9.0374C150.901 8.89461 150.474 8.72372 150.059 8.5258L150.57 7.31075C150.747 7.38303 150.918 7.46854 151.082 7.56655C151.274 7.6305 151.402 7.69445 151.594 7.7584C151.786 7.7584 151.914 7.8863 152.106 7.8863H152.618C152.792 7.91355 152.97 7.89874 153.137 7.8431C153.304 7.78747 153.455 7.69263 153.578 7.56655V7.95025Z" fill="white"/>
<path d="M156.586 4.3051H157.93V4.62485C158.098 4.48128 158.294 4.3726 158.505 4.3051C158.815 4.19807 159.138 4.13354 159.465 4.11325C159.825 4.09082 160.182 4.18018 160.489 4.36905C160.739 4.49161 160.942 4.69412 161.065 4.9446C161.209 5.20552 161.317 5.48533 161.385 5.77595C161.44 6.11405 161.461 6.4568 161.449 6.79914C161.482 7.47627 161.303 8.14686 160.937 8.71764C160.745 8.95 160.498 9.13041 160.219 9.24218C159.939 9.35395 159.636 9.39349 159.337 9.35714H158.633C158.433 9.3766 158.231 9.33181 158.058 9.22924V11.2756H156.586V4.3051ZM159.785 7.82234C159.928 7.47834 159.993 7.10724 159.977 6.73519C160.007 6.35501 159.918 5.97491 159.721 5.64805C159.655 5.53567 159.562 5.44165 159.45 5.37461C159.338 5.30757 159.211 5.26966 159.081 5.26435C158.852 5.24925 158.625 5.31737 158.441 5.4562C158.313 5.5841 158.121 5.712 158.058 5.8399V8.07814C158.188 8.0811 158.317 8.10263 158.441 8.14209C158.632 8.17406 158.827 8.17406 159.017 8.14209C159.169 8.16106 159.323 8.13474 159.459 8.06646C159.596 7.99817 159.709 7.89098 159.785 7.75839V7.82234Z" fill="white"/>
<path d="M166.759 4.81672C167.005 5.08216 167.194 5.3948 167.315 5.73562C167.436 6.07643 167.486 6.43829 167.463 6.79917C167.496 7.15569 167.456 7.5152 167.346 7.85595C167.236 8.1967 167.058 8.51161 166.823 8.78162C166.294 9.19651 165.64 9.42198 164.968 9.42198C164.295 9.42198 163.641 9.19651 163.112 8.78162C162.877 8.51161 162.699 8.1967 162.589 7.85595C162.479 7.5152 162.439 7.15569 162.472 6.79917C162.449 6.43829 162.499 6.07643 162.62 5.73562C162.741 5.3948 162.93 5.08216 163.176 4.81672C163.427 4.59169 163.72 4.41917 164.039 4.30934C164.358 4.1995 164.695 4.15458 165.031 4.17723C165.358 4.15439 165.686 4.19942 165.994 4.30948C166.303 4.41954 166.585 4.59225 166.823 4.81672H166.759ZM164.136 7.88632C164.226 8.02046 164.351 8.12723 164.498 8.19491C164.644 8.2626 164.807 8.28858 164.968 8.27002C165.127 8.28125 165.287 8.25197 165.433 8.1849C165.578 8.11782 165.704 8.01512 165.799 7.88632C165.966 7.54818 166.054 7.17632 166.055 6.79917C166.094 6.41838 166.004 6.03558 165.799 5.71202C165.671 5.45622 165.415 5.39227 165.031 5.39227C164.878 5.38493 164.725 5.40957 164.582 5.46462C164.439 5.51967 164.309 5.60393 164.2 5.71202C164.025 6.04726 163.937 6.42108 163.944 6.79917C163.905 7.17997 163.995 7.56276 164.2 7.88632H164.136Z" fill="white"/>
<path d="M168.548 9.29319V4.36905H169.892V4.75275C170.084 4.59223 170.3 4.46276 170.532 4.36905C170.738 4.29589 170.953 4.25281 171.172 4.24115H171.555C171.715 4.27753 171.867 4.34253 172.003 4.433V5.64805L171.428 5.4562C171.236 5.4562 171.108 5.39225 170.916 5.39225C170.826 5.37892 170.735 5.38335 170.647 5.40529C170.559 5.42724 170.477 5.46627 170.404 5.52015C170.311 5.53823 170.222 5.57614 170.145 5.63131C170.068 5.68648 170.003 5.75762 169.956 5.8399V9.35714H168.484L168.548 9.29319Z" fill="white"/>
<path d="M174.756 5.39227V7.88632C174.756 8.01422 174.756 8.07817 174.82 8.14212C174.881 8.1734 174.945 8.19499 175.012 8.20607H175.332C175.451 8.20365 175.565 8.15819 175.652 8.07817L175.972 8.90951C175.813 9.06614 175.614 9.17664 175.396 9.22926C175.126 9.30784 174.846 9.35084 174.565 9.35716C174.376 9.38073 174.184 9.35813 174.005 9.2913C173.827 9.22447 173.668 9.1154 173.541 8.97346C173.331 8.6977 173.219 8.36047 173.221 8.01422V5.32832H172.453V4.17722H173.221V2.51453L174.692 2.25873V4.17722H175.844V5.32832H174.692L174.756 5.39227Z" fill="white"/>
<path d="M179.683 8.1421C179.811 8.1421 179.875 8.0142 179.875 7.82235C179.875 7.6305 179.875 7.6305 179.747 7.56655C179.619 7.5026 179.555 7.43865 179.427 7.43865C179.309 7.43624 179.195 7.39078 179.107 7.31075C178.997 7.3207 178.886 7.2985 178.788 7.2468C178.66 7.2468 178.596 7.18285 178.468 7.18285C178.349 7.18044 178.235 7.13498 178.148 7.05495C177.823 6.97857 177.531 6.7991 177.316 6.54335C177.119 6.26444 177.028 5.92415 177.06 5.5841C177.06 5.13646 177.06 5.00856 177.252 4.88066C177.375 4.68468 177.553 4.52906 177.764 4.43301C177.983 4.30975 178.221 4.22333 178.468 4.17721H179.811C179.984 4.16683 180.158 4.18851 180.323 4.24116C180.515 4.30511 180.643 4.30511 180.835 4.36906C180.963 4.36906 181.091 4.49696 181.219 4.49696L180.963 5.5841C180.676 5.46113 180.375 5.37517 180.067 5.32831C179.773 5.2588 179.473 5.21599 179.171 5.20041C178.998 5.18086 178.823 5.20278 178.66 5.26436C178.596 5.26436 178.532 5.39226 178.532 5.52015C178.532 5.64805 178.532 5.712 178.66 5.77595C178.788 5.77595 178.916 5.90385 179.107 5.9678C179.363 6.03175 179.619 6.15965 179.875 6.2236C180.159 6.31286 180.437 6.41964 180.707 6.54335C180.935 6.63881 181.134 6.79332 181.283 6.991C181.413 7.20214 181.48 7.44639 181.475 7.69445C181.511 7.96535 181.442 8.23987 181.283 8.46185C181.146 8.66285 180.972 8.83638 180.771 8.97345C180.552 9.09671 180.314 9.18313 180.067 9.22925C179.811 9.22925 179.491 9.2932 179.235 9.2932H178.724C178.394 9.29134 178.069 9.22621 177.764 9.10135C177.489 9.04609 177.229 8.93744 176.996 8.7816L177.252 7.69445C177.418 7.76892 177.589 7.83299 177.764 7.8863C177.956 7.8863 178.084 8.0142 178.276 8.0142C178.468 8.0142 178.596 8.07815 178.788 8.07815H179.171C179.387 8.10018 179.605 8.07843 179.811 8.0142L179.683 8.1421Z" fill="white"/>
<path d="M191.069 9.29318H189.598V6.28754H186.847V9.29318H185.375V2.1308H186.847V5.07249H189.598V2.1308H191.069V9.22923V9.29318Z" fill="white"/>
<path d="M196.381 9.29317L195.998 8.71762C195.867 8.54015 195.759 8.34674 195.678 8.14208C195.55 8.33392 195.486 8.52577 195.358 8.71762L194.974 9.29317H193.502C193.246 8.90947 192.99 8.52577 192.799 8.20603C192.625 7.88366 192.496 7.53952 192.415 7.18283L192.223 6.22358V4.43298H193.63V5.96778C193.623 6.204 193.644 6.44028 193.694 6.67123C193.728 6.93367 193.792 7.19124 193.886 7.43863C193.965 7.70506 194.072 7.96231 194.206 8.20603C194.482 7.79937 194.678 7.34346 194.782 6.86308C194.856 6.46201 194.899 6.05576 194.91 5.64803V4.43298H196.317V5.64803C196.297 6.05724 196.34 6.46719 196.445 6.86308C196.576 7.34543 196.793 7.80031 197.085 8.20603C197.219 7.96231 197.326 7.70506 197.405 7.43863L197.597 6.67123C197.597 6.41543 197.661 6.22358 197.661 5.96778V4.43298H199.069V6.22358C199.036 6.54874 198.971 6.86996 198.877 7.18283C198.777 7.53383 198.649 7.87605 198.493 8.20603C198.304 8.59622 198.068 8.96141 197.789 9.29317H196.317H196.381Z" fill="white"/>
<path d="M204.569 7.8863V8.1421C204.569 8.20605 204.633 8.27 204.761 8.27H205.145L205.273 9.16529C205.132 9.26424 204.982 9.34987 204.825 9.42109C204.638 9.47385 204.443 9.49545 204.249 9.48504C204.048 9.50451 203.847 9.45972 203.673 9.35714C203.481 9.22924 203.353 9.16529 203.289 9.03739C203.074 9.1818 202.836 9.28983 202.585 9.35714C202.272 9.43974 201.95 9.48271 201.626 9.48504C201.382 9.51656 201.135 9.49267 200.903 9.41514C200.67 9.33762 200.458 9.20848 200.282 9.03739C200.034 8.72927 199.899 8.34575 199.898 7.95025C199.871 7.73205 199.892 7.51065 199.958 7.30102C200.024 7.0914 200.135 6.89843 200.282 6.7352C200.663 6.47938 201.104 6.32528 201.562 6.28755H202.969V6.0957C202.969 5.90385 202.969 5.77595 202.777 5.712C202.649 5.5841 202.457 5.5841 202.202 5.5841H201.754C201.622 5.57397 201.491 5.59592 201.37 5.64805C201.238 5.63792 201.107 5.65987 200.986 5.712C200.839 5.76313 200.69 5.80583 200.538 5.8399L200.346 4.75275C200.538 4.75275 200.73 4.62485 200.922 4.62485C201.114 4.62485 201.242 4.5609 201.37 4.5609H202.202C202.565 4.54629 202.93 4.56771 203.289 4.62485C203.543 4.64173 203.787 4.73044 203.993 4.88065C204.174 5.00429 204.309 5.18412 204.377 5.39225C204.461 5.63933 204.505 5.89857 204.505 6.15965V8.27L204.569 7.8863ZM203.097 7.18285H201.882C201.69 7.18285 201.562 7.31075 201.562 7.3747C201.562 7.5026 201.498 7.6305 201.562 7.7584C201.545 7.86918 201.568 7.98232 201.626 8.07815C201.626 8.1421 201.818 8.20605 202.074 8.20605C202.268 8.22019 202.463 8.19851 202.649 8.1421C202.841 8.1421 203.033 7.95025 203.225 7.82235V7.1189L203.097 7.18285Z" fill="white"/>
<path d="M208.859 8.1421C208.987 8.1421 209.051 8.0142 209.051 7.82235C209.051 7.6305 209.051 7.6305 208.923 7.56655C208.795 7.5026 208.731 7.43865 208.603 7.43865C208.485 7.43624 208.371 7.39078 208.283 7.31075C208.173 7.3207 208.062 7.2985 207.963 7.2468C207.835 7.2468 207.771 7.18285 207.643 7.18285C207.525 7.18044 207.411 7.13498 207.324 7.05495C206.998 6.97857 206.707 6.7991 206.492 6.54335C206.295 6.26444 206.204 5.92415 206.236 5.5841C206.236 5.13646 206.236 5.00856 206.428 4.88066C206.551 4.68468 206.729 4.52906 206.94 4.43301C207.159 4.30975 207.396 4.22333 207.643 4.17721H208.987C209.16 4.16683 209.334 4.18851 209.499 4.24116C209.691 4.30511 209.819 4.30511 210.011 4.36906C210.139 4.36906 210.267 4.49696 210.395 4.49696L210.139 5.5841C209.852 5.46113 209.551 5.37517 209.243 5.32831C208.949 5.2588 208.649 5.21599 208.347 5.20041C208.174 5.18086 207.999 5.20278 207.835 5.26436C207.771 5.26436 207.707 5.39226 207.707 5.52015C207.707 5.64805 207.707 5.712 207.835 5.77595C207.963 5.77595 208.091 5.90385 208.283 5.9678C208.539 6.03175 208.795 6.15965 209.051 6.2236C209.335 6.31286 209.612 6.41964 209.883 6.54335C210.111 6.63881 210.31 6.79332 210.459 6.991C210.589 7.20214 210.656 7.44639 210.651 7.69445C210.687 7.96535 210.618 8.23987 210.459 8.46185C210.321 8.66285 210.148 8.83638 209.947 8.97345C209.728 9.09671 209.49 9.18313 209.243 9.22925C208.987 9.22925 208.667 9.2932 208.411 9.2932H207.899C207.57 9.29134 207.244 9.22621 206.94 9.10135C206.665 9.04609 206.404 8.93744 206.172 8.7816L206.428 7.69445C206.594 7.76892 206.765 7.83299 206.94 7.8863C207.132 7.8863 207.26 8.0142 207.452 8.0142C207.643 8.0142 207.771 8.07815 207.963 8.07815H208.347C208.563 8.10018 208.78 8.07843 208.987 8.0142L208.859 8.1421Z" fill="white"/>
<path d="M215.065 8.14213C215.359 8.12556 215.644 8.03777 215.896 7.88633L216.216 8.84557C215.949 9.03754 215.644 9.16853 215.321 9.22927C214.968 9.33466 214.6 9.37794 214.233 9.35717C213.845 9.38161 213.455 9.33833 213.081 9.22927C212.768 9.15928 212.48 9.0044 212.249 8.78162C211.994 8.56696 211.814 8.27533 211.738 7.95028C211.597 7.53906 211.532 7.10571 211.546 6.67128C211.502 6.30438 211.536 5.9324 211.647 5.57973C211.757 5.22706 211.941 4.90167 212.186 4.62488C212.711 4.20847 213.372 4.00319 214.041 4.04934C214.66 4.00207 215.275 4.18417 215.768 4.56093C215.955 4.71691 216.103 4.91299 216.203 5.13448C216.303 5.35597 216.351 5.59714 216.344 5.83993C216.37 6.08183 216.326 6.32608 216.216 6.54338C216.145 6.73317 216.009 6.89172 215.832 6.99103C215.664 7.11123 215.463 7.17807 215.257 7.18288H213.017C212.999 7.31211 213.013 7.44385 213.057 7.56651C213.102 7.68917 213.176 7.79899 213.273 7.88633C213.563 8.05441 213.901 8.12186 214.233 8.07818C214.491 8.09802 214.75 8.07643 215.001 8.01423L215.065 8.14213ZM213.401 5.58413C213.315 5.66584 213.247 5.76535 213.203 5.87576C213.159 5.98618 213.139 6.10487 213.145 6.22363H214.617C214.745 6.22363 214.873 6.22363 214.937 6.09573C214.964 5.9905 214.986 5.88373 215.001 5.77598C214.996 5.70246 214.976 5.63065 214.943 5.56475C214.911 5.49886 214.865 5.44022 214.809 5.39228C214.681 5.26438 214.489 5.26438 214.233 5.26438C214.104 5.25223 213.974 5.26888 213.852 5.31312C213.73 5.35736 213.62 5.42809 213.529 5.52018L213.401 5.58413Z" fill="white"/>
<path d="M221.525 4.81672C221.77 5.08216 221.959 5.3948 222.08 5.73562C222.201 6.07643 222.252 6.43829 222.228 6.79917C222.261 7.15569 222.222 7.5152 222.112 7.85595C222.002 8.1967 221.824 8.51161 221.589 8.78162C221.059 9.19651 220.406 9.42198 219.733 9.42198C219.06 9.42198 218.407 9.19651 217.878 8.78162C217.642 8.51161 217.464 8.1967 217.354 7.85595C217.244 7.5152 217.205 7.15569 217.238 6.79917C217.214 6.43829 217.265 6.07643 217.386 5.73562C217.507 5.3948 217.696 5.08216 217.942 4.81672C218.193 4.59169 218.486 4.41917 218.805 4.30934C219.123 4.1995 219.461 4.15458 219.797 4.17723C220.124 4.15439 220.452 4.19942 220.76 4.30948C221.068 4.41954 221.35 4.59225 221.589 4.81672H221.525ZM218.901 7.88632C218.991 8.02046 219.117 8.12723 219.263 8.19491C219.41 8.2626 219.573 8.28858 219.733 8.27002C219.893 8.28125 220.053 8.25197 220.198 8.1849C220.344 8.11782 220.47 8.01512 220.565 7.88632C220.732 7.54818 220.82 7.17632 220.821 6.79917C220.86 6.41838 220.77 6.03558 220.565 5.71202C220.437 5.45622 220.181 5.39227 219.797 5.39227C219.644 5.38493 219.491 5.40957 219.348 5.46462C219.204 5.51967 219.074 5.60393 218.965 5.71202C218.79 6.04726 218.702 6.42108 218.709 6.79917C218.671 7.17997 218.761 7.56276 218.965 7.88632H218.901Z" fill="white"/>
<path d="M226.517 9.29322V5.96783C226.517 5.77598 226.517 5.58413 226.389 5.52018C226.325 5.39228 226.197 5.39228 226.005 5.39228C225.755 5.37206 225.506 5.43994 225.301 5.58413C225.091 5.68134 224.896 5.8108 224.725 5.96783V9.35717H223.254V4.43303H224.598V4.75278C224.853 4.62488 225.045 4.49698 225.301 4.36908C225.564 4.25971 225.85 4.21582 226.133 4.24118C226.612 4.21197 227.086 4.34737 227.477 4.62488C227.636 4.7682 227.76 4.94707 227.838 5.14703C227.916 5.347 227.945 5.56245 227.925 5.77598V9.35717H226.453L226.517 9.29322Z" fill="white"/>
<path d="M232.212 10.3164C232.325 10.2252 232.413 10.1072 232.469 9.97323C232.525 9.83923 232.547 9.69341 232.532 9.54899V9.29319C232.333 9.29804 232.138 9.34148 231.956 9.42109H231.252C230.953 9.45744 230.65 9.41791 230.37 9.30613C230.091 9.19436 229.844 9.01396 229.653 8.78159C229.287 8.21081 229.108 7.54023 229.141 6.8631C229.107 6.52082 229.128 6.17526 229.205 5.8399C229.214 5.53454 229.327 5.24138 229.525 5.00855C229.647 4.75808 229.85 4.55556 230.1 4.433C230.426 4.29481 230.772 4.20849 231.124 4.1772C231.456 4.13443 231.794 4.20183 232.084 4.36905C232.243 4.49345 232.414 4.60063 232.596 4.6888V4.36905H234.003V9.61294C234.008 9.96333 233.942 10.3111 233.811 10.6361C233.691 10.9044 233.49 11.1282 233.236 11.2756C232.993 11.4288 232.736 11.5574 232.468 11.6593C232.175 11.7332 231.874 11.7761 231.572 11.7872H230.1V10.5722H231.636C231.885 10.5862 232.132 10.5188 232.34 10.3803L232.212 10.3164ZM232.148 8.20605C232.34 8.20605 232.468 8.20605 232.532 8.1421V5.90385C232.422 5.73074 232.271 5.58754 232.092 5.48709C231.914 5.38664 231.713 5.33208 231.508 5.3283C231.378 5.33361 231.251 5.37152 231.139 5.43856C231.027 5.5056 230.934 5.59962 230.868 5.712C230.664 6.03556 230.574 6.41835 230.612 6.79915C230.589 7.1716 230.655 7.54418 230.804 7.8863C230.88 8.01888 230.993 8.12607 231.13 8.19436C231.267 8.26264 231.42 8.28896 231.572 8.26999H232.148V8.20605Z" fill="white"/>
<path d="M125.489 2.45055C125.804 2.22228 126.189 2.10937 126.577 2.1308H127.857C128.587 2.05666 129.319 2.26234 129.904 2.70635C130.11 2.94127 130.268 3.21504 130.366 3.51156C130.465 3.80807 130.504 4.12136 130.48 4.43299C130.515 4.76032 130.475 5.09127 130.364 5.40125C130.254 5.71124 130.074 5.99231 129.84 6.22359C129.249 6.59736 128.555 6.7763 127.857 6.73519H126.641V9.22923H125.169V3.5377C125.137 3.14816 125.251 2.76054 125.489 2.45055ZM127.089 3.2819C126.897 3.2819 126.769 3.2819 126.705 3.4098C126.677 3.51503 126.656 3.6218 126.641 3.72955V5.58409H127.729C128.07 5.62608 128.414 5.5344 128.688 5.32829C128.907 5.08279 129.022 4.76165 129.008 4.43299C129.022 4.10434 128.907 3.7832 128.688 3.5377C128.414 3.33159 128.07 3.2399 127.729 3.2819H127.089Z" fill="#8A949E"/>
<path d="M153.574 7.95025C153.661 7.85612 153.729 7.74535 153.773 7.6245C153.817 7.50366 153.836 7.37521 153.83 7.2468C153.84 7.13628 153.817 7.02524 153.766 6.92705C153.766 6.8631 153.638 6.79915 153.574 6.7352C153.51 6.7352 153.446 6.6073 153.382 6.6073C153.318 6.6073 153.254 6.54335 153.126 6.4794C152.99 6.46613 152.859 6.42242 152.742 6.3515C152.614 6.3515 152.55 6.28755 152.422 6.2236C152.294 6.2236 152.23 6.15965 152.102 6.0957C151.974 6.0957 151.846 5.9678 151.654 5.90385C151.214 5.77788 150.816 5.53475 150.503 5.2004C150.234 4.85386 150.098 4.4231 150.119 3.98536C150.093 3.65402 150.159 3.32197 150.311 3.02611C150.448 2.76988 150.646 2.55054 150.886 2.38661C151.13 2.19559 151.415 2.06419 151.718 2.00291C152.055 1.92889 152.397 1.88607 152.742 1.87501C153.109 1.85782 153.476 1.90103 153.83 2.00291C154.213 2.13081 154.597 2.25871 155.045 2.38661L154.725 3.53771C154.373 3.38265 154.009 3.25439 153.638 3.15401C153.366 3.08027 153.087 3.03737 152.806 3.02611C152.486 2.99292 152.165 3.08454 151.91 3.28191C151.824 3.36362 151.756 3.46312 151.712 3.57354C151.668 3.68396 151.648 3.80265 151.654 3.92141C151.654 4.17721 151.654 4.24116 151.846 4.36906C151.987 4.50416 152.165 4.59336 152.358 4.62485C152.486 4.62485 152.678 4.75275 152.742 4.75275C152.861 4.75517 152.974 4.80063 153.062 4.88065C153.19 4.88065 153.254 4.9446 153.382 5.00855C153.518 5.02182 153.649 5.06554 153.766 5.13645C153.983 5.21059 154.197 5.29597 154.405 5.39225C154.601 5.48293 154.775 5.61365 154.917 5.77595C155.06 5.93458 155.189 6.10581 155.301 6.28755C155.416 6.52587 155.461 6.79218 155.429 7.05495C155.442 7.35746 155.385 7.65884 155.263 7.93597C155.141 8.2131 154.957 8.45862 154.725 8.6537C154.111 9.08768 153.364 9.29146 152.614 9.22924C151.654 9.22924 151.782 9.22924 151.334 9.0374C150.897 8.89461 150.47 8.72372 150.055 8.5258L150.567 7.31075C150.743 7.38303 150.914 7.46854 151.078 7.56655C151.27 7.6305 151.398 7.69445 151.59 7.7584C151.782 7.7584 151.91 7.8863 152.102 7.8863H152.614C152.788 7.91355 152.966 7.89874 153.133 7.8431C153.3 7.78747 153.451 7.69263 153.574 7.56655V7.95025Z" fill="#8A949E"/>
<path d="M191.069 9.2932H189.598V6.28755H186.847V9.2932H185.375V2.19476H186.847V5.13646H189.598V2.19476H191.069V9.2932Z" fill="#8A949E"/>
<path d="M113.715 2.70635V2.57845C114.342 1.66951 115.269 1.01082 116.335 0.718362C117.4 0.425908 118.534 0.518454 119.537 0.979702C120.305 1.30616 120.969 1.83702 121.457 2.5145C121.087 2.25695 120.703 2.02204 120.305 1.81105C119.726 1.494 119.077 1.3278 118.418 1.3278C117.758 1.3278 117.109 1.494 116.53 1.81105C116.116 2.02855 115.757 2.33732 115.48 2.71401C115.203 3.0907 115.015 3.52544 114.931 3.98535C114.795 4.69146 114.932 5.42261 115.314 6.03174C115.483 6.28972 115.727 6.48952 116.013 6.60395C116.299 6.71838 116.614 6.74187 116.914 6.67124C116.791 6.72635 116.662 6.76918 116.53 6.79914H116.274C115.942 6.829 115.609 6.76237 115.314 6.60729C114.955 6.43746 114.635 6.19702 114.371 5.90034C114.107 5.60367 113.906 5.25685 113.779 4.88064C113.535 4.20159 113.513 3.46285 113.715 2.7703" fill="white"/>
<path d="M113.905 8.39791C113.905 8.39791 114.097 8.52581 114.097 8.58976C114.645 8.96149 115.291 9.16186 115.953 9.16531H116.465C116.751 9.12007 117.024 9.01649 117.269 8.86102C117.513 8.70555 117.723 8.50151 117.885 8.26159C118.047 8.02167 118.157 7.751 118.21 7.46641C118.263 7.18182 118.257 6.8894 118.192 6.60732C118.196 6.49717 118.174 6.38757 118.128 6.28757C118.128 6.22362 118.064 5.96782 118 5.96782C117.636 6.33553 117.166 6.58129 116.656 6.67127C116.205 6.72728 115.746 6.68363 115.313 6.54337C113.841 5.90387 113.265 3.98537 113.841 2.51453C113.575 2.83239 113.379 3.20284 113.265 3.60167C112.949 4.40991 112.841 5.28501 112.953 6.14582C113.065 7.00662 113.392 7.82526 113.905 8.52581" fill="#CDD1D5"/>
<path d="M122.354 4.94461C122.28 4.58909 122.126 4.25493 121.905 3.96704C121.683 3.67915 121.399 3.44495 121.075 3.28191C120.803 3.15846 120.509 3.09208 120.21 3.08688C119.912 3.08168 119.615 3.13776 119.339 3.25166C119.064 3.36556 118.814 3.53485 118.606 3.74906C118.398 3.96326 118.237 4.21781 118.131 4.49696C117.92 4.9829 117.898 5.52995 118.067 6.03175C118.067 6.2236 118.195 6.41545 118.195 6.54335C118.265 6.81718 118.276 7.10251 118.228 7.38089C118.18 7.65928 118.075 7.92455 117.918 8.15958C117.761 8.3946 117.557 8.59416 117.318 8.74536C117.079 8.89656 116.811 8.99605 116.532 9.0374C116.094 9.10742 115.647 9.08679 115.218 8.97678C114.789 8.86677 114.387 8.66973 114.037 8.3979H113.973C114.492 9.04373 115.148 9.56766 115.892 9.9327C116.992 10.4088 118.232 10.449 119.361 10.0453C120.489 9.64157 121.422 8.82404 121.97 7.7584C122.427 6.91888 122.585 5.94942 122.418 5.00856" fill="#8A949E"/>
</g>
<defs>
<clipPath id="clip0_1637_7866">
<rect width="234" height="40" fill="white"/>
</clipPath>
</defs>
</svg>
