<svg width="192" height="32" viewBox="0 0 192 32" fill="none" xmlns="http://www.w3.org/2000/svg">
<g clip-path="url(#clip0_1637_8903)">
<path d="M13.6054 0H0.507812V23.9822H13.6054C13.6054 23.9822 16.0463 23.8189 17.551 25.1897C18.3769 25.9395 18.5678 25.997 18.5678 24.8815V3.85941C18.5678 0 13.6054 0 13.6054 0Z" fill="white"/>
<path d="M24.6321 0H37.7296V23.9822H24.6321C24.6321 23.9822 22.1911 23.8189 20.6865 25.1897C19.8605 25.9395 19.6719 25.997 19.6719 24.8815V3.85941C19.6719 0 24.6321 0 24.6321 0Z" fill="white"/>
<path d="M19.1183 29.9599C16.7786 29.9599 15.741 29.2814 15.4787 29.0744C15.4442 29.0468 15.4097 29.0169 15.3752 28.987C15.2348 28.8674 15.1934 28.8329 15.0048 28.8329H0.506141C0.227763 28.8329 0 28.6075 0 28.3269C0 28.0463 0.225463 27.8209 0.506141 27.8209H15.0048C15.5638 27.8209 15.8445 28.0601 16.0309 28.2165L16.1068 28.2809C16.4956 28.5891 17.5171 28.9479 19.1183 28.9479C20.7196 28.9479 21.8216 28.5454 22.1276 28.2901L22.1621 28.2602C22.3714 28.0854 22.6889 27.8186 23.2388 27.8186H37.7305C38.0089 27.8186 38.2367 28.0463 38.2367 28.3246C38.2367 28.6029 38.0112 28.8306 37.7305 28.8306H23.2388C23.0639 28.8306 22.9857 28.8904 22.8109 29.0376L22.7717 29.0675C22.2403 29.5114 20.9013 29.9599 19.116 29.9599" fill="white"/>
<path d="M32.8345 32L31.086 30.7212L29.3398 32V25.7371H32.8345V32Z" fill="white"/>
<path d="M9.05024 16.0126C8.43367 16.8269 7.28335 17.1627 6.30327 17.1627C5.37841 17.1627 4.39604 16.8683 3.76567 16.1828C3.02256 15.3686 3.05017 14.4302 3.05017 13.4205V9.67843C3.05017 9.04823 3.14909 8.02472 2.43359 7.75792V7.71652H5.09544V7.75792C4.39374 8.02472 4.48116 9.04823 4.48116 9.67843V13.4205C4.48116 15.2858 5.26568 16.153 6.70818 16.153C7.4927 16.153 8.29333 15.8309 8.75576 15.1731C9.06404 14.7522 9.05024 14.4026 9.05024 13.8966V9.67843C9.05024 9.04823 9.13306 8.02472 8.43367 7.75792V7.71652H11.0978L11.1116 7.75792C10.3961 8.02472 10.4789 9.04823 10.4789 9.69223V14.9753C10.4789 15.6055 10.3938 16.6291 11.1116 16.8959V16.9373H9.05024V16.0126Z" fill="white"/>
<path d="M12.7265 9.70603C13.189 9.04823 14.031 8.17882 13.0923 7.75792V7.71652H15.6138V7.73032L12.3906 11.8634L15.2227 15.5779C15.6576 16.1529 16.189 16.5462 16.9045 16.8958V16.9373H15.5862C14.9006 16.9373 14.2542 16.6727 14.0034 16.3346L10.8906 12.144L12.7265 9.70373V9.70603Z" fill="white"/>
<path d="M25.2577 15.9298L23.477 15.7619V12.4407H24.5146C24.9495 12.4407 25.5384 12.4269 25.7616 12.834H25.803V11.3482H25.7616C25.5936 11.4333 25.3682 11.4333 25.145 11.4333H23.477V8.82511C23.9257 8.74231 24.4157 8.72851 24.908 8.72851C25.5522 8.72851 26.1274 8.78601 26.5622 9.28972H26.6036V7.64981H26.5622C26.3805 7.74871 26.1412 7.71881 25.9042 7.71881H21.418V7.76021C22.1312 8.02701 22.0483 9.05052 22.0483 9.69452V14.9776C22.0483 15.6078 22.1312 16.6451 21.418 16.8981V16.9395H26.7969V15.4238C26.4081 15.9413 25.7777 15.9781 25.2577 15.9321" fill="white"/>
<path d="M29.2625 8.36284L34.3929 14.8374V9.52664C34.3929 8.74234 34.4067 8.18114 33.6636 7.76024V7.71884H36.1299V7.76024C35.4006 8.18114 35.4006 8.74234 35.4006 9.52664V17.3904C34.4044 17.0523 33.9719 16.5923 33.353 15.7919L28.5447 9.69684V15.1203C28.5447 15.9046 28.5309 16.4658 29.274 16.9005V16.9419H27.5117V7.72114C27.5117 7.72114 28.685 7.64294 29.2579 8.36514" fill="white"/>
<path d="M66.4139 18.9521H60.4092V28.343H57.3079V18.9521H52.4536V28.343H49.3224V18.9521H43.3477V16.1093H66.4139V18.9521ZM62.0772 7.98103C62.0772 8.86193 61.8954 9.70833 61.5296 10.5225C61.1661 11.3367 60.6508 12.0405 59.979 12.6339C59.3279 13.2273 58.5572 13.6873 57.6668 14.0116C56.7765 14.3382 55.8516 14.4992 54.8946 14.4992C53.9375 14.4992 52.985 14.3359 52.0947 14.0116C51.2043 13.6873 50.4428 13.2273 49.8102 12.6339C49.1407 12.0405 48.623 11.3367 48.2595 10.5225C47.896 9.70833 47.7143 8.86193 47.7143 7.98103C47.7143 7.10012 47.896 6.25372 48.2595 5.43952C48.623 4.62532 49.1407 3.93301 49.8102 3.35801C50.4428 2.76461 51.2043 2.30461 52.0947 1.98031C52.985 1.65601 53.9191 1.49271 54.8946 1.49271C55.87 1.49271 56.7765 1.65601 57.6668 1.98031C58.5572 2.30691 59.3302 2.76461 59.979 3.35801C60.6508 3.93301 61.1661 4.62532 61.5296 5.43952C61.8954 6.25372 62.0772 7.10012 62.0772 7.98103ZM58.9161 7.98103C58.9161 7.50263 58.8149 7.03342 58.6147 6.57342C58.4146 6.11342 58.1408 5.71092 57.7957 5.36822C57.4322 5.04392 56.9951 4.78862 56.4889 4.60692C55.9805 4.42522 55.449 4.33322 54.8946 4.33322C54.3401 4.33322 53.7834 4.42522 53.2864 4.60692C52.7895 4.78862 52.3478 5.04162 51.9659 5.36822C51.6208 5.71322 51.347 6.11572 51.1468 6.57342C50.9444 7.03342 50.8431 7.50263 50.8431 7.98103C50.8431 8.45943 50.9444 8.95623 51.1468 9.41623C51.347 9.87623 51.6208 10.2787 51.9659 10.6237C52.3478 10.9503 52.7895 11.1987 53.2864 11.3712C53.7834 11.5437 54.3217 11.6288 54.8946 11.6288C55.4674 11.6288 55.9805 11.5437 56.4889 11.3712C56.9951 11.1987 57.4322 10.9503 57.7957 10.6237C58.1408 10.2787 58.4123 9.87623 58.6147 9.41623C58.8149 8.95623 58.9161 8.47783 58.9161 7.98103Z" fill="white"/>
<path d="M70.8028 8.58362H77.3527C77.7346 7.62682 78.013 6.60101 78.1855 5.51081H71.0881V2.6956H81.5744C81.4202 4.99331 81.0383 7.05182 80.4264 8.87112H83.2423V1.0304H86.2585V20.1274H83.2423V11.684H79.1633C79.0667 11.8956 78.9609 12.0865 78.8481 12.259C77.2768 14.7476 74.8749 16.9602 71.6379 18.8923L69.7422 16.7371C72.1924 15.2812 74.1272 13.6344 75.5444 11.7967C75.6594 11.6242 75.7653 11.4609 75.8596 11.3091H70.8028V8.58132V8.58362ZM91.5431 28.4856H76.9501V19.0372H80.0813V25.6704H91.5431V28.4856ZM91.198 20.7898H88.1542V0.427795H91.198V20.7875V20.7898Z" fill="white"/>
<path d="M107.108 13.754C107.051 13.8299 106.984 13.9081 106.908 13.984C106.294 14.5981 105.576 15.0765 104.752 15.4192C103.929 15.7642 103.057 15.9367 102.139 15.9367C101.221 15.9367 100.347 15.7642 99.5254 15.4192C98.7018 15.0742 97.984 14.5958 97.3697 13.984C96.7762 13.3722 96.316 12.6431 95.9916 11.8013C95.665 10.9595 95.5039 10.0786 95.5039 9.15862C95.5039 8.23862 95.665 7.36462 95.9916 6.52971C96.316 5.69711 96.7762 4.96571 97.3697 4.33321C97.984 3.73981 98.7018 3.2706 99.5254 2.9256C100.349 2.5806 101.219 2.4081 102.139 2.4081C103.059 2.4081 103.929 2.5806 104.752 2.9256C105.576 3.2706 106.294 3.73981 106.908 4.33321L106.938 4.36081H112.225V0.427795H115.329V17.342H112.225V13.7517H107.111L107.108 13.754ZM105.645 9.15862C105.645 8.62272 105.553 8.10062 105.371 7.59462C105.19 7.08632 104.946 6.66081 104.64 6.31581C104.313 5.99151 103.931 5.72701 103.489 5.52691C103.05 5.32451 102.599 5.22561 102.141 5.22561C101.683 5.22561 101.23 5.32681 100.791 5.52691C100.349 5.72701 99.9671 5.99151 99.6428 6.31581C99.3368 6.66081 99.0929 7.08632 98.9112 7.59462C98.7294 8.10292 98.6397 8.62272 98.6397 9.15862C98.6397 9.69452 98.7294 10.2419 98.9112 10.7387C99.0929 11.2378 99.3368 11.6679 99.6428 12.0313C99.9694 12.3579 100.351 12.6201 100.791 12.8225C101.23 13.0226 101.681 13.1238 102.141 13.1238C102.601 13.1238 103.05 13.0226 103.489 12.8225C103.929 12.6201 104.313 12.3579 104.64 12.0313C104.946 11.6679 105.19 11.2378 105.371 10.7387C105.553 10.2419 105.645 9.71522 105.645 9.15862ZM115.296 23.2025C115.296 24.0259 115.128 24.8056 114.795 25.5416C114.459 26.2799 113.994 26.9147 113.403 27.4506C112.809 28.0049 112.098 28.4327 111.277 28.7294C110.453 29.0261 109.591 29.1733 108.691 29.1733C107.792 29.1733 106.929 29.0238 106.105 28.7294C105.282 28.4327 104.573 28.0049 103.979 27.4506C103.404 26.9147 102.949 26.2776 102.615 25.5416C102.279 24.8056 102.114 24.0236 102.114 23.2025C102.114 22.3814 102.279 21.5994 102.615 20.8611C102.949 20.1251 103.407 19.4788 103.979 18.9222C104.573 18.3862 105.282 17.9699 106.105 17.6732C106.929 17.3765 107.789 17.2293 108.691 17.2293C109.593 17.2293 110.453 17.3765 111.277 17.6732C112.101 17.9722 112.809 18.3862 113.403 18.9222C113.994 19.4765 114.461 20.1251 114.795 20.8611C115.131 21.5994 115.296 22.3791 115.296 23.2025ZM112.165 23.2025C112.165 22.3216 111.829 21.5741 111.16 20.9623C110.488 20.3505 109.667 20.0446 108.689 20.0446C107.711 20.0446 106.913 20.3505 106.232 20.9623C105.551 21.5764 105.213 22.3239 105.213 23.2025C105.213 24.0811 105.553 24.824 106.232 25.4266C106.91 26.0292 107.73 26.3305 108.689 26.3305C109.648 26.3305 110.488 26.0292 111.16 25.4266C111.829 24.824 112.165 24.0811 112.165 23.2025ZM108.776 9.15862C108.776 9.77272 108.707 10.3638 108.574 10.9388H112.223V7.20592H108.516C108.689 7.83842 108.776 8.48932 108.776 9.15862Z" fill="white"/>
<path d="M137.789 1.60541C137.789 3.55811 137.713 5.48322 137.559 7.37843C137.426 8.77683 137.271 10.097 137.099 11.3413H142.298V14.1841H132.332V18.522H137.704V29.0606H134.603V21.3349H123.083V18.5197H129.201V14.1818H119.234V11.339H134.027C134.258 9.94293 134.421 8.65033 134.515 7.46353C134.63 5.89492 134.688 4.88982 134.688 4.44822H122.823V1.60541H137.789Z" fill="white"/>
<path d="M166.949 18.9521H160.947V28.343H157.845V18.9521H152.989V28.343H149.858V18.9521H143.883V16.1093H166.949V18.9521ZM162.612 7.98103C162.612 8.86193 162.431 9.70833 162.067 10.5225C161.704 11.3367 161.186 12.0405 160.516 12.6339C159.865 13.2273 159.095 13.6873 158.204 14.0116C157.314 14.3382 156.391 14.4992 155.432 14.4992C154.473 14.4992 153.522 14.3359 152.632 14.0116C151.742 13.6873 150.98 13.2273 150.348 12.6339C149.678 12.0405 149.16 11.3367 148.797 10.5225C148.433 9.70833 148.252 8.86193 148.252 7.98103C148.252 7.10012 148.431 6.25372 148.797 5.43952C149.16 4.62532 149.678 3.93301 150.348 3.35801C150.98 2.76461 151.742 2.30461 152.632 1.98031C153.522 1.65601 154.457 1.49271 155.432 1.49271C156.407 1.49271 157.314 1.65601 158.204 1.98031C159.095 2.30691 159.865 2.76461 160.516 3.35801C161.188 3.93301 161.704 4.62532 162.067 5.43952C162.431 6.25372 162.612 7.10012 162.612 7.98103ZM159.454 7.98103C159.454 7.50263 159.355 7.03342 159.152 6.57342C158.952 6.11342 158.678 5.71092 158.333 5.36822C157.97 5.04392 157.533 4.78862 157.026 4.60692C156.52 4.42522 155.989 4.33322 155.432 4.33322C154.875 4.33322 154.321 4.42522 153.824 4.60692C153.325 4.78862 152.885 5.04162 152.503 5.36822C152.158 5.71322 151.887 6.11572 151.684 6.57342C151.484 7.03342 151.383 7.50263 151.383 7.98103C151.383 8.45943 151.484 8.95623 151.684 9.41623C151.887 9.87623 152.158 10.2787 152.503 10.6237C152.885 10.9503 153.327 11.1987 153.824 11.3712C154.321 11.5437 154.859 11.6288 155.432 11.6288C156.005 11.6288 156.52 11.5437 157.026 11.3712C157.535 11.1987 157.97 10.9503 158.333 10.6237C158.678 10.2787 158.952 9.87623 159.152 9.41623C159.355 8.95623 159.454 8.47783 159.454 7.98103Z" fill="white"/>
<path d="M183.871 8.49852H178.757C176.516 8.49852 175.062 8.87112 174.39 9.61862C173.718 10.3845 173.385 11.247 173.385 12.2038C173.385 12.9697 173.663 13.6298 174.218 14.1864C174.774 14.743 175.432 15.019 176.201 15.019C176.969 15.019 177.666 14.7407 178.241 14.1864C178.816 13.6321 179.104 12.972 179.104 12.2038C179.104 11.8795 179.07 11.592 179.003 11.3413C178.936 11.0929 178.777 10.7962 178.529 10.4512L180.712 8.84352C181.23 9.37942 181.586 9.89692 181.789 10.3937C181.989 10.8928 182.09 11.4839 182.09 12.1739C182.09 13.6873 181.515 14.9891 180.367 16.0793C179.217 17.1695 177.827 17.7169 176.201 17.7169C174.574 17.7169 173.221 17.1672 172.092 16.0655C170.96 14.9661 170.396 13.6689 170.396 12.1739C170.396 10.833 170.875 9.64622 171.832 8.61352L171.947 8.49852H168.73V5.94321H183.869V8.49852H183.871ZM180.74 4.65061H175.798C174.266 4.67131 172.819 4.27801 171.461 3.47301L172.382 1.2052C174.027 1.702 175.292 1.9527 176.173 1.9527H180.74V4.65291V4.65061ZM187.978 29.0882H184.846V22.11H173.325V19.2971H187.975V29.0882H187.978ZM191.999 11.2263H187.978V18.177H184.846V0.427795H187.978V8.23862H191.999V11.2263Z" fill="white"/>
</g>
<defs>
<clipPath id="clip0_1637_8903">
<rect width="192" height="32" fill="white"/>
</clipPath>
</defs>
</svg>
