<svg width="248" height="30" viewBox="0 0 248 30" fill="none" xmlns="http://www.w3.org/2000/svg">
<g clip-path="url(#clip0_1637_7234)">
<path d="M96.8991 27.5645L94.1288 23.3502L94.1193 23.3359H93.2148V29.5407H94.2097V25.3026L96.9848 29.5217L96.9943 29.5407H97.8988V23.3359H96.8991V27.5645Z" fill="white"/>
<path d="M101.921 23.3368H101.126L98.8698 29.4939L98.8555 29.5368H99.917L100.341 28.3035H102.711L103.135 29.5368H104.196L101.93 23.3558L101.921 23.332V23.3368ZM102.43 27.4463H100.636L101.545 24.8606L102.43 27.4463Z" fill="white"/>
<path d="M104.109 24.2407H105.799V29.5407H106.799V24.2407H108.484V23.3359H104.109V24.2407Z" fill="white"/>
<path d="M110.437 23.3359H109.438V29.5407H110.437V23.3359Z" fill="white"/>
<path d="M113.94 23.3359C113.298 23.3359 112.746 23.555 112.308 23.9883C111.703 24.5836 111.703 25.2645 111.703 26.3883V26.4836C111.703 27.6074 111.703 28.2883 112.308 28.8836C112.75 29.3169 113.298 29.5359 113.94 29.5359C114.583 29.5359 115.145 29.3169 115.583 28.8836C116.178 28.2978 116.178 27.6312 116.178 26.5312V26.3455C116.178 25.2455 116.178 24.5788 115.583 23.9931C115.14 23.5597 114.588 23.3407 113.94 23.3407V23.3359ZM115.183 26.4359C115.183 27.6455 115.121 27.974 114.83 28.2836C114.616 28.5121 114.283 28.6455 113.94 28.6455C113.598 28.6455 113.264 28.5121 113.05 28.2836C112.76 27.974 112.698 27.6455 112.698 26.4359C112.698 25.2264 112.76 24.8978 113.05 24.5883C113.264 24.3597 113.598 24.2264 113.94 24.2264C114.283 24.2264 114.616 24.3597 114.83 24.5883C115.121 24.8978 115.183 25.2264 115.183 26.4359Z" fill="white"/>
<path d="M121.134 27.5645L118.363 23.3502L118.354 23.3359H117.449V29.5407H118.444V25.3026L121.214 29.5217L121.229 29.5407H122.133V23.3359H121.134V27.5645Z" fill="white"/>
<path d="M126.136 23.3359H125.341L123.07 29.5407H124.132L124.555 28.3074H126.926L127.35 29.5407H128.411L126.145 23.3597L126.136 23.3359ZM126.64 27.4455H124.846L125.755 24.8597L126.64 27.4455Z" fill="white"/>
<path d="M130.339 23.3359H129.344V29.5407H133.295V28.6359H130.339V23.3359Z" fill="white"/>
<path d="M140.037 26.4693C139.761 26.2264 139.428 26.0931 138.875 26.0121L138.176 25.9121C137.9 25.8693 137.652 25.774 137.504 25.6407C137.357 25.5121 137.285 25.3312 137.285 25.1074C137.285 24.555 137.714 24.1978 138.371 24.1978C138.942 24.1978 139.347 24.3407 139.685 24.655L139.708 24.6788L140.351 24.055L140.322 24.0312C139.794 23.5455 139.218 23.3359 138.395 23.3359C137.128 23.3359 136.31 24.0455 136.31 25.1407C136.31 25.6455 136.462 26.0312 136.767 26.3217C137.043 26.574 137.452 26.7455 137.947 26.8121L138.671 26.9121C139.023 26.9597 139.175 27.0169 139.323 27.1597C139.475 27.2931 139.551 27.5026 139.551 27.7645C139.551 28.3312 139.104 28.655 138.318 28.655C137.638 28.655 137.176 28.4836 136.776 28.0883L136.752 28.0645L136.086 28.7121L136.11 28.7359C136.676 29.3026 137.333 29.5455 138.304 29.5455C139.666 29.5455 140.541 28.8359 140.541 27.7407C140.541 27.2026 140.365 26.7645 140.032 26.4788L140.037 26.4693Z" fill="white"/>
<path d="M144.173 23.3359H141.812V29.5407H142.812V27.1264H144.173C145.349 27.1264 146.173 26.3455 146.173 25.2312C146.173 24.1169 145.349 23.3359 144.173 23.3359ZM145.178 25.2312C145.178 25.8359 144.773 26.2121 144.126 26.2121H142.817V24.2359H144.126C144.773 24.2359 145.178 24.6169 145.178 25.2264V25.2312Z" fill="white"/>
<path d="M149.374 23.3359C148.731 23.3359 148.179 23.555 147.741 23.9883C147.137 24.5836 147.137 25.2645 147.137 26.3883V26.4836C147.137 27.6074 147.137 28.2883 147.741 28.8836C148.184 29.3169 148.731 29.5359 149.374 29.5359C150.017 29.5359 150.578 29.3169 151.016 28.8836C151.611 28.2978 151.611 27.6312 151.611 26.5312V26.3455C151.611 25.2455 151.611 24.5788 151.016 23.9931C150.574 23.5597 150.021 23.3407 149.374 23.3407V23.3359ZM150.612 26.4407C150.612 27.655 150.55 27.9836 150.259 28.2931C150.045 28.5217 149.712 28.655 149.369 28.655C149.026 28.655 148.693 28.5217 148.479 28.2931C148.189 27.9836 148.127 27.655 148.127 26.4407C148.127 25.2264 148.189 24.8978 148.479 24.5883C148.693 24.3597 149.026 24.2264 149.369 24.2264C149.712 24.2264 150.045 24.3597 150.259 24.5883C150.55 24.8978 150.612 25.2264 150.612 26.4407Z" fill="white"/>
<path d="M157.23 25.1637C157.23 24.0732 156.449 23.3398 155.292 23.3398H152.879V29.5446H153.879V26.9589H154.988L156.278 29.5446H157.439L156.021 26.816C156.777 26.5922 157.23 25.9779 157.23 25.1684V25.1637ZM156.23 25.1684C156.23 25.7398 155.844 26.0922 155.221 26.0922H153.879V24.2398H155.221C155.835 24.2398 156.23 24.6065 156.23 25.1732V25.1684Z" fill="white"/>
<path d="M158.188 24.2407H159.877V29.5407H160.872V24.2407H162.562V23.3359H158.188V24.2407Z" fill="white"/>
<path d="M167.252 26.4762C166.976 26.2334 166.642 26.1 166.09 26.0191L165.39 25.9191C165.114 25.8762 164.867 25.781 164.719 25.6477C164.572 25.5191 164.5 25.3381 164.5 25.1143C164.5 24.5619 164.929 24.2096 165.586 24.2096C166.157 24.2096 166.561 24.3524 166.899 24.6667L166.923 24.6905L167.566 24.0667L167.537 24.0429C167.009 23.5572 166.433 23.3477 165.609 23.3477C164.343 23.3477 163.525 24.0572 163.525 25.1524C163.525 25.6572 163.677 26.0429 163.981 26.3286C164.258 26.581 164.667 26.7524 165.162 26.8191L165.885 26.9191C166.238 26.9667 166.39 27.0238 166.538 27.1667C166.69 27.3 166.766 27.5048 166.766 27.7667C166.766 28.3334 166.319 28.6572 165.533 28.6572C164.853 28.6572 164.391 28.4858 163.991 28.0905L163.967 28.0667L163.301 28.7143L163.325 28.7381C163.891 29.3048 164.548 29.5429 165.519 29.5429C166.88 29.5429 167.756 28.8334 167.756 27.7381C167.756 27.2 167.58 26.7619 167.247 26.4762H167.252Z" fill="white"/>
<path d="M173.498 27.1074L171.728 23.3359H170.742V29.5407H171.742V25.5502L173.127 28.4074L173.132 28.4264H173.865L175.221 25.555V29.5407H176.221V23.3359H175.236L173.498 27.1074Z" fill="white"/>
<path d="M180.963 27.3359C180.963 28.1217 180.478 28.6312 179.721 28.6312C178.964 28.6312 178.488 28.1359 178.488 27.3359V23.3359H177.488V27.3788C177.488 28.6264 178.426 29.5312 179.721 29.5312C181.015 29.5312 181.958 28.6264 181.958 27.3788V23.3359H180.958V27.3359H180.963Z" fill="white"/>
<path d="M186.947 26.4762C186.671 26.2334 186.338 26.1 185.785 26.0191L185.086 25.9191C184.81 25.8762 184.562 25.781 184.415 25.6477C184.267 25.5191 184.196 25.3381 184.196 25.1143C184.196 24.5619 184.624 24.2096 185.281 24.2096C185.852 24.2096 186.257 24.3524 186.595 24.6667L186.619 24.6905L187.261 24.0667L187.233 24.0429C186.704 23.5572 186.128 23.3477 185.305 23.3477C184.039 23.3477 183.22 24.0572 183.22 25.1524C183.22 25.6572 183.372 26.0429 183.677 26.3286C183.953 26.581 184.362 26.7524 184.857 26.8191L185.581 26.9191C185.933 26.9667 186.085 27.0238 186.233 27.1667C186.385 27.3 186.461 27.5048 186.461 27.7667C186.461 28.3334 186.014 28.6572 185.229 28.6572C184.548 28.6572 184.086 28.4858 183.686 28.0905L183.663 28.0667L182.996 28.7143L183.02 28.7381C183.586 29.3048 184.243 29.5429 185.214 29.5429C186.576 29.5429 187.452 28.8334 187.452 27.7381C187.452 27.2 187.275 26.7619 186.942 26.4762H186.947Z" fill="white"/>
<path d="M188.512 29.5407H192.501V28.6359H189.511V26.8597H192.063V25.9645H189.511V24.2407H192.501V23.3359H188.512V29.5407Z" fill="white"/>
<path d="M197.24 27.3359C197.24 28.1217 196.755 28.6312 195.998 28.6312C195.241 28.6312 194.765 28.1359 194.765 27.3359V23.3359H193.766V27.3788C193.766 28.6264 194.703 29.5312 195.998 29.5312C197.293 29.5312 198.235 28.6264 198.235 27.3788V23.3359H197.236V27.3359H197.24Z" fill="white"/>
<path d="M202.26 27.1074L200.489 23.3359H199.504V29.5407H200.504V25.5502L201.889 28.4074L201.898 28.4264H202.627L203.983 25.555V29.5407H204.983V23.3359H203.997L202.26 27.1074Z" fill="white"/>
<path d="M210.202 23.3359C209.559 23.3359 209.007 23.555 208.569 23.9883C207.965 24.5836 207.965 25.2645 207.965 26.3883V26.4836C207.965 27.6074 207.965 28.2883 208.569 28.8836C209.012 29.3169 209.559 29.5359 210.202 29.5359C210.845 29.5359 211.406 29.3169 211.844 28.8836C212.439 28.2978 212.439 27.6312 212.439 26.5312V26.3455C212.439 25.2455 212.439 24.5788 211.844 23.9931C211.402 23.5597 210.849 23.3407 210.202 23.3407V23.3359ZM211.444 26.4359C211.444 27.6455 211.383 27.974 211.092 28.2836C210.878 28.5121 210.545 28.6455 210.202 28.6455C209.859 28.6455 209.526 28.5121 209.312 28.2836C209.022 27.974 208.96 27.6455 208.96 26.4359C208.96 25.2264 209.022 24.8978 209.312 24.5883C209.526 24.3597 209.859 24.2264 210.202 24.2264C210.545 24.2264 210.878 24.3597 211.092 24.5883C211.383 24.8978 211.444 25.2264 211.444 26.4359Z" fill="white"/>
<path d="M213.707 29.5407H214.707V26.9455H217.258V26.0407H214.707V24.2407H217.696V23.3359H213.707V29.5407Z" fill="white"/>
<path d="M225.335 23.3359H224.112L221.651 26.3597V23.3359H220.656V29.5407H221.651V27.7359L222.646 26.5407L224.345 29.5217L224.355 29.5407H225.531L223.312 25.7788L225.335 23.3359Z" fill="white"/>
<path d="M228.503 23.3359C227.86 23.3359 227.308 23.555 226.87 23.9883C226.266 24.5836 226.266 25.2645 226.266 26.3883V26.4836C226.266 27.6074 226.266 28.2883 226.87 28.8836C227.313 29.3169 227.86 29.5359 228.503 29.5359C229.145 29.5359 229.707 29.3169 230.145 28.8836C230.74 28.2978 230.74 27.6312 230.74 26.5312V26.3455C230.74 25.2455 230.74 24.5788 230.145 23.9931C229.702 23.5597 229.15 23.3407 228.503 23.3407V23.3359ZM229.74 26.4359C229.74 27.6455 229.679 27.974 229.388 28.2836C229.174 28.5121 228.841 28.6455 228.498 28.6455C228.155 28.6455 227.822 28.5121 227.608 28.2836C227.318 27.974 227.256 27.6455 227.256 26.4359C227.256 25.2264 227.318 24.8978 227.608 24.5883C227.822 24.3597 228.155 24.2264 228.498 24.2264C228.841 24.2264 229.174 24.3597 229.388 24.5883C229.679 24.8978 229.74 25.2264 229.74 26.4359Z" fill="white"/>
<path d="M236.37 25.1637C236.37 24.0732 235.59 23.3398 234.433 23.3398H232.02V29.5446H233.019V26.9589H234.128L235.418 29.5446H236.58L235.161 26.816C235.918 26.5922 236.37 25.9779 236.37 25.1684V25.1637ZM233.019 24.2398H234.361C234.976 24.2398 235.371 24.6065 235.371 25.1732C235.371 25.7398 234.985 26.097 234.361 26.097H233.019V24.2446V24.2398Z" fill="white"/>
<path d="M237.672 29.5407H241.661V28.6359H238.671V26.8597H241.223V25.9645H238.671V24.2407H241.661V23.3359H237.672V29.5407Z" fill="white"/>
<path d="M245.677 23.3597L245.667 23.3359H244.872L242.602 29.5407H243.663L244.087 28.3074H246.457L246.881 29.5407H247.942L245.677 23.3597ZM246.172 27.4455H244.377L245.286 24.8597L246.172 27.4455Z" fill="white"/>
<path d="M107.832 1.25134V0.765625H95.8416V2.96086H105.409V3.09896C105.409 4.50372 104.843 6.03229 104.291 7.5561H93.2188V9.75134H100.516V12.6228H95.8035V14.818H105.628V19.7799H108.032V12.6228H102.944V9.75134H110.36V7.5561H106.771C107.132 6.45134 107.832 4.90848 107.832 1.24658V1.25134Z" fill="white"/>
<path d="M125.336 13.6588H119.029V11.6445H116.645V19.7826H127.721V11.6445H125.336V13.6588ZM119.025 17.4064V15.6541H125.332V17.4064H119.025Z" fill="white"/>
<path d="M123.832 10.042L124.051 10.0135L123.827 7.86109L123.599 7.88966C121.166 8.19918 119.343 8.26109 117.196 8.26109H115.764V6.69442H121.938V0.851562H113.379V3.02775H119.553V4.57061H113.379V10.4611H116.997C119.715 10.4611 121.438 10.3563 123.832 10.042Z" fill="white"/>
<path d="M133.238 12.3C134.628 11.4619 135.841 10.681 137.174 9.75718C138.255 9.0048 138.974 8.38099 139.326 7.89051C139.773 8.50004 140.692 9.20004 141.449 9.71908C142.539 10.4715 143.824 11.2762 145.419 12.2572L145.609 12.3715L146.752 10.381L146.561 10.2667C145.071 9.38575 143.967 8.70956 142.748 7.84766C140.768 6.43813 140.487 5.69051 140.487 3.67147V1.34766H138.136V3.67147C138.136 5.69528 137.731 6.48575 136.084 7.7048C134.842 8.60956 133.676 9.33813 132.081 10.2905L131.891 10.4048L133.052 12.4143L133.238 12.3Z" fill="white"/>
<path d="M147.879 14.8516H130.738V17.0468H147.879V14.8516Z" fill="white"/>
<path d="M160.661 11.5207H166.145V9.36834H163.622V3.79691H166.145V1.64453H152.774V3.79691H155.335V9.36834H152.774V11.5207H158.296V14.8493H150.898V17.0445H168.039V14.8493H160.661V11.5207ZM161.223 3.79691V9.36834H157.734V3.79691H161.223Z" fill="white"/>
<path d="M188.204 14.8516H171.062V17.0468H188.204V14.8516Z" fill="white"/>
<path d="M173.659 12.7423C175.278 11.8851 176.425 11.2042 177.624 10.3804C178.576 9.72321 179.271 9.13274 179.638 8.6756C179.99 9.10893 180.671 9.68988 181.613 10.3375C182.956 11.2518 184.046 11.8756 185.593 12.7185L185.778 12.8185L186.892 10.7804L186.688 10.6756C185.064 9.82321 184.15 9.30893 182.694 8.29941C181.299 7.33274 180.78 6.48036 180.78 5.14226V5.05655H186.021V2.81845H180.78V0.4375H178.448V2.82798H173.245V5.06607H178.448V5.15179C178.448 6.46607 177.896 7.39464 176.534 8.35179C175.263 9.2375 174.107 9.88512 172.541 10.7042L172.336 10.8137L173.474 12.847L173.659 12.747V12.7423Z" fill="white"/>
<path d="M193.938 14.4291H202.767V19.7863H205.171V12.2148H193.938V14.4291Z" fill="white"/>
<path d="M200.197 0.871094H197.831V3.96633H193.604V0.871094H191.238V10.4806H200.192V0.871094H200.197ZM193.609 8.28538V6.13776H197.836V8.28538H193.609Z" fill="white"/>
<path d="M224.579 0.4375H213.336V7.05655H224.579V0.4375ZM215.697 4.8994V2.58512H222.213V4.8994H215.697Z" fill="white"/>
<path d="M210.316 10.1289H217.675V11.4861H213.044V13.6194H222.383V14.5813H213.044V19.7861H224.749V17.6528H215.372V16.6718H224.749V11.4861H220.098V10.1289H227.591V7.97656H210.316V10.1289Z" fill="white"/>
<path d="M238.502 3.67109C238.502 5.52347 237.683 7.86633 237.683 7.86633L239.892 8.41395C239.892 8.41395 240.887 5.40443 240.887 3.38062V0.871094H231.5V3.08538H238.502V3.67109Z" fill="white"/>
<path d="M245.377 5.8381V0H242.992V14.6571H245.377V8.07143H247.943V5.8381H245.377Z" fill="white"/>
<path d="M236.419 13.5898H234.016V19.7946H245.387V17.5756H236.419V13.5898Z" fill="white"/>
<path d="M242.201 11.321L242.001 9.1686L241.777 9.19241C239.788 9.39241 238.193 9.49717 236.165 9.55908V6.07812H233.78V9.61146H230.148V11.8257H230.372C236.432 11.8257 238.85 11.6781 241.977 11.3448L242.196 11.321H242.201Z" fill="white"/>
<path d="M127.721 0H125.336V10.4619H127.721V0Z" fill="white"/>
<path d="M205.17 4.50476V0H202.785V11.119H205.17V6.74286H207.755V4.50476H205.17Z" fill="white"/>
<path d="M78.6302 0H76.869H67.7201H65.9542H56.8053H55.0441H45.8952L44.5767 2.9619H53.7255L53.7303 2.95238H55.4915L43.6484 29.5619H52.7973L64.6404 2.95238H66.4016L54.5585 29.5619H63.7122L75.5552 2.95238H77.3165L65.4734 29.5619H74.6223L87.7791 0H78.6302Z" fill="white"/>
<path d="M25.9424 26.6095H21.3775L33.2206 0H24.0717H22.3057H13.1569L0 29.5619H9.14887L20.9919 2.95238H22.7532L10.9149 29.5619H18.193H20.0637H21.825H25.9424H30.9738L32.2828 26.6238H25.9424V26.6095Z" fill="white"/>
<path d="M36.2348 17.7476L44.1318 0H34.9829L27.0859 17.7476H36.2348Z" fill="white"/>
<path d="M40.6266 11.8398L32.7344 29.5637H41.888L49.7755 11.8398H40.6266Z" fill="white"/>
</g>
<defs>
<clipPath id="clip0_1637_7234">
<rect width="248" height="30" fill="white"/>
</clipPath>
</defs>
</svg>
