<svg width="187" height="28" viewBox="0 0 187 28" fill="none" xmlns="http://www.w3.org/2000/svg">
<g clip-path="url(#clip0_1637_7425)">
<mask id="mask0_1637_7425" style="mask-type:luminance" maskUnits="userSpaceOnUse" x="0" y="0" width="187" height="28">
<path d="M187 0H0V27.4346H187V0Z" fill="white"/>
</mask>
<g mask="url(#mask0_1637_7425)">
<path d="M33.7689 9.99875C33.7689 5.30116 30.0995 1.48267 25.5862 1.48267H22.8617H20.9353H19.4492V18.5056H21.0086H24.6964C24.7239 18.2767 24.7331 18.0569 24.7331 17.828C24.7331 17.0771 24.5863 16.3537 24.3019 15.6761C24.2652 15.6029 24.2377 15.5204 24.201 15.4472H22.8525V4.55028H24.9808C27.8979 4.55028 30.2647 6.98606 30.2647 9.99875C30.2647 11.7203 29.4941 13.2495 28.2832 14.2476C28.7327 15.3556 28.9712 16.5277 28.9804 17.7365C31.815 16.3904 33.7689 13.4326 33.7689 9.99875Z" fill="white"/>
<path d="M38.5453 1.48267H35.1328V18.5056H38.5453V1.48267Z" fill="white"/>
<path d="M52.8761 1.48267H39.9141V4.55028H44.6843V18.5056H48.0968V4.55028H52.8761V1.48267Z" fill="white"/>
<path d="M23.1995 9.43097V13.515C24.3462 14.5773 25.0709 16.1157 25.0709 17.828C25.0709 21.0238 22.5482 23.6153 19.4476 23.6153C16.3379 23.6153 13.8152 21.0238 13.8152 17.828C13.8152 14.7513 16.1544 12.2331 19.099 12.0499V8.64347C15.4297 8.78083 12.3108 11.0518 10.9531 14.2568L6.3113 9.82476L14.3289 1.48267H9.72384L3.41251 8.12151V1.48267H0V18.5056H3.41251V11.5279L10.2651 18.5331C10.632 23.2765 14.6041 27.0217 19.4476 27.0217C24.5297 27.0217 28.6578 22.9102 28.6578 17.828C28.6578 14.0828 26.4102 10.8595 23.1995 9.43097Z" fill="white"/>
<path d="M77.8533 1.24561H74.7344V18.0763H77.8533V1.24561Z" fill="white"/>
<path d="M111.245 15.5827V22.0385H103.457V24.9413H122.822V22.0385H114.438V15.5827H121.263V1.86548H118.134V5.60156H108.145V1.86548H105.025V15.5827H111.245ZM108.145 8.47687H118.134V12.6892H108.145V8.47687Z" fill="white"/>
<path d="M78.0363 26.187V23.2843H65.9823V16.8376H62.8633V26.187H78.0363Z" fill="white"/>
<path d="M96.9 9.41344C98.4958 8.51604 99.3949 7.13335 99.3949 5.30194C99.3949 1.85888 96.2027 0 91.2768 0C86.3501 0 83.1579 1.85888 83.1579 5.30194C83.1579 7.13335 84.0664 8.51604 85.6536 9.41344V12.4078H81.4336V15.274H101.101V12.4078H96.8907V9.41344H96.9ZM91.2768 2.79291C94.2579 2.79291 96.1848 3.67198 96.1848 5.30194C96.1848 6.9319 94.2579 7.81099 91.2768 7.81099C88.3043 7.81099 86.3782 6.9319 86.3782 5.30194C86.3875 3.67198 88.3043 2.79291 91.2768 2.79291ZM88.7811 10.4207C89.5517 10.5397 90.387 10.6039 91.2768 10.6039C92.1666 10.6039 93.0011 10.5397 93.7717 10.4207V12.4078H88.7811V10.4207Z" fill="white"/>
<path d="M70.3154 15.3186L72.9848 13.4048C72.9848 13.4048 67.7101 7.91971 67.2423 1.55554H67.1138H64.3618H64.2425C63.7747 7.91971 58.5 13.4048 58.5 13.4048L61.1695 15.3186C61.1695 15.3186 63.9765 12.4066 65.747 7.78235C67.5083 12.4066 70.3154 15.3186 70.3154 15.3186Z" fill="white"/>
<path d="M169.047 26.1869H185.284V16.2057H169.047V26.1869ZM182.156 23.2841H172.157V19.1085H182.156V23.2841Z" fill="white"/>
<path d="M91.2739 16.5217C86.0636 16.5217 82.6875 18.4355 82.6875 21.9793C82.6875 25.5231 86.0636 27.4369 91.2739 27.4369C96.4936 27.4369 99.8603 25.5231 99.8603 21.9793C99.8697 18.4447 96.4936 16.5217 91.2739 16.5217ZM91.2739 24.6807C88.017 24.6807 85.907 23.7375 85.907 21.9793C85.907 20.2303 88.017 19.2871 91.2739 19.2871C94.5394 19.2871 96.6494 20.2303 96.6494 21.9793C96.6494 23.7283 94.5394 24.6807 91.2739 24.6807Z" fill="white"/>
<path d="M144.841 12.408H125.164V15.2741H144.841V12.408Z" fill="white"/>
<path d="M135.004 16.5217C129.784 16.5217 126.418 18.4355 126.418 21.9793C126.418 25.5231 129.784 27.4369 135.004 27.4369C140.215 27.4369 143.59 25.5231 143.59 21.9793C143.59 18.4447 140.215 16.5217 135.004 16.5217ZM135.004 24.6807C131.738 24.6807 129.628 23.7375 129.628 21.9793C129.628 20.2303 131.738 19.2871 135.004 19.2871C138.27 19.2871 140.38 20.2303 140.38 21.9793C140.371 23.7283 138.261 24.6807 135.004 24.6807Z" fill="white"/>
<path d="M184.974 1.55554H169.361V4.45833H181.855V6.01503C181.855 7.95634 181.616 9.74197 181.479 10.5936H167.324V13.4597H187.001V10.5936H184.451C184.634 9.65042 184.965 7.74571 184.965 6.01503V1.55554H184.974Z" fill="white"/>
<path d="M125.914 8.69803L127.878 11.2254C127.878 11.2254 131.95 9.97086 134.996 6.75675C138.041 9.98004 142.115 11.2254 142.115 11.2254L144.077 8.69803C139.747 7.36112 137.555 5.03523 137.005 4.36676H143.014V1.55554H126.96V4.3576H132.969C132.427 5.03523 130.244 7.36112 125.914 8.69803Z" fill="white"/>
<path d="M164.671 1.24561H161.543V26.4916H164.671V1.24561Z" fill="white"/>
<path d="M147.18 4.74372H155.142C154.665 12.6096 147.015 18.4793 146.023 19.2119L148.427 21.3272C148.427 21.3272 158.738 14.5326 158.738 1.87756H147.18V4.74372Z" fill="white"/>
</g>
</g>
<defs>
<clipPath id="clip0_1637_7425">
<rect width="187" height="28" fill="white"/>
</clipPath>
</defs>
</svg>
