<svg width="114" height="26" viewBox="0 0 114 26" fill="none" xmlns="http://www.w3.org/2000/svg">
<g clip-path="url(#clip0_1637_6473)">
<path d="M0 26.0001H6.28096L7.87143 22.7106H17.7178L19.3002 26.0001H25.9656L13.1406 0.31665L0 26.0001ZM10.421 17.6259L12.7238 12.7977L15.1155 17.6259H10.421Z" fill="white"/>
<path d="M34.0507 6.78748V1.44244C34.0507 1.44244 33.3061 0.841424 31.2704 0.324549C30.7847 0.200339 29.8216 0.0320542 28.6925 0H21.25V14.184L27.1222 26L30.8293 25.992C30.8293 25.992 41.1208 24.1649 41.1208 13.1944C41.1208 8.78687 39.6234 6.78748 39.6234 6.78748H34.0507ZM31.6832 19.6653C29.425 20.8233 26.8309 20.5428 26.8309 20.5428V5.62953C26.8309 5.62953 29.3845 5.6135 31.2907 6.41486C33.4193 7.30837 35.4955 9.52812 35.4955 13.0982C35.4955 16.4759 33.6501 18.6595 31.6832 19.6653Z" fill="white"/>
<path d="M35.043 5.81372H42.716V25.9999H48.4143V5.81372H56.0874V0.228271H35.043V5.81372Z" fill="white"/>
<path d="M80.2033 4.58777H78.3376V0H74.0195V13.3305H78.3376V8.49037H80.2033V13.3305H84.6713V0H80.2033V4.58777Z" fill="white"/>
<path d="M69.1252 17.213V15.2537H64.2891V25.9999H84.6698V15.2537H79.8336V17.213H69.1252ZM79.8295 22.546H69.1252V20.5187H79.8295V22.546Z" fill="white"/>
<path d="M113.347 19.541H87.5195V23.704H113.347V19.541Z" fill="white"/>
<path d="M100.43 4.92836L106.921 16.2555H112.348L102.866 0.524902H97.9977L88.5195 16.2555H93.9466L100.43 4.92836Z" fill="white"/>
<path d="M52.2531 7.12817C51.1725 7.12817 50.2539 7.94957 50.2539 9.06345C50.2539 10.1773 51.1685 11.0108 52.2531 11.0108C53.3377 11.0108 54.2402 10.1894 54.2402 9.06345C54.2402 7.93754 53.3256 7.12817 52.2531 7.12817ZM52.2531 10.6902C51.3506 10.6902 50.6505 10.001 50.6505 9.06746C50.6505 8.13388 51.3506 7.45272 52.2531 7.45272C53.1556 7.45272 53.8436 8.1459 53.8436 9.06746C53.8436 9.98902 53.1394 10.6902 52.2531 10.6902Z" fill="white"/>
<path d="M53.1633 8.58654C53.1633 8.1458 52.8962 7.94946 52.3621 7.94946H51.5V10.1893H51.8441V9.21961H52.2407L52.8396 10.1893H53.224L52.5806 9.20358C52.9124 9.16351 53.1674 8.98722 53.1674 8.58654M51.8399 8.93113V8.23794H52.3094C52.5482 8.23794 52.8032 8.29003 52.8032 8.56651C52.8032 8.91108 52.5441 8.93113 52.2527 8.93113H51.8399Z" fill="white"/>
<path d="M60.2148 0.228271V3.82235H67.3335L66.8721 5.74961H60.5103V9.21148H66.0465L65.0591 13.3304H69.3893L72.4247 0.228271H60.2148Z" fill="white"/>
</g>
<defs>
<clipPath id="clip0_1637_6473">
<rect width="114" height="26" fill="white"/>
</clipPath>
</defs>
</svg>
