<svg width="139" height="28" viewBox="0 0 139 28" fill="none" xmlns="http://www.w3.org/2000/svg">
<g clip-path="url(#clip0_1637_6608)">
<mask id="mask0_1637_6608" style="mask-type:luminance" maskUnits="userSpaceOnUse" x="0" y="0" width="139" height="28">
<path d="M139 0H0V28H139V0Z" fill="white"/>
</mask>
<g mask="url(#mask0_1637_6608)">
<path d="M13.5116 22.1328C11.9586 22.1328 10.4403 21.6557 9.14893 20.7618C7.85757 19.8679 6.85107 18.5973 6.25671 17.1108C5.66236 15.6243 5.50684 13.9885 5.80985 12.4105C6.11285 10.8324 6.86074 9.38281 7.95896 8.24513C9.05718 7.10739 10.4564 6.33259 11.9797 6.01869C13.503 5.70479 15.0819 5.8659 16.5167 6.48163C17.9517 7.09737 19.1781 8.14008 20.041 9.47792C20.9038 10.8158 21.3644 12.3886 21.3644 13.9976C21.365 15.0661 21.1622 16.1243 20.7678 17.1115C20.3734 18.0987 19.7949 18.9959 19.0657 19.7514C18.3363 20.5069 17.4704 21.1061 16.5175 21.5147C15.5645 21.9234 14.543 22.1335 13.5116 22.1328ZM13.5116 27.9998C16.1851 28.0008 18.7987 27.1803 21.0219 25.6422C23.2452 24.1042 24.9782 21.9176 26.0019 19.3591C27.0255 16.8007 27.2938 13.9851 26.7728 11.2686C26.2518 8.55217 24.9649 6.0568 23.0747 4.0981C21.1847 2.13941 18.7764 0.805384 16.1544 0.264744C13.5324 -0.275898 10.8146 0.00113215 8.34464 1.0608C5.87466 2.12046 3.7635 3.91516 2.27815 6.21792C0.792807 8.52066 1.3592e-07 11.228 0 13.9976C-1.82211e-07 17.7105 1.42341 21.2713 3.95722 23.8971C6.49102 26.5229 9.92777 27.9986 13.5116 27.9998Z" fill="white"/>
<path d="M101.157 27.9998C98.4833 27.9998 95.8703 27.1785 93.6472 25.6397C91.4244 24.1009 89.6919 21.9138 88.6691 19.355C87.6462 16.7962 87.3788 13.9805 87.9007 11.2642C88.4225 8.54797 89.7103 6.05301 91.6009 4.09495C93.4914 2.13688 95.9002 0.803647 98.5225 0.263873C101.145 -0.275903 103.862 0.00202537 106.332 1.06251C108.802 2.12299 110.912 3.91839 112.396 6.22163C113.882 8.52487 114.674 11.2325 114.673 14.0021C114.672 17.715 113.247 21.2753 110.713 23.9003C108.178 26.5253 104.74 27.9998 101.157 27.9998ZM101.157 22.1328C102.71 22.1337 104.229 21.6573 105.521 20.7637C106.813 19.8701 107.821 18.5996 108.415 17.1129C109.01 15.6262 109.166 13.9901 108.863 12.4116C108.56 10.8331 107.812 9.38309 106.713 8.24513C105.615 7.10713 104.216 6.33223 102.692 6.01847C101.168 5.70471 99.5888 5.8662 98.154 6.48249C96.7192 7.09878 95.4925 8.14218 94.6296 9.48072C93.7676 10.8192 93.3077 12.3927 93.3086 14.0021C93.3086 15.0698 93.511 16.1271 93.9056 17.1136C94.3003 18.1001 94.8777 18.9963 95.6072 19.7514C96.3358 20.5064 97.2006 21.1053 98.1531 21.5139C99.1056 21.9225 100.126 22.1328 101.157 22.1328Z" fill="white"/>
<path d="M29.9883 0.848348V27.3347H35.6516V5.73306H41.8277V27.3347H47.491V5.73306H49.6804C50.2043 5.73306 50.7231 5.84003 51.2071 6.04787C51.691 6.25571 52.1307 6.56033 52.501 6.94432C52.8712 7.32831 53.1648 7.78413 53.3649 8.28574C53.5649 8.78735 53.6676 9.32489 53.6671 9.86768V27.3347H59.3303V10.0016C59.3303 7.52623 58.3815 5.15217 56.6923 3.40141C55.0032 1.65063 52.712 0.666467 50.3226 0.665283H35.6688C33.7638 0.665283 31.8703 0.726305 29.9883 0.848348Z" fill="white"/>
<path d="M117.371 0.848348V27.3347H123.035V5.73306H129.34C130.399 5.73306 131.414 6.16866 132.162 6.94405C132.911 7.71943 133.331 8.77109 133.331 9.86768V27.3347H138.994V10.0016C138.994 7.52623 138.046 5.15217 136.356 3.40141C134.667 1.65063 132.376 0.666467 129.987 0.665283H123.03C121.108 0.665283 119.246 0.727793 117.371 0.848348Z" fill="white"/>
<path d="M63.7109 0.848104V27.3344H69.3914V5.73281H76.0847C76.6197 5.7146 77.1525 5.808 77.6518 6.00747C78.1512 6.20694 78.6066 6.50841 78.9912 6.89393C79.3758 7.27945 79.6816 7.74117 79.8904 8.2516C80.0993 8.76204 80.2069 9.31077 80.2069 9.86514C80.2069 10.4195 80.0993 10.9683 79.8904 11.4787C79.6816 11.9891 79.3758 12.4508 78.9912 12.8364C78.6066 13.222 78.1512 13.5234 77.6518 13.7229C77.1525 13.9223 76.6197 14.0158 76.0847 13.9975H71.1757L79.925 27.3344H86.8768L80.5973 17.7392C82.111 17.1054 83.4072 16.0173 84.3196 14.6146C85.2319 13.212 85.7187 11.5588 85.7174 9.86738C85.7174 7.42678 84.7817 5.08612 83.1158 3.36035C81.45 1.63457 79.1906 0.665039 76.8347 0.665039H69.3655C67.4635 0.665039 65.5786 0.726061 63.7109 0.848104Z" fill="white"/>
</g>
</g>
<defs>
<clipPath id="clip0_1637_6608">
<rect width="139" height="28" fill="white"/>
</clipPath>
</defs>
</svg>
