<svg width="136" height="32" viewBox="0 0 136 32" fill="none" xmlns="http://www.w3.org/2000/svg">
<g clip-path="url(#clip0_1637_9681)">
<mask id="mask0_1637_9681" style="mask-type:luminance" maskUnits="userSpaceOnUse" x="0" y="0" width="136" height="32">
<path d="M136 0H0V32H136V0Z" fill="white"/>
</mask>
<g mask="url(#mask0_1637_9681)">
<path d="M92.4784 0.0655785H83.668V3.64802H91.7659V8.24661H95.2446V2.91086C95.2446 1.3401 94.007 0.0621338 92.4784 0.0621338" fill="white"/>
<path d="M102.737 29.0556H99.2583V9.22134H97.0039V5.63892H100.917C101.921 5.63892 102.737 6.4794 102.737 7.51279V29.059V29.0556Z" fill="white"/>
<path d="M108.068 29.0557H104.733V6.58626C104.733 4.9225 103.426 3.57565 101.81 3.57565H97V0.0655518H102.151C105.416 0.0655518 108.065 2.79027 108.065 6.15568V29.0557H108.068Z" fill="white"/>
<path d="M95.2441 19.4555H89.2568C85.5573 19.4555 82.5469 16.3554 82.5469 12.5455H86.0256C86.0256 14.378 87.474 15.8696 89.2568 15.8696H95.2441V19.452V19.4555Z" fill="white"/>
<path d="M95.2441 5.63892V9.22134H89.2568C87.474 9.22134 86.0256 10.7129 86.0256 12.5489H82.5469C82.5469 8.73909 85.5573 5.63892 89.2568 5.63892H95.2441Z" fill="white"/>
<path d="M10.5373 18.7874H7.05859V26.6343H10.5373V18.7874Z" fill="white"/>
<path d="M19.7014 29.0557H0V25.4733H19.6044V3.5515C19.6044 1.6294 21.123 0.0689697 22.9894 0.0689697H26.7223V3.6514H23.0864V25.5732C23.0864 27.4953 21.5679 29.0591 19.7014 29.0591" fill="white"/>
<path d="M8.79502 21.608C5.28622 21.608 2.42969 18.6662 2.42969 15.0529C2.42969 11.4394 5.28622 8.49768 8.79502 8.49768C12.3038 8.49768 15.1604 11.4394 15.1604 15.0529C15.1604 18.6662 12.3038 21.608 8.79502 21.608ZM8.79502 12.1008C7.21288 12.1008 5.92844 13.4235 5.92844 15.0563C5.92844 16.689 7.21288 18.0117 8.79502 18.0117C10.3772 18.0117 11.6649 16.6855 11.6649 15.0563C11.6649 13.427 10.3772 12.1008 8.79502 12.1008Z" fill="white"/>
<path d="M8.79706 3.64798V0.0655518C6.54596 0.0655518 4.66612 1.73277 4.25805 3.93044H0V7.51287H7.47584V5.01206C7.47584 4.26113 8.06788 3.65143 8.79706 3.65143" fill="white"/>
<path d="M17.5973 3.93044H13.3359C12.9278 1.73277 11.048 0.0655518 8.79688 0.0655518V3.64798C9.52606 3.64798 10.1181 4.25769 10.1181 5.00862V7.50943H17.594V3.92699L17.5973 3.93044Z" fill="white"/>
<path d="M51.4297 13.7063H47.951V3.64798H43.5156V0.0655518H48.048C49.9144 0.0655518 51.433 1.62942 51.433 3.55154V13.7063H51.4297Z" fill="white"/>
<path d="M31.5646 13.7063V6.90995C31.5646 5.07396 33.0129 3.58243 34.7957 3.58243V0C31.0963 0 28.0859 3.10019 28.0859 6.90995V13.7063H31.5646Z" fill="white"/>
<path d="M41.5068 13.7063V6.90995C41.5068 3.10019 38.4964 0 34.7969 0V3.58243C36.5764 3.58243 38.0281 5.07396 38.0281 6.90995V13.7063H41.5068Z" fill="white"/>
<path d="M43.4319 30.6162C39.0768 30.6162 35.5312 26.9684 35.5312 22.48C35.5312 17.9917 39.0768 14.3472 43.4319 14.3472C47.7869 14.3472 51.3292 17.995 51.3292 22.48C51.3292 26.9649 47.7869 30.6162 43.4319 30.6162ZM43.4319 17.9813C41.0236 17.9813 39.0635 19.9999 39.0635 22.48C39.0635 24.9602 41.0236 26.9787 43.4319 26.9787C45.8402 26.9787 47.8003 24.9602 47.8003 22.48C47.8003 19.9999 45.8402 17.9813 43.4319 17.9813Z" fill="white"/>
<path d="M135.998 0.0930176H132.52V29.0557H135.998V0.0930176Z" fill="white"/>
<path d="M120.515 3.76167C117.936 3.76167 115.835 5.92146 115.835 8.58073V23.0413H112.34V8.57729C112.34 3.9339 116.006 0.158569 120.515 0.158569" fill="white"/>
<path d="M120.516 0.158569C125.021 0.158569 128.69 3.9339 128.69 8.57729V23.0379H125.192V8.57729C125.192 5.92146 123.094 3.75823 120.516 3.75823" fill="white"/>
<path d="M58.8928 9.20752C58.8928 9.66221 59.167 10.0136 59.4044 10.0136H78.8349V13.596H59.4044C57.2036 13.596 55.4141 11.6291 55.4141 9.20752" fill="white"/>
<path d="M55.4102 9.20782C55.4102 6.78622 57.1997 4.81934 59.4005 4.81934H78.831V8.40176H59.4005C59.1664 8.40176 58.8888 8.75312 58.8888 9.20782" fill="white"/>
<path d="M78.8455 29.0557H75.3669V23.0379H55.9297V19.4554H75.4639C77.3303 19.4554 78.8489 21.0194 78.8489 22.9415V29.0557H78.8455Z" fill="white"/>
<path d="M78.8347 0.0655518H56.3203V3.64798H78.8347V0.0655518Z" fill="white"/>
<path d="M79.6168 14.8121H55.1523V18.3946H79.6168V14.8121Z" fill="white"/>
</g>
</g>
<defs>
<clipPath id="clip0_1637_9681">
<rect width="136" height="32" fill="white"/>
</clipPath>
</defs>
</svg>
