<svg width="152" height="40" viewBox="0 0 152 40" fill="none" xmlns="http://www.w3.org/2000/svg">
<g clip-path="url(#clip0_1637_6046)">
<mask id="mask0_1637_6046" style="mask-type:luminance" maskUnits="userSpaceOnUse" x="0" y="9" width="5" height="11">
<path d="M0 19.0815H0.976903C0.976903 15.7769 2.12032 12.7739 4.15184 10.664L2.73089 9.08984C0.988004 12.0818 0 15.5537 0 19.0815Z" fill="white"/>
</mask>
<g mask="url(#mask0_1637_6046)">
<path d="M2.07634 7.00879L-4.96484 14.0897L2.07634 21.1707L9.11753 14.0897L2.07634 7.00879Z" fill="white"/>
</g>
<mask id="mask1_1637_6046" style="mask-type:luminance" maskUnits="userSpaceOnUse" x="0" y="19" width="4" height="10">
<path d="M0 19.0806C0 22.6642 0.632767 26.0022 1.8872 28.9159L3.89651 26.1474C2.12032 24.4504 0.976903 22.1619 0.976903 19.103V19.0806H0Z" fill="white"/>
</mask>
<g mask="url(#mask1_1637_6046)">
<path d="M1.9582 17.1204L-4.87891 23.9961L1.9582 30.8717L8.79529 23.9961L1.9582 17.1204Z" fill="white"/>
</g>
<mask id="mask2_1637_6046" style="mask-type:luminance" maskUnits="userSpaceOnUse" x="33" y="16" width="6" height="7">
<path d="M33.2578 18.4218C35.7778 18.4553 37.3209 20.4201 37.2763 22.9097H38.2533C38.2533 20.4425 37.1099 18.2097 35.0783 16.5352L33.2578 18.4218Z" fill="white"/>
</mask>
<g mask="url(#mask2_1637_6046)">
<path d="M35.7543 14.0305L30.0859 19.7291L35.7523 25.4295L41.4209 19.7311L35.7543 14.0305Z" fill="white"/>
</g>
<mask id="mask3_1637_6046" style="mask-type:luminance" maskUnits="userSpaceOnUse" x="33" y="22" width="6" height="10">
<path d="M37.2666 22.9077C37.2222 24.9618 36.1343 26.681 33.7031 27.9649L36.2565 31.5038C37.4998 29.1929 38.2435 26.3461 38.2435 22.9077H37.2666Z" fill="white"/>
</mask>
<g mask="url(#mask3_1637_6046)">
<path d="M35.9842 20.6287L29.4375 27.2123L35.9842 33.7959L42.5307 27.2123L35.9842 20.6287Z" fill="white"/>
</g>
<mask id="mask4_1637_6046" style="mask-type:luminance" maskUnits="userSpaceOnUse" x="5" y="13" width="31" height="15">
<path d="M8.93743 20.4512C7.30555 20.4512 6.05113 18.6426 6.05113 16.8898C6.05113 16.7113 6.06222 16.5326 6.08442 16.354L5.18523 16.1977C5.11862 16.5773 5.07422 16.968 5.07422 17.381C5.07422 23.2644 9.43698 27.0154 14.9321 27.0154C25.3894 27.0154 28.4977 18.4193 33.1823 18.4193H33.2601L35.0807 16.5326C32.8161 14.657 29.4635 13.4961 25.4005 13.4961C17.119 13.4961 12.7007 20.4512 8.94853 20.4512" fill="white"/>
</mask>
<g mask="url(#mask4_1637_6046)">
<path d="M35.0807 13.4961H5.07422V27.0266H35.0807V13.4961Z" fill="white"/>
</g>
<mask id="mask5_1637_6046" style="mask-type:luminance" maskUnits="userSpaceOnUse" x="2" y="0" width="37" height="13">
<path d="M2.73047 9.08736L4.15142 10.6615C5.98311 8.75244 8.54748 7.56908 11.6558 7.56908C17.7059 7.56908 21.9022 12.1686 27.2974 12.1686C33.7694 12.1686 37.3439 8.99804 38.2431 2.80212L37.2662 2.63467C36.9887 4.27575 35.9341 6.24059 34.0247 6.24059C32.2263 6.24059 30.3169 4.65532 27.5415 3.11471C24.7663 1.52944 21.5691 0 17.595 0C11.1895 0 5.79439 3.79571 2.73047 9.06503" fill="white"/>
</mask>
<g mask="url(#mask5_1637_6046)">
<path d="M38.2431 0.0222168H2.73047V12.1796H38.2431V0.0222168Z" fill="white"/>
</g>
<mask id="mask6_1637_6046" style="mask-type:luminance" maskUnits="userSpaceOnUse" x="1" y="26" width="36" height="14">
<path d="M1.89844 28.9143C4.78474 35.5903 10.9459 40 20.1598 40C26.2543 40 33.0039 37.5663 36.2566 31.5044L33.7033 27.9655C30.6949 29.5507 25.6438 30.4662 17.9841 30.4662C13.2993 30.4662 7.38242 29.4391 3.90776 26.1458L1.89844 28.9143Z" fill="white"/>
</mask>
<g mask="url(#mask6_1637_6046)">
<path d="M36.2677 26.1458H1.89844V40H36.2677V26.1458Z" fill="white"/>
</g>
<path d="M54.352 29.9436C48.2907 29.9436 44.9492 25.9357 44.9492 20.0079C44.9492 14.0799 48.5683 10.0273 54.463 10.0273C56.8164 10.0273 58.7814 10.5744 60.3022 11.4451L59.6695 15.5869C58.2263 14.6603 56.539 13.9459 54.5851 13.9459C51.288 13.9459 49.6895 16.3907 49.6895 19.9855C49.6895 23.5803 51.3435 26.1256 54.6406 26.1256C55.6952 26.1256 56.439 25.9357 57.216 25.5116V22.0955H53.8968L53.3528 18.5677H61.3458V27.9117C59.3586 29.218 57.0051 29.9436 54.3742 29.9436" fill="white"/>
<path d="M70.395 29.7953C67.8196 29.7953 65.666 29.237 63.7344 28.3551L64.4226 24.2914C66.3874 25.3521 68.5744 26.0665 70.4838 26.0665C71.8381 26.0665 72.7817 25.4859 72.7817 24.3473C72.7817 23.2086 72.2268 22.7621 69.5402 21.7349C65.7325 20.2613 64.0673 19.011 64.0673 15.8405C64.0673 12.1452 66.9425 10.1692 70.5948 10.1692C73.0814 10.1692 74.6912 10.6381 76.3453 11.453L75.6237 15.4609C73.9141 14.4561 72.1157 13.9091 70.6504 13.9091C69.185 13.9091 68.5189 14.5119 68.5189 15.405C68.5189 16.3874 69.0406 16.8563 71.4164 17.7718C75.5681 19.3013 77.2222 20.7525 77.2222 23.8114C77.2222 27.9867 74.1805 29.8175 70.384 29.8175" fill="white"/>
<path d="M91.5722 29.9179C86.0215 29.9179 82.7578 25.9213 82.7578 20.1497C82.7578 14.3779 86.1547 10.3254 91.4057 10.3254C93.7258 10.3254 95.513 10.9283 96.9562 11.9665L96.6342 13.909C95.2466 12.7815 93.526 12.0223 91.3834 12.0223C87.1872 12.0223 84.6894 15.2487 84.6894 20.1273C84.6894 25.0059 87.1983 28.1987 91.6054 28.1987C93.3705 28.1987 94.6582 27.7857 95.9015 27.0266V21.3665H91.3834L91.1059 19.6695H97.7443V28.0201C96.0015 29.1699 93.9922 29.9403 91.5722 29.9403" fill="white"/>
<path d="M101.574 29.5624V10.2378L103.339 9.91406V29.5624H101.574Z" fill="white"/>
<path d="M112.054 17.8725C109.501 17.8725 108.113 20.0384 108.113 23.0972C108.113 26.1561 109.523 28.2996 112.054 28.2996C114.585 28.2996 116.05 26.1673 116.05 23.0972C116.05 20.0272 114.629 17.8725 112.054 17.8725ZM112.054 29.8402C108.757 29.8402 106.281 27.3729 106.281 23.1084C106.281 18.8438 108.812 16.3542 112.054 16.3542C115.295 16.3542 117.904 18.8214 117.904 23.1084C117.904 27.3953 115.351 29.8402 112.054 29.8402Z" fill="white"/>
<path d="M126.197 17.9632C124.754 17.9632 123.555 18.8675 122.412 20.2071V27.6533C123.233 27.9772 124.077 28.1781 125.376 28.1781C127.929 28.1781 129.727 26.5035 129.727 22.8195C129.727 19.6712 128.229 17.9744 126.197 17.9744M125.298 29.7299C123.5 29.7299 122.056 29.3727 120.613 28.8815V10.2378L122.412 9.91406V18.3092C123.333 17.2933 124.588 16.3444 126.386 16.3444C129.194 16.3444 131.559 18.3985 131.559 22.7189C131.559 27.4524 128.861 29.7299 125.298 29.7299Z" fill="white"/>
<path d="M141.763 22.6972C136.7 23.2107 135.291 24.4499 135.291 26.2026C135.291 27.598 136.246 28.3126 137.599 28.3126C138.954 28.3126 140.508 27.5423 141.763 26.37V22.7083V22.6972ZM142.174 29.563L141.874 27.8326C140.675 28.96 139.176 29.8308 137.334 29.8308C135.102 29.8308 133.492 28.6028 133.492 26.3031C133.492 23.2666 135.946 21.8375 141.763 21.2682V20.4198C141.763 18.667 140.73 17.9302 139.098 17.9302C137.578 17.9302 136.079 18.3991 134.668 19.08L134.424 17.4614C135.923 16.8027 137.388 16.345 139.22 16.345C142.074 16.345 143.55 17.6846 143.55 20.3416V29.563H142.195H142.174Z" fill="white"/>
<path d="M147.125 29.5624V10.2378L148.889 9.91406V29.5624H147.125Z" fill="white"/>
</g>
<defs>
<clipPath id="clip0_1637_6046">
<rect width="152" height="40" fill="white"/>
</clipPath>
</defs>
</svg>
