<svg width="143" height="40" viewBox="0 0 143 40" fill="none" xmlns="http://www.w3.org/2000/svg">
<g clip-path="url(#clip0_1637_6594)">
<mask id="mask0_1637_6594" style="mask-type:luminance" maskUnits="userSpaceOnUse" x="0" y="0" width="143" height="40">
<path d="M143 0H0V40H143V0Z" fill="white"/>
</mask>
<g mask="url(#mask0_1637_6594)">
<path d="M8.14658 0.109119C7.74935 0.0720942 7.35099 0.166928 7.01314 0.378941C6.6753 0.590955 6.41682 0.908325 6.27771 1.28193C5.82344 3.18254 5.6141 5.13337 5.65476 7.08701C4.489 6.69301 3.29934 6.3735 2.09298 6.13041C1.61545 6.08569 1.13966 6.23196 0.769878 6.53716C0.4001 6.84236 0.166503 7.28159 0.120287 7.75859C-1.13437 19.6123 7.59903 28.7064 18.2352 32.06V39.9071H21.8418V31.7772C21.8418 28.9314 21.8035 25.1804 21.8035 22.1599C21.8035 16.8528 15.9423 11.6767 9.38921 8.5896C9.27692 7.26322 9.28021 5.9296 9.39905 4.6038C9.40779 4.47276 9.45041 4.18228 9.4985 3.85577C15.233 4.65403 19.4592 8.60489 19.8811 14.7004H23.433C23.4538 14.5577 23.4607 14.4132 23.4538 14.2691C22.9926 5.91311 16.2199 0.359187 8.14658 0.109119ZM18.092 21.8771C14.6296 20.0412 11.9437 17.0223 10.5247 13.3715C14.2111 15.6385 17.41 18.6786 18.092 21.8771ZM17.5707 25.6619C17.7773 25.7692 18.0032 25.8342 18.2352 25.853V28.2413C10.316 25.3245 3.72359 18.9112 3.62195 10.2069C4.42305 10.4526 5.26131 10.7529 6.12361 11.1176C6.80581 14.2493 8.19052 17.1855 10.1734 19.7049C12.1563 22.2243 14.6856 24.2611 17.5707 25.6619ZM42.5643 2.09765C42.5957 1.6238 42.4442 1.15594 42.1409 0.790314C41.8376 0.424693 41.4056 0.189118 40.9337 0.132051C32.1588 -1.03202 26.0549 5.87488 24.5401 13.959C24.4886 14.2053 24.492 14.4599 24.55 14.7048H28.02C28.0749 14.575 28.1152 14.4395 28.1402 14.3008C29.1369 8.99473 33.0364 3.72473 39.0146 3.64065C39.078 7.22132 38.8856 11.3578 37.0911 14.2691C37.0066 14.4059 36.9395 14.5526 36.8911 14.7059H40.9075C42.5982 10.8686 42.7042 6.16208 42.5654 2.10311" fill="white"/>
<path d="M47.392 28.2435V31.4212H52.0499V36.3035C51.698 36.3745 51.2915 36.4357 50.8259 36.4826C50.3603 36.5296 49.9122 36.5514 49.4772 36.5514C47.5013 36.6789 45.5555 36.0175 44.0674 34.7125C43.388 33.971 42.8671 33.0988 42.5368 32.1493C42.2064 31.1998 42.0735 30.1929 42.146 29.1902C42.1228 28.0471 42.3344 26.9113 42.7679 25.8531C43.1535 24.9302 43.7335 24.1012 44.4685 23.4223C45.2076 22.7545 46.0773 22.2469 47.0226 21.9317C48.0513 21.6209 49.1175 21.4512 50.192 21.4272C51.027 21.3791 51.4007 21.3791 51.4007 21.3791L52.7439 21.3649V18.2178L51.4991 18.232C51.4991 18.232 50.8751 18.2156 49.8291 18.2156C48.7128 18.2091 47.5998 18.3374 46.5144 18.5978C45.5234 18.8358 44.568 19.2029 43.6728 19.6898C42.8253 20.1526 42.0478 20.7331 41.3635 21.4141C40.69 22.0855 40.111 22.8452 39.6422 23.6724C39.1624 24.5252 38.8006 25.4392 38.5668 26.3892C38.3188 27.3976 38.1958 28.4326 38.2006 29.4709C38.2006 29.6835 38.2057 29.8935 38.2159 30.101C37.8993 29.6238 37.4964 29.2098 37.028 28.8801C36.3755 28.4316 35.6563 28.0888 34.8968 27.8645C34.0953 27.6214 33.2574 27.4063 32.3831 27.2192C31.8257 27.1049 31.299 26.9811 30.8028 26.8479C30.3423 26.7272 29.8996 26.547 29.4858 26.3117C29.1214 26.1052 28.811 25.8156 28.5798 25.4665C28.3435 25.0738 28.2272 24.6206 28.2454 24.1627C28.2219 23.7617 28.3035 23.3615 28.4822 23.0017C28.6608 22.6418 28.9303 22.3348 29.264 22.1108C30.1537 21.6369 31.1511 21.401 32.1591 21.4261C33.0815 21.3726 34.9908 21.3726 34.9908 21.3726L36.8695 21.3518L36.8782 18.2233L35.0487 18.1829C35.0487 18.1829 32.9263 18.2145 31.8181 18.2145C30.8078 18.2024 29.801 18.3363 28.829 18.612C27.9857 18.8546 27.1985 19.2605 26.512 19.8067C25.8438 20.3519 25.3086 21.042 24.947 21.8247C24.5452 22.7254 24.3488 23.7042 24.3721 24.6901C24.3436 25.5451 24.5138 26.3951 24.8694 27.1733C25.1826 27.814 25.6388 28.3744 26.2027 28.8113C26.7885 29.2541 27.4447 29.5952 28.1437 29.8203C28.9022 30.0704 29.6734 30.28 30.4541 30.4482C31.064 30.5727 31.6469 30.6994 32.2028 30.8282C32.7179 30.9445 33.2197 31.1135 33.7001 31.3327C34.1097 31.5125 34.471 31.7864 34.7547 32.1321C35.0276 32.5018 35.1646 32.9542 35.1427 33.413C35.1615 33.9488 35.0154 34.4774 34.7241 34.9276C34.4411 35.3389 34.0593 35.6727 33.6137 35.8984C33.1226 36.1469 32.5957 36.3175 32.052 36.404C31.4669 36.502 30.8747 36.5509 30.2815 36.5503C29.2476 36.5503 27.2792 36.5427 27.2792 36.5427L24.2891 36.5361L24.2967 39.7619H27.006C27.006 39.7619 29.2017 39.7619 30.3295 39.7619C31.5308 39.7722 32.7291 39.6421 33.9001 39.3742C34.8909 39.1577 35.8315 38.7549 36.6717 38.1872C37.4176 37.6694 38.0221 36.9735 38.4302 36.1627C38.7686 35.468 38.9694 34.7145 39.0214 33.9437C39.464 35.0511 40.1311 36.055 40.981 36.8921C41.972 37.8421 43.1589 38.564 44.4586 39.0073C46.0309 39.5384 47.6834 39.7933 49.3428 39.7608C49.9643 39.7608 50.5905 39.7295 51.2215 39.6669C51.8532 39.6057 52.4674 39.5249 53.0631 39.4266C53.6587 39.3284 54.1975 39.2159 54.6784 39.0925C54.9944 38.9979 55.3025 38.8785 55.5997 38.7354V28.2413L47.392 28.2435Z" fill="white"/>
<path d="M55.2384 18.1587C54.9115 18.1587 54.592 18.2556 54.3202 18.437C54.0485 18.6185 53.8367 18.8764 53.7116 19.1782C53.5866 19.48 53.5539 19.812 53.6178 20.1323C53.6816 20.4526 53.8391 20.7468 54.0703 20.9777C54.3015 21.2086 54.5961 21.3657 54.9167 21.4293C55.2373 21.4929 55.5696 21.46 55.8715 21.3349C56.1735 21.2098 56.4315 20.998 56.6129 20.7263C56.7944 20.4546 56.8911 20.1353 56.8909 19.8087C56.8909 19.5919 56.8481 19.3773 56.7651 19.177C56.682 18.9768 56.5603 18.7948 56.4068 18.6416C56.2534 18.4884 56.0712 18.3668 55.8707 18.284C55.6702 18.2011 55.4554 18.1585 55.2384 18.1587ZM55.2384 21.2938C54.9441 21.294 54.6564 21.207 54.4116 21.0438C54.1668 20.8806 53.976 20.6485 53.8633 20.3769C53.7506 20.1053 53.721 19.8063 53.7784 19.5179C53.8358 19.2295 53.9774 18.9646 54.1855 18.7567C54.3936 18.5488 54.6588 18.4072 54.9474 18.3499C55.236 18.2926 55.5352 18.3221 55.807 18.4347C56.0789 18.5474 56.3112 18.738 56.4745 18.9826C56.6379 19.2272 56.725 19.5147 56.7248 19.8087C56.7248 20.2026 56.5682 20.5803 56.2894 20.8588C56.0107 21.1374 55.6326 21.2938 55.2384 21.2938Z" fill="white"/>
<path d="M55.2413 18.3225C54.9472 18.3225 54.6596 18.4097 54.415 18.573C54.1704 18.7363 53.9797 18.9684 53.8671 19.24C53.7545 19.5115 53.7251 19.8104 53.7825 20.0987C53.8399 20.387 53.9815 20.6518 54.1896 20.8596C54.3976 21.0675 54.6626 21.209 54.9512 21.2664C55.2397 21.3237 55.5388 21.2943 55.8106 21.1818C56.0824 21.0693 56.3147 20.8788 56.4781 20.6344C56.6416 20.39 56.7288 20.1027 56.7288 19.8087C56.7288 19.4146 56.5721 19.0365 56.2931 18.7578C56.0142 18.4791 55.6358 18.3225 55.2413 18.3225Z" fill="white"/>
<path d="M55.2261 18.9942C55.2953 18.994 55.3642 19.0017 55.4316 19.0172C55.4904 19.0286 55.5469 19.0496 55.5988 19.0794V19.2792C55.5399 19.257 55.4797 19.2384 55.4185 19.2235C55.3632 19.2112 55.3068 19.205 55.2502 19.205C55.1893 19.2055 55.1288 19.2154 55.0709 19.2345C55.0119 19.2543 54.9581 19.2871 54.9136 19.3306C54.8645 19.3816 54.8272 19.4427 54.8043 19.5097C54.7729 19.5979 54.7581 19.6912 54.7606 19.7848C54.76 19.8589 54.7711 19.9326 54.7933 20.0032C54.8128 20.0671 54.8447 20.1265 54.8873 20.178C54.9311 20.226 54.9853 20.2633 55.0458 20.2872C55.1149 20.3163 55.1894 20.3304 55.2644 20.3287C55.3253 20.3289 55.3862 20.3227 55.4458 20.3101C55.5068 20.2971 55.5664 20.2784 55.6239 20.2544V20.4564C55.6022 20.469 55.5791 20.4793 55.5551 20.487C55.5246 20.4988 55.4932 20.5079 55.4611 20.5143C55.4251 20.5229 55.3886 20.5294 55.3518 20.534C55.3137 20.5381 55.2754 20.5402 55.2371 20.5405C55.1413 20.5408 55.0461 20.5256 54.9551 20.4957C54.8687 20.4669 54.7896 20.4195 54.7234 20.357C54.6539 20.2909 54.5998 20.2104 54.5649 20.1212C54.5245 20.013 54.5052 19.8981 54.5081 19.7827C54.5069 19.6943 54.5172 19.6062 54.5387 19.5206C54.557 19.4486 54.5853 19.3794 54.6228 19.3153C54.6557 19.2594 54.697 19.209 54.7453 19.1657C54.7914 19.1253 54.8425 19.0908 54.8972 19.063C54.9499 19.038 55.0052 19.019 55.0622 19.0062C55.1168 18.9946 55.1725 18.9888 55.2283 18.9888" fill="white"/>
<path d="M67.5562 38.9286V32.4344H70.2961V36.6266H79.0393V38.9296L67.5562 38.9286ZM76.0153 33.664V19.0247H78.7333V24.7686H81.5093V27.0902H78.7333V33.664H76.0153ZM68.8502 30.8903C68.2064 30.9052 67.5661 30.7906 66.9674 30.5535C66.3687 30.3164 65.8238 29.9616 65.3649 29.51C64.9124 29.0846 64.5531 28.5701 64.3097 27.9989C64.0662 27.4277 63.944 26.8122 63.9507 26.1915C63.9467 25.5261 64.1081 24.8702 64.4207 24.2826C64.6866 23.7788 65.0379 23.3247 65.4589 22.9406H62.8359V20.7052H67.4261V18.5005H70.3398V20.7052H74.8207V22.9384H72.2404C72.6621 23.3239 73.0164 23.7771 73.2885 24.2794C73.6084 24.8649 73.7743 25.5221 73.7705 26.1893C73.7767 26.8112 73.653 27.4276 73.4072 27.999C73.1615 28.5705 72.799 29.0844 72.3431 29.5079C71.8818 29.9593 71.3347 30.3141 70.7341 30.5511C70.1334 30.7882 69.4914 30.9028 68.8458 30.8882M68.8458 23.6165C68.551 23.626 68.2615 23.6973 67.996 23.8258C67.7305 23.9543 67.495 24.1371 67.3048 24.3623C66.8491 24.8265 66.595 25.4516 66.5977 26.1019C66.5974 26.4189 66.6597 26.7328 66.781 27.0257C66.9024 27.3186 67.0804 27.5847 67.3048 27.8087C67.4916 28.0385 67.7274 28.2238 67.9949 28.351C68.2624 28.4783 68.555 28.5443 68.8513 28.5443C69.1476 28.5443 69.4401 28.4783 69.7077 28.351C69.9752 28.2238 70.2109 28.0385 70.3978 27.8087C70.8455 27.3534 71.0956 26.7402 71.0939 26.1019C71.0973 25.4531 70.8471 24.8286 70.3967 24.3613C70.2057 24.1343 69.9688 23.9505 69.7014 23.8219C69.4341 23.6933 69.1424 23.624 68.8458 23.6165Z" fill="white"/>
<path d="M95.7653 39.2562V34.233H86.6112V31.977H91.267V29.3005H83.4844V27.0608H94.8506C95.0699 26.1916 95.2382 25.3103 95.3544 24.4214C95.4794 23.6213 95.5389 22.8124 95.5326 22.0026H86.8079V19.6799H98.3522V19.7673C98.3698 21.005 98.3041 22.2425 98.1555 23.4714C98.0331 24.6786 97.8375 25.8772 97.5697 27.0608H101.851V29.3005H94.1347V31.9813H98.5063V39.2595L95.7653 39.2562Z" fill="white"/>
<path d="M108.932 31.6078H119.868V38.9242H108.932V31.6078ZM117.128 33.8442H111.67V36.6998H117.128V33.8442ZM117.194 30.7866V19.0498H119.91V23.5052H122.665V25.8202H119.91V30.7779L117.194 30.7866ZM103.914 28.4072L104.012 28.3471C104.771 27.8907 105.486 27.3674 106.151 26.7834C106.751 26.2724 107.271 25.6759 107.697 25.0132C108.048 24.4326 108.313 23.8044 108.485 23.1481C108.682 22.4113 108.781 21.6515 108.777 20.8887V19.4691H111.669V21.0372C111.671 21.7522 111.766 22.4638 111.95 23.1546C112.109 23.7889 112.356 24.3979 112.684 24.9641C113.044 25.5317 113.486 26.0435 113.995 26.4831C114.561 26.9777 115.185 27.4022 115.853 27.7476L115.954 27.8L114.373 29.6422L114.31 29.6095C113.803 29.3552 113.317 29.0631 112.854 28.7359C112.45 28.4433 112.068 28.123 111.709 27.7771C111.34 27.4295 110.994 27.0585 110.673 26.6665C110.505 26.4599 110.353 26.2408 110.218 26.0113C110.058 26.2732 109.877 26.5222 109.678 26.7561C109.369 27.1306 109.006 27.5259 108.6 27.9321C108.192 28.3396 107.758 28.7207 107.301 29.0733C106.794 29.4601 106.257 29.8063 105.696 30.1085L105.635 30.1413L103.914 28.4072Z" fill="white"/>
<path d="M133.902 40.001C132.591 40.028 131.318 39.5641 130.333 38.7004C129.87 38.3214 129.497 37.8444 129.24 37.3037C128.984 36.7631 128.851 36.1723 128.851 35.574C128.851 34.9757 128.984 34.3849 129.24 33.8443C129.497 33.3036 129.87 32.8266 130.333 32.4476C131.335 31.6084 132.6 31.1485 133.907 31.1485C135.214 31.1485 136.479 31.6084 137.481 32.4476C137.942 32.8279 138.313 33.3054 138.568 33.8459C138.823 34.3864 138.956 34.9765 138.956 35.574C138.956 36.1715 138.823 36.7616 138.568 37.3021C138.313 37.8426 137.942 38.3201 137.481 38.7004C136.494 39.5677 135.216 40.032 133.902 40.001ZM133.902 33.3594C133.285 33.35 132.688 33.5802 132.238 34.0015C132.015 34.1988 131.837 34.4425 131.717 34.7157C131.597 34.9888 131.539 35.2847 131.545 35.5827C131.542 35.8741 131.6 36.163 131.715 36.4306C131.831 36.6981 132.002 36.9383 132.216 37.1356C132.429 37.3465 132.682 37.513 132.96 37.6255C133.238 37.7379 133.536 37.7941 133.836 37.7908C134.453 37.8007 135.05 37.5704 135.501 37.1487C135.723 36.9542 135.9 36.7138 136.019 36.4442C136.139 36.1745 136.198 35.882 136.193 35.5871C136.197 35.2936 136.14 35.0024 136.026 34.7319C135.912 34.4613 135.744 34.2172 135.531 34.0146C135.318 33.8016 135.063 33.6337 134.783 33.5212C134.503 33.4086 134.203 33.3536 133.902 33.3594ZM124.68 30.3684V28.1342H131.042V24.2674H133.774V28.1342H142.999V30.3684H124.68ZM136.278 27.2661L136.311 27.1503C136.556 26.273 136.738 25.3798 136.858 24.4771C136.993 23.6519 137.06 22.817 137.058 21.9808H127.851V19.6592H139.849V19.7476C139.863 20.9925 139.793 22.2369 139.64 23.4724C139.514 24.7264 139.305 25.9707 139.015 27.1973L138.997 27.2661H136.278Z" fill="white"/>
</g>
</g>
<defs>
<clipPath id="clip0_1637_6594">
<rect width="143" height="40" fill="white"/>
</clipPath>
</defs>
</svg>
