<svg width="263" height="44" viewBox="0 0 263 44" fill="none" xmlns="http://www.w3.org/2000/svg">
<g clip-path="url(#clip0_1637_7087)">
<path d="M76.4488 14.4246H66.0191C61.1473 14.4246 58.9301 17.5781 58.3236 19.8363L54.1875 35.2656H55.7982C58.0253 35.2656 59.6559 34.5892 60.0337 33.3258C60.8987 30.1126 62.6088 23.716 63.4738 20.5028C63.8119 19.2593 65.0746 18.5828 65.9495 18.5828C68.7633 18.5828 73.5953 18.5828 73.5953 18.5828C74.9177 18.5828 76.5483 18.7917 75.8225 21.2489C75.4049 22.7013 74.1024 23.4374 71.9051 23.4374H68.4849C66.2279 23.4374 64.5774 24.1338 64.2295 25.427L63.6429 27.5957H71.0799C75.6634 27.5957 79.7001 26.6308 81.1914 21.0897C82.4442 16.4042 80.237 14.4246 76.4687 14.4246H76.4488Z" fill="white"/>
<path d="M96.5118 13.8376H95.448C89.4327 13.8376 83.4871 17.8268 81.9261 23.6364L81.2798 26.0538C79.7189 31.8634 83.5368 35.8526 89.552 35.8526H90.6159C97.6552 35.8526 102.577 31.8634 104.138 26.0538L104.784 23.6364C106.345 17.8268 102.527 13.8376 96.5118 13.8376ZM99.1466 24.492L98.9179 25.3475C97.7944 29.5256 94.4537 31.8037 91.7096 31.8037H90.6755C87.9314 31.8037 85.7938 29.5356 86.9173 25.3475L87.1459 24.492C88.2595 20.3038 91.6101 18.0456 94.3543 18.0456H95.3883C98.1324 18.0456 100.26 20.3138 99.1466 24.492Z" fill="white"/>
<path d="M33.0788 11.6889H27.9485C25.8605 11.6889 24.1504 12.3952 23.1959 13.2109L10.8075 22.1442C11.8018 18.4436 12.7762 14.8126 13.6113 11.679H10.032C7.81483 11.679 6.1942 12.3554 5.80644 13.5989L0 35.2657H3.56937C5.82633 35.2657 7.47679 34.5693 7.82478 33.2761C8.54064 30.61 9.3261 27.6753 10.1215 24.7108L17.2901 33.674C17.986 34.5494 18.7616 35.2657 21.2969 35.2657H26.7653L17.4193 23.6663L33.0788 11.6889Z" fill="white"/>
<path d="M48.8866 22.572H41.6484C39.6897 22.572 38.7651 22.184 39.2721 20.5028C39.6798 19.0504 40.9226 18.5928 43.11 18.5928H52.2472C54.5041 18.5928 56.1446 17.8964 56.4926 16.6032L57.0693 14.4246H43.9253C39.3417 14.4246 35.2752 15.479 33.8932 20.6719C32.9288 24.2731 34.6886 26.7601 38.7651 26.7402H45.9933C48.0116 26.7402 48.8568 27.1779 48.3397 28.9188C47.9321 30.3712 46.6197 31.0974 44.4224 31.0974H35.1758C32.9189 31.0974 31.2684 31.7938 30.9304 33.087L30.3438 35.2656H43.5972C48.5485 35.2656 52.277 34.0918 53.7087 28.7596C54.8322 24.5516 52.446 22.572 48.8667 22.572H48.8866Z" fill="white"/>
<path d="M115.311 7.66005C114.903 7.4213 114.715 7.4213 114.376 7.77942C113.044 9.22188 110.658 11.9377 109.465 13.3006C111.085 15.6383 112.298 19.3987 111.602 24.2135C111.503 24.5418 111.712 24.7607 112 24.4722C115.033 21.3982 118.423 18.0159 121.465 15.7179C120.252 12.0272 117.588 8.96324 115.311 7.66005Z" fill="white"/>
<path d="M96.4709 6.864C96.3118 6.95353 96.3118 7.19228 96.4709 7.19228C100.786 7.0928 103.659 8.07765 106.046 9.81855C108.77 7.5902 113.373 4.09845 115.62 2.94449C116.505 2.73558 118.086 2.54657 119.16 2.50677C118.225 3.50157 116.913 4.96393 116.167 5.78961C115.978 5.99852 116.167 6.18753 116.386 6.098C122.5 3.69059 130.633 1.84026 137.265 1.36275C122.143 -1.80071 107.497 0.63655 96.4609 6.85405L96.4709 6.864Z" fill="white"/>
<path d="M139.475 1.8999C133.579 2.60621 125.694 5.20264 121.677 7.29172C121.111 7.58021 121.22 7.78912 121.648 7.97813C122.96 8.56506 125.287 10.0075 126.599 12.0469C135.249 6.88385 142.606 4.32721 145.112 3.48163C143.253 2.87481 141.284 2.33761 139.475 1.90985V1.8999Z" fill="white"/>
<path d="M135.386 35.1163H134.372L132.135 38.0609H132.105V35.1163H131.25V41.9009H132.105V38.618H132.135L134.501 41.9009H135.605L132.851 38.3196L135.386 35.1163Z" fill="white"/>
<path d="M137.621 36.8771C136.309 36.8771 135.633 37.8619 135.633 39.4238C135.633 40.9856 136.309 41.9704 137.621 41.9704C138.934 41.9704 139.61 40.9856 139.61 39.4238C139.61 37.8619 138.924 36.8771 137.621 36.8771ZM137.621 41.3039C136.846 41.3039 136.488 40.6673 136.488 39.4238C136.488 38.1803 136.846 37.5336 137.621 37.5336C138.397 37.5336 138.755 38.1703 138.755 39.4238C138.755 40.6772 138.397 41.3039 137.621 41.3039Z" fill="white"/>
<path d="M141.351 37.7228H141.331L141.301 36.9468H140.516C140.526 37.295 140.555 37.6531 140.555 38.0113V41.9009H141.371V39.2747C141.371 38.2003 141.818 37.6531 142.454 37.6531C142.564 37.6531 142.663 37.6531 142.763 37.683V36.8772C142.037 36.8772 141.619 37.1159 141.361 37.7228H141.351Z" fill="white"/>
<path d="M145.1 36.8772C143.867 36.8772 143.191 37.8621 143.191 39.4239C143.191 40.9857 143.867 41.9706 145.18 41.9706C145.677 41.9706 146.174 41.8611 146.572 41.6821L146.532 40.9459C146.254 41.1548 145.806 41.3538 145.399 41.3538C144.494 41.3538 144.046 40.8166 144.046 39.6726H146.84V39.2349C146.84 37.7825 146.214 36.8871 145.1 36.8871V36.8772ZM144.046 39.0459C144.066 37.8919 144.534 37.5039 145.051 37.5039C145.707 37.5039 146.025 38.0113 146.025 39.0459H144.046Z" fill="white"/>
<path d="M151.075 38.5583C151.075 37.852 150.857 37.5535 150.648 37.3446C150.499 37.1855 150.061 36.8771 149.326 36.8771C148.838 36.8771 148.331 37.0163 147.934 37.2849L148.023 38.0509C148.301 37.7426 148.789 37.5336 149.296 37.5336C149.634 37.5336 149.952 37.6232 150.121 37.842C150.28 38.0609 150.31 38.2698 150.31 38.6379V38.8667H149.833C148.132 38.8667 147.496 39.573 147.496 40.5379C147.496 41.5029 148.113 41.9704 148.928 41.9704C149.683 41.9704 150.091 41.6123 150.32 41.2343H150.34L150.389 41.9008H151.125C151.105 41.7218 151.085 41.4333 151.085 41.1448V38.5583H151.075ZM150.3 40.0903C150.3 40.7667 149.852 41.3437 149.147 41.3437C148.58 41.3437 148.311 41.0055 148.311 40.4783C148.311 39.9013 148.769 39.4437 149.723 39.4437C149.942 39.4437 150.151 39.4437 150.3 39.4636V40.0903Z" fill="white"/>
<path d="M156.444 38.0708C155.47 37.5038 155.301 37.2352 155.301 36.7975C155.301 36.2304 155.719 35.7927 156.355 35.7927C156.773 35.7927 157.19 35.9121 157.508 36.1011V35.2754C157.21 35.1461 156.733 35.0466 156.285 35.0466C155.251 35.0466 154.406 35.6336 154.406 36.7477C154.406 37.6232 154.675 38.041 155.898 38.7771C156.812 39.3342 156.952 39.6327 156.952 40.1599C156.952 40.6871 156.514 41.2343 155.748 41.2343C155.351 41.2343 154.844 41.0353 154.456 40.7966V41.6819C154.814 41.861 155.331 41.9704 155.868 41.9704C157.17 41.9704 157.836 41.1249 157.836 40.0405C157.836 39.2646 157.488 38.6677 156.435 38.0708H156.444Z" fill="white"/>
<path d="M160.888 36.8772C160.172 36.8772 159.804 37.2851 159.585 37.673H159.565L159.535 36.9468H158.75C158.76 37.2453 158.79 37.5636 158.79 37.8621V44H159.605V41.2245H159.625C159.953 41.7418 160.321 41.9706 160.888 41.9706C161.912 41.9706 162.598 41.125 162.598 39.4239C162.598 37.7228 161.912 36.8772 160.888 36.8772ZM160.699 41.3041C159.953 41.3041 159.615 40.6674 159.615 39.4239C159.615 38.1804 159.953 37.5338 160.699 37.5338C161.444 37.5338 161.782 38.1704 161.782 39.4239C161.782 40.6773 161.444 41.3041 160.699 41.3041Z" fill="white"/>
<path d="M165.293 36.8771C163.991 36.8771 163.305 37.8619 163.305 39.4238C163.305 40.9856 163.991 41.9704 165.293 41.9704C166.596 41.9704 167.282 40.9856 167.282 39.4238C167.282 37.8619 166.606 36.8771 165.293 36.8771ZM165.293 41.3039C164.518 41.3039 164.16 40.6673 164.16 39.4238C164.16 38.1803 164.518 37.5336 165.293 37.5336C166.069 37.5336 166.427 38.1703 166.427 39.4238C166.427 40.6772 166.069 41.3039 165.293 41.3039Z" fill="white"/>
<path d="M169.011 37.7228H168.991L168.961 36.9468H168.176C168.186 37.295 168.216 37.6531 168.216 38.0113V41.9009H169.031V39.2747C169.031 38.2003 169.478 37.6531 170.105 37.6531C170.214 37.6531 170.313 37.6531 170.413 37.683V36.8772C169.687 36.8772 169.269 37.1159 169.011 37.7228Z" fill="white"/>
<path d="M172.265 35.6932L171.45 35.9419V36.9566H170.664V37.6132H171.45V40.7966C171.45 41.672 171.847 41.9704 172.593 41.9704C172.822 41.9704 173.09 41.9107 173.279 41.8411V41.1746C173.12 41.2442 172.981 41.3039 172.772 41.3039C172.404 41.3039 172.255 41.0851 172.255 40.528V37.6033H173.279V36.9467H172.255V35.6932H172.265Z" fill="white"/>
<path d="M175.652 39.1651L175.364 39.0556C174.817 38.8368 174.528 38.6179 174.528 38.22C174.528 37.8221 174.807 37.5435 175.344 37.5435C175.712 37.5435 176.059 37.643 176.318 37.7624L176.358 37.066C176.069 36.9566 175.721 36.887 175.314 36.887C174.349 36.887 173.723 37.5037 173.723 38.3195C173.723 38.9462 173.982 39.2645 174.697 39.5928L175.234 39.8415C175.692 40.0405 175.861 40.2693 175.861 40.6175C175.861 40.9955 175.542 41.3138 174.916 41.3138C174.508 41.3138 174.121 41.1646 173.753 40.9457L173.703 41.6819C174.061 41.861 174.528 41.9704 175.045 41.9704C176.179 41.9704 176.636 41.284 176.636 40.4284C176.636 39.8216 176.258 39.4138 175.652 39.1651Z" fill="white"/>
<path d="M181.677 35.1165H180.047V41.901H180.902V39.0658H181.479C182.92 39.0658 183.676 38.3695 183.676 37.0464C183.676 36.4495 183.487 35.9819 183.139 35.6536C182.781 35.3154 182.354 35.1264 181.677 35.1264V35.1165ZM181.359 38.3595H180.892V35.8128H181.379C182.254 35.8128 182.781 36.1809 182.781 37.116C182.781 37.8721 182.403 38.3595 181.359 38.3595Z" fill="white"/>
<path d="M185.359 37.7228H185.339L185.309 36.9468H184.523C184.523 37.295 184.563 37.6531 184.563 38.0113V41.9009H185.378V39.2747C185.378 38.2003 185.816 37.6531 186.452 37.6531C186.562 37.6531 186.661 37.6531 186.761 37.683V36.8772C186.025 36.8772 185.607 37.1159 185.359 37.7228Z" fill="white"/>
<path d="M189.176 36.8772C187.864 36.8772 187.188 37.8621 187.188 39.4239C187.188 40.9857 187.874 41.9706 189.176 41.9706C190.478 41.9706 191.165 40.9857 191.165 39.4239C191.165 37.8621 190.488 36.8772 189.176 36.8772ZM189.176 41.3041C188.4 41.3041 188.043 40.6674 188.043 39.4239C188.043 38.1804 188.4 37.5338 189.176 37.5338C189.952 37.5338 190.309 38.1704 190.309 39.4239C190.309 40.6773 189.952 41.3041 189.176 41.3041Z" fill="white"/>
<path d="M196.493 36.8771C195.936 36.8771 195.558 37.1656 195.29 37.653C195.031 37.1457 194.644 36.8771 194.127 36.8771C193.61 36.8771 193.162 37.1158 192.904 37.6829H192.884L192.854 36.9467H192.059C192.069 37.2949 192.098 37.653 192.098 38.0111V41.9008H192.914V38.8368C192.914 37.9415 193.242 37.5734 193.848 37.5734C194.335 37.5734 194.604 37.8619 194.604 38.4986V41.9008H195.419V38.8368C195.419 37.9415 195.747 37.5734 196.354 37.5734C196.841 37.5734 197.109 37.8619 197.109 38.4986V41.9008H197.925V38.4588C197.925 37.3745 197.348 36.8771 196.483 36.8771H196.493Z" fill="white"/>
<path d="M200.867 36.8772C199.555 36.8772 198.879 37.8621 198.879 39.4239C198.879 40.9857 199.565 41.9706 200.867 41.9706C202.17 41.9706 202.856 40.9857 202.856 39.4239C202.856 37.8621 202.18 36.8772 200.867 36.8772ZM200.867 41.3041C200.092 41.3041 199.734 40.6674 199.734 39.4239C199.734 38.1804 200.092 37.5338 200.867 37.5338C201.643 37.5338 202.001 38.1704 202.001 39.4239C202.001 40.6773 201.643 41.3041 200.867 41.3041Z" fill="white"/>
<path d="M204.964 35.6932L204.149 35.9419V36.9566H203.363V37.6132H204.149V40.7966C204.149 41.672 204.546 41.9704 205.292 41.9704C205.511 41.9704 205.789 41.9107 205.978 41.8411V41.1746C205.819 41.2442 205.68 41.3039 205.481 41.3039C205.103 41.3039 204.964 41.0851 204.964 40.528V37.6033H205.978V36.9467H204.964V35.6932Z" fill="white"/>
<path d="M207.61 34.9075H206.715V35.8824H207.61V34.9075Z" fill="white"/>
<path d="M207.557 36.9465H206.742V41.9006H207.557V36.9465Z" fill="white"/>
<path d="M210.574 36.8772C209.262 36.8772 208.586 37.8621 208.586 39.4239C208.586 40.9857 209.272 41.9706 210.574 41.9706C211.877 41.9706 212.563 40.9857 212.563 39.4239C212.563 37.8621 211.887 36.8772 210.574 36.8772ZM210.574 41.3041C209.799 41.3041 209.441 40.6674 209.441 39.4239C209.441 38.1804 209.799 37.5338 210.574 37.5338C211.35 37.5338 211.708 38.1704 211.708 39.4239C211.708 40.6773 211.35 41.3041 210.574 41.3041Z" fill="white"/>
<path d="M215.553 36.8771C214.976 36.8771 214.568 37.1158 214.3 37.6829H214.28L214.25 36.9467H213.465C213.465 37.2949 213.505 37.653 213.505 38.0111V41.9008H214.32V38.9164C214.32 38.0211 214.728 37.5834 215.374 37.5834C215.901 37.5834 216.189 37.9216 216.189 38.7075V41.9008H217.004V38.4588C217.004 37.3745 216.428 36.8771 215.563 36.8771H215.553Z" fill="white"/>
<path d="M220.664 41.901H221.519V38.7574H223.587V38.0113H221.519V35.8626H223.697V35.1165H220.664V41.901Z" fill="white"/>
<path d="M226.031 36.8772C224.719 36.8772 224.043 37.8621 224.043 39.4239C224.043 40.9857 224.729 41.9706 226.031 41.9706C227.334 41.9706 228.02 40.9857 228.02 39.4239C228.02 37.8621 227.334 36.8772 226.031 36.8772ZM226.031 41.3041C225.256 41.3041 224.898 40.6674 224.898 39.4239C224.898 38.1804 225.256 37.5338 226.031 37.5338C226.807 37.5338 227.165 38.1704 227.165 39.4239C227.165 40.6773 226.807 41.3041 226.031 41.3041Z" fill="white"/>
<path d="M232.466 36.9465H231.651V39.9309C231.651 40.8263 231.243 41.2739 230.607 41.2739C230.08 41.2739 229.792 40.9357 229.792 40.1398V36.9465H228.977V40.3885C228.977 41.4729 229.553 41.9703 230.418 41.9703C230.995 41.9703 231.412 41.7216 231.671 41.1645H231.691L231.721 41.9106H232.516C232.496 41.5624 232.476 41.1943 232.476 40.8362V36.9565L232.466 36.9465Z" fill="white"/>
<path d="M235.697 36.8772C235.121 36.8772 234.703 37.116 234.445 37.683H234.425L234.395 36.9468H233.609C233.609 37.295 233.649 37.6531 233.649 38.0113V41.9009H234.464V38.9165C234.464 38.0212 234.872 37.5835 235.508 37.5835C236.035 37.5835 236.324 37.9217 236.324 38.7076V41.9009H237.139V38.4589C237.139 37.3746 236.552 36.8772 235.687 36.8772H235.697Z" fill="white"/>
<path d="M241.888 34.6189H241.063V37.6331H241.043C240.715 37.1059 240.347 36.887 239.78 36.887C238.766 36.887 238.07 37.7227 238.07 39.4337C238.07 41.1448 238.756 41.9804 239.78 41.9804C240.496 41.9804 240.864 41.5726 241.083 41.1846H241.103L241.133 41.9108H241.918C241.908 41.6123 241.888 41.294 241.888 40.9956V34.6288V34.6189ZM239.979 41.304C239.234 41.304 238.896 40.6673 238.896 39.4238C238.896 38.1803 239.234 37.5337 239.979 37.5337C240.725 37.5337 241.063 38.1703 241.063 39.4238C241.063 40.6772 240.725 41.304 239.979 41.304Z" fill="white"/>
<path d="M246.337 38.5584C246.337 37.8521 246.118 37.5537 245.91 37.3448C245.751 37.1856 245.323 36.8772 244.587 36.8772C244.1 36.8772 243.593 37.0165 243.195 37.2851L243.275 38.0511C243.563 37.7427 244.04 37.5338 244.547 37.5338C244.886 37.5338 245.204 37.6233 245.373 37.8422C245.532 38.061 245.562 38.2699 245.562 38.638V38.8668H245.084C243.384 38.8668 242.758 39.5731 242.758 40.5381C242.758 41.503 243.374 41.9706 244.19 41.9706C244.945 41.9706 245.353 41.6124 245.572 41.2344H245.591L245.641 41.9009H246.377C246.357 41.7219 246.337 41.4334 246.337 41.1449V38.5584ZM245.562 40.0904C245.562 40.7669 245.114 41.3439 244.408 41.3439C243.842 41.3439 243.573 41.0056 243.573 40.4784C243.573 39.9014 244.03 39.4438 244.995 39.4438C245.214 39.4438 245.422 39.4438 245.572 39.4637V40.0904H245.562Z" fill="white"/>
<path d="M248.652 35.6932L247.836 35.9419V36.9566H247.051V37.6132H247.836V40.7966C247.836 41.672 248.234 41.9704 248.98 41.9704C249.198 41.9704 249.467 41.9107 249.666 41.8411V41.1746C249.507 41.2442 249.367 41.3039 249.159 41.3039C248.791 41.3039 248.642 41.0851 248.642 40.528V37.6033H249.666V36.9467H248.642V35.6932H248.652Z" fill="white"/>
<path d="M251.257 36.9465H250.441V41.9006H251.257V36.9465Z" fill="white"/>
<path d="M251.297 34.9075H250.402V35.8824H251.297V34.9075Z" fill="white"/>
<path d="M254.27 36.8772C252.957 36.8772 252.281 37.8621 252.281 39.4239C252.281 40.9857 252.957 41.9706 254.27 41.9706C255.582 41.9706 256.258 40.9857 256.258 39.4239C256.258 37.8621 255.582 36.8772 254.27 36.8772ZM254.27 41.3041C253.494 41.3041 253.126 40.6674 253.126 39.4239C253.126 38.1804 253.484 37.5338 254.27 37.5338C255.055 37.5338 255.403 38.1704 255.403 39.4239C255.403 40.6773 255.045 41.3041 254.27 41.3041Z" fill="white"/>
<path d="M259.252 36.8771C258.675 36.8771 258.258 37.1158 257.999 37.6829H257.979L257.95 36.9467H257.164C257.164 37.2949 257.204 37.653 257.204 38.0111V41.9008H258.019V38.9164C258.019 38.0211 258.427 37.5834 259.063 37.5834C259.59 37.5834 259.878 37.9216 259.878 38.7075V41.9008H260.694V38.4588C260.694 37.3745 260.107 36.8771 259.242 36.8771H259.252Z" fill="white"/>
<path d="M178.188 14.6036H175.941V31.8137H178.188V14.6036Z" fill="white"/>
<path d="M172.71 20.4033H170.125V22.0646H172.71V31.8137H174.957V14.6036H172.71V20.4033Z" fill="white"/>
<path d="M168.396 18.8414V18.0356H171.23V16.3743H168.396V14.3748H166.03V16.3743H163.196V18.0356H166.03V18.8414C166.03 22.2735 164.797 24.2531 162.719 26.1034L164.071 27.2276C165.264 26.372 166.736 24.8599 167.213 23.2583C167.68 24.8202 169.162 26.3621 170.355 27.2276L171.707 26.1034C169.629 24.2531 168.396 22.2735 168.396 18.8414Z" fill="white"/>
<path d="M216.957 19.1895C216.957 21.1891 218.757 22.4823 221.431 22.4823C224.106 22.4823 225.905 21.199 225.905 19.1895C225.905 18.4832 225.677 17.8565 225.269 17.3591H227.735V15.6978H222.614V14.1658H220.218V15.6978H215.098V17.3591H217.603C217.196 17.8565 216.967 18.4733 216.967 19.1895H216.957ZM221.431 17.568C222.614 17.568 223.449 18.1947 223.449 19.1796C223.449 20.1644 222.614 20.7911 221.431 20.7911C220.248 20.7911 219.423 20.1644 219.423 19.1796C219.423 18.1947 220.258 17.568 221.431 17.568Z" fill="white"/>
<path d="M229.434 23.0892H213.387V24.7505H229.434V23.0892Z" fill="white"/>
<path d="M221.428 25.407C218.425 25.407 216.477 26.7599 216.477 28.8689C216.477 30.9779 218.425 32.3308 221.428 32.3308C224.431 32.3308 226.379 30.9878 226.379 28.8689C226.379 26.75 224.431 25.407 221.428 25.407ZM221.428 30.6794C219.947 30.6794 218.992 29.9731 218.992 28.8689C218.992 27.7647 219.947 27.0683 221.428 27.0683C222.909 27.0683 223.874 27.7746 223.874 28.8689C223.874 29.9632 222.909 30.6794 221.428 30.6794Z" fill="white"/>
<path d="M188.112 21.5274C191.015 21.5274 192.885 20.0353 192.885 17.6776C192.885 15.3199 191.015 13.8376 188.112 13.8376C185.209 13.8376 183.34 15.3298 183.34 17.6776C183.34 20.0253 185.219 21.5274 188.112 21.5274ZM188.112 15.5487C189.514 15.5487 190.429 16.3744 190.429 17.6776C190.429 18.9808 189.514 19.8164 188.112 19.8164C186.71 19.8164 185.806 18.9808 185.806 17.6776C185.806 16.3744 186.72 15.5487 188.112 15.5487Z" fill="white"/>
<path d="M180.09 24.0541H184.166V25.8746H182.098V27.5359H191.146C191.285 27.5359 191.385 27.6454 191.385 27.7747V31.9827H193.781V27.0286C193.781 26.3919 193.264 25.8746 192.627 25.8746H192.071V24.0541H196.147V22.3928H180.1V24.0541H180.09ZM186.562 24.0541H189.664V25.8746H186.562V24.0541Z" fill="white"/>
<path d="M211.439 14.6038H209.023V26.4319H211.439V14.6038Z" fill="white"/>
<path d="M202.389 21.1594C203.781 23.6962 206.644 24.6512 206.644 24.6512L207.549 23.1291C203.84 21.7165 203.622 17.6577 203.612 16.9614H206.833V15.3H197.945V16.9614H201.156C201.156 17.6577 200.927 21.7165 197.219 23.1291L198.124 24.6512C198.124 24.6512 200.987 23.6862 202.389 21.1594Z" fill="white"/>
<path d="M203.314 29.6348V25.6755H200.898V30.3809C200.898 31.0176 201.415 31.5349 202.052 31.5349H211.736V29.8736H203.553C203.424 29.8736 203.314 29.7642 203.314 29.6348Z" fill="white"/>
<path d="M237.984 24.7307C234.982 24.7307 233.043 26.213 233.043 28.5308C233.043 30.8487 234.982 32.3409 237.984 32.3409C240.987 32.3409 242.936 30.8587 242.936 28.5308C242.936 26.203 240.997 24.7307 237.984 24.7307ZM237.984 30.6796C236.453 30.6796 235.459 29.844 235.459 28.5308C235.459 27.2177 236.453 26.3821 237.984 26.3821C239.516 26.3821 240.51 27.2177 240.51 28.5308C240.51 29.844 239.516 30.6796 237.984 30.6796Z" fill="white"/>
<path d="M243.692 17.409V16.3047C243.692 15.6681 243.175 15.1508 242.538 15.1508H232.347V16.8121H241.037C241.166 16.8121 241.276 16.9215 241.276 17.0508V17.777C241.276 20.2939 240.54 22.174 240.54 22.174H237.706V18.9807H235.31V22.174H229.961V23.8354H246.008V22.174H242.876C242.876 22.174 243.692 20.2441 243.692 17.4189V17.409Z" fill="white"/>
<path d="M260.257 18.7123V14.6038H257.841V20.7218C256.33 21.826 253.526 22.1742 250.722 22.1742H250.116C249.986 22.1742 249.877 22.0648 249.877 21.9354V17.1902C249.877 17.051 249.986 16.9515 250.116 16.9515H255.117V15.2902H248.614C247.978 15.2902 247.461 15.8075 247.461 16.4441V22.6915C247.461 23.3282 247.978 23.8455 248.614 23.8455H249.887C251.567 23.8455 255.813 23.9151 257.841 22.5821V26.4419H260.257V20.3935H263.001V18.7322H260.257V18.7123Z" fill="white"/>
<path d="M252.273 29.635V25.5364H249.887V30.3811C249.887 31.0177 250.404 31.535 251.04 31.535H260.694V29.8737H252.512C252.382 29.8737 252.273 29.7643 252.273 29.635Z" fill="white"/>
<path d="M160.492 14.6038H158.086V26.422H160.492V14.6038Z" fill="white"/>
<path d="M142.546 16.5435V15.7974C142.546 15.1607 142.029 14.6434 141.393 14.6434H131.162V16.3047H139.902C140.031 16.3047 140.14 16.4142 140.14 16.5435V17.1304C140.14 19.2792 139.514 20.9505 139.514 20.9505H128.855V22.6118H135.666V25.3176H131.252V26.979H139.872C140.001 26.979 140.11 27.0884 140.11 27.2177V31.9132H142.517V26.4716C142.517 25.8349 141.999 25.3176 141.363 25.3176H138.072V22.6118H144.903V20.9505H141.85C141.85 20.9505 142.556 19.0603 142.556 16.5534L142.546 16.5435Z" fill="white"/>
<path d="M152.109 29.6351V25.5365H149.703V30.3812C149.703 31.0178 150.22 31.5351 150.856 31.5351H160.799V29.8738H152.358C152.229 29.8738 152.119 29.7743 152.119 29.6351H152.109Z" fill="white"/>
<path d="M155.295 22.2935V15.9964C155.295 15.3597 154.778 14.8424 154.141 14.8424H147.798C147.162 14.8424 146.645 15.3597 146.645 15.9964V22.2935C146.645 22.9301 147.162 23.4474 147.798 23.4474H154.141C154.778 23.4474 155.295 22.9301 155.295 22.2935ZM152.888 21.5474C152.888 21.6767 152.779 21.7861 152.65 21.7861H149.289C149.16 21.7861 149.051 21.6767 149.051 21.5474V16.7425C149.051 16.6132 149.16 16.5037 149.289 16.5037H152.65C152.779 16.5037 152.888 16.6132 152.888 16.7425V21.5474Z" fill="white"/>
</g>
<defs>
<clipPath id="clip0_1637_7087">
<rect width="263" height="44" fill="white"/>
</clipPath>
</defs>
</svg>
