<svg width="270" height="34" viewBox="0 0 270 34" fill="none" xmlns="http://www.w3.org/2000/svg">
<g clip-path="url(#clip0_1637_8258)">
<path d="M187.656 27.6304C187.656 30.3802 189.967 32.6207 192.81 32.6207C195.653 32.6207 197.967 30.3802 197.967 27.6304C197.967 24.8805 195.653 22.64 192.81 22.64C189.967 22.64 187.656 24.8805 187.656 27.6304ZM189.845 27.6304C189.845 26.0796 191.176 24.8219 192.815 24.8219C194.452 24.8219 195.783 26.0796 195.783 27.6304C195.783 29.1812 194.452 30.4344 192.815 30.4344C191.176 30.4344 189.845 29.1766 189.845 27.6304Z" fill="white"/>
<path d="M71.6328 27.6304C71.6328 30.3802 73.9432 32.6207 76.7861 32.6207C79.6289 32.6207 81.9439 30.3802 81.9439 27.6304C81.9439 24.8805 79.6289 22.64 76.7861 22.64C73.9432 22.64 71.6328 24.8805 71.6328 27.6304ZM73.8169 27.6304C73.8169 26.0796 75.148 24.8219 76.7861 24.8219C78.4241 24.8219 79.7553 26.0796 79.7553 27.6304C79.7553 29.1812 78.4241 30.4344 76.7861 30.4344C75.148 30.4344 73.8169 29.1766 73.8169 27.6304Z" fill="white"/>
<path d="M93.1445 27.6304C93.1445 30.3802 95.455 32.6207 98.2978 32.6207C101.141 32.6207 103.456 30.3802 103.456 27.6304C103.456 24.8805 101.141 22.64 98.2978 22.64C95.455 22.64 93.1445 24.8805 93.1445 27.6304ZM95.3286 27.6304C95.3286 26.0796 96.6598 24.8219 98.2978 24.8219C99.9358 24.8219 101.267 26.0796 101.267 27.6304C101.267 29.1812 99.9358 30.4344 98.2978 30.4344C96.6598 30.4344 95.3286 29.1766 95.3286 27.6304Z" fill="white"/>
<path d="M193.917 19.7099V17.6002H201.719V15.4138H186.995V12.8307H201.719V10.6443H182.18V12.8307H184.811V17.6002H191.733V19.7099H181.891V21.8918H203.176V19.7099H193.917Z" fill="white"/>
<path d="M144.882 22.8205H152.683V20.634H137.955V13.9937H152.683V11.8118H133.145V13.9937H135.775V22.8205H142.692H144.882Z" fill="white"/>
<path d="M126.193 10.4278V12.8621H113.125V10.4278H110.941V18.8037H128.377V10.4278H126.193ZM126.193 16.6173H113.125V15.044H126.193V16.6173Z" fill="white"/>
<path d="M142.694 24.736V28.3469H132.852V30.5332H154.142V28.3469H144.882V24.736H142.694Z" fill="white"/>
<path d="M160.594 16.0673C160.594 18.9208 162.904 21.2424 165.751 21.2424C168.598 21.2424 170.905 18.9208 170.905 16.0673C170.905 13.2137 168.589 10.892 165.751 10.892C162.913 10.892 160.594 13.2137 160.594 16.0673ZM162.782 16.0673C162.782 14.4173 164.113 13.0784 165.751 13.0784C167.389 13.0784 168.721 14.4173 168.721 16.0673C168.721 17.7172 167.389 19.0561 165.751 19.0561C164.113 19.0561 162.782 17.7126 162.782 16.0673Z" fill="white"/>
<path d="M180.991 14.6111H176.412V10.2563H174.227V21.1523H176.412V16.7974H180.991V14.6111Z" fill="white"/>
<path d="M108.342 14.6111H103.762V10.2563H101.578V21.1523H103.762V16.7974H108.342V14.6111Z" fill="white"/>
<path d="M93.7986 11.0542H92.2148L85.7891 19.8584L87.5579 21.1476L90.1255 17.6269L91.4116 15.8597L93.0091 13.6778L94.602 15.8597L95.888 17.6269L98.4556 21.1476L100.224 19.8584L93.7986 11.0542Z" fill="white"/>
<path d="M79.9798 10.2563V12.357H76.7578V14.5435H79.9798V16.793H76.7578V18.9749H79.9798V21.1523H82.1683V10.2563H79.9798Z" fill="white"/>
<path d="M72.7601 21.1523H74.9487V11.158H62.7695V13.3399H72.7601V21.1523Z" fill="white"/>
<path d="M162.243 29.0863V23.2123H160.055V31.2682H178.889V29.0863H162.243Z" fill="white"/>
<path d="M250.977 13.8314C250.977 16.5813 253.291 18.8218 256.134 18.8218C258.977 18.8218 261.288 16.5859 261.288 13.8314C261.288 11.077 258.972 8.84106 256.134 8.84106C253.295 8.84106 250.977 11.0816 250.977 13.8314ZM253.16 13.8314C253.16 12.2852 254.491 11.0275 256.129 11.0275C257.767 11.0275 259.098 12.2852 259.098 13.8314C259.098 15.3777 257.767 16.6354 256.129 16.6354C254.491 16.6354 253.16 15.3777 253.16 13.8314Z" fill="white"/>
<path d="M252.626 29.0504V23.8347H250.441V31.2323H269.272V29.0504H252.626Z" fill="white"/>
<path d="M126.215 26.0165V31.2368H128.399V23.8347H110.918V26.0165H126.215Z" fill="white"/>
<path d="M267.001 10.1797V15.621H263.156V17.8029H267.001V24.0826H269.186V10.1797H267.001Z" fill="white"/>
<path d="M263.019 19.7235H248.484V21.9054H255.172V25.5254H257.356V21.9054H263.019V19.7235Z" fill="white"/>
<path d="M129.408 19.7235H109.91V21.9054H118.597V25.0745H120.781V21.9054H129.408V19.7235Z" fill="white"/>
<path d="M205.781 17.0093C205.781 20.3813 208.525 23.1222 211.9 23.1222C215.275 23.1222 218.02 20.3813 218.02 17.0093C218.02 13.6373 215.271 10.8919 211.9 10.8919C208.53 10.8919 205.781 13.6373 205.781 17.0093ZM207.966 17.0093C207.966 14.841 209.73 13.0783 211.9 13.0783C214.071 13.0783 215.836 14.841 215.836 17.0093C215.836 19.1777 214.071 20.9403 211.9 20.9403C209.73 20.9403 207.966 19.1777 207.966 17.0093Z" fill="white"/>
<path d="M221.054 26.5259H204.402V28.7078H221.054V26.5259Z" fill="white"/>
<path d="M225.039 10.2789H222.855V31.1692H225.039V10.2789Z" fill="white"/>
<path d="M227.805 10.5494V12.7357H243.288V15.7156H227.805V22.7797H245.476V20.5978H229.99V17.902H245.476V10.5494H227.805Z" fill="white"/>
<path d="M241.084 28.419V24.6503H238.895V28.419H234.91V24.6503H232.731V28.419H226.477V30.6054H247.185V28.419H241.084Z" fill="white"/>
<path d="M32.4994 20.517C32.4994 20.517 24.1603 13.4484 15.5325 15.6303C15.5325 15.6303 7.06253 17.154 5.58695 29.7224C5.58695 29.7224 4.62579 14.0344 14.7563 11.5911C22.2515 9.7834 29.5844 16.1217 32.5039 20.517H32.4994Z" fill="white"/>
<path d="M0.212723 32.4631C0.212723 32.4631 -2.71137 7.09641 13.1229 1.33065C26.7822 -3.6372 39.0788 6.61857 45.6129 10.5811C52.1469 14.5481 56.1946 9.42256 56.1946 9.42256C56.1946 9.42256 51.3934 20.8189 40.5227 14.1154C40.5227 14.1154 26.9266 3.56664 13.9487 8.46235C13.9487 8.46235 1.68831 13.4257 0.212723 32.454V32.4631Z" fill="white"/>
<path d="M18.2883 28.6761L17.9137 27.8467H16.1132L15.7433 28.6761H15.125L16.6638 25.2186H17.3587L18.9065 28.6761H18.2883ZM17.0203 25.8226L16.3344 27.3508H17.6926L17.0158 25.8226H17.0203Z" fill="white"/>
<path d="M22.0441 28.6759H21.4395V27.2109C21.4395 27.0035 21.3943 26.8501 21.2996 26.7555C21.2048 26.6608 21.0559 26.6112 20.8528 26.6112C20.6498 26.6112 20.4738 26.6743 20.3385 26.8006C20.203 26.9268 20.1354 27.0846 20.1354 27.2784V28.6759H19.5352V26.1829H20.1354V26.4174C20.2482 26.3228 20.3835 26.2416 20.5505 26.174C20.7129 26.1018 20.9205 26.0793 21.1642 26.0974C21.4711 26.1243 21.6922 26.2371 21.8366 26.4309C21.9765 26.6248 22.0487 26.8095 22.0487 26.9854V28.6714L22.0441 28.6759Z" fill="white"/>
<path d="M24.9966 28.6715V28.4372C24.8793 28.5407 24.7484 28.6219 24.595 28.6805C24.4415 28.7392 24.2746 28.7662 24.0896 28.7662C23.688 28.7662 23.3631 28.6399 23.1194 28.3921C22.8757 28.1395 22.7539 27.8195 22.7539 27.4318C22.7539 27.0442 22.8757 26.7151 23.1194 26.4671C23.3631 26.2236 23.688 26.0974 24.0896 26.0974C24.2746 26.0974 24.4415 26.1245 24.595 26.1785C24.7484 26.2327 24.8793 26.3139 24.9966 26.4176V25.2049H25.5923V28.6761H24.9966V28.6715ZM25.0057 27.4318C25.0057 27.1658 24.938 26.954 24.7981 26.8007C24.6582 26.6519 24.4597 26.5753 24.2024 26.5753C23.9452 26.5753 23.7512 26.6519 23.6113 26.8097C23.4713 26.9675 23.4037 27.1749 23.4037 27.4318C23.4037 27.6888 23.4759 27.8961 23.6113 28.054C23.7512 28.2117 23.9497 28.2884 24.2024 28.2884C24.4551 28.2884 24.6582 28.2117 24.7981 28.0629C24.938 27.9097 25.0057 27.7023 25.0057 27.4318Z" fill="white"/>
<path d="M29.2468 27.4271C29.2468 27.8059 29.1159 28.126 28.8587 28.3829C28.6016 28.6398 28.2495 28.7661 27.8028 28.7661C27.356 28.7661 27.0086 28.6398 26.7514 28.3829C26.4942 28.126 26.3633 27.8059 26.3633 27.4271C26.3633 27.0485 26.4942 26.7194 26.7514 26.467C27.0086 26.2145 27.3606 26.0838 27.8028 26.0838C28.245 26.0838 28.6016 26.2101 28.8587 26.467C29.1159 26.7239 29.2468 27.0395 29.2468 27.4271ZM28.6016 27.4271C28.6016 27.1702 28.5293 26.9628 28.3849 26.8051C28.2405 26.6473 28.0465 26.5661 27.8028 26.5661C27.5591 26.5661 27.3651 26.6428 27.2207 26.8051C27.0763 26.9628 27.0041 27.1702 27.0041 27.4271C27.0041 27.6842 27.0763 27.887 27.2207 28.0493C27.3651 28.2116 27.5591 28.2927 27.8028 28.2927C28.0465 28.2927 28.2405 28.2116 28.3849 28.0493C28.5293 27.887 28.6016 27.6796 28.6016 27.4271Z" fill="white"/>
<path d="M32.524 28.6759H31.9193V27.2109C31.9193 27.0035 31.8741 26.8501 31.7794 26.7555C31.6846 26.6608 31.5357 26.6112 31.3372 26.6112C31.1386 26.6112 30.9581 26.6743 30.8227 26.8006C30.6874 26.9268 30.6197 27.0846 30.6197 27.2784V28.6759H30.0195V26.1829H30.6197V26.4174C30.7324 26.3228 30.8679 26.2416 31.0303 26.174C31.1928 26.1018 31.4003 26.0793 31.644 26.0974C31.9508 26.1243 32.1765 26.2371 32.3163 26.4309C32.4562 26.6248 32.5285 26.8095 32.5285 26.9854V28.6714L32.524 28.6759Z" fill="white"/>
<path d="M36.0754 28.4776C36.0754 28.8833 35.931 29.1673 35.6422 29.3251C35.3535 29.4829 35.042 29.5595 34.7171 29.5595C34.302 29.5595 33.9816 29.4694 33.747 29.2936C33.5123 29.1177 33.386 28.9194 33.3679 28.6894H33.9771C33.9816 28.7931 34.0493 28.8879 34.1757 28.978C34.302 29.0636 34.487 29.1087 34.7262 29.1087C34.9654 29.1087 35.1639 29.0546 35.2903 28.9509C35.4211 28.8473 35.4843 28.6939 35.4843 28.5001V28.2026C35.367 28.3062 35.2316 28.3874 35.0781 28.446C34.9247 28.5047 34.7623 28.5317 34.5818 28.5317C34.2027 28.5317 33.8823 28.4145 33.6297 28.1756C33.3725 27.9411 33.2461 27.6436 33.2461 27.292C33.2461 26.9403 33.3725 26.6518 33.6297 26.422C33.8823 26.1965 34.2027 26.0793 34.5862 26.0793C34.7668 26.0793 34.9337 26.1063 35.0916 26.1605C35.2451 26.2146 35.3805 26.2866 35.4933 26.3859V26.1694H36.0889V28.4731L36.0754 28.4776ZM35.4843 27.2964C35.4843 27.0575 35.4076 26.8772 35.2632 26.7465C35.1142 26.6158 34.9202 26.5526 34.6811 26.5526C34.4419 26.5526 34.2478 26.6158 34.099 26.7465C33.9546 26.8727 33.8779 27.0575 33.8779 27.2964C33.8779 27.5355 33.95 27.7202 34.0944 27.8555C34.2389 27.9907 34.4328 28.0584 34.6765 28.0584C34.9202 28.0584 35.1098 27.9907 35.2586 27.8555C35.4076 27.7202 35.4797 27.5309 35.4797 27.2964H35.4843Z" fill="white"/>
<path d="M9.29236 33.9057V31.5797L8.39437 33.9057H7.70847L6.815 31.5886V33.9057H6.21484V30.4482H6.94135L8.05594 33.2296L9.16149 30.4482H9.89252V33.9057H9.29686H9.29236Z" fill="white"/>
<path d="M11.3054 32.8279C11.3235 33.0128 11.4092 33.1751 11.5582 33.3148C11.7116 33.4545 11.8921 33.5266 12.1042 33.5266C12.3027 33.5266 12.4606 33.486 12.5734 33.4049C12.6863 33.3238 12.7584 33.2517 12.7856 33.1795H13.4489C13.3811 33.3643 13.2458 33.5492 13.0427 33.7295C12.8351 33.9053 12.5284 33.9955 12.1177 33.9955C11.707 33.9955 11.346 33.8647 11.0708 33.6078C10.7955 33.3463 10.6602 33.0263 10.6602 32.6476C10.6602 32.2688 10.791 31.9398 11.0573 31.6784C11.3235 31.4169 11.6755 31.2861 12.1132 31.2861C12.4967 31.2861 12.8351 31.4124 13.133 31.6558C13.4308 31.9037 13.5662 32.2914 13.5481 32.8234H11.31L11.3054 32.8279ZM12.8894 32.3861C12.8668 32.2058 12.781 32.057 12.6457 31.9398C12.5058 31.8225 12.3253 31.7639 12.1042 31.7639C11.8831 31.7639 11.7161 31.8227 11.5762 31.9308C11.4363 32.0435 11.3506 32.1968 11.3145 32.3816H12.8894V32.3861Z" fill="white"/>
<path d="M16.3527 33.9051V33.6708C16.2354 33.7745 16.1046 33.8556 15.9511 33.9142C15.7977 33.9728 15.6307 33.9998 15.4457 33.9998C15.0396 33.9998 14.7192 33.8736 14.471 33.6257C14.2273 33.3732 14.1055 33.0531 14.1055 32.6655C14.1055 32.2778 14.2273 31.9487 14.471 31.7007C14.7147 31.4573 15.0396 31.3355 15.4457 31.3355C15.6307 31.3355 15.7977 31.3626 15.9511 31.4167C16.1046 31.4709 16.2354 31.5475 16.3527 31.6512V30.4385H16.9484V33.9097H16.3527V33.9051ZM16.3618 32.661C16.3618 32.3904 16.2941 32.183 16.1542 32.0298C16.0143 31.881 15.8158 31.8044 15.5586 31.8044C15.3013 31.8044 15.1073 31.881 14.9674 32.0389C14.8275 32.1966 14.7598 32.4039 14.7598 32.661C14.7598 32.9179 14.8275 33.1253 14.9674 33.2831C15.1073 33.4408 15.3058 33.5174 15.5586 33.5174C15.8112 33.5174 16.0143 33.4408 16.1542 33.2876C16.2941 33.1343 16.3618 32.927 16.3618 32.6564V32.661Z" fill="white"/>
<path d="M17.9141 30.9572V30.4343H18.5142V30.9572H17.9141ZM17.9141 33.9055V31.3946H18.5142V33.9055H17.9141Z" fill="white"/>
<path d="M22.07 33.0895C22.0022 33.3284 21.8534 33.5358 21.6323 33.7206C21.4112 33.9055 21.1043 33.9956 20.7208 33.9956C20.274 33.9956 19.922 33.8694 19.6648 33.6124C19.4076 33.3555 19.2812 33.0354 19.2812 32.6522C19.2812 32.269 19.4076 31.9445 19.6648 31.6875C19.922 31.4305 20.274 31.3044 20.7208 31.3044C21.1087 31.3044 21.4156 31.4035 21.6503 31.6064C21.8804 31.8047 22.0203 32.0121 22.07 32.2194H21.4156C21.393 32.1293 21.3254 32.0347 21.2171 31.9354C21.1043 31.8362 20.9419 31.7867 20.7297 31.7867C20.4771 31.7867 20.283 31.8678 20.1387 32.0256C19.9987 32.1834 19.9265 32.3953 19.9265 32.6522C19.9265 32.9092 19.9987 33.1075 20.1431 33.2743C20.2875 33.4366 20.4816 33.5178 20.7297 33.5178C20.9193 33.5178 21.0682 33.4726 21.1855 33.3825C21.3028 33.2923 21.3795 33.1932 21.4112 33.0895H22.07Z" fill="white"/>
<path d="M24.7502 33.8964C24.7231 33.8513 24.7005 33.8017 24.6825 33.7521C24.669 33.7025 24.6555 33.6484 24.6555 33.5943C24.5562 33.689 24.4208 33.7747 24.2494 33.8513C24.0778 33.9279 23.8838 33.973 23.6673 33.9865C23.3919 34.0091 23.1438 33.964 22.9317 33.8603C22.7151 33.7521 22.5933 33.5853 22.5616 33.3599C22.5256 33.1255 22.5797 32.9407 22.7197 32.7964C22.8595 32.6567 23.0355 32.5575 23.2521 32.4989C23.4236 32.4493 23.595 32.4223 23.7755 32.4132C23.9516 32.3997 24.114 32.3861 24.2539 32.3681C24.3441 32.3546 24.4344 32.3321 24.5246 32.305C24.6149 32.278 24.6555 32.2194 24.6555 32.1202C24.6555 32.0346 24.6013 31.9534 24.4976 31.8768C24.3938 31.8001 24.2223 31.7595 23.9876 31.7595C23.7529 31.7595 23.5815 31.8046 23.4597 31.8903C23.3378 31.976 23.2881 32.0841 23.3018 32.2058H22.7061C22.6835 31.9263 22.8008 31.71 23.0581 31.5522C23.3153 31.3943 23.6221 31.3132 23.9831 31.3132C24.3441 31.3132 24.6238 31.3854 24.8811 31.5297C25.1383 31.6739 25.2691 31.8768 25.2691 32.1427V33.4861C25.2691 33.5898 25.2827 33.6845 25.3188 33.7611C25.3504 33.8422 25.3684 33.8873 25.3684 33.8919H24.7502V33.8964ZM24.6555 32.6612C24.6284 32.6837 24.5878 32.7018 24.5337 32.7152C24.4794 32.7287 24.4253 32.7468 24.3712 32.7604C24.2583 32.7829 24.1185 32.8009 23.9516 32.8235C23.7846 32.8415 23.6627 32.8641 23.5815 32.8866C23.4462 32.9226 23.3378 32.9722 23.2657 33.0308C23.1889 33.0894 23.1663 33.175 23.1889 33.2833C23.216 33.3959 23.2927 33.4636 23.4236 33.4951C23.5499 33.5222 23.6808 33.5267 23.8072 33.5132C24.0643 33.4816 24.2719 33.405 24.4253 33.2787C24.5788 33.1525 24.6555 33.0353 24.6555 32.9227V32.6612Z" fill="white"/>
<path d="M26.1719 33.9055V30.4343H26.7721V33.9055H26.1719Z" fill="white"/>
<path d="M33.4915 32.7739C33.4238 33.0579 33.2523 33.3284 32.9816 33.5944C32.7108 33.8603 32.3137 33.9911 31.7992 33.9911C31.2397 33.9911 30.802 33.8242 30.4861 33.4862C30.1657 33.1525 30.0078 32.7153 30.0078 32.1789C30.0078 31.6423 30.1657 31.2051 30.4861 30.8714C30.8066 30.5424 31.2443 30.3756 31.7992 30.3756C32.3272 30.3756 32.7244 30.5064 32.9951 30.7679C33.2658 31.0293 33.4283 31.2772 33.4915 31.5162H32.8326C32.7785 31.3583 32.6701 31.2096 32.5168 31.0699C32.3634 30.9302 32.1241 30.858 31.8038 30.858C31.4428 30.858 31.163 30.9751 30.9554 31.214C30.7478 31.4531 30.6486 31.7731 30.6486 32.1789C30.6486 32.5846 30.7524 32.9001 30.9554 33.1436C31.163 33.3915 31.4428 33.5132 31.8038 33.5132C32.1152 33.5132 32.3498 33.4365 32.5122 33.2788C32.6747 33.1255 32.783 32.9542 32.8417 32.7693H33.4959L33.4915 32.7739Z" fill="white"/>
<path d="M34.6733 32.8279C34.6913 33.0128 34.7725 33.1751 34.9259 33.3148C35.0794 33.4545 35.2599 33.5266 35.4719 33.5266C35.6706 33.5266 35.8285 33.486 35.9412 33.4049C36.0541 33.3238 36.1263 33.2517 36.1534 33.1795H36.8167C36.749 33.3643 36.6136 33.5492 36.4106 33.7295C36.203 33.9053 35.8961 33.9955 35.4855 33.9955C35.0748 33.9955 34.7139 33.8647 34.4386 33.6078C34.1633 33.3463 34.0234 33.0263 34.0234 32.6476C34.0234 32.2688 34.1544 31.9398 34.4205 31.6784C34.6868 31.4169 35.0388 31.2861 35.4764 31.2861C35.86 31.2861 36.1984 31.4124 36.4963 31.6558C36.7941 31.9037 36.9295 32.2914 36.9114 32.8234H34.6733V32.8279ZM36.2572 32.3861C36.2346 32.2058 36.1488 32.057 36.009 31.9398C35.8691 31.8225 35.6886 31.7639 35.4719 31.7639C35.2553 31.7639 35.0839 31.8227 34.944 31.9308C34.8041 32.0435 34.7184 32.1968 34.6822 32.3816H36.2572V32.3861Z" fill="white"/>
<path d="M40.1886 33.9054H39.584V32.4402C39.584 32.2328 39.5344 32.0796 39.4396 31.9849C39.3448 31.8902 39.1959 31.8407 38.9974 31.8407C38.7988 31.8407 38.6138 31.9038 38.483 32.03C38.3475 32.1562 38.2799 32.3139 38.2799 32.5033V33.9054H37.6797V31.4124H38.2799V31.6468C38.3927 31.5521 38.528 31.471 38.695 31.4034C38.8575 31.3312 39.0651 31.3087 39.3088 31.3312C39.6156 31.3583 39.8412 31.471 39.981 31.6649C40.121 31.8587 40.1932 32.0435 40.1932 32.2193V33.9054H40.1886Z" fill="white"/>
<path d="M41.8007 33.9056C41.6924 33.9056 41.5977 33.8876 41.521 33.847C41.4397 33.811 41.372 33.7613 41.3134 33.7073C41.2592 33.6487 41.2186 33.581 41.1915 33.5134C41.1689 33.4413 41.1554 33.3421 41.1554 33.2159V31.868H40.8125V31.4171H41.1554V30.6508H41.7692V31.4126H42.1708V31.868H41.7692V33.1438C41.7692 33.2069 41.7692 33.2564 41.7781 33.2881C41.7827 33.3241 41.8053 33.3601 41.8504 33.3962C41.8954 33.4233 41.9451 33.4413 42.0038 33.4458C42.0624 33.4503 42.1166 33.4502 42.1753 33.4502V33.9011H41.8053L41.8007 33.9056Z" fill="white"/>
<path d="M43.4272 32.8279C43.4452 33.0128 43.531 33.1751 43.6798 33.3148C43.8333 33.4545 44.0138 33.5266 44.2258 33.5266C44.4243 33.5266 44.5824 33.486 44.6951 33.4049C44.8079 33.3238 44.8802 33.2517 44.9072 33.1795H45.5706C45.5029 33.3643 45.3675 33.5492 45.1645 33.7295C44.9569 33.9053 44.65 33.9955 44.2393 33.9955C43.8288 33.9955 43.4678 33.8647 43.1924 33.6078C42.9172 33.3463 42.7773 33.0263 42.7773 32.6476C42.7773 32.2688 42.9127 31.9398 43.1744 31.6784C43.4407 31.4169 43.7927 31.2861 44.2304 31.2861C44.6139 31.2861 44.9523 31.4124 45.2501 31.6558C45.548 31.9037 45.6834 32.2914 45.6608 32.8234H43.4226L43.4272 32.8279ZM45.011 32.3861C44.9884 32.2058 44.9072 32.057 44.7629 31.9398C44.6229 31.8225 44.4469 31.7639 44.2258 31.7639C44.0047 31.7639 43.8377 31.8227 43.6978 31.9308C43.558 32.0435 43.4722 32.1968 43.4361 32.3816H45.011V32.3861Z" fill="white"/>
<path d="M47.9685 31.8405C47.8783 31.8405 47.7925 31.8495 47.7067 31.8586C47.6255 31.8676 47.5488 31.8946 47.4767 31.9352C47.3323 32.0028 47.2239 32.0975 47.1472 32.2237C47.0705 32.35 47.0299 32.5167 47.0299 32.7241V33.9053H46.4297V31.4077H47.0299V31.7234C47.0975 31.6422 47.1653 31.5791 47.2374 31.5205C47.3097 31.4663 47.4044 31.4123 47.5217 31.3672C47.6029 31.3402 47.6932 31.3222 47.797 31.3131C47.9008 31.3041 47.9595 31.2996 47.9639 31.2951V31.8315L47.9685 31.8405Z" fill="white"/>
</g>
<defs>
<clipPath id="clip0_1637_8258">
<rect width="270" height="34" fill="white"/>
</clipPath>
</defs>
</svg>
