<svg width="186" height="24" viewBox="0 0 186 24" fill="none" xmlns="http://www.w3.org/2000/svg">
<g clip-path="url(#clip0_1637_6770)">
<path d="M41.6533 18.4222V0.430176H35.3438V18.4222V23.5745H40.5819H59.1671V18.4222H41.6533Z" fill="white"/>
<path d="M185.998 0.430176H175.073H169.835H158.91V5.57794H169.295V23.5745H175.609V5.57794H185.998V0.430176Z" fill="white"/>
<path d="M28.8785 1.48255C24.8283 0.514871 20.68 0.0173965 16.5157 0C9.75742 0 0 2.31077 0 11.746C0 20.8976 8.95155 24 15.8884 24C22.8253 24 31.4564 21.8906 31.4564 13.5123V9.97979H15.5084V14.7661H25.1834C25.1834 14.7661 24.7988 18.9255 15.9296 18.9255C6.8682 18.9255 6.82699 13.0364 6.82699 11.746C6.82699 10.625 6.97351 5.07455 16.5524 5.07455C20.7082 5.08602 24.8473 5.6023 28.8785 6.61201V1.48255Z" fill="white"/>
<path d="M155.482 5.47727V0.430176H135.793H130.555V5.47727V9.47651V14.5282V18.5228V23.5745H136.869H155.482V18.5228H136.869V14.5282H154.777V9.47651H136.869V5.47727H155.482Z" fill="white"/>
<path d="M77.0992 0C68.285 0 61.5312 4.32412 61.5312 12.0023C61.5312 20.4492 68.2988 24 77.0992 24C85.8997 24 92.6671 20.4492 92.6671 12.0023C92.6671 4.32412 85.8997 0 77.0992 0ZM77.0992 19.049C72.0625 19.049 68.1476 16.9624 68.1476 12.0023C68.1476 7.49056 72.0396 4.95558 77.0992 4.95558C82.1588 4.95558 86.0508 7.49056 86.0508 12.0023C86.0508 16.9624 82.1634 19.049 77.0992 19.049Z" fill="white"/>
<path d="M118.589 0.429869V15.8228L105.31 3.01061C103.314 1.08878 101.794 0.425293 98.8041 0.425293H96.3086V23.5742H102.623V8.04398L115.984 21.0301C117.957 22.9244 119.473 23.5788 122.444 23.5788H124.917V0.429869H118.589Z" fill="white"/>
</g>
<defs>
<clipPath id="clip0_1637_6770">
<rect width="186" height="24" fill="white"/>
</clipPath>
</defs>
</svg>
