<svg xmlns="http://www.w3.org/2000/svg" width="118" height="28" viewBox="0 0 118 28" fill="none">
  <path d="M42.0961 0.895996V5.5063H37.8741V0.895996H35.5747V12.18H37.8773V7.49861H42.0994V12.18H44.3998V0.895996H42.0961Z" fill="#131416"/>
  <mask id="mask0_931_909" style="mask-type:luminance" maskUnits="userSpaceOnUse" x="0" y="0" width="118" height="28">
    <path d="M118 0H0V28H118V0Z" fill="white"/>
  </mask>
  <g mask="url(#mask0_931_909)">
    <path d="M54.6756 10.7898C54.2207 11.2868 53.6546 11.6702 53.023 11.9089C52.3914 12.1476 51.7122 12.235 51.0403 12.1639C50.3685 12.2352 49.6892 12.1479 49.0576 11.9091C48.4259 11.6704 47.8598 11.2869 47.4051 10.7898C46.6004 9.4994 46.2302 7.9874 46.3485 6.47346C46.2356 4.94564 46.605 3.42089 47.4051 2.11192C47.8508 1.6003 48.4142 1.20345 49.0474 0.955184C49.6805 0.706917 50.3646 0.614592 51.0414 0.686076C51.718 0.614771 52.4019 0.707184 53.0348 0.955445C53.6678 1.20371 54.2311 1.60046 54.6767 2.11192C55.4767 3.42089 55.8461 4.94564 55.7333 6.47346C55.8515 7.9874 55.4803 9.4994 54.6756 10.7898ZM49.2021 9.34992C49.3977 9.64989 49.6736 9.88951 49.9988 10.0417C50.324 10.194 50.6855 10.2528 51.0425 10.2115C51.3995 10.2528 51.761 10.194 52.0862 10.0417C52.4113 9.88951 52.6873 9.64989 52.8829 9.34992C53.2742 8.44703 53.4424 7.46399 53.3733 6.48315C53.4377 5.48173 53.2653 4.47922 52.8699 3.55608C52.6574 3.27286 52.3815 3.04289 52.0639 2.88447C51.7464 2.72605 51.3961 2.64355 51.0409 2.64355C50.6856 2.64355 50.3353 2.72605 50.0178 2.88447C49.7003 3.04289 49.4243 3.27286 49.2119 3.55608C48.8182 4.4801 48.6466 5.48269 48.7106 6.48423C48.6417 7.46516 48.8103 8.44824 49.2021 9.351" fill="#131416"/>
    <path d="M57.6968 11.9721V0.881958H61.6059L63.6022 8.9718L65.5984 0.881958H69.5076V11.9743H67.2115V3.39334H66.9625L64.7497 11.481H62.4547L60.2419 3.39334H59.9918V11.971L57.6968 11.9721Z" fill="#131416"/>
    <path d="M71.9666 11.9721V0.881958H79.2858V2.83334H74.2627V5.42765H78.2888V7.35642H74.2627V10.0143H79.2869V11.9721H71.9666Z" fill="#131416"/>
    <path d="M85.3418 8.74242H83.4777V11.9732H81.1826V0.881958H85.3418C88.0259 0.881958 89.3679 2.16493 89.3679 4.73088C89.4045 5.2695 89.3327 5.80996 89.1569 6.32067C88.981 6.83139 88.7046 7.30212 88.3438 7.70534C87.9404 8.07194 87.4663 8.35295 86.9501 8.53126C86.434 8.70956 85.8868 8.78141 85.3418 8.74242ZM83.4777 6.81796H85.3299C86.472 6.81796 87.0436 6.12657 87.0436 4.73411C87.0932 4.20761 86.9447 3.68154 86.6269 3.25765C86.4544 3.09587 86.2495 2.97223 86.0256 2.89483C85.8017 2.81743 85.5639 2.78804 85.3278 2.80857H83.4777V6.81796Z" fill="#131416"/>
    <path d="M89.7153 11.9721L92.2637 0.881958H96.6221L99.1672 11.9743H96.8679L96.4175 9.96688H92.4618L92.0136 11.9743L89.7153 11.9721ZM94.0456 2.73965L92.8938 8.00257H95.9888L94.8413 2.7375L94.0456 2.73965Z" fill="#131416"/>
    <path d="M105.222 7.99086V6.03302H108.516V11.7892C107.241 12.0118 105.951 12.1375 104.657 12.165C102.892 12.165 101.68 11.7034 101.021 10.7801C100.258 9.44309 99.9142 7.91026 100.032 6.37763C99.9044 4.8544 100.265 3.33003 101.063 2.02363C101.501 1.54212 102.048 1.17018 102.658 0.937977C103.268 0.705776 103.924 0.619852 104.574 0.687171C105.696 0.696982 106.816 0.811639 107.917 1.02963L108.517 1.13733L108.45 2.8884C107.365 2.76007 106.273 2.68818 105.18 2.67302C104.57 2.62977 103.958 2.72974 103.394 2.96486C103.009 3.21578 102.737 3.60585 102.636 4.05256C102.438 4.93976 102.357 5.84877 102.396 6.75671C102.323 7.67799 102.489 8.6024 102.878 9.44148C103.118 9.72828 103.427 9.94927 103.776 10.0833C104.126 10.2174 104.504 10.26 104.875 10.2072L106.256 10.1426V7.98871L105.222 7.99086Z" fill="#131416"/>
    <path d="M110.68 11.9721V0.881958H117.999V2.83334H112.975V5.42765H117.001V7.35642H112.975V10.0143H117.999V11.9721H110.68Z" fill="#131416"/>
    <path d="M37.8778 27.3409H35.5828V16.2561H37.8778V21.1302L39.4086 20.9644L41.2727 16.255H43.8839L41.4221 21.8162L43.9499 27.3409H41.3041L39.4086 22.9255L37.8778 23.0881V27.3409Z" fill="#131416"/>
    <path d="M53.16 26.154C52.706 26.6526 52.14 27.0375 51.5081 27.2773C50.8761 27.517 50.1962 27.6048 49.5237 27.5335C48.8515 27.6048 48.1719 27.517 47.5403 27.2773C46.9087 27.0375 46.3431 26.6526 45.8895 26.154C45.0858 24.8664 44.716 23.3573 44.834 21.8463C44.7213 20.3186 45.0903 18.794 45.8895 17.4847C46.3349 16.9729 46.8981 16.5757 47.531 16.3271C48.164 16.0784 48.848 15.9857 49.5248 16.0567C50.2017 15.9855 50.8859 16.0782 51.5191 16.3268C52.1523 16.5755 52.7156 16.9727 53.1611 17.4847C53.9603 18.794 54.3293 20.3186 54.2166 21.8463C54.3346 23.3573 53.9637 24.8664 53.16 26.154ZM47.6855 24.7195C47.8814 25.0191 48.1574 25.2585 48.4825 25.4106C48.8076 25.5628 49.1689 25.6218 49.5259 25.5811C49.8828 25.6218 50.2441 25.5628 50.5692 25.4106C50.8943 25.2585 51.1703 25.0191 51.3662 24.7195C51.7581 23.8168 51.9263 22.8336 51.8566 21.8527C51.9223 20.8512 51.751 19.8483 51.3565 18.9246C51.1439 18.6412 50.8678 18.411 50.5501 18.2525C50.2324 18.0939 49.8818 18.0113 49.5264 18.0113C49.1709 18.0113 48.8204 18.0939 48.5027 18.2525C48.185 18.411 47.9088 18.6412 47.6963 18.9246C47.3024 19.8485 47.1311 20.8513 47.1962 21.8527C47.127 22.8336 47.2941 23.8166 47.6855 24.7195Z" fill="#131416"/>
    <path d="M58.4767 23.6223V27.3398H56.1794V16.2561H60.5725C63.2327 16.2561 64.5632 17.4737 64.5639 19.909C64.6038 20.5413 64.47 21.1725 64.1769 21.735C63.8838 22.2975 63.4424 22.7701 62.9 23.1021L64.5141 27.3409H62.0026L60.6894 23.6223H58.4767ZM61.8207 21.211C62.1015 20.8399 62.2425 20.3826 62.2191 19.9187C62.2444 19.4563 62.0919 19.0016 61.7926 18.6469C61.6368 18.4835 61.4467 18.3563 61.2357 18.2746C61.0248 18.1929 60.7983 18.1585 60.5725 18.1741H58.4767V21.6946H60.6061C60.8327 21.7116 61.0602 21.6764 61.2709 21.5916C61.4816 21.5068 61.6698 21.3747 61.8207 21.2056" fill="#131416"/>
    <path d="M66.4929 27.3407V16.256H73.8132V18.216H68.788V20.8006H72.813V22.7283H68.788V25.3883H73.8132V27.3407H66.4929Z" fill="#131416"/>
    <path d="M74.7625 27.3407L77.3076 16.256H81.666L84.2122 27.3407H81.9161L81.4657 25.3377H77.5068L77.0586 27.3407H74.7625ZM79.0927 18.1137L77.9452 23.3788H81.0381L79.8862 18.1083L79.0927 18.1137Z" fill="#131416"/>
    <path d="M0 5.3665V22.6371C0.0111555 24.0703 0.59403 25.4403 1.62045 26.4461C2.64687 27.4518 4.0328 28.0108 5.47347 28.0002C6.91443 28.0111 8.30074 27.4522 9.32757 26.4465C10.3544 25.4408 10.9377 24.0706 10.9491 22.6371V20.8796H10.9415C10.9323 20.5782 10.8055 20.2923 10.5879 20.0824C10.3704 19.8725 10.0792 19.7551 9.77614 19.7551C9.47307 19.7551 9.1819 19.8725 8.96436 20.0824C8.74682 20.2923 8.61999 20.5782 8.61075 20.8796V20.8925V20.9033V22.6371C8.5955 23.4535 8.25877 24.2314 7.67299 24.8034C7.08721 25.3753 6.29917 25.6958 5.47834 25.6958C4.65751 25.6958 3.86947 25.3753 3.28369 24.8034C2.69791 24.2314 2.36118 23.4535 2.34593 22.6371V5.3665C2.3674 4.5541 2.7069 3.78216 3.2921 3.21511C3.8773 2.64807 4.66195 2.33074 5.47888 2.33074C6.29582 2.33074 7.08046 2.64807 7.66566 3.21511C8.25087 3.78216 8.59037 4.5541 8.61184 5.3665V12.3999L8.62591 12.8727V14.3082C8.63764 15.7415 9.22099 17.1116 10.2478 18.1173C11.2745 19.1229 12.6607 19.6819 14.1015 19.6713C14.8741 19.6737 15.6369 19.5002 16.3316 19.164L16.3143 16.4825C16.1785 16.6155 16.0311 16.7363 15.8737 16.8433C15.3504 17.1951 14.7331 17.3826 14.1015 17.3817C13.2776 17.3878 12.485 17.0681 11.8979 16.4929C11.3108 15.9178 10.9773 15.1343 10.9708 14.3147V12.836L10.9556 12.36V5.3665C10.9501 4.65599 10.8039 3.95353 10.5253 3.29925C10.2468 2.64497 9.84139 2.0517 9.33228 1.55335C8.82317 1.055 8.22034 0.661322 7.55822 0.394824C6.89611 0.128326 6.1877 -0.00577303 5.47347 0.00019051C4.03241 -0.00984335 2.64633 0.549804 1.61994 1.5561C0.59355 2.56239 0.0108712 3.93296 0 5.3665Z" fill="#131416"/>
    <path d="M23.7276 -7.98438e-05C22.2865 -0.0103998 20.9003 0.549155 19.8738 1.55551C18.8474 2.56187 18.2648 3.9326 18.2542 5.36623V7.12377C18.2671 7.42273 18.3956 7.70517 18.6129 7.91216C18.8301 8.11915 19.1193 8.2347 19.4201 8.2347C19.7209 8.2347 20.0101 8.11915 20.2273 7.91216C20.4446 7.70517 20.5731 7.42273 20.586 7.12377V7.10761V7.09684V5.36623C20.6075 4.55383 20.947 3.78189 21.5322 3.21484C22.1174 2.6478 22.9021 2.33047 23.719 2.33047C24.5359 2.33047 25.3206 2.6478 25.9058 3.21484C26.491 3.78189 26.8305 4.55383 26.8519 5.36623V22.6336C26.8305 23.446 26.491 24.218 25.9058 24.785C25.3206 25.352 24.5359 25.6694 23.719 25.6694C22.9021 25.6694 22.1174 25.352 21.5322 24.785C20.947 24.218 20.6075 23.446 20.586 22.6336V15.6024L20.572 15.1296V13.6952C20.5608 12.2622 19.9785 10.8921 18.9529 9.88584C17.9273 8.87953 16.5422 8.31916 15.1017 8.32777C14.3304 8.32795 13.5692 8.50289 12.876 8.8393L12.8901 11.523C13.0275 11.3905 13.176 11.2698 13.3339 11.1622C13.8573 10.8115 14.4739 10.624 15.105 10.6238C15.9301 10.618 16.7238 10.9382 17.3118 11.5141C17.8998 12.0899 18.234 12.8744 18.2412 13.6952V15.1695L18.2585 15.6422V22.6336C18.2787 24.0643 18.8642 25.4296 19.8884 26.4342C20.9126 27.4388 22.2931 28.002 23.7314 28.002C25.1698 28.002 26.5503 27.4388 27.5745 26.4342C28.5986 25.4296 29.1841 24.0643 29.2044 22.6336V5.36623C29.1991 4.65609 29.0533 3.95394 28.7752 3.29989C28.4971 2.64584 28.0922 2.0527 27.5836 1.55436C27.075 1.05602 26.4727 0.662245 25.8111 0.395529C25.1495 0.128814 24.4415 -0.0056161 23.7276 -7.98438e-05Z" fill="#131416"/>
  </g>
</svg>