<svg width="159" height="34" viewBox="0 0 159 34" fill="none" xmlns="http://www.w3.org/2000/svg">
<g clip-path="url(#clip0_1637_6153)">
<path d="M70.0612 25.7335C65.6502 25.7335 62.0752 21.8235 62.0752 16.9959C62.0752 12.1682 65.6502 8.2582 70.0612 8.2582C72.6266 8.2582 75.1507 9.42378 76.6651 11.4491L83.3436 5.7948C80.1078 2.24021 75.3576 0 70.0694 0C61.5869 0 54.4947 5.76173 52.7982 13.4495H43.0991V20.8563H49.8024V23.7413C48.1886 25.1549 45.7059 25.7335 43.5377 25.7335C39.1268 25.7335 35.5517 21.8235 35.5517 16.9959C35.5517 12.1682 39.0854 8.39047 43.695 8.2582C46.3928 8.18381 48.8838 8.72939 50.9279 9.90323C51.9375 7.33236 53.4768 5.00948 55.4464 3.09166C52.0202 1.07464 47.6507 0 43.5377 0C34.509 0 27.0692 6.52224 26.0099 14.9375C23.8996 14.053 21.2679 13.4247 18.2142 12.9205C13.1661 12.036 11.8503 11.4243 11.8503 9.91977V9.82883C11.8503 8.655 13.1082 7.80355 15.5578 7.72915C18.3632 7.64649 21.4831 8.3078 24.4375 9.80403C25.4389 7.35716 26.9947 5.04255 28.9395 3.10819C25.3561 1.03331 21.1521 -0.123997 15.8143 0.0413324C7.07521 0.305859 1.37329 4.53003 1.37329 11.0771C1.37329 17.6241 7.70416 19.6246 15.4584 20.9886C20.4073 21.8731 21.4004 22.5675 21.4004 23.948C21.4004 25.1135 20.0514 25.7501 17.4529 25.9567C13.2571 26.2791 8.74689 25.2375 5.62698 22.8403L0.0078125 29.0649C4.48494 32.5451 10.6255 34.1901 17.0805 33.9917C23.072 33.8099 27.243 31.5945 30.2884 28.2217C33.5242 31.7598 38.2661 34 43.546 34C48.8258 34 53.5761 31.7598 56.8118 28.2135C60.0476 31.7598 64.7896 34 70.0777 34C75.3658 34 80.1161 31.7598 83.3518 28.2052L76.6817 22.5757C75.0431 24.4522 72.6349 25.7335 70.0777 25.7335H70.0612Z" fill="white"/>
<path d="M108.659 23.824C108.593 23.8901 108.535 23.9232 108.469 23.9232H92.1164C92.0419 23.9232 91.9757 23.8901 91.926 23.824C91.8764 23.7578 91.8516 23.6917 91.8516 23.6256V22.3195C91.8516 22.2368 91.8764 22.1707 91.926 22.1128C91.9757 22.0549 92.0336 22.0219 92.1164 22.0219H103.437C103.636 20.8398 103.793 19.4262 103.901 17.7894C104.008 16.1527 104.058 14.1935 104.058 12.3253C104.058 12.1021 104.033 11.9368 103.984 11.8376C103.934 11.7384 103.802 11.6888 103.586 11.6888H94.4998C94.4418 11.6888 94.3839 11.6557 94.326 11.5978C94.2763 11.54 94.2515 11.4739 94.2515 11.4077V10.1016C94.2515 10.0355 94.2763 9.96935 94.326 9.91149C94.3756 9.85362 94.4336 9.82056 94.4998 9.82056H104.96C105.515 9.82056 105.862 9.96935 106.019 10.2669C106.177 10.5645 106.251 10.9531 106.251 11.4408C106.251 13.2015 106.202 15.1524 106.111 16.8801C106.019 18.5995 105.829 20.3107 105.556 22.0136H108.461C108.527 22.0136 108.585 22.0467 108.651 22.1128C108.709 22.1789 108.742 22.2451 108.742 22.3112V23.6173C108.742 23.6834 108.709 23.7496 108.651 23.8157L108.659 23.824Z" fill="white"/>
<path d="M120.494 19.2361C120.419 19.3022 120.353 19.3436 120.295 19.3518C119.807 19.4676 119.211 19.575 118.508 19.6577C117.804 19.7404 117.068 19.8148 116.298 19.8726C115.52 19.9305 114.742 19.9718 113.964 19.9884C113.178 20.0049 112.466 19.9884 111.813 19.9553C111.324 19.9305 110.993 19.823 110.82 19.6412C110.646 19.4593 110.555 19.1534 110.555 18.7318V15.1194C110.555 14.7143 110.637 14.425 110.811 14.2597C110.985 14.0944 111.266 14.0117 111.664 14.0117H116.132C116.257 14.0117 116.331 14.0034 116.356 13.9704C116.381 13.9456 116.397 13.8629 116.397 13.7141V11.8955C116.397 11.7467 116.381 11.664 116.356 11.6475C116.331 11.6309 116.257 11.6144 116.132 11.6144H110.894C110.828 11.6144 110.77 11.5896 110.712 11.54C110.654 11.4904 110.629 11.4243 110.629 11.3664V10.0603C110.629 9.99419 110.654 9.94459 110.712 9.89499C110.77 9.85366 110.828 9.82886 110.894 9.82886H117.275C117.763 9.82886 118.094 9.92805 118.268 10.1347C118.441 10.3414 118.532 10.672 118.532 11.135V14.4167C118.532 14.9045 118.433 15.2351 118.243 15.417C118.052 15.5989 117.755 15.6981 117.349 15.6981H112.955C112.855 15.6981 112.781 15.7146 112.748 15.7477C112.715 15.7807 112.69 15.8551 112.69 15.9708V17.7895C112.69 17.9217 112.715 18.0044 112.764 18.0457C112.814 18.0871 112.905 18.1119 113.021 18.1284C113.526 18.1532 114.08 18.1532 114.684 18.1367C115.288 18.1201 115.909 18.0788 116.538 18.0292C117.167 17.9796 117.788 17.9135 118.392 17.8473C118.988 17.7729 119.525 17.6985 120.005 17.6241C120.088 17.6076 120.179 17.6241 120.254 17.6489C120.328 17.682 120.37 17.7399 120.386 17.8143L120.576 19.0212C120.585 19.0956 120.56 19.17 120.494 19.2361Z" fill="white"/>
<path d="M124.441 27.1388C124.383 27.1801 124.325 27.1966 124.259 27.1966H114.436C113.873 27.1966 113.493 27.0892 113.294 26.8825C113.095 26.6758 112.996 26.3121 112.996 25.7996V21.9722C112.996 21.9061 113.021 21.84 113.079 21.7821C113.137 21.7242 113.203 21.6912 113.277 21.6912H114.891C114.966 21.6912 115.032 21.7242 115.098 21.7821C115.164 21.84 115.189 21.9061 115.189 21.9722V24.9895C115.189 25.1217 115.214 25.2044 115.264 25.2457C115.313 25.2871 115.396 25.3036 115.528 25.3036H124.259C124.325 25.3036 124.383 25.3284 124.441 25.3863C124.499 25.4359 124.524 25.502 124.524 25.5681V26.9734C124.524 27.0561 124.491 27.114 124.441 27.147V27.1388Z" fill="white"/>
<path d="M123.962 21.873C123.962 22.0466 123.879 22.1292 123.697 22.1292H122.042C121.984 22.1292 121.918 22.1044 121.868 22.0548C121.81 22.0052 121.777 21.9391 121.777 21.8565V8.77063C121.777 8.7045 121.802 8.64663 121.868 8.58877C121.926 8.53917 121.984 8.5061 122.042 8.5061H123.697C123.871 8.5061 123.962 8.59704 123.962 8.76236V21.873Z" fill="white"/>
<path d="M126.569 19.9552C126.867 19.9717 127.173 19.9717 127.471 19.9717H128.357V11.697H126.859C126.801 11.697 126.726 11.6639 126.652 11.5978C126.577 11.5316 126.536 11.4572 126.536 11.3828V10.1594C126.536 10.0767 126.577 10.0106 126.652 9.94447C126.726 9.87834 126.801 9.84527 126.859 9.84527H136.549C136.624 9.84527 136.69 9.87834 136.74 9.9362C136.798 9.99407 136.831 10.0685 136.831 10.1677V11.4076C136.831 11.4903 136.806 11.5564 136.74 11.6143C136.69 11.6722 136.616 11.7052 136.549 11.7052H135.25V19.6906C135.589 19.6658 135.921 19.6328 136.243 19.5997C136.566 19.5666 136.889 19.5253 137.203 19.4674C137.261 19.4509 137.336 19.4674 137.41 19.5005C137.485 19.5336 137.534 19.5832 137.543 19.6493L137.716 20.8893C137.741 20.9967 137.725 21.0711 137.667 21.1207C137.609 21.1786 137.551 21.2117 137.485 21.2199C136.732 21.3357 135.921 21.4431 135.043 21.5258C134.166 21.6167 133.264 21.6746 132.321 21.7242C131.385 21.7738 130.425 21.7986 129.449 21.8151C128.472 21.8317 127.512 21.8151 126.577 21.7986C126.503 21.7986 126.437 21.7655 126.387 21.7077C126.337 21.6498 126.312 21.5837 126.312 21.501V20.2362C126.312 20.0544 126.395 19.9634 126.577 19.9634L126.569 19.9552ZM133.156 19.8394V11.697H130.434V19.9552C131.369 19.9304 132.279 19.889 133.156 19.8394ZM143.253 17.5662C143.195 17.624 143.137 17.6406 143.071 17.6406H140.522V26.9403C140.522 27.1139 140.439 27.1966 140.274 27.1966H138.602C138.436 27.1966 138.354 27.1139 138.354 26.9403V8.76236C138.354 8.58877 138.436 8.5061 138.602 8.5061H140.274C140.439 8.5061 140.522 8.59704 140.522 8.76236V15.7475H143.071C143.137 15.7475 143.195 15.7723 143.253 15.8137C143.311 15.8633 143.335 15.9129 143.335 15.979V17.376C143.335 17.4422 143.311 17.5 143.253 17.5579V17.5662Z" fill="white"/>
<path d="M144.41 18.6325C145.296 18.6573 146.239 18.6573 147.224 18.6325C148.217 18.616 149.202 18.5829 150.187 18.5333C151.171 18.4837 152.123 18.4259 153.05 18.3432C153.977 18.2605 154.829 18.1696 155.599 18.0456C155.665 18.0373 155.731 18.0456 155.814 18.0539C155.897 18.0704 155.938 18.1365 155.955 18.244L156.071 19.5253C156.079 19.6328 156.062 19.7072 156.004 19.765C155.947 19.8146 155.889 19.8477 155.822 19.8642C155.185 19.9717 154.449 20.0626 153.605 20.137C152.769 20.2114 151.875 20.2858 150.94 20.352V26.37C150.94 26.4609 150.907 26.5353 150.857 26.5931C150.799 26.651 150.733 26.6841 150.658 26.6841H149.103C149.028 26.6841 148.962 26.651 148.904 26.5931C148.846 26.5353 148.821 26.4526 148.821 26.37V20.4677C148.043 20.509 147.282 20.5338 146.545 20.5504C145.801 20.5669 145.089 20.5669 144.41 20.5504C144.22 20.5504 144.129 20.4429 144.129 20.2362V18.8888C144.129 18.7069 144.228 18.616 144.41 18.616V18.6325ZM151.676 9.82047C152.231 10.0271 152.702 10.3082 153.1 10.6637C153.489 11.0191 153.803 11.4324 154.027 11.9036C154.25 12.3748 154.366 12.8873 154.366 13.4412C154.366 13.995 154.25 14.5241 154.027 15.0036C153.803 15.4747 153.489 15.8881 153.1 16.2353C152.702 16.5824 152.231 16.8552 151.676 17.0454C151.122 17.2355 150.526 17.3347 149.872 17.3347C149.218 17.3347 148.639 17.2355 148.101 17.0454C147.555 16.8552 147.092 16.5824 146.694 16.2353C146.297 15.8881 145.991 15.4747 145.767 15.0036C145.544 14.5324 145.428 14.0116 145.428 13.4412C145.428 12.8708 145.544 12.3748 145.767 11.9036C145.991 11.4324 146.297 11.0108 146.694 10.6637C147.092 10.3082 147.555 10.0271 148.101 9.82047C148.647 9.62208 149.235 9.51461 149.872 9.51461C150.509 9.51461 151.122 9.62208 151.676 9.82047ZM148.995 11.449C148.722 11.5564 148.474 11.7052 148.267 11.8954C148.052 12.0855 147.886 12.3169 147.762 12.5732C147.638 12.8377 147.572 13.1271 147.572 13.4412C147.572 13.7553 147.63 14.0446 147.762 14.3092C147.886 14.5737 148.052 14.8052 148.267 14.987C148.482 15.1771 148.722 15.3259 148.995 15.4334C149.268 15.5409 149.566 15.5905 149.88 15.5905C150.203 15.5905 150.509 15.5409 150.791 15.4334C151.072 15.3259 151.32 15.1771 151.536 14.987C151.751 14.7969 151.916 14.5654 152.04 14.3092C152.165 14.0446 152.231 13.7553 152.231 13.4412C152.231 13.1271 152.165 12.8377 152.04 12.5732C151.916 12.3087 151.751 12.0855 151.536 11.8954C151.32 11.7052 151.072 11.5564 150.791 11.449C150.509 11.3415 150.203 11.2919 149.88 11.2919C149.558 11.2919 149.276 11.3415 148.995 11.449ZM153.348 23.0551V21.6746C153.348 21.6085 153.373 21.5506 153.431 21.5093C153.489 21.4597 153.547 21.4431 153.613 21.4431H156.824V8.77063C156.824 8.7045 156.857 8.64663 156.915 8.58877C156.973 8.53917 157.031 8.5061 157.089 8.5061H158.744C158.917 8.5061 159.009 8.59704 159.009 8.76236V26.9403C159.009 27.1139 158.917 27.1966 158.744 27.1966H157.089C157.022 27.1966 156.964 27.1718 156.915 27.1305C156.857 27.0809 156.824 27.023 156.824 26.9403V23.3114H153.613C153.555 23.3114 153.489 23.2866 153.431 23.237C153.373 23.1791 153.348 23.1212 153.348 23.0551Z" fill="white"/>
</g>
<defs>
<clipPath id="clip0_1637_6153">
<rect width="159" height="34" fill="white"/>
</clipPath>
</defs>
</svg>
