<svg width="77" height="56" viewBox="0 0 77 56" fill="none" xmlns="http://www.w3.org/2000/svg">
<g clip-path="url(#clip0_1637_9777)">
<path d="M70.8356 4.6842V6.32467C72.2266 6.31479 73.3791 6.24561 74.6707 6.0282L74.8098 7.08561C73.3195 7.34255 71.9782 7.40185 70.319 7.40185H69.4943V3.65644H72.465V2.20373H69.4844V1.16608H73.8063V4.6842H70.8356ZM75.3066 0.385376H76.6181V9.51667H75.3066V0.385376Z" fill="white"/>
<path d="M64.7557 4.29879L63.474 4.15055C63.6231 3.30067 63.6628 2.63855 63.6727 2.09502H60.2649V1.05738H64.9643V1.62067C64.9643 2.25314 64.9643 3.15243 64.7557 4.29879ZM65.3618 4.66444L65.4412 5.59338C63.5535 5.93926 61.4273 5.97879 59.8575 5.98867L59.7383 4.95102C60.245 4.95102 60.8113 4.95102 61.4074 4.94114V3.1722H62.6891V4.89173C63.5933 4.8522 64.5073 4.78302 65.3618 4.66444ZM62.3811 6.60138V8.30114H67.4582V9.33879H61.0696V6.60138H62.3811ZM67.17 3.16232H68.2629V4.23949H67.17V7.2042H65.8585V0.385376H67.17V3.16232Z" fill="white"/>
<path d="M48.7866 0.988199H53.1185C53.1185 3.43902 51.5884 5.12891 48.886 5.87996L48.3594 4.83244C50.3564 4.29879 51.4791 3.27102 51.6778 2.02585H48.7866V0.988199ZM52.6614 8.48891C53.7742 8.48891 54.4399 8.20232 54.4399 7.63902C54.4399 7.07573 53.7742 6.78914 52.6614 6.78914C51.5487 6.78914 50.883 7.07573 50.883 7.63902C50.883 8.20232 51.5487 8.48891 52.6614 8.48891ZM52.6614 5.77126C54.5094 5.77126 55.7315 6.50255 55.7315 7.63902C55.7315 8.78538 54.5094 9.50679 52.6614 9.50679C50.8134 9.50679 49.5914 8.78538 49.5914 7.63902C49.5914 6.50255 50.8134 5.77126 52.6614 5.77126ZM55.6322 2.51996H56.8443V3.59714H55.6322V5.65267H54.3207V0.385376H55.6322V2.51996Z" fill="white"/>
<path d="M44.0482 3.04373H45.628V0.395264H46.9395V7.04609H45.628V4.10115H44.0482V3.04373ZM39.8753 1.07715H44.1277C44.1277 3.53785 42.5977 5.33644 39.935 6.17644L39.3984 5.12891C41.3061 4.53597 42.5082 3.44891 42.7268 2.11479H39.8753V1.07715ZM42.2698 8.30115H47.168V9.33879H40.9583V6.39385H42.2698V8.30115Z" fill="white"/>
<path d="M32.6975 5.5242L31.4159 5.41549C31.6245 4.1209 31.6543 3.14255 31.6543 2.3322H28.2365V1.29455H32.9459V2.03573C32.9459 2.91526 32.9459 4.02208 32.6975 5.5242ZM30.7005 3.90349V6.55196C31.5848 6.52232 32.479 6.46302 33.3135 6.3642L33.3831 7.30302C31.5251 7.61926 29.4784 7.65879 27.8888 7.66867L27.7695 6.60138C28.2762 6.60138 28.8326 6.60138 29.4089 6.59149V3.90349H30.7005ZM36.2743 4.05173V5.13879H35.0423V9.48702H33.7308V0.385376H35.0423V4.05173H36.2743Z" fill="white"/>
<path d="M26.301 0.395264V5.05973H24.9895V0.395264H26.301ZM24.4132 3.97268L23.8171 4.97079C22.7639 4.69409 22.0486 4.09126 21.6313 3.32044C21.214 4.1802 20.4589 4.86209 19.3561 5.16844L18.75 4.15056C20.1608 3.75526 20.8365 2.80656 20.9259 1.84797H19.0977V0.810322H24.0754V1.84797H22.2771C22.3765 2.7275 23.0421 3.60703 24.4132 3.97268ZM21.522 8.4395H26.5394V9.42773H20.2205V6.94726H25.0094V6.40373H20.2105V5.42538H26.3109V7.86632H21.522V8.4395Z" fill="white"/>
<path d="M10.0767 1.33408H14.4682C14.4682 4.12091 13.5243 6.39385 10.2754 7.95526L9.58984 6.92749C11.9247 5.81079 12.9381 4.38773 13.1269 2.37173H10.0767V1.33408ZM15.8691 0.385376H17.1905V9.48702H15.8691V0.385376Z" fill="white"/>
<path d="M1.97911 2.5002V6.37408C2.83356 6.35432 3.60853 6.30491 4.48286 6.14679L4.58221 7.2042C3.46944 7.41173 2.49576 7.45126 1.32337 7.45126H0.6875V1.44279H4.0755V2.5002H1.97911ZM7.03627 0.385376H8.27821V9.49691H7.03627V4.94114H6.21163V9.07196H4.98956V0.563258H6.21163V3.89361H7.03627V0.385376Z" fill="white"/>
<path d="M31.5823 47.6576C34.8403 47.8758 37.9575 48.8723 40.7022 50.5358C42.7059 51.7382 44.515 53.3029 46.0218 55.1682H1.94141L2.74866 54.2788C4.82744 51.9798 7.41144 50.1889 10.2996 49.0453C12.6852 48.0959 15.2315 47.6095 17.8009 47.6123H30.2037C30.6674 47.6123 31.1269 47.6274 31.5823 47.6576Z" fill="#8A949E"/>
<path d="M40.7024 47.6123C37.6763 47.6123 35.1675 45.4176 34.6956 42.5394C34.6487 42.2209 34.6239 41.8956 34.6211 41.5635C34.6211 40.0358 35.1924 38.6441 36.1238 37.5776C37.2416 36.3176 38.8768 35.5146 40.7024 35.5146C44.0598 35.5146 46.7796 38.2241 46.7796 41.5635C46.7796 44.9029 44.0598 47.6123 40.7024 47.6123Z" fill="#8A949E"/>
<path d="M31.5825 44.5859C30.1667 44.5859 28.8999 43.5153 28.0637 41.8353C27.4096 40.5259 27.0205 38.8582 27.0205 37.0259C27.0205 32.8547 29.0655 29.47 31.5825 29.47C34.0953 29.47 36.1404 32.8547 36.1404 37.0259C36.1404 37.2098 36.1349 37.3937 36.1238 37.5776C35.1547 38.6817 34.6208 40.0978 34.6211 41.5635C34.6239 41.8957 34.6487 42.2209 34.6956 42.5394C33.8842 43.8076 32.7913 44.5859 31.5825 44.5859ZM3.46094 44.5859L10.2999 30.9811L15.2428 40.8059L16.3812 43.0747L17.1429 44.5859H10.2999H3.46094Z" fill="#8A949E"/>
<path d="M15.2422 40.8059L20.9427 29.47L27.3386 42.1976L27.7816 43.0747H16.3806L15.2422 40.8059Z" fill="#8A949E"/>
<path d="M37.8044 24.9324H35.3826L35.8297 23.1412C36.1351 21.9248 36.8411 20.845 37.8353 20.0741C38.8294 19.3032 40.0544 18.8856 41.3149 18.8877H43.7408L43.2937 20.6789C42.9861 21.8949 42.2789 22.9739 41.2844 23.7445C40.2899 24.5151 39.065 24.9332 37.8044 24.9324ZM5.1249 29.4701H2.70312L3.15022 27.6789C3.45595 26.4623 4.16195 25.3823 5.1559 24.6108C6.14985 23.8393 7.37465 23.4206 8.63544 23.4212H11.0614L10.6143 25.2124C10.3076 26.4293 9.60074 27.5093 8.60612 28.2807C7.6115 29.0522 6.38617 29.4708 5.1249 29.4701ZM12.3819 10.9777C12.0549 12.9212 10.37 14.3501 8.38705 14.3501H6.50345L6.52415 14.2306L6.69802 13.1848C6.85676 12.2437 7.34554 11.3891 8.07763 10.7725C8.80971 10.1559 9.73775 9.8172 10.6971 9.81653H12.5807L12.3819 10.9777Z" fill="#8A949E"/>
<path d="M46.614 54.6988C45.1637 52.8914 43.422 51.3358 41.4599 50.0953V48.3206C44.8753 47.9459 47.5413 45.0594 47.5413 41.5635C47.5413 37.8124 44.4737 34.7612 40.7024 34.7612C39.2741 34.7612 37.9494 35.1977 36.8524 35.943C36.5212 31.813 34.3271 28.7124 31.5824 28.7124C28.5976 28.7124 26.2628 32.3647 26.2628 37.0259C26.2628 37.5447 26.2918 38.0484 26.3497 38.5371L20.9432 27.7777L15.2427 39.1177L10.2998 29.2888L2.23134 45.3435H9.5422V48.5471C6.73655 49.7369 4.2249 51.52 2.18167 53.7724L0.235968 55.9259H47.6034L46.614 54.6988ZM32.34 45.253C33.0686 45.0965 33.7558 44.7135 34.3685 44.1288C35.2958 46.3894 37.4112 48.0447 39.9406 48.3247V49.2306C37.5755 48.0003 34.9956 47.2316 32.34 46.9659V45.253ZM40.6982 36.2765C43.6333 36.2765 46.0178 38.6482 46.0178 41.5677C46.0178 44.2277 44.0349 46.4265 41.4599 46.7971V43.4824L43.4015 42.1935L42.557 40.9377L41.4599 41.6665V40.4971L40.4747 39.5212L39.4025 40.5877L39.9406 41.123V43.9312L38.8395 43.2024L37.9991 44.4624L39.9406 45.7512V46.7971C37.3657 46.4265 35.3786 44.2277 35.3786 41.5677C35.3786 38.6482 37.7673 36.2765 40.6982 36.2765ZM31.5783 30.2277C33.6399 30.2277 35.3786 33.3406 35.3786 37.03C35.3786 37.1233 35.3772 37.2153 35.3745 37.3059C34.4306 38.4753 33.8593 39.9535 33.8593 41.5677C33.8621 41.8312 33.8786 42.092 33.909 42.35C33.4412 43.013 32.903 43.4659 32.34 43.6841V37.4335L34.2816 36.1488L33.437 34.8888L32.34 35.6177V34.4482L31.3589 33.4724L30.2825 34.543L30.8207 35.0741V37.8865L29.7195 37.1577L28.8791 38.4135L30.8207 39.7024V43.6882C29.111 43.0377 27.778 40.2541 27.778 37.03C27.778 33.3406 29.5208 30.2277 31.5783 30.2277ZM30.8207 45.253V46.8753C30.6165 46.8671 30.4122 46.8616 30.208 46.8588H21.7008V43.8324H28.49C29.1648 44.5735 29.9555 45.0677 30.8207 45.253ZM20.939 31.1624L26.5484 42.3212H21.7008V41.9712L23.6423 40.6824L22.7978 39.4265L21.7008 40.1553V37.343L22.2389 36.8118L21.1626 35.7412L20.1815 36.7171V37.8865L19.0803 37.1577L18.2399 38.4135L20.1815 39.7024V42.3212H16.8489L16.0913 40.81L20.939 31.1624ZM4.68624 43.8365L10.2956 32.6735L15.9092 43.8365H11.0574V43.4824L12.9989 42.1977L12.1585 40.9377L11.0574 41.6665V38.8583L11.5955 38.323L10.5192 37.2524L9.53806 38.2324V39.3977L8.44102 38.6688L7.59651 39.9288L9.53806 41.2135V43.8365H4.68624ZM11.0574 45.3477H18.3641L17.6065 43.8365H20.1773V46.8588H17.7928C15.4787 46.8588 13.2059 47.2459 11.0574 47.9706V45.3477ZM3.65129 54.4188C5.34446 52.6441 7.34812 51.2235 9.53806 50.2065V52.9077H11.0574V49.5724C13.2132 48.778 15.4938 48.3709 17.7928 48.37H20.1773V52.9077H21.6966V48.37H30.2039C30.4081 48.3728 30.6123 48.3783 30.8166 48.3865V52.9077H32.3359V48.4894C35.0142 48.7773 37.6028 49.6173 39.9365 50.9559V52.9077H41.4558V51.9235C42.4935 52.6537 43.4581 53.4855 44.3495 54.4188H3.65129ZM35.093 22.96L34.7162 24.4671L32.6795 25.8177L33.524 27.0735L35.6104 25.69H37.8087C40.7562 25.69 43.3146 23.7012 44.0308 20.86L44.7138 18.13H41.3151C38.3675 18.13 35.8091 20.1147 35.093 22.96ZM41.3151 19.6412H42.7681L42.5528 20.4935C42.0147 22.6306 40.1104 24.1253 37.9039 24.1706L40.3629 22.54L39.5184 21.28L36.6081 23.2112C36.8905 22.1851 37.5042 21.2797 38.3548 20.6346C39.2053 19.9895 40.2455 19.6405 41.3151 19.6412ZM0.844516 31.6112L2.93097 30.2235H5.12919C8.07672 30.2235 10.6351 28.2388 11.3513 25.3935L12.0344 22.6635H8.63559C5.68806 22.6635 3.12968 24.6524 2.41349 27.4977L2.03677 29.0006L0 30.3512L0.844516 31.6112ZM8.63559 24.1788H10.0887L9.87339 25.0312C9.33935 27.1683 7.43091 28.663 5.22441 28.7083L7.68344 27.0777L6.83892 25.8177L3.92866 27.7488C4.51651 25.6447 6.42909 24.1788 8.63559 24.1788ZM4.6614 16.4747L6.59468 15.1077H8.38306C10.7469 15.1077 12.7464 13.4194 13.1355 11.1012L13.4791 9.05884H10.7013C8.33339 9.05884 6.33801 10.743 5.94887 13.0653L5.82468 13.7941L3.77962 15.2477L4.6614 16.4747ZM10.6972 10.5659H11.6825L11.6369 10.85C11.3927 12.3077 10.2128 13.3906 8.76806 13.5594L9.98102 12.6947L9.09925 11.4635L7.73312 12.4353C8.27129 11.3194 9.39731 10.5659 10.6972 10.5659Z" fill="white"/>
<path d="M26.2629 23.4211C26.2629 24.6729 25.2403 25.6899 23.9819 25.6899C23.5637 25.6899 23.2201 25.3523 23.2201 24.9323C23.2201 24.5164 23.5637 24.1788 23.9819 24.1788H24.7394V22.6635H23.9819C23.3772 22.6646 22.7977 22.9039 22.3701 23.3292C21.9426 23.7545 21.7019 24.3309 21.7008 24.9323C21.7008 26.1841 22.7234 27.2011 23.9819 27.2011C26.0766 27.2011 27.7822 25.5047 27.7822 23.4211C27.7822 21.3376 26.0766 19.6411 23.9819 19.6411H3.46094V21.1523H23.9819C25.2403 21.1523 26.2629 22.1694 26.2629 23.4211ZM23.2201 14.3499V14.107C23.2201 12.1552 21.6263 10.5699 19.6682 10.5699C18.2772 10.5699 17.1429 11.6982 17.1429 13.0817C17.1418 13.6098 17.3079 14.1247 17.6178 14.5535C17.9277 14.9822 18.3656 15.3029 18.8692 15.4699L19.9414 15.8241L20.4216 14.387L19.3494 14.0329C19.1229 13.9574 18.9307 13.8043 18.8072 13.6008C18.6836 13.3974 18.6369 13.1569 18.6752 12.9223C18.7135 12.6877 18.8344 12.4743 19.0163 12.3202C19.1982 12.1661 19.4293 12.0814 19.6682 12.0811C20.7901 12.0811 21.7008 12.9911 21.7008 14.107V14.3499C21.7008 15.6017 20.6783 16.6188 19.4198 16.6188H3.46094V18.1299H19.4198C21.5187 18.1299 23.2201 16.4335 23.2201 14.3499ZM36.9021 14.3499V14.107C36.9021 12.1552 35.3083 10.5699 33.346 10.5699C31.9551 10.5699 30.8208 11.6982 30.8208 13.0817C30.8208 14.1688 31.5163 15.1241 32.5471 15.4699L33.6193 15.8241L34.0995 14.387L33.0314 14.0329C32.8052 13.9575 32.6132 13.8047 32.4897 13.6017C32.3661 13.3987 32.319 13.1586 32.3568 12.9243C32.3946 12.69 32.5147 12.4766 32.6959 12.3222C32.8771 12.1678 33.1075 12.0824 33.346 12.0811C33.8859 12.0822 34.4033 12.296 34.7851 12.6757C35.1668 13.0554 35.3817 13.57 35.3828 14.107V14.3499C35.3817 14.9513 35.1411 15.5278 34.7135 15.953C34.286 16.3783 33.7064 16.6177 33.1018 16.6188H24.7394V18.1299H33.1018C35.1965 18.1299 36.9021 16.4335 36.9021 14.3499Z" fill="white"/>
</g>
<defs>
<clipPath id="clip0_1637_9777">
<rect width="77" height="56" fill="white"/>
</clipPath>
</defs>
</svg>
