<svg width="118" height="40" viewBox="0 0 118 40" fill="none" xmlns="http://www.w3.org/2000/svg">
<g clip-path="url(#clip0_1637_6023)">
<path d="M54.7469 29.9336C48.6434 29.9336 45.2695 25.9276 45.2695 20.0049C45.2695 14.0822 48.9216 10.0137 54.8597 10.0137C57.2284 10.0137 59.2061 10.5692 60.7402 11.4324L60.101 15.5785C58.6497 14.6602 56.9527 13.9396 54.97 13.9396C51.6563 13.9396 50.0421 16.3867 50.0421 19.9749C50.0421 23.563 51.714 26.1253 55.0277 26.1253C56.0905 26.1253 56.8424 25.9276 57.6195 25.5122V22.0892H54.2757L53.7192 18.5561H61.7729V27.9043C59.7651 29.2155 57.3964 29.9361 54.7494 29.9361" fill="white"/>
<path d="M70.913 29.7936C68.3186 29.7936 66.1479 29.2381 64.1953 28.3473L64.8896 24.2862C66.8698 25.3422 69.0731 26.0653 70.9957 26.0653C72.3618 26.0653 73.3093 25.4798 73.3093 24.3413C73.3093 23.2028 72.7528 22.7524 70.0457 21.724C66.2006 20.2502 64.5262 18.9966 64.5262 15.8263C64.5262 12.1256 67.4263 10.1514 71.1035 10.1514C73.6176 10.1514 75.2318 10.6243 76.9037 11.43L76.1793 15.436C74.4573 14.4351 72.64 13.8796 71.1636 13.8796C69.6872 13.8796 69.018 14.4902 69.018 15.3784C69.018 16.3543 69.5469 16.8272 71.9407 17.7455C76.1292 19.2743 77.796 20.7231 77.796 23.7833C77.796 27.9569 74.7305 29.7936 70.9105 29.7936" fill="white"/>
<path d="M4.18098 10.6544L2.74972 9.073C0.995114 12.0681 0 15.5437 0 19.0692H0.985088C0.992608 15.7664 2.14313 12.7637 4.18349 10.6544H4.18098Z" fill="white"/>
<path d="M3.92782 26.1378C2.13561 24.4438 0.985088 22.1518 0.985088 19.0866V19.0691H0C0 22.6572 0.641686 25.9952 1.91002 28.9027L3.92782 26.1353V26.1378Z" fill="white"/>
<path d="M35.3479 16.5244L33.5156 18.4136C36.0598 18.4486 37.6139 20.4053 37.5613 22.9075H38.5514C38.5514 20.4403 37.3958 18.2034 35.3504 16.5244H35.3479Z" fill="white"/>
<path d="M38.5472 22.9075H37.5571C37.5069 24.9593 36.4116 26.6833 33.9727 27.9644L36.5469 31.505C37.8002 29.1905 38.5447 26.348 38.5447 22.9075H38.5472Z" fill="white"/>
<path d="M5.21465 16.1917C5.14697 16.5745 5.10938 16.9649 5.10938 17.3702C5.10938 23.2579 9.50091 27.0136 15.0455 27.0136C25.5932 27.0136 28.7214 18.4086 33.4463 18.4086C33.4664 18.4086 33.4914 18.4136 33.5165 18.4136L35.3488 16.5245C33.0728 14.6528 29.694 13.4768 25.5932 13.4768C17.2438 13.4768 12.7971 20.4354 9.00712 20.4354C7.35528 20.4354 6.09697 18.6288 6.09697 16.8773C6.09697 16.6921 6.10449 16.517 6.12204 16.3443L5.21465 16.1892V16.1917Z" fill="white"/>
<path d="M11.7525 7.56162C17.8511 7.56162 22.0772 12.1656 27.514 12.1656C34.0361 12.1656 37.6406 8.99037 38.5504 2.79995L37.5603 2.6323C37.2871 4.27624 36.2118 6.25047 34.2943 6.25047C32.477 6.25047 30.5569 4.66158 27.7571 3.12273C24.9572 1.53634 21.7488 0 17.7383 0C11.2888 0 5.84703 3.79582 2.75391 9.07294L4.18517 10.6543C6.04004 8.73765 8.62182 7.55911 11.7551 7.55911L11.7525 7.56162Z" fill="white"/>
<path d="M18.1188 30.4667C13.3989 30.4667 7.42826 29.4433 3.92405 26.1379L1.90625 28.9054C4.81138 35.5862 11.0177 40.0026 20.3146 40.0026C26.4557 40.0026 33.2561 37.5704 36.5473 31.5076L33.973 27.967C30.9425 29.5584 25.8441 30.4667 18.1188 30.4667Z" fill="white"/>
<path d="M118 10.5317H115.984V21.1135H118V10.5317Z" fill="white"/>
<path d="M114.467 21.1135V10.5317H112.451V14.6178H109.895V16.4869H112.451V21.1135H114.467Z" fill="white"/>
<path d="M110.58 18.4762H104.699V16.4219H109.063V14.6803H104.699V12.7512H109.895V10.9446H102.621V19.2468C102.621 19.8048 103.102 20.2828 103.659 20.2828H110.58V18.4762Z" fill="white"/>
<path d="M104.703 23.8083H115.925V29.6234H118.003V21.9417H104.703V23.8083Z" fill="white"/>
<path d="M99.9257 10.4941H97.918V23.5956H99.9257V10.4941Z" fill="white"/>
<path d="M96.4076 10.4941H94.4023V23.5956H96.4076V10.4941Z" fill="white"/>
<path d="M100.138 29.6235H88.3321C87.7731 29.6235 87.2969 29.148 87.2969 28.585V22.7625H89.3673V27.7518H100.138V29.621V29.6235Z" fill="white"/>
<path d="M95.0223 14.5476H91.6484V16.4192H95.0223V14.5476Z" fill="white"/>
<path d="M88.0606 10.4941C85.4513 10.4941 83.3633 12.7811 83.3633 15.5886C83.3633 18.3961 85.4513 20.6831 88.0606 20.6831C90.67 20.6831 92.763 18.3986 92.763 15.5886C92.763 12.7786 90.6725 10.4941 88.0606 10.4941ZM88.0606 18.874C86.6544 18.874 85.4738 17.3977 85.4738 15.5886C85.4738 13.7795 86.6544 12.3032 88.0606 12.3032C89.4668 12.3032 90.6499 13.782 90.6499 15.5886C90.6499 17.3952 89.4718 18.874 88.0606 18.874Z" fill="white"/>
</g>
<defs>
<clipPath id="clip0_1637_6023">
<rect width="118" height="40" fill="white"/>
</clipPath>
</defs>
</svg>
