<svg width="208" height="48" viewBox="0 0 208 48" fill="none" xmlns="http://www.w3.org/2000/svg">
<g clip-path="url(#clip0_1637_8139)">
<path d="M58.4516 31.2361H59.5686V33.7489L61.6725 31.2361H63.1384L60.9069 33.7417L63.2516 37.3229H61.7928L60.115 34.6654L59.5661 35.2875V37.3229H58.4492V31.2385L58.4516 31.2361Z" fill="white"/>
<path d="M75.8145 37.3219H74.6875V31.2375H75.8145V37.3219Z" fill="white"/>
<path d="M76.8594 31.2375H78.0439L80.2058 35.477V31.2375H81.2576V37.3219H80.1284L77.9112 33.0003V37.3219H76.8594V31.2375Z" fill="white"/>
<path d="M67.8987 36.8488C67.5184 37.3118 66.8685 37.5071 66.1512 37.5071C65.4338 37.5071 64.8031 37.3504 64.4228 36.8874C63.9148 36.3206 63.7969 35.3874 63.7969 34.3215C63.7969 33.2556 63.8788 32.315 64.3867 31.77C64.7646 31.307 65.4338 31.0731 66.1487 31.0731C66.8637 31.0731 67.5545 31.3263 67.9301 31.7869C68.4356 32.3319 68.4885 33.2194 68.4885 34.3094C68.4885 35.3994 68.3995 36.2821 67.8939 36.8488H67.8987ZM67.2272 35.9999C67.4703 35.6213 67.439 35.0425 67.439 34.3432C67.439 33.6438 67.451 33.0192 67.2079 32.6382C66.9624 32.2572 66.5555 32.1294 66.1391 32.1294C65.7226 32.1294 65.3086 32.2572 65.0607 32.6382C64.8128 33.0192 64.8223 33.6004 64.8223 34.3022C64.8223 35.004 64.8488 35.6623 65.0968 36.0433C65.3447 36.4244 65.7226 36.516 66.1391 36.516C66.5555 36.516 66.9816 36.3833 67.2272 35.9999Z" fill="white"/>
<path d="M70.5395 35.4845C70.5733 35.7569 70.6383 35.9596 70.7346 36.0946C70.9127 36.3406 71.2184 36.4636 71.6517 36.4636C71.9117 36.4636 72.1212 36.4298 72.2824 36.3671C72.5881 36.2417 72.7422 36.0126 72.7422 35.675C72.7422 35.4797 72.6676 35.3253 72.5207 35.2192C72.3715 35.1131 72.1355 35.0214 71.8082 34.9395L71.2497 34.7972C70.7009 34.6549 70.3229 34.503 70.1183 34.3366C69.7716 34.0617 69.5984 33.63 69.5984 33.044C69.5984 32.5086 69.7693 32.0649 70.1063 31.7103C70.4457 31.3559 70.944 31.1798 71.6012 31.1798C72.15 31.1798 72.6194 31.3462 73.0046 31.679C73.3921 32.0118 73.5943 32.4941 73.6136 33.1283H72.5881C72.5689 32.7691 72.4292 32.5158 72.1717 32.3639C71.9983 32.265 71.7865 32.2144 71.5289 32.2144C71.2449 32.2144 71.0186 32.2795 70.8477 32.4097C70.6768 32.5375 70.5925 32.7208 70.5925 32.9523C70.5925 33.1669 70.6768 33.3237 70.8453 33.4298C70.9512 33.4998 71.1799 33.5817 71.5289 33.6758L72.4292 33.9242C72.824 34.0327 73.1201 34.1774 73.3175 34.3582C73.6232 34.638 73.777 35.0456 73.777 35.5761C73.777 36.1067 73.5943 36.5745 73.2332 36.9363C72.8697 37.2955 72.357 37.4765 71.6926 37.4765C71.0283 37.4765 70.4818 37.298 70.0943 36.9459C69.7067 36.5914 69.5117 36.1042 69.5117 35.4845H70.5372H70.5395Z" fill="white"/>
<path d="M85.0352 31.2534H86.4823V34.9817C86.4823 35.3989 86.528 35.8571 86.6483 36.0476C86.8194 36.3177 87.1919 36.4696 87.7672 36.4696C88.3425 36.4696 88.74 36.2863 88.8846 36.0476C88.9975 35.8571 89.0506 35.4013 89.0506 34.9817V31.2534H90.497V34.9841C90.497 35.628 90.4682 36.255 90.1599 36.7108C89.845 37.1786 88.9444 37.4801 87.7701 37.4801C86.5951 37.4801 85.7041 37.1666 85.3744 36.7108C85.0787 36.3008 85.0374 35.6304 85.0374 34.9841V31.2534H85.0352Z" fill="white"/>
<path d="M91.6484 31.2534H92.9245L95.2545 35.4833V31.2534H96.3882V37.3233H95.1704L92.7821 33.0138V37.3233H91.6484V31.2534Z" fill="white"/>
<path d="M98.6555 37.3233H97.4414V31.2534H98.6555V37.3233Z" fill="white"/>
<path d="M103.226 31.2534H104.492L102.494 37.3233H101.343L99.3672 31.2534H100.674L101.945 35.8619L103.228 31.2534H103.226Z" fill="white"/>
<path d="M109.552 32.3337H106.456V33.6215H109.299V34.6729H106.456V36.2332H109.696V37.3257H105.262V31.2606H109.554V32.3361L109.552 32.3337Z" fill="white"/>
<path d="M114.397 31.4101C114.612 31.5066 114.797 31.6464 114.946 31.8346C115.071 31.9889 115.168 32.1578 115.242 32.3458C115.314 32.5339 115.351 32.7462 115.351 32.9849C115.351 33.2719 115.281 33.5565 115.141 33.8362C115.002 34.1159 114.77 34.3113 114.446 34.427C114.717 34.5404 114.907 34.6995 115.018 34.9069C115.132 35.1143 115.187 35.4302 115.187 35.8546V36.2622C115.187 36.5396 115.199 36.7276 115.218 36.8265C115.25 36.9833 115.324 37.0967 115.442 37.1714V37.3233H114.094C114.055 37.1883 114.029 37.0797 114.014 36.9978C113.983 36.8265 113.964 36.6529 113.962 36.4744L113.954 35.9102C113.949 35.5219 113.884 35.2662 113.762 35.136C113.636 35.0082 113.406 34.9431 113.066 34.9431H111.87V37.3233H110.676V31.2534H113.478C113.877 31.263 114.185 31.3137 114.402 31.4101H114.397ZM111.867 32.2976V33.9374H113.187C113.449 33.9374 113.644 33.9061 113.776 33.8386C114.007 33.7228 114.123 33.4938 114.123 33.1537C114.123 32.7847 114.012 32.5339 113.785 32.4085C113.661 32.3362 113.47 32.3 113.22 32.3H111.867V32.2976Z" fill="white"/>
<path d="M123.049 37.3233H121.836V31.2534H123.049V37.3233Z" fill="white"/>
<path d="M128.449 31.2534V32.3289H126.694V37.3257H125.462V32.3289H123.707V31.2534H128.451H128.449Z" fill="white"/>
<path d="M132.499 31.2529H133.883L131.928 35.0415V37.3229H130.708V35.0463L128.684 31.2505H130.126L131.336 33.8936L132.499 31.2505V31.2529Z" fill="white"/>
<path d="M117.406 35.4789C117.445 35.7539 117.517 35.9612 117.628 36.0987C117.83 36.3495 118.176 36.4725 118.668 36.4725C118.961 36.4725 119.199 36.4412 119.385 36.3737C119.734 36.2458 119.907 36.0119 119.907 35.6695C119.907 35.4669 119.823 35.3149 119.654 35.204C119.486 35.0955 119.216 35.0014 118.845 34.9195L118.21 34.7747C117.584 34.6301 117.156 34.4757 116.925 34.3093C116.53 34.0296 116.332 33.5907 116.332 32.995C116.332 32.4524 116.525 31.999 116.913 31.6397C117.298 31.2803 117.864 31.1019 118.609 31.1019C119.233 31.1019 119.765 31.2707 120.205 31.6084C120.646 31.9484 120.877 32.438 120.897 33.0794H119.734C119.712 32.7152 119.553 32.4572 119.262 32.3029C119.067 32.2016 118.824 32.151 118.533 32.151C118.21 32.151 117.952 32.216 117.76 32.3487C117.567 32.4814 117.471 32.6646 117.471 32.901C117.471 33.118 117.565 33.282 117.757 33.3881C117.881 33.4581 118.138 33.5425 118.533 33.6389L119.556 33.8921C120.003 34.003 120.343 34.1501 120.567 34.3334C120.914 34.618 121.089 35.0328 121.089 35.5729C121.089 36.1132 120.882 36.5883 120.47 36.9548C120.056 37.3214 119.474 37.5047 118.723 37.5047C117.972 37.5047 117.348 37.3238 116.908 36.9644C116.467 36.6027 116.246 36.1083 116.246 35.4789H117.411H117.406Z" fill="white"/>
<path d="M141.515 33.1806C141.43 32.7706 141.224 32.4836 140.891 32.3221C140.708 32.2328 140.504 32.187 140.277 32.187C139.846 32.187 139.49 32.3703 139.213 32.7344C138.934 33.0985 138.797 33.646 138.797 34.3791C138.797 35.1123 138.949 35.638 139.247 35.9442C139.548 36.2505 139.89 36.4024 140.272 36.4024C140.655 36.4024 140.956 36.2818 141.197 36.0407C141.437 35.7995 141.584 35.4836 141.64 35.0929H140.4V34.0921H142.632V37.3116H141.89L141.78 36.5616C141.563 36.8462 141.367 37.0463 141.197 37.1621C140.9 37.3646 140.537 37.466 140.104 37.466C139.394 37.466 138.811 37.191 138.359 36.6412C137.884 36.0889 137.648 35.3317 137.648 34.3694C137.648 33.4072 137.889 32.6187 138.366 32.0327C138.845 31.4466 139.475 31.1524 140.26 31.1524C140.942 31.1524 141.491 31.3477 141.902 31.7336C142.316 32.1219 142.552 32.6042 142.615 33.183H141.512L141.515 33.1806Z" fill="white"/>
<path d="M158.074 34.7071C157.759 35.0013 157.312 35.1484 156.729 35.1484H155.612V37.3092H154.5V31.2995H156.803C157.335 31.2995 157.759 31.4538 158.074 31.765C158.39 32.0736 158.549 32.5536 158.549 33.2047C158.549 33.9137 158.392 34.4153 158.077 34.7071H158.074ZM157.22 32.5366C157.078 32.4017 156.878 32.3365 156.623 32.3365H155.612V34.1139H156.623C156.878 34.1139 157.078 34.0415 157.22 33.8968C157.362 33.7521 157.434 33.523 157.434 33.2095C157.434 32.896 157.362 32.6717 157.22 32.5366Z" fill="white"/>
<path d="M163.408 32.3674H160.57V33.6431H163.175V34.6824H160.57V36.2258H163.538V37.3063H159.473V31.3038H163.406V32.3674H163.408Z" fill="white"/>
<path d="M164.41 31.2995H165.53V36.2288H168.202V37.3092H164.413V31.2995H164.41Z" fill="white"/>
<path d="M171.629 37.3092V31.2995H172.74V33.5929H174.823V31.2995H175.935V37.3092H174.823V34.6275H172.74V37.3092H171.629Z" fill="white"/>
<path d="M191.384 34.7071C191.068 35.0013 190.62 35.1484 190.038 35.1484H188.921V37.3092H187.809V31.2995H190.112C190.645 31.2995 191.066 31.4538 191.384 31.765C191.699 32.0736 191.857 32.5536 191.857 33.2047C191.857 33.9137 191.701 34.4153 191.388 34.7071H191.384ZM190.529 32.5366C190.386 32.4017 190.187 32.3365 189.932 32.3365H188.921V34.1139H189.932C190.187 34.1139 190.386 34.0415 190.529 33.8968C190.67 33.7521 190.74 33.523 190.74 33.2095C190.74 32.896 190.668 32.6717 190.529 32.5366Z" fill="white"/>
<path d="M193.769 37.3091H192.656V31.2995H193.769V37.3091Z" fill="white"/>
<path d="M198.721 31.2995V32.363H197.113V37.3091H195.982V32.363H194.371V31.2995H198.721Z" fill="white"/>
<path d="M200.352 31.2995H201.62L203.512 37.3092H202.297L201.945 36.0745H199.973L199.61 37.3092H198.438L200.352 31.2995ZM200.279 35.0374H201.651L200.975 32.6741L200.279 35.0374Z" fill="white"/>
<path d="M204.199 31.2995H205.318V36.2287H207.99V37.3091H204.201V31.2995H204.199Z" fill="white"/>
<path d="M150.331 35.4268C150.367 35.6993 150.435 35.9043 150.536 36.0394C150.721 36.2854 151.039 36.4083 151.491 36.4083C151.761 36.4083 151.98 36.377 152.148 36.3119C152.468 36.1865 152.628 35.955 152.628 35.6149C152.628 35.4172 152.55 35.2628 152.396 35.1544C152.243 35.0482 151.994 34.9542 151.655 34.8722L151.072 34.7299C150.5 34.5877 150.107 34.4333 149.896 34.2693C149.534 33.9919 149.354 33.5579 149.354 32.9695C149.354 32.4316 149.53 31.9855 149.883 31.6286C150.235 31.2717 150.755 31.0933 151.439 31.0933C152.009 31.0933 152.498 31.2621 152.902 31.5949C153.306 31.9301 153.518 32.4148 153.537 33.0539H152.471C152.452 32.6921 152.305 32.4365 152.038 32.2845C151.857 32.1857 151.636 32.1351 151.369 32.1351C151.072 32.1351 150.837 32.2001 150.658 32.3304C150.483 32.4606 150.394 32.6439 150.394 32.8778C150.394 33.0924 150.481 33.254 150.656 33.3601C150.767 33.43 151.005 33.5145 151.366 33.6085L152.305 33.8593C152.717 33.9679 153.025 34.1125 153.232 34.2958C153.55 34.578 153.711 34.988 153.711 35.5233C153.711 36.0587 153.523 36.5289 153.143 36.8907C152.765 37.2548 152.23 37.4357 151.54 37.4357C150.849 37.4357 150.281 37.2573 149.876 36.9003C149.472 36.5434 149.27 36.0539 149.27 35.4293H150.336L150.331 35.4268Z" fill="white"/>
<path d="M183.592 35.4268C183.626 35.6993 183.695 35.9043 183.797 36.0394C183.982 36.2854 184.3 36.4083 184.75 36.4083C185.019 36.4083 185.238 36.377 185.407 36.3119C185.728 36.1865 185.886 35.955 185.886 35.6149C185.886 35.4172 185.809 35.2628 185.655 35.1544C185.501 35.0482 185.253 34.9542 184.911 34.8722L184.329 34.7299C183.756 34.5877 183.364 34.4333 183.149 34.2693C182.788 33.9919 182.608 33.5579 182.608 32.9695C182.608 32.4316 182.783 31.9855 183.137 31.6286C183.489 31.2717 184.009 31.0933 184.692 31.0933C185.263 31.0933 185.751 31.2621 186.156 31.5949C186.56 31.9301 186.772 32.4148 186.791 33.0539H185.725C185.705 32.6921 185.559 32.4365 185.292 32.2845C185.111 32.1857 184.89 32.1351 184.623 32.1351C184.326 32.1351 184.091 32.2001 183.912 32.3304C183.737 32.4606 183.648 32.6439 183.648 32.8778C183.648 33.0924 183.735 33.254 183.91 33.3601C184.021 33.43 184.259 33.5145 184.62 33.6085L185.559 33.8593C185.97 33.9679 186.278 34.1125 186.486 34.2958C186.806 34.578 186.964 34.988 186.964 35.5233C186.964 36.0587 186.775 36.5289 186.397 36.8907C186.019 37.2548 185.484 37.4357 184.794 37.4357C184.103 37.4357 183.535 37.2573 183.13 36.9003C182.726 36.5434 182.523 36.0539 182.523 35.4293H183.59L183.592 35.4268Z" fill="white"/>
<path d="M147.918 36.8562C147.523 37.312 146.84 37.5049 146.091 37.5049C145.342 37.5049 144.678 37.3506 144.283 36.8948C143.751 36.3329 143.629 35.4117 143.629 34.3602C143.629 33.3088 143.713 32.3779 144.245 31.8401C144.642 31.3843 145.342 31.1553 146.094 31.1553C146.845 31.1553 147.565 31.4036 147.959 31.8594C148.489 32.3996 148.544 33.275 148.544 34.3506C148.544 35.4262 148.451 36.2991 147.921 36.8586L147.918 36.8562ZM147.215 35.9398C147.47 35.5805 147.439 35.0379 147.439 34.3771C147.439 33.7163 147.451 33.1327 147.199 32.771C146.944 32.4117 146.515 32.2911 146.079 32.2911C145.643 32.2911 145.21 32.4117 144.953 32.771C144.693 33.1303 144.702 33.6753 144.702 34.3385C144.702 35.0017 144.731 35.6191 144.991 35.9759C145.249 36.3353 145.645 36.4221 146.081 36.4221C146.517 36.4221 146.965 36.2967 147.22 35.9374L147.215 35.9398Z" fill="white"/>
<path d="M181.216 36.8562C180.821 37.312 180.137 37.5049 179.389 37.5049C178.64 37.5049 177.975 37.3506 177.581 36.8948C177.051 36.3329 176.926 35.4117 176.926 34.3602C176.926 33.3088 177.013 32.3779 177.542 31.8401C177.939 31.3843 178.64 31.1553 179.389 31.1553C180.137 31.1553 180.859 31.4036 181.254 31.8594C181.784 32.3996 181.839 33.275 181.839 34.3506C181.839 35.4262 181.745 36.2991 181.216 36.8586V36.8562ZM180.513 35.9398C180.768 35.5805 180.736 35.0379 180.736 34.3771C180.736 33.7163 180.751 33.1327 180.496 32.771C180.24 32.4117 179.812 32.2911 179.376 32.2911C178.941 32.2911 178.507 32.4117 178.25 32.771C177.99 33.1303 178 33.6753 178 34.3385C178 35.0017 178.028 35.6191 178.288 35.9759C178.546 36.3353 178.941 36.4221 179.376 36.4221C179.812 36.4221 180.26 36.2967 180.515 35.9374L180.513 35.9398Z" fill="white"/>
<path d="M72.9237 26.9445H58.4492V25.102H63.2251V17.6237H65.8946V25.102H72.9213V26.9445H72.9237ZM71.7827 13.4976V25.2757L69.142 25.2226L69.1805 14.6623C69.1805 13.881 68.4872 13.8496 68.3524 13.8496H59.323V12.0072H70.5911C71.9584 12.0072 71.7851 13.4951 71.7851 13.4951L71.7827 13.4976Z" fill="white"/>
<path d="M85.6568 19.7149L84.5445 21.4006C83.7309 21.1088 82.9078 20.5806 82.0699 19.8162C81.232 19.0517 80.6714 18.3161 80.3845 17.6071C80.1322 18.3523 79.6049 19.1023 78.7957 19.8523C77.9896 20.6047 77.0963 21.198 76.1146 21.6393L74.9492 19.9174C76.3602 19.2084 77.3707 18.3161 77.98 17.2406C78.5796 16.2036 78.8754 14.8531 78.8754 13.1915V11.7808H81.7977V13.1554C81.7977 16.2953 83.0833 18.4825 85.6545 19.7173L85.6568 19.7149Z" fill="white"/>
<path d="M89.6866 28.1288H78.1249C77.2973 28.1288 76.8828 27.7236 76.8828 26.9181V22.9197H79.5529V25.8305C79.5529 26.1223 79.7115 26.2694 80.0338 26.2694H89.6866V28.1288Z" fill="white"/>
<path d="M89.4137 11.9885H86.7422V23.6388H89.4137V11.9885Z" fill="white"/>
<path d="M106.695 28.392H104.341V20.0937H102.649V28.1991H100.376V26.47C100.376 26.47 94.8858 26.5182 94.4882 26.47C93.9254 26.4121 93.5257 26.1999 93.2948 25.8382C93.0949 25.5343 92.9961 25.0544 92.9961 24.4008V12.2514H98.6025V14.0937H95.5017V23.9595C95.5017 24.3213 95.4419 24.7554 95.9494 24.7554C97.5145 24.7554 100.278 24.8084 100.278 24.8084L100.379 11.9885H102.651V18.2537H104.344V11.9885H106.697V28.392H106.695Z" fill="white"/>
<path d="M122.103 22.1005H110.57V23.9429H120.233C120.565 23.9429 120.731 24.1286 120.731 24.5047V28.1535H123.17L123.184 23.3641C123.24 22.5225 122.878 22.1005 122.105 22.1005H122.103Z" fill="white"/>
<path d="M123.236 15.6683V11.5976H120.566V21.1763H123.236V17.5108H125.092V15.6683H123.236Z" fill="white"/>
<path d="M140.978 27.157H126.293V25.0445H128.544V17.9183H130.966V25.0445H132.935V17.9183H135.356V25.0445H140.978V27.157ZM139.873 13.7414L139.846 25.3677H137.388V14.8291C137.388 14.4071 137.217 14.1972 136.875 14.1972H127.244V12.3548H138.645C139.528 12.3548 139.938 12.8178 139.873 13.7414Z" fill="white"/>
<path d="M157.821 21.4438H142.66V19.6375H148.914V18.2509H146.11C145.137 18.2509 144.651 17.7951 144.651 16.8835V11.9711H147.32V13.3216H153.174V11.9711H155.845V18.2533H151.564V19.64H157.818V21.4463L157.821 21.4438ZM155.847 23.7951L155.864 28.3916H153.909L153.919 24.972C153.919 24.562 153.74 24.357 153.387 24.357H144.586V22.5508H154.771C155.546 22.5508 155.904 22.9655 155.849 23.7951H155.847ZM153.177 16.4447V15.111H147.323V15.9695C147.323 16.2854 147.489 16.4422 147.821 16.4422H153.18L153.177 16.4447Z" fill="white"/>
<path d="M174.66 19.6543H159.5V21.4076H174.66V19.6543Z" fill="white"/>
<path d="M171.761 22.4077H161.609V27.0934C161.609 27.6192 161.718 27.9978 161.932 28.2244C162.149 28.4511 162.505 28.5669 163.003 28.5669H172.678L172.673 23.4254C172.707 22.7478 172.401 22.4077 171.761 22.4077ZM169.919 26.8113H164.76C164.44 26.8113 164.279 26.6521 164.279 26.3386V24.1633H169.587C169.808 24.1633 169.919 24.2791 169.919 24.5131V26.8113Z" fill="white"/>
<path d="M163.664 17.8112C164.483 18.5129 165.622 18.8626 167.08 18.8626C168.539 18.8626 169.68 18.5057 170.499 17.7919C171.271 17.1263 171.659 16.2244 171.659 15.0909C171.659 13.9575 171.271 13.0508 170.499 12.3706C169.68 11.6689 168.541 11.3192 167.08 11.3192C165.619 11.3192 164.481 11.6689 163.664 12.3706C162.892 13.0483 162.504 13.9551 162.504 15.0909C162.504 16.2268 162.892 17.1311 163.664 17.8112ZM165.628 13.6874C165.988 13.3256 166.471 13.1448 167.08 13.1448C167.689 13.1448 168.173 13.3256 168.531 13.6874C168.893 14.0515 169.071 14.517 169.071 15.0909C169.071 15.6648 168.891 16.1183 168.531 16.4872C168.173 16.8562 167.689 17.0395 167.08 17.0395C166.471 17.0395 165.988 16.8562 165.628 16.4872C165.27 16.1183 165.089 15.6528 165.089 15.0909C165.089 14.529 165.27 14.0491 165.628 13.6874Z" fill="white"/>
<path d="M119.184 12.8006H115.854V11.7057H112.781V12.8006H109.512V14.6431H110.96C110.937 14.6623 110.91 14.6792 110.886 14.7009C110.113 15.3786 109.726 16.2853 109.726 17.4211C109.726 18.557 110.113 19.4614 110.886 20.1414C111.705 20.8432 112.843 21.1928 114.302 21.1928C115.761 21.1928 116.902 20.8359 117.72 20.1221C118.495 19.4541 118.883 18.5546 118.883 17.4211C118.883 16.2877 118.495 15.381 117.72 14.7009C117.696 14.6816 117.669 14.6623 117.645 14.6431H119.186V12.8006H119.184ZM115.753 18.8151C115.395 19.184 114.911 19.3673 114.302 19.3673C113.692 19.3673 113.209 19.184 112.85 18.8151C112.492 18.4461 112.311 17.9806 112.311 17.4211C112.311 16.8617 112.492 16.3793 112.85 16.0176C113.211 15.6559 113.695 15.4726 114.302 15.4726C114.909 15.4726 115.395 15.6535 115.753 16.0176C116.112 16.3793 116.292 16.8472 116.292 17.4211C116.292 17.9951 116.112 18.4485 115.753 18.8151Z" fill="white"/>
<path d="M190.391 21.0584H187.739V19.023H185.318V20.4603H178.599C178.045 20.4603 177.656 20.347 177.429 20.1179C177.203 19.8912 177.09 19.5126 177.09 18.9869V12.1452H179.759V14.4796H182.679V12.1452H185.318V13.7079H187.739V11.9885H190.391V21.0584ZM182.679 18.6203V16.3052H179.759V18.1114C179.759 18.4515 179.93 18.6203 180.274 18.6203H182.679ZM190.259 25.0061C190.259 26.1758 189.85 27.1139 189.032 27.8229C188.213 28.5295 187.07 28.8839 185.599 28.8839C184.129 28.8839 182.997 28.5295 182.173 27.8229C181.35 27.1139 180.939 26.1758 180.939 25.0061C180.939 23.8366 181.35 22.8791 182.173 22.1725C182.997 21.4635 184.14 21.1114 185.599 21.1114C187.058 21.1114 188.213 21.466 189.032 22.1725C189.85 22.8791 190.259 23.8245 190.259 25.0061ZM187.672 25.0061C187.672 24.4081 187.484 23.933 187.108 23.5761C186.733 23.2192 186.23 23.0407 185.599 23.0407C184.969 23.0407 184.482 23.2192 184.107 23.5761C183.731 23.933 183.543 24.4081 183.543 25.0061C183.543 25.6042 183.731 26.06 184.107 26.4169C184.482 26.7739 184.981 26.9523 185.599 26.9523C186.217 26.9523 186.733 26.7739 187.108 26.4169C187.484 26.06 187.672 25.5897 187.672 25.0061ZM187.739 17.2336V15.4973H185.318V17.2336H187.739Z" fill="white"/>
<path d="M203.69 20.9137L199.92 20.9427V23.4097H197.282V20.9017H193.582V19.1822L203.7 19.1967L203.688 20.9137H203.69ZM202.823 15.0415C202.823 16.0351 202.479 16.8381 201.795 17.4459C201.066 18.1019 200.038 18.4274 198.71 18.4274C197.381 18.4274 196.365 18.0994 195.624 17.4459C194.927 16.8381 194.579 16.0375 194.579 15.0415C194.579 14.0456 194.925 13.2474 195.624 12.6372C196.365 11.9933 197.392 11.6726 198.71 11.6726C200.026 11.6726 201.066 11.9958 201.795 12.6372C202.482 13.2449 202.823 14.0456 202.823 15.0415ZM207.999 28.3414H197.566C197.114 28.3414 196.793 28.2474 196.613 28.0617C196.43 27.8736 196.338 27.5577 196.338 27.1139V24.044H199.008V26.1662C199.008 26.47 199.157 26.6219 199.455 26.6219H207.997V28.3414H207.999ZM200.303 15.0415C200.303 14.5737 200.158 14.1999 199.872 13.9178C199.583 13.638 199.198 13.4982 198.71 13.4982C198.221 13.4982 197.836 13.638 197.549 13.9178C197.263 14.1999 197.118 14.5737 197.118 15.0415C197.118 15.5094 197.263 15.8832 197.549 16.1653C197.838 16.4451 198.223 16.5874 198.71 16.5874C199.196 16.5874 199.583 16.4475 199.872 16.1653C200.158 15.8856 200.303 15.5094 200.303 15.0415ZM207.32 24.5167H204.65V23.2529H201.697V21.6034H204.65V11.9885H207.32V24.5142V24.5167Z" fill="white"/>
<path fill-rule="evenodd" clip-rule="evenodd" d="M23.9589 40.9703C14.619 40.9703 7.017 33.3569 7.017 24C7.017 14.6431 14.619 7.02974 23.9589 7.02974C33.2988 7.02974 40.896 14.6431 40.896 24C40.896 33.3569 33.2988 40.9703 23.9589 40.9703ZM23.9589 0C10.7482 0 0 10.7653 0 24C0 37.2347 10.7482 48 23.9589 48C37.1696 48 47.9178 37.2347 47.9178 24C47.9178 10.7653 37.1696 0 23.9589 0Z" fill="white"/>
<path d="M20.2774 19.6951C19.5793 19.6806 18.9222 19.712 18.3011 19.7795C12.8584 20.3606 10.3477 23.6959 10.3477 23.6959L17.4441 29.1002C21.8782 25.9362 26.358 27.1685 26.358 27.1685V25.1501C21.1295 24.1709 17.6656 26.4668 17.6656 26.4668L13.8646 23.556C17.9545 20.3004 22.4583 21.5833 22.4583 21.5833V13.7698L27.0946 17.3341V35.1364C27.0946 36.388 26.5674 37.7337 24.8824 37.1718C23.1997 36.6147 22.4583 34.6396 22.4583 33.6509V27.8607C22.4583 27.8607 21.3173 28.0222 20.275 28.507V32.9057C20.275 34.5624 20.6938 36.9643 22.9277 38.5343C23.1059 38.6597 23.2961 38.7803 23.4982 38.896C26.033 40.3237 27.9515 39.224 28.5196 38.4475C29.1528 37.5841 29.2563 36.5737 29.2563 35.8164V16.1741L20.275 9.23364V19.6951H20.2774ZM32.7515 20.1605C31.4468 19.5262 29.7714 19.9627 29.7714 19.9627L34.2704 23.4716C31.5961 23.8092 29.9953 25.0874 29.9953 25.0874V27.1661C34.2897 24.2915 38.7238 24.7039 38.7238 24.7039L32.754 20.1581L32.7515 20.1605Z" fill="white"/>
<path d="M17.1587 23.168C17.1587 23.057 17.125 22.9726 17.0575 22.9124C16.9781 22.8376 16.8481 22.8015 16.6698 22.8015C16.4916 22.8015 16.3639 22.8472 16.2868 22.9364C16.2267 23.0088 16.1953 23.1246 16.1953 23.2717V23.6454C16.1953 23.807 16.2267 23.9228 16.2868 23.9952C16.3615 24.0819 16.494 24.1229 16.6818 24.1229C16.8697 24.1229 16.9901 24.0771 17.0648 23.9927C17.1274 23.9252 17.1563 23.8191 17.1563 23.6816V23.631H16.9058V23.7468C16.9058 23.8167 16.8841 23.8673 16.8456 23.9083C16.8047 23.9469 16.7517 23.9638 16.6795 23.9638C16.6072 23.9638 16.5542 23.9445 16.5109 23.9059C16.4699 23.8673 16.4482 23.8191 16.4482 23.7612V23.1704C16.4482 23.1101 16.4699 23.0595 16.5109 23.0233C16.5494 22.9847 16.6096 22.9702 16.6795 22.9702C16.7541 22.9702 16.8143 22.9871 16.8529 23.0185C16.8866 23.0426 16.9058 23.0787 16.9058 23.1246V23.2862H17.1563V23.168H17.1587Z" fill="#8A949E"/>
<path d="M18.3622 23.6889C18.3622 23.8167 18.338 23.9083 18.2899 23.9735C18.2176 24.0723 18.0828 24.1229 17.8901 24.1229C17.6974 24.1229 17.5601 24.0723 17.4878 23.9735C17.4421 23.9108 17.418 23.8143 17.418 23.6889V23.221C17.418 23.1005 17.4397 23.0112 17.4878 22.9486C17.5601 22.8497 17.695 22.8015 17.8901 22.8015C18.0851 22.8015 18.2128 22.8497 18.2899 22.9486C18.338 23.0136 18.3622 23.1029 18.3622 23.221V23.6889ZM18.1092 23.1535C18.1092 23.1029 18.0923 23.0618 18.0586 23.0281C18.0177 22.9895 17.9623 22.9702 17.8925 22.9702C17.8178 22.9702 17.76 22.9895 17.7215 23.0305C17.6878 23.0643 17.6709 23.1053 17.6709 23.1535V23.7468C17.6709 23.8022 17.6878 23.8481 17.7166 23.8866C17.7576 23.9348 17.813 23.959 17.8925 23.959C17.972 23.959 18.0322 23.9348 18.0707 23.8866C18.0972 23.8481 18.1117 23.8022 18.1117 23.7395V23.1511L18.1092 23.1535Z" fill="#8A949E"/>
<path d="M18.6196 22.826H19.0074C19.1808 22.826 19.3037 22.8405 19.3831 22.867C19.4698 22.8983 19.5156 22.9538 19.5156 23.031V23.2046C19.5156 23.2745 19.5035 23.3276 19.4794 23.3589C19.4482 23.3975 19.3855 23.4241 19.2916 23.4361C19.3446 23.4554 19.388 23.4747 19.4192 23.4916C19.4506 23.5133 19.4723 23.535 19.4843 23.5591C19.4988 23.5808 19.506 23.6074 19.5108 23.6411C19.5108 23.6579 19.5156 23.6941 19.5156 23.74V24.1017H19.2579V23.6483C19.2579 23.6146 19.2579 23.5904 19.2506 23.5784C19.2434 23.5591 19.2314 23.5447 19.2073 23.5325C19.1832 23.5205 19.1471 23.5133 19.0941 23.5108C19.0411 23.5036 18.9664 23.5036 18.8701 23.5036V24.1017H18.6172V22.826H18.6196ZM18.8725 23.3469H18.9135C19.0074 23.3469 19.07 23.3469 19.1037 23.3469C19.1495 23.3445 19.1856 23.3397 19.2073 23.3372C19.2289 23.33 19.241 23.3228 19.2483 23.3083C19.2555 23.2987 19.2579 23.2818 19.2579 23.2553V23.084C19.2579 23.0575 19.2531 23.0382 19.2458 23.0261C19.2386 23.0141 19.2241 23.0044 19.2001 22.9996C19.176 22.9924 19.1398 22.9876 19.0869 22.9876C19.0507 22.9876 18.9785 22.9876 18.8725 22.9876V23.3493V23.3469Z" fill="#8A949E"/>
<path d="M20.4211 22.826L20.7391 24.1017H20.4861L20.4043 23.7737H20.0598L19.9804 24.1017H19.7227L20.0406 22.826H20.4211ZM20.1007 23.5977H20.3585L20.2309 23.0527L20.1007 23.5977Z" fill="#8A949E"/>
<path d="M22.2245 22.826V24.1017H21.9716V23.0333L21.7211 24.1017H21.4706L21.2153 23.0333V24.1017H20.9648V22.826H21.4152L21.4851 23.1515L21.5934 23.7906L21.7789 22.826H22.2221H22.2245Z" fill="#8A949E"/>
<path d="M23.2305 22.826H23.6833C23.8759 22.826 24.006 22.8453 24.0758 22.8862C24.1433 22.9248 24.1746 22.9899 24.1746 23.0912V23.7882C24.1746 23.9015 24.1409 23.9787 24.071 24.0269C24.0012 24.0752 23.8687 24.0992 23.6808 24.0992H23.2329V22.8284L23.2305 22.826ZM23.4834 23.9329C23.6038 23.9329 23.6857 23.9329 23.7266 23.9256C23.7893 23.9208 23.8326 23.9112 23.8591 23.8967C23.8856 23.8871 23.9 23.8605 23.9121 23.8292C23.9169 23.805 23.9217 23.7616 23.9217 23.6966V23.1708C23.9217 23.1178 23.9169 23.0816 23.9121 23.0623C23.9 23.0381 23.8832 23.0189 23.8567 23.0068C23.8302 22.9948 23.7868 22.9876 23.7242 22.9851C23.6808 22.9827 23.599 22.9827 23.481 22.9827V23.9304L23.4834 23.9329Z" fill="#8A949E"/>
<path d="M24.457 22.826H25.1482V22.9924H24.7099V23.3637H25.1217V23.5229H24.7099V23.9329H25.1627V24.1017H24.457V22.826Z" fill="#8A949E"/>
<path d="M26.3294 23.6889C26.3294 23.8167 26.3029 23.9083 26.2571 23.9735C26.1849 24.0723 26.05 24.1229 25.8573 24.1229C25.6646 24.1229 25.5273 24.0723 25.455 23.9735C25.4093 23.9108 25.3828 23.8143 25.3828 23.6889V23.221C25.3828 23.1005 25.4069 23.0112 25.455 22.9486C25.5249 22.8497 25.6598 22.8015 25.8573 22.8015C26.0548 22.8015 26.1824 22.8497 26.2571 22.9486C26.3052 23.0136 26.3294 23.1029 26.3294 23.221V23.6889ZM26.0764 23.1535C26.0764 23.1029 26.0596 23.0618 26.0235 23.0281C25.9849 22.9895 25.9272 22.9702 25.8573 22.9702C25.7875 22.9702 25.7248 22.9895 25.6839 23.0305C25.6525 23.0643 25.6357 23.1053 25.6357 23.1535V23.7468C25.6357 23.8022 25.6501 23.8481 25.6815 23.8866C25.72 23.9348 25.7778 23.959 25.8549 23.959C25.9367 23.959 25.997 23.9348 26.0331 23.8866C26.0596 23.8481 26.0741 23.8022 26.0741 23.7395V23.1511L26.0764 23.1535Z" fill="#8A949E"/>
<path d="M17.1587 23.168C17.1587 23.057 17.125 22.9726 17.0575 22.9124C16.9781 22.8376 16.8481 22.8015 16.6698 22.8015C16.4916 22.8015 16.3639 22.8472 16.2868 22.9364C16.2267 23.0088 16.1953 23.1246 16.1953 23.2717V23.6454C16.1953 23.807 16.2267 23.9228 16.2868 23.9952C16.3615 24.0819 16.494 24.1229 16.6818 24.1229C16.8697 24.1229 16.9901 24.0771 17.0648 23.9927C17.1274 23.9252 17.1563 23.8191 17.1563 23.6816V23.631H16.9058V23.7468C16.9058 23.8167 16.8841 23.8673 16.8456 23.9083C16.8047 23.9469 16.7517 23.9638 16.6795 23.9638C16.6072 23.9638 16.5542 23.9445 16.5109 23.9059C16.4699 23.8673 16.4482 23.8191 16.4482 23.7612V23.1704C16.4482 23.1101 16.4699 23.0595 16.5109 23.0233C16.5494 22.9847 16.6096 22.9702 16.6795 22.9702C16.7541 22.9702 16.8143 22.9871 16.8529 23.0185C16.8866 23.0426 16.9058 23.0787 16.9058 23.1246V23.2862H17.1563V23.168H17.1587Z" fill="#8A949E"/>
<path d="M18.3622 23.6889C18.3622 23.8167 18.338 23.9083 18.2899 23.9735C18.2176 24.0723 18.0828 24.1229 17.8901 24.1229C17.6974 24.1229 17.5601 24.0723 17.4878 23.9735C17.4421 23.9108 17.418 23.8143 17.418 23.6889V23.221C17.418 23.1005 17.4397 23.0112 17.4878 22.9486C17.5601 22.8497 17.695 22.8015 17.8901 22.8015C18.0851 22.8015 18.2128 22.8497 18.2899 22.9486C18.338 23.0136 18.3622 23.1029 18.3622 23.221V23.6889ZM18.1092 23.1535C18.1092 23.1029 18.0923 23.0618 18.0586 23.0281C18.0177 22.9895 17.9623 22.9702 17.8925 22.9702C17.8178 22.9702 17.76 22.9895 17.7215 23.0305C17.6878 23.0643 17.6709 23.1053 17.6709 23.1535V23.7468C17.6709 23.8022 17.6878 23.8481 17.7166 23.8866C17.7576 23.9348 17.813 23.959 17.8925 23.959C17.972 23.959 18.0322 23.9348 18.0707 23.8866C18.0972 23.8481 18.1117 23.8022 18.1117 23.7395V23.1511L18.1092 23.1535Z" fill="#8A949E"/>
<path d="M18.6196 22.826H19.0074C19.1808 22.826 19.3037 22.8405 19.3831 22.867C19.4698 22.8983 19.5156 22.9538 19.5156 23.031V23.2046C19.5156 23.2745 19.5035 23.3276 19.4794 23.3589C19.4482 23.3975 19.3855 23.4241 19.2916 23.4361C19.3446 23.4554 19.388 23.4747 19.4192 23.4916C19.4506 23.5133 19.4723 23.535 19.4843 23.5591C19.4988 23.5808 19.506 23.6074 19.5108 23.6411C19.5108 23.6579 19.5156 23.6941 19.5156 23.74V24.1017H19.2579V23.6483C19.2579 23.6146 19.2579 23.5904 19.2506 23.5784C19.2434 23.5591 19.2314 23.5447 19.2073 23.5325C19.1832 23.5205 19.1471 23.5133 19.0941 23.5108C19.0411 23.5036 18.9664 23.5036 18.8701 23.5036V24.1017H18.6172V22.826H18.6196ZM18.8725 23.3469H18.9135C19.0074 23.3469 19.07 23.3469 19.1037 23.3469C19.1495 23.3445 19.1856 23.3397 19.2073 23.3372C19.2289 23.33 19.241 23.3228 19.2483 23.3083C19.2555 23.2987 19.2579 23.2818 19.2579 23.2553V23.084C19.2579 23.0575 19.2531 23.0382 19.2458 23.0261C19.2386 23.0141 19.2241 23.0044 19.2001 22.9996C19.176 22.9924 19.1398 22.9876 19.0869 22.9876C19.0507 22.9876 18.9785 22.9876 18.8725 22.9876V23.3493V23.3469Z" fill="#8A949E"/>
<path d="M20.4211 22.826L20.7391 24.1017H20.4861L20.4043 23.7737H20.0598L19.9804 24.1017H19.7227L20.0406 22.826H20.4211ZM20.1007 23.5977H20.3585L20.2309 23.0527L20.1007 23.5977Z" fill="#8A949E"/>
<path d="M22.2245 22.826V24.1017H21.9716V23.0333L21.7211 24.1017H21.4706L21.2153 23.0333V24.1017H20.9648V22.826H21.4152L21.4851 23.1515L21.5934 23.7906L21.7789 22.826H22.2221H22.2245Z" fill="#8A949E"/>
<path d="M23.2305 22.826H23.6833C23.8759 22.826 24.006 22.8453 24.0758 22.8862C24.1433 22.9248 24.1746 22.9899 24.1746 23.0912V23.7882C24.1746 23.9015 24.1409 23.9787 24.071 24.0269C24.0012 24.0752 23.8687 24.0992 23.6808 24.0992H23.2329V22.8284L23.2305 22.826ZM23.4834 23.9329C23.6038 23.9329 23.6857 23.9329 23.7266 23.9256C23.7893 23.9208 23.8326 23.9112 23.8591 23.8967C23.8856 23.8871 23.9 23.8605 23.9121 23.8292C23.9169 23.805 23.9217 23.7616 23.9217 23.6966V23.1708C23.9217 23.1178 23.9169 23.0816 23.9121 23.0623C23.9 23.0381 23.8832 23.0189 23.8567 23.0068C23.8302 22.9948 23.7868 22.9876 23.7242 22.9851C23.6808 22.9827 23.599 22.9827 23.481 22.9827V23.9304L23.4834 23.9329Z" fill="#8A949E"/>
<path d="M24.457 22.826H25.1482V22.9924H24.7099V23.3637H25.1217V23.5229H24.7099V23.9329H25.1627V24.1017H24.457V22.826Z" fill="#8A949E"/>
<path d="M26.3294 23.6889C26.3294 23.8167 26.3029 23.9083 26.2571 23.9735C26.1849 24.0723 26.05 24.1229 25.8573 24.1229C25.6646 24.1229 25.5273 24.0723 25.455 23.9735C25.4093 23.9108 25.3828 23.8143 25.3828 23.6889V23.221C25.3828 23.1005 25.4069 23.0112 25.455 22.9486C25.5249 22.8497 25.6598 22.8015 25.8573 22.8015C26.0548 22.8015 26.1824 22.8497 26.2571 22.9486C26.3052 23.0136 26.3294 23.1029 26.3294 23.221V23.6889ZM26.0764 23.1535C26.0764 23.1029 26.0596 23.0618 26.0235 23.0281C25.9849 22.9895 25.9272 22.9702 25.8573 22.9702C25.7875 22.9702 25.7248 22.9895 25.6839 23.0305C25.6525 23.0643 25.6357 23.1053 25.6357 23.1535V23.7468C25.6357 23.8022 25.6501 23.8481 25.6815 23.8866C25.72 23.9348 25.7778 23.959 25.8549 23.959C25.9367 23.959 25.997 23.9348 26.0331 23.8866C26.0596 23.8481 26.0741 23.8022 26.0741 23.7395V23.1511L26.0764 23.1535Z" fill="#8A949E"/>
<path d="M20.2771 19.6953V11.7854L18.3008 10.3384V19.7797C18.9219 19.7122 19.579 19.6809 20.2771 19.6953ZM22.4605 13.7701V16.1986L27.0967 19.7195V17.3344L22.4605 13.7701ZM20.2771 32.906V28.5073C18.7606 29.1728 18.3008 29.5514 18.3008 29.5587C18.3008 34.7557 20.7393 37.201 22.9299 38.5346C20.6984 36.9646 20.2771 34.5627 20.2771 32.906Z" fill="#8A949E"/>
<path fill-rule="evenodd" clip-rule="evenodd" d="M4.28566 27.737C3.71244 27.737 3.25 28.2 3.25 28.774C3.25 29.348 3.71244 29.811 4.28566 29.811C4.85888 29.811 5.32132 29.348 5.32132 28.774C5.32132 28.2 4.85888 27.737 4.28566 27.737Z" fill="#8A949E"/>
<path fill-rule="evenodd" clip-rule="evenodd" d="M43.731 27.636C43.1601 27.636 42.6953 28.0991 42.6953 28.673C42.6953 29.247 43.1578 29.71 43.731 29.71C44.3042 29.71 44.7667 29.247 44.7667 28.673C44.7667 28.0991 44.3018 27.636 43.731 27.636Z" fill="#8A949E"/>
<path fill-rule="evenodd" clip-rule="evenodd" d="M0.503906 23.9993C0.503906 36.9568 11.0258 47.4977 23.9597 47.4977C36.8936 47.4977 47.4155 36.9568 47.4155 23.9993C47.4155 11.0419 36.8936 0.503357 23.9597 0.503357C11.0258 0.503357 0.503906 11.0444 0.503906 23.9993ZM1.09127 23.9993C1.09127 11.3675 11.3507 1.09178 23.9597 1.09178C36.5687 1.09178 46.8281 11.3675 46.8281 23.9993C46.8281 36.6312 36.571 46.9093 23.9597 46.9093C11.3484 46.9093 1.09127 36.6312 1.09127 23.9993Z" fill="white"/>
<path fill-rule="evenodd" clip-rule="evenodd" d="M6.27344 24.0001C6.27344 33.7694 14.2076 41.7155 23.9568 41.7155C33.706 41.7155 41.6401 33.7694 41.6401 24.0001C41.6401 14.2308 33.706 6.28705 23.9568 6.28705C14.2076 6.28705 6.27344 14.2332 6.27344 24.0001ZM6.6947 24.0001C6.6947 14.4647 14.4387 6.70666 23.9592 6.70666C33.4797 6.70666 41.2236 14.4647 41.2236 24.0001C41.2236 33.5354 33.4797 41.2935 23.9592 41.2935C14.4387 41.2935 6.69229 33.5354 6.69229 24.0001H6.6947Z" fill="white"/>
<path d="M8.19685 39.011L6.24219 36.6935L6.53586 36.4451L7.18099 37.2096L8.37498 36.1991L8.73602 36.626L7.54209 37.6365L8.49048 38.7603L8.19685 39.0087V39.011ZM10.1876 37.0119L8.30756 38.6035L7.95854 38.1742L9.64835 36.7539C9.77359 36.6477 9.68449 36.532 9.66524 36.5127L8.44475 35.0657L8.73846 34.8173L10.2598 36.6212C10.4452 36.8406 10.1828 37.0119 10.1828 37.0119H10.1876Z" fill="#8A949E"/>
<path d="M11.9618 40.3671L11.562 40.507C11.4633 40.355 11.3934 40.1621 11.3501 39.9282C11.3091 39.6943 11.3091 39.5014 11.3501 39.347C11.2151 39.4387 11.0322 39.4965 10.8009 39.5182C10.5721 39.5399 10.3481 39.5254 10.1289 39.4748L10.153 39.0407C10.4782 39.1034 10.76 39.0817 10.996 38.9828C11.2272 38.8864 11.4488 38.6983 11.6584 38.4234L11.8366 38.1894L12.3231 38.5609L12.1497 38.7899C11.7499 39.3133 11.6873 39.839 11.9594 40.3719L11.9618 40.3671Z" fill="#8A949E"/>
<path d="M11.5667 42.2792L9.64232 40.8082C9.50498 40.702 9.48573 40.5838 9.58929 40.4488L10.0951 39.7832L10.5406 40.1232L10.1721 40.608C10.1361 40.6562 10.1433 40.702 10.1962 40.7406L11.8027 41.9681L11.5667 42.2768V42.2792Z" fill="#8A949E"/>
<path d="M13.1262 39.2192L11.6484 41.157L12.0924 41.4967L13.5701 39.559L13.1262 39.2192Z" fill="#8A949E"/>
<path d="M15.8958 44.6567L15.4577 44.4324L16.2449 42.8866L15.9295 42.725L15.1592 44.2346L14.7356 44.0176L14.8992 43.6944C14.8992 43.6944 13.8713 43.1808 13.8015 43.1325C13.7029 43.0674 13.6475 42.9902 13.6379 42.901C13.6307 42.8262 13.6571 42.7274 13.7197 42.6044L14.8727 40.3399L15.9175 40.8729L15.7418 41.2154L15.164 40.9211L14.2277 42.7587C14.1939 42.8262 14.141 42.901 14.2348 42.9493C14.5261 43.0988 15.0364 43.3713 15.0364 43.3713L16.2737 40.9911L16.6974 41.2081L16.1028 42.3753L16.4182 42.5369L17.0128 41.3697L17.4508 41.594L15.8934 44.6519L15.8958 44.6567Z" fill="#8A949E"/>
<path d="M26.0225 45.8666L22.9501 45.9076L22.9453 45.4663L23.4172 45.4591L23.398 43.9663L23.906 43.959L23.9253 45.4518L24.3371 45.447L24.3178 43.9542L24.8234 43.947L24.8427 45.4398L26.0202 45.4253L26.025 45.8666H26.0225ZM25.7553 43.0619L25.7818 45.4952L25.2665 45.5025L25.2376 43.2982C25.2376 43.209 25.1991 43.1656 25.1292 43.1681L23.1139 43.1946L23.1091 42.8087L25.4952 42.7774C25.6807 42.7774 25.7673 42.8714 25.7577 43.0644L25.7553 43.0619Z" fill="#8A949E"/>
<path d="M30.2422 43.6158L27.1938 44.4936L27.0878 44.1295L28.3472 43.7678L28.2677 43.488L27.7043 43.6496C27.5092 43.705 27.384 43.6423 27.3311 43.4591L27.0469 42.4703L27.5838 42.316L27.6609 42.5885L28.8383 42.2485L28.7613 41.9784L29.2983 41.824L29.6618 43.0877L28.7998 43.3361L28.8793 43.6158L30.1386 43.2541L30.2422 43.6183V43.6158ZM29.9821 44.2019L30.2494 45.1255L29.8569 45.2388L29.6618 44.5491C29.6378 44.4671 29.5896 44.4358 29.5198 44.4575L27.75 44.9663L27.6465 44.6022L29.6955 44.0138C29.8521 43.9679 29.9484 44.0306 29.9845 44.2019H29.9821ZM29.019 42.8779L28.9419 42.6102L27.7645 42.9503L27.815 43.1215C27.8319 43.1842 27.8752 43.2083 27.9426 43.189L29.0214 42.8803L29.019 42.8779Z" fill="#8A949E"/>
<path d="M34.009 41.3308L31.25 42.9027L31.431 43.2212L34.1901 41.6494L34.009 41.3308Z" fill="#8A949E"/>
<path d="M33.7653 42.1322L31.918 43.186L32.4021 44.0397C32.4575 44.1338 32.5153 44.1917 32.5779 44.2109C32.6405 44.2302 32.7176 44.2109 32.8091 44.1627L34.5697 43.1595L34.0375 42.2262C33.9724 42.0984 33.8833 42.0695 33.7653 42.1345V42.1322ZM33.8857 43.1233L32.9464 43.6587C32.8886 43.6925 32.8428 43.6804 32.8091 43.6225L32.5828 43.227L33.5485 42.6772C33.5895 42.6531 33.6208 42.6627 33.6449 42.7061L33.8833 43.1233H33.8857Z" fill="#8A949E"/>
<path d="M31.8173 42.1381C32.0388 42.1815 32.2821 42.126 32.5495 41.9741C32.8144 41.8222 32.9854 41.6389 33.06 41.4242C33.1323 41.2241 33.1083 41.0191 32.9926 40.8117C32.8746 40.6043 32.7108 40.4813 32.5013 40.4379C32.2797 40.3945 32.0365 40.4499 31.7715 40.5995C31.5066 40.7514 31.3355 40.9322 31.2585 41.1445C31.1886 41.347 31.2103 41.552 31.3283 41.7595C31.4463 41.9668 31.6101 42.0898 31.8197 42.1333L31.8173 42.1381ZM31.7474 41.1854C31.7763 41.0818 31.8462 40.9998 31.9545 40.9347C32.0653 40.872 32.1713 40.8551 32.2749 40.884C32.3784 40.913 32.4579 40.9781 32.5181 41.0842C32.5759 41.1854 32.5928 41.2892 32.5639 41.3929C32.5374 41.4966 32.4676 41.581 32.3568 41.6437C32.2459 41.7064 32.14 41.7233 32.0365 41.6943C31.9328 41.6654 31.851 41.6002 31.7932 41.4966C31.733 41.3929 31.7185 41.2892 31.7474 41.1854Z" fill="#8A949E"/>
<path d="M20.9023 44.6139L18.5564 44.0423L18.4648 44.4161L20.4302 44.896C20.4976 44.9129 20.5218 44.9587 20.5049 45.0335L20.3242 45.7762L20.8204 45.8968L21.0612 44.9225C21.1143 44.7537 21.0612 44.6501 20.9047 44.6114L20.9023 44.6139Z" fill="#8A949E"/>
<path d="M21.4532 43.3623L21.6555 42.535L21.1112 42.4024L20.6367 44.3485L21.1811 44.4812L21.3617 43.736L21.7399 43.8276L21.8314 43.4539L21.4532 43.3623Z" fill="#8A949E"/>
<path d="M20.7688 42.5787L20.0921 42.4123L20.1451 42.1904L19.5188 42.0361L19.4658 42.258L18.8011 42.0964L18.7096 42.4702L19.0034 42.5425C19.0034 42.5425 18.9914 42.5474 18.9865 42.5497C18.7963 42.6486 18.6711 42.815 18.6157 43.0441C18.5603 43.2757 18.594 43.4782 18.7168 43.6543C18.8493 43.8375 19.0636 43.9654 19.3599 44.0377C19.6561 44.11 19.9066 44.0956 20.1089 43.9894C20.2992 43.893 20.422 43.729 20.4798 43.4975C20.5352 43.266 20.5015 43.0634 20.3787 42.8874C20.3739 42.8826 20.3691 42.8777 20.3666 42.8729L20.6797 42.9501L20.7713 42.5763L20.7688 42.5787ZM19.7718 43.6301C19.6802 43.688 19.5718 43.7 19.449 43.6712C19.3262 43.6398 19.237 43.5795 19.1816 43.4855C19.1262 43.3938 19.1142 43.2901 19.1407 43.1743C19.1696 43.0586 19.2298 42.9718 19.3213 42.9139C19.4129 42.8584 19.5213 42.8464 19.6441 42.8753C19.7669 42.9043 19.856 42.967 19.9114 43.0586C19.9668 43.1503 19.9789 43.2539 19.9524 43.3697C19.9258 43.483 19.8657 43.5699 19.7741 43.6253L19.7718 43.6301Z" fill="#8A949E"/>
<path d="M37.5488 39.3586L37.1179 39.7107L36.8507 39.3803L36.4584 39.7011L36.6485 39.9349L35.5581 40.8224C35.4666 40.8948 35.3895 40.9285 35.3221 40.9213C35.2548 40.914 35.1873 40.8682 35.1175 40.7814L34.2148 39.6697L34.6481 39.3176L34.9563 39.6962L35.4305 39.3103L35.1224 38.9317L35.5508 38.5845L35.7554 38.8377L36.1478 38.5169L35.9215 38.2372L36.3524 37.8851L37.5488 39.3586ZM35.9745 39.9831L35.6688 39.607L35.1946 39.9928L35.4329 40.287C35.4786 40.3425 35.5267 40.3474 35.5845 40.3015L35.9745 39.9831ZM38.0471 40.017C38.2011 40.2075 38.259 40.4124 38.218 40.6367C38.1795 40.861 38.0399 41.0684 37.8016 41.2637C37.5633 41.4567 37.3322 41.5507 37.1059 41.5434C36.8796 41.5362 36.687 41.4398 36.5329 41.2492C36.3765 41.0587 36.3187 40.8489 36.3597 40.6246C36.4005 40.4004 36.5378 40.193 36.7761 40.0001C37.0144 39.8072 37.2479 39.7131 37.4742 39.7179C37.7005 39.7251 37.8906 39.824 38.0471 40.017ZM37.6282 40.3594C37.5488 40.2629 37.4549 40.2099 37.349 40.2026C37.2406 40.1954 37.1372 40.2316 37.0337 40.316C36.9326 40.3979 36.8748 40.492 36.8628 40.6006C36.8483 40.7091 36.8796 40.8104 36.959 40.9068C37.036 41.0009 37.1276 41.0539 37.2358 41.0612C37.3442 41.0708 37.4477 41.0322 37.5488 40.9502C37.6523 40.8658 37.7101 40.7717 37.7245 40.6633C37.739 40.5572 37.7077 40.4535 37.6307 40.3594H37.6282ZM36.6148 39.0885L36.3861 38.8063L35.9938 39.127L36.2224 39.4092L36.6148 39.0885Z" fill="#8A949E"/>
<path d="M39.9271 36.6729L39.359 37.2203L39.7129 37.5941L39.3133 37.9751L38.9522 37.5941L38.389 38.1271L38.141 37.8642L39.6816 36.41L39.9271 36.6729ZM38.9522 35.906C39.0967 36.0579 39.1592 36.2292 39.1424 36.4197C39.1255 36.6246 39.0172 36.8224 38.815 37.0129C38.6152 37.2034 38.413 37.3023 38.206 37.3095C38.0134 37.3168 37.8449 37.2444 37.7005 37.0949C37.5584 36.943 37.4958 36.7717 37.5151 36.5788C37.5344 36.3738 37.6451 36.1761 37.8449 35.988C38.0471 35.7975 38.2493 35.6986 38.4515 35.6913C38.6441 35.6841 38.8102 35.7565 38.9522 35.9084V35.906ZM41.6483 37.1817L40.062 38.6865C39.9945 38.7517 39.9319 38.783 39.8766 38.7805C39.8212 38.7805 39.7635 38.7444 39.6985 38.6769L39.2579 38.2114L39.6648 37.8256L39.9704 38.1487C40.0138 38.1946 40.0595 38.197 40.1052 38.1536L41.4027 36.9237L41.6483 37.1841V37.1817ZM38.5694 36.2701C38.502 36.1978 38.4275 36.1616 38.3432 36.1616C38.2589 36.1616 38.1795 36.1953 38.1048 36.2653C38.0303 36.3353 37.9918 36.4124 37.9893 36.4968C37.9869 36.5813 38.0183 36.6584 38.0856 36.7307C38.153 36.8006 38.2276 36.8393 38.3119 36.8393C38.3961 36.8393 38.4756 36.8055 38.5502 36.7356C38.6248 36.6657 38.6633 36.5861 38.6658 36.5041C38.6681 36.4197 38.6369 36.3425 38.5694 36.2725V36.2701ZM40.996 36.6994L40.5891 37.0853L40.4085 36.8947L39.9584 37.3191L39.7225 37.0683L40.1702 36.6415L38.7909 35.1801L39.1977 34.7943L40.996 36.6994Z" fill="#8A949E"/>
<path d="M2.33294 22.0372L2.39075 21.5934L3.38787 21.7261L2.50154 20.7542L2.57861 20.1707L3.4553 21.1931L5.00156 20.4479L4.92449 21.0291L3.78045 21.5573L3.99722 21.808L4.80647 21.9166L4.74626 22.3603L2.32812 22.0396L2.33294 22.0372Z" fill="#8A949E"/>
<path d="M6.49027 15.8151L6.31686 16.2346L4.0625 15.3014L4.23591 14.8817L6.49027 15.8151Z" fill="#8A949E"/>
<path d="M4.59375 14.2724L4.81286 13.8503L6.71989 13.8599L5.21257 13.0786L5.4052 12.7024L7.56989 13.8262L7.36279 14.2289L5.41483 14.2241L6.95346 15.0223L6.75842 15.3985L4.59375 14.2772V14.2724Z" fill="#8A949E"/>
<path d="M5.28489 18.6673C5.42218 18.8626 5.4294 19.1376 5.35233 19.4149C5.27526 19.6922 5.14761 19.9214 4.92843 20.0178C4.65627 20.1529 4.28296 20.0998 3.8711 19.9841C3.44961 19.8683 3.10519 19.7381 2.94864 19.4824C2.81136 19.2871 2.79209 19.0025 2.86916 18.7252C2.94623 18.4478 3.11724 18.2067 3.33641 18.1102C3.60135 17.9728 3.95058 18.0475 4.36966 18.1633C4.78151 18.2767 5.12111 18.4093 5.2873 18.665L5.28489 18.6673ZM4.88508 18.8361C4.76465 18.7011 4.53826 18.6505 4.2685 18.5757C3.99875 18.5009 3.7579 18.4286 3.58449 18.4817C3.41107 18.5347 3.31714 18.6794 3.27379 18.8409C3.23044 19.0025 3.23284 19.1762 3.35327 19.3136C3.47369 19.4511 3.70009 19.5089 3.96984 19.5838C4.2396 19.6585 4.49731 19.7188 4.67072 19.6633C4.84414 19.6078 4.92121 19.4728 4.96456 19.3113C5.01032 19.1497 5.0031 18.9712 4.88267 18.8337L4.88508 18.8361Z" fill="#8A949E"/>
<path d="M5.08044 17.542C5.18883 17.5637 5.27312 17.5637 5.33815 17.542C5.45376 17.5058 5.53806 17.4021 5.59345 17.2381C5.62718 17.1393 5.63921 17.0548 5.6344 16.9849C5.62476 16.8523 5.55733 16.7654 5.42967 16.722C5.35501 16.6979 5.28758 16.7075 5.22736 16.7486C5.16956 16.792 5.10453 16.8716 5.03228 16.9873L4.90944 17.1827C4.78661 17.3756 4.68063 17.5009 4.59152 17.5588C4.4446 17.6577 4.25914 17.6698 4.03515 17.595C3.83284 17.5275 3.68351 17.4069 3.59198 17.2333C3.50046 17.0596 3.49565 16.8474 3.57753 16.5966C3.64738 16.3868 3.7678 16.2301 3.94363 16.1216C4.11945 16.0155 4.32899 15.9985 4.57225 16.0709L4.4446 16.4616C4.30491 16.423 4.1917 16.4447 4.10018 16.5243C4.03996 16.5774 3.9942 16.6545 3.96289 16.751C3.92677 16.8595 3.92436 16.9535 3.95085 17.0356C3.97976 17.1151 4.03756 17.1706 4.12426 17.1995C4.20616 17.2261 4.276 17.214 4.33862 17.1634C4.37956 17.132 4.43737 17.0548 4.51685 16.9343L4.72399 16.6208C4.81551 16.4833 4.90703 16.3893 5.00097 16.3362C5.14547 16.2542 5.32129 16.247 5.5212 16.3121C5.72833 16.3796 5.88006 16.5074 5.97159 16.6907C6.06311 16.874 6.06793 17.0934 5.98364 17.3466C5.89934 17.6047 5.76446 17.7856 5.58141 17.8892C5.39837 17.9929 5.18883 18.0074 4.95279 17.9279L5.08044 17.5371V17.542Z" fill="#8A949E"/>
<path d="M6.45162 11.1001L6.82244 10.6516L7.97337 11.6065C8.10098 11.7126 8.25513 11.8163 8.34423 11.8284C8.47183 11.8453 8.61389 11.7681 8.76075 11.5897C8.90767 11.4136 8.9534 11.2424 8.91726 11.1363C8.88835 11.0519 8.76075 10.9192 8.63071 10.8131L7.47978 9.85815L7.85057 9.40961L9.00157 10.3646C9.20138 10.5286 9.38681 10.6998 9.447 10.9096C9.50962 11.1266 9.37235 11.4836 9.07134 11.8477C8.77041 12.2118 8.44535 12.4048 8.21899 12.3903C8.01674 12.3759 7.80004 12.2166 7.60015 12.0527L6.44922 11.0977L6.45162 11.1001Z" fill="#8A949E"/>
<path d="M8.15234 9.09127L8.52077 8.73673L10.37 9.3083L9.19492 8.08563L9.52241 7.76971L11.2103 9.52533L10.8588 9.86539L8.97099 9.28659L10.1702 10.5333L9.84267 10.8493L8.15478 9.09363L8.15234 9.09127Z" fill="#8A949E"/>
<path d="M11.8102 9.04559L11.4272 9.34703L9.92188 7.43228L10.3048 7.1308L11.8102 9.04559Z" fill="#8A949E"/>
<path d="M11.7061 6.06301L12.1132 5.75916L12.92 8.19488L12.5491 8.46973L10.4609 6.98906L10.8825 6.67556L12.3926 7.85481L11.7061 6.06301Z" fill="#8A949E"/>
<path d="M13.9793 5.20943L12.8762 5.78338L13.1147 6.24158L14.1263 5.71586L14.3189 6.08965L13.305 6.61538L13.594 7.17004L14.7476 6.56956L14.9499 6.95782L13.3699 7.78015L12.25 5.62181L13.7794 4.82599L13.9793 5.20943Z" fill="#8A949E"/>
<path d="M15.5294 4.05673C15.6234 4.05673 15.7149 4.07602 15.8016 4.11943C15.8739 4.15319 15.9365 4.19902 15.9943 4.25689C16.0521 4.31236 16.1002 4.38471 16.1412 4.47152C16.1894 4.57763 16.211 4.69098 16.2062 4.81638C16.2014 4.94178 16.1508 5.05271 16.0521 5.14917C16.1701 5.14435 16.2664 5.17088 16.3411 5.22876C16.4182 5.28422 16.4904 5.39033 16.5603 5.54468L16.6278 5.69419C16.6735 5.79548 16.7096 5.863 16.7337 5.89435C16.7723 5.945 16.818 5.97394 16.8734 5.98358L16.8999 6.03905L16.4061 6.26573C16.37 6.22233 16.3411 6.18856 16.3218 6.15962C16.2809 6.10416 16.2448 6.04145 16.2159 5.97876L16.1196 5.77377C16.0521 5.63391 15.9871 5.5495 15.9196 5.52297C15.8522 5.49644 15.7582 5.51332 15.633 5.56879L15.1971 5.76895L15.5969 6.63712L15.1609 6.83728L14.1445 4.62345L15.1658 4.15319C15.3126 4.08808 15.4355 4.05673 15.5294 4.05432V4.05673ZM14.7563 4.80432L15.0309 5.40239L15.5102 5.18053C15.6065 5.13712 15.6716 5.0913 15.7101 5.04548C15.7751 4.96349 15.7775 4.8622 15.7222 4.73679C15.6595 4.60175 15.5776 4.5294 15.474 4.52217C15.4163 4.51734 15.3416 4.53663 15.25 4.57763L14.7563 4.80432Z" fill="#8A949E"/>
<path d="M19.2824 5.28109L18.8127 5.4065L18.1914 3.05039L18.6635 2.92499L19.2824 5.28109Z" fill="#8A949E"/>
<path d="M20.762 2.48364L20.8415 2.90808L20.1503 3.04072L20.5284 5.00856L20.0418 5.10261L19.6638 3.13477L18.9725 3.26741L18.8906 2.84297L20.762 2.48364Z" fill="#8A949E"/>
<path d="M22.362 2.31746L22.9159 2.2644L22.2801 3.85363L22.3668 4.7652L21.8803 4.81103L21.7935 3.90186L20.8398 2.46456L21.4155 2.4091L22.0007 3.41954L22.3644 2.31746H22.362Z" fill="#8A949E"/>
<path d="M17.0705 5.16574C17.1211 5.26462 17.1765 5.33455 17.2367 5.37072C17.3451 5.43825 17.4944 5.44066 17.6798 5.37555C17.7906 5.33696 17.8774 5.29356 17.94 5.24291C18.0556 5.14885 18.0893 5.03792 18.046 4.9077C18.0195 4.83053 17.9665 4.78471 17.8894 4.76542C17.8123 4.74613 17.6967 4.74613 17.545 4.76542L17.2849 4.79436C17.0296 4.82088 16.8465 4.82088 16.7357 4.78712C16.5503 4.73407 16.4178 4.59178 16.3383 4.36751C16.266 4.16252 16.2805 3.96478 16.3793 3.77667C16.478 3.59098 16.6707 3.44629 16.9525 3.34982C17.1885 3.26783 17.4125 3.26301 17.6245 3.33294C17.8364 3.40288 17.9882 3.55963 18.0797 3.80079L17.6389 3.95513C17.5835 3.82008 17.4896 3.74291 17.3572 3.72362C17.2704 3.71156 17.1716 3.72362 17.0609 3.7622C16.9381 3.80561 16.849 3.86349 16.7936 3.93825C16.7382 4.013 16.7237 4.09741 16.755 4.18664C16.7839 4.26863 16.8393 4.31927 16.926 4.33375C16.9814 4.34339 17.0922 4.34339 17.2536 4.32651L17.6751 4.28793C17.8605 4.27104 18.0074 4.2831 18.1158 4.32169C18.2844 4.38439 18.4048 4.51703 18.4771 4.72442C18.5493 4.93423 18.5325 5.1368 18.4241 5.32973C18.3157 5.52265 18.1182 5.66976 17.8316 5.76863C17.5401 5.86992 17.2873 5.88198 17.073 5.80239C16.8585 5.72282 16.7093 5.56606 16.6274 5.3249L17.0681 5.17056L17.0705 5.16574Z" fill="#8A949E"/>
<path d="M26.1759 3.12263C26.1542 2.95623 26.0771 2.83564 25.9519 2.76089C25.8797 2.71989 25.8002 2.69577 25.7111 2.68854C25.5377 2.67648 25.3907 2.73919 25.2703 2.87664C25.1475 3.0141 25.0776 3.22874 25.0559 3.52295C25.0343 3.81716 25.0801 4.03179 25.1908 4.16201C25.304 4.29224 25.4341 4.36459 25.5883 4.37423C25.74 4.38388 25.8652 4.3453 25.9688 4.25607C26.0723 4.16684 26.1397 4.04385 26.1735 3.8895L25.6774 3.85333L25.7063 3.45301L26.5998 3.51812L26.5082 4.8059L26.212 4.7842L26.1879 4.48034C26.094 4.58645 26.0097 4.66121 25.9374 4.70462C25.8122 4.77696 25.6653 4.8059 25.4919 4.79385C25.2077 4.77456 24.9813 4.64674 24.8151 4.41281C24.6417 4.17648 24.567 3.8678 24.5959 3.48436C24.6224 3.0961 24.7404 2.78983 24.9499 2.57037C25.1571 2.34851 25.4196 2.24963 25.7351 2.27375C26.0073 2.29305 26.2216 2.3871 26.3758 2.55349C26.5299 2.71989 26.6118 2.92005 26.619 3.15397L26.1783 3.12263H26.1759Z" fill="#8A949E"/>
<path d="M33.2038 5.88477C33.04 5.93782 32.8521 5.91612 32.6402 5.81725L32.2331 5.62915L31.8694 6.41532L31.4648 6.22721L32.4764 4.03992L33.3146 4.42818C33.5072 4.51741 33.6349 4.64522 33.6999 4.81162C33.7625 4.97801 33.7409 5.17818 33.63 5.41451C33.5097 5.67255 33.37 5.82931 33.2061 5.88236L33.2038 5.88477ZM33.2567 4.94908C33.2278 4.87673 33.1652 4.81885 33.0737 4.77545L32.7052 4.60422L32.4065 5.25294L32.775 5.42416C32.869 5.46757 32.9533 5.4748 33.0279 5.44587C33.105 5.41693 33.1676 5.34458 33.2206 5.23123C33.2736 5.11789 33.2856 5.02384 33.2567 4.95149V4.94908Z" fill="#8A949E"/>
<path d="M35.5307 6.15997L34.548 5.5836L34.2903 6.02492L35.1935 6.55305L34.984 6.91238L34.0807 6.38183L33.7676 6.9172L34.7961 7.52007L34.5769 7.89388L33.168 7.06913L34.3842 4.99036L35.7475 5.791L35.5331 6.15997H35.5307Z" fill="#8A949E"/>
<path d="M36.3026 6.18317L36.6687 6.44603L35.5174 8.05454L36.3893 8.67913L36.1364 9.03123L34.8984 8.14374L36.3002 6.18317H36.3026Z" fill="#8A949E"/>
<path d="M36.9243 9.67085L38.6411 7.98029L38.9541 8.30107L38.2992 8.94494L38.8843 9.54302L39.5393 8.89915L39.8523 9.21743L38.1331 10.908L37.82 10.5896L38.5857 9.83478L38.0006 9.23678L37.2349 9.99156L36.9219 9.67321L36.9243 9.67085Z" fill="#8A949E"/>
<path d="M42.5021 15.6599C42.3408 15.5972 42.2106 15.4597 42.1095 15.2499L41.9144 14.8448L41.1341 15.221L40.9414 14.8183L43.1115 13.774L43.5112 14.6084C43.6028 14.8014 43.622 14.9822 43.5643 15.1487C43.5064 15.3175 43.3619 15.4574 43.1259 15.5707C42.8706 15.6937 42.6611 15.7251 42.5021 15.6623V15.6599ZM43.1379 14.9726C43.1621 14.8978 43.15 14.8134 43.1067 14.7218L42.9308 14.3552L42.2877 14.664L42.4636 15.0305C42.5069 15.1245 42.5696 15.1824 42.6466 15.209C42.7237 15.2355 42.8176 15.221 42.9308 15.1655C43.044 15.1101 43.1115 15.0449 43.1355 14.9726H43.1379Z" fill="#8A949E"/>
<path d="M41.9396 17.1918L41.7734 16.777L44.0061 15.8726L44.1724 16.2874L41.9396 17.1918Z" fill="#8A949E"/>
<path d="M44.8152 18.1558L44.4082 18.2837L44.2155 17.6663L42.3248 18.262L42.1875 17.8279L44.0782 17.2322L43.8855 16.6148L44.2926 16.487L44.8176 18.1534L44.8152 18.1558Z" fill="#8A949E"/>
<path d="M45.0413 18.9607L45.1545 19.4576L42.9796 20.7405L42.8688 20.2654L43.3191 20.017L43.1409 19.2453L42.6255 19.2139L42.5195 18.7558L45.0388 18.9632L45.0413 18.9607ZM43.5745 19.2695L43.6997 19.8072L44.562 19.3297L43.5745 19.2718V19.2695Z" fill="#8A949E"/>
<path d="M45.3994 20.9062L45.4548 21.3524L43.4943 21.596L43.6268 22.6619L43.1957 22.715L43.0078 21.2029L45.3971 20.9062H45.3994Z" fill="#8A949E"/>
<path d="M29.9401 4.86176C29.9161 4.97028 29.9137 5.05469 29.9329 5.12221C29.969 5.24037 30.0702 5.33201 30.2412 5.39472C30.3424 5.43089 30.4291 5.45018 30.5014 5.45018C30.6386 5.45018 30.7302 5.38266 30.7783 5.25485C30.8048 5.18008 30.7976 5.11256 30.7542 5.04986C30.7109 4.98716 30.6314 4.91964 30.5134 4.84005L30.3135 4.705C30.1184 4.57237 29.9907 4.45903 29.9329 4.36738C29.8366 4.21305 29.827 4.02494 29.9089 3.80307C29.9835 3.6005 30.1112 3.45581 30.2942 3.37141C30.4772 3.287 30.6965 3.29182 30.9542 3.38587C31.1685 3.46546 31.3299 3.59568 31.4334 3.77896C31.5394 3.96224 31.5515 4.17446 31.472 4.41561L31.0697 4.2661C31.1107 4.12623 31.0939 4.01047 31.0144 3.91642C30.9614 3.85372 30.8819 3.80307 30.7831 3.7669C30.6699 3.72591 30.5736 3.71626 30.4893 3.74279C30.405 3.7669 30.3472 3.82237 30.3135 3.9116C30.2846 3.99359 30.2942 4.06594 30.3448 4.12864C30.3785 4.16963 30.4556 4.23475 30.5784 4.32156L30.8963 4.54584C31.036 4.64471 31.1324 4.74118 31.1853 4.83764C31.2648 4.98957 31.2696 5.16562 31.195 5.36578C31.1179 5.57317 30.9854 5.71787 30.7903 5.80227C30.5977 5.88667 30.3713 5.87944 30.1112 5.78298C29.8462 5.68411 29.6607 5.54182 29.5596 5.35131C29.4585 5.1608 29.4488 4.94858 29.5355 4.71224L29.9378 4.86176H29.9401Z" fill="#8A949E"/>
<path d="M40.6324 12.8582C40.5409 12.9209 40.4806 12.9836 40.4518 13.0439C40.3987 13.1548 40.4132 13.2922 40.495 13.4514C40.5432 13.5479 40.5962 13.6202 40.6492 13.6685C40.7528 13.7601 40.8635 13.7746 40.9864 13.7118C41.0563 13.6757 41.0972 13.6202 41.1068 13.5455C41.1165 13.4707 41.1068 13.3646 41.0707 13.2295L41.0153 12.9956C40.96 12.7641 40.9431 12.5953 40.9623 12.4892C40.996 12.3107 41.1165 12.166 41.326 12.0575C41.5187 11.9586 41.709 11.9394 41.9016 11.9996C42.0919 12.06 42.2533 12.2119 42.3785 12.4578C42.4821 12.6628 42.5134 12.8678 42.4676 13.0728C42.4218 13.2778 42.287 13.4442 42.0654 13.5672L41.8679 13.1861C41.9932 13.1114 42.0582 13.0125 42.063 12.8895C42.063 12.8075 42.0413 12.7183 41.9932 12.6219C41.9378 12.5157 41.8727 12.4434 41.7933 12.4048C41.7138 12.3662 41.6343 12.3662 41.55 12.4096C41.4729 12.4482 41.432 12.5085 41.4271 12.5929C41.4223 12.6459 41.4368 12.7448 41.4705 12.8919L41.5548 13.273C41.591 13.4393 41.5958 13.5768 41.5693 13.683C41.5283 13.8493 41.4103 13.982 41.22 14.0784C41.0249 14.1797 40.8275 14.1966 40.6275 14.1266C40.4276 14.0591 40.2663 13.9 40.1386 13.654C40.0085 13.4032 39.97 13.1716 40.023 12.9618C40.076 12.752 40.2133 12.5905 40.4349 12.4748L40.63 12.8557L40.6324 12.8582Z" fill="#8A949E"/>
<path d="M28.7344 5.14915C28.5393 5.29144 28.255 5.3059 27.9613 5.23838C27.6674 5.17085 27.4217 5.05028 27.3085 4.83806C27.1496 4.57278 27.1857 4.19898 27.2797 3.78661C27.376 3.367 27.4891 3.01973 27.7468 2.85574C27.9419 2.71346 28.2382 2.68452 28.5321 2.75204C28.8259 2.81957 29.086 2.98114 29.1992 3.19577C29.3582 3.45381 29.3004 3.80108 29.2065 4.2231C29.1125 4.63548 28.9945 4.97793 28.7392 5.14915H28.7344ZM28.5417 4.72713C28.6741 4.60896 28.7079 4.39432 28.7681 4.13629C28.8259 3.87825 28.8837 3.65156 28.8163 3.48757C28.7489 3.32358 28.5923 3.23918 28.4213 3.20059C28.2503 3.16201 28.0721 3.16924 27.9371 3.28741C27.8023 3.40558 27.7589 3.62021 27.6987 3.87825C27.6385 4.13629 27.5951 4.38227 27.665 4.54385C27.7348 4.70783 27.8818 4.77777 28.0504 4.81635C28.2213 4.85494 28.4068 4.84529 28.5393 4.72953L28.5417 4.72713Z" fill="#8A949E"/>
<path d="M39.6397 12.3476C39.3988 12.3453 39.1603 12.1837 38.9677 11.9546C38.775 11.7255 38.6498 11.4819 38.6859 11.2408C38.7196 10.9321 38.9701 10.6547 39.2928 10.3822C39.6228 10.1025 39.9214 9.89506 40.2249 9.91921C40.4682 9.92165 40.7187 10.0783 40.9138 10.3099C41.1088 10.539 41.2197 10.826 41.1811 11.0647C41.1546 11.3662 40.8993 11.6121 40.5718 11.8894C40.249 12.162 39.9503 12.3646 39.642 12.3476H39.6397ZM39.7384 11.8943C39.9142 11.8798 40.0708 11.7278 40.2731 11.5591C40.4754 11.3879 40.6584 11.2408 40.7018 11.0695C40.7452 10.8983 40.6704 10.7368 40.5573 10.6017C40.4441 10.4691 40.2947 10.3653 40.119 10.3798C39.9431 10.3943 39.7769 10.5366 39.5746 10.7078C39.3723 10.879 39.1892 11.0478 39.1483 11.2215C39.1049 11.3927 39.182 11.5374 39.2928 11.6724C39.406 11.8075 39.5602 11.9111 39.736 11.8967L39.7384 11.8943Z" fill="#8A949E"/>
</g>
<defs>
<clipPath id="clip0_1637_8139">
<rect width="208" height="48" fill="white"/>
</clipPath>
</defs>
</svg>
