<svg width="97" height="38" viewBox="0 0 97 38" fill="none" xmlns="http://www.w3.org/2000/svg">
<g clip-path="url(#clip0_1637_9797)">
<mask id="mask0_1637_9797" style="mask-type:luminance" maskUnits="userSpaceOnUse" x="0" y="0" width="97" height="38">
<path d="M97 0H0V38H97V0Z" fill="white"/>
</mask>
<g mask="url(#mask0_1637_9797)">
<path d="M84.8544 3.07935V2.83447C79.2996 2.11208 74.0296 6.27254 72.7109 12.7214H76.9347C76.9347 7.39898 80.3359 3.70991 84.8544 3.0818" fill="white"/>
<path d="M94.057 12.7201H94.2952C94.5828 9.81027 93.7763 6.89759 92.032 4.5472C90.2878 2.19681 87.7302 0.576276 84.8555 0V4.40778C89.9363 4.40778 94.057 7.89973 94.057 12.7214" fill="#8A949E"/>
<path d="M84.8555 22.3597V22.6046C90.4078 23.3245 95.6777 19.1689 96.9989 12.7152H92.7726C92.7726 18.0401 89.5802 22.0426 84.8555 22.3572" fill="white"/>
<path d="M6.45357 13.0483H0V38H6.45357V13.0483Z" fill="white"/>
<path d="M15.18 24.4534L28.0257 13.0471H19.8716L8.49927 22.8874C8.18747 23.1734 7.94141 23.5232 7.778 23.913C7.61459 24.3027 7.5377 24.723 7.5526 25.1452C7.55895 25.6128 7.6662 26.0735 7.86706 26.496C8.06791 26.9186 8.35766 27.2931 8.7166 27.594L20.2191 38.0012H28.9368L15.1849 25.619C15.0873 25.5562 15.0071 25.47 14.9516 25.3683C14.896 25.2666 14.8669 25.1527 14.8669 25.0368C14.8669 24.921 14.896 24.8071 14.9516 24.7054C15.0071 24.6037 15.0873 24.5175 15.1849 24.4546" fill="white"/>
<path d="M47.6169 28.3102H51.2686C52.0976 28.3648 52.9288 28.242 53.7064 27.9501C54.484 27.6582 55.1901 27.2039 55.7772 26.6177C56.3644 26.0315 56.8191 25.3269 57.1109 24.5511C57.4028 23.7754 57.5249 22.9464 57.4692 22.1197V19.2424C57.5249 18.4157 57.4028 17.5868 57.1109 16.811C56.8191 16.0352 56.3644 15.3307 55.7772 14.7444C55.1901 14.1582 54.484 13.704 53.7064 13.4121C52.9288 13.1201 52.0976 12.9974 51.2686 13.0519H35.4207C34.7084 13.0518 34.003 13.1915 33.3449 13.4632C32.6868 13.735 32.0887 14.1333 31.585 14.6355C31.0813 15.1377 30.6817 15.7339 30.409 16.3902C30.1364 17.0464 29.9961 17.7497 29.9961 18.46V38H36.4497V19.12C36.4497 18.6654 36.6308 18.2294 36.9531 17.9079C37.2755 17.5864 37.7127 17.4058 38.1686 17.4058H48.9246C49.4782 17.4058 50.0091 17.6251 50.4006 18.0155C50.792 18.4058 51.0119 18.9353 51.0119 19.4873V22.1197C51.0119 22.6718 50.792 23.2012 50.4006 23.5915C50.0091 23.9819 49.4782 24.2012 48.9246 24.2012H41.4581C40.9343 24.122 40.3992 24.2288 39.9463 24.503C39.4935 24.7771 39.1515 25.2011 38.9803 25.701C38.8258 26.1805 38.8126 26.6941 38.9421 27.1809C39.0716 27.6677 39.3384 28.1072 39.7108 28.4473C40.1762 28.882 50.2335 37.9975 50.2335 37.9975H58.6283V37.9816L47.6169 28.3102Z" fill="white"/>
<path d="M77.9742 25.1513L89.0629 13.0483H81.573L74.228 21.0937L66.8831 13.0483H59.3932L70.4819 25.1513L58.6172 37.9829V37.9988H66.2593L74.2219 29.1171L82.1833 37.9988H89.8426L77.9742 25.1513Z" fill="white"/>
</g>
</g>
<defs>
<clipPath id="clip0_1637_9797">
<rect width="97" height="38" fill="white"/>
</clipPath>
</defs>
</svg>
