<svg width="195" height="52" viewBox="0 0 195 52" fill="none" xmlns="http://www.w3.org/2000/svg">
<g clip-path="url(#clip0_1637_8772)">
<path d="M25.936 52C40.2399 52 51.8719 40.3299 51.8719 26C51.8719 11.6701 40.2305 0 25.936 0C11.6414 0 0 11.6701 0 26C0 40.3299 11.632 52 25.936 52ZM1.08578 26C1.08578 12.257 12.2268 1.08846 25.936 1.08846C39.6451 1.08846 50.7767 12.257 50.7767 25.9906C50.7767 39.7241 39.6356 50.8926 25.936 50.8926C12.2363 50.8926 1.08578 39.7241 1.08578 26Z" fill="white"/>
<path d="M43.8082 23.4065C42.5714 14.5664 34.9143 7.90306 26.0015 7.90306C17.0886 7.90306 9.42206 14.5568 8.17578 23.3876L9.14825 23.5296C10.3285 15.1816 17.5702 8.88741 25.992 8.88741C34.4138 8.88741 41.665 15.191 42.8357 23.5485L43.8082 23.4065Z" fill="white"/>
<path d="M21.2429 38.0109V37.8028L21.7056 37.7459L21.8188 37.7081L21.8661 37.5756C21.8849 37.4431 21.8944 37.1591 21.8944 36.7238V36.1369C21.8944 35.9382 21.8944 35.711 21.8944 35.4744V35.2661L21.8755 35.162L21.8377 35.1336L21.7339 35.1715C21.4129 35.3135 21.2146 35.3986 21.1202 35.4554L21.0918 35.4365L21.0635 35.2851L21.0352 35.1336V35.1147C21.3374 35.039 21.5639 34.9633 21.7339 34.9065C21.9038 34.8497 22.1776 34.7551 22.5458 34.613L22.6025 34.651C22.6025 34.651 22.6025 34.7551 22.593 34.8876C22.5836 35.0106 22.5741 35.0958 22.5741 35.1336C22.5741 35.2661 22.5647 35.6353 22.5553 36.2221V36.5913C22.5553 36.9414 22.5553 37.197 22.5741 37.3295C22.5741 37.5377 22.5836 37.6607 22.6025 37.6987L22.6497 37.7459C22.6497 37.7459 22.8007 37.7838 22.999 37.7932H23.1595V38.0109C22.8007 38.0015 22.5175 37.9921 22.2909 37.9921C22.1398 37.9921 21.7905 37.9921 21.2523 38.0109H21.2429Z" fill="white"/>
<path d="M25.1034 36.1374L24.9429 36.3173L24.7163 36.3835L24.4708 36.2983L24.2914 36.0617C24.2442 35.9576 24.2253 35.8061 24.2253 35.6264C24.2253 35.3802 24.2632 35.2099 24.3481 35.1058C24.4331 35.0017 24.5369 34.9449 24.6597 34.9449C24.8202 34.9449 24.9429 35.0206 25.0279 35.172C25.1129 35.3234 25.1506 35.5411 25.1506 35.8156C25.1506 35.9576 25.1412 36.0617 25.1129 36.1374H25.1034ZM24.6597 37.9547C24.8674 37.8695 25.0468 37.737 25.2261 37.5666C25.3961 37.3963 25.5378 37.1975 25.6322 36.9514C25.736 36.7054 25.7926 36.4119 25.7926 36.0711C25.7926 35.7683 25.7549 35.5222 25.6794 35.3329C25.6039 35.1342 25.4811 34.9827 25.3206 34.8596C25.1601 34.7366 24.9618 34.6799 24.7163 34.6799C24.3953 34.6799 24.1404 34.784 23.9327 35.0017C23.7249 35.2193 23.6211 35.5127 23.6211 35.8818C23.6211 36.1848 23.6966 36.4214 23.8383 36.5823C23.9799 36.7337 24.1592 36.8283 24.3764 36.8283L24.7258 36.7716L24.8107 36.7148C24.8674 36.6674 24.9712 36.5729 25.1317 36.4308C25.1034 36.6864 25.075 36.8662 25.0373 36.9988C24.9901 37.1596 24.924 37.3016 24.8296 37.4341C24.7352 37.5666 24.6219 37.6613 24.4802 37.7464C24.3387 37.8222 24.1876 37.8695 24.027 37.8695L23.8477 37.8316L23.791 37.9263L23.9799 38.0777C24.2159 38.0777 24.4425 38.0398 24.6502 37.9452L24.6597 37.9547Z" fill="white"/>
<path d="M26.9071 35.9001C27.0109 35.7203 27.1714 35.4459 27.398 35.0767V35.531L27.3792 35.8528V36.7425H26.4822C26.6616 36.364 26.7938 36.08 26.8976 35.9001H26.9071ZM27.6246 37.9919H28.2477L28.446 38.0108V37.8025L28.1345 37.7647L28.0307 37.7269L27.9928 37.6417C27.9834 37.5565 27.974 37.3956 27.974 37.1496H28.4366L28.4177 36.9697L28.4366 36.752L28.4177 36.7236H28.0684L27.974 36.7331V36.1841C27.974 35.6635 27.9834 35.3323 27.9928 35.1808C27.9928 34.9536 28.0023 34.7738 28.0211 34.6697L27.974 34.6319C27.974 34.6319 27.8418 34.6508 27.6529 34.6981L27.3603 34.7549C27.2942 34.8495 27.1809 35.0104 27.0204 35.266C26.8693 35.5121 26.671 35.8718 26.4444 36.3072C26.2745 36.629 26.1707 36.8466 26.1328 36.9791L26.1612 37.1874C26.4538 37.1874 26.7465 37.1779 27.0486 37.1779H27.3792C27.3697 37.4334 27.3697 37.5755 27.3603 37.6038L27.3131 37.7553L27.2375 37.7931C27.2375 37.7931 27.0486 37.8121 26.7843 37.831V38.0392L27.634 38.0203L27.6246 37.9919Z" fill="white"/>
<path d="M29.5798 35.2941C29.6176 35.1712 29.6648 35.0859 29.7309 35.0291L29.9575 34.9534L30.1652 35.0197L30.3162 35.2185C30.3541 35.3131 30.3823 35.4551 30.4107 35.6349C30.4579 35.9756 30.4768 36.3164 30.4768 36.6571C30.4768 37.1871 30.4296 37.509 30.3446 37.6509C30.2597 37.7834 30.1463 37.8497 30.0235 37.8497L29.7404 37.7077C29.6554 37.6036 29.5987 37.4143 29.5609 37.1209C29.5232 36.8275 29.5043 36.4868 29.5043 36.1177C29.5043 35.7485 29.5326 35.4835 29.5798 35.3037V35.2941ZM28.9472 37.1493C28.9851 37.3575 29.0416 37.5374 29.1266 37.6604C29.2117 37.8024 29.3249 37.9159 29.4665 37.9822C29.6082 38.0484 29.7687 38.0863 29.9575 38.0863C30.118 38.0863 30.2501 38.0674 30.3541 38.0201L30.6562 37.8308C30.7411 37.7456 30.8261 37.632 30.8922 37.4805C30.9583 37.3386 31.015 37.1587 31.0433 36.96C31.0716 36.7612 31.0905 36.5246 31.0905 36.2502C31.0905 35.8621 31.0527 35.5687 30.9866 35.351C30.9205 35.1332 30.8072 34.9629 30.6656 34.8399C30.5145 34.7263 30.3068 34.6695 30.0235 34.6695C29.8914 34.6695 29.7687 34.6884 29.6459 34.7263L29.3343 34.9156C29.2494 34.9913 29.1644 35.0954 29.0983 35.2279C29.0228 35.3604 28.9755 35.4929 28.9567 35.6538C28.919 35.8905 28.8906 36.146 28.8906 36.43C28.8906 36.695 28.9095 36.9221 28.9378 37.1398L28.9472 37.1493Z" fill="white"/>
<path d="M18.9294 3.9465L19.0144 4.00329L19.0899 4.16419C19.1466 4.37242 19.2127 4.59011 19.2693 4.85513L19.4299 5.54606L19.5431 6.06663C19.6186 6.36005 19.6564 6.53041 19.6847 6.59667L19.8641 6.909C19.949 7.00365 20.053 7.08884 20.1946 7.1551C20.3268 7.22135 20.4873 7.2592 20.6761 7.27814C20.931 7.29707 21.2048 7.27814 21.4786 7.21188C21.7146 7.1551 21.913 7.07937 22.0829 6.99419C22.2528 6.89955 22.385 6.78596 22.4983 6.66292C22.6022 6.53041 22.6777 6.38843 22.7249 6.25593C22.7721 6.11396 22.7815 5.95305 22.7627 5.77323C22.7438 5.59339 22.7249 5.42303 22.6777 5.25266L22.5361 4.60904C22.4889 4.42921 22.4417 4.16419 22.3756 3.83292C22.3095 3.50165 22.2812 3.31236 22.2906 3.26504L22.3189 3.17039C22.3189 3.17039 22.4605 3.09467 22.6305 3.0568L22.5833 2.82965L21.9791 2.99055L21.9035 3.00948C21.8469 3.01894 21.6485 3.0568 21.3181 3.12306L21.3748 3.35022C21.5824 3.30289 21.7146 3.29342 21.7808 3.31236L21.8563 3.35969C21.8563 3.35969 21.9318 3.53951 21.9885 3.76667C22.0168 3.87079 22.0829 4.16419 22.1962 4.64691L22.3189 5.20533C22.4133 5.59339 22.4417 5.86787 22.4039 6.01931C22.3756 6.17075 22.2906 6.30325 22.1584 6.43576C22.0262 6.54935 21.8374 6.65345 21.5824 6.70078C21.3559 6.7481 21.1765 6.75757 21.016 6.72918C20.8649 6.70078 20.7327 6.644 20.6478 6.54935C20.5534 6.46416 20.4779 6.33165 20.4212 6.16128C20.3928 6.08556 20.3457 5.87733 20.2701 5.55553L20.1946 5.23373L20.0435 4.59958C19.9586 4.21152 19.9113 3.96544 19.9113 3.84239L19.9396 3.72881C19.9869 3.68149 20.1096 3.63416 20.2984 3.58684L20.2417 3.35969L20.1379 3.38807L19.7791 3.48272L19.4109 3.57737L18.5234 3.75721L18.5801 3.98436L18.9389 3.93704L18.9294 3.9465Z" fill="white"/>
<path d="M24.8782 6.5399V6.31275H24.8215L24.5571 6.29382L24.4627 6.25596L24.425 6.20863C24.406 6.16131 24.3966 6.0288 24.3966 5.82058C24.3872 5.50823 24.3777 5.21483 24.3777 4.92141V3.54901C25.473 4.88355 26.3133 5.88683 26.9081 6.55883C27.0686 6.57777 27.2291 6.5967 27.3801 6.62509L27.4179 6.5967C27.3895 6.33168 27.3801 5.58395 27.3801 4.36299C27.3801 4.20208 27.3801 3.96546 27.3895 3.63419C27.399 3.30292 27.4179 3.08522 27.4462 3.00004L27.484 2.96219C27.484 2.96219 27.654 2.91486 27.8806 2.91486V2.67824C27.5879 2.6877 27.3613 2.6877 27.1724 2.6877C26.9836 2.6877 26.7759 2.6877 26.5493 2.67824V2.91486C26.7947 2.91486 26.9364 2.94325 26.9836 2.97165L27.0403 3.10416C27.0497 3.28399 27.0686 3.86134 27.0686 4.85516V5.49877C26.8137 5.24321 26.4926 4.86463 26.1055 4.40084C25.5674 3.75724 25.1048 3.18934 24.7271 2.6877H24.4721L24.0662 2.69717C23.9528 2.69717 23.7829 2.69717 23.5469 2.6877V2.92432C23.7357 2.94325 23.8584 2.95272 23.8962 2.96219L23.9906 3.00951L24.0284 3.09469C24.0284 3.09469 24.0378 3.2272 24.0378 3.36917L24.0567 4.17369V5.06338C24.0567 5.30948 24.0567 5.50823 24.0378 5.65967C24.0378 5.92468 24.0095 6.09505 24.0001 6.17078L23.9623 6.27489L23.9151 6.31275C23.9151 6.31275 23.764 6.33168 23.5469 6.34115V6.58723C23.8584 6.5683 24.0945 6.5683 24.2739 6.5683C24.3211 6.5683 24.5194 6.5683 24.8782 6.5683V6.5399Z" fill="white"/>
<path d="M7.87572 11.6418L7.97013 11.604L8.06454 11.6324L8.27226 11.7933L8.88596 12.3139L9.55631 12.9007C9.74517 13.0616 9.88676 13.1941 10.0001 13.2982C10.1889 13.4875 10.321 13.6105 10.3588 13.6579L10.4155 13.7525V13.8188C10.4155 13.8188 10.321 13.9513 10.1795 14.1217L10.3588 14.2826C10.5572 14.046 10.7082 13.8566 10.8309 13.7147C10.8593 13.6863 10.9914 13.5443 11.2275 13.2698L11.0575 13.1279L11.0198 13.1657L10.8309 13.355L10.7459 13.4023H10.6798C10.6798 13.4023 10.5288 13.2982 10.3588 13.1657C10.1228 12.967 9.89618 12.7682 9.67908 12.5883L8.64048 11.6702C10.3588 11.7365 11.6713 11.7555 12.5682 11.7459C12.6909 11.6418 12.8137 11.5377 12.9269 11.4431V11.3958C12.7193 11.2443 12.1527 10.7616 11.2369 9.94759C11.1142 9.8435 10.9348 9.68259 10.6988 9.45546C10.4532 9.22831 10.3116 9.07687 10.255 8.99169V8.94436C10.255 8.89704 10.3306 8.78346 10.4721 8.61309L10.2927 8.46165C10.1134 8.68881 9.97178 8.86864 9.84901 9.01062C9.72625 9.15259 9.58464 9.30403 9.42413 9.46493L9.59408 9.61637C9.764 9.43654 9.86784 9.34189 9.92452 9.33242L10.0567 9.37974C10.2078 9.47439 10.6515 9.85303 11.3974 10.5061L11.8789 10.932C11.5107 10.9509 11.0198 10.9509 10.4155 10.932C9.5752 10.9131 8.83875 10.8847 8.21561 10.8374L8.05511 11.0361L7.80019 11.3484C7.72465 11.4336 7.61135 11.5567 7.44141 11.7271L7.6208 11.888C7.76242 11.7459 7.84739 11.6702 7.87572 11.6418Z" fill="white"/>
<path d="M29.9277 6.95684L29.9655 6.72968C29.7955 6.70129 29.6822 6.6729 29.6445 6.65397L29.569 6.6161L29.5406 6.55932C29.5406 6.49307 29.5406 6.2943 29.569 6.11447L29.635 5.6223L29.7955 4.55276C29.7955 4.55276 29.8333 4.27828 29.9088 3.84289C29.9277 3.71986 29.9466 3.63467 29.956 3.58734L30.0127 3.42644L30.041 3.38859L30.1165 3.36019C30.1165 3.36019 30.2582 3.36019 30.4375 3.38859L30.4753 3.15196C30.1826 3.11411 29.8805 3.07624 29.55 3.02892C29.2573 2.98159 29.0118 2.94374 28.7853 2.89641L28.7475 3.13304C28.9363 3.17089 29.0497 3.18982 29.0874 3.20875L29.1441 3.24661V3.3034C29.1629 3.36019 29.1441 3.50216 29.1252 3.72932C29.1157 3.83343 29.0779 4.06059 29.0213 4.42026L28.8608 5.52765C28.8325 5.70748 28.8041 5.90624 28.7475 6.11447C28.7097 6.25644 28.7003 6.41735 28.6909 6.43627L28.6625 6.47413L28.5775 6.49307C28.5775 6.49307 28.4359 6.49306 28.2565 6.46467L28.2188 6.69182C28.4454 6.72022 28.7003 6.74862 28.9836 6.79594C29.3045 6.84327 29.6161 6.89059 29.8994 6.94737L29.9277 6.95684Z" fill="white"/>
<path d="M44.9223 13.9418C44.8467 13.9986 44.6485 14.1217 44.3464 14.311L43.3928 14.9072C43.2323 15.0019 43.0623 15.106 42.8735 15.2007C42.7413 15.2669 42.6091 15.352 42.5902 15.371H42.543L42.477 15.3142C42.458 15.2953 42.3919 15.2101 42.2881 15.0586L42.0898 15.1817C42.222 15.371 42.3636 15.5792 42.5147 15.8253C42.6941 16.1187 42.8452 16.3838 42.9963 16.6393L43.1945 16.5068C43.1095 16.3648 43.0528 16.2701 43.0434 16.2323V16.1472L43.0528 16.0809C43.0906 16.0335 43.2511 15.92 43.4022 15.8159L43.8177 15.5508L44.7335 14.9735C44.7335 14.9735 44.9601 14.8316 45.3377 14.6138L45.5643 14.4813L45.7248 14.4056H45.7815L45.8476 14.4529C45.8664 14.4813 45.9325 14.5664 46.0364 14.7274L46.2347 14.5949C46.0742 14.3488 45.9043 14.0932 45.7342 13.8093C45.5832 13.5632 45.451 13.3361 45.3377 13.1373L45.1394 13.2698C45.2339 13.4402 45.2905 13.5443 45.2999 13.5727V13.6484L45.281 13.6957C45.2433 13.7336 45.1206 13.8188 44.9318 13.9418H44.9223Z" fill="white"/>
<path d="M31.6667 3.99417C31.6856 4.15508 31.7233 4.61885 31.7894 5.39497L31.8649 6.39826C31.8933 6.76738 31.9216 7.15544 31.9405 7.56243L32.3371 7.69494C32.5353 7.42993 32.9035 6.99454 33.4322 6.38879L34.0554 5.67892L34.3764 5.30979C34.6408 5.00692 34.8013 4.84602 34.8674 4.81762C34.9051 4.81762 34.9995 4.81762 35.1695 4.86494L35.2451 4.63779L34.688 4.46742L34.046 4.24027L33.9705 4.46742L34.2442 4.581L34.3292 4.61885L34.3575 4.66618V4.73244L34.3197 4.79869C34.282 4.86494 34.1875 4.98799 34.046 5.16782C33.8383 5.42337 33.7343 5.56534 33.7061 5.6032L32.6675 6.82417L32.5447 5.02584V4.96906C32.5447 4.96906 32.5447 4.85547 32.5258 4.67565C32.4976 4.3633 32.4976 4.174 32.5164 4.12668L32.5542 4.0699H32.6392C32.7147 4.0699 32.828 4.08882 32.9602 4.13615L33.0357 3.91845L32.1105 3.62505C32.016 3.59665 31.7705 3.51147 31.3646 3.36003L31.2891 3.57772C31.4495 3.63451 31.5439 3.6913 31.5912 3.73862C31.6195 3.76702 31.6478 3.86167 31.6667 4.0131V3.99417Z" fill="white"/>
<path d="M35.8485 6.31274L35.2348 7.37281C35.1687 7.49586 35.046 7.68515 34.876 7.95016C34.791 8.09214 34.7155 8.19626 34.6683 8.25304H34.3568L34.2812 8.38555C34.7722 8.65056 35.0366 8.80201 35.0649 8.8304C35.2065 8.90611 35.4614 9.05756 35.8296 9.28471L36.2073 9.51187C36.3961 9.61598 36.5378 9.69174 36.6416 9.72958H36.6888C36.8115 9.51187 36.9721 9.27525 37.1892 8.9913L37.0004 8.87773C36.8399 9.07648 36.736 9.19953 36.6604 9.25632L36.6039 9.27525C36.6039 9.27525 36.4622 9.24685 36.3206 9.17113C36.1695 9.09541 36.0091 9.01023 35.839 8.91558C35.6691 8.81146 35.5275 8.72628 35.4048 8.6411L35.5653 8.34769L36.1412 7.34441C36.2451 7.40121 36.3773 7.46746 36.5283 7.55264C36.6983 7.65676 36.8305 7.74194 36.9249 7.81766L36.991 7.93124C36.991 7.98803 36.9437 8.11107 36.8305 8.29091L37.0287 8.41394L37.3214 7.88391L37.6235 7.38227L37.4347 7.27816C37.3498 7.41067 37.2837 7.50532 37.227 7.55264L37.1703 7.58104L37.0098 7.51478C36.7832 7.39174 36.651 7.31602 36.6133 7.29709L36.2922 7.09832L36.5661 6.61562C36.7265 6.34114 36.8682 6.12345 36.991 5.96254C37.142 6.03827 37.2931 6.10452 37.4253 6.1897C37.5669 6.27489 37.718 6.36954 37.8595 6.48311L38.0295 6.62509V6.69134C38.0106 6.73866 37.954 6.85224 37.8501 7.04154L38.0295 7.14565C38.1617 6.94689 38.2373 6.84277 38.2467 6.82384L38.4827 6.5115V6.47365L38.4072 6.41686C38.2467 6.31274 38.1334 6.23702 38.0767 6.20863L37.5952 5.94362C37.3214 5.79217 37.0853 5.65967 36.8776 5.53662L36.5661 5.35679L36.0373 5.01605L35.9146 5.22428C36.094 5.33786 36.1978 5.41358 36.2262 5.4609L36.2451 5.5177C36.2451 5.5177 36.179 5.6786 36.094 5.85843C35.943 6.12345 35.858 6.28435 35.839 6.32221L35.8485 6.31274Z" fill="white"/>
<path d="M3.1729 22.2233L3.22011 22.1949C3.26732 22.1854 3.39006 22.1949 3.58833 22.2421C3.89046 22.3084 4.05097 22.3368 4.09818 22.3463L5.28782 22.6208C5.42944 22.6492 5.6466 22.7154 5.93928 22.8006C6.10923 22.8479 6.22253 22.8763 6.29806 22.9142L6.38303 23.2076L6.52465 23.2454C6.63796 22.6965 6.70404 22.3936 6.71349 22.3558C6.75126 22.2043 6.81735 21.9109 6.9212 21.4945L7.02506 21.0686C7.07227 20.8603 7.10059 20.6994 7.11947 20.5858L7.09115 20.5385C6.86455 20.4912 6.58131 20.406 6.24141 20.283L6.1942 20.5006C6.4208 20.5858 6.58131 20.6521 6.65684 20.7089L6.6946 20.7467C6.71349 20.794 6.70404 20.8887 6.68516 21.059C6.65684 21.2294 6.61907 21.3998 6.58131 21.5891C6.5341 21.7878 6.48689 21.9487 6.44912 22.0908C6.35471 22.0623 6.25086 22.0529 6.12811 22.015L5.01401 21.7595C5.03289 21.6459 5.05177 21.5039 5.09898 21.3336C5.14619 21.1443 5.1934 20.9928 5.2406 20.8697L5.33502 20.7752C5.39167 20.7562 5.51441 20.7752 5.72213 20.8224L5.76933 20.5858L5.1934 20.4628L4.61746 20.3208L4.56081 20.5385C4.72132 20.5763 4.83462 20.6142 4.89126 20.6615L4.93848 20.7089L4.91959 20.8793C4.87239 21.1348 4.83462 21.2768 4.83462 21.324C4.79685 21.4565 4.76853 21.5796 4.73076 21.6932L4.19259 21.5702C3.88102 21.4945 3.63554 21.4281 3.43727 21.3619C3.46559 21.2011 3.49392 21.0306 3.53168 20.8793C3.56945 20.7089 3.61666 20.5385 3.68274 20.3681L3.77716 20.1694L3.82437 20.1409C3.87158 20.1409 4.00376 20.1694 4.21147 20.2072L4.25869 20.0084C4.04153 19.9422 3.90935 19.8949 3.89046 19.8949L3.52224 19.7624H3.48448L3.44671 19.8475C3.39006 20.0369 3.36173 20.1694 3.34285 20.2356L3.22956 20.7752C3.1729 21.078 3.11626 21.343 3.05017 21.5796L2.96519 21.9298L2.80469 22.5355L3.03128 22.5829C3.09737 22.3746 3.13514 22.2611 3.16346 22.2137L3.1729 22.2233Z" fill="white"/>
<path d="M39.0694 8.40443L38.4273 9.18055L37.908 9.78631L37.6814 10.004L37.6154 10.0513H37.5587C37.5587 10.0513 37.4171 9.95666 37.2566 9.83359L37.1055 10.0135C37.2943 10.1554 37.5021 10.3258 37.7192 10.4962C37.9647 10.695 38.2007 10.9032 38.4368 11.1019L38.5879 10.9221C38.4557 10.8085 38.3801 10.7328 38.3613 10.7044L38.314 10.6287V10.5813L38.4179 10.411C38.4557 10.3637 38.5783 10.2028 38.8049 9.89984C38.9938 9.66324 39.1732 9.44556 39.3432 9.22788C39.4564 9.09536 39.683 8.83981 40.0041 8.45176C40.1552 8.28139 40.2496 8.17727 40.2873 8.12049L40.5044 8.27192C40.6649 8.39496 40.75 8.48961 40.7971 8.56533C40.8632 8.66944 40.8915 8.79249 40.8821 8.92499C40.8821 9.05751 40.816 9.19948 40.7122 9.31306C40.6084 9.4361 40.4856 9.53075 40.344 9.57808C40.2023 9.64437 40.0701 9.6538 39.9569 9.61593C39.8341 9.58754 39.6925 9.50236 39.532 9.36038L39.447 9.40771L39.4659 9.6538C39.4564 9.84312 39.4282 10.1081 39.3809 10.4204L39.2204 11.5278L39.1732 11.6887L39.5131 11.9537C39.6075 12.0294 39.7586 12.1619 39.9757 12.3418L40.1174 12.1619L39.9946 12.039L39.9663 11.9349C39.9663 11.9349 39.9663 11.755 39.9757 11.5278C39.9757 11.5184 39.9852 11.4048 40.0041 11.206L40.0891 10.4488V10.392L40.1079 10.2122L40.1456 9.91881C40.4289 10.0135 40.6839 10.0419 40.9011 9.98506C41.1181 9.93778 41.2976 9.82415 41.4298 9.6538C41.5525 9.51181 41.6091 9.36038 41.6186 9.19948C41.6186 9.03858 41.5808 8.89661 41.5053 8.78302C41.4203 8.65998 41.2692 8.50854 41.0521 8.32871C40.9388 8.23406 40.7877 8.12049 40.6178 7.98797C40.5044 7.90279 40.3818 7.79867 40.2307 7.6851C40.0607 7.54312 39.9285 7.43901 39.8435 7.35382C39.6547 7.19292 39.5508 7.09827 39.5131 7.06989L39.3715 7.24025C39.532 7.40115 39.6169 7.4958 39.6453 7.54312V7.60938C39.6453 7.60938 39.5508 7.76082 39.4093 7.94065L39.0599 8.38549L39.0694 8.40443Z" fill="white"/>
<path d="M40.9852 13.4115C40.8624 13.2507 40.7869 13.0802 40.7586 12.9004C40.7208 12.7111 40.7302 12.5596 40.7775 12.4367C40.9191 12.3042 41.0418 12.1905 41.1551 12.1148L41.0135 11.935C40.6831 12.2 40.4092 12.3609 40.2109 12.4367C40.2582 12.6733 40.3148 12.872 40.3904 13.0329C40.4659 13.1938 40.5697 13.3736 40.7019 13.5441C40.8813 13.7901 41.0796 13.9794 41.2873 14.0835C41.41 14.1592 41.5611 14.216 41.7311 14.2444C41.8916 14.2823 42.0521 14.2917 42.2031 14.2728C42.4014 14.235 42.5996 14.1498 42.7791 14.0078L43.034 13.7428L43.1662 13.4778V13.1938C43.1662 13.0897 43.1284 12.9667 43.0718 12.8342C43.0434 12.7774 42.9868 12.6733 42.8923 12.4934C42.8074 12.3326 42.7413 12.1905 42.6941 12.0959C42.6375 11.9539 42.5996 11.8498 42.5996 11.7646L42.6375 11.528L42.8358 11.3009C42.9679 11.2062 43.1189 11.1683 43.3078 11.1968C43.4872 11.2346 43.6477 11.3481 43.8082 11.547C43.9026 11.6795 43.9782 11.8214 44.0159 11.9729C44.0537 12.1148 44.0537 12.2379 44.0253 12.3326C43.9593 12.4083 43.846 12.5029 43.6855 12.6354L43.8271 12.8058C43.9782 12.7017 44.1009 12.6165 44.2048 12.5502L44.5163 12.3893L44.5541 12.3326C44.5257 12.1905 44.4691 12.0392 44.3841 11.8687C44.3086 11.6984 44.2048 11.547 44.082 11.3955C43.9687 11.244 43.846 11.1115 43.7043 10.998C43.5721 10.8844 43.4116 10.8087 43.2511 10.7519C43.0906 10.6856 42.9113 10.6856 42.7318 10.7235C42.5431 10.7614 42.373 10.8371 42.2031 10.9696L41.9199 11.263C41.8443 11.3861 41.8066 11.4996 41.7972 11.6321C41.7877 11.7646 41.8066 11.9067 41.8633 12.058C41.901 12.1527 41.9954 12.3609 42.137 12.6733C42.2409 12.891 42.2881 13.0424 42.3165 13.1465L42.2787 13.421L42.0899 13.6482L41.7405 13.8091C41.6177 13.8091 41.4951 13.7901 41.3629 13.7144C41.2307 13.6386 41.1174 13.5441 41.0041 13.4115H40.9852Z" fill="white"/>
<path d="M4.16431 26.3031C4.28706 26.2559 4.40035 26.199 4.49476 26.1044C4.58918 26.0097 4.65527 25.8868 4.71192 25.7258C4.74024 25.6218 4.7969 25.404 4.87243 25.0728C4.93852 24.8456 4.98572 24.6847 5.04238 24.5995L5.24064 24.4007L5.53334 24.3345C5.67496 24.3345 5.78826 24.3723 5.90156 24.4387C6.00542 24.5049 6.09039 24.609 6.14704 24.7415C6.20368 24.874 6.23201 25.0349 6.23201 25.2053C6.23201 25.404 6.17537 25.5838 6.09039 25.7543C5.99598 25.9246 5.90156 26.0381 5.77882 26.1044C5.58998 26.1234 5.42003 26.1234 5.28786 26.1234V26.3505C5.71273 26.36 6.02429 26.3978 6.23201 26.4641C6.34531 26.2464 6.4114 26.0665 6.46805 25.8868C6.50582 25.7069 6.53414 25.5081 6.54358 25.2905C6.55302 24.9875 6.51526 24.7131 6.43973 24.4954C6.38307 24.3629 6.30754 24.2209 6.20368 24.0884C6.09983 23.9559 5.97709 23.8518 5.85435 23.776C5.67496 23.6814 5.46725 23.6247 5.24064 23.6151C5.09902 23.6151 4.98572 23.6247 4.88187 23.6625L4.61751 23.7856L4.42868 23.9938C4.37203 24.0884 4.32482 24.202 4.27761 24.3534C4.25873 24.4102 4.23984 24.5332 4.19264 24.7225C4.15487 24.9119 4.12654 25.0538 4.10766 25.1674C4.06045 25.2999 4.02269 25.404 3.97548 25.4797L3.79609 25.6312L3.5034 25.688C3.3429 25.688 3.19183 25.6122 3.06909 25.4797C2.95579 25.3378 2.8897 25.1485 2.89915 24.9024C2.89915 24.732 2.93691 24.5712 3.00299 24.4387C3.06909 24.2966 3.14462 24.202 3.22016 24.1452C3.30513 24.1357 3.45619 24.1263 3.66391 24.1263V23.8991C3.48452 23.8991 3.33346 23.8707 3.22016 23.8613L2.87082 23.795L2.80473 23.8139C2.7292 23.9464 2.68198 24.0979 2.64422 24.2872C2.60645 24.467 2.58757 24.6468 2.57812 24.8456C2.57812 25.0254 2.58757 25.2147 2.62534 25.3946C2.6631 25.5744 2.71975 25.7353 2.82361 25.8678C2.91802 26.0097 3.05021 26.1234 3.21071 26.218C3.38066 26.3127 3.56949 26.3505 3.76777 26.36C3.91883 26.36 4.05101 26.3411 4.1832 26.2937L4.16431 26.3031Z" fill="white"/>
<path d="M49.1808 24.7128C49.1336 24.5424 49.0581 24.3814 48.9636 24.2489C48.8598 24.107 48.7276 24.0029 48.5482 23.9272C48.3688 23.842 48.18 23.8041 47.9817 23.823C47.8401 23.823 47.6984 23.8514 47.5758 23.9082C47.453 23.9651 47.3492 24.0407 47.2641 24.1448C47.1791 24.2395 47.113 24.372 47.0753 24.5329C47.047 24.637 47.0092 24.8547 46.9431 25.186C46.9054 25.4132 46.8582 25.5741 46.8109 25.6782L46.6221 25.8864L46.3294 25.9621C46.1878 25.9621 46.065 25.9432 45.9518 25.8864C45.8384 25.8296 45.7535 25.7255 45.6874 25.6025C45.6213 25.47 45.5836 25.3091 45.5836 25.1482C45.5741 24.9494 45.6213 24.7695 45.6874 24.5897C45.7724 24.4194 45.8668 24.2963 45.9801 24.2205C46.169 24.1922 46.3294 24.1733 46.4617 24.1733V23.9461C46.0273 23.9555 45.7158 23.9461 45.508 23.8893C45.4136 24.0976 45.3475 24.2963 45.3097 24.4761C45.2814 24.656 45.2626 24.8547 45.272 25.0819C45.272 25.3848 45.3381 25.6498 45.4325 25.8581C45.4986 26 45.5741 26.1325 45.6968 26.2556C45.8102 26.3785 45.9329 26.4827 46.0746 26.549C46.2539 26.6341 46.4617 26.6815 46.6882 26.6719C46.8205 26.6719 46.9431 26.6436 47.047 26.6057L47.3114 26.4638L47.4908 26.2366C47.5379 26.1419 47.5758 26.0284 47.6135 25.8769C47.6135 25.8201 47.6419 25.6876 47.6607 25.4984C47.689 25.3091 47.7079 25.167 47.7268 25.0535C47.7551 24.9116 47.7929 24.8074 47.8401 24.7411L48.01 24.5708L48.3027 24.4951C48.4727 24.4951 48.6143 24.5519 48.7464 24.6844C48.8787 24.8169 48.9448 25.0061 48.9542 25.2523C48.9542 25.4226 48.9353 25.5835 48.8787 25.7255C48.822 25.8675 48.7559 25.9716 48.6803 26.0284C48.586 26.0473 48.4443 26.0568 48.2367 26.0757V26.3028C48.4255 26.3028 48.586 26.3028 48.6899 26.3028L49.0391 26.3502L49.1052 26.3313C49.1619 26.1987 49.2092 26.0378 49.2375 25.8581C49.2657 25.6687 49.2752 25.4889 49.2657 25.2901C49.2657 25.1008 49.228 24.921 49.1808 24.7506V24.7128Z" fill="white"/>
<path d="M45.9046 15.8446C46.0462 15.7878 46.1879 15.7405 46.3107 15.7121H46.4145L46.4711 15.7972C46.5372 15.9298 46.6128 16.0906 46.6883 16.2611L46.8488 16.6207C46.8488 16.6207 46.575 16.7437 46.169 16.9236L44.6678 17.5672C44.309 17.7281 44.0824 17.8133 44.0069 17.8322L43.8747 17.7849C43.8747 17.7849 43.7709 17.6524 43.6764 17.4536L43.4688 17.5388C43.6198 17.8417 43.7425 18.1161 43.8369 18.3528C43.9408 18.5705 44.0446 18.8544 44.1768 19.1857L44.3846 19.091C44.309 18.8923 44.2712 18.7598 44.2712 18.7125L44.3373 18.5989C44.4034 18.542 44.6111 18.4474 44.9794 18.2865L46.4806 17.6429C46.8771 17.463 47.1037 17.3779 47.1698 17.3495L47.3208 17.7092C47.4058 17.9079 47.4719 18.0688 47.5192 18.2108L47.538 18.3054L47.4436 18.3907C47.3303 18.4569 47.2076 18.5232 47.0848 18.5894L47.1698 18.7882C47.5286 18.6461 47.7079 18.5705 47.7269 18.561L48.0006 18.4758L48.0195 18.4379L47.9062 18.2202C47.8401 18.0783 47.7174 17.7943 47.538 17.3779L47.1037 16.3652C46.9243 15.9581 46.811 15.6742 46.7544 15.5322L46.6694 15.2767H46.6316L46.405 15.3903C46.3578 15.4092 46.169 15.4944 45.8291 15.6458L45.9235 15.854L45.9046 15.8446Z" fill="white"/>
<path d="M46.0162 20.1128C45.6574 20.0655 45.4213 20.0277 45.2986 20.0087C45.0437 19.9615 44.8926 19.933 44.8454 19.9235L44.751 19.8857L44.6943 19.8194C44.6943 19.8194 44.6472 19.7153 44.5999 19.5734L44.3828 19.6301L44.5433 20.2359L44.6755 20.8606L44.9021 20.8038C44.8548 20.5861 44.836 20.4536 44.8548 20.4062L44.9399 20.34C44.9964 20.3211 45.157 20.34 45.4213 20.3684L45.7707 20.4062L46.1011 21.7787L45.5724 22.1478L45.3741 22.252L45.2891 22.233C45.2891 22.233 45.2326 22.091 45.1665 21.8828L44.9493 21.9396L45.1853 22.8671L45.3458 23.6148L45.563 23.558V23.4445L45.5347 23.2741L45.5536 23.2173L45.6197 23.1511L45.8273 22.9902L46.1484 22.7346L48.6315 20.8795L48.5465 20.5009L47.8856 20.4157L46.0162 20.1223V20.1128ZM46.3844 21.5609C46.3372 21.4096 46.29 21.2202 46.2428 21.0215C46.1955 20.8133 46.1484 20.624 46.12 20.4536L47.6118 20.6713L46.3844 21.5609Z" fill="white"/>
<path d="M47.8126 28.603C47.2462 28.603 46.793 29.0667 46.793 29.6252C46.793 30.1837 47.2462 30.6474 47.8126 30.6474C48.3792 30.6474 48.8324 30.1931 48.8324 29.6252C48.8324 29.0573 48.3792 28.603 47.8126 28.603Z" fill="white"/>
<path d="M48.3118 32.9662L48.2646 32.9946H48.208C48.208 32.9946 48.0664 32.9662 47.8964 32.8999C47.8681 32.8999 47.7737 32.8525 47.6037 32.7863L46.9333 32.5118L46.3857 32.2847L46.1497 32.1806L45.9892 32.0575C45.9892 32.0575 45.9892 31.925 46.0459 31.7831V31.7641L45.8948 31.6978L45.6777 32.2752C45.6587 32.3225 45.6116 32.4361 45.536 32.597L45.7532 32.8147C45.8098 32.8715 45.9608 33.0324 46.2064 33.2974L46.6407 33.7706C46.754 33.8937 46.905 34.064 47.1128 34.3006L45.6021 34.4048H45.2528L44.7996 34.4427C44.7523 34.5752 44.7052 34.7171 44.6485 34.8496C44.6107 34.9537 44.5352 35.1242 44.4219 35.3986L44.5824 35.4649L44.7052 35.2377L44.7523 35.1809H44.7996C44.7996 35.1809 44.9695 35.2187 45.1678 35.2945C45.366 35.3702 45.6021 35.4649 45.8664 35.569C46.1591 35.6826 46.3669 35.7677 46.4895 35.8245C46.7351 35.9286 46.8862 36.0043 46.9617 36.0423L47.0278 36.0895V36.1368C47.0278 36.1368 47.0184 36.2694 46.9711 36.4114L47.1316 36.4776C47.1694 36.3545 47.226 36.2032 47.311 36.0043C47.3676 35.8529 47.4337 35.7109 47.4998 35.5595L47.3393 35.4933C47.2732 35.6258 47.2354 35.7015 47.226 35.7204L47.1694 35.7677H47.0939C47.0939 35.7677 46.9333 35.7109 46.7162 35.6258C46.4991 35.5501 46.3102 35.4743 46.1497 35.408L45.1961 35.0295L46.4424 34.9348C46.6312 34.9253 46.9239 34.9064 47.3015 34.8875C47.5187 34.878 47.6981 34.8686 47.8208 34.8686L47.8681 34.7361L47.5942 34.4521C47.4149 34.2534 47.2638 34.1019 47.1694 33.9978L46.8106 33.6003L46.0836 32.7863L47.4904 33.3542C47.7642 33.4583 47.9247 33.534 47.9625 33.5624L48.038 33.6476C48.038 33.6476 48.0097 33.7706 47.953 33.9315L48.1135 33.9978L48.3495 33.3921L48.6045 32.7863L48.444 32.72C48.3779 32.862 48.3401 32.9378 48.3307 32.9566L48.3118 32.9662Z" fill="white"/>
<path d="M45.9524 36.9039L45.6313 36.6673L45.216 36.4118C45.0838 36.3266 44.9233 36.2225 44.7155 36.0711C44.5078 35.9291 44.3945 35.8533 44.3662 35.8155L44.3379 35.7492L44.4417 35.5221L44.2906 35.4274L44.0546 35.8345L44.0263 35.8817C44.0263 35.8817 43.9224 36.0426 43.7713 36.2604L43.9224 36.355C44.0075 36.2225 44.0735 36.1373 44.1207 36.1183H44.1868C44.1868 36.1183 44.319 36.1563 44.4701 36.2509C44.5362 36.2888 44.725 36.4118 45.0459 36.6106L45.4142 36.8377C45.6691 36.9986 45.8296 37.1217 45.8863 37.2257C45.9524 37.3204 45.9807 37.4435 45.9807 37.5665C45.9807 37.7085 45.9146 37.86 45.8108 38.0209C45.7163 38.1722 45.6313 38.2763 45.5275 38.3426L45.2254 38.4468L44.9044 38.3616C44.8572 38.3332 44.7155 38.248 44.4984 38.1154L44.2906 37.9829L43.8753 37.7275C43.6203 37.5665 43.4598 37.4529 43.3937 37.3961L43.356 37.3204C43.356 37.2731 43.3937 37.1785 43.4692 37.046L43.3276 36.9607L43.2899 37.027L43.1482 37.2731L42.9972 37.5192L42.6289 38.0966L42.78 38.1912L42.9499 37.9735H43.0255L43.1577 38.0113C43.2993 38.0871 43.4504 38.1817 43.6203 38.2763L44.0735 38.5698L44.4228 38.7875C44.6117 38.901 44.725 38.9768 44.7722 38.9957L45.0271 39.0619L45.3386 39.0241L45.6503 38.8348C45.8014 38.7118 45.9335 38.5509 46.0468 38.371C46.1412 38.2196 46.2073 38.0681 46.2451 37.9262C46.2828 37.7842 46.3017 37.6612 46.2828 37.5287C46.2828 37.4056 46.2451 37.292 46.1884 37.1973L45.9524 36.9229V36.9039Z" fill="white"/>
<path d="M44.5624 40.055L44.5057 40.0929H44.449L44.213 39.932L43.9109 39.7048L43.2311 39.1842C43.2311 39.1842 43.0611 39.0517 42.7968 38.8341L42.6363 38.7016L42.5418 38.5974V38.5595V38.4933L42.6834 38.2851L42.5323 38.1715C42.4002 38.3608 42.2586 38.5595 42.0981 38.7583C41.9565 38.9476 41.8337 39.0991 41.7109 39.241L41.8526 39.3547L42.032 39.1559L42.0792 39.1369H42.1264C42.1264 39.1369 42.2586 39.2222 42.4002 39.3262C42.4662 39.3735 42.6079 39.4872 42.825 39.6575L43.5238 40.197C43.637 40.2822 43.7598 40.3768 43.8825 40.4999L44.0336 40.6324L44.0525 40.6703L44.0336 40.7365L43.892 40.9353L44.0431 41.0488C44.1469 40.9069 44.2602 40.7365 44.4018 40.5566C44.5624 40.3484 44.7134 40.1591 44.855 39.9793L44.7134 39.8657L44.5434 40.055H44.5624Z" fill="white"/>
<path d="M41.3051 43.5577L41.2389 43.5767L41.1918 43.5577L40.9935 43.3589L40.7386 43.0655L40.1909 42.4125C40.1909 42.4125 40.0587 42.2515 39.8321 41.9771L39.7095 41.8162L39.6339 41.6931V41.6553L39.6622 41.5985L39.8417 41.4281L39.7189 41.2767C39.549 41.4375 39.3695 41.5985 39.1713 41.7689C39.0013 41.9108 38.8314 42.0433 38.6992 42.1569L38.8219 42.2989L39.0391 42.138H39.0958L39.1335 42.1474C39.1713 42.1759 39.2468 42.2515 39.3695 42.384C39.4262 42.4409 39.5394 42.5828 39.7189 42.7911L40.2853 43.463C40.3798 43.5767 40.4742 43.6997 40.578 43.8322L40.6914 44.0026V44.0404L40.6631 44.0973L40.4836 44.2676L40.597 44.4191C40.7291 44.296 40.8801 44.1635 41.0502 44.012C41.2484 43.8417 41.4373 43.6902 41.6166 43.5483L41.5034 43.4063L41.3051 43.5577Z" fill="white"/>
<path d="M18.3433 45.1855C18.1261 45.1003 17.9373 45.0246 17.7768 44.9583L17.7107 45.1287C17.8524 45.1949 17.9279 45.2233 17.9562 45.2328L17.994 45.2802V45.3274C17.994 45.3274 17.9656 45.4883 17.8995 45.6493C17.8807 45.7249 17.8146 45.8954 17.7107 46.1604L17.3992 46.9838C17.3519 47.1163 17.2953 47.2678 17.2197 47.4192L17.1348 47.5991L17.1065 47.6179H17.0498C17.0498 47.6179 16.946 47.5895 16.8044 47.5422L16.7383 47.7126C16.9082 47.7694 17.0971 47.8357 17.3047 47.9208C17.5502 48.006 17.7768 48.1007 17.9846 48.2048L18.0506 48.025C17.9279 47.9776 17.8524 47.9398 17.824 47.9208L17.7768 47.8735V47.8262C17.7768 47.8262 17.7957 47.6842 17.8429 47.5517L17.975 47.192L18.2772 46.397C18.2772 46.397 18.3527 46.1982 18.4755 45.8764L18.5604 45.6777L18.6265 45.5546L18.6549 45.5357H18.7209C18.7209 45.5357 18.8248 45.564 18.9571 45.6114L19.0231 45.4411C18.806 45.3653 18.5793 45.2802 18.3338 45.1949L18.3433 45.1855Z" fill="white"/>
<path d="M14.1734 42.9612C13.9847 42.8382 13.8147 42.7152 13.6731 42.6205L13.5692 42.7719C13.692 42.8571 13.7675 42.914 13.7864 42.9328L13.8147 42.9802V43.0275C13.8147 43.0275 13.7297 43.1694 13.6447 43.3209C13.5976 43.3966 13.5031 43.5481 13.352 43.7847L12.8706 44.523C12.7856 44.646 12.7006 44.769 12.5967 44.911L12.4835 45.072L12.4457 45.0908L12.3796 45.072C12.3796 45.072 12.2852 45.0246 12.1624 44.9489L12.0586 45.1098C12.2191 45.2045 12.3796 45.299 12.5779 45.4316C12.795 45.5736 12.9932 45.7061 13.1821 45.8386L13.2859 45.6871L13.0783 45.5357L13.0405 45.4789V45.4316L13.1727 45.1855L13.3804 44.8542L13.843 44.1443C13.843 44.1443 13.9563 43.9646 14.1546 43.6806L14.2774 43.5102L14.3623 43.4061L14.4 43.3872H14.4567L14.6833 43.5291L14.7872 43.3683C14.5889 43.2547 14.3812 43.1222 14.164 42.9896L14.1734 42.9612Z" fill="white"/>
<path d="M42.9872 41.9009H42.8833C42.8266 41.8536 42.6945 41.74 42.4773 41.5223L41.5709 40.642C41.3254 40.4054 41.1933 40.2729 41.1555 40.2351L41.3632 40.0174L41.6653 39.724L41.722 39.6956L41.807 39.7334L42.0524 39.9322L42.1752 39.8092C41.958 39.5915 41.8541 39.4968 41.8447 39.4779L41.703 39.3075H41.6748L41.552 39.459C41.467 39.5442 41.3065 39.7145 41.0611 39.9701L40.4663 40.5852C40.2302 40.8314 40.0602 40.9923 39.9753 41.0774L39.8242 41.2194V41.2478L39.9847 41.3708C40.0131 41.3898 40.1263 41.5033 40.3435 41.7022L40.4663 41.5791L40.2491 41.3235L40.2113 41.2478L40.2585 41.1816L40.5229 40.8786L40.7306 40.661C40.7306 40.661 40.91 40.8219 41.1555 41.0585L42.0524 41.9482C42.279 42.1564 42.4018 42.2984 42.4301 42.3457L42.4489 42.4498L42.2696 42.696L42.3924 42.819C42.5623 42.6203 42.7228 42.4498 42.8644 42.3079C42.9966 42.1754 43.1665 42.0239 43.3648 41.8347L43.2421 41.7116L43.006 41.9009H42.9872Z" fill="white"/>
<path d="M21.3855 46.4059L21.4516 46.4437V46.5384L21.3949 46.8412L21.5554 46.898C21.6403 46.6046 21.6876 46.4627 21.697 46.4532L21.782 46.2449L21.7631 46.2261L21.5743 46.1881C21.461 46.1503 21.225 46.0936 20.885 45.9989L20.0636 45.7622C19.7332 45.6676 19.516 45.6013 19.3933 45.5634L19.1951 45.4878L19.1761 45.5067L19.1384 45.7055C19.1384 45.7055 19.0817 45.8947 19.0156 46.1787L19.1856 46.2261L19.3083 45.9137L19.3556 45.8569H19.4405C19.5538 45.8853 19.686 45.9137 19.8276 45.961L20.1203 46.0462C20.1203 46.0462 20.0636 46.2733 19.9598 46.6046L19.6104 47.8255C19.5255 48.119 19.4688 48.2988 19.4405 48.3461L19.3556 48.4124C19.3556 48.4124 19.2233 48.4029 19.0629 48.3651L19.0156 48.526C19.2706 48.5923 19.4878 48.6491 19.686 48.6964C19.8654 48.7436 20.0826 48.8194 20.3469 48.9141L20.3941 48.7436C20.2336 48.6869 20.1391 48.6491 20.1203 48.6301L20.0826 48.5354C20.0826 48.4598 20.1203 48.2894 20.2147 48.0054L20.5641 46.7845C20.6584 46.4627 20.7057 46.2733 20.734 46.2261L21.0172 46.3112C21.1777 46.3586 21.3099 46.3964 21.4138 46.4437L21.3855 46.4059Z" fill="white"/>
<path d="M11.4823 43.5293L12.2848 42.5449C12.4926 42.2799 12.6153 42.1379 12.6531 42.1001L12.8891 42.2894C13.0119 42.384 13.1251 42.4786 13.2006 42.5638L13.2479 42.6206L13.2102 42.7058L13.0307 42.9709L13.1723 43.0844C13.3612 42.8572 13.465 42.7342 13.4745 42.7247L13.635 42.5638V42.5354L13.4745 42.4219C13.3801 42.3461 13.1912 42.1947 12.9175 41.977L12.2565 41.4376C11.9921 41.2198 11.8034 41.0684 11.7184 40.9927L11.5673 40.8507H11.5389L11.4351 41.0116C11.4351 41.0116 11.3124 41.1725 11.133 41.3997L11.2746 41.5132L11.5107 41.2766L11.5768 41.2293L11.6523 41.2671L11.9733 41.5132L12.2093 41.7026C12.2093 41.7026 12.0677 41.8919 11.8505 42.1569L11.0575 43.1412C10.8686 43.3873 10.7459 43.5198 10.6987 43.5482L10.5949 43.5766C10.5949 43.5766 10.4721 43.5103 10.3399 43.4062L10.2266 43.5482C10.4343 43.6996 10.6231 43.8416 10.7742 43.9647C10.9158 44.0877 11.0952 44.2297 11.3029 44.4094L11.4067 44.2769C11.2746 44.1634 11.2085 44.0877 11.1991 44.0593V43.9552C11.2274 43.8984 11.3312 43.7469 11.5201 43.5198L11.4823 43.5293Z" fill="white"/>
<path d="M38.7013 43.4813L38.6352 43.1027C38.5785 42.7998 38.5597 42.62 38.5691 42.5821L38.7485 42.4118L38.6446 42.2603L38.2764 42.5159L37.8232 42.8093L37.9177 42.9608L38.1253 42.8471L38.1914 42.8187H38.2293L38.2764 42.8661L38.3048 42.9039C38.3236 42.9608 38.3519 43.0838 38.3897 43.2542C38.4464 43.5097 38.4747 43.6422 38.4747 43.6801L38.7202 44.9105L37.5589 44.1154L37.5211 44.087L37.3417 43.964C37.1434 43.822 37.0302 43.7368 37.0018 43.699V43.6422L37.0208 43.5854L37.2284 43.4245L37.1246 43.273L36.492 43.6895C36.4354 43.7368 36.2559 43.841 35.9727 44.0208L36.0766 44.1723L36.3126 44.0586L36.5203 44.1439C36.6241 44.2007 36.9263 44.4089 37.4267 44.7496L38.0688 45.185C38.3048 45.3459 38.5597 45.5163 38.8146 45.7056L39.0884 45.5257C39.0318 45.2797 38.9373 44.8442 38.8241 44.2195L38.6919 43.4908L38.7013 43.4813Z" fill="white"/>
<path d="M17.3738 45.0059C17.3738 45.0059 17.4871 45.0248 17.6098 45.0721L17.6949 44.9112L17.2794 44.7125L16.8073 44.4569L16.7223 44.6178L16.9206 44.7409L16.9867 44.7882V44.826V44.8734L16.9584 44.9207C16.9584 44.9207 16.8262 45.0532 16.694 45.1668C16.5146 45.3372 16.4013 45.4318 16.3824 45.4507L15.4382 46.2742L15.561 44.8639V44.826C15.561 44.826 15.5705 44.7409 15.5799 44.5989C15.5987 44.3528 15.6271 44.2109 15.646 44.1825L15.6838 44.1445H15.7593L15.9954 44.2392L16.0803 44.0783L15.4005 43.7565C15.3344 43.7186 15.155 43.624 14.8529 43.4631L14.7773 43.624L14.9851 43.7754C14.9851 43.7754 15.0134 43.8795 15.0134 44.0026C15.0134 44.1162 14.9851 44.4853 14.9379 45.091L14.8812 45.8672C14.8529 46.1512 14.834 46.454 14.8057 46.7664L15.089 46.9083C15.2778 46.738 15.5987 46.4446 16.0897 46.0375L16.6563 45.5549L16.949 45.3182C17.1944 45.11 17.3266 45.0059 17.3832 44.9965L17.3738 45.0059Z" fill="white"/>
<path d="M37.3892 46.3496H37.3043C37.3043 46.3496 37.1815 46.2739 37.021 46.1982C37.021 46.1982 36.936 46.1509 36.8038 46.0752L36.294 45.7723L36.2562 45.7533L36.1335 45.6777L35.9352 45.5546C36.0957 45.3842 36.1902 45.2139 36.2279 45.0435C36.2562 44.8637 36.2279 44.7028 36.1618 44.5513C36.0957 44.4188 36.0107 44.3337 35.8975 44.2768L35.5575 44.2296C35.4443 44.2484 35.2837 44.3052 35.0949 44.3999C34.9911 44.4472 34.8683 44.5134 34.7078 44.6081C34.6229 44.6555 34.5001 44.7122 34.3679 44.788C34.2074 44.8637 34.0941 44.9205 34.0091 44.9678C33.8392 45.0435 33.7353 45.1003 33.707 45.1098L33.7731 45.2612C33.943 45.1949 34.0375 45.1571 34.0752 45.1571L34.1224 45.1761C34.1224 45.1761 34.2074 45.2896 34.2829 45.4505L34.4907 45.848L34.84 46.5484L35.0949 47.1069L35.1799 47.3435V47.4002L35.1704 47.4381C35.1516 47.457 35.0666 47.5138 34.925 47.5895L35.0099 47.7599C35.1704 47.6653 35.3498 47.5706 35.5481 47.4666C35.7653 47.3529 35.9918 47.2488 36.209 47.1542L36.1335 46.9838C36.0107 47.0405 35.9352 47.0689 35.9069 47.0879H35.7935L35.7086 46.946C35.6897 46.9176 35.6142 46.7661 35.482 46.5105C35.3687 46.3023 35.2648 46.1036 35.1799 45.9048C35.1138 45.7912 35.0005 45.5452 34.84 45.1855C34.7644 45.0246 34.7172 44.9205 34.6889 44.8731L34.8683 44.769C35.0005 44.6933 35.1043 44.6555 35.161 44.6555L35.4443 44.7122L35.6709 44.9678L35.7464 45.318L35.6425 45.6114C35.5859 45.6871 35.482 45.7628 35.3309 45.829V45.8954L35.5198 45.9616C35.6614 46.0279 35.8314 46.1414 36.0391 46.2645L36.766 46.7283L36.8699 46.8135L37.1626 46.662C37.2476 46.6146 37.3892 46.5484 37.5874 46.4632L37.5119 46.3023L37.3892 46.3496Z" fill="white"/>
<path d="M5.94654 37.6516C5.94654 37.6516 5.99375 37.5664 6.05984 37.4244L6.34309 36.9039L6.36196 36.8565L6.42806 36.724L6.54135 36.5347C6.72074 36.6862 6.89069 36.7809 7.07008 36.8093C7.24003 36.8377 7.40053 36.8093 7.5516 36.724C7.67434 36.6578 7.76876 36.5726 7.81596 36.4496L7.85373 36.1088C7.8254 35.9953 7.75931 35.8438 7.6649 35.645C7.60825 35.5409 7.54216 35.4179 7.45719 35.2665C7.40053 35.1813 7.34389 35.0677 7.26836 34.9351C7.19283 34.7838 7.12673 34.6701 7.07952 34.5755C6.99455 34.4051 6.94735 34.301 6.92846 34.2726L6.77739 34.3578C6.85293 34.5092 6.89069 34.6134 6.89069 34.6513L6.87181 34.6985C6.87181 34.6985 6.75851 34.7838 6.60744 34.8689L6.22034 35.0866L5.52167 35.4653L4.97405 35.7397L4.74746 35.8344H4.69081L4.65304 35.8249C4.62471 35.806 4.57751 35.7303 4.49254 35.5788L4.33203 35.6735C4.42645 35.8344 4.53031 36.0141 4.62471 36.2035C4.73802 36.4212 4.85132 36.6388 4.95518 36.8471L5.11568 36.7619L5.01182 36.5443V36.4874V36.4496L5.13457 36.3549C5.13457 36.3549 5.31395 36.2508 5.55944 36.1183C5.76714 35.9953 5.96542 35.8912 6.15425 35.7965C6.26755 35.7303 6.50359 35.6072 6.86236 35.4273C7.02288 35.3516 7.11729 35.3043 7.17394 35.2759L7.2778 35.4463C7.34389 35.5788 7.39109 35.6829 7.40053 35.7397L7.34389 36.0331L7.10785 36.2697L6.75851 36.3549L6.46582 36.2697C6.39029 36.2129 6.31476 36.1088 6.23923 35.9574H6.17313L6.11648 36.1466C6.05984 36.2887 5.95598 36.459 5.8238 36.6768L5.38005 37.4244L5.29507 37.5191L5.45558 37.8125C5.50278 37.8977 5.56888 38.0396 5.66329 38.229L5.81436 38.1437L5.76714 38.0112L5.78603 37.9261C5.78603 37.9261 5.84268 37.7936 5.90877 37.6327L5.94654 37.6516Z" fill="white"/>
<path d="M34.0857 47.2864C34.1141 47.4756 34.133 47.6081 34.133 47.6839L34.1141 47.7217L33.9064 47.8448C33.793 47.8921 33.6609 47.9395 33.5098 47.9868C33.3587 48.034 33.2266 48.072 33.1227 48.1098L33.0377 47.8543L32.7544 47.0024C32.8395 46.9646 32.9433 46.9362 33.0755 46.8888C33.2171 46.8415 33.3398 46.8131 33.4343 46.7942L33.5381 46.8225C33.5381 46.8225 33.6137 46.9456 33.6609 47.0971L33.8308 47.0403L33.6798 46.6049L33.5476 46.1506L33.3871 46.2074C33.4248 46.3304 33.4437 46.4156 33.4437 46.4724V46.5197L33.3115 46.5765C33.1227 46.6427 33.0094 46.6806 32.981 46.69L32.6979 46.7752L32.5562 46.3588C32.4807 46.1222 32.424 45.9328 32.3957 45.7719C32.5184 45.7247 32.6318 45.6868 32.7544 45.6394C32.8772 45.5922 33.0094 45.5637 33.151 45.5353L33.321 45.5165L33.3587 45.5448C33.3587 45.5448 33.4154 45.6773 33.472 45.8288L33.6325 45.7719C33.5948 45.5922 33.557 45.5069 33.557 45.4785L33.5003 45.1851L33.4815 45.1568H33.4059C33.2643 45.2135 33.1605 45.2419 33.1038 45.2609L32.6979 45.4028C32.4713 45.4785 32.273 45.5543 32.0841 45.611L31.8198 45.6963L31.3477 45.8382L31.4043 46.0086C31.5648 45.9707 31.6687 45.9424 31.7064 45.9518L31.7442 45.9707C31.7442 45.9707 31.8103 46.0843 31.867 46.2357C31.9425 46.4534 31.9897 46.5954 31.9991 46.6238L32.2918 47.5324C32.3296 47.6365 32.3768 47.8069 32.4429 48.034C32.4807 48.1665 32.509 48.2612 32.5184 48.318L32.3579 48.4979L32.3957 48.6114C32.8017 48.4695 33.0283 48.3843 33.0566 48.3748C33.1793 48.337 33.4059 48.2707 33.7175 48.1665L34.048 48.072C34.1991 48.0152 34.3217 47.9678 34.4068 47.9299V47.8921C34.3595 47.7217 34.3123 47.4946 34.2557 47.2296L34.0857 47.2769V47.2864Z" fill="white"/>
<path d="M7.73171 39.838C7.56176 39.9326 7.43902 39.9799 7.37293 39.9989H7.32572L7.15577 39.8284L6.90085 39.4972C6.81587 39.3742 6.74034 39.2606 6.6837 39.1659L6.89141 39.005L7.61841 38.4844L7.82613 38.7494L8.02439 39.0713V39.1755C8.02439 39.1755 7.93942 39.2796 7.80724 39.3742L7.92054 39.5162L8.28876 39.2417L8.67587 38.9766L8.57201 38.8347L8.33597 38.9672H8.27932L8.19434 38.8725C8.07161 38.7116 8.00551 38.6169 7.98663 38.5886L7.81669 38.3331L8.16602 38.0775C8.36429 37.9355 8.53424 37.8314 8.67587 37.7462L8.9119 38.0491C8.98744 38.1627 9.06297 38.2762 9.12906 38.3993L9.2046 38.5507L9.18571 38.5981C9.18571 38.5981 9.08185 38.6927 8.94966 38.7874L9.04408 38.9199C9.19515 38.8252 9.28013 38.7684 9.30845 38.759L9.57281 38.6169L9.5917 38.5886L9.56337 38.5224C9.47839 38.3993 9.42175 38.3141 9.39342 38.2668L9.1385 37.9166C8.99688 37.7273 8.86469 37.5569 8.76084 37.396L8.60034 37.1688L8.32653 36.7619L8.1849 36.866C8.26987 37.0079 8.32653 37.0931 8.32653 37.131V37.1784C8.32653 37.1784 8.23211 37.2825 8.09993 37.3771C7.9111 37.5191 7.7978 37.6043 7.76947 37.6137L6.99527 38.1627C6.90085 38.229 6.74979 38.3236 6.55151 38.4561L6.30603 38.6075L6.08888 38.5034L6.00391 38.5697C6.25883 38.9199 6.40045 39.1091 6.41933 39.1375C6.49486 39.2417 6.62704 39.4309 6.81587 39.7055L7.00471 39.9894C7.09912 40.1314 7.17466 40.2355 7.24074 40.3017H7.27851C7.42013 40.1976 7.61841 40.084 7.86389 39.9421L7.76947 39.8001L7.73171 39.838Z" fill="white"/>
<path d="M31.4212 47.58L31.289 47.4002L31.0907 47.2866L30.798 47.2393C30.798 47.2393 30.6563 47.2393 30.5147 47.2393C30.3731 47.2393 30.2504 47.2393 30.1654 47.2393L29.9104 47.2015L29.7594 47.0878L29.6744 46.8702C29.6461 46.7471 29.6744 46.6241 29.7594 46.5105C29.8443 46.3969 29.9765 46.3118 30.1654 46.2834C30.2976 46.255 30.4109 46.255 30.5336 46.2834L30.7885 46.4064C30.8168 46.4632 30.8452 46.5768 30.8829 46.7471L31.0529 46.7093C31.034 46.5674 31.0245 46.4537 31.0057 46.3591V46.0846L30.9679 46.0372C30.8641 46.0088 30.7413 45.99 30.5902 45.99C30.4392 45.99 30.3071 45.9994 30.156 46.0278C30.0144 46.0562 29.8822 46.1035 29.7594 46.1509C29.6273 46.2077 29.5234 46.2834 29.429 46.378C29.3346 46.4727 29.2685 46.5957 29.2307 46.7377C29.1929 46.8702 29.1835 47.0311 29.2118 47.1825L29.3251 47.4759L29.5422 47.6936C29.6177 47.7504 29.7311 47.7883 29.8539 47.7977C29.9388 47.7977 30.1087 47.8167 30.3636 47.8167C30.5431 47.8167 30.6753 47.8356 30.7508 47.864L30.9302 47.987L31.0151 48.2048L30.9963 48.4982L30.8168 48.7348C30.7224 48.801 30.6092 48.8483 30.477 48.8767C30.3259 48.9051 30.1748 48.9051 30.0426 48.8578C29.901 48.8199 29.7972 48.7632 29.7311 48.6874C29.6838 48.536 29.6556 48.4224 29.6367 48.3183L29.4667 48.3467C29.5234 48.6685 29.5517 48.9146 29.5328 49.0849C29.7028 49.1323 29.8633 49.1607 30.0049 49.1607C30.137 49.1607 30.2976 49.1607 30.4675 49.1229C30.6941 49.0755 30.8829 49.0092 31.0435 48.9051L31.3078 48.6496L31.4872 48.3373C31.5344 48.1858 31.5438 48.0249 31.5061 47.8451L31.4116 47.58H31.4212Z" fill="white"/>
<path d="M26.5956 48.0339L26.4352 47.892L26.1519 47.7784C26.1519 47.7784 26.0197 47.7595 25.8686 47.7311C25.7271 47.7027 25.6137 47.6837 25.5288 47.6554L25.2833 47.5607L25.1606 47.4187L25.1133 47.1915C25.1133 47.059 25.17 46.9455 25.2833 46.8508C25.3871 46.7562 25.5288 46.7089 25.7271 46.7089C25.8592 46.7089 25.982 46.7372 26.0858 46.7846L26.3124 46.9549C26.3219 47.0306 26.3313 47.1348 26.3313 47.3052H26.5013C26.5013 47.1631 26.5201 47.0496 26.5295 46.9644L26.5768 46.6994L26.5579 46.6521C26.4634 46.5953 26.3408 46.5574 26.1991 46.529C26.0575 46.5006 25.9064 46.4912 25.7648 46.4912C25.6232 46.4912 25.4815 46.4912 25.3399 46.529C25.1983 46.5574 25.085 46.6142 24.9717 46.6805C24.8679 46.7562 24.7735 46.8508 24.7074 46.9834C24.6413 47.1159 24.6035 47.2578 24.6035 47.4187L24.6507 47.7405L24.8112 47.9867C24.8867 48.0623 24.9812 48.1192 25.1039 48.157C25.1888 48.1759 25.3494 48.2233 25.6043 48.2895C25.7837 48.3274 25.9064 48.3652 25.9725 48.403L26.1236 48.5545L26.1708 48.7911L26.0953 49.0751L25.8686 49.2644C25.7648 49.3117 25.642 49.3307 25.5099 49.3307C25.3494 49.3307 25.2172 49.2928 25.085 49.2265C24.9622 49.1602 24.8679 49.0845 24.8206 48.9899C24.8018 48.8479 24.7923 48.7154 24.8018 48.6113H24.6224C24.6224 48.9426 24.594 49.1792 24.5469 49.3401C24.7074 49.4253 24.849 49.482 24.9812 49.5105C25.1227 49.5483 25.2738 49.5673 25.4438 49.5673C25.6798 49.5673 25.8876 49.5483 26.0481 49.4726L26.3596 49.2833L26.5956 49.0088C26.6712 48.8669 26.709 48.7154 26.709 48.5261L26.6712 48.2517L26.5674 48.0434L26.5956 48.0339Z" fill="white"/>
<path d="M23.8113 49.2178L23.7736 49.1894L23.7452 49.1326L23.6981 48.9244L23.6131 48.6214L23.0466 46.2931L22.7445 46.2363L22.4896 46.6812L21.7153 47.9305C21.5737 48.1671 21.4699 48.328 21.4226 48.4133C21.3094 48.5742 21.2433 48.6783 21.2244 48.7067L21.1677 48.7635L21.1016 48.7824H20.9033L20.875 48.9433L21.3565 49.0095L21.8381 49.1042L21.8664 48.9338C21.7059 48.9054 21.6115 48.8676 21.5737 48.8486L21.5548 48.7729C21.5642 48.7256 21.6209 48.6026 21.7153 48.4322L21.8475 48.1955L22.9144 48.3754L23.0183 48.8676L23.0372 49.0474L22.9899 49.1042C22.9899 49.1042 22.8672 49.1042 22.7067 49.0853L22.6784 49.2557L23.4148 49.3598L23.9908 49.4733L24.0285 49.2935L23.9341 49.2651L23.8113 49.2272V49.2178ZM22.4329 48.0346C22.2724 48.0063 22.1213 47.9873 21.9986 47.9589L22.6028 46.9462L22.8672 48.1009C22.735 48.082 22.5934 48.063 22.4329 48.0346Z" fill="white"/>
<path d="M9.71487 42.5062L9.84704 42.2128L10.8384 40.0264L10.6307 39.8087L10.1492 39.9886L8.7707 40.4997C8.50634 40.6038 8.33639 40.6605 8.25142 40.6889C8.05314 40.7552 7.94929 40.793 7.92096 40.8026H7.83599L7.77934 40.7836L7.62827 40.6511L7.49609 40.7742L7.83599 41.1244L8.14756 41.4935L8.27974 41.3704C8.17588 41.2474 8.1098 41.1622 8.1098 41.1244L8.13811 41.0486C8.13811 41.0486 8.28919 40.9635 8.47801 40.8783L8.7235 40.7836L9.45049 41.5882L9.23334 42.033L9.13893 42.1844L9.07284 42.2034C9.07284 42.2034 8.97842 42.1276 8.85568 42.0141L8.7235 42.1276L9.23334 42.6672L9.62044 43.1025L9.7432 42.989L9.68653 42.9132L9.61103 42.8091V42.7618V42.6956L9.69594 42.4968L9.71487 42.5062ZM9.56379 41.3516C9.47882 41.2663 9.37496 41.1622 9.26166 41.0297L8.96898 40.6985L10.0642 40.2914L9.56379 41.361V41.3516Z" fill="white"/>
<path d="M4.53141 35.0108C4.39923 34.9066 4.29537 34.8025 4.21984 34.689C4.14431 34.5849 4.07821 34.4618 4.031 34.3293C3.94603 34.1211 3.90826 33.9413 3.90826 33.7709C3.9177 33.6573 3.94603 33.5154 4.01212 33.3639C4.06877 33.2314 4.17262 33.0894 4.30481 32.9664C4.43699 32.8433 4.60694 32.7392 4.8241 32.6541C5.17344 32.512 5.47556 32.5026 5.73993 32.6067C6.01373 32.7203 6.20256 32.9191 6.3253 33.2314C6.3914 33.4017 6.42916 33.5532 6.41972 33.6763C6.41972 33.8088 6.3914 33.9318 6.33474 34.0548C6.24977 34.1022 6.13648 34.159 6.00429 34.2157L6.06094 34.3672C6.18368 34.3293 6.33474 34.282 6.4858 34.2441L6.74074 34.1968L6.75961 34.1684C6.75961 33.9602 6.73129 33.7804 6.70297 33.6289C6.67464 33.4775 6.61799 33.3166 6.5519 33.1367C6.34418 32.6161 6.0515 32.2849 5.68328 32.1051C5.30561 31.9252 4.91851 31.9252 4.50308 32.0861C4.26704 32.1902 4.05933 32.3228 3.88938 32.5026C3.77608 32.6161 3.69111 32.7582 3.61558 32.9191C3.54005 33.08 3.51172 33.2598 3.51172 33.4585C3.51172 33.7047 3.56836 33.9697 3.67222 34.2441C3.74776 34.4429 3.83273 34.6038 3.9177 34.7079C4.00268 34.831 4.11598 34.954 4.26704 35.0771L4.50308 35.096L4.53141 35.0203V35.0108Z" fill="white"/>
<path d="M4.15251 30.5054C4.719 30.5054 5.1722 30.0511 5.1722 29.4832C5.1722 28.9154 4.70956 28.461 4.15251 28.461C3.59545 28.461 3.13281 28.9154 3.13281 29.4832C3.13281 30.0511 3.59545 30.5054 4.15251 30.5054Z" fill="white"/>
<path d="M4.11724 18.5418L4.18333 18.4566L4.23998 18.4377C4.23998 18.4377 4.3816 18.4661 4.56099 18.5133C4.74038 18.5796 4.93866 18.6458 5.16525 18.7216L7.18575 19.4314C7.18575 19.4314 7.42179 19.5261 7.78057 19.6681C7.96939 19.7344 8.07325 19.7911 8.12991 19.8195L8.23376 19.9426V20.1035L8.12046 20.255L7.9033 20.4063V20.482C8.11102 20.5484 8.26208 20.6051 8.38483 20.6619L8.48868 20.4632C8.52645 20.3685 8.53589 20.2644 8.52645 20.1319C8.52645 20.0088 8.48868 19.8763 8.45092 19.7248C8.40371 19.5829 8.33762 19.441 8.27153 19.3273C8.16767 19.1664 8.04493 19.015 7.89386 18.911C7.75224 18.7973 7.53508 18.7027 7.26128 18.5986L6.15661 18.2199L5.2219 17.8887C4.97642 17.794 4.77815 17.7183 4.64597 17.6615L4.53267 17.5764L4.51379 17.4628C4.51379 17.4628 4.55155 17.3208 4.6082 17.1505L4.3816 17.0747C4.32496 17.283 4.23998 17.529 4.14557 17.813C4.02282 18.1537 3.90009 18.4945 3.77734 18.8163L4.00394 18.9014L4.13612 18.5513L4.11724 18.5418Z" fill="white"/>
<path d="M5.60807 16.5356C5.75914 16.7532 5.97629 16.952 6.25954 17.1319C6.61832 17.3685 6.96766 17.4915 7.30756 17.5104C7.63801 17.5294 7.94958 17.4537 8.23283 17.2928C8.51608 17.1224 8.771 16.8669 8.98815 16.5166C9.19587 16.2043 9.32804 15.892 9.38469 15.5701C9.42246 15.343 9.41302 15.1064 9.36581 14.8698C9.30916 14.6426 9.22418 14.4249 9.08256 14.2356C8.90317 13.9706 8.66714 13.7529 8.38389 13.5636C8.21394 13.45 8.04399 13.3743 7.88349 13.3175C7.72298 13.2608 7.56248 13.2228 7.40197 13.2228C7.24146 13.2228 7.06208 13.2324 6.8638 13.2986C6.66553 13.3553 6.48614 13.45 6.31619 13.5825C6.09904 13.7624 5.89132 13.9895 5.71193 14.264C5.53254 14.548 5.40036 14.8319 5.33427 15.1158C5.27762 15.343 5.27762 15.5796 5.31539 15.8352C5.36259 16.0907 5.45701 16.3273 5.60807 16.545V16.5356ZM5.92909 14.4817C6.05182 14.283 6.19345 14.1409 6.33507 14.0747C6.47669 13.999 6.6372 13.9517 6.81659 13.9422C6.99598 13.9422 7.19425 13.9611 7.40197 14.0274C7.60968 14.1031 7.8174 14.2073 8.03455 14.3398C8.35557 14.548 8.59161 14.7562 8.75211 14.9833C8.91262 15.2105 8.98815 15.4282 8.98815 15.6458C8.98815 15.8636 8.91262 16.0623 8.78988 16.2611C8.6577 16.4598 8.49719 16.6207 8.29891 16.706C8.10064 16.8006 7.85516 16.8195 7.56248 16.7628C7.26034 16.7154 6.93933 16.5639 6.58055 16.3463C6.33507 16.1759 6.12735 15.9961 5.97629 15.7973C5.81579 15.5986 5.73081 15.3808 5.73081 15.1632C5.73081 14.936 5.7969 14.7089 5.93853 14.4911L5.92909 14.4817Z" fill="white"/>
<path d="M12.2281 9.33225C12.4075 9.6162 12.6247 9.85284 12.8796 10.0138C13.0401 10.1273 13.2384 10.1935 13.4461 10.2409C13.6632 10.2882 13.8898 10.2976 14.1258 10.2598C14.4658 10.2125 14.8152 10.08 15.155 9.85284C15.3722 9.72034 15.5705 9.56887 15.7498 9.38905C15.9387 9.21868 16.1464 8.98205 16.3635 8.68865L16.118 8.33845C16.0709 8.26273 15.9954 8.13968 15.882 7.95038L15.8253 7.80841L15.9576 7.61911L15.8632 7.46768L15.1739 7.91253L14.4752 8.33845L14.5886 8.51828C14.834 8.38577 14.9945 8.31005 15.0606 8.30058H15.155C15.155 8.30058 15.24 8.4047 15.3344 8.54667L15.4665 8.76436L15.6082 9.01045L15.3722 9.2944L15.0984 9.51209C14.7491 9.72977 14.362 9.78659 13.9465 9.67296C13.5311 9.55942 13.1818 9.27547 12.8985 8.81168C12.6341 8.38577 12.5491 7.98824 12.6247 7.60018C12.7096 7.21213 12.9457 6.89978 13.3234 6.66316C13.4933 6.55904 13.6444 6.48333 13.8049 6.44547C13.9559 6.39814 14.107 6.37921 14.2486 6.37921L14.4469 6.41707L14.5791 6.57798L14.7302 6.78621L14.9095 6.67263C14.7302 6.30349 14.6074 6.04794 14.5602 5.88704L14.513 5.85864C14.3525 5.87757 14.1354 5.94383 13.8804 6.02901C13.6255 6.12366 13.3705 6.25617 13.1062 6.41707C12.8891 6.54958 12.7002 6.69156 12.5491 6.83353C12.3886 6.98496 12.266 7.14587 12.1526 7.33516C12.0488 7.515 11.9637 7.72323 11.926 7.93145C11.8788 8.14915 11.8788 8.36683 11.926 8.594C11.9637 8.82115 12.0582 9.05777 12.2187 9.2944L12.2281 9.33225Z" fill="white"/>
<path d="M8.64062 25.0065C8.64062 25.0065 9.08438 26.2747 9.38651 27.2875L8.78225 24.7888C8.7256 24.8172 8.6784 24.8834 8.64062 25.0159V25.0065Z" fill="white"/>
<path d="M43.3459 25.0055C43.308 24.873 43.2608 24.8068 43.2137 24.7784L42.6094 27.2772C42.9115 26.2644 43.3553 24.9961 43.3553 24.9961L43.3459 25.0055Z" fill="white"/>
<path d="M41.8541 24.8459C41.1554 26.313 41.3348 27.922 41.3348 27.922C39.8431 26.5685 37.4921 27.6664 37.4921 27.6664C37.5676 27.922 38.3513 28.5182 38.3513 28.5182C38.389 31.3577 40.0697 31.9351 40.0697 31.9351C39.4748 32.3799 39.3238 32.8627 39.3238 32.8627C38.4646 31.7742 36.5574 32.0014 36.5574 32.0014C36.5574 33.9795 38.6534 34.9544 38.6534 34.9544C38.4646 35.8157 38.5779 36.2322 38.5779 36.2322C37.8697 36.5634 37.0956 37.5383 37.0956 37.5383C37.3127 35.4371 36.5668 34.7272 36.5668 34.7272C35.3017 35.475 34.773 36.8947 34.773 36.8947C32.6486 37.1218 31.4873 38.6552 31.4873 38.6552L31.6384 37.9737C27.6823 38.835 27.7201 41.6366 27.7201 41.6366L27.5407 41.5703C27.333 40.2926 26.1433 40.321 26.0207 40.3399C25.8979 40.3304 24.7177 40.2926 24.5005 41.5703L24.3117 41.6366C24.3117 41.6366 24.3494 38.835 20.3934 37.9737L20.5445 38.6552C20.5445 38.6552 19.3832 37.1218 17.2588 36.8947C17.2588 36.8947 16.7301 35.475 15.4649 34.7272C15.4649 34.7272 14.7191 35.4371 14.9457 37.5383C14.9457 37.5383 14.1621 36.5634 13.4539 36.2322C13.4539 36.2322 13.5672 35.8062 13.3784 34.9544C13.3784 34.9544 15.4744 33.9795 15.4744 32.0014C15.4744 32.0014 13.5672 31.7742 12.708 32.8627C12.708 32.8627 12.5569 32.3799 11.9621 31.9351C11.9621 31.9351 13.6428 31.3577 13.6805 28.5182C13.6805 28.5182 14.4642 27.922 14.5397 27.6664C14.5397 27.6664 12.1793 26.578 10.6969 27.922C10.6969 27.922 11.103 24.2496 8.30826 22.9813C8.30826 22.9813 7.37355 25.1583 8.42155 27.4298C8.42155 27.4298 7.56237 26.985 7.18471 26.9471C7.18471 26.9471 6.92979 28.5182 7.89282 29.6446C7.89282 29.6446 7.10918 29.4932 6.25 29.9853C6.25 29.9853 7.14694 31.8878 9.158 32.5314C9.158 32.5314 9.30906 32.91 9.46012 33.175C9.46012 33.175 8.11943 32.9479 6.80705 33.5157C6.80705 33.5157 7.89283 34.7178 8.29882 34.8976C8.29882 34.8976 9.30906 35.5318 9.82836 35.6075L9.41292 35.7494C9.41292 35.7494 11.2823 38.2577 12.963 38.5605C12.963 38.5605 11.7733 38.8823 11.3202 39.4597C11.3202 39.4597 13.4539 41.4378 16.2486 40.8416C16.2486 40.8416 15.6538 41.4757 15.3517 42.1193C15.3517 42.1193 17.2211 42.6399 19.0905 41.9584L18.9017 42.4127C18.9017 42.4127 20.1386 42.6683 21.923 41.4757L22.6689 42.0057C22.6689 42.0057 20.5068 42.3749 19.0811 42.9049L20.5729 43.9934C20.5729 43.9934 20.7239 43.8419 21.7247 43.3592C21.7247 43.3592 24.5289 43.9365 26.0111 43.8798C27.4935 43.9365 30.2977 43.3592 30.2977 43.3592C31.3078 43.8419 31.4589 43.9934 31.4589 43.9934L32.9507 42.9049C31.5345 42.3749 29.3724 42.0057 29.3724 42.0057L30.1183 41.4757C31.9122 42.6683 33.149 42.4127 33.149 42.4127L32.9602 41.9584C34.8296 42.6399 36.699 42.1193 36.699 42.1193C36.3969 41.4757 35.7927 40.8416 35.7927 40.8416C38.5968 41.4378 40.7212 39.4597 40.7212 39.4597C40.268 38.8918 39.0783 38.5605 39.0783 38.5605C40.7589 38.2577 42.6283 35.7494 42.6283 35.7494L42.2129 35.6075C42.7416 35.5318 43.7424 34.8976 43.7424 34.8976C44.1579 34.7083 45.2342 33.5157 45.2342 33.5157C43.9313 32.9479 42.5812 33.175 42.5812 33.175C42.7322 32.91 42.8738 32.5314 42.8738 32.5314C44.8943 31.8973 45.7913 29.9853 45.7913 29.9853C44.9226 29.5026 44.1485 29.6446 44.1485 29.6446C45.1209 28.5182 44.8565 26.9471 44.8565 26.9471C44.4883 26.985 43.6196 27.4298 43.6196 27.4298C44.6677 25.1488 43.733 22.9813 43.733 22.9813C43.0815 23.2747 42.6 23.7006 42.2601 24.1834L41.8636 24.8459H41.8541ZM45.1775 30.1746L45.017 30.3828C45.017 30.3828 44.8848 30.1274 44.696 30.1746C44.696 30.1746 42.6094 30.875 41.3726 31.6039C41.3726 31.6039 42.3073 29.5878 45.1775 30.1746ZM41.2782 32.4936C41.5331 32.6449 42.345 32.5976 42.345 32.5976L42.0052 33.2507L41.297 33.7429C41.3726 33.2886 41.2782 32.503 41.2782 32.503V32.4936ZM41.061 29.5972L41.788 29.6162C41.6936 29.8055 41.5048 30.6858 41.5048 30.6858L41.061 31.2064C41.1744 30.7615 41.061 29.5972 41.061 29.5972ZM43.5064 29.6919H43.3175C43.3175 29.6919 43.9219 29.0767 44.3278 28.1681C44.3278 28.1681 44.3089 28.9159 43.5064 29.6919ZM44.0729 27.7422C44.0729 27.7422 43.6008 28.7644 42.6567 29.9191L42.0523 30.2503C42.0523 30.2503 42.449 28.3195 44.0729 27.7422ZM43.497 23.6344C43.497 23.6344 44.3561 26.6442 42.3546 28.3763C42.3734 28.1681 42.4867 27.7516 42.6189 27.2879L43.2231 24.7892C43.0909 24.7229 42.9493 24.9027 42.9493 24.9027C42.6283 25.3665 41.9013 28.2816 41.9013 28.2816C41.9013 28.2816 41.0233 25.4895 43.497 23.6344ZM41.4765 28.9063C40.6362 28.2532 38.8989 27.7232 38.8989 27.7232C41.0894 27.4392 41.4765 28.9063 41.4765 28.9063ZM40.9099 29.0767C39.6259 29.0104 38.5968 28.1207 38.5968 28.1207C39.7203 28.3669 40.9099 29.0767 40.9099 29.0767ZM40.8156 32.4651C41.1554 34.3581 40.2963 35.6453 40.2963 35.6453L39.7958 35.721C40.0036 35.5318 40.4285 34.0742 40.4285 34.0742C40.3718 33.7523 40.825 32.4651 40.825 32.4651H40.8156ZM39.9563 29.3418L40.5511 29.4932C40.7589 30.1652 40.6267 31.2726 40.6267 31.2726C40.3057 30.8845 39.9563 29.3418 39.9563 29.3418ZM38.8328 28.8117L39.4466 29.1903C39.6732 30.3544 40.2113 31.4808 40.2113 31.4808C38.7384 30.7425 38.8234 28.8117 38.8234 28.8117H38.8328ZM40.3812 32.3705C40.2302 32.5408 40.0508 33.6293 40.0508 33.6293C39.9753 34.6231 39.1727 35.9672 39.1727 35.9672L38.9838 36.024C39.116 32.768 40.3812 32.3705 40.3812 32.3705ZM39.0405 33.2697L38.9461 33.5536C38.9461 33.5536 38.068 32.768 37.6337 32.503C37.6337 32.503 38.5118 32.4746 39.0405 33.2697ZM37.1522 32.7112C37.1522 32.7112 38.3702 33.4873 38.7572 33.9985L38.6817 34.4528C38.6817 34.4528 37.36 33.8186 37.1522 32.7112ZM36.4252 35.4087C36.4252 35.4087 36.4913 35.5601 36.5102 35.7684C36.5102 35.7684 36.1986 35.6737 36.1514 35.9672C36.1514 35.9672 35.2167 38.9107 34.4897 39.2326C34.4897 39.2326 34.6219 36.8568 36.4158 35.4182L36.4252 35.4087ZM34.4803 39.8099C34.4803 39.8099 35.3394 39.7436 36.6046 36.0618C36.6046 36.0618 37.19 38.9012 34.4803 39.9519V39.8099ZM34.3103 37.4437C32.7619 40.6238 31.2513 40.7564 31.2513 40.7564C32.4692 39.2988 33.9421 37.9737 33.9421 37.9737C34.112 37.6897 33.8854 37.5667 33.8854 37.5667C34.1309 37.4721 34.3103 37.4531 34.3103 37.4531V37.4437ZM33.7532 39.9708L33.2718 39.9235C33.4417 39.7342 34.0554 38.8161 34.0554 38.8161L34.0365 39.6017C33.7155 39.6774 33.7532 39.9708 33.7532 39.9708ZM33.4984 37.7465C33.4984 37.7465 31.2984 39.8856 31.2229 40.1033C31.2229 40.1033 31.9311 38.1724 33.4984 37.7465ZM20.7805 40.1033C20.705 39.8761 18.5052 37.7465 18.5052 37.7465C20.0725 38.1724 20.7805 40.1033 20.7805 40.1033ZM18.1086 37.5572C18.1086 37.5572 17.882 37.6898 18.052 37.9642C18.052 37.9642 19.5343 39.2893 20.7428 40.7469C20.7428 40.7469 19.2322 40.6238 17.6743 37.4342C17.6743 37.4342 17.8631 37.4531 18.0991 37.5478L18.1086 37.5572ZM17.9576 39.5922L17.9386 38.8066C17.9386 38.8066 18.5524 39.7247 18.7223 39.914L18.2407 39.9613C18.2407 39.9613 18.2786 39.6679 17.967 39.5922H17.9576ZM15.5688 35.3993C17.3628 36.838 17.4854 39.2136 17.4854 39.2136C16.7584 38.8918 15.8237 35.9482 15.8237 35.9482C15.7859 35.6643 15.4649 35.7494 15.4649 35.7494C15.4838 35.5412 15.5593 35.3898 15.5593 35.3898L15.5688 35.3993ZM15.38 36.0523C16.6452 39.7436 17.5138 39.8004 17.5138 39.8004V39.9424C14.804 38.8918 15.38 36.0523 15.38 36.0523ZM13.3123 34.4433L13.2367 33.9889C13.6333 33.4779 14.8418 32.7017 14.8418 32.7017C14.6341 33.7997 13.3123 34.4433 13.3123 34.4433ZM14.3603 32.4936C13.9259 32.7586 13.0479 33.5441 13.0479 33.5441L12.9535 33.2602C13.4823 32.4651 14.3603 32.4936 14.3603 32.4936ZM13.0101 36.0144L12.8214 35.9577C12.8214 35.9577 12.0188 34.6137 11.9433 33.6198C11.9433 33.6198 11.7544 32.5314 11.6033 32.3611C11.6033 32.3611 12.8685 32.7586 13.0007 36.0144H13.0101ZM11.575 34.0647C11.575 34.0647 11.9999 35.5223 12.2076 35.7116L11.7072 35.6359C11.7072 35.6359 10.848 34.3392 11.1785 32.4557C11.1785 32.4557 11.6317 33.7523 11.575 34.0647ZM11.4428 29.4743L12.0377 29.3228C12.0377 29.3228 11.6789 30.8561 11.3673 31.2536C11.3673 31.2536 11.2351 30.1462 11.4428 29.4743ZM11.7733 31.4714C11.7733 31.4714 12.3115 30.3544 12.5381 29.1809L13.1612 28.8022C13.1612 28.8022 13.2462 30.7331 11.7733 31.4714ZM11.084 29.0672C11.084 29.0672 12.2831 28.3479 13.3972 28.1113C13.3972 28.1113 12.3682 29.001 11.084 29.0672ZM13.0951 27.7138C13.0951 27.7138 11.3673 28.2344 10.5176 28.8969C10.5176 28.8969 10.9141 27.4298 13.0951 27.7138ZM10.933 31.1968L10.4798 30.6762C10.4798 30.6762 10.291 29.796 10.1966 29.6068L10.9235 29.5878C10.9235 29.5878 10.8103 30.7425 10.9235 31.1968H10.933ZM10.6875 33.7239L9.96995 33.2318L9.6395 32.5787C9.6395 32.5787 10.4421 32.6261 10.6969 32.4746C10.6969 32.4746 10.612 33.2602 10.6875 33.7145V33.7239ZM8.48765 23.625C10.9614 25.4801 10.0833 28.2722 10.0833 28.2722C10.0833 28.2722 9.35626 25.357 9.03525 24.8933C9.03525 24.8933 8.89363 24.704 8.76145 24.7796L9.36571 27.2784C9.49789 27.7516 9.61117 28.1586 9.63009 28.3669C7.61903 26.6254 8.47821 23.625 8.47821 23.625H8.48765ZM9.9322 30.2409L9.33739 29.9096C8.38379 28.7454 7.92115 27.7327 7.92115 27.7327C9.5451 28.3195 9.9322 30.2409 9.9322 30.2409ZM7.65679 28.1586C8.06278 29.0672 8.66704 29.6825 8.66704 29.6825H8.47821C7.67567 28.9063 7.65679 28.1586 7.65679 28.1586ZM6.96755 30.3734L6.7976 30.1652C9.67725 29.5689 10.612 31.5943 10.612 31.5943C9.37515 30.8656 7.28857 30.1652 7.28857 30.1652C7.09974 30.1178 6.96755 30.3734 6.96755 30.3734ZM7.17527 30.6195C8.72369 31.0359 10.5553 32.096 10.5553 32.096C8.51597 32.5504 7.17527 30.6195 7.17527 30.6195ZM7.55293 33.7335C10.7064 32.9289 11.0085 35.1721 11.0085 35.1721C9.82836 33.9701 8.10054 33.6577 8.10054 33.6577C7.66623 33.6577 7.93059 34.0079 7.93059 34.0079C9.80002 34.5285 10.5082 35.3614 10.5082 35.3614C9.09191 35.21 7.56237 33.7335 7.56237 33.7335H7.55293ZM10.5176 36.3931C10.3287 36.2984 10.1494 36.0144 10.1494 36.0144C13.605 35.7494 14.6718 38.0115 14.6718 38.0115C12.5948 36.6108 10.8386 36.1375 10.8386 36.1375C10.4987 36.005 10.5176 36.3836 10.5176 36.3836V36.3931ZM10.6498 36.5256C10.6498 36.5256 11.896 36.8096 14.3792 38.3618C14.3792 38.3618 12.1981 38.4564 10.6498 36.5256ZM12.0471 39.4313C13.5578 38.2482 15.6633 39.1379 15.6633 39.1379C15.701 39.2704 16.4091 39.8667 16.4091 39.8667C15.2856 39.526 13.1423 39.1757 13.1423 39.1757C12.7458 39.2798 13.0668 39.5638 13.0668 39.5638C14.7663 39.8856 16.5035 40.3778 16.5035 40.3778C13.9071 41.1066 12.0471 39.4408 12.0471 39.4408V39.4313ZM16.2864 41.8448H16.0315C16.0315 41.8448 17.3061 39.7436 19.4493 40.6333C19.4493 40.6333 16.7207 41.4568 16.428 41.6082C16.428 41.6082 16.2581 41.665 16.2958 41.8543L16.2864 41.8448ZM17.0322 41.8448C17.0322 41.8448 19.4965 41.0214 19.9969 40.9457L20.2047 41.0592C20.2047 41.0592 18.9111 41.9394 17.0322 41.8448ZM19.7325 41.9584C20.0724 41.6934 20.6484 41.2675 20.6484 41.2675L21.1393 41.3622C20.6106 41.8354 19.7325 41.9584 19.7325 41.9584ZM20.9316 38.5889C23.9246 39.6017 23.8774 41.7502 23.8774 41.7502C23.4903 41.6176 21.5642 39.1663 21.5642 39.1663C21.0638 38.9391 21.2527 39.4692 21.2527 39.4692C21.9796 40.3683 23.0466 41.646 23.0466 41.646C21.3092 41.3053 20.9316 38.5889 20.9316 38.5889ZM26.0017 43.2551H25.9734C25.7751 43.2551 24.2833 43.2646 22.8577 42.9522C22.8577 42.9522 24.3117 42.4316 25.9828 42.3843C27.6635 42.4222 29.108 42.9522 29.108 42.9522C27.6823 43.2646 26.2 43.2646 26.0017 43.2551ZM28.9287 41.646C28.9287 41.646 29.9955 40.3683 30.7226 39.4692C30.7226 39.4692 30.9113 38.9486 30.4015 39.1663C30.4015 39.1663 28.4754 41.6176 28.0883 41.7502C28.0883 41.7502 28.0506 39.6017 31.0341 38.5889C31.0341 38.5889 30.6659 41.3053 28.9287 41.646ZM30.8358 41.3622L31.3268 41.2675C31.3268 41.2675 31.9027 41.7029 32.2426 41.9584C32.2426 41.9584 31.3645 41.8354 30.8358 41.3622ZM31.7706 41.0592L31.9782 40.9457C32.4786 41.0214 34.9429 41.8448 34.9429 41.8448C33.0546 41.9394 31.7611 41.0592 31.7611 41.0592H31.7706ZM35.9532 41.8354H35.6888C35.7266 41.665 35.5566 41.6082 35.5566 41.6082C35.2639 41.4568 32.5353 40.6333 32.5353 40.6333C34.688 39.7531 35.9532 41.8354 35.9532 41.8354ZM39.928 39.4313C39.928 39.4313 38.0586 41.0971 35.4716 40.3683C35.4716 40.3683 37.2089 39.8761 38.9083 39.5543C38.9083 39.5543 39.2294 39.2798 38.8328 39.1663C38.8328 39.1663 36.6896 39.5164 35.5661 39.8572C35.5661 39.8572 36.2741 39.2609 36.312 39.1284C36.312 39.1284 38.4268 38.2482 39.928 39.4218V39.4313ZM37.596 38.3618C40.0791 36.8096 41.3254 36.5256 41.3254 36.5256C39.777 38.4564 37.596 38.3618 37.596 38.3618ZM41.467 36.3931C41.467 36.3931 41.4859 36.0144 41.146 36.1469C41.146 36.1469 39.3899 36.6202 37.3222 38.0211C37.3222 38.0211 38.3796 35.759 41.8353 36.024C41.8353 36.024 41.6464 36.2984 41.467 36.4025V36.3931ZM44.4316 33.7335C44.4316 33.7335 42.9021 35.21 41.4765 35.3614C41.4765 35.3614 42.1845 34.5285 44.054 34.0079C44.054 34.0079 44.3089 33.6577 43.884 33.6577C43.884 33.6577 42.1468 33.9795 40.976 35.1721C40.976 35.1721 41.2782 32.9195 44.4316 33.7335ZM41.4292 32.096C41.4292 32.096 43.2609 31.0359 44.8093 30.6195C44.8093 30.6195 43.4686 32.5504 41.4292 32.096Z" fill="white"/>
<path d="M27.07 28.9528C25.7104 29.8236 24.8984 28.9528 24.8984 28.9528V33.4486C26.1636 34.0828 27.07 33.4486 27.07 33.4486V28.9528Z" fill="white"/>
<path d="M14.7657 27.5053C14.7657 27.5053 14.4069 33.241 20.5344 33.5628C20.5344 33.5628 25.3496 33.771 24.3488 29.493H22.3095C22.3095 29.493 23.7163 31.6982 21.2142 32.0579C21.2142 32.0579 18.3062 32.5595 18.4951 27.9218C18.4951 27.9218 18.8066 22.5552 22.8949 19.3655C22.8949 19.3655 21.5258 17.8227 22.2622 15.9487C22.2622 15.9487 22.857 13.8569 25.1702 13.3269L24.9625 20.6622L25.9444 21.2585V21.2774H25.9539V21.2585L26.9264 20.6622L26.7281 13.3364C29.013 13.8664 29.6078 15.9487 29.6078 15.9487C30.3347 17.8133 28.9752 19.3655 28.9752 19.3655C33.0634 22.5552 33.3749 27.9218 33.3749 27.9218C33.5543 32.5595 30.6558 32.0579 30.6558 32.0579C28.1632 31.6982 29.5606 29.493 29.5606 29.493H27.5212C26.5204 33.771 31.3356 33.5628 31.3356 33.5628C37.4537 33.2504 37.1044 27.5053 37.1044 27.5053C37.4632 22.1861 31.109 19.2708 31.109 19.2708C32.7329 13.8854 28.5031 12.5508 26.6998 12.229L26.662 10.9039L25.9633 10.1752L25.9539 10.1656V10.1752L25.2458 10.9039L25.2175 12.2195C23.433 12.5319 19.1559 13.8569 20.7799 19.2708C20.7799 19.2708 14.4257 22.1861 14.794 27.5053H14.7657Z" fill="white"/>
<path d="M32.6867 28.2334L30.8267 21.9014C28.013 20.4249 25.9926 22.3368 25.9359 22.403C25.8793 22.3368 23.8493 20.4249 21.0358 21.9014L19.1758 28.2334C19.1758 28.2334 22.3104 26.5013 25.3506 28.5931C25.4733 28.6783 25.6904 28.7351 25.9359 28.7351C26.1814 28.7351 26.3796 28.6783 26.5118 28.5931H26.5213C29.5615 26.5013 32.6867 28.2334 32.6867 28.2334ZM25.9359 28.2712C25.8793 28.2334 23.0468 26.3783 19.9972 27.3627L21.3568 22.1854C21.3568 22.1854 23.2168 21.0023 25.9454 22.5829C28.6645 20.9928 30.5245 22.1854 30.5245 22.1854L31.8841 27.3627C28.825 26.3783 26.002 28.2334 25.9454 28.2712H25.9359Z" fill="white"/>
<path d="M22.9242 26.1989H22.8486L22.8202 26.1611L22.792 26.1043L22.7164 25.8866L22.6031 25.5743L21.8006 23.1985L21.6117 23.2175L21.5362 23.757L21.2908 25.2809C21.2529 25.5743 21.2152 25.7636 21.1963 25.8582C21.168 26.0664 21.1397 26.1895 21.1303 26.2178L21.1113 26.2936L21.0736 26.3315L20.9414 26.3599V26.5492L21.2624 26.5112H21.5835L21.5645 26.303L21.3663 26.2746L21.3379 26.1989C21.3379 26.1516 21.3379 26.0096 21.3757 25.7919L21.4134 25.508L22.1216 25.4512L22.2821 25.9528L22.3293 26.1421L22.3104 26.2084L22.1216 26.2558L22.1405 26.445L22.6125 26.3977L22.9903 26.3787V26.1895H22.9147L22.9242 26.1989ZM21.7534 25.243L21.4607 25.2619L21.64 24.0409L22.0272 25.2146L21.744 25.243H21.7534Z" fill="white"/>
<path d="M23.9172 24.8929V25.0822C24.0588 25.1012 24.1438 25.1106 24.1721 25.1296L24.2098 25.1674C24.2098 25.1674 24.2288 25.281 24.2288 25.4324V25.6406C24.2288 25.7637 24.2288 25.8488 24.2098 25.8868L24.0493 25.9814L23.87 26.0193C23.6528 26.0193 23.4735 25.8868 23.3318 25.6122C23.1902 25.3472 23.1147 24.9781 23.1147 24.5143C23.1147 24.0979 23.1902 23.7666 23.3224 23.5205C23.4639 23.2744 23.6434 23.1608 23.87 23.1608L24.1343 23.2176L24.342 23.3785L24.4176 23.4922V23.6719L24.446 23.8897H24.5592C24.5781 23.5394 24.597 23.3028 24.6159 23.1608V23.123C24.5215 23.0662 24.4176 23.0189 24.2854 22.9526C24.1533 22.9053 24.0022 22.8864 23.8511 22.8864C23.7284 22.8864 23.615 22.9053 23.5018 22.9432L23.1996 23.123C23.1052 23.2082 23.0202 23.3217 22.9352 23.4542C22.8597 23.5867 22.8031 23.7476 22.7653 23.9275C22.7276 24.1073 22.6992 24.325 22.6992 24.5616C22.6992 24.8456 22.7276 25.1106 22.7936 25.3566C22.8314 25.5081 22.8975 25.6501 22.973 25.7826C23.0486 25.9152 23.143 26.0193 23.2563 26.1044C23.4168 26.218 23.5962 26.2843 23.8039 26.2843C23.9361 26.2843 24.0588 26.2559 24.1815 26.218C24.3043 26.1612 24.4554 26.0949 24.6347 25.9908V25.6217C24.6253 25.546 24.6253 25.4135 24.6347 25.2337V25.1106L24.7481 25.0254V24.874H24.3326H23.9267L23.9172 24.8929Z" fill="white"/>
<path d="M26.8525 25.9717L26.8241 25.9527L26.8053 25.8865L26.7486 25.6783L26.6636 25.3565L26.05 22.924H25.8516L25.729 23.454L25.3702 24.9589C25.3041 25.2428 25.2568 25.4321 25.238 25.5268C25.1813 25.735 25.153 25.8486 25.1436 25.8865L25.1152 25.9527L25.0775 25.9811L24.9453 26.0095V26.1989L25.2568 26.1799L25.5779 26.1989V26.0095L25.3796 25.9622L25.3607 25.8865C25.3607 25.8297 25.3796 25.6972 25.4268 25.489L25.4928 25.205H26.201L26.3238 25.7256L26.3521 25.9149L26.3332 25.9811L26.1443 26.019V26.2083L26.6259 26.1893L27.0036 26.2083V26.019L26.9469 26.0001L26.8619 25.9811L26.8525 25.9717ZM25.8422 24.94H25.5495L25.8328 23.7285L26.1255 24.94H25.8422Z" fill="white"/>
<path d="M28.8817 23.2461L28.7118 23.0095L28.4286 22.9243L27.8149 22.9054L27.4183 22.8676L27.3994 23.0663L27.5505 23.0852L27.5977 23.1136L27.6166 23.1515V23.2557C27.6166 23.2557 27.6166 23.426 27.6166 23.6058L27.5977 24.0507L27.5505 24.8741C27.541 25.177 27.5128 25.4609 27.4938 25.707L27.4655 25.8774L27.4467 25.9057L27.2578 25.9341V26.1424C27.3617 26.1424 27.4938 26.1424 27.6166 26.1424C27.7393 26.1519 27.9093 26.1613 28.1453 26.1897V25.9815L27.9659 25.9531L27.9187 25.9153L27.8998 25.8774C27.8998 25.8774 27.8998 25.7544 27.8998 25.6219C27.8998 25.3852 27.9187 25.1675 27.9376 24.9404L27.9848 24.0601L28.0225 23.5964C28.0225 23.4165 28.0415 23.2745 28.0603 23.1704L28.2303 23.1515L28.4757 23.3313C28.5229 23.4449 28.5512 23.5964 28.5324 23.8235C28.5229 24.0317 28.4852 24.1737 28.4191 24.2778L28.1925 24.4292L28.1453 24.4103L28.0886 24.3819L28.0509 24.4292L28.0886 24.5997L28.1736 24.628H28.2586L28.5985 24.5144C28.7023 24.4292 28.7874 24.3062 28.8439 24.1548C28.9006 24.0033 28.9384 23.8424 28.9478 23.672C28.9478 23.5017 28.9479 23.3502 28.9006 23.2367L28.8817 23.2461Z" fill="white"/>
<path d="M30.2027 26.4256L30.2216 26.3973C30.2499 26.1985 30.2971 25.9524 30.3632 25.6496L30.2499 25.6306C30.2027 25.8294 30.1649 25.9714 30.1366 26.0471L30.1178 26.0849L29.9572 26.1133L29.674 26.0849L29.419 26.0377L29.4569 25.7537L29.5985 24.7788H29.8156L30.0517 24.8545L30.0988 24.9207C30.0988 24.9207 30.0988 25.0722 30.0705 25.2521L30.1838 25.2709L30.2499 24.7693L30.3348 24.2582L30.2216 24.2393C30.2027 24.3718 30.1838 24.4759 30.1649 24.5327L30.1366 24.58H30.0517C29.9195 24.58 29.8439 24.5516 29.8251 24.5516L29.6362 24.5138L29.7023 24.0406C29.74 23.766 29.7778 23.5484 29.8251 23.378L30.0705 23.3969L30.3254 23.4632L30.4293 23.5105V23.5578C30.4293 23.5578 30.4293 23.7092 30.401 23.8891L30.5049 23.9081C30.5426 23.7092 30.5614 23.5957 30.571 23.5767L30.637 23.2455V23.2076L30.5898 23.1887L30.3915 23.1508L30.1178 23.1225C29.9667 23.1035 29.8251 23.0845 29.7023 23.0657L29.523 23.0373L29.2113 22.971L29.183 23.1698L29.3719 23.236L29.3908 23.2739C29.3908 23.2739 29.3908 23.4159 29.3624 23.5862C29.3247 23.8513 29.3058 24.0026 29.2964 24.0406L29.1452 25.0722C29.1263 25.1953 29.0981 25.3846 29.0508 25.6496C29.0225 25.7915 29.0131 25.8956 28.9941 25.9619L28.8431 26.0755L28.8242 26.1985C29.1075 26.2364 29.2586 26.2459 29.2868 26.2459C29.3719 26.2553 29.5134 26.2837 29.7306 26.3215L29.9478 26.3594L30.1933 26.3784L30.2027 26.4256Z" fill="white"/>
<path d="M61.8763 0.63318C61.6585 0.63318 61.516 0.620313 61.3242 0.597153V2.00222C61.3242 2.33161 61.2956 2.82568 61.2308 3.18339C61.1711 3.52564 61.0856 3.82673 60.9767 4.07377C60.8549 4.34655 60.6682 4.63476 60.4271 4.92298C60.2378 5.14687 59.9786 5.37075 59.7271 5.58691C59.7271 5.58691 59.6079 5.6847 59.5586 5.72845C59.8775 5.95747 60.142 6.19422 60.3442 6.43355C60.7045 6.15048 61.1504 5.68212 61.3448 5.44538L61.7052 4.97702C61.7882 4.86122 61.8167 4.78402 61.8322 4.73512L61.8763 4.60645L61.9152 4.71712C61.923 4.74285 61.9593 4.80975 62.0785 4.97702C62.0785 4.97702 62.4415 5.44538 62.4415 5.44795C62.6126 5.65896 63.0741 6.1582 63.4423 6.43612C63.673 6.16077 63.9219 5.93174 64.194 5.73359C64.1474 5.69241 64.0255 5.58948 64.0255 5.58948C63.7741 5.37332 63.5122 5.15201 63.3256 4.92813C63.0793 4.63733 62.8952 4.35169 62.7733 4.07891C62.6671 3.83444 62.5815 3.53336 62.5193 3.18853C62.4545 2.82826 62.426 2.33675 62.426 2.00736V0.6023C62.2341 0.62546 62.0915 0.638327 61.8763 0.638327V0.63318Z" fill="white"/>
<path d="M67.2344 9.07839C67.2344 9.07839 67.67 9.08354 67.7919 9.09898C67.7633 7.74797 67.7452 6.3249 67.7452 4.9816C67.7452 3.74896 67.7581 1.86783 67.7919 0.434464C67.6726 0.447331 67.2344 0.452477 67.2344 0.452477C67.2344 0.452477 66.8015 0.444757 66.6797 0.434464C66.7082 1.84466 66.7263 3.73094 66.7263 4.9816C66.7263 6.34033 66.7107 7.76341 66.6797 9.09898C66.8015 9.08612 67.2344 9.07839 67.2344 9.07839Z" fill="white"/>
<path d="M65.2928 9.07865C65.2928 9.07865 65.7283 9.08637 65.8475 9.09923C65.819 7.87689 65.8008 6.2814 65.8008 4.92523C65.8008 3.67458 65.819 1.73941 65.8475 0.437286C65.7283 0.450153 65.2928 0.4553 65.2928 0.4553C65.2928 0.4553 64.8598 0.447579 64.7405 0.437286C64.7405 0.491327 64.7768 2.50627 64.7768 2.50627C64.7768 2.50627 63.5506 2.48826 63.4961 2.48569C63.5168 2.64009 63.5298 2.79706 63.5298 2.95147C63.5298 3.10587 63.5168 3.26541 63.4961 3.41981C63.5506 3.41981 64.5435 3.40438 64.5435 3.40438L64.7846 3.39923V4.92523C64.7872 6.28397 64.7717 7.87689 64.7405 9.09923C64.8598 9.08637 65.2928 9.07865 65.2928 9.07865Z" fill="white"/>
<path d="M88.1289 9.05593C88.1289 9.05593 88.5799 9.06108 88.7044 9.07395C88.6733 7.65087 88.6603 6.44654 88.6603 5.1753C88.6603 3.90406 88.6759 1.79904 88.7044 0.43516C88.5799 0.448027 88.1289 0.453173 88.1289 0.453173C88.1289 0.453173 87.6933 0.448027 87.5714 0.43516C87.5714 0.4892 87.6103 3.23498 87.6103 3.23498H87.5093L87.0711 3.24528L86.5708 3.23498C86.5708 3.23498 86.607 0.486627 86.6096 0.432587C86.4878 0.445453 86.0574 0.4506 86.0574 0.4506C86.0574 0.4506 85.6219 0.44288 85.5 0.432587C85.5311 1.69868 85.5467 3.78568 85.5467 5.11868C85.5467 6.45168 85.5311 7.81557 85.5 9.07395C85.6219 9.06365 86.0574 9.05593 86.0574 9.05593C86.0574 9.05593 86.4878 9.06365 86.6096 9.07395C86.5786 7.78469 86.563 6.38221 86.563 5.11868V4.13823L87.0711 4.12794L87.6181 4.13823V5.1753C87.6181 6.43882 87.6051 7.64058 87.5714 9.07395C87.6933 9.06108 88.1289 9.05593 88.1289 9.05593Z" fill="white"/>
<path d="M75.3769 1.46416L75.3717 1.43328H75.4028C76.2817 1.44357 77.5028 1.46416 78.2365 1.49246C78.2157 1.33549 78.2028 1.1605 78.2028 1.00096C78.2028 0.841404 78.2157 0.661269 78.2365 0.506866C77.1866 0.548041 75.7062 0.571201 74.708 0.571201C73.7099 0.571201 72.227 0.548041 71.1796 0.506866C71.2029 0.661269 71.2159 0.841404 71.2159 1.00096C71.2159 1.1605 71.2029 1.33549 71.1796 1.49246C71.9159 1.46673 73.1344 1.44357 74.0184 1.43585H74.0496L74.0444 1.46673C73.5725 2.32623 71.4414 2.81518 71.1562 2.87436C71.177 2.9284 71.5011 3.7596 71.5167 3.7982C73.067 3.43278 74.2569 2.65562 74.708 2.30823C75.1617 2.65562 76.3491 3.43278 77.8995 3.7982C77.9125 3.7596 78.2391 2.9284 78.2598 2.87436C77.9746 2.81518 75.841 2.32623 75.3743 1.46673L75.3769 1.46416Z" fill="white"/>
<path d="M98.3428 9.07591C98.3111 8.51235 98.2929 7.55248 98.2929 6.93744C98.2929 6.55401 98.3034 6.44851 98.3169 6.26322C98.3169 6.26322 98.34 5.92354 98.3428 5.87465C97.3986 5.89781 96.1392 5.91067 95.3119 5.91067C94.4849 5.91067 93.2197 5.90038 92.2734 5.87465C92.289 6.03162 92.2994 6.18602 92.2994 6.33785C92.2994 6.48968 92.289 6.64409 92.2734 6.79849C93.2145 6.77018 94.4719 6.76245 95.3119 6.76245L97.2305 6.77275H97.2564V6.8062C97.2612 6.80878 97.2641 6.81907 97.267 6.83451V6.83965C97.267 6.85767 97.267 6.88598 97.267 6.93487C97.267 7.54733 97.2458 8.5072 97.217 9.07334C97.2718 9.07334 97.7511 9.0579 97.7511 9.0579C97.7511 9.0579 98.291 9.07334 98.3428 9.07334V9.07591Z" fill="white"/>
<path d="M98.3318 5.44544C98.3106 4.77895 98.2924 4.12016 98.2876 3.43564V3.40734C98.2876 3.40734 99.6535 3.4305 99.7112 3.4305C99.6872 3.26066 99.6747 3.09854 99.6747 2.94414C99.6747 2.78974 99.6872 2.62504 99.7112 2.46034C99.6535 2.46034 98.2847 2.48093 98.2847 2.48093V2.45519C98.2876 1.73207 98.301 1.35636 98.3212 0.736187C98.3212 0.736187 98.3289 0.517451 98.3289 0.47113C98.132 0.489144 97.9398 0.499437 97.7535 0.499437C97.5671 0.499437 97.4086 0.489144 97.1992 0.473703C97.2328 1.47217 97.2453 2.22616 97.2453 3.06251C97.2453 3.99149 97.2252 4.57822 97.1992 5.45059C97.3933 5.43515 97.5642 5.42485 97.7535 5.42485C97.9427 5.42485 98.1454 5.43515 98.3318 5.45059V5.44544Z" fill="white"/>
<path d="M84.9788 5.91071C84.958 5.70999 84.9476 5.51441 84.9476 5.33685C84.9476 5.19017 84.9554 5.05636 84.971 4.93798H82.6559L82.3032 4.92769H82.2773L82.2591 3.38366L82.2773 1.66723H84.5665C84.5561 1.52827 84.5484 1.39703 84.5484 1.26836C84.5484 1.07535 84.5639 0.890076 84.5872 0.70222C84.0429 0.71766 83.4673 0.730527 82.915 0.730527C82.3032 0.730527 81.6785 0.71766 81.1055 0.699646C81.134 1.53084 81.1522 2.50872 81.1522 3.38366C81.1522 4.25861 81.1236 5.61477 81.1055 5.91586C82.4122 5.88241 83.5373 5.88241 84.9762 5.90814L84.9788 5.91071Z" fill="white"/>
<path d="M95.721 2.60168C95.6303 2.39323 95.4903 2.19508 95.314 2.0098L95.2673 1.96348C95.2673 1.96348 96.3586 2.00208 96.4076 2.00465C96.3875 1.8451 96.3769 1.68555 96.3769 1.52858C96.3769 1.37161 96.3875 1.2172 96.4057 1.05251C95.7132 1.08081 94.9432 1.1014 94.1837 1.10912H94.1551L94.1603 0.882664C94.1603 0.882664 94.1759 0.056614 94.1785 0C93.9788 0.0257336 93.8129 0.0411738 93.5899 0.0411738C93.367 0.0411738 93.2011 0.0257336 93.0015 0C93.0015 0.056614 93.0274 1.10912 93.0274 1.10912H92.9989C92.2107 1.10397 91.4174 1.08339 90.7044 1.04994C90.7251 1.21978 90.7355 1.37418 90.7355 1.52858C90.7355 1.68298 90.7226 1.83738 90.6992 2.00465C90.7511 2.00465 91.8866 1.9609 91.8866 1.9609L91.8425 2.0098C91.6662 2.19765 91.5289 2.3958 91.4329 2.60425C91.3241 2.83328 91.2696 3.08289 91.2696 3.34023V3.37882V3.39684V3.41743C91.2904 3.96299 91.5107 4.4442 91.9333 4.84565C92.3766 5.25995 92.9262 5.47355 93.5718 5.47355C94.2173 5.47355 94.7721 5.26253 95.218 4.84565L95.2751 4.79161C95.2751 4.79161 95.2803 4.78904 95.2881 4.79161C95.3788 4.70154 95.4643 4.59603 95.5473 4.46479C95.6122 4.36443 95.6691 4.26664 95.7158 4.16114C95.8299 3.92695 95.8895 3.67991 95.8895 3.42257C95.8895 3.42257 95.8895 3.38398 95.8895 3.38141V3.3428C95.8895 3.08804 95.8299 2.83842 95.7184 2.60682L95.721 2.60168ZM94.3729 4.24862C94.1577 4.50081 93.8907 4.62691 93.5795 4.62691C93.2684 4.62691 92.9937 4.50081 92.7707 4.25377C92.5478 4.00931 92.4363 3.7005 92.4363 3.33508C92.4363 2.96966 92.5452 2.68659 92.7604 2.4344C92.9755 2.18221 93.2426 2.05612 93.5484 2.05612C93.8544 2.05612 94.1344 2.18222 94.3573 2.42926C94.5829 2.6763 94.6969 2.98253 94.6969 3.33508C94.6969 3.68763 94.5907 3.99901 94.3755 4.24862H94.3729Z" fill="white"/>
<path d="M77.1113 7.55068C77.1113 6.9794 76.878 6.48273 76.4139 6.07872C75.9498 5.66956 75.3794 5.46368 74.708 5.46368C74.0365 5.46368 73.4765 5.66956 73.0073 6.07872C72.5432 6.48531 72.3047 6.98197 72.3047 7.55068C72.3047 8.11939 72.5432 8.60834 73.0073 9.01493C73.4791 9.42409 74.0521 9.62991 74.708 9.62991C75.3639 9.62991 75.9498 9.42409 76.4139 9.01493C76.878 8.60576 77.1113 8.11425 77.1113 7.55068ZM75.5661 8.47966C75.3172 8.73185 75.0217 8.85796 74.6795 8.85796C74.3372 8.85796 74.0521 8.72928 73.8084 8.46937C73.5725 8.21461 73.4506 7.90581 73.4506 7.55326C73.4506 7.18269 73.5751 6.86616 73.8188 6.61397C74.0703 6.35921 74.3631 6.23312 74.708 6.23312C75.0527 6.23312 75.3457 6.36179 75.5816 6.61912C75.815 6.87389 75.9369 7.18784 75.9369 7.55068C75.9369 7.91353 75.8098 8.22233 75.5661 8.47709V8.47966Z" fill="white"/>
<path d="M79.136 5.24989C79.1075 5.08005 79.092 4.90764 79.092 4.74037C79.092 4.5731 79.1075 4.40326 79.136 4.23342C77.959 4.25658 76.6498 4.26944 75.2473 4.27201H75.2188L75.2265 3.92719C75.2265 3.92719 75.2369 3.24009 75.2395 3.18605C75.0606 3.20921 74.9102 3.22208 74.708 3.22208C74.5058 3.22208 74.3529 3.20921 74.1765 3.18605C74.1765 3.24267 74.1921 4.16393 74.1921 4.16393V4.27201H74.1687C72.7636 4.26944 71.4596 4.25658 70.2852 4.23342C70.3111 4.40068 70.3267 4.5731 70.3267 4.74037C70.3267 4.90764 70.3111 5.08005 70.2852 5.24989C71.7966 5.22159 73.2847 5.20872 74.708 5.20872C76.1313 5.20872 77.6272 5.22159 79.136 5.24989Z" fill="white"/>
<path d="M108.226 5.53295C108.194 4.93078 108.174 3.85768 108.174 3.19633C108.174 2.61732 108.189 1.4696 108.226 0.803101C107.287 0.828835 106.227 0.841701 105.221 0.841701C104.31 0.841701 102.975 0.828835 101.957 0.803101C101.972 0.978086 101.985 1.14278 101.985 1.30748C101.985 1.47217 101.975 1.63687 101.957 1.80929C102.97 1.78356 104.309 1.77068 105.221 1.77068L107.03 1.78356V1.80929C107.04 2.19786 107.046 2.42432 107.046 2.56071C107.046 2.6199 107.046 2.6585 107.046 2.68681V2.73827H107.043C107.043 3.42279 107.025 4.92049 106.994 5.53552C107.043 5.53295 107.663 5.51493 107.663 5.51493C107.663 5.51493 108.176 5.53295 108.231 5.53295H108.226Z" fill="white"/>
<path d="M109.507 7.70742C109.481 7.52728 109.462 7.34715 109.462 7.17473C109.462 7.00232 109.481 6.82218 109.507 6.64462C108.371 6.66521 107.277 6.67807 106.136 6.68323H106.11L106.118 5.90607C106.118 5.90607 106.144 4.14073 106.144 4.08412C105.942 4.10728 105.763 4.12015 105.582 4.12015C105.4 4.12015 105.219 4.10728 105.016 4.08412C105.016 4.14073 105.042 5.98584 105.042 5.98584L105.05 6.6858H104.01L104.018 5.96011C104.018 5.96011 104.044 4.14073 104.044 4.08412C103.842 4.10728 103.665 4.12015 103.479 4.12015C103.293 4.12015 103.119 4.10728 102.916 4.08412C102.916 4.14073 102.942 6.02186 102.942 6.02186L102.95 6.6755C102.95 6.6755 100.857 6.64462 100.801 6.64462C100.83 6.82218 100.845 7.00232 100.845 7.17473C100.845 7.34715 100.83 7.52471 100.801 7.70742C102.269 7.68168 103.663 7.66625 105.133 7.66625C106.603 7.66625 108.034 7.68168 109.502 7.70742H109.507Z" fill="white"/>
<path d="M193.272 47.2566C193.16 46.8335 192.836 46.5561 192.24 46.5514C191.612 46.5561 191.166 46.8946 191.162 47.3225C191.166 47.661 191.438 47.8914 192.034 48.0372L192.794 48.2253C193.703 48.4416 194.149 48.8976 194.154 49.6076C194.149 50.4916 193.432 51.1452 192.156 51.1405C191.012 51.1452 190.332 50.6327 190.195 49.7017H191.04C191.134 50.2001 191.495 50.4399 192.137 50.4352C192.864 50.4399 193.319 50.1343 193.319 49.6547C193.319 49.2926 193.061 49.0575 192.484 48.9211L191.715 48.7425C190.828 48.5356 190.355 48.0513 190.355 47.3695C190.355 46.4949 191.119 45.8649 192.24 45.8649C193.296 45.8649 193.957 46.4291 194.06 47.2566H193.272Z" fill="white"/>
<path d="M187.559 51.1405C186.086 51.1452 185.176 50.092 185.176 48.5262C185.176 46.9557 186.1 45.8649 187.484 45.8649C188.553 45.8649 189.684 46.5231 189.679 48.4133V48.7519H185.983C186.025 49.8333 186.654 50.4258 187.559 50.4258C188.169 50.4258 188.553 50.1578 188.741 49.8428H189.604C189.365 50.6185 188.61 51.1452 187.559 51.1405ZM185.987 48.0654H188.863C188.858 47.2144 188.324 46.5796 187.484 46.5796C186.602 46.5796 186.044 47.2755 185.987 48.0654Z" fill="white"/>
<path d="M183.617 51.0371V45.9307H184.423V51.0371H183.617ZM183.457 44.5484C183.452 44.2475 183.711 44.0077 184.02 44.0123C184.329 44.0077 184.588 44.2475 184.593 44.5484C184.588 44.8446 184.329 45.0844 184.02 45.0844C183.711 45.0844 183.452 44.8446 183.457 44.5484Z" fill="white"/>
<path d="M182.862 45.9307V46.6078H181.792V49.5701C181.788 50.2236 182.116 50.3318 182.459 50.3318C182.604 50.3318 182.82 50.3176 182.937 50.3129V51.0653C182.81 51.084 182.613 51.1029 182.374 51.1029C181.694 51.1029 180.981 50.6797 180.976 49.7769V46.6078H180.207V45.9307H180.976V44.7082H181.792V45.9307H182.862Z" fill="white"/>
<path d="M178.835 51.0371V45.9307H179.642V51.0371H178.835ZM178.676 44.5484C178.672 44.2475 178.929 44.0077 179.239 44.0123C179.549 44.0077 179.806 44.2475 179.811 44.5484C179.806 44.8446 179.549 45.0844 179.239 45.0844C178.929 45.0844 178.672 44.8446 178.676 44.5484Z" fill="white"/>
<path d="M177.838 44.2286V51.037H177.031V44.2286H177.838Z" fill="white"/>
<path d="M175.23 51.0371V45.9307H176.037V51.0371H175.23ZM175.07 44.5484C175.066 44.2475 175.324 44.0077 175.633 44.0123C175.943 44.0077 176.201 44.2475 176.206 44.5484C176.201 44.8446 175.943 45.0844 175.633 45.0844C175.324 45.0844 175.066 44.8446 175.07 44.5484Z" fill="white"/>
<path d="M172.514 51.1405C171.069 51.1452 170.188 50.0402 170.188 48.5073C170.188 46.9557 171.112 45.8649 172.496 45.8649C173.579 45.8649 174.395 46.5091 174.522 47.4729H173.715C173.598 47.0074 173.194 46.5796 172.514 46.5796C171.604 46.5796 170.999 47.3318 170.994 48.4792C170.999 49.6593 171.59 50.4164 172.514 50.4164C173.114 50.4164 173.575 50.092 173.715 49.5324H174.522C174.395 50.4446 173.645 51.1452 172.514 51.1405Z" fill="white"/>
<path d="M165.336 49.5888C165.336 48.4181 166.368 48.1501 167.249 48.0842C167.578 48.0607 168.398 48.0137 168.628 48.009V47.5952C168.628 46.9464 168.244 46.5701 167.474 46.5701C166.832 46.5701 166.443 46.8664 166.33 47.2566H165.486C165.589 46.4338 166.386 45.8649 167.512 45.8649C168.178 45.8649 169.43 46.0624 169.425 47.6704V51.037H168.628V50.3411H168.59C168.422 50.6844 167.957 51.1546 167.071 51.1593C166.104 51.1546 165.336 50.5856 165.336 49.5888ZM166.142 49.6265C166.147 50.1672 166.592 50.4399 167.212 50.4352C168.122 50.4399 168.628 49.8286 168.628 49.1845V48.6719C168.389 48.6861 167.587 48.7472 167.343 48.7613C166.612 48.8083 166.147 49.0669 166.142 49.6265Z" fill="white"/>
<path d="M160.633 51.037V44.2286H164.722V44.9809H161.477V47.2566H164.413V47.9996H161.477V51.037H160.633Z" fill="white"/>
<path d="M154.1 47.9714V51.037H153.293V44.2286H154.1V46.73H154.165C154.404 46.2035 154.86 45.8649 155.667 45.8649C156.708 45.8649 157.401 46.4809 157.401 47.7927V51.037H156.595V47.8492C156.595 47.0451 156.155 46.589 155.423 46.589C154.663 46.589 154.1 47.0874 154.1 47.9714Z" fill="white"/>
<path d="M150.577 51.1405C149.132 51.1452 148.25 50.0402 148.25 48.5073C148.25 46.9557 149.174 45.8649 150.558 45.8649C151.642 45.8649 152.457 46.5091 152.584 47.4729H151.777C151.66 47.0074 151.257 46.5796 150.577 46.5796C149.667 46.5796 149.062 47.3318 149.057 48.4792C149.062 49.6593 149.652 50.4164 150.577 50.4164C151.177 50.4164 151.637 50.092 151.777 49.5324H152.584C152.457 50.4446 151.707 51.1452 150.577 51.1405Z" fill="white"/>
<path d="M145.594 51.037V45.9307H146.372V46.7112H146.429C146.611 46.194 147.141 45.8508 147.742 45.8461C147.864 45.8508 148.07 45.8554 148.164 45.8649V46.683C148.103 46.669 147.888 46.6266 147.676 46.6266C146.944 46.6266 146.401 47.1344 146.401 47.8209V51.037H145.594Z" fill="white"/>
<path d="M140.5 49.5888C140.5 48.4181 141.532 48.1501 142.414 48.0842C142.742 48.0607 143.562 48.0137 143.792 48.009V47.5952C143.792 46.9464 143.408 46.5701 142.638 46.5701C141.996 46.5701 141.607 46.8664 141.494 47.2566H140.65C140.753 46.4338 141.55 45.8649 142.676 45.8649C143.342 45.8649 144.594 46.0624 144.59 47.6704V51.037H143.792V50.3411H143.754C143.586 50.6844 143.121 51.1546 142.235 51.1593C141.268 51.1546 140.5 50.5856 140.5 49.5888ZM141.307 49.6265C141.311 50.1672 141.756 50.4399 142.376 50.4352C143.286 50.4399 143.792 49.8286 143.792 49.1845V48.6719C143.553 48.6861 142.751 48.7472 142.508 48.7613C141.776 48.8083 141.311 49.0669 141.307 49.6265Z" fill="white"/>
<path d="M137.86 51.1405C136.386 51.1452 135.477 50.092 135.477 48.5262C135.477 46.9557 136.401 45.8649 137.785 45.8649C138.854 45.8649 139.985 46.5231 139.98 48.4133V48.7519H136.283C136.326 49.8333 136.954 50.4258 137.86 50.4258C138.469 50.4258 138.854 50.1578 139.041 49.8428H139.905C139.666 50.6185 138.91 51.1452 137.86 51.1405ZM136.288 48.0654H139.163C139.159 47.2144 138.624 46.5796 137.785 46.5796C136.903 46.5796 136.344 47.2755 136.288 48.0654Z" fill="white"/>
<path d="M134.077 47.2566C133.964 46.8335 133.641 46.5561 133.045 46.5514C132.417 46.5561 131.971 46.8946 131.966 47.3225C131.971 47.661 132.243 47.8914 132.839 48.0372L133.598 48.2253C134.508 48.4416 134.954 48.8976 134.959 49.6076C134.954 50.4916 134.236 51.1452 132.961 51.1405C131.817 51.1452 131.136 50.6327 131 49.7017H131.844C131.939 50.2001 132.3 50.4399 132.942 50.4352C133.669 50.4399 134.124 50.1343 134.124 49.6547C134.124 49.2926 133.865 49.0575 133.289 48.9211L132.52 48.7425C131.633 48.5356 131.159 48.0513 131.159 47.3695C131.159 46.4949 131.924 45.8649 133.045 45.8649C134.101 45.8649 134.762 46.4291 134.864 47.2566H134.077Z" fill="white"/>
<path d="M128.363 51.1405C126.89 51.1452 125.98 50.092 125.98 48.5262C125.98 46.9557 126.905 45.8649 128.288 45.8649C129.358 45.8649 130.488 46.5231 130.483 48.4133V48.7519H126.787C126.83 49.8333 127.458 50.4258 128.363 50.4258C128.973 50.4258 129.358 50.1578 129.545 49.8428H130.408C130.169 50.6185 129.414 51.1452 128.363 51.1405ZM126.792 48.0654H129.667C129.662 47.2144 129.127 46.5796 128.288 46.5796C127.406 46.5796 126.848 47.2755 126.792 48.0654Z" fill="white"/>
<path d="M120.824 51.037V44.2286H123.132C124.721 44.2286 125.449 45.1126 125.449 46.3257C125.449 47.2284 125.045 47.9337 124.182 48.2346L125.712 51.037H124.726L123.305 48.3899C123.254 48.3946 123.197 48.3946 123.141 48.3946H121.669V51.037H120.824ZM121.669 47.6234H123.104C124.187 47.6234 124.609 47.1344 124.614 46.3257C124.609 45.5122 124.187 44.9809 123.094 44.9809H121.669V47.6234Z" fill="white"/>
<path d="M113.098 44.2286L115.096 49.9368H115.171L117.179 44.2286H118.07L115.584 51.037H114.693L112.207 44.2286H113.098Z" fill="white"/>
<path d="M111.579 44.2286V51.037H110.734V44.2286H111.579Z" fill="white"/>
<path d="M109.523 44.2286V51.037H108.716L105.039 45.7332H104.973V51.037H104.129V44.2286H104.945L108.623 49.5419H108.688V44.2286H109.523Z" fill="white"/>
<path d="M102.068 44.2286H102.912V48.7331C102.912 50.1343 101.866 51.1546 100.267 51.1593C98.6624 51.1546 97.6211 50.1343 97.6211 48.7331V44.2286H98.4655V48.6673C98.4607 49.6547 99.1456 50.3647 100.267 50.3693C101.388 50.3647 102.063 49.6547 102.068 48.6673V44.2286Z" fill="white"/>
<path d="M93.6116 46.3539C93.3208 45.4793 92.6594 44.9244 91.6886 44.9244C90.4878 44.9244 89.5357 45.8743 89.531 47.6328C89.5357 49.3866 90.4878 50.3365 91.7449 50.3411C92.8893 50.3365 93.682 49.5747 93.696 48.3664H91.923V47.6234H94.5215V48.3569C94.5215 50.0449 93.3631 51.1311 91.7449 51.1311C89.9296 51.1311 88.7102 49.7863 88.7149 47.6328C88.7102 45.4793 89.9437 44.1345 91.6886 44.1345C93.1238 44.1345 94.2308 45.0373 94.484 46.3539H93.6116Z" fill="white"/>
<path d="M87.765 44.2286V51.037H86.9583L83.281 45.7332H83.2154V51.037H82.3711V44.2286H83.1872L86.8645 49.5419H86.9302V44.2286H87.765Z" fill="white"/>
<path d="M81.4217 47.6328C81.4264 49.7863 80.1599 51.1311 78.4198 51.1311C76.675 51.1311 75.4133 49.7863 75.418 47.6328C75.4133 45.4793 76.675 44.1345 78.4198 44.1345C80.1599 44.1345 81.4264 45.4793 81.4217 47.6328ZM76.2341 47.6328C76.2388 49.3866 77.1909 50.3365 78.4198 50.3411C79.6487 50.3365 80.6008 49.3866 80.6056 47.6328C80.6008 45.8743 79.6487 44.9244 78.4198 44.9244C77.1909 44.9244 76.2388 45.8743 76.2341 47.6328Z" fill="white"/>
<path d="M73.6136 44.2286H74.4672V49.0904C74.4626 50.3975 73.7028 51.1311 72.5161 51.1311C71.3903 51.1311 70.5742 50.4869 70.5742 49.429H71.4092C71.4138 50.0073 71.8781 50.3788 72.5161 50.3788C73.2149 50.3788 73.6136 49.932 73.6136 49.0904V44.2286Z" fill="white"/>
<path d="M65.8555 51.037V44.2286H69.9736V44.9809H66.6997V47.2566H69.7579V47.9996H66.6997V50.2848H70.0205V51.037H65.8555Z" fill="white"/>
<path d="M64.0119 45.9401C63.9415 45.2725 63.3224 44.8869 62.511 44.8869C61.6104 44.8869 61.0241 45.3571 61.0193 46.0059C61.0241 46.7207 61.8167 46.9886 62.3327 47.1156L63.0082 47.3036C63.7351 47.4918 64.9312 47.9102 64.9312 49.1845C64.9312 50.2941 64.04 51.1546 62.464 51.1593C61.0006 51.1546 60.0954 50.3975 60.0156 49.2691H60.8787C60.949 50.0308 61.6573 50.3929 62.464 50.3882C63.4021 50.3929 64.1056 49.9085 64.1056 49.1656C64.1056 48.5027 63.4771 48.2488 62.7642 48.0466L61.9293 47.8209C60.8646 47.5106 60.1985 46.9651 60.2032 46.0436C60.1985 44.8916 61.2211 44.1345 62.5391 44.1345C63.857 44.1345 64.8046 44.9057 64.8373 45.9401H64.0119Z" fill="white"/>
<path d="M154.23 16.2952V31.7326H151.709V29.9497H147.723V28.1892H151.709V16.2952H154.23ZM137.074 25.4583C140.823 25.4358 145.877 25.4019 150.2 24.849L150.335 26.6545C148.658 26.9367 146.924 27.1172 145.202 27.2414V31.1684H142.703V27.3768C140.8 27.4557 138.988 27.467 137.389 27.467L137.074 25.4583ZM138.627 20.651C138.627 18.4956 140.699 17.0287 143.716 17.0399C146.676 17.0287 148.759 18.4956 148.782 20.651C148.759 22.8403 146.676 24.2283 143.716 24.2396C140.699 24.2283 138.627 22.8403 138.627 20.651ZM139.776 36.2691V30.243H142.275V34.2379H154.703V36.2691H139.776ZM140.992 20.651C140.992 21.757 142.084 22.4002 143.716 22.4114C145.269 22.4002 146.384 21.757 146.395 20.651C146.384 19.5452 145.269 18.8794 143.716 18.8906C142.084 18.8794 140.992 19.5452 140.992 20.651Z" fill="white"/>
<path d="M134.93 16.2725V36.6753H132.408V16.2725H134.93ZM118.066 31.0556C123.402 28.5165 125.857 25.0633 126.306 20.4253H119.102V18.4392H128.851C128.851 24.5104 126.498 29.6675 119.373 33.0642L118.066 31.0556Z" fill="white"/>
<path d="M115.695 16.2725V36.6753H113.174V16.2725H115.695ZM98.832 31.0556C104.168 28.5165 106.622 25.0633 107.072 20.4253H99.8676V18.4392H109.617C109.617 24.5104 107.264 29.6675 100.138 33.0642L98.832 31.0556Z" fill="white"/>
<path d="M98.0387 26.0452V28.0538H79.4648V26.0452H87.5248V24.1041H81.7388V17.1979H95.7874V19.1614H84.2377V22.1181H95.9V24.1041H89.9788V26.0452H98.0387ZM81.6262 32.9514C81.6262 30.559 84.294 29.2161 88.718 29.2275C93.1082 29.2161 95.7536 30.559 95.7648 32.9514C95.7536 35.3212 93.1082 36.664 88.718 36.6753C84.294 36.664 81.6262 35.3212 81.6262 32.9514ZM84.1702 32.9514C84.159 34.1363 85.7575 34.7456 88.718 34.7344C91.6336 34.7456 93.2433 34.1363 93.2659 32.9514C93.2433 31.7778 91.6336 31.1459 88.718 31.1459C85.7575 31.1459 84.159 31.7778 84.1702 32.9514Z" fill="white"/>
<path d="M69.3955 29.0243C73.8195 29.0356 76.6111 30.4349 76.6224 32.8611C76.6111 35.2309 73.8195 36.6528 69.3955 36.6528C65.0165 36.6528 62.191 35.2309 62.191 32.8611C62.191 30.4349 65.0165 29.0356 69.3955 29.0243ZM60.2773 27.5573V25.526H67.4367V21.8247H69.9132V25.526H78.7388V27.5573H60.2773ZM62.3936 19.2292V17.243H76.4873V18.9358C76.4986 20.5494 76.4986 22.2648 75.9245 24.3525L73.4479 24.1268C73.9545 22.1519 73.9882 20.7075 73.9882 19.2292H62.3936ZM64.7126 32.8611C64.6901 34.0573 66.4574 34.7118 69.3955 34.7118C72.3448 34.7118 74.1234 34.0573 74.1459 32.8611C74.1234 31.6198 72.3448 30.9202 69.3955 30.9202C66.4574 30.9202 64.6901 31.6198 64.7126 32.8611Z" fill="white"/>
</g>
<defs>
<clipPath id="clip0_1637_8772">
<rect width="195" height="52" fill="white"/>
</clipPath>
</defs>
</svg>
