<svg width="84" height="38" viewBox="0 0 84 38" fill="none" xmlns="http://www.w3.org/2000/svg">
<g clip-path="url(#clip0_1637_8468)">
<mask id="mask0_1637_8468" style="mask-type:luminance" maskUnits="userSpaceOnUse" x="0" y="0" width="84" height="38">
<path d="M84 0H0V38H84V0Z" fill="white"/>
</mask>
<g mask="url(#mask0_1637_8468)">
<path d="M22.8328 23.2882C21.8753 24.2534 21.3387 25.5587 21.3405 26.9186L21.3281 27.3834H23.5289L23.5603 26.9654C23.577 26.159 23.885 25.3859 24.4274 24.7892C24.6727 24.5427 24.9663 24.3495 25.2896 24.2218C25.613 24.094 25.9593 24.0344 26.3068 24.0467C26.6405 24.0375 26.9727 24.0957 27.2834 24.2179C27.5942 24.3401 27.8771 24.5237 28.1153 24.7577C28.3482 24.9691 28.5336 25.2273 28.6595 25.5155C28.7854 25.8037 28.8489 26.1153 28.8458 26.4297C28.8459 26.9648 28.7002 27.4899 28.4243 27.9483C27.8302 28.8314 27.1527 29.6554 26.401 30.4088L20.4297 36.8432H31.2474V34.6187H25.4858C26.3776 33.6592 28.211 31.6825 28.211 31.6825C29.0626 30.8175 29.8134 29.8587 30.4491 28.8245C30.8542 28.0871 31.0656 27.2588 31.0634 26.4173C31.0651 25.8064 30.9439 25.2015 30.707 24.6385C30.47 24.0755 30.1221 23.566 29.684 23.1404C29.246 22.7149 28.7268 22.3819 28.1573 22.1615C27.5879 21.941 26.9799 21.8376 26.3696 21.8573C25.7139 21.8438 25.0623 21.9636 24.4542 22.2094C23.8462 22.4552 23.2943 22.822 22.8321 23.2874" fill="white"/>
<path d="M0 7.75638L3.56233 7.76442V22.7503C3.52415 24.3633 3.57291 25.9773 3.70842 27.5851C3.83516 28.8572 4.26335 30.0808 4.95746 31.1541C5.73047 32.2088 6.77017 33.0387 7.96977 33.5584C9.24318 34.1847 10.6413 34.5159 12.0602 34.5274C13.2452 34.529 14.4161 34.2695 15.4896 33.7674C16.5534 33.2834 17.4918 32.5614 18.2324 31.6569C18.998 30.6972 19.5495 29.5847 19.8496 28.394C20.1677 26.5309 20.2901 24.6396 20.2148 22.751V7.98438L23.7771 7.97634V22.7708C23.8518 25.4109 23.5355 28.0476 22.8385 30.5951C22.1484 32.6724 20.8348 34.4863 19.0768 35.7894C17.1223 37.2873 14.7127 38.0678 12.2516 38C9.61697 38.0729 7.02222 37.3446 4.80991 35.9115C2.81519 34.6177 1.34378 32.658 0.657391 30.381C0.21913 28.9765 0 26.4397 0 22.7708V7.75638Z" fill="white"/>
<path d="M72.1522 8.39727C71.9516 8.415 71.7502 8.3728 71.5736 8.27603C71.3969 8.17926 71.2529 8.03225 71.1598 7.8536C71.0667 7.67496 71.0286 7.47269 71.0504 7.27239C71.0721 7.07208 71.1528 6.88274 71.2821 6.7283C71.4115 6.57386 71.5837 6.46126 71.777 6.40474C71.9703 6.34822 72.176 6.35032 72.3681 6.41077C72.5602 6.47123 72.7301 6.58732 72.8563 6.74437C72.9824 6.90142 73.0592 7.09237 73.0769 7.29308C73.0887 7.42635 73.0742 7.56064 73.0341 7.68828C72.994 7.81592 72.9292 7.9344 72.8433 8.03696C72.7574 8.13951 72.6522 8.22412 72.5336 8.28594C72.415 8.34777 72.2854 8.3856 72.1522 8.39727ZM67.6308 4.04627C67.5135 4.42548 67.2865 4.7614 66.9784 5.01156C66.6704 5.26172 66.2951 5.41489 65.9001 5.45172C65.505 5.48854 65.1079 5.40737 64.759 5.21845C64.41 5.02954 64.1249 4.74136 63.9396 4.39035C63.7543 4.03934 63.6772 3.64126 63.7181 3.24642C63.7589 2.85158 63.9158 2.47771 64.169 2.17208C64.4221 1.86644 64.7602 1.64275 65.1404 1.52929C65.5206 1.41582 65.9259 1.41768 66.305 1.53462C66.5571 1.61225 66.7913 1.73883 66.9944 1.90713C67.1975 2.07542 67.3654 2.28213 67.4885 2.51541C67.6116 2.7487 67.6876 3.00399 67.712 3.26667C67.7364 3.52935 67.7088 3.79427 67.6308 4.04627ZM58.9773 11.495C58.8305 11.9709 58.546 12.3925 58.1598 12.7067C57.7735 13.0209 57.3029 13.2134 56.8073 13.2601C56.3117 13.3067 55.8134 13.2053 55.3754 12.9687C54.9373 12.7321 54.5792 12.371 54.3463 11.9308C54.1134 11.4907 54.0161 10.9914 54.0667 10.4959C54.1174 10.0005 54.3137 9.53121 54.6308 9.14735C54.9479 8.76349 55.3717 8.48229 55.8485 8.33929C56.3253 8.19629 56.8338 8.1979 57.3097 8.34393C57.6264 8.44069 57.9209 8.59907 58.1762 8.80998C58.4316 9.02089 58.6428 9.28017 58.7977 9.57294C58.9527 9.86571 59.0483 10.1862 59.0791 10.5161C59.1099 10.8459 59.0753 11.1786 58.9773 11.495ZM71.8965 5.47347C71.4948 5.50859 71.115 5.67205 70.8133 5.9397L68.9799 4.55781L69.0128 4.47012C69.177 3.93822 69.2101 3.37447 69.1094 2.82697C69.0087 2.27947 68.7771 1.76446 68.4344 1.32589C68.0917 0.887307 67.6481 0.538173 67.1413 0.308267C66.6345 0.07836 66.0797 -0.0254962 65.5241 0.00555772C64.9685 0.0366116 64.4287 0.201654 63.9507 0.486606C63.4727 0.771557 63.0707 1.16796 62.7789 1.642C62.4872 2.11604 62.3144 2.65365 62.2752 3.20897C62.2361 3.76429 62.3319 4.32083 62.5543 4.83112L59.4214 7.49916C58.8795 7.02118 58.2264 6.68694 57.5218 6.52707C56.8173 6.3672 56.0839 6.38681 55.3889 6.58411C54.6939 6.78141 54.0595 7.15009 53.5439 7.65635C53.0283 8.1626 52.648 8.79024 52.4377 9.48174C52.2247 10.1737 52.1886 10.908 52.3327 11.6175C52.4768 12.327 52.7965 12.989 53.2625 13.5429C53.7285 14.0968 54.3259 14.525 55.0001 14.7881C55.6743 15.0512 56.4037 15.1409 57.1215 15.0491C57.8393 14.9572 58.5226 14.6866 59.1089 14.2622C59.6952 13.8377 60.1656 13.2729 60.4772 12.6194C60.7888 11.966 60.9316 11.2448 60.8925 10.5218C60.8534 9.79889 60.6337 9.0973 60.2534 8.48131L63.2832 5.90024C63.6304 6.24866 64.0483 6.51853 64.5086 6.69166C64.9689 6.86478 65.4609 6.93712 65.9515 6.90381C66.4422 6.8705 66.9199 6.7323 67.3526 6.49854C67.7853 6.26478 68.1629 5.94089 68.4598 5.54874L70.2275 6.88166C70.166 7.09836 70.1438 7.32431 70.1617 7.54885C70.1953 7.92575 70.3398 8.28423 70.5771 8.57895C70.8143 8.87367 71.1335 9.0914 71.4944 9.20459C71.8553 9.31779 72.2417 9.32137 72.6046 9.21489C72.9675 9.1084 73.2908 8.89663 73.5334 8.60636C73.776 8.31609 73.9272 7.96035 73.9677 7.58414C74.0083 7.20792 73.9364 6.82812 73.7612 6.49278C73.586 6.15744 73.3153 5.8816 72.9834 5.70017C72.6515 5.51873 72.2732 5.43984 71.8965 5.47347Z" fill="white"/>
<path d="M36.9683 22.6633V34.1116H40.6512C42.2693 34.194 43.8887 33.9773 45.4282 33.4721C46.4212 33.0611 47.2704 32.3652 47.8686 31.472C48.5273 30.5135 48.8484 29.363 48.7815 28.2017C48.7146 27.0405 48.2634 25.9345 47.499 25.0581C46.56 24.0237 45.3179 23.3131 43.9506 23.028C42.2012 22.726 40.4255 22.6036 38.6512 22.6626L36.9683 22.6633ZM36.9683 10.1818V19.7213H38.6739C40.2181 19.7961 41.7636 19.6018 43.2413 19.1469C44.1812 18.7886 44.989 18.1511 45.556 17.32C46.1196 16.5087 46.418 15.5426 46.4099 14.5547C46.4379 13.9454 46.3229 13.3379 46.0742 12.781C45.8254 12.2241 45.4499 11.7331 44.9775 11.3474C44.0231 10.5718 42.5038 10.1835 40.4196 10.1825L36.9683 10.1818ZM34.0312 7.24119H39.8901C41.7387 7.15644 43.5856 7.44217 45.3223 8.08157C46.5611 8.61951 47.6075 9.5211 48.3229 10.667C49.0558 11.8231 49.4379 13.1669 49.423 14.5357C49.4443 15.8249 49.1048 17.0943 48.4429 18.2006C47.781 19.3069 46.8231 20.206 45.6773 20.7962C46.956 21.1913 48.1503 21.8205 49.1995 22.6516C50.0188 23.36 50.6734 24.2389 51.1176 25.2269C51.5805 26.2551 51.8147 27.3716 51.8042 28.4993C51.8229 29.6388 51.5995 30.7694 51.1489 31.8161C50.6982 32.8629 50.0305 33.8019 49.19 34.5712C47.4486 36.2276 45.1112 37.0558 42.1778 37.0558H34.0312V7.24119Z" fill="white"/>
<path d="M57.9591 16.7397H55.0234V37.0515H57.9591V16.7397Z" fill="white"/>
<path d="M72.5024 17.0518C70.9401 17.0662 69.4084 17.4877 68.0584 18.2746C66.7084 19.0615 65.5867 20.1868 64.8036 21.5394C64.0133 22.9373 63.6077 24.5199 63.6284 26.1257C63.621 27.2948 63.8453 28.4538 64.2884 29.5357C64.7315 30.6175 65.3844 31.6008 66.2096 32.4286C67.0348 33.2565 68.0158 33.9125 69.0959 34.3588C70.176 34.8051 71.3338 35.0328 72.5024 35.0287C74.0928 35.0397 75.6579 34.6308 77.0399 33.8434C78.4008 33.0811 79.5258 31.9588 80.2918 30.5995C81.0766 29.2047 81.4797 27.6275 81.4605 26.0271C81.4816 24.4419 81.0781 22.88 80.2918 21.5036C79.5066 20.1491 78.3712 19.0313 77.0048 18.2678C75.6382 17.4704 74.0844 17.0508 72.5024 17.0518ZM72.4038 14.6227C73.9331 14.5826 75.4547 14.8541 76.8759 15.4206C78.297 15.9872 79.5882 16.837 80.6709 17.9185C81.7533 18.9689 82.6077 20.2314 83.1804 21.6271C83.7531 23.0227 84.0319 24.5216 83.9994 26.03C84.0284 27.5354 83.7492 29.0308 83.1789 30.4241C82.6086 31.8175 81.7593 33.0793 80.6833 34.132C79.6324 35.2108 78.3715 36.0625 76.9786 36.6345C75.5857 37.2065 74.0903 37.4867 72.5849 37.4578C71.0709 37.4908 69.566 37.2144 68.1624 36.6453C66.7589 36.0762 65.4862 35.2265 64.4223 34.1481C63.3481 33.1125 62.4983 31.8668 61.926 30.4886C61.3536 29.1103 61.0708 27.629 61.0952 26.1367C61.0812 24.1005 61.604 22.0967 62.6109 20.3271C63.5887 18.5906 65.0119 17.1466 66.7336 16.1439C68.4552 15.1411 70.4131 14.616 72.4053 14.6227" fill="white"/>
<path d="M22.8328 23.2882C21.8753 24.2534 21.3387 25.5587 21.3405 26.9186L21.3281 27.3834H23.5289L23.5603 26.9654C23.577 26.159 23.885 25.3859 24.4274 24.7892C24.6727 24.5427 24.9663 24.3495 25.2896 24.2218C25.613 24.094 25.9593 24.0344 26.3068 24.0467C26.6405 24.0375 26.9727 24.0957 27.2834 24.2179C27.5942 24.3401 27.8771 24.5237 28.1153 24.7577C28.3482 24.9691 28.5336 25.2273 28.6595 25.5155C28.7854 25.8037 28.8489 26.1153 28.8458 26.4297C28.8459 26.9648 28.7002 27.4899 28.4243 27.9483C27.8302 28.8314 27.1527 29.6554 26.401 30.4088L20.4297 36.8432H31.2474V34.6187H25.4858C26.3776 33.6592 28.211 31.6825 28.211 31.6825C29.0626 30.8175 29.8134 29.8587 30.4491 28.8245C30.8542 28.0871 31.0656 27.2588 31.0634 26.4173C31.0651 25.8064 30.9439 25.2015 30.707 24.6385C30.47 24.0755 30.1221 23.566 29.684 23.1404C29.246 22.7149 28.7268 22.3819 28.1573 22.1615C27.5879 21.941 26.9799 21.8376 26.3696 21.8573C25.7139 21.8438 25.0623 21.9636 24.4542 22.2094C23.8462 22.4552 23.2943 22.822 22.8321 23.2874" fill="white"/>
<path d="M0 7.75638L3.56233 7.76442V22.7503C3.52415 24.3633 3.57291 25.9773 3.70842 27.5851C3.83516 28.8572 4.26335 30.0808 4.95746 31.1541C5.73047 32.2088 6.77017 33.0387 7.96977 33.5584C9.24318 34.1847 10.6413 34.5159 12.0602 34.5274C13.2452 34.529 14.4161 34.2695 15.4896 33.7674C16.5534 33.2834 17.4918 32.5614 18.2324 31.6569C18.998 30.6972 19.5495 29.5847 19.8496 28.394C20.1677 26.5309 20.2901 24.6396 20.2148 22.751V7.98438L23.7771 7.97634V22.7708C23.8518 25.4109 23.5355 28.0476 22.8385 30.5951C22.1484 32.6724 20.8348 34.4863 19.0768 35.7894C17.1223 37.2873 14.7127 38.0678 12.2516 38C9.61697 38.0729 7.02222 37.3446 4.80991 35.9115C2.81519 34.6177 1.34378 32.658 0.657391 30.381C0.21913 28.9765 0 26.4397 0 22.7708V7.75638Z" fill="white"/>
<path d="M72.1522 8.39727C71.9516 8.415 71.7502 8.3728 71.5736 8.27603C71.3969 8.17926 71.2529 8.03225 71.1598 7.8536C71.0667 7.67496 71.0286 7.47269 71.0504 7.27239C71.0721 7.07208 71.1528 6.88274 71.2821 6.7283C71.4115 6.57386 71.5837 6.46126 71.777 6.40474C71.9703 6.34822 72.176 6.35032 72.3681 6.41077C72.5602 6.47123 72.7301 6.58732 72.8563 6.74437C72.9824 6.90142 73.0592 7.09237 73.0769 7.29308C73.0887 7.42635 73.0742 7.56064 73.0341 7.68828C72.994 7.81592 72.9292 7.9344 72.8433 8.03696C72.7574 8.13951 72.6522 8.22412 72.5336 8.28594C72.415 8.34777 72.2854 8.3856 72.1522 8.39727ZM67.6308 4.04627C67.5135 4.42548 67.2865 4.7614 66.9784 5.01156C66.6704 5.26172 66.2951 5.41489 65.9001 5.45172C65.505 5.48854 65.1079 5.40737 64.759 5.21845C64.41 5.02954 64.1249 4.74136 63.9396 4.39035C63.7543 4.03934 63.6772 3.64126 63.7181 3.24642C63.7589 2.85158 63.9158 2.47771 64.169 2.17208C64.4221 1.86644 64.7602 1.64275 65.1404 1.52929C65.5206 1.41582 65.9259 1.41768 66.305 1.53462C66.5571 1.61225 66.7913 1.73883 66.9944 1.90713C67.1975 2.07542 67.3654 2.28213 67.4885 2.51541C67.6116 2.7487 67.6876 3.00399 67.712 3.26667C67.7364 3.52935 67.7088 3.79427 67.6308 4.04627ZM58.9773 11.495C58.8305 11.9709 58.546 12.3925 58.1598 12.7067C57.7735 13.0209 57.3029 13.2134 56.8073 13.2601C56.3117 13.3067 55.8134 13.2053 55.3754 12.9687C54.9373 12.7321 54.5792 12.371 54.3463 11.9308C54.1134 11.4907 54.0161 10.9914 54.0667 10.4959C54.1174 10.0005 54.3137 9.53121 54.6308 9.14735C54.9479 8.76349 55.3717 8.48229 55.8485 8.33929C56.3253 8.19629 56.8338 8.1979 57.3097 8.34393C57.6264 8.44069 57.9209 8.59907 58.1762 8.80998C58.4316 9.02089 58.6428 9.28017 58.7977 9.57294C58.9527 9.86571 59.0483 10.1862 59.0791 10.5161C59.1099 10.8459 59.0753 11.1786 58.9773 11.495ZM71.8965 5.47347C71.4948 5.50859 71.115 5.67205 70.8133 5.9397L68.9799 4.55781L69.0128 4.47012C69.177 3.93822 69.2101 3.37447 69.1094 2.82697C69.0087 2.27947 68.7771 1.76446 68.4344 1.32589C68.0917 0.887307 67.6481 0.538173 67.1413 0.308267C66.6345 0.07836 66.0797 -0.0254962 65.5241 0.00555772C64.9685 0.0366116 64.4287 0.201654 63.9507 0.486606C63.4727 0.771557 63.0707 1.16796 62.7789 1.642C62.4872 2.11604 62.3144 2.65365 62.2752 3.20897C62.2361 3.76429 62.3319 4.32083 62.5543 4.83112L59.4214 7.49916C58.8795 7.02118 58.2264 6.68694 57.5218 6.52707C56.8173 6.3672 56.0839 6.38681 55.3889 6.58411C54.6939 6.78141 54.0595 7.15009 53.5439 7.65635C53.0283 8.1626 52.648 8.79024 52.4377 9.48174C52.2247 10.1737 52.1886 10.908 52.3327 11.6175C52.4768 12.327 52.7965 12.989 53.2625 13.5429C53.7285 14.0968 54.3259 14.525 55.0001 14.7881C55.6743 15.0512 56.4037 15.1409 57.1215 15.0491C57.8393 14.9572 58.5226 14.6866 59.1089 14.2622C59.6952 13.8377 60.1656 13.2729 60.4772 12.6194C60.7888 11.966 60.9316 11.2448 60.8925 10.5218C60.8534 9.79889 60.6337 9.0973 60.2534 8.48131L63.2832 5.90024C63.6304 6.24866 64.0483 6.51853 64.5086 6.69166C64.9689 6.86478 65.4609 6.93712 65.9515 6.90381C66.4422 6.8705 66.9199 6.7323 67.3526 6.49854C67.7853 6.26478 68.1629 5.94089 68.4598 5.54874L70.2275 6.88166C70.166 7.09836 70.1438 7.32431 70.1617 7.54885C70.1953 7.92575 70.3398 8.28423 70.5771 8.57895C70.8143 8.87367 71.1335 9.0914 71.4944 9.20459C71.8553 9.31779 72.2417 9.32137 72.6046 9.21489C72.9675 9.1084 73.2908 8.89663 73.5334 8.60636C73.776 8.31609 73.9272 7.96035 73.9677 7.58414C74.0083 7.20792 73.9364 6.82812 73.7612 6.49278C73.586 6.15744 73.3153 5.8816 72.9834 5.70017C72.6515 5.51873 72.2732 5.43984 71.8965 5.47347Z" fill="white"/>
<path d="M36.9683 22.6633V34.1116H40.6512C42.2693 34.194 43.8887 33.9773 45.4282 33.4721C46.4212 33.0611 47.2704 32.3652 47.8686 31.472C48.5273 30.5135 48.8484 29.363 48.7815 28.2017C48.7146 27.0405 48.2634 25.9345 47.499 25.0581C46.56 24.0237 45.3179 23.3131 43.9506 23.028C42.2012 22.726 40.4255 22.6036 38.6512 22.6626L36.9683 22.6633ZM36.9683 10.1818V19.7213H38.6739C40.2181 19.7961 41.7636 19.6018 43.2413 19.1469C44.1812 18.7886 44.989 18.1511 45.556 17.32C46.1196 16.5087 46.418 15.5426 46.4099 14.5547C46.4379 13.9454 46.3229 13.3379 46.0742 12.781C45.8254 12.2241 45.4499 11.7331 44.9775 11.3474C44.0231 10.5718 42.5038 10.1835 40.4196 10.1825L36.9683 10.1818ZM34.0312 7.24119H39.8901C41.7387 7.15644 43.5856 7.44217 45.3223 8.08157C46.5611 8.61951 47.6075 9.5211 48.3229 10.667C49.0558 11.8231 49.4379 13.1669 49.423 14.5357C49.4443 15.8249 49.1048 17.0943 48.4429 18.2006C47.781 19.3069 46.8231 20.206 45.6773 20.7962C46.956 21.1913 48.1503 21.8205 49.1995 22.6516C50.0188 23.36 50.6734 24.2389 51.1176 25.2269C51.5805 26.2551 51.8147 27.3716 51.8042 28.4993C51.8229 29.6388 51.5995 30.7694 51.1489 31.8161C50.6982 32.8629 50.0305 33.8019 49.19 34.5712C47.4486 36.2276 45.1112 37.0558 42.1778 37.0558H34.0312V7.24119Z" fill="white"/>
<path d="M57.9591 16.7397H55.0234V37.0515H57.9591V16.7397Z" fill="white"/>
<path d="M72.5024 17.0518C70.9401 17.0662 69.4084 17.4877 68.0584 18.2746C66.7084 19.0615 65.5867 20.1868 64.8036 21.5394C64.0133 22.9373 63.6077 24.5199 63.6284 26.1257C63.621 27.2948 63.8453 28.4538 64.2884 29.5357C64.7315 30.6175 65.3844 31.6008 66.2096 32.4286C67.0348 33.2565 68.0158 33.9125 69.0959 34.3588C70.176 34.8051 71.3338 35.0328 72.5024 35.0287C74.0928 35.0397 75.6579 34.6308 77.0399 33.8434C78.4008 33.0811 79.5258 31.9588 80.2918 30.5995C81.0766 29.2047 81.4797 27.6275 81.4605 26.0271C81.4816 24.4419 81.0781 22.88 80.2918 21.5036C79.5066 20.1491 78.3712 19.0313 77.0048 18.2678C75.6382 17.4704 74.0844 17.0508 72.5024 17.0518ZM72.4038 14.6227C73.9331 14.5826 75.4547 14.8541 76.8759 15.4206C78.297 15.9872 79.5882 16.837 80.6709 17.9185C81.7533 18.9689 82.6077 20.2314 83.1804 21.6271C83.7531 23.0227 84.0319 24.5216 83.9994 26.03C84.0284 27.5354 83.7492 29.0308 83.1789 30.4241C82.6086 31.8175 81.7593 33.0793 80.6833 34.132C79.6324 35.2108 78.3715 36.0625 76.9786 36.6345C75.5857 37.2065 74.0903 37.4867 72.5849 37.4578C71.0709 37.4908 69.566 37.2144 68.1624 36.6453C66.7589 36.0762 65.4862 35.2265 64.4223 34.1481C63.3481 33.1125 62.4983 31.8668 61.926 30.4886C61.3536 29.1103 61.0708 27.629 61.0952 26.1367C61.0812 24.1005 61.604 22.0967 62.6109 20.3271C63.5887 18.5906 65.0119 17.1466 66.7336 16.1439C68.4552 15.1411 70.4131 14.616 72.4053 14.6227" fill="white"/>
</g>
</g>
<defs>
<clipPath id="clip0_1637_8468">
<rect width="84" height="38" fill="white"/>
</clipPath>
</defs>
</svg>
