<svg width="48" height="48" viewBox="0 0 48 48" fill="none" xmlns="http://www.w3.org/2000/svg">
<g clip-path="url(#clip0_1637_6421)">
<path d="M24.4971 35.6921C23.8294 35.6921 23.1766 35.8902 22.6214 36.2611C22.0662 36.6321 21.6335 37.1594 21.378 37.7764C21.1225 38.3933 21.0557 39.0721 21.186 39.727C21.3163 40.3819 21.6379 40.9835 22.1101 41.4556C22.5824 41.9277 23.184 42.2492 23.8389 42.3794C24.4938 42.5096 25.1727 42.4426 25.7895 42.187C26.4064 41.9314 26.9336 41.4986 27.3045 40.9433C27.6754 40.388 27.8733 39.7352 27.8731 39.0675C27.8721 38.1725 27.5161 37.3145 26.8831 36.6817C26.2502 36.0489 25.3921 35.693 24.4971 35.6921Z" fill="white"/>
<path d="M36.3164 29.9929V42.4019C37.9305 42.3548 39.4627 41.6804 40.5877 40.5221C41.7127 39.3637 42.3421 37.8125 42.3421 36.1977C42.3421 34.5829 41.7127 33.0317 40.5877 31.8734C39.4627 30.715 37.9305 30.04 36.3164 29.9929Z" fill="white"/>
<path d="M0 0V48H36.9281C39.8646 47.9998 42.6808 46.8332 44.7572 44.7567C46.8335 42.6802 48 39.864 48 36.9275V0H0ZM13.3369 42.4085V43.9472H8.99855V33.8488H8.40834L7.90538 32.3095H8.99789V28.4477H13.3356V29.9864H10.5379V32.3095H13.1446L13.6475 33.8488H10.5412V42.4085H13.3369ZM19.0949 35.7107L18.8623 35.6975C18.8213 35.6975 18.7803 35.6922 18.7387 35.6922C18.2914 35.6859 17.8473 35.7686 17.4323 35.9354C17.0172 36.1023 16.6395 36.3499 16.321 36.664C16.0025 36.9781 15.7496 37.3523 15.5769 37.765C15.4043 38.1777 15.3154 38.6205 15.3154 39.0679C15.3154 39.5152 15.4043 39.958 15.5769 40.3707C15.7496 40.7834 16.0025 41.1576 16.321 41.4717C16.6395 41.7858 17.0172 42.0335 17.4323 42.2003C17.8473 42.3671 18.2914 42.4498 18.7387 42.4436C18.7783 42.4436 18.8167 42.4436 18.8563 42.4383L19.0949 42.4251V43.9683L18.9336 43.9736L18.8603 43.9776C18.82 43.9776 18.7803 43.9829 18.7393 43.9829C17.4357 43.9829 16.1855 43.465 15.2637 42.5432C14.3419 41.6214 13.824 40.3712 13.824 39.0675C13.824 37.7639 14.3419 36.5137 15.2637 35.5919C16.1855 34.6701 17.4357 34.1522 18.7393 34.1522C18.7803 34.1522 18.8206 34.1522 18.8603 34.1575L18.9336 34.1615L19.0949 34.1667V35.7107ZM24.4967 43.9829C23.5245 43.983 22.5741 43.6948 21.7657 43.1548C20.9573 42.6148 20.3272 41.8472 19.955 40.949C19.5829 40.0509 19.4855 39.0625 19.6751 38.109C19.8646 37.1555 20.3327 36.2796 21.0201 35.5921C21.7075 34.9046 22.5834 34.4364 23.5368 34.2467C24.4903 34.057 25.4787 34.1543 26.3769 34.5263C27.2751 34.8983 28.0428 35.5283 28.5829 36.3367C29.1231 37.145 29.4114 38.0954 29.4114 39.0675C29.41 40.3707 28.8916 41.6202 27.9701 42.5417C27.0486 43.4632 25.7999 43.9815 24.4967 43.9829ZM32.4827 43.9472H30.9427V28.4477H32.4827V43.9472ZM36.3161 43.9426H36.1489H34.7768V28.4477L36.3161 28.4517C38.3376 28.5011 40.2597 29.3389 41.672 30.7861C43.0843 32.2333 43.8749 34.1753 43.8749 36.1975C43.8749 38.2196 43.0843 40.1616 41.672 41.6088C40.2597 43.056 38.3376 43.8931 36.3161 43.9426Z" fill="white"/>
</g>
<defs>
<clipPath id="clip0_1637_6421">
<rect width="48" height="48" fill="white"/>
</clipPath>
</defs>
</svg>
