<svg width="144" height="38" viewBox="0 0 144 38" fill="none" xmlns="http://www.w3.org/2000/svg">
<g clip-path="url(#clip0_1637_6522)">
<mask id="mask0_1637_6522" style="mask-type:luminance" maskUnits="userSpaceOnUse" x="0" y="0" width="144" height="38">
<path d="M144 0H0V38H144V0Z" fill="white"/>
</mask>
<g mask="url(#mask0_1637_6522)">
<path d="M3.49248 32.5117C3.31157 32.3651 3.09565 32.2535 2.85637 32.183C2.6171 32.1126 2.36033 32.0774 2.09771 32.0774H0.451996C0.346951 32.0774 0.27692 32.1009 0.236069 32.142C0.195218 32.183 0.171875 32.2594 0.171875 32.3592V37.8884H1.1523V35.5875H2.16775C2.41868 35.5875 2.65795 35.5522 2.89139 35.4818C3.12482 35.4113 3.32908 35.3057 3.50415 35.159C3.67923 35.0122 3.82513 34.8303 3.92434 34.6072C4.02938 34.3901 4.0819 34.1318 4.0819 33.8383C4.0819 33.5449 4.02938 33.2924 3.92434 33.0694C3.81929 32.8463 3.6734 32.6585 3.49248 32.5117ZM3.08397 33.8383C3.08397 34.167 2.99644 34.3901 2.82135 34.5192C2.64044 34.6483 2.372 34.7188 2.02184 34.7188H1.14646V32.9462H2.02184C2.372 32.9462 2.64044 33.0166 2.82135 33.1516C2.99644 33.2807 3.08397 33.5155 3.08397 33.8383Z" fill="white"/>
<path d="M13.7232 32.8214C13.4665 32.5749 13.1572 32.3871 12.7895 32.2579C12.4277 32.1347 12.0133 32.0701 11.5523 32.0701H10.2567C10.1517 32.0701 10.0875 32.0935 10.0408 32.1347C9.99409 32.1757 9.97656 32.2462 9.97656 32.3518V37.5993C9.97656 37.7049 9.99996 37.7695 10.0408 37.8164C10.0816 37.8635 10.1517 37.881 10.2567 37.881H11.5523C12.0133 37.881 12.4277 37.8164 12.7895 37.6932C13.1572 37.564 13.4723 37.3821 13.7232 37.1356C13.98 36.889 14.1726 36.5838 14.3068 36.2257C14.441 35.8677 14.5053 35.4451 14.5053 34.9755C14.5053 34.506 14.4353 34.0951 14.3068 33.7311C14.1726 33.3732 13.98 33.0621 13.7232 32.8155V32.8214ZM13.4957 34.9873C13.4957 35.6329 13.3555 36.1378 13.0755 36.4957C12.8011 36.8421 12.3635 37.0181 11.7566 37.0181H10.9687V32.9446H11.3889C11.7215 32.933 12.025 32.9623 12.2876 33.0386C12.5502 33.109 12.7662 33.2264 12.9413 33.3908C13.1163 33.5492 13.2564 33.7605 13.3498 34.0247C13.4431 34.2888 13.4957 34.6175 13.4957 34.9931V34.9873Z" fill="white"/>
<path d="M21.6992 32.0515H20.7188V37.88H21.6992V32.0515Z" fill="white"/>
<path d="M32.4542 35.6864C32.5185 35.3577 32.5476 34.9819 32.5359 34.577V34.5007H31.6313V34.577C31.6313 34.8822 31.608 35.1522 31.5672 35.3693C31.538 35.5161 31.5088 35.6335 31.4854 35.7215L30.4117 34.5418C30.4992 34.4713 30.5868 34.395 30.6743 34.3187C30.7851 34.2189 30.896 34.1016 30.9894 33.9724C31.0886 33.8492 31.1645 33.7024 31.2287 33.5498C31.2928 33.3914 31.322 33.2211 31.322 33.0391C31.322 32.8806 31.2871 32.7281 31.2287 32.5872C31.1645 32.4463 31.0712 32.3231 30.9427 32.2173C30.8202 32.1117 30.6684 32.0295 30.4875 31.9708C30.3124 31.9122 30.1082 31.877 29.8806 31.877C29.6705 31.877 29.478 31.9122 29.3087 31.9826C29.1395 32.053 28.9994 32.1411 28.8826 32.2585C28.7659 32.37 28.6784 32.505 28.6143 32.6635C28.5559 32.8161 28.5267 32.9805 28.5267 33.1565C28.5267 33.3033 28.5441 33.4383 28.5851 33.5615C28.62 33.6848 28.6667 33.7963 28.7251 33.902C28.7835 34.0076 28.8477 34.1074 28.9235 34.2013C28.9818 34.2717 29.0402 34.3422 29.0928 34.4126C28.9352 34.5359 28.7893 34.6591 28.6551 34.7765C28.5033 34.9174 28.3633 35.07 28.2524 35.2227C28.1356 35.3752 28.0481 35.5396 27.9781 35.7098C27.9139 35.8801 27.8789 36.062 27.8789 36.2557C27.8789 36.555 27.9373 36.8133 28.0481 37.0305C28.159 37.2477 28.3166 37.4296 28.5092 37.5646C28.7251 37.729 28.9527 37.8405 29.1861 37.8874C29.4137 37.9344 29.6822 37.9579 29.974 37.9579C30.3591 37.9579 30.7035 37.8816 30.9953 37.7348C31.2579 37.6057 31.4738 37.4531 31.6372 37.277L32.1333 37.8405H33.3938L32.1741 36.4904C32.2908 36.2557 32.3842 35.9798 32.4426 35.6746L32.4542 35.6864ZM28.9644 35.8917C29.0052 35.7861 29.0577 35.6864 29.1277 35.5983C29.2036 35.5043 29.2911 35.4105 29.3962 35.3224C29.4896 35.2461 29.5888 35.164 29.6939 35.0818L31.0302 36.5903C30.9077 36.737 30.756 36.8544 30.5868 36.9424C30.3942 37.0422 30.1665 37.0891 29.9098 37.0891C29.7814 37.0891 29.6588 37.0716 29.5363 37.0363C29.4195 37.0012 29.3087 36.9483 29.2153 36.8837C29.1219 36.8133 29.0461 36.7312 28.9936 36.6196C28.9352 36.5139 28.9118 36.3848 28.9118 36.2439C28.9118 36.1148 28.9293 35.9974 28.9702 35.8917H28.9644ZM29.9039 33.8492C29.9039 33.8492 29.8573 33.8844 29.8339 33.902C29.8339 33.902 29.8281 33.8961 29.8222 33.8902C29.8047 33.8667 29.7814 33.8433 29.7698 33.8315C29.7522 33.8139 29.7406 33.7904 29.7172 33.767C29.7114 33.7611 29.6997 33.7435 29.6822 33.7142C29.6063 33.6143 29.548 33.5205 29.5188 33.4324C29.4896 33.3384 29.4721 33.2387 29.4721 33.1213C29.4721 32.9805 29.5071 32.8689 29.5829 32.7926C29.6588 32.7163 29.758 32.681 29.8923 32.681C30.0732 32.681 30.2074 32.7163 30.2658 32.7809C30.3299 32.8454 30.365 32.9452 30.365 33.0684C30.365 33.227 30.3358 33.3561 30.2716 33.4559C30.2074 33.5615 30.1199 33.6613 30.0148 33.7552C29.9798 33.7846 29.9448 33.8139 29.9039 33.8433V33.8492Z" fill="white"/>
<path d="M39.7441 32.0774H38.7461V37.6066C38.7461 37.7122 38.7695 37.7768 38.8103 37.8238C38.8512 37.8708 38.9212 37.8884 39.0262 37.8884H42.3177V37.0197H39.7441V32.0774Z" fill="white"/>
<path d="M52.0836 32.8172C51.8677 32.5472 51.5935 32.3359 51.2725 32.1891C50.9515 32.0424 50.5839 31.9661 50.187 31.9661C49.7902 31.9661 49.4167 32.0424 49.0957 32.1891C48.7805 32.3359 48.5122 32.5531 48.2962 32.8172C48.0802 33.0814 47.9168 33.4042 47.8119 33.7739C47.7009 34.1379 47.6484 34.5428 47.6484 34.9831C47.6484 35.4233 47.7009 35.8342 47.8119 36.1981C47.9227 36.5679 48.0861 36.8908 48.2962 37.149C48.5122 37.4131 48.7805 37.6245 49.0957 37.7711C49.4108 37.9179 49.7785 37.9942 50.187 37.9942C50.5955 37.9942 50.9515 37.9179 51.2725 37.7711C51.5935 37.6245 51.862 37.4131 52.0836 37.1549C52.2996 36.8908 52.4688 36.5679 52.5856 36.204C52.6964 35.8401 52.7548 35.4292 52.7548 34.9831C52.7548 34.537 52.6964 34.1379 52.5856 33.7739C52.4688 33.4042 52.2996 33.0814 52.0836 32.8231V32.8172ZM50.1929 37.1255C49.9185 37.1255 49.6851 37.0668 49.4984 36.9553C49.3058 36.8379 49.1482 36.6853 49.0315 36.4916C48.9089 36.2979 48.8156 36.069 48.763 35.8107C48.7047 35.5524 48.6756 35.2707 48.6756 34.989C48.6756 34.7072 48.7047 34.4313 48.763 34.1731C48.8214 33.9148 48.9148 33.6859 49.0315 33.4863C49.1541 33.2926 49.3116 33.1342 49.4984 33.0168C49.6851 32.8993 49.9185 32.8465 50.1929 32.8465C50.4671 32.8465 50.6889 32.9052 50.8815 33.0168C51.074 33.1342 51.2317 33.2926 51.3542 33.4863C51.4825 33.6801 51.5701 33.9148 51.6285 34.1731C51.6869 34.4313 51.7161 34.7072 51.7161 34.989C51.7161 35.4292 51.6518 35.8283 51.5176 36.1805C51.3892 36.5209 51.1733 36.785 50.8756 36.9612C50.6889 37.0727 50.4555 37.1314 50.187 37.1314L50.1929 37.1255Z" fill="white"/>
<path d="M60.0004 33.4564C60.1171 33.2685 60.263 33.116 60.4439 33.0044C60.619 32.8929 60.8466 32.8401 61.1034 32.8401C61.2318 32.8401 61.3544 32.8577 61.4769 32.887C61.5994 32.9164 61.7045 32.9692 61.8037 33.0456C61.8971 33.116 61.9846 33.2099 62.0488 33.3331C62.113 33.4506 62.1597 33.6031 62.183 33.7793L62.1947 33.8497H63.1868V33.7675C63.1693 33.4681 63.0992 33.204 62.9767 32.9751C62.8541 32.752 62.6966 32.5642 62.504 32.4116C62.3114 32.2649 62.0955 32.1533 61.8562 32.0829C61.617 32.0124 61.366 31.9773 61.1151 31.9773C60.7357 31.9773 60.3856 32.0536 60.0763 32.2062C59.7728 32.3588 59.5102 32.5701 59.2943 32.8401C59.0842 33.1101 58.9208 33.4271 58.8099 33.7968C58.699 34.1608 58.6406 34.5658 58.6406 34.9942C58.6406 35.4403 58.699 35.8571 58.8099 36.2268C58.9208 36.5967 59.0901 36.9195 59.306 37.1778C59.5277 37.4419 59.802 37.6532 60.123 37.7941C60.4439 37.9349 60.8174 38.0112 61.2318 38.0112C61.5819 38.0112 61.9088 37.9584 62.2005 37.8469C62.4923 37.7353 62.7608 37.5945 63 37.4243C63.1168 37.3421 63.1751 37.2306 63.1751 37.0779V35.0236C63.1751 34.9179 63.1518 34.8475 63.111 34.8064C63.0701 34.7595 63 34.7419 62.895 34.7419H60.9925V35.6047H62.1947V36.8784L62.1889 36.8842C62.1014 36.9371 61.9788 36.9958 61.8329 37.0545C61.687 37.1132 61.5178 37.1367 61.3193 37.1367C61.0216 37.1367 60.7649 37.0838 60.5548 36.9723C60.3448 36.8667 60.1755 36.7141 60.0471 36.5262C59.9187 36.3384 59.8195 36.1095 59.7553 35.8453C59.6911 35.5812 59.662 35.2936 59.662 34.9942C59.662 34.6949 59.6853 34.4132 59.7436 34.149C59.7961 33.8908 59.8837 33.6618 60.0004 33.4681V33.4564Z" fill="white"/>
<path d="M70.5547 32.0515H69.5742V37.88H70.5547V32.0515Z" fill="white"/>
<path d="M80.2161 35.1301C80.0702 35.0128 79.901 34.9129 79.7142 34.8308C79.5217 34.7486 79.3348 34.6782 79.1481 34.6078L78.5821 34.4082C78.4245 34.3495 78.2786 34.2849 78.1677 34.2086C78.0568 34.1382 77.9693 34.0502 77.9109 33.9504C77.8526 33.8506 77.8234 33.7215 77.8234 33.563C77.8234 33.3399 77.9051 33.1697 78.0744 33.0465C78.2436 32.9115 78.4711 32.8469 78.7396 32.8469C78.8504 32.8469 78.9614 32.8586 79.0606 32.8821C79.1598 32.9056 79.2473 32.9466 79.3291 32.9995C79.4049 33.0523 79.4691 33.1345 79.5158 33.2284C79.5683 33.3282 79.5975 33.4515 79.6033 33.6099V33.6862H80.6246V33.604C80.6187 33.2637 80.5487 32.976 80.4087 32.7588C80.2744 32.5417 80.0935 32.3655 79.8776 32.2541C79.7025 32.1601 79.5217 32.0838 79.3348 32.0427C78.9906 31.9605 78.4886 31.9371 78.0218 32.0838C77.7942 32.1542 77.59 32.2658 77.409 32.4067C77.2281 32.5534 77.0822 32.7295 76.9713 32.935C76.8605 33.1462 76.8021 33.3869 76.8021 33.6511C76.8021 33.9152 76.8488 34.1382 76.9422 34.3201C77.0356 34.5021 77.1523 34.6547 77.304 34.7838C77.4499 34.9072 77.6192 35.0128 77.8 35.095C77.981 35.1771 78.1677 35.2475 78.3486 35.3062C78.5878 35.3943 78.798 35.4765 78.973 35.541C79.1481 35.6056 79.2882 35.6761 79.3991 35.7465C79.5041 35.8111 79.58 35.8932 79.6266 35.9754C79.6733 36.0634 79.6967 36.1749 79.6967 36.3099C79.6967 36.4449 79.6676 36.5741 79.615 36.668C79.5625 36.7678 79.4807 36.8558 79.3874 36.9263C79.294 36.9967 79.1832 37.0437 79.0664 37.0789C78.8038 37.1493 78.512 37.1376 78.2844 37.0906C78.1677 37.0672 78.0626 37.0201 77.9751 36.9497C77.8875 36.8794 77.8234 36.7795 77.7708 36.6563C77.7183 36.533 77.695 36.3627 77.7008 36.1515V36.0693H76.6562V36.1515C76.6562 36.7444 76.843 37.2081 77.1931 37.525C77.5433 37.8419 78.0218 38.0062 78.6229 38.0062C78.9206 38.0062 79.1832 37.9828 79.4107 37.9358C79.6384 37.8889 79.8718 37.7774 80.0877 37.613C80.2861 37.478 80.4437 37.2902 80.5546 37.0554C80.6596 36.8265 80.718 36.5564 80.718 36.263C80.718 35.993 80.6713 35.7699 80.5779 35.5939C80.4846 35.4178 80.362 35.2652 80.2161 35.1419V35.1301Z" fill="white"/>
<path d="M86.0625 32.9462H87.7198V37.8884H88.7003V32.9462H90.3459V32.0774H86.0625V32.9462Z" fill="white"/>
<path d="M97.1554 32.0515H96.1758V37.88H97.1554V32.0515Z" fill="white"/>
<path d="M106.859 36.2106C106.783 36.5628 106.655 36.8034 106.48 36.9325C106.299 37.0617 106.072 37.1262 105.803 37.1262C105.535 37.1262 105.295 37.0675 105.12 36.9502C104.939 36.8328 104.793 36.6743 104.676 36.4747C104.56 36.2751 104.478 36.0404 104.432 35.7879C104.384 35.5297 104.362 35.2597 104.362 34.9897C104.362 34.7197 104.384 34.4556 104.432 34.1915C104.478 33.9391 104.56 33.7042 104.676 33.5047C104.787 33.3051 104.939 33.1467 105.12 33.0292C105.301 32.9118 105.535 32.8531 105.803 32.8531C106.072 32.8531 106.305 32.9236 106.491 33.0527C106.672 33.1818 106.789 33.399 106.83 33.7042L106.842 33.7688H107.869L107.857 33.6808C107.828 33.3814 107.746 33.1173 107.618 32.9001C107.489 32.683 107.332 32.5009 107.145 32.3601C106.958 32.2193 106.742 32.1194 106.503 32.0549C106.27 31.9903 106.03 31.9551 105.786 31.9551C105.354 31.9551 104.98 32.0431 104.671 32.2193C104.362 32.3894 104.105 32.6184 103.906 32.9059C103.708 33.1877 103.562 33.5105 103.468 33.8745C103.375 34.2325 103.328 34.6081 103.328 34.9897C103.328 35.3712 103.375 35.7586 103.468 36.1166C103.562 36.4747 103.708 36.8034 103.906 37.0793C104.105 37.3611 104.362 37.5841 104.671 37.7543C104.98 37.9186 105.354 38.0067 105.78 38.0067C106.037 38.0067 106.287 37.9656 106.526 37.8951C106.766 37.8189 106.982 37.7073 107.169 37.5606C107.355 37.4139 107.518 37.2261 107.641 37.003C107.769 36.7799 107.845 36.5275 107.88 36.2341V36.146H106.87L106.859 36.2106Z" fill="white"/>
<path d="M117.464 35.5821C117.377 35.406 117.254 35.2534 117.102 35.1301C116.956 35.0128 116.788 34.9129 116.6 34.8308C116.413 34.7545 116.221 34.6782 116.035 34.6078L115.468 34.4082C115.305 34.3495 115.165 34.2849 115.048 34.2086C114.937 34.1382 114.849 34.0502 114.792 33.9504C114.733 33.8565 114.704 33.7273 114.704 33.563C114.704 33.3399 114.786 33.1697 114.955 33.0465C115.13 32.9115 115.351 32.8469 115.621 32.8469C115.737 32.8469 115.842 32.8586 115.947 32.8821C116.046 32.9056 116.134 32.9466 116.21 32.9995C116.286 33.0523 116.35 33.1345 116.396 33.2284C116.449 33.3282 116.478 33.4574 116.484 33.6099V33.6862H117.505V33.604C117.499 33.2637 117.429 32.976 117.289 32.7588C117.155 32.5358 116.974 32.3655 116.758 32.2541C116.583 32.1601 116.396 32.0838 116.221 32.0427C115.871 31.9605 115.369 31.9371 114.908 32.0838C114.686 32.1542 114.476 32.2658 114.295 32.4067C114.114 32.5534 113.963 32.7295 113.852 32.935C113.741 33.1462 113.682 33.3869 113.682 33.6511C113.682 33.9152 113.73 34.1382 113.822 34.3201C113.916 34.5021 114.033 34.6547 114.184 34.7838C114.33 34.9072 114.5 35.0128 114.681 35.095C114.862 35.1771 115.043 35.2475 115.229 35.3062C115.468 35.3943 115.684 35.4765 115.854 35.541C116.023 35.6056 116.169 35.6761 116.28 35.7465C116.385 35.8111 116.461 35.8874 116.507 35.9754C116.554 36.0634 116.577 36.1749 116.577 36.3099C116.577 36.4449 116.548 36.5741 116.496 36.668C116.437 36.7678 116.361 36.8558 116.268 36.9263C116.175 36.9967 116.064 37.0437 115.947 37.0789C115.678 37.1493 115.387 37.1376 115.165 37.0906C115.043 37.0672 114.943 37.0201 114.856 36.9497C114.768 36.8794 114.704 36.7795 114.651 36.6563C114.599 36.5271 114.576 36.3569 114.581 36.1515V36.0693H113.543V36.1515C113.543 36.7444 113.73 37.2081 114.079 37.525C114.424 37.8419 114.908 38.0062 115.51 38.0062C115.807 38.0062 116.07 37.9828 116.297 37.9358C116.524 37.8889 116.758 37.7774 116.974 37.613C117.172 37.478 117.33 37.2902 117.441 37.0554C117.552 36.8265 117.604 36.5564 117.604 36.263C117.604 35.9989 117.558 35.7699 117.464 35.5939V35.5821Z" fill="white"/>
<path d="M9.58254 0.523438H0V27.3888H5.49155V17.9269H9.58832C12.6988 17.9269 14.9106 17.1228 16.2353 15.5145C17.5543 13.9062 18.2196 11.8343 18.2196 9.29267C18.2196 6.75111 17.5601 4.58523 16.2353 2.95933C14.9106 1.33932 12.6988 0.529308 9.58832 0.529308L9.58254 0.523438ZM11.7184 14.2173C11.0531 15.3736 10.0319 15.9488 8.66626 15.9488H5.48572V2.5426H8.66626C10.0319 2.5426 11.0473 3.12955 11.7184 4.29762C12.3896 5.46567 12.7222 7.13264 12.7222 9.29267C12.7222 11.4527 12.3896 13.0669 11.7184 14.2231V14.2173Z" fill="white"/>
<path d="M26.3353 0.523438H20.8438V27.3888H36.1804V24.6711H26.3353V0.523438Z" fill="white"/>
<path d="M49.3698 11.8728L47.0587 11.2623C45.6932 10.9102 44.6485 10.5521 43.9249 10.1882C43.1954 9.82433 42.676 9.37235 42.3551 8.82647C42.0341 8.28646 41.8765 7.57624 41.8765 6.70166C41.8765 5.29883 42.3026 4.2012 43.1604 3.41467C44.0183 2.62814 45.2146 2.22901 46.7553 2.22901C48.296 2.22901 49.4106 2.79836 50.286 3.93707C51.068 4.95838 51.5407 6.37296 51.7391 8.1456H56.2561C55.8768 5.36926 54.9196 3.32076 53.379 1.98835C51.8383 0.661813 49.644 -0.00732422 46.802 -0.00732422C43.7207 -0.00732422 41.3979 0.661813 39.8281 2.00596C38.2583 3.3501 37.4763 5.35165 37.4763 8.01059C37.4763 10.3467 38.0073 12.1369 39.0695 13.3813C40.1257 14.6256 41.9232 15.5354 44.4502 16.1225L46.4986 16.6507C47.9808 17.0029 49.0955 17.3609 49.8541 17.7248C50.6069 18.0888 51.1439 18.5349 51.4649 19.0631C51.7858 19.5855 51.9434 20.2898 51.9434 21.1645C51.9434 22.626 51.494 23.7412 50.5895 24.516C49.6907 25.2908 48.3952 25.6782 46.7145 25.6782C45.1446 25.6782 43.8958 25.1147 42.9678 23.9936C42.1392 22.9899 41.6139 21.5695 41.363 19.7616H36.9102C37.2311 22.5379 38.1882 24.5865 39.7873 25.9189C41.3863 27.2512 43.6915 27.9145 46.7145 27.9145C49.7374 27.9145 52.2527 27.2278 53.9275 25.8543C55.5966 24.4807 56.4312 22.5085 56.4312 19.9377C56.4312 17.6603 55.8943 15.9053 54.8204 14.6785C53.7467 13.4517 51.9317 12.5184 49.3756 11.8728H49.3698Z" fill="white"/>
<path d="M80.9139 23.7941C80.2136 24.9915 79.023 25.5902 77.3423 25.5902C75.8892 25.5902 74.7629 25.1852 73.9634 24.3869C73.1638 23.5827 72.6037 22.3501 72.2885 20.6831C71.9675 19.0162 71.81 16.7857 71.81 13.98C71.81 11.1743 71.9675 8.89104 72.2885 7.20646C72.6094 5.52774 73.1638 4.28338 73.9634 3.47924C74.7629 2.6751 75.8892 2.27596 77.3423 2.27596C78.7955 2.27596 79.9218 2.78662 80.6337 3.80794C81.2524 4.70012 81.655 5.95623 81.871 7.52928H86.3646C86.0728 5.04643 85.2674 3.16815 83.9486 1.90031C82.6297 0.626596 80.4295 -0.00732422 77.3482 -0.00732422C74.5295 -0.00732422 72.3177 0.515074 70.7012 1.57161C69.0904 2.62227 67.9582 4.16598 67.3047 6.19688C66.6511 8.22777 66.3242 10.8221 66.3242 13.9741C66.3242 17.1261 66.6511 19.7147 67.3047 21.7279C67.9582 23.7471 69.0904 25.279 70.7012 26.3297C72.3119 27.3804 74.5295 27.9086 77.3482 27.9086C79.6125 27.9086 81.3924 27.5389 82.688 26.7934C83.9778 26.048 84.8997 25.0208 85.4542 23.706C86.0086 22.3912 86.3529 20.7243 86.4988 18.7109H82.0461C81.9702 20.9296 81.6025 22.6319 80.9255 23.7941H80.9139Z" fill="white"/>
<path d="M106.316 8.85294C104.892 6.83965 102.394 5.83008 98.822 5.83008C95.2504 5.83008 92.7004 6.84552 91.2647 8.87641C89.8291 10.9073 89.1055 13.5721 89.1055 16.8709C89.1055 24.2314 92.3443 27.9117 98.822 27.9117C102.394 27.9117 104.892 26.8962 106.316 24.8653C107.74 22.8344 108.451 20.1695 108.451 16.8709C108.451 13.5721 107.74 10.8662 106.316 8.85294ZM102.072 22.8872C101.448 24.4133 100.357 25.1764 98.7992 25.1764C95.9685 25.1764 94.5561 22.4059 94.5561 16.865C94.5561 14.3821 94.8714 12.3747 95.5014 10.8486C96.1314 9.32251 97.2294 8.55359 98.8049 8.55359C100.38 8.55359 101.454 9.31077 102.079 10.831C102.698 12.3453 103.012 14.3587 103.012 16.865C103.012 19.3714 102.703 21.3552 102.079 22.8813L102.072 22.8872Z" fill="white"/>
<path d="M116.945 9.33878V6.35701H111.5V27.3879H116.945V15.2084C116.945 13.5121 117.418 12.2442 118.364 11.3931C119.309 10.5479 120.896 10.1194 123.131 10.1194V6.17505C121.59 6.17505 120.242 6.55658 119.081 7.31376C118.246 7.85964 117.54 8.53464 116.945 9.33291V9.33878Z" fill="white"/>
<path d="M142.081 8.87641C140.803 6.84552 138.569 5.83008 135.37 5.83008C133.889 5.83008 132.377 6.2703 130.836 7.13314V6.35247H125.391V37.7785H130.836V27.2601C132.231 27.7003 133.713 27.9175 135.283 27.9175C138.533 27.9175 140.803 26.9021 142.081 24.8712C143.359 22.8403 144.002 20.1754 144.002 16.8768C144.002 13.578 143.359 10.9073 142.081 8.88229V8.87641ZM137.442 22.8931C136.701 24.4192 135.4 25.1822 133.544 25.1822C132.47 25.1822 131.571 24.9005 130.842 24.337V9.35186C131.554 8.82946 132.447 8.55946 133.544 8.55946C135.4 8.55946 136.701 9.31663 137.442 10.8368C138.183 12.3512 138.551 14.3645 138.551 16.8709C138.551 19.3596 138.183 21.367 137.442 22.8931Z" fill="white"/>
</g>
</g>
<defs>
<clipPath id="clip0_1637_6522">
<rect width="144" height="38" fill="white"/>
</clipPath>
</defs>
</svg>
