<svg width="218" height="42" viewBox="0 0 218 42" fill="none" xmlns="http://www.w3.org/2000/svg">
<g clip-path="url(#clip0_1637_7330)">
<path d="M32.5021 20.034C28.8393 17.556 24.1661 18.564 21.7242 22.302C19.6612 25.41 16.5879 25.788 15.3669 25.788C11.4515 25.788 8.79917 23.058 7.99922 20.202C7.99922 20.16 7.99922 20.16 7.95715 20.118C7.95715 20.076 7.95715 20.076 7.91501 20.034C7.62032 18.858 7.53611 18.27 7.53611 17.01C7.53611 10.206 14.5249 2.646 24.5871 2.646C34.9019 2.646 40.7961 10.458 42.3117 14.826C42.2696 14.742 42.2696 14.658 42.2275 14.574C39.2804 6.132 31.197 0 21.6821 0C9.7254 0 0 9.702 0 21.63C0 32.34 7.7045 41.454 18.4404 41.454C26.9869 41.454 32.7126 36.666 35.365 30.072C36.7964 26.502 35.786 22.26 32.5021 20.034Z" fill="white"/>
<path d="M42.437 15.2883C41.174 11.0463 35.2378 2.68835 24.5861 2.68835C14.5239 2.68835 7.53516 10.2483 7.53516 17.0523C7.53516 18.3123 7.61936 18.9003 7.91403 20.0763C7.78775 19.5723 7.70353 19.0263 7.70353 18.5223C7.70353 11.4663 14.8187 6.55235 22.1022 6.55235C31.9959 6.51035 39.9951 14.5323 39.9951 24.3603C39.9951 32.0883 35.5324 38.7663 29.0489 42.0003C37.3849 38.9763 43.3633 30.9963 43.3633 21.6303C43.3633 19.4043 43.0686 17.4723 42.437 15.2883Z" fill="#8A949E"/>
<path d="M63.952 28.2663H61.468V14.4483H53.8477V12.2223H63.952V28.2663ZM68.9199 11.0043H71.4038V30.8283H68.9199V11.0043Z" fill="white"/>
<path d="M74.7695 26.4182V24.2342H93.0418V26.4182H85.1264V30.8702H82.6428V26.4182H74.7695ZM91.7781 12.8942V14.9942H87.8633C88.6206 15.8762 89 16.8842 89 17.9342C89 18.5642 88.8737 19.1942 88.5785 19.7402C88.284 20.3282 87.9474 20.8322 87.4839 21.2522C87.0211 21.6722 86.4735 22.0082 85.8845 22.2602C85.2527 22.5122 84.6208 22.6382 83.9056 22.6382C83.1897 22.6382 82.5579 22.5122 81.9268 22.2602C81.295 22.0082 80.7902 21.6722 80.3266 21.2522C79.8638 20.8322 79.4852 20.3282 79.232 19.7402C78.9375 19.1522 78.8113 18.5642 78.8113 17.9342C78.8113 16.8422 79.19 15.8762 79.948 14.9942H76.0326V12.8942H82.5579V10.7102H85.2106V12.8942H91.7781ZM86.5997 17.9342C86.5997 17.2202 86.3472 16.5902 85.8003 16.0862C85.2947 15.5822 84.6637 15.3302 83.9056 15.3302C83.1897 15.3302 82.5579 15.5822 82.011 16.0862C81.5054 16.5902 81.2109 17.2202 81.2109 17.9342C81.2109 18.6482 81.4633 19.2782 82.011 19.7822C82.5158 20.2862 83.1476 20.5382 83.9056 20.5382C84.6208 20.5382 85.2527 20.2862 85.8003 19.7822C86.3472 19.3202 86.5997 18.6902 86.5997 17.9342Z" fill="white"/>
<path d="M106.013 20.4123C105.761 21.5043 105.255 22.4703 104.413 23.2683C103.908 23.7723 103.276 24.1503 102.56 24.4863C101.845 24.7803 101.087 24.9483 100.329 24.9483C99.5297 24.9483 98.7717 24.7803 98.0978 24.4863C97.3818 24.1923 96.7928 23.7723 96.2452 23.2683C95.6983 22.7643 95.2768 22.1763 94.9823 21.4623C94.6878 20.7903 94.5195 20.0763 94.5195 19.3203C94.5195 18.5643 94.6878 17.8503 94.9823 17.1783C95.2768 16.5063 95.6983 15.9183 96.2452 15.3723C96.7508 14.8683 97.3818 14.4903 98.0978 14.1963C98.8137 13.9023 99.5718 13.7343 100.329 13.7343C101.129 13.7343 101.887 13.9023 102.56 14.1963C103.276 14.4903 103.866 14.9103 104.413 15.3723C105.213 16.1283 105.718 17.0943 106.013 18.2283H107.824V11.0463H110.139V30.7443H107.824V20.4123H106.013ZM103.698 19.3203C103.698 18.8583 103.613 18.4383 103.445 18.0183C103.276 17.5983 103.024 17.2203 102.729 16.9263C102.434 16.6323 102.055 16.3803 101.677 16.2123C101.255 16.0443 100.835 15.9603 100.371 15.9603C99.9083 15.9603 99.4869 16.0443 99.0662 16.2123C98.6455 16.3803 98.3081 16.6323 98.0137 16.9263C97.7192 17.2203 97.4667 17.5983 97.2977 18.0183C97.1294 18.4383 97.0453 18.9003 97.0453 19.3203C97.0453 19.7823 97.1294 20.2023 97.2977 20.6223C97.4667 21.0423 97.7192 21.4203 98.0137 21.7143C98.3081 22.0083 98.6875 22.2603 99.0662 22.4283C99.4869 22.5963 99.9083 22.6803 100.371 22.6803C100.835 22.6803 101.255 22.5963 101.677 22.4283C102.098 22.2603 102.434 22.0083 102.729 21.7143C103.024 21.4203 103.276 21.0423 103.445 20.6223C103.613 20.2443 103.698 19.7823 103.698 19.3203ZM111.696 11.0043H114.055V30.8283H111.696V11.0043Z" fill="white"/>
<path d="M119.738 25.8723H127.821V28.0563H117.254V12.1383H119.738V25.8723ZM131.399 11.0043H133.884V30.8283H131.399V20.2023H126.053V18.0183H131.399V11.0043Z" fill="white"/>
<path d="M136.997 14.4064V12.2224H148.953V14.4064H143.986L149.459 27.3844L147.269 28.3084L143.101 18.1864L138.933 28.4764L136.66 27.5104L142.175 14.4064H136.997ZM152.196 11.0044H154.679V30.8284H152.196V11.0044Z" fill="white"/>
<path d="M162.932 12.5165V10.5005H165.584V12.5165H170.258V14.5745H167.9C168.616 15.3305 168.953 16.2125 168.953 17.1365C168.953 17.6825 168.826 18.2285 168.574 18.7325C168.321 19.2365 167.985 19.6565 167.563 20.0345C166.974 20.5385 166.3 20.9165 165.458 21.1265V22.2605H170.637V24.3605H157.754V22.2605H163.017V21.1265C162.258 20.9585 161.585 20.5805 160.954 20.0765C160.532 19.6985 160.196 19.2365 159.943 18.7745C159.691 18.2705 159.564 17.7245 159.564 17.1785C159.564 16.2545 159.901 15.3725 160.616 14.6165H158.175V12.5585H162.932V12.5165ZM159.185 30.5345V25.6205H161.669V28.4765H175.057V30.5345H159.185ZM166.553 17.0945C166.553 16.4645 166.342 15.9605 165.88 15.4985C165.416 15.0785 164.911 14.8685 164.279 14.8685C163.648 14.8685 163.101 15.0785 162.679 15.4985C162.216 15.9185 162.006 16.4645 162.006 17.0945C162.006 17.7245 162.216 18.2285 162.679 18.6905C163.143 19.1105 163.648 19.3205 164.279 19.3205C164.911 19.3205 165.458 19.1105 165.88 18.6905C166.342 18.2285 166.553 17.7245 166.553 17.0945ZM174.636 25.4525H172.195V11.0045H174.678V16.9685H177.246V19.1525H174.678V25.4525H174.636Z" fill="white"/>
<path d="M188.864 21.0423H186.38V13.7763H179.223V11.5923H188.864V21.0423ZM195.558 26.6283C195.558 27.3003 195.432 27.9303 195.137 28.5183C194.842 29.1063 194.506 29.6103 194.043 30.0723C193.579 30.5343 193.032 30.8703 192.401 31.1223C191.769 31.3743 191.096 31.5003 190.422 31.5003C189.706 31.5003 189.033 31.3743 188.401 31.1223C187.77 30.8703 187.222 30.5343 186.717 30.0723C186.254 29.6523 185.875 29.1063 185.623 28.5183C185.327 27.9303 185.201 27.3003 185.201 26.6283C185.201 25.9563 185.327 25.3263 185.623 24.7383C185.917 24.1503 186.254 23.6463 186.717 23.1843C187.18 22.7223 187.728 22.3863 188.401 22.1343C189.033 21.8823 189.706 21.7563 190.422 21.7563C191.138 21.7563 191.769 21.8823 192.401 22.1343C193.032 22.3863 193.579 22.7223 194.043 23.1843C194.506 23.6043 194.884 24.1503 195.137 24.7383C195.432 25.3683 195.558 25.9983 195.558 26.6283ZM193.159 26.6283C193.159 25.8723 192.863 25.2423 192.316 24.6963C191.769 24.1503 191.138 23.8983 190.38 23.8983C189.622 23.8983 188.991 24.1503 188.443 24.6963C187.896 25.2423 187.643 25.8723 187.643 26.6283C187.643 27.3843 187.896 28.0143 188.443 28.5603C188.991 29.1063 189.622 29.3583 190.38 29.3583C191.138 29.3583 191.769 29.1063 192.316 28.5603C192.863 28.0143 193.159 27.3843 193.159 26.6283ZM193.874 11.0043H196.358V21.5463H193.874V19.0683H190.59V17.0523H193.874V15.2463H190.59V13.2303H193.874V11.0043Z" fill="white"/>
<path d="M199.727 23.5623H217.999V25.7463H210.083V30.8283H207.6V25.7463H199.727V23.5623ZM203.642 13.8603H214.083V11.3403H216.525V20.8743H201.201V11.3823H203.642V13.8603ZM214.083 16.0023H203.642V18.7323H214.083V16.0023Z" fill="white"/>
</g>
<defs>
<clipPath id="clip0_1637_7330">
<rect width="218" height="42" fill="white"/>
</clipPath>
</defs>
</svg>
