<svg width="60" height="60" viewBox="0 0 60 60" fill="none" xmlns="http://www.w3.org/2000/svg">
<g clip-path="url(#clip0_1637_6760)">
<path d="M30 60C46.5686 60 60 46.5686 60 30C60 13.4314 46.5686 0 30 0C13.4314 0 0 13.4314 0 30C0 46.5686 13.4314 60 30 60Z" fill="white"/>
<path d="M33.6237 22.9359C32.7964 22.9359 32.125 23.6073 32.125 24.4346C32.125 25.2619 32.7964 25.9333 33.6237 25.9333C34.451 25.9333 35.1256 25.2619 35.1256 24.4346C35.1256 23.6073 34.4542 22.9359 33.6237 22.9359Z" fill="#8A949E"/>
<path d="M41.7308 28.8927C42.9654 28.8927 44.0186 29.6882 44.4514 30.8114H39.0134C39.443 29.6882 40.4994 28.8927 41.7339 28.8927M46.9016 32.4661C46.9207 32.2816 46.9334 32.097 46.9334 31.9093C46.9334 29.0646 44.5755 26.7576 41.664 26.7576C38.7524 26.7576 36.3945 29.0646 36.3945 31.9093C36.3945 34.7539 38.7556 37.0609 41.664 37.0609C43.8787 37.0609 45.7688 35.7277 46.5515 33.8376L44.2796 33.4398C43.7768 34.3594 42.8254 34.9799 41.7372 34.9799C40.2957 34.9799 39.0961 33.8948 38.8574 32.4661H46.9047H46.9016Z" fill="#8A949E"/>
<path d="M34.9662 26.974H32.2773V36.8764H34.9662V26.974Z" fill="#8A949E"/>
<path d="M15.8067 23.7982V29.1281H10.0059V23.7982H7.0625V36.8668H10.0059V31.5369H15.8067V36.8668H18.75V23.7982H15.8067Z" fill="#8A949E"/>
<path d="M25.4035 34.8908C23.7393 34.8908 22.3902 33.5575 22.3902 31.9124C22.3902 30.2673 23.7393 28.9341 25.4035 28.9341C27.0677 28.9341 28.4168 30.2673 28.4168 31.9124C28.4168 33.5575 27.0677 34.8908 25.4035 34.8908ZM27.9523 26.9772V27.5085C27.1727 27.0344 26.2531 26.7639 25.273 26.7639C22.4188 26.7639 20.1055 29.0677 20.1055 31.9124C20.1055 34.7572 22.4188 37.0609 25.273 37.0609C26.2276 37.0609 27.125 36.8 27.8918 36.3513V36.8701H30.517V26.9803H27.9523V26.9772Z" fill="#8A949E"/>
<path d="M52.4889 26.0511C50.0133 26.4839 48.1295 28.6413 48.0977 31.241V36.8763H50.6751V31.136C50.6751 29.8218 51.6616 28.7367 52.9343 28.5808L52.4889 26.0511Z" fill="#8A949E"/>
</g>
<defs>
<clipPath id="clip0_1637_6760">
<rect width="60" height="60" fill="white"/>
</clipPath>
</defs>
</svg>
