<svg width="248" height="34" viewBox="0 0 248 34" fill="none" xmlns="http://www.w3.org/2000/svg">
<g clip-path="url(#clip0_1638_6469)">
<path d="M44.8847 17.4626C45.1715 16.0701 45.3137 14.6517 45.3091 13.23V6.34541H40.0512V13.6289C40.0512 19.2153 37.7651 23.1087 33.3242 26.2122L36.0665 30.0221C39.2244 28.0925 41.7573 25.2902 43.36 21.9528C45.3039 24.4596 46.9808 27.1627 48.3635 30.0181L52.0411 26.3505C50.4129 22.8498 47.9565 19.7991 44.8847 17.4626Z" fill="white"/>
<path d="M53.1133 14.1899H48.4766V18.14H53.1133V32.0215H58.2023V5.49889H53.1133V14.1899Z" fill="white"/>
<path d="M75.1625 14.8941C82.6539 14.8941 86.4696 13.4836 86.4696 10.1254C86.4696 6.76718 82.6539 5.21638 75.1625 5.21638C67.6712 5.21638 63.8555 6.76817 63.8555 10.1254C63.8555 13.4826 67.6712 14.8941 75.1625 14.8941ZM75.1625 8.88397C79.2894 8.88397 81.3816 9.30773 81.3816 10.1254C81.3816 10.9431 79.2894 11.3668 75.1625 11.3668C71.0357 11.3668 68.9434 10.9441 68.9434 10.1254C68.9434 9.30673 71.0357 8.88397 75.1625 8.88397Z" fill="white"/>
<path d="M87.9409 19.2401V15.7128H62.3867V19.2401H72.4782V20.3851H63.7902V23.5066H81.1473V24.4525H63.7892V30.5055C70.0629 33.0281 79.564 33.1545 86.5385 30.4747L85.7165 27.7312C79.6256 29.5913 72.5607 29.8758 68.1754 28.328V27.4457H85.5336V20.3831H77.8494V19.2401H87.9409Z" fill="white"/>
<path d="M114.741 5.49988H109.652V32.0215H114.741V5.49988Z" fill="white"/>
<path d="M98.9118 5.78139C93.6817 5.78139 90.9961 10.2398 90.9961 17.7729C90.9961 25.306 93.6797 29.7644 98.9118 29.7644C103.942 29.7644 106.827 25.306 106.827 17.7729C106.827 10.2398 103.944 5.78139 98.9118 5.78139ZM98.9118 25.8422C97.1307 25.8422 96.0851 23.2181 96.0851 17.7729C96.0851 12.3277 97.1307 9.70362 98.9118 9.70362C100.693 9.70362 101.738 12.3277 101.738 17.7729C101.738 23.2181 100.692 25.8422 98.9118 25.8422Z" fill="white"/>
<path d="M142.162 5.49988H137.074V17.2377C134.633 17.8956 132.11 18.1998 129.583 18.141V16.7573C133.062 16.1366 134.813 14.2466 134.813 11.0873C134.813 7.19292 132.155 5.21837 126.897 5.21837C121.639 5.21837 118.981 7.19292 118.981 11.0873C118.981 14.2476 120.735 16.1376 124.212 16.7573V18.14H118.926V21.8075H129.103C131.79 21.9005 134.476 21.5965 137.075 20.9053V22.486H142.163V16.7294H145.555V12.7793H142.163L142.162 5.49988ZM126.897 13.1454C125.032 13.1454 124.07 12.4401 124.07 11.0863C124.07 9.73247 125.032 9.02621 126.897 9.02621C128.763 9.02621 129.724 9.73148 129.724 11.0863C129.724 12.4411 128.763 13.1454 126.897 13.1454Z" fill="white"/>
<path d="M131.419 22.8192C123.957 22.8192 120.168 24.4555 120.168 27.7004C120.168 30.9452 123.957 32.5815 131.419 32.5815C138.911 32.5815 142.727 30.9452 142.727 27.7004C142.727 24.4555 138.911 22.8192 131.419 22.8192ZM131.419 28.7727C127.519 28.7727 125.539 28.4056 125.539 27.7004C125.539 26.9951 127.519 26.628 131.419 26.628C135.349 26.628 137.356 26.9951 137.356 27.7004C137.356 28.4056 135.349 28.7727 131.419 28.7727Z" fill="white"/>
<path d="M160.539 21.4126C153.641 21.4126 149.57 23.5016 149.57 26.9991C149.57 30.4965 153.645 32.5855 160.539 32.5855C167.465 32.5855 171.564 30.4965 171.564 26.9991C171.564 23.5016 167.465 21.4126 160.539 21.4126ZM160.539 28.7737C157.034 28.7737 154.942 28.1251 154.942 26.9961C154.942 25.8671 157.029 25.2185 160.539 25.2185C164.101 25.2185 166.192 25.8671 166.192 26.9961C166.192 28.1251 164.105 28.7737 160.539 28.7737Z" fill="white"/>
<path d="M162.882 18.5349H166.188V21.0734H171.277V5.49889H166.188V7.69924H162.882V5.78139H157.852V8.91281H153.187V5.78139H148.098V19.7763H162.882V18.5349ZM162.882 11.6503H166.188V14.5848H162.882V11.6503ZM157.849 15.9108H153.184V12.7783H157.849V15.9108Z" fill="white"/>
<path d="M184.033 15.9903C189.009 15.9903 191.949 14.0148 191.949 10.7421C191.949 7.44061 188.98 5.49391 184.033 5.49391C179.057 5.49391 176.117 7.46945 176.117 10.7421C176.117 14.0148 179.057 15.9903 184.033 15.9903ZM184.033 9.24605C185.814 9.24605 186.86 9.86676 186.86 10.7381C186.86 11.6095 185.814 12.2302 184.033 12.2302C182.252 12.2302 181.206 11.6095 181.206 10.7381C181.206 9.86676 182.253 9.24605 184.033 9.24605Z" fill="white"/>
<path d="M181.709 23.7493L186.713 23.7184V21.163C189.24 21.2223 191.763 20.9185 194.204 20.2607V26.1575H199.293V5.49988H194.204V9.66085H192.493V12.9614H194.204V16.4758C191.605 17.167 188.919 17.471 186.232 17.378H175.211V21.163H181.709V23.7493Z" fill="white"/>
<path d="M199.175 27.1095C192.724 29.0084 185.757 29.2661 181.085 27.7212V23.039H176.441V30.0708C183.117 32.6452 192.664 32.7745 200.048 30.038L199.175 27.1095Z" fill="white"/>
<path d="M14.5064 26.8777L4.58984 27.1562C5.01946 27.6317 5.47435 28.0836 5.95254 28.5101L14.7757 28.7578C14.7472 28.1237 14.6576 27.494 14.5064 26.8777Z" fill="white"/>
<path d="M9.58788 31.2197L14.49 31.358C14.6458 30.7424 14.7381 30.1124 14.7653 29.4779L7.41016 29.6848C8.09399 30.1968 8.8189 30.7084 9.5849 31.2197" fill="white"/>
<path d="M11.9182 21.7349L1.34766 22.0334C1.4941 22.3881 1.65147 22.7376 1.81978 23.0818C1.83568 23.1146 1.85357 23.1475 1.86947 23.1813L13.1149 23.4976C12.7524 22.8876 12.3542 22.2997 11.9222 21.7369" fill="white"/>
<path d="M13.5437 24.2964L2.66797 24.6028C2.93302 25.0239 3.21232 25.434 3.50586 25.8332L14.2961 26.1366C14.0954 25.5038 13.8438 24.8884 13.5437 24.2964Z" fill="white"/>
<path d="M5.91991 6.25688L0 6.42798V7.48538L5.39312 7.63658C5.53982 7.16776 5.71576 6.70862 5.91991 6.26186" fill="white"/>
<path d="M5.86425 14.0815L0 14.2456V15.2473C0 15.2662 0 15.2841 0 15.303L6.63554 15.49C6.34899 15.0372 6.09138 14.5668 5.86425 14.0815Z" fill="white"/>
<path d="M12.9674 33.3216L13.4972 33.629L13.6801 33.5235C13.9117 33.0638 14.1109 32.5885 14.2764 32.1011L11.0898 32.1906C11.6961 32.5692 12.322 32.9456 12.9674 33.3216Z" fill="white"/>
<path d="M5.08997 8.88794L0 9.03218V10.0886L4.97666 10.2288C4.97901 9.77991 5.0169 9.33187 5.08997 8.88893" fill="white"/>
<path d="M7.49666 3.5303C6.1564 4.09065 4.78399 4.57063 3.38672 4.96769L6.53353 5.05623C6.8178 4.55554 7.13884 4.0469 7.49666 3.5303Z" fill="white"/>
<path d="M9.68884 19.1894L0.507812 19.447C0.597267 19.8151 0.696661 20.1798 0.805995 20.5412L11.1907 20.8327C10.7285 20.2876 10.2355 19.7385 9.68387 19.1894" fill="white"/>
<path d="M7.43932 16.6449L0.0742188 16.8518C0.106687 17.2086 0.15009 17.5637 0.204425 17.9171L8.70261 18.1559C8.23878 17.6446 7.81768 17.1409 7.43932 16.6449Z" fill="white"/>
<path d="M5.06909 11.4961L0 11.6384V12.6958L5.37821 12.847C5.23951 12.4056 5.13614 11.9539 5.06909 11.4961Z" fill="white"/>
<path d="M18.7852 28.8702L20.5653 28.9199C21.3946 28.2317 22.1597 27.4696 22.8514 26.643L19.2026 26.7424C19.1668 27.4671 19.0265 28.1827 18.7861 28.8672" fill="white"/>
<path d="M17.6602 31.0427C18.505 30.4717 19.3141 29.9007 20.0546 29.3297L18.5865 29.3715C18.3361 29.959 18.0257 30.5191 17.6602 31.0427Z" fill="white"/>
<path d="M18.7662 23.6538L24.7855 23.8229C24.9207 23.5782 25.0509 23.3305 25.1742 23.0798C25.4522 22.5137 25.6994 21.9329 25.9146 21.34L17.8945 21.5648C18.2433 22.2354 18.5349 22.9342 18.7662 23.6538Z" fill="white"/>
<path d="M19.2083 26.2749L23.0638 26.3833C23.6726 25.6294 24.2188 24.827 24.6969 23.984L18.9102 24.1472C19.0968 24.8417 19.197 25.5557 19.2083 26.2749Z" fill="white"/>
<path d="M26.9593 5.66501L8.0625 6.1962C8.08077 6.70634 8.14733 7.21361 8.26129 7.71118L27 8.23839V5.67098L26.9593 5.66501Z" fill="white"/>
<path d="M13.6813 15.6879L26.9752 16.062C26.9882 15.7914 26.9961 15.5198 26.9961 15.2483V13.4926L12.082 13.9123C12.6327 14.5092 13.1661 15.103 13.6823 15.6939" fill="white"/>
<path d="M9.30264 10.3502L26.9948 10.8476V8.2722L8.58203 8.78946C8.77986 9.32828 9.02153 9.84995 9.30463 10.3492" fill="white"/>
<path d="M26.1097 5.52773C20.3965 4.59865 14.0979 0.904208 14.0353 0.867402L13.4976 0.549088L12.9599 0.867402C11.5359 1.67804 10.0709 2.41413 8.57063 3.07273C8.33437 3.7279 8.17818 4.40927 8.10547 5.10198L26.6971 5.62521L26.1097 5.52773Z" fill="white"/>
<path d="M17.5965 21.0128L25.9456 21.2475C26.2414 20.4207 26.476 19.5732 26.6474 18.7119L16.3203 19.0034C16.7801 19.6507 17.2061 20.3213 17.5965 21.0128Z" fill="white"/>
<path d="M15.8508 18.3578L26.6579 18.6612C26.8242 17.8151 26.9289 16.9581 26.971 16.0968L14.332 16.4519C14.8688 17.0905 15.3796 17.7252 15.8508 18.3578Z" fill="white"/>
<path d="M11.2584 13.0121L26.9925 13.4587V10.8794L9.9375 11.3589C10.3413 11.9379 10.7825 12.4908 11.2584 13.0121Z" fill="white"/>
<path d="M234.377 4.13113C233.841 2.93745 232.038 3.75711 232.038 3.75711C233.555 4.72001 234.377 4.13113 234.377 4.13113ZM231.395 3.95506C231.462 3.95467 231.528 3.93438 231.583 3.89676C231.639 3.85914 231.682 3.80587 231.708 3.74368C231.733 3.68148 231.739 3.61314 231.726 3.54728C231.713 3.48142 231.68 3.42099 231.633 3.37361C231.585 3.32623 231.524 3.29403 231.459 3.28106C231.393 3.2681 231.324 3.27495 231.262 3.30075C231.2 3.32656 231.147 3.37016 231.11 3.42607C231.073 3.48197 231.053 3.54766 231.053 3.61486C231.053 3.65967 231.062 3.70401 231.079 3.74536C231.097 3.7867 231.122 3.82424 231.154 3.85583C231.185 3.88742 231.223 3.91244 231.264 3.92947C231.306 3.9465 231.35 3.95519 231.395 3.95506ZM235.524 4.25348C235.084 4.26089 234.654 4.38002 234.273 4.59965L236.193 4.62651L236.261 4.57577C235.971 3.83484 235.498 3.17979 234.885 2.67208C234.273 2.16438 233.542 1.82065 232.761 1.67314C232.996 2.28457 233.367 2.83456 233.846 3.28169C234.324 3.72882 234.898 4.06044 235.524 4.25348ZM236.872 4.75184C236.872 4.70152 236.857 4.65233 236.829 4.61047C236.801 4.56861 236.761 4.53597 236.715 4.51667C236.668 4.49737 236.617 4.49227 236.568 4.50201C236.518 4.51176 236.473 4.53591 236.438 4.57143C236.402 4.60694 236.378 4.65222 236.368 4.70156C236.358 4.75089 236.363 4.80206 236.382 4.84861C236.401 4.89516 236.433 4.93499 236.475 4.9631C236.517 4.9912 236.566 5.0063 236.616 5.00649C236.65 5.00663 236.683 5.00014 236.714 4.9874C236.745 4.97466 236.773 4.95592 236.797 4.93226C236.82 4.9086 236.839 4.88049 236.852 4.84952C236.865 4.81856 236.872 4.78537 236.872 4.75184ZM226.617 4.62253L228.538 4.59567C228.158 4.3762 227.728 4.25708 227.289 4.2495C227.914 4.05633 228.488 3.72364 228.966 3.27651C229.444 2.82938 229.815 2.27946 230.05 1.66817C229.269 1.81645 228.537 2.16107 227.926 2.66967C227.314 3.17826 226.841 3.83416 226.551 4.57577L226.617 4.62253ZM226.002 4.89011C226.002 4.94019 226.017 4.9891 226.045 5.03066C226.073 5.07222 226.112 5.10458 226.159 5.12365C226.205 5.14273 226.256 5.14767 226.305 5.13785C226.354 5.12803 226.399 5.10389 226.435 5.06848C226.47 5.03306 226.494 4.98796 226.504 4.93884C226.514 4.88973 226.509 4.83881 226.49 4.7925C226.471 4.7462 226.438 4.70657 226.397 4.67862C226.355 4.65067 226.306 4.63566 226.256 4.63546C226.223 4.63533 226.19 4.64182 226.159 4.65458C226.128 4.66733 226.1 4.68608 226.076 4.70975C226.052 4.73342 226.034 4.76155 226.021 4.7925C226.008 4.82346 226.002 4.85663 226.002 4.89011ZM226.159 6.93429C225.641 6.65713 225.07 6.49387 224.484 6.45544C223.898 6.41701 223.311 6.5043 222.762 6.71147C223.295 6.28475 223.73 5.74796 224.037 5.1377C224.344 4.52743 224.516 3.85805 224.542 3.17519C223.858 3.58017 223.288 4.15284 222.886 4.83923C222.484 5.52561 222.263 6.3031 222.245 7.09842C225.038 7.92405 226.164 6.93528 226.164 6.93528M226.935 6.39514L226.955 5.46507C226.274 5.28372 225.563 5.24713 224.868 5.35764C225.467 5.02975 225.989 4.5764 226.398 4.02846C226.806 3.48053 227.092 2.85089 227.235 2.18245C226.491 2.46266 225.831 2.92772 225.316 3.53384C224.802 4.13997 224.45 4.86721 224.293 5.6471C225.109 6.08817 226.012 6.34359 226.938 6.39514M237.994 5.20146C237.369 5.05527 236.715 5.09222 236.11 5.3079V6.26483C236.986 6.21299 237.834 5.94211 238.578 5.477C238.401 4.70116 238.03 3.98312 237.499 3.39043C236.968 2.79774 236.296 2.34987 235.545 2.08894C235.704 2.75378 236.005 3.37645 236.426 3.91458C236.847 4.45271 237.38 4.89366 237.987 5.20743M228.435 4.24851C228.435 4.24851 229.278 4.80556 230.758 3.78596C230.758 3.78596 228.925 3.03493 228.435 4.24851ZM241.27 17.18H240.198V18.5349H241.27V17.18ZM238.376 7.8952L237.823 8.55471L240.822 11.5479L241.43 10.9421L238.376 7.8952ZM244.214 7.80568L241.465 5.0622L239.001 7.73405L241.646 10.3323L244.214 7.80568ZM221.804 7.4993C221.804 7.5497 221.819 7.59904 221.847 7.64104C221.875 7.68305 221.914 7.71585 221.961 7.73527C222.007 7.7547 222.058 7.75988 222.108 7.75017C222.157 7.74046 222.203 7.71628 222.238 7.68071C222.274 7.64514 222.298 7.59976 222.308 7.55034C222.318 7.50091 222.313 7.44966 222.294 7.40307C222.275 7.35648 222.242 7.31665 222.2 7.28863C222.158 7.2606 222.109 7.24564 222.059 7.24564C222.026 7.24551 221.992 7.25197 221.962 7.26466C221.931 7.27735 221.903 7.29601 221.879 7.31958C221.855 7.34315 221.837 7.37116 221.824 7.402C221.811 7.43284 221.804 7.4659 221.804 7.4993ZM242.155 10.39C242.731 10.547 243.324 10.6355 243.921 10.6536C244.123 9.96502 244.185 9.24281 244.102 8.52984L243.175 9.41615C243.28 9.66311 243.408 9.89959 243.558 10.1224C243.349 9.95847 243.126 9.81208 242.893 9.68473L242.155 10.39ZM241.323 23.808H240.255V25.1628H241.327L241.323 23.808ZM239.758 6.24295L240.379 5.61328C240.237 5.051 239.972 4.52681 239.606 4.07759C239.239 3.62836 238.778 3.265 238.256 3.01305C238.269 3.62626 238.409 4.23011 238.667 4.78619C238.926 5.34226 239.297 5.83838 239.758 6.24295ZM245.338 15.7267C245.338 15.7771 245.353 15.8263 245.381 15.8682C245.409 15.9101 245.449 15.9427 245.495 15.962C245.542 15.9813 245.593 15.9863 245.642 15.9765C245.691 15.9667 245.737 15.9424 245.772 15.9068C245.808 15.8712 245.832 15.8258 245.842 15.7764C245.852 15.727 245.847 15.6758 245.827 15.6293C245.808 15.5828 245.776 15.543 245.734 15.515C245.692 15.487 245.643 15.4721 245.592 15.4721C245.559 15.472 245.526 15.4785 245.495 15.4912C245.464 15.504 245.436 15.5227 245.412 15.5464C245.389 15.5701 245.37 15.5982 245.357 15.6291C245.344 15.6601 245.338 15.6933 245.338 15.7267ZM241.999 3.14137C242.223 3.25804 242.473 3.31729 242.725 3.31382C242.978 3.31035 243.226 3.24426 243.446 3.12147C243.691 2.99359 243.968 2.94139 244.242 2.9715C244.517 3.00161 244.776 3.11268 244.987 3.29058C245.164 3.41735 245.304 3.5877 245.395 3.78504C245.486 3.98238 245.525 4.19998 245.507 4.41662C245.507 4.90603 245.367 4.93985 245.367 4.93985C245.069 5.13879 245.144 4.79959 245.144 4.79959L245.213 4.55687C245.263 4.27248 245.199 3.97977 245.034 3.74257C244.869 3.50536 244.618 3.34289 244.334 3.29058C244.055 3.2298 243.763 3.27773 243.518 3.42463C243.273 3.57153 243.092 3.80636 243.014 4.08139C242.953 4.31508 242.939 4.55835 242.971 4.7976L241.652 3.48157L241.715 4.59567L244.661 7.53511H245.715L244.645 6.46577C244.989 6.57433 245.346 6.64113 245.706 6.66472C246.118 6.64697 246.511 6.48392 246.815 6.20435C247.119 5.92479 247.315 5.54668 247.368 5.1368C247.441 4.63441 247.385 4.12162 247.205 3.64694C247.025 3.17226 246.727 2.7514 246.339 2.42417C245.646 1.9053 244.817 1.59911 243.953 1.54283C243.404 1.51365 242.869 1.35953 242.388 1.09218C241.908 0.824834 241.494 0.451305 241.179 0C241.029 0.475369 240.969 0.974774 241.003 1.47221C240.999 1.81517 241.089 2.15271 241.265 2.44735C241.44 2.74199 241.694 2.98222 241.997 3.14137M245.702 15.3109C246.185 14.6797 246.5 13.9355 246.615 13.1488C246.731 12.362 246.645 11.5587 246.364 10.8147C245.957 11.3633 245.672 11.9932 245.53 12.6616C245.388 13.33 245.391 14.0212 245.54 14.6882C245.24 14.1823 244.835 13.7466 244.353 13.4104C243.871 13.0743 243.322 12.8455 242.744 12.7396C242.744 12.7396 243.006 14.2137 245.702 15.3099M243.963 11.3459C244.013 11.3457 244.062 11.3307 244.104 11.3028C244.145 11.2748 244.178 11.2352 244.197 11.1889C244.216 11.1426 244.221 11.0917 244.211 11.0425C244.201 10.9934 244.177 10.9483 244.142 10.9129C244.106 10.8775 244.061 10.8534 244.012 10.8435C243.963 10.8337 243.912 10.8387 243.866 10.8577C243.82 10.8768 243.78 10.9092 243.752 10.9507C243.724 10.9923 243.709 11.0412 243.709 11.0913C243.709 11.1588 243.736 11.2236 243.783 11.2713C243.831 11.3191 243.896 11.3459 243.963 11.3459ZM238.838 7.2337L239.608 6.43792C239.129 6.28753 238.624 6.24282 238.126 6.30687C237.628 6.37093 237.151 6.54222 236.725 6.80895C236.725 6.80895 237.238 7.38888 238.841 7.2337M245.016 12.9037C245.382 12.1981 245.562 11.4109 245.539 10.6163C245.516 9.82176 245.291 9.04613 244.886 8.36273C244.58 8.97372 244.41 9.6435 244.386 10.3264C244.363 11.0093 244.487 11.6892 244.75 12.3198C244.366 11.8736 243.892 11.5147 243.359 11.2673C242.825 11.0199 242.245 10.8897 241.657 10.8854C241.657 10.8854 242.17 12.2919 245.016 12.9037ZM236.022 31.4256C236.022 31.476 236.037 31.5253 236.065 31.5672C236.093 31.6091 236.133 31.6417 236.179 31.661C236.226 31.6802 236.277 31.6852 236.326 31.6753C236.376 31.6654 236.421 31.6411 236.456 31.6053C236.492 31.5696 236.516 31.5242 236.526 31.4747C236.536 31.4252 236.53 31.374 236.511 31.3275C236.492 31.281 236.459 31.2413 236.417 31.2134C236.375 31.1855 236.326 31.1708 236.275 31.171C236.242 31.171 236.209 31.1776 236.178 31.1904C236.147 31.2032 236.119 31.222 236.096 31.2456C236.072 31.2693 236.053 31.2974 236.041 31.3283C236.028 31.3591 236.022 31.3922 236.022 31.4256ZM237.297 31.1809C238.112 30.4703 238.631 29.479 238.75 28.4036L238.235 28.4235C237.414 29.2411 236.879 30.3026 236.711 31.4495C237.418 31.8146 238.207 31.9942 239.002 31.9716C239.798 31.949 240.575 31.7249 241.261 31.3202C240.649 31.0145 239.978 30.8439 239.294 30.8199C238.61 30.7958 237.929 30.919 237.297 31.1809ZM234.923 31.9767C235.429 31.6791 235.865 31.2765 236.201 30.796C236.538 30.3156 236.768 29.7684 236.876 29.1915C236.876 29.1915 235.398 29.4511 234.3 32.1438C234.934 32.6259 235.679 32.9393 236.467 33.0548C237.255 33.1703 238.059 33.0841 238.804 32.8043C238.254 32.3976 237.624 32.1136 236.955 31.9713C236.286 31.8291 235.595 31.8319 234.927 31.9797M232.435 32.5089C232.969 32.2924 233.454 31.969 233.859 31.5585C234.265 31.148 234.582 30.659 234.792 30.1215C233.291 30.229 232.009 32.4741 232.009 32.4741C232.513 32.977 233.117 33.3693 233.781 33.6262C234.445 33.8831 235.155 33.9989 235.866 33.9662C234.872 32.6462 232.439 32.5039 232.439 32.5039M231.368 31.7191V32.3527C231.075 31.8912 229.93 30.222 228.64 30.1394C228.853 30.6755 229.174 31.1623 229.582 31.5698C229.99 31.9773 230.477 32.2969 231.013 32.5089C231.013 32.5089 228.586 32.67 227.595 33.996C228.29 34.0222 228.983 33.9069 229.633 33.6571C230.282 33.4073 230.874 33.0282 231.372 32.5427V33.5733H232.014V31.7161L231.368 31.7191ZM240.26 25.875V27.2278L246.33 32.2532H247.544L241.365 25.875H240.26ZM239.506 29.9912C239.877 29.5164 240.156 28.9767 240.329 28.3996L239.295 28.3827C239.098 29.0208 238.991 29.6829 238.975 30.3503C239.646 30.5539 240.353 30.61 241.048 30.5147C241.743 30.4194 242.409 30.175 243.001 29.7982L242.312 29.2442C241.321 29.1774 240.335 29.4381 239.506 29.9862M227.462 31.5191C227.462 31.4688 227.447 31.4195 227.42 31.3775C227.392 31.3355 227.352 31.3027 227.306 31.2833C227.259 31.2638 227.208 31.2586 227.159 31.2682C227.109 31.2778 227.064 31.3019 227.028 31.3374C226.993 31.3728 226.968 31.4181 226.958 31.4675C226.948 31.5168 226.953 31.5681 226.972 31.6147C226.991 31.6613 227.024 31.7012 227.065 31.7293C227.107 31.7575 227.156 31.7726 227.206 31.7728C227.24 31.7729 227.273 31.7665 227.304 31.7538C227.335 31.7411 227.363 31.7225 227.387 31.6989C227.41 31.6754 227.429 31.6474 227.442 31.6165C227.455 31.5857 227.462 31.5526 227.462 31.5191ZM244.429 24.4326C244.525 23.8539 244.496 23.2613 244.343 22.695C244.19 22.1286 243.918 21.6018 243.544 21.15C243.544 21.15 242.792 22.4432 244.153 25.0156C244.929 24.8421 245.649 24.4741 246.244 23.9462C246.839 23.4184 247.29 22.7478 247.555 21.9975C246.89 22.1561 246.267 22.4559 245.728 22.8766C245.189 23.2972 244.746 23.8289 244.43 24.4356M241.926 28.9318L241.031 28.2037C241.05 28.4315 241.079 28.6712 241.122 28.9279C241.389 28.951 241.658 28.951 241.925 28.9279M240.573 29.2581C240.623 29.2581 240.673 29.2432 240.714 29.2152C240.756 29.1872 240.789 29.1474 240.808 29.1009C240.827 29.0544 240.832 29.0032 240.823 28.9538C240.813 28.9044 240.788 28.859 240.753 28.8234C240.717 28.7878 240.672 28.7635 240.623 28.7537C240.573 28.7439 240.522 28.7489 240.476 28.7682C240.429 28.7875 240.389 28.8201 240.361 28.862C240.333 28.9039 240.319 28.9531 240.319 29.0035C240.319 29.071 240.345 29.1358 240.393 29.1835C240.441 29.2313 240.506 29.2581 240.573 29.2581ZM219.278 25.5507C219.278 25.6011 219.293 25.6503 219.321 25.6922C219.349 25.7341 219.388 25.7667 219.435 25.786C219.481 25.8053 219.533 25.8103 219.582 25.8005C219.631 25.7907 219.677 25.7664 219.712 25.7308C219.748 25.6952 219.772 25.6498 219.782 25.6004C219.792 25.551 219.787 25.4998 219.767 25.4533C219.748 25.4067 219.715 25.367 219.674 25.339C219.632 25.311 219.583 25.2961 219.532 25.2961C219.499 25.2958 219.466 25.3022 219.435 25.3149C219.404 25.3276 219.375 25.3464 219.352 25.3701C219.328 25.3938 219.309 25.422 219.297 25.453C219.284 25.484 219.278 25.5172 219.278 25.5507ZM217.424 20.6298C219.536 18.6294 219.24 17.1611 219.24 17.1611C218.741 17.4705 218.315 17.8832 217.989 18.3716C217.663 18.86 217.446 19.4126 217.352 19.9922C217.247 19.3166 216.998 18.6716 216.622 18.1009C216.245 17.5302 215.751 17.0472 215.172 16.6847C215.183 17.4799 215.396 18.2592 215.791 18.9494C216.186 19.6395 216.749 20.2178 217.429 20.6298M217.435 20.9819C217.435 21.0323 217.45 21.0817 217.477 21.1237C217.505 21.1657 217.545 21.1985 217.591 21.2179C217.638 21.2373 217.689 21.2425 217.739 21.2328C217.788 21.2231 217.833 21.1989 217.869 21.1633C217.905 21.1278 217.929 21.0824 217.939 21.033C217.949 20.9835 217.944 20.9323 217.925 20.8857C217.905 20.8391 217.873 20.7993 217.831 20.7712C217.789 20.7432 217.74 20.7283 217.69 20.7283C217.622 20.7283 217.558 20.755 217.51 20.8025C217.462 20.85 217.435 20.9146 217.435 20.9819ZM221.061 5.10696L219.084 3.12346C218.741 2.78067 218.298 2.55584 217.819 2.48146C217.34 2.40708 216.85 2.48699 216.419 2.70965L220.296 6.56425C220.417 6.02182 220.677 5.52015 221.05 5.10796M219.536 6.32452L216.193 2.9842C216.193 2.9842 214.792 3.98689 215.88 6.32651L219.536 6.32452ZM218.09 23.043C219.822 20.7074 219.276 19.3137 219.276 19.3137C218.838 19.7042 218.488 20.1844 218.252 20.7217C218.015 21.2591 217.896 21.8411 217.904 22.4283C217.683 21.7811 217.325 21.1891 216.856 20.6922C216.386 20.1954 215.815 19.8054 215.182 19.5485C215.331 20.3299 215.676 21.0606 216.185 21.6719C216.693 22.2831 217.349 22.755 218.09 23.043ZM219.644 29.663C219.947 29.5006 220.276 29.3925 220.616 29.3436L219.977 29.1924L217.15 32.1617C217.15 32.1617 216.828 32.6263 217.132 32.9287C217.233 32.9971 217.354 33.0306 217.477 33.0243C217.599 33.0181 217.716 32.9723 217.81 32.8939L220.565 30.4896C220.198 30.2892 219.883 30.0062 219.644 29.663ZM225.006 28.4573H224.644C224.754 29.5728 225.301 30.5993 226.165 31.3122C225.527 31.0647 224.843 30.9571 224.16 30.9965C223.477 31.036 222.81 31.2217 222.205 31.541C222.9 31.9301 223.682 32.1364 224.478 32.1404C225.274 32.1444 226.058 31.946 226.756 31.5639C226.568 30.351 225.946 29.2476 225.007 28.4583M219.169 25.305C220.469 22.7058 219.687 21.4256 219.687 21.4256C219.324 21.8863 219.063 22.4199 218.924 22.9903C218.784 23.5606 218.769 24.1543 218.879 24.7311C218.549 24.1321 218.094 23.6111 217.546 23.2033C216.997 22.7956 216.367 22.5105 215.699 22.3676C215.982 23.1112 216.448 23.7708 217.056 24.2844C217.663 24.798 218.391 25.1489 219.17 25.304M226.542 29.3029C226.662 29.878 226.905 30.4206 227.253 30.8939C227.601 31.3672 228.046 31.7602 228.559 32.0463C227.888 31.9133 227.196 31.9259 226.53 32.0832C225.864 32.2406 225.24 32.539 224.699 32.9585C225.45 33.2214 226.256 33.2891 227.041 33.1553C227.825 33.0215 228.563 32.6906 229.185 32.1936C228.025 29.5287 226.543 29.3019 226.543 29.3019M220.488 8.87999C223.38 9.20825 224.317 8.03944 224.317 8.03944C223.759 7.85573 223.167 7.7937 222.583 7.85753C221.999 7.92135 221.435 8.10954 220.929 8.40948C221.38 7.8962 221.714 7.29169 221.911 6.63715C222.107 5.98261 222.16 5.29342 222.066 4.61656C221.463 5.13449 221.002 5.79764 220.726 6.54341C220.45 7.28919 220.369 8.093 220.489 8.87899M220.627 27.3422C221.453 24.557 220.463 23.4329 220.463 23.4329C220.184 23.9497 220.02 24.5204 219.982 25.1062C219.943 25.692 220.031 26.2792 220.24 26.828C219.811 26.2949 219.272 25.8603 218.661 25.5538C218.049 25.2473 217.379 25.0759 216.696 25.0514C217.104 25.7345 217.678 26.3027 218.366 26.7029C219.053 27.103 219.831 27.322 220.626 27.3393M241.767 25.0673C241.647 25.2039 241.564 25.3685 241.525 25.5458L242.064 26.1018C242.035 25.7404 241.934 25.3885 241.766 25.0673M223.775 13.9163L224.769 14.7897H227.005C226.934 14.5104 226.91 14.2214 226.933 13.9342L223.775 13.9163ZM229.322 7.37893V6.13054H233.213V7.9141H234.499V9.19631H233.25V9.76729H234.499V11.1599H233.25V15.3308H232.178L230.697 13.8507L229.341 15.2045L228.357 14.2247L230.608 11.9786L231.769 13.1365V7.37893H229.322ZM227.321 13.3543C227.321 16.3126 229.177 17.6784 231.469 17.6784C233.762 17.6784 235.624 16.3176 235.624 13.3543V4.91995H227.324C227.324 4.91995 227.324 10.398 227.324 13.3543M224.262 8.48806C223.939 8.8129 223.513 9.01481 223.057 9.05904L224.262 10.1731V8.48806ZM234.877 20.7999C235.148 20.7999 235.148 20.6009 235.152 20.3891V18.4613H235.706V20.4995C235.706 20.7979 235.672 21.2953 234.874 21.2953C234.358 21.2953 234.05 21.0555 234.05 20.5323V18.4613H234.603V20.2687C234.603 20.4806 234.577 20.7999 234.878 20.7999M236.303 21.8652V22.3815H235.742V22.9893H236.239V23.5095H235.742V24.1382H236.311V24.6585H235.186V21.8652H236.303ZM236.152 18.4623H236.774L236.935 18.8512C236.989 18.9902 237.034 19.1328 237.068 19.2779H237.076C237.108 19.1329 237.15 18.9903 237.202 18.8512L237.37 18.4623H237.966L237.37 19.8151L238.012 21.2565H237.373L237.195 20.8128C237.143 20.6706 237.109 20.5333 237.07 20.394H237.064C237.023 20.5333 236.989 20.6706 236.941 20.8128L236.777 21.2565H236.155L236.751 19.8151L236.152 18.4623ZM237.837 24.6614L237.737 24.1899H237.174L237.074 24.6614H236.526L237.175 21.8652H237.757L238.43 24.6614H237.837ZM234.292 24.6614L234.159 22.6471H234.151L234.062 23.3374L233.824 24.6614H233.397L233.125 23.3215L233.032 22.6988V22.6461H233.025L232.943 24.6604H232.346L232.591 21.8642H233.319L233.592 23.5145H233.599L233.822 21.8642H234.566L234.864 24.6604L234.292 24.6614ZM232.502 18.4613H233.056V20.7382H233.634V21.2555H232.502V18.4613ZM231.792 18.0295V27.5094C232.143 27.1844 232.599 26.9957 233.077 26.9772H238.963V15.2145H235.782C235.481 16.0355 234.937 16.745 234.222 17.2482C233.508 17.7514 232.656 18.0243 231.783 18.0305M229.403 19.2491C229.409 19.2 229.403 19.1501 229.386 19.1036C229.37 19.0571 229.342 19.0152 229.306 18.9812C229.27 18.9472 229.227 18.9222 229.179 18.9081C229.132 18.894 229.082 18.8912 229.033 18.8999H228.959V19.646H229.058C229.31 19.646 229.41 19.4769 229.41 19.2481M237.449 22.5834H237.442L237.381 23.0052L237.264 23.7513H237.652L237.512 23.0052L237.449 22.5834ZM222.54 10.1304C222.005 10.5909 221.35 10.8878 220.651 10.9858L221.019 11.331L224.874 11.3121L223.681 10.1184L223.076 9.51264C222.91 9.72971 222.731 9.93603 222.54 10.1304ZM244.048 25.2583C244.048 25.2079 244.033 25.1586 244.005 25.1166C243.978 25.0746 243.938 25.0419 243.892 25.0224C243.845 25.0029 243.794 24.9977 243.745 25.0073C243.695 25.017 243.65 25.041 243.614 25.0765C243.578 25.112 243.554 25.1573 243.544 25.2066C243.534 25.256 243.539 25.3072 243.558 25.3538C243.577 25.4004 243.609 25.4403 243.651 25.4685C243.693 25.4966 243.742 25.5117 243.792 25.5119C243.826 25.5121 243.859 25.5056 243.89 25.4929C243.921 25.4803 243.949 25.4616 243.973 25.4381C243.996 25.4145 244.015 25.3865 244.028 25.3557C244.041 25.3248 244.048 25.2917 244.048 25.2583ZM245.539 20.9133C245.589 20.9133 245.638 20.8984 245.679 20.8706C245.721 20.8428 245.754 20.8032 245.773 20.7569C245.792 20.7106 245.797 20.6597 245.787 20.6105C245.778 20.5613 245.754 20.5161 245.718 20.4806C245.683 20.4451 245.638 20.4209 245.589 20.411C245.54 20.4011 245.489 20.4059 245.442 20.425C245.396 20.444 245.356 20.4764 245.328 20.518C245.301 20.5596 245.285 20.6085 245.285 20.6586C245.285 20.726 245.312 20.7906 245.359 20.8383C245.407 20.8861 245.471 20.913 245.539 20.9133ZM243.906 19.0233C243.906 19.0233 243.393 20.4308 245.179 22.7257C245.913 22.4205 246.558 21.9334 247.052 21.3103C247.546 20.6871 247.874 19.9484 248.005 19.1635C247.378 19.4352 246.816 19.8385 246.358 20.3461C245.9 20.8538 245.557 21.4539 245.351 22.106C245.344 21.5183 245.212 20.9389 244.962 20.4069C244.713 19.8749 244.352 19.4027 243.905 19.0223M245.85 19.6569C245.742 19.0793 245.511 18.5317 245.173 18.0511C244.835 17.5706 244.398 17.1684 243.891 16.8717C243.891 16.8717 243.63 18.3469 245.789 20.2975C246.459 19.8698 247.009 19.2783 247.387 18.5788C247.766 17.8793 247.96 17.095 247.951 16.2997C247.381 16.6758 246.898 17.1704 246.535 17.7499C246.173 18.3293 245.939 18.9791 245.85 19.6569ZM242.815 23.1773C242.815 23.1773 241.852 24.3252 242.745 27.0906C243.54 27.0544 244.312 26.8169 244.99 26.4002C245.668 25.9835 246.229 25.4013 246.621 24.7082C245.939 24.748 245.273 24.9339 244.669 25.2532C244.064 25.5726 243.535 26.018 243.117 26.5594C243.314 26.006 243.389 25.4168 243.337 24.8319C243.286 24.2469 243.109 23.6799 242.819 23.1693M245.917 17.1572C245.917 17.1572 245.155 15.1428 243.501 14.7549C243.501 14.7549 243.501 16.247 245.968 17.7978C246.553 17.26 246.992 16.5819 247.243 15.8275C247.494 15.0731 247.549 14.2671 247.402 13.4856C246.906 13.955 246.516 14.5259 246.26 15.1595C246.004 15.793 245.888 16.4744 245.918 17.1572M244.143 28.2504C244.603 27.9668 244.998 27.5892 245.302 27.1423C244.627 27.0854 243.946 27.1683 243.304 27.386L244.143 28.2504ZM228.069 22.9903L228.008 22.5655H228.001L227.939 22.9903L227.822 23.7334H228.213L228.069 22.9903ZM219.869 6.47771C219.366 7.09172 219.028 7.82375 218.886 8.60481C218.744 9.38587 218.803 10.1902 219.058 10.9421C221.965 10.765 222.683 9.44997 222.683 9.44997C222.101 9.36596 221.508 9.40764 220.944 9.57218C220.379 9.73673 219.857 10.0203 219.411 10.4039C219.766 9.8201 219.99 9.1666 220.069 8.48799C220.149 7.80939 220.081 7.12166 219.87 6.47174M230.775 28.9189H232.45C232.45 28.9189 232.559 28.1917 233.032 28.1917H239.99V15.9784L239.294 15.2513V27.3552H233.065C232.476 27.4485 231.944 27.7595 231.574 28.2266C231.383 27.9797 231.141 27.7771 230.864 27.6329C230.588 27.4886 230.283 27.4061 229.972 27.391H223.89V15.3547L223.142 16.0998V28.1937H229.936C229.936 28.1937 230.775 28.2295 230.775 28.9209M217.754 16.063C217.754 16.0128 217.739 15.9639 217.711 15.9223C217.683 15.8807 217.643 15.8484 217.597 15.8293C217.551 15.8103 217.5 15.8054 217.451 15.8153C217.402 15.8252 217.356 15.8494 217.321 15.8849C217.286 15.9205 217.262 15.9657 217.252 16.0148C217.242 16.064 217.247 16.115 217.267 16.1613C217.286 16.2075 217.318 16.2471 217.36 16.2749C217.402 16.3028 217.451 16.3176 217.501 16.3176C217.534 16.3177 217.567 16.3112 217.598 16.2985C217.629 16.2857 217.657 16.2669 217.681 16.2433C217.704 16.2196 217.723 16.1914 217.735 16.1605C217.748 16.1295 217.754 16.0964 217.754 16.063ZM217.53 15.0175C217.663 14.3472 217.65 13.6561 217.492 12.9913C217.334 12.3265 217.035 11.7036 216.615 11.1649C216.352 11.9148 216.285 12.7193 216.419 13.5026C216.553 14.2858 216.885 15.0218 217.382 15.6412C220.053 14.4823 220.278 13.0012 220.278 13.0012C219.702 13.121 219.16 13.3628 218.685 13.7103C218.211 14.0577 217.817 14.5028 217.529 15.0155M215.646 13.8596C215.518 14.6444 215.592 15.4489 215.861 16.1972C216.129 16.9455 216.584 17.6131 217.182 18.137C219.611 16.5335 219.574 15.0354 219.574 15.0354C219.028 15.253 218.536 15.5852 218.129 16.0095C217.723 16.4339 217.412 16.9406 217.218 17.4954C217.233 16.812 217.1 16.1336 216.828 15.5064C216.557 14.8791 216.154 14.3178 215.646 13.8606M218.415 8.88695C218.401 8.06185 218.686 7.25949 219.216 6.62791H216.023C216.023 6.62791 216.158 6.99895 218.415 8.88695ZM226.865 13.604V13.2568L225.204 11.5996H221.312L223.51 13.604H226.865ZM222.854 27.6297C222.865 27.7441 222.886 27.6019 222.886 27.6019V25.9506L222.612 26.249C222.747 26.6965 222.828 27.1588 222.853 27.6257M218.764 11.3807C218.764 11.4311 218.779 11.4803 218.807 11.5222C218.835 11.5641 218.875 11.5967 218.921 11.616C218.968 11.6353 219.019 11.6403 219.068 11.6305C219.117 11.6207 219.163 11.5964 219.198 11.5608C219.234 11.5252 219.258 11.4798 219.268 11.4304C219.278 11.381 219.273 11.3298 219.253 11.2833C219.234 11.2368 219.202 11.197 219.16 11.169C219.118 11.141 219.069 11.1261 219.018 11.1261C218.985 11.126 218.952 11.1325 218.921 11.1452C218.89 11.158 218.862 11.1767 218.838 11.2004C218.815 11.2241 218.796 11.2522 218.783 11.2831C218.77 11.3141 218.764 11.3473 218.764 11.3807ZM222.839 29.4759C222.889 29.4758 222.938 29.4607 222.98 29.4327C223.021 29.4047 223.054 29.365 223.073 29.3187C223.092 29.2723 223.096 29.2213 223.087 29.1722C223.077 29.1231 223.052 29.078 223.017 29.0426C222.982 29.0072 222.936 28.9831 222.887 28.9734C222.838 28.9637 222.787 28.9688 222.741 28.988C222.695 29.0073 222.655 29.0398 222.627 29.0815C222.6 29.1232 222.585 29.1722 222.585 29.2223C222.585 29.2897 222.612 29.3542 222.66 29.4017C222.707 29.4493 222.772 29.4759 222.839 29.4759ZM224.61 10.5442L226.861 12.7535V11.0415L224.61 8.80041V10.5442ZM222.862 23.6747H221.791V25.0275H222.861L222.862 23.6747ZM237.771 9.13265L236.022 11.0336L236.039 14.0675C236.013 14.322 235.959 14.5729 235.879 14.8156H237.004L240.217 11.6085L237.771 9.13265ZM228.294 18.4384V18.9556H227.731V19.5644H228.228V20.0936H227.731V20.7233H228.3V21.2425H227.179V18.4473L226.403 21.2386H225.95L225.14 18.4434H225.736L226.069 19.7853C226.111 19.9426 226.144 20.1019 226.169 20.2627H226.177C226.208 20.0996 226.219 19.9414 226.263 19.7763L226.601 18.4424L228.294 18.4384ZM228.99 24.6366H228.399L228.3 24.1661H227.731L227.632 24.6366H227.081L227.732 21.8414H228.314L228.99 24.6366ZM228.407 18.4384H228.965C229.317 18.4384 229.947 18.4742 229.947 19.2342C229.955 19.3798 229.923 19.525 229.852 19.6527C229.782 19.7805 229.677 19.8858 229.549 19.9563L230.037 21.2296H229.453L228.967 19.9365H228.96V21.2296H228.406L228.407 18.4384ZM230.148 18.4384H230.701V21.2336H230.148V18.4384ZM229.737 24.6803C229.568 24.6817 229.402 24.6329 229.261 24.5401V24.0139C229.382 24.1066 229.528 24.1588 229.68 24.1631C229.722 24.1661 229.764 24.1605 229.803 24.1465C229.842 24.1325 229.878 24.1105 229.908 24.0818C229.938 24.0531 229.962 24.0185 229.978 23.98C229.994 23.9416 230.001 23.9003 230 23.8587C230 23.6438 229.829 23.5603 229.674 23.4499C229.519 23.3739 229.389 23.2558 229.297 23.1091C229.206 22.9625 229.157 22.7931 229.158 22.6202C229.147 22.5172 229.158 22.413 229.189 22.3143C229.221 22.2156 229.273 22.1247 229.342 22.0473C229.411 21.9699 229.495 21.9077 229.589 21.8647C229.683 21.8217 229.786 21.7988 229.889 21.7976C230.062 21.7978 230.232 21.8449 230.38 21.9339V22.481C230.272 22.377 230.132 22.314 229.983 22.3029C229.946 22.2997 229.908 22.3045 229.874 22.317C229.839 22.3295 229.807 22.3495 229.78 22.3755C229.754 22.4015 229.733 22.4329 229.72 22.4676C229.707 22.5023 229.702 22.5395 229.704 22.5765C229.704 23.036 230.547 23.0619 230.547 23.8189C230.559 23.9307 230.547 24.0437 230.511 24.1504C230.476 24.2571 230.418 24.3549 230.342 24.4374C230.265 24.5198 230.172 24.5849 230.069 24.6284C229.965 24.6718 229.853 24.6926 229.741 24.6893M226.989 22.3696H226.539V24.6455H225.985V22.3656H225.551V21.8463H226.977L226.989 22.3696ZM224.226 15.2184V26.9772H230.063C230.549 27.0327 231.012 27.2164 231.404 27.5094V18.1042C230.477 18.1576 229.559 17.904 228.79 17.3826C228.022 16.8611 227.447 16.1009 227.154 15.2194L224.226 15.2184ZM224.479 30.5264C224.447 29.816 224.304 29.1151 224.054 28.4494H223.019C223.21 29.0759 223.521 29.6595 223.933 30.1683C223.348 29.8142 222.694 29.59 222.014 29.5107C221.335 29.4314 220.647 29.4989 219.995 29.7087C220.612 30.2109 221.345 30.5487 222.128 30.6905C222.91 30.8322 223.715 30.7734 224.468 30.5194M220.957 11.6792L220.437 11.1937C219.593 11.4587 218.841 11.955 218.265 12.6262C218.705 11.5249 218.707 10.2971 218.271 9.19432L217.892 8.88496C217.59 9.57025 217.443 10.3144 217.464 11.0633C217.484 11.8123 217.671 12.5473 218.011 13.215C219.127 13.0189 220.156 12.4821 220.957 11.6782M218.133 27.5233C218.654 28.1264 219.319 28.5872 220.067 28.8626C220.814 29.138 221.619 29.219 222.407 29.0979C222.736 26.2132 221.565 25.2752 221.565 25.2752C221.381 25.8327 221.319 26.4232 221.383 27.0067C221.447 27.5902 221.636 28.1531 221.937 28.6573C221.421 28.2073 220.815 27.8732 220.16 27.6775C219.504 27.4819 218.814 27.4293 218.137 27.5233M222.826 17.2775H221.755V18.6324H222.826V17.2775Z" fill="white"/>
<path d="M208.997 0.577942H207.211V33.618H208.997V0.577942Z" fill="white"/>
</g>
<defs>
<clipPath id="clip0_1638_6469">
<rect width="248" height="34" fill="white"/>
</clipPath>
</defs>
</svg>
