<svg width="166" height="44" viewBox="0 0 166 44" fill="none" xmlns="http://www.w3.org/2000/svg">
<g clip-path="url(#clip0_1637_6205)">
<path d="M38.6319 26.9305C37.6419 26.8919 36.6541 27.0519 35.7269 27.4012C34.7997 27.7505 33.9518 28.2819 33.2333 28.9641C31.6367 30.737 30.8097 33.0715 30.9342 35.4542C30.8724 36.6338 31.0437 37.8141 31.4382 38.9275C31.8327 40.0409 32.4427 41.0657 33.2333 41.9433C34.7244 43.2678 36.6495 43.9993 38.6439 43.9993C40.6383 43.9993 42.5634 43.2678 44.0546 41.9433C45.6337 40.1618 46.451 37.8318 46.3307 35.4542C46.4507 33.0763 45.6335 30.7461 44.0546 28.9641C43.3315 28.2813 42.4794 27.7496 41.5483 27.4001C40.6172 27.0506 39.6257 26.8903 38.6319 26.9287M41.7555 40.1633C41.3787 40.6243 40.9012 40.9926 40.3596 41.24C39.8181 41.4873 39.227 41.6071 38.6319 41.5901C38.0402 41.6073 37.4524 41.4874 36.9146 41.2399C36.3767 40.9924 35.9034 40.624 35.5314 40.1633C34.6222 38.7677 34.1944 37.1129 34.3132 35.4514C34.1983 33.79 34.6258 32.1362 35.5314 30.7386C35.9049 30.2814 36.3792 29.9169 36.9171 29.6738C37.4551 29.4308 38.042 29.3157 38.6319 29.3377C39.2251 29.3162 39.8153 29.4314 40.3569 29.6743C40.8985 29.9172 41.377 30.2813 41.7555 30.7386C42.6579 32.1373 43.0822 33.791 42.9645 35.4514C43.0864 37.1113 42.6618 38.7655 41.7555 40.1615" fill="white"/>
<path d="M80.4661 28.964C78.9672 27.6522 77.0431 26.9292 75.0513 26.9292C73.0595 26.9292 71.1354 27.6522 69.6365 28.964C68.0493 30.7416 67.2282 33.0741 67.3521 35.4541C67.2279 37.8338 68.049 40.1662 69.6365 41.9432C71.1293 43.2677 73.0557 43.9992 75.0513 43.9992C77.0469 43.9992 78.9734 43.2677 80.4661 41.9432C82.0475 40.1629 82.8654 37.8322 82.7431 35.4541C82.8655 33.0756 82.0477 30.7445 80.4661 28.964ZM78.168 40.1641C77.782 40.6122 77.304 40.9717 76.7664 41.2181C76.2289 41.4645 75.6445 41.5921 75.0532 41.5921C74.4618 41.5921 73.8774 41.4645 73.3399 41.2181C72.8024 40.9717 72.3243 40.6122 71.9383 40.1641C71.0329 38.7677 70.6071 37.1142 70.7256 35.4541C70.6112 33.7934 71.0366 32.1403 71.9383 30.7412C72.3289 30.3007 72.8085 29.948 73.3455 29.7065C73.8824 29.465 74.4644 29.3401 75.0532 29.3401C75.6419 29.3401 76.2239 29.465 76.7609 29.7065C77.2978 29.948 77.7774 30.3007 78.168 30.7412C79.0701 32.1403 79.4938 33.7945 79.3752 35.455C79.4977 37.1147 79.0737 38.768 78.168 40.1641Z" fill="white"/>
<path d="M23.612 43.6088C23.4699 43.4562 23.3601 43.2765 23.2891 43.0805C23.2181 42.8845 23.1874 42.6761 23.1988 42.468V36.546L28.723 27.29H24.9418C25.2185 27.5667 25.2416 27.9983 24.9096 28.5194L21.9179 33.6999C19.403 29.1457 19.4048 29.0165 18.9511 28.1883C18.5951 27.564 18.2935 27.29 17.6231 27.29H14.6406C15.0306 27.7093 15.363 28.1785 15.6292 28.6854L20.0338 36.5045V42.468C20.0454 42.6761 20.0149 42.8844 19.9441 43.0805C19.8733 43.2765 19.7635 43.4562 19.6215 43.6088H23.612Z" fill="white"/>
<path d="M51.418 43.6088C51.5604 43.4564 51.6705 43.2768 51.7417 43.0807C51.8128 42.8847 51.8436 42.6762 51.832 42.468V28.4309C51.8439 28.2226 51.8133 28.0141 51.7421 27.818C51.6709 27.6218 51.5607 27.4422 51.418 27.29H56.8222C59.4164 27.29 61.6777 28.5406 61.6777 30.969C61.692 31.5898 61.5457 32.2038 61.2531 32.7516C60.9606 33.2993 60.5315 33.7622 60.0075 34.0955C60.8804 34.3913 61.6387 34.9529 62.1762 35.7015C62.7137 36.4501 63.0035 37.3481 63.0048 38.2697C63.0055 39.0452 62.8287 39.8105 62.4879 40.5071C62.1471 41.2036 61.6513 41.8129 61.0386 42.2881C59.832 43.2108 58.3386 43.6785 56.8213 43.6088H51.418ZM54.9962 33.4527C55.7757 33.5316 56.563 33.4372 57.3017 33.176C57.639 33.0436 57.9267 32.8096 58.125 32.5064C58.3233 32.2031 58.4224 31.8457 58.4084 31.4836C58.394 31.2233 58.3277 30.9685 58.2135 30.7342C58.0993 30.4998 57.9395 30.2906 57.7434 30.1188C57.5473 29.947 57.3189 29.8161 57.0715 29.7337C56.8242 29.6513 56.5629 29.6192 56.303 29.6391C55.8597 29.6237 55.4169 29.6801 54.9916 29.806L54.9962 33.4527ZM58.5348 40.8614C58.9263 40.6038 59.2403 40.2446 59.4432 39.8221C59.6461 39.3997 59.7303 38.93 59.6866 38.4634C59.6866 36.6751 58.1133 35.8497 56.5981 35.8497C56.0626 35.8435 55.5274 35.8743 54.9962 35.9419V41.1703C56.1762 41.4866 57.4301 41.3738 58.5348 40.8521" fill="white"/>
<path d="M0.413156 42.468C0.424532 42.6761 0.393806 42.8845 0.322817 43.0805C0.251827 43.2765 0.142033 43.4562 0 43.6088H3.99138C3.84909 43.4563 3.73907 43.2767 3.66792 43.0806C3.59676 42.8846 3.56594 42.6762 3.5773 42.468V36.0932L8.21239 42.7096C8.34026 42.9809 8.54324 43.2097 8.79726 43.3691C9.05127 43.5285 9.34566 43.6117 9.64552 43.6088H12.8456C12.4071 43.1912 12.0204 42.7224 11.6938 42.2125L6.46478 34.802L11.8137 27.29H7.87762C8.08143 27.5575 8.10726 27.8904 7.72453 28.5333L3.5773 34.5069V28.43C3.56569 28.2218 3.5964 28.0135 3.66757 27.8176C3.73874 27.6217 3.8489 27.4422 3.99138 27.29H0C0.142227 27.4423 0.252155 27.6218 0.32316 27.8177C0.394166 28.0137 0.424779 28.2219 0.413156 28.43V42.468Z" fill="white"/>
<path d="M87.874 5.31224C87.5032 4.97043 87.0677 4.70638 86.5932 4.53567C86.1186 4.36495 85.6147 4.29104 85.1112 4.3183C84.6076 4.34555 84.1146 4.47341 83.6612 4.69433C83.2079 4.91526 82.8034 5.22477 82.4717 5.6046C80.5848 7.58842 79.1166 8.32716 77.3672 8.25153C74.9233 8.14731 73.7207 6.25941 72.4655 3.87625C71.1624 1.3861 69.1603 0.00268555 66.6638 0.00268555C62.7361 0.00268555 60.3789 3.18362 60.3789 6.72885C60.3789 12.186 64.2163 15.4499 66.8732 16.8259C69.001 17.8931 71.3415 18.4681 73.7216 18.5082C73.5593 19.9516 73.2443 21.3737 72.7819 22.7507H77.2749C76.7947 21.328 76.4751 19.8561 76.3223 18.3625C82.9014 17.5066 86.0287 14.5166 87.7394 11.6695C88.4644 10.5652 88.871 9.28231 88.9143 7.96194C88.9278 7.47312 88.8427 6.98658 88.6642 6.53135C88.4856 6.07611 88.2163 5.6615 87.874 5.31224ZM66.6934 8.7265C66.239 8.75721 65.7858 8.65233 65.3911 8.42517C64.9964 8.19801 64.678 7.85879 64.4762 7.45049C64.2745 7.04219 64.1985 6.5832 64.2579 6.13167C64.3173 5.68014 64.5094 5.25639 64.8098 4.91414C65.1102 4.57188 65.5055 4.32652 65.9455 4.20914C66.3855 4.09175 66.8504 4.10764 67.2814 4.25478C67.7124 4.40192 68.09 4.67369 68.3663 5.03565C68.6427 5.39761 68.8054 5.83347 68.8338 6.288C68.8718 6.89486 68.6679 7.49206 68.2668 7.94902C67.8657 8.40598 67.3 8.68551 66.6934 8.7265Z" fill="white"/>
<path d="M97.1292 36.1292H95.2147V41.4544H93.907V36.1292H91.9897V41.4544H89.3945V42.9558H101.233V41.4544H97.1255L97.1292 36.1292Z" fill="white"/>
<path d="M98.2087 39.9972H99.4565C99.9268 37.5919 100.255 34.589 100.452 32.5747C100.56 31.4901 100.565 30.9202 99.5865 30.9202H90.6797V32.4216H98.2069L98.2087 39.9972Z" fill="white"/>
<path d="M109.356 38.8906H107.22V41.4499H102.332V42.9505H114.174V41.4499H109.356V38.8906Z" fill="white"/>
<path d="M105.184 38.0836H111.321C111.483 38.1066 111.647 38.0916 111.802 38.0398C111.957 37.988 112.098 37.9009 112.214 37.7853C112.329 37.6696 112.416 37.5287 112.467 37.3737C112.519 37.2186 112.534 37.0537 112.51 36.892V30.793H110.37V33.2638H106.128V30.793H103.999V36.892C103.976 37.0537 103.99 37.2187 104.041 37.3738C104.093 37.529 104.18 37.67 104.295 37.7857C104.411 37.9014 104.551 37.9886 104.706 38.0403C104.861 38.092 105.026 38.1068 105.188 38.0836M110.375 34.7634V36.7924H106.132V34.7634H110.375Z" fill="white"/>
<path d="M121.884 32.4273V30.9314H115.488V32.4273H117.627C117.613 35.7235 117.225 37.3228 115.094 39.5289L116.005 40.4401C117.162 39.6586 118.091 38.5834 118.696 37.3246C119.301 38.5836 120.23 39.6589 121.388 40.4401L122.299 39.5289C120.167 37.3255 119.78 35.7272 119.766 32.4273H121.884Z" fill="white"/>
<path d="M125.41 30.3374H123.273V43.6099H125.409V36.785H127.162V35.2928H125.409L125.41 30.3374Z" fill="white"/>
<path d="M151.476 30.3252H149.34V38.9134H151.476V30.3252Z" fill="white"/>
<path d="M144.345 34.3243C145.078 35.5749 146.117 36.6185 147.364 37.3567L148.332 36.3929C147.399 35.7429 146.644 34.8703 146.135 33.8543C145.625 32.8384 145.377 31.7112 145.414 30.5752H143.276C143.312 31.7114 143.063 32.8385 142.553 33.8543C142.043 34.8702 141.288 35.7428 140.355 36.3929L141.325 37.3567C142.573 36.619 143.612 35.5753 144.344 34.3243" fill="white"/>
<path d="M145.105 38.7881H142.972V42.3186C142.948 42.4796 142.963 42.6439 143.014 42.7985C143.064 42.9531 143.151 43.0937 143.266 43.2091C143.38 43.3245 143.52 43.4115 143.675 43.4633C143.829 43.5151 143.993 43.5302 144.154 43.5074H151.476V42.0059H145.104L145.105 38.7881Z" fill="white"/>
<path d="M138.14 30.3384H136.004V38.9156H138.14V35.6608H139.892V34.1631H138.14V30.3384Z" fill="white"/>
<path d="M132.058 38.7881H129.925V42.3186C129.902 42.4796 129.916 42.644 129.967 42.7986C130.018 42.9531 130.104 43.0937 130.219 43.2091C130.334 43.3245 130.474 43.4115 130.628 43.4633C130.783 43.515 130.947 43.5301 131.108 43.5074H138.431V42.0059H132.058V38.7881Z" fill="white"/>
<path d="M131.368 34.6214C132.075 35.9031 133.106 36.977 134.357 37.7359L135.326 36.773C134.394 36.0895 133.644 35.1883 133.141 34.1482C132.637 33.1081 132.396 31.9606 132.438 30.8059H130.299C130.34 31.9607 130.099 33.1081 129.595 34.1482C129.092 35.1883 128.342 36.0894 127.41 36.773L128.378 37.7359C129.631 36.9784 130.662 35.9042 131.368 34.6214Z" fill="white"/>
<path d="M162.115 38.5686H155.262V39.8598H162.115V43.6153H164.251V38.5704H162.115V38.5686Z" fill="white"/>
<path d="M164.249 30.3384H162.113V37.9158H164.249V35.1582H166.001V33.6641H164.249V30.3384Z" fill="white"/>
<path d="M160.264 31.9918V30.5632H153.753V36.1661C153.73 36.3272 153.744 36.4916 153.795 36.6463C153.846 36.801 153.932 36.9416 154.047 37.057C154.162 37.1725 154.302 37.2595 154.457 37.3112C154.611 37.3629 154.775 37.3779 154.937 37.3549H160.264V35.9318H155.886V34.5788H160.264V33.1382H155.886V31.9918H160.264Z" fill="white"/>
</g>
<defs>
<clipPath id="clip0_1637_6205">
<rect width="166" height="44" fill="white"/>
</clipPath>
</defs>
</svg>
