<svg width="232" height="40" viewBox="0 0 232 40" fill="none" xmlns="http://www.w3.org/2000/svg">
<g clip-path="url(#clip0_1637_7153)">
<path d="M10.9084 1.51282L25.6255 29.5416L20.1779 40L0 1.51282H10.9084Z" fill="#58616A"/>
<path d="M28.1896 1.56519L42.7429 29.5416L37.3018 40L17.2812 1.56519H28.1896Z" fill="white"/>
<path d="M40.2368 0.982304C35.5627 3.03207 35.8446 6.09036 30.8362 10.203C29.335 11.4342 26.2276 13.9162 21.7109 14.9836C16.6435 16.182 13.6607 14.7217 13.11 15.8546C12.3561 17.4001 16.8532 22.2528 22.6877 24.1061C32.7176 27.2953 42.2428 20.1834 43.2589 19.3975C43.2589 19.3975 50.6601 13.7001 51.5123 5.93319C51.5975 5.16043 51.5123 4.58414 51.414 4.20431C51.06 2.70464 50.0766 1.7878 49.7816 1.5193C48.4443 0.30123 46.8841 0.13751 45.6123 0.0327294C43.1933 -0.170283 41.2463 0.543535 40.2368 0.982304Z" fill="#8A949E"/>
<path d="M63.7541 11.6831C64.4359 11.6831 65.0783 11.8271 65.6814 12.1087C66.2845 12.3903 66.809 12.7702 67.2744 13.2417C67.7202 13.7263 68.0742 14.296 68.3364 14.9444C68.5986 15.5927 68.7232 16.2803 68.7232 17.0138C68.7232 17.7473 68.5921 18.4349 68.3364 19.0832C68.0742 19.7315 67.7268 20.2947 67.2744 20.7662C66.8155 21.2509 66.2845 21.6372 65.6814 21.9123C65.0783 22.1873 64.4359 22.3249 63.7541 22.3249C63.0723 22.3249 62.4299 22.1873 61.8268 21.9123C61.2237 21.6372 60.6992 21.2574 60.2535 20.7662C59.8077 20.2947 59.4537 19.7315 59.1915 19.0832C58.9292 18.4349 58.8047 17.7473 58.8047 17.0138C58.8047 16.2803 58.9358 15.5927 59.1915 14.9444C59.4471 14.296 59.8011 13.7328 60.2535 13.2417C60.6992 12.7702 61.2237 12.3903 61.8268 12.1087C62.4299 11.8271 63.0723 11.6831 63.7541 11.6831ZM63.7541 20.0852C64.1212 20.0852 64.4621 20.0066 64.7768 19.8429C65.0914 19.6791 65.3799 19.463 65.6224 19.1814C65.8584 18.8998 66.042 18.5724 66.1797 18.1991C66.3173 17.8258 66.3829 17.4329 66.3829 17.0072C66.3829 16.5816 66.3173 16.1886 66.1797 15.8219C66.042 15.4552 65.8584 15.1343 65.6224 14.8527C65.3733 14.5711 65.0914 14.3484 64.7768 14.1913C64.4556 14.0341 64.1147 13.949 63.7541 13.949C63.3936 13.949 63.0461 14.0275 62.7315 14.1913C62.4102 14.355 62.1349 14.5711 61.8989 14.8527C61.6629 15.1343 61.4793 15.4552 61.3417 15.8219C61.204 16.1886 61.1385 16.5816 61.1385 17.0072C61.1385 17.4329 61.204 17.8258 61.3417 18.1991C61.4793 18.5724 61.6629 18.8998 61.8989 19.1814C62.1349 19.463 62.4102 19.6857 62.7315 19.8429C63.0527 20 63.3936 20.0852 63.7541 20.0852ZM72.9974 10.8514V27.6032C72.9974 27.7538 72.945 27.8913 72.8466 27.9961C72.7483 28.1074 72.6237 28.1598 72.4861 28.1598H70.703V20.9889H68.9723C68.8805 20.9889 68.7953 20.9562 68.7232 20.8841C68.6511 20.8121 68.6183 20.7269 68.6183 20.6222V18.7165H70.703V15.5796H68.9723C68.8805 15.5796 68.7953 15.5469 68.7232 15.4748C68.6511 15.4028 68.6183 15.3177 68.6183 15.2129V13.3072H70.703V12.1742C70.703 11.9188 70.6899 11.6765 70.6571 11.4408C70.6243 11.2116 70.585 10.9889 70.526 10.7859C70.88 10.8252 71.2471 10.8448 71.6207 10.8448H72.9974V10.8514Z" fill="white"/>
<path d="M85.1333 17.2955C85.2644 17.4985 85.402 17.6818 85.5594 17.8456C85.7102 18.0027 85.8741 18.1403 86.0379 18.2581L84.5564 19.5875C84.4384 19.6792 84.3073 19.712 84.1696 19.6923C84.0254 19.6727 83.9074 19.6006 83.8156 19.4697L81.1803 14.9314C81.1803 14.9314 81.1278 14.8921 81.0951 14.8921C81.0623 14.8921 81.0295 14.9052 81.0099 14.9314L78.3745 19.4697C78.2893 19.6006 78.1779 19.6727 78.0402 19.6923C77.9025 19.712 77.7714 19.6792 77.6534 19.5875L76.1719 18.2581C76.4669 18.042 76.7684 17.7211 77.07 17.2955L80.6559 11.2968C80.6821 11.2444 80.7345 11.192 80.8132 11.1331C80.8984 11.0741 80.9902 11.0479 81.0951 11.0479C81.2131 11.0479 81.3114 11.0741 81.3966 11.1331C81.4819 11.192 81.5343 11.2444 81.554 11.2968L85.1398 17.2955H85.1333ZM84.7793 28.376C84.0123 28.376 83.2912 28.2778 82.6094 28.0879C81.9276 27.898 81.3311 27.6229 80.8263 27.2824C80.3084 26.9353 79.902 26.5162 79.607 26.0316C79.312 25.5469 79.1677 24.9968 79.1677 24.3944C79.1677 23.7919 79.312 23.2614 79.607 22.7703C79.902 22.2791 80.3084 21.86 80.8263 21.5129C81.3311 21.1658 81.9276 20.8973 82.6094 20.7074C83.2912 20.5175 84.0188 20.4192 84.7793 20.4192C85.5397 20.4192 86.2805 20.5175 86.9623 20.7074C87.6375 20.8973 88.234 21.1658 88.7585 21.5129C89.2633 21.86 89.6631 22.2791 89.9581 22.7703C90.2531 23.2614 90.3974 23.805 90.3974 24.3944C90.3974 24.9837 90.2531 25.5404 89.9581 26.0316C89.6631 26.5162 89.2633 26.9353 88.7585 27.2824C88.2406 27.6295 87.644 27.898 86.9623 28.0879C86.287 28.2778 85.5594 28.376 84.7793 28.376ZM84.7793 22.5672C84.3794 22.5672 83.9795 22.6 83.5862 22.6655C83.1928 22.731 82.8323 22.8292 82.5176 22.9733C82.1964 23.1304 81.9407 23.3204 81.7375 23.5496C81.5343 23.7788 81.436 24.0604 81.436 24.3944C81.436 24.7283 81.5343 25.0099 81.7375 25.2522C81.9407 25.488 82.1964 25.6845 82.5176 25.8416C82.8388 25.9857 83.1928 26.0839 83.5862 26.1494C83.9795 26.2149 84.3794 26.2477 84.7793 26.2477C85.1792 26.2477 85.5791 26.2149 85.9724 26.1494C86.3657 26.0839 86.7263 25.9857 87.0409 25.8416C87.3622 25.6845 87.6178 25.4946 87.821 25.2522C88.0243 25.0165 88.1226 24.7283 88.1226 24.3944C88.1226 24.0604 88.0243 23.7788 87.821 23.5496C87.6178 23.3204 87.3622 23.1239 87.0409 22.9733C86.7197 22.8292 86.3657 22.731 85.9724 22.6655C85.5791 22.6 85.1792 22.5672 84.7793 22.5672ZM88.3848 16.0054H85.7167C85.6249 16.0054 85.5397 15.9726 85.4676 15.9071C85.3955 15.8416 85.3627 15.7631 85.3627 15.6583V13.949H88.3848V11.9517C88.3848 11.6963 88.3717 11.4867 88.3389 11.3361C88.3127 11.1789 88.2668 11.0021 88.2078 10.7991C88.5356 10.8384 88.8961 10.858 89.2829 10.858H90.6596V19.7775C90.6596 19.9346 90.6071 20.0656 90.5088 20.1704C90.4105 20.2817 90.2859 20.3341 90.1482 20.3341H88.3848V16.0054Z" fill="white"/>
<path d="M100.964 14.414H95.3462C95.2544 14.414 95.1692 14.3813 95.0971 14.3158C95.025 14.2503 94.9922 14.1717 94.9922 14.0669V12.1023H103.049C103.193 12.1023 103.259 12.1809 103.259 12.3315V18.5397C103.259 19.5548 103.193 20.4847 103.062 21.3361C102.931 22.1874 102.8 22.8619 102.675 23.3466H100.394C100.479 23.0126 100.551 22.6393 100.623 22.2333C100.696 21.8207 100.754 21.395 100.8 20.9431C100.846 20.5044 100.886 20.0656 100.918 19.6268C100.945 19.1815 100.964 18.7624 100.964 18.3695V14.4075V14.414ZM108.333 10.8515V27.6033C108.333 27.7539 108.28 27.8914 108.182 27.9962C108.084 28.1075 107.959 28.1599 107.821 28.1599H106.038V12.2005C106.038 11.6504 105.979 11.1789 105.861 10.7991C106.215 10.8384 106.582 10.858 106.956 10.858H108.333V10.8515Z" fill="white"/>
<path d="M120.697 15.357C120.697 15.9595 120.579 16.5227 120.349 17.0401C120.12 17.5574 119.812 18.0158 119.425 18.4153C119.025 18.8148 118.559 19.1226 118.035 19.3452C117.511 19.5679 116.947 19.6792 116.35 19.6792C115.754 19.6792 115.183 19.5679 114.652 19.3452C114.121 19.1226 113.662 18.8082 113.276 18.4153C112.876 18.0158 112.561 17.5574 112.338 17.0401C112.115 16.5227 112.004 15.9595 112.004 15.357C112.004 14.7545 112.115 14.211 112.338 13.6871C112.561 13.1632 112.876 12.6982 113.276 12.3053C113.662 11.9189 114.121 11.6177 114.652 11.395C115.183 11.1723 115.747 11.061 116.35 11.061C116.953 11.061 117.511 11.1723 118.035 11.395C118.559 11.6177 119.018 11.9255 119.425 12.3053C119.812 12.7048 120.12 13.1632 120.349 13.6871C120.579 14.211 120.697 14.7676 120.697 15.357ZM126 20.7008V27.4526C126 27.6294 125.941 27.7801 125.83 27.898C125.718 28.0158 125.58 28.0682 125.417 28.0682H114.266C114.102 28.0682 113.964 28.0093 113.853 27.898C113.741 27.7801 113.682 27.636 113.682 27.4526V22.0892C113.682 21.8207 113.669 21.5653 113.636 21.323C113.603 21.0807 113.564 20.858 113.505 20.6484C113.669 20.6615 113.833 20.6681 113.997 20.6746C114.161 20.6812 114.331 20.6812 114.508 20.6812H115.957V22.2594L122.88 22.4494C122.939 22.4494 122.991 22.469 123.03 22.5148C123.07 22.5607 123.089 22.6131 123.089 22.6786C123.089 22.7048 123.07 22.8554 123.037 23.137C123.004 23.4186 122.893 23.8246 122.722 24.3485C122.637 24.5777 122.48 24.6956 122.244 24.6956H115.957V25.4094C115.957 25.5142 115.99 25.5993 116.055 25.6714C116.121 25.7434 116.199 25.7761 116.291 25.7761H123.378C123.47 25.7761 123.548 25.7434 123.607 25.6714C123.666 25.5993 123.692 25.5142 123.692 25.4094V22.0826C123.692 21.8141 123.679 21.5587 123.647 21.3164C123.614 21.0741 123.574 20.8515 123.515 20.6419C123.692 20.655 123.876 20.6681 124.066 20.6812C124.256 20.6943 124.446 20.7008 124.65 20.7008H125.993H126ZM114.2 15.357C114.2 15.6648 114.259 15.953 114.37 16.2215C114.482 16.49 114.639 16.7192 114.836 16.9156C115.026 17.1186 115.249 17.2824 115.518 17.3937C115.786 17.505 116.062 17.564 116.357 17.564C116.652 17.564 116.927 17.505 117.189 17.3937C117.452 17.2758 117.681 17.1186 117.878 16.9156C118.068 16.7257 118.219 16.49 118.33 16.2215C118.441 15.953 118.5 15.6648 118.5 15.357C118.5 15.0492 118.441 14.7611 118.33 14.4991C118.219 14.2372 118.068 14.0014 117.878 13.7984C117.674 13.6085 117.445 13.4513 117.189 13.34C116.927 13.2221 116.652 13.1697 116.357 13.1697C116.062 13.1697 115.78 13.2287 115.518 13.34C115.255 13.4579 115.026 13.6085 114.836 13.7984C114.633 14.0014 114.482 14.2372 114.37 14.4991C114.259 14.7611 114.2 15.0492 114.2 15.357ZM123.719 14.1782V12.1612C123.692 11.6111 123.633 11.1462 123.542 10.7794C123.706 10.8056 123.883 10.8187 124.066 10.8187H126V19.4369C126 19.5941 125.948 19.7251 125.849 19.8429C125.751 19.9608 125.626 20.0132 125.489 20.0132L123.725 19.9936V16.4965H121.378C121.287 16.4965 121.201 16.4638 121.129 16.3917C121.057 16.3197 121.024 16.2346 121.024 16.1298V14.1848H123.725L123.719 14.1782Z" fill="white"/>
<path d="M138.38 18.0093C138.38 18.0747 138.407 18.1337 138.459 18.1795C138.512 18.2319 138.571 18.2581 138.63 18.2581H144.811C144.956 18.2581 145.021 18.3367 145.021 18.4873L144.648 19.987C144.615 20.1049 144.549 20.19 144.464 20.2555C144.379 20.321 144.287 20.3537 144.189 20.3537H129.616C129.511 20.3537 129.426 20.321 129.36 20.2555C129.295 20.19 129.262 20.1114 129.262 20.0066V18.2581H135.778C135.837 18.2581 135.896 18.2319 135.955 18.1795C136.014 18.1271 136.047 18.0616 136.06 17.9896V17.7211C136.034 17.171 135.975 16.706 135.883 16.3393H138.374V18.0093H138.38ZM138.643 13.2024L142.845 15.5076C142.976 15.5993 143.173 15.6779 143.435 15.7565C143.697 15.8351 143.913 15.9071 144.077 15.966L142.753 17.6556C142.661 17.7604 142.537 17.7997 142.392 17.7735C142.248 17.7473 142.124 17.7015 142.032 17.636L137.456 15.1736C137.364 15.0688 137.253 15.0623 137.141 15.154L132.441 17.6556C132.323 17.7342 132.199 17.78 132.061 17.7997C131.923 17.8193 131.805 17.7735 131.7 17.6556L130.396 15.966C130.54 15.9005 130.724 15.8416 130.96 15.7827C131.196 15.7237 131.418 15.632 131.628 15.5011L135.922 13.1959H131.451C131.346 13.1959 131.261 13.1631 131.196 13.0977C131.13 13.0322 131.097 12.9536 131.097 12.8488V10.9235H143.533C143.684 10.9235 143.763 11.002 143.763 11.1527C143.763 11.1658 143.743 11.3164 143.71 11.6045C143.677 11.8927 143.566 12.2987 143.376 12.8226C143.291 13.0649 143.14 13.1893 142.917 13.1893H138.643V13.2024ZM137.246 28.376C136.519 28.376 135.817 28.2974 135.142 28.1468C134.473 27.9962 133.877 27.7604 133.359 27.4526C132.828 27.1317 132.408 26.7322 132.094 26.2607C131.779 25.7892 131.628 25.226 131.628 24.5908C131.628 23.9556 131.786 23.3924 132.094 22.9208C132.408 22.4493 132.828 22.0499 133.359 21.729C133.877 21.4212 134.473 21.192 135.142 21.0348C135.811 20.8776 136.512 20.8056 137.246 20.8056C137.981 20.8056 138.682 20.8842 139.357 21.0348C140.032 21.192 140.629 21.4212 141.153 21.729C141.671 22.0499 142.084 22.4493 142.399 22.9208C142.714 23.3924 142.864 23.9556 142.864 24.5908C142.864 25.226 142.707 25.7892 142.399 26.2607C142.084 26.7322 141.671 27.1317 141.153 27.4526C140.636 27.7604 140.039 27.9896 139.357 28.1468C138.682 28.3039 137.974 28.376 137.246 28.376ZM137.246 22.947C136.846 22.947 136.44 22.9798 136.027 23.0453C135.614 23.1108 135.24 23.209 134.899 23.3334C134.559 23.4775 134.277 23.6478 134.06 23.8508C133.844 24.0538 133.733 24.3026 133.733 24.5842C133.733 24.8658 133.844 25.1278 134.06 25.3373C134.277 25.5404 134.559 25.7172 134.899 25.8547C135.24 25.9857 135.621 26.0774 136.027 26.1428C136.44 26.2083 136.846 26.2411 137.246 26.2411C137.646 26.2411 138.053 26.2083 138.466 26.1428C138.879 26.0774 139.252 25.9857 139.593 25.8547C139.934 25.7106 140.216 25.5404 140.432 25.3373C140.649 25.1343 140.76 24.8855 140.76 24.5842C140.76 24.283 140.649 24.0603 140.432 23.8508C140.216 23.6478 139.934 23.4709 139.593 23.3334C139.252 23.2024 138.872 23.1108 138.466 23.0453C138.053 22.9798 137.646 22.947 137.246 22.947Z" fill="white"/>
<path d="M156.828 13.3531C156.743 13.5954 156.592 13.7198 156.369 13.7198H155.36C155.701 14.0538 155.976 14.4336 156.179 14.8527C156.382 15.2719 156.487 15.7303 156.487 16.2149C156.487 16.7388 156.369 17.2299 156.14 17.6753C155.91 18.1271 155.602 18.5135 155.215 18.8475C154.816 19.1946 154.35 19.4631 153.826 19.653C153.301 19.8429 152.737 19.9411 152.141 19.9411C151.544 19.9411 150.981 19.8429 150.456 19.653C149.932 19.4631 149.473 19.188 149.086 18.8475C148.699 18.5135 148.391 18.1206 148.162 17.6753C147.932 17.2234 147.814 16.7388 147.814 16.2149C147.814 15.7303 147.913 15.2719 148.116 14.8527C148.319 14.4271 148.588 14.0538 148.929 13.7198H147.729C147.637 13.7198 147.552 13.6871 147.48 13.6216C147.408 13.5561 147.375 13.4775 147.375 13.3727V11.8337H151.158V11.4867C151.144 11.2575 151.131 11.0348 151.105 10.8252C151.079 10.6157 151.04 10.4192 150.981 10.2358C151.144 10.2489 151.321 10.2555 151.505 10.262C151.689 10.2686 151.872 10.2686 152.062 10.2686H153.262V11.8272H156.992C157.143 11.8272 157.221 11.9058 157.221 12.0564C157.221 12.0695 157.202 12.1677 157.169 12.3445C157.136 12.5214 157.025 12.8554 156.835 13.3465L156.828 13.3531ZM160.886 21.0872V27.4722C160.886 27.6491 160.827 27.7997 160.715 27.9241C160.604 28.0485 160.466 28.1075 160.302 28.1075H149.119C148.955 28.1075 148.817 28.0485 148.706 27.9241C148.594 27.7997 148.535 27.6491 148.535 27.4722V22.4755C148.535 21.9123 148.476 21.4277 148.358 21.0348C148.686 21.0741 149.027 21.0937 149.381 21.0937H150.83V22.672H157.949C158.093 22.672 158.159 22.744 158.159 22.8815C158.159 22.9077 158.146 23.0322 158.113 23.2548C158.08 23.4775 157.982 23.8508 157.805 24.3616C157.72 24.6039 157.562 24.7283 157.326 24.7283H150.823V25.4618C150.823 25.5666 150.849 25.6451 150.908 25.7106C150.967 25.7761 151.046 25.8089 151.138 25.8089H158.257C158.349 25.8089 158.434 25.7761 158.493 25.7106C158.559 25.6451 158.592 25.5666 158.592 25.4618V22.4821C158.592 21.9713 158.526 21.4867 158.395 21.0413C158.762 21.0806 159.136 21.1003 159.522 21.1003H160.866L160.886 21.0872ZM152.141 14.2568C151.846 14.2568 151.571 14.3026 151.308 14.4009C151.046 14.4991 150.823 14.6301 150.64 14.7938C150.436 14.9706 150.286 15.1802 150.174 15.4094C150.063 15.6386 150.004 15.8809 150.004 16.1428C150.004 16.4048 150.056 16.6406 150.174 16.8763C150.286 17.1055 150.443 17.3085 150.64 17.4723C150.83 17.6491 151.053 17.7866 151.308 17.8848C151.571 17.9831 151.846 18.0289 152.141 18.0289C152.436 18.0289 152.718 17.9831 152.98 17.8848C153.242 17.7866 153.478 17.6491 153.675 17.4723C153.865 17.3085 154.016 17.1055 154.127 16.8763C154.239 16.6471 154.298 16.4048 154.298 16.1428C154.298 15.8809 154.239 15.6451 154.127 15.4094C154.016 15.1802 153.865 14.9706 153.675 14.7938C153.472 14.6301 153.242 14.4926 152.98 14.4009C152.718 14.3026 152.436 14.2568 152.141 14.2568ZM163.167 14.1258C163.318 14.1258 163.397 14.211 163.397 14.3747C163.397 14.3878 163.377 14.5384 163.344 14.8265C163.311 15.1147 163.2 15.5273 163.01 16.0643C162.925 16.3066 162.767 16.431 162.531 16.431H160.886V19.5679C160.886 19.7316 160.833 19.8691 160.735 19.9804C160.637 20.0918 160.512 20.1442 160.375 20.1442H158.611V12.2005C158.598 11.9451 158.578 11.6962 158.559 11.4605C158.533 11.2247 158.493 11.0086 158.434 10.8187C158.598 10.8449 158.769 10.858 158.946 10.858H160.886V14.1258H163.167Z" fill="white"/>
<path d="M174.373 21.6046C174.563 22.0564 174.786 22.4363 175.042 22.7572L173.416 23.7984C173.285 23.8639 173.154 23.8639 173.016 23.805C172.878 23.746 172.786 23.6478 172.727 23.5037L170.289 17.4068C170.197 17.2627 170.092 17.2496 169.987 17.3675L167.549 23.5037C167.49 23.6478 167.391 23.746 167.26 23.805C167.122 23.8639 166.991 23.8574 166.86 23.7984L165.215 22.7572C165.464 22.4494 165.693 22.063 165.903 21.6046L169.155 14.1062C169.187 14.0276 169.155 13.9883 169.05 13.9883H165.975C165.883 13.9883 165.798 13.9556 165.726 13.8901C165.654 13.8246 165.621 13.746 165.621 13.6412V11.7159H174.524C174.674 11.7159 174.753 11.7945 174.753 11.9451C174.753 11.9713 174.733 12.1219 174.701 12.4035C174.668 12.6851 174.556 13.0911 174.366 13.6151C174.281 13.8574 174.13 13.9818 173.907 13.9818H171.22C171.089 13.9818 171.049 14.0211 171.095 14.0997L174.366 21.598L174.373 21.6046ZM179.178 10.8515V27.6033C179.178 27.7539 179.126 27.8914 179.027 27.9962C178.929 28.1075 178.804 28.1599 178.667 28.1599H176.884V12.2005C176.884 11.6504 176.825 11.1789 176.707 10.7991C177.061 10.8384 177.428 10.858 177.801 10.858H179.178V10.8515Z" fill="white"/>
<path d="M193.009 18.6838C193.068 18.6838 193.12 18.7034 193.16 18.7492C193.199 18.7951 193.219 18.8475 193.219 18.913C193.219 18.9392 193.206 19.0898 193.173 19.3779C193.14 19.6595 193.042 20.0394 192.865 20.5109C192.779 20.7663 192.629 20.8973 192.406 20.8973H189.561C189.469 20.8973 189.39 20.9234 189.331 20.9824C189.272 21.0413 189.246 21.1134 189.246 21.205V23.1828C189.246 23.3465 189.194 23.4906 189.095 23.5954C188.997 23.7067 188.872 23.7591 188.735 23.7591H187.129V21.1985C187.129 21.1068 187.096 21.0348 187.03 20.9758C186.965 20.9169 186.893 20.8907 186.807 20.8907H182.795C182.704 20.8907 182.618 20.858 182.546 20.7859C182.474 20.7139 182.441 20.6288 182.441 20.524V18.6772H193.009V18.6838ZM192.019 14.1062C192.019 14.617 191.901 15.1016 191.672 15.5469C191.442 15.9988 191.134 16.3851 190.747 16.7191C190.347 17.0662 189.882 17.3347 189.357 17.5246C188.833 17.7145 188.269 17.8128 187.673 17.8128C187.076 17.8128 186.512 17.7145 185.988 17.5246C185.464 17.3347 185.005 17.0662 184.618 16.7191C184.218 16.3851 183.903 15.9922 183.674 15.5469C183.444 15.1016 183.326 14.617 183.326 14.1062C183.326 13.5954 183.444 13.1107 183.674 12.6654C183.903 12.2201 184.218 11.8272 184.618 11.4932C185.005 11.1592 185.464 10.8973 185.988 10.7073C186.512 10.5174 187.076 10.4192 187.673 10.4192C188.269 10.4192 188.833 10.5174 189.357 10.7073C189.882 10.8973 190.341 11.1592 190.747 11.4932C191.134 11.8272 191.442 12.2201 191.672 12.6654C191.901 13.1173 192.019 13.5954 192.019 14.1062ZM196.719 25.6582C196.778 25.6582 196.831 25.6779 196.87 25.7237C196.909 25.7695 196.929 25.8219 196.929 25.8874C196.929 25.9136 196.916 26.0708 196.883 26.3589C196.85 26.6471 196.746 27.0597 196.555 27.5967C196.47 27.839 196.3 27.9634 196.044 27.9634H184.788C184.624 27.9634 184.487 27.9045 184.375 27.78C184.264 27.6556 184.205 27.505 184.205 27.3282V23.4054C184.205 23.1369 184.192 22.8815 184.159 22.6392C184.126 22.3969 184.087 22.1743 184.028 21.9647C184.218 21.9909 184.402 22.004 184.585 22.004H186.499V25.3111C186.499 25.4159 186.526 25.4945 186.585 25.56C186.644 25.6255 186.722 25.6582 186.814 25.6582H196.706H196.719ZM185.516 14.1062C185.516 14.3485 185.568 14.5711 185.686 14.7807C185.798 14.9837 185.955 15.1671 186.152 15.3177C186.342 15.4749 186.565 15.5927 186.834 15.6844C187.096 15.7761 187.378 15.8219 187.673 15.8219C187.968 15.8219 188.243 15.7761 188.505 15.6844C188.767 15.5927 188.997 15.4749 189.194 15.3177C189.384 15.1671 189.534 14.9837 189.646 14.7807C189.757 14.5777 189.816 14.3485 189.816 14.1062C189.816 13.877 189.757 13.6543 189.646 13.4513C189.534 13.2483 189.384 13.0649 189.194 12.9143C188.99 12.7571 188.761 12.6392 188.505 12.5475C188.243 12.4559 187.968 12.41 187.673 12.41C187.378 12.41 187.096 12.4559 186.834 12.5475C186.571 12.6392 186.342 12.7571 186.152 12.9143C185.949 13.0649 185.798 13.2483 185.686 13.4513C185.575 13.6543 185.516 13.877 185.516 14.1062ZM194.366 15.4683V11.9516C194.366 11.6962 194.353 11.4866 194.32 11.336C194.294 11.1788 194.248 11.0086 194.189 10.8187C194.366 10.8318 194.543 10.8383 194.72 10.8449C194.897 10.8514 195.087 10.8514 195.284 10.8514H196.66V23.3727C196.66 23.5364 196.608 23.6805 196.51 23.7853C196.411 23.8966 196.287 23.949 196.149 23.949H194.366V17.5836H192.439C192.347 17.5836 192.262 17.5508 192.203 17.4853C192.137 17.4198 192.104 17.3413 192.104 17.2365V15.4683H194.366Z" fill="white"/>
<path d="M207.654 17.5246C207.785 17.7277 207.923 17.9372 208.08 18.1468C208.231 18.3563 208.388 18.5201 208.539 18.6379L207.057 19.9673C206.939 20.059 206.808 20.0918 206.658 20.0721C206.513 20.0525 206.402 19.9804 206.33 19.8495L204.278 15.3112C204.278 15.3112 204.225 15.2719 204.193 15.2719C204.16 15.2719 204.127 15.285 204.107 15.3112L202.043 19.8495C201.984 19.9673 201.879 20.0328 201.728 20.059C201.577 20.0852 201.439 20.059 201.321 19.9608L199.84 18.6314C199.991 18.5135 200.148 18.3498 200.299 18.1402C200.45 17.9307 200.594 17.7211 200.725 17.5181L203.767 11.2902C203.793 11.2378 203.839 11.1854 203.917 11.1265C203.996 11.0675 204.094 11.0413 204.206 11.0413C204.311 11.0413 204.409 11.0675 204.488 11.1265C204.573 11.1854 204.625 11.2378 204.645 11.2902L207.667 17.5181L207.654 17.5246ZM214.524 25.6582C214.616 25.6582 214.688 25.691 214.727 25.763C214.767 25.8351 214.773 25.9136 214.734 26.0053L214.36 27.6032C214.328 27.7211 214.262 27.8062 214.177 27.8717C214.092 27.9372 213.993 27.97 213.888 27.97H202.757C202.593 27.97 202.456 27.911 202.344 27.7997C202.233 27.6818 202.174 27.5377 202.174 27.3544V23.5299C202.174 23.2745 202.16 23.0256 202.128 22.7768C202.095 22.5345 202.056 22.3118 201.997 22.1022C202.174 22.1153 202.357 22.1219 202.547 22.1284C202.737 22.135 202.927 22.135 203.131 22.135H204.475V25.3046C204.475 25.4094 204.501 25.488 204.56 25.5535C204.619 25.6189 204.697 25.6517 204.789 25.6517H214.524V25.6582ZM209.352 12.1808C209.339 11.9254 209.319 11.6831 209.299 11.4474C209.273 11.2182 209.234 11.002 209.175 10.8121C209.339 10.8252 209.516 10.8318 209.699 10.8383C209.883 10.8449 210.066 10.8449 210.257 10.8449H211.299V20.8252C211.299 20.9824 211.246 21.1199 211.148 21.2378C211.05 21.3622 210.925 21.4212 210.788 21.4212H209.358V15.7696H207.661C207.569 15.7696 207.484 15.7368 207.425 15.6713C207.366 15.6058 207.326 15.5273 207.326 15.4225V13.674H209.358V12.1743L209.352 12.1808ZM214.596 10.8514V21.2378C214.596 21.4015 214.544 21.5391 214.446 21.6504C214.347 21.7617 214.223 21.8141 214.085 21.8141H212.426V12.1808C212.426 11.9254 212.413 11.6831 212.381 11.4474C212.348 11.2182 212.308 11.002 212.249 10.8121C212.413 10.8252 212.59 10.8318 212.774 10.8383C212.957 10.8449 213.141 10.8449 213.331 10.8449H214.603L214.596 10.8514Z" fill="white"/>
<path d="M225.76 16.3524C225.91 16.3524 225.989 16.431 225.989 16.5816C225.989 16.6078 225.969 16.7388 225.937 16.9876C225.904 17.2299 225.793 17.6032 225.602 18.1009C225.517 18.3432 225.36 18.4677 225.124 18.4677H220.758V20.6812C220.758 20.7859 220.791 20.8711 220.856 20.9431C220.922 21.0151 221 21.0479 221.092 21.0479H227.982C228.126 21.0479 228.192 21.1265 228.192 21.2771L227.818 22.9863C227.733 23.2286 227.576 23.3531 227.34 23.3531H219.053C218.89 23.3531 218.752 23.2941 218.64 23.1697C218.529 23.0453 218.47 22.8946 218.47 22.7178V13.3924C218.47 13.1239 218.457 12.8685 218.424 12.6261C218.398 12.3838 218.352 12.1612 218.293 11.9516C218.457 11.9647 218.634 11.9713 218.817 11.9778C219.001 11.9844 219.191 11.9844 219.394 11.9844H226.868C227.012 11.9844 227.077 12.0695 227.077 12.2332C227.077 12.2463 227.064 12.41 227.031 12.7244C226.999 13.0387 226.894 13.4382 226.704 13.9294C226.618 14.1717 226.455 14.2961 226.212 14.2961H220.751V16.3524H225.753H225.76ZM229.7 16.3524V12.2005C229.7 11.9451 229.686 11.7028 229.654 11.467C229.621 11.2313 229.582 11.0151 229.523 10.8121C229.686 10.8383 229.863 10.8514 230.047 10.8514H232.001V27.6032C232.001 27.7539 231.948 27.8914 231.843 27.9962C231.738 28.1009 231.614 28.1599 231.47 28.1599H229.706V18.448H227.392C227.3 18.448 227.215 18.4153 227.156 18.3498C227.09 18.2843 227.058 18.2057 227.058 18.1009V16.3524H229.706H229.7Z" fill="white"/>
<path d="M62.3499 1.61106L63.6479 5.08846C63.7528 5.29803 63.8642 5.47484 63.9822 5.61892L63.0972 6.09043C63.0317 6.11662 62.9727 6.12317 62.9071 6.09698C62.8416 6.07078 62.7957 6.03149 62.7629 5.966L61.9303 3.32684C61.8845 3.26135 61.832 3.2548 61.773 3.30719L60.9732 5.95945C60.947 6.02494 60.8946 6.07078 60.829 6.09043C60.7635 6.11662 60.6979 6.11008 60.6389 6.08388L59.7539 5.61237C59.8785 5.47484 59.9899 5.29803 60.0882 5.08192L61.3535 1.60451H60.1472C60.1013 1.60451 60.062 1.59141 60.0292 1.55867C59.9965 1.53247 59.9768 1.49318 59.9768 1.44734V0.5698H63.6217C63.6938 0.5698 63.7331 0.602544 63.7331 0.674581C63.7331 0.687678 63.7266 0.759715 63.7069 0.884142C63.6872 1.01512 63.6348 1.19848 63.543 1.44079C63.5037 1.55212 63.4316 1.61106 63.3201 1.61106H62.3499ZM66.788 0.176873V7.82586C66.788 7.90444 66.7618 7.96338 66.7159 8.01577C66.67 8.06816 66.611 8.08781 66.5389 8.08781H65.7325V3.5233H65.1557V7.58355C65.1557 7.65559 65.1294 7.71453 65.0835 7.76692C65.0377 7.81931 64.9721 7.8455 64.9 7.8455H64.1068V0.779361C64.1068 0.661483 64.1002 0.550154 64.0871 0.445373C64.074 0.340593 64.0543 0.242361 64.0216 0.157227C64.1002 0.157227 64.1854 0.170324 64.2772 0.170324C64.369 0.170324 64.4542 0.170324 64.546 0.170324H65.1557V2.4624H65.7325V0.779361C65.7325 0.661483 65.726 0.550154 65.7129 0.445373C65.6998 0.340593 65.6801 0.242361 65.6473 0.157227C65.7325 0.157227 65.8178 0.170324 65.903 0.170324C65.9882 0.170324 66.08 0.170324 66.1718 0.170324H66.788V0.176873Z" fill="white"/>
<path d="M72.7611 0.35369C72.7611 0.35369 72.8201 0.366788 72.8398 0.392983C72.866 0.419178 72.8725 0.458471 72.8529 0.504312L72.6824 1.24433C72.6431 1.35565 72.5644 1.40805 72.4399 1.40805H69.7062V3.22861C69.7062 3.27445 69.7193 3.31374 69.7521 3.33994C69.7849 3.36613 69.8177 3.38578 69.8636 3.38578H73.2986C73.2986 3.38578 73.3576 3.39888 73.3773 3.41852C73.397 3.43817 73.4101 3.47746 73.3904 3.52985L73.22 4.26987C73.1806 4.3812 73.102 4.44013 72.9774 4.44013H68.8671C68.7884 4.44013 68.7163 4.41394 68.6639 4.355C68.6114 4.30261 68.5852 4.23057 68.5852 4.14544V0.995471C68.5852 0.871044 68.5787 0.753166 68.5656 0.641837C68.5524 0.530507 68.5328 0.425727 68.5 0.334044C68.5852 0.334044 68.6704 0.347141 68.7557 0.347141C68.8409 0.347141 68.9327 0.347141 69.031 0.347141H72.7545L72.7611 0.35369ZM75.1735 6.94177C75.2194 6.94177 75.2522 6.95487 75.2719 6.98761C75.2915 7.02036 75.2915 7.05965 75.2719 7.09894L75.0883 7.82586C75.0686 7.87825 75.0424 7.91754 74.9965 7.95028C74.9506 7.97648 74.9047 7.99613 74.8523 7.99613H69.4374C69.3588 7.99613 69.2867 7.96993 69.2342 7.91754C69.1818 7.86515 69.1556 7.79966 69.1556 7.71453V5.966C69.1556 5.84812 69.149 5.73679 69.1359 5.62546C69.1228 5.51414 69.1031 5.40935 69.0703 5.31767C69.1556 5.31767 69.2473 5.33077 69.3391 5.33077C69.4309 5.33077 69.5227 5.33077 69.621 5.33077H70.2765V6.77805C70.2765 6.82389 70.2897 6.86319 70.3224 6.88938C70.3487 6.91558 70.388 6.93522 70.4339 6.93522H75.167L75.1735 6.94177ZM76.1503 1.80097C76.1896 1.80097 76.2224 1.81407 76.2421 1.84681C76.2617 1.87956 76.2617 1.9123 76.2421 1.95159L76.0716 2.69161C76.0454 2.73745 76.0192 2.77674 75.9799 2.80949C75.9405 2.84223 75.8881 2.85533 75.8356 2.85533H75.1932C75.1473 2.85533 75.108 2.86842 75.0817 2.90117C75.0555 2.92736 75.0359 2.96666 75.0359 3.0125V5.1867C75.0359 5.26528 75.0096 5.32422 74.9637 5.37661C74.9179 5.429 74.8523 5.44865 74.7802 5.44865H73.9214V0.779361C73.9214 0.661483 73.9149 0.550154 73.9018 0.445373C73.8886 0.340593 73.869 0.242361 73.8362 0.157227C73.9149 0.170324 74.0001 0.176873 74.0919 0.176873H75.0424V1.6438C75.0424 1.68309 75.0555 1.72239 75.0817 1.75513C75.108 1.78787 75.1407 1.80097 75.1801 1.80097H76.1569H76.1503Z" fill="white"/>
<path d="M81.4664 3.79835C81.4664 3.88348 81.4402 3.94897 81.3878 4.00791C81.3353 4.06685 81.2698 4.09304 81.1911 4.09304H77.4348C77.3561 4.09304 77.2906 4.06685 77.2381 4.00791C77.1857 3.94897 77.1594 3.88348 77.1594 3.79835V1.02821C77.1594 0.903781 77.1529 0.792452 77.1398 0.681123C77.1267 0.569793 77.107 0.471561 77.0742 0.366781C77.2316 0.386427 77.3954 0.392976 77.5659 0.392976H78.2673V1.49317H80.0439C80.0439 1.49317 80.0963 1.49972 80.116 1.51937C80.1356 1.53901 80.1488 1.55866 80.1488 1.5914C80.1488 1.6045 80.1422 1.66344 80.1225 1.76167C80.1029 1.86645 80.057 2.03017 79.9652 2.26593C79.9259 2.37726 79.8472 2.42965 79.7358 2.42965H78.2673V2.86842C78.2673 2.91426 78.2804 2.95355 78.3132 2.97975C78.346 3.01249 78.3853 3.02559 78.4312 3.02559H80.2012C80.2471 3.02559 80.2864 3.01249 80.3126 2.97975C80.3389 2.95355 80.3585 2.91426 80.3585 2.86842V1.02821C80.3585 0.903781 80.352 0.792452 80.3389 0.681123C80.3258 0.569793 80.3061 0.471561 80.2733 0.366781C80.4438 0.386427 80.6273 0.392976 80.824 0.392976H81.4664V3.7918V3.79835ZM83.8461 4.67588V7.76036C83.8461 7.8455 83.8199 7.91098 83.7674 7.96337C83.715 8.01577 83.6429 8.04196 83.5642 8.04196H78.1428C78.0641 8.04196 77.992 8.01577 77.9395 7.96337C77.8871 7.91098 77.8609 7.8455 77.8609 7.76036V5.31112C77.8609 5.18669 77.8543 5.06881 77.8412 4.95748C77.8281 4.84615 77.8084 4.74137 77.7757 4.64969C77.8543 4.64969 77.933 4.66279 78.0182 4.66279C78.0969 4.66279 78.1821 4.66279 78.2673 4.66279H78.9688V5.46829H82.3383C82.3383 5.46829 82.3907 5.48138 82.4104 5.50103C82.4301 5.52068 82.4432 5.54687 82.4432 5.57307C82.4432 5.58616 82.4366 5.6582 82.417 5.78263C82.3973 5.9136 82.3514 6.09697 82.2596 6.33928C82.2203 6.44406 82.1416 6.49645 82.0302 6.49645H78.9688V6.82389C78.9688 6.86973 78.9819 6.90902 79.0147 6.94176C79.0474 6.97451 79.0868 6.98761 79.1327 6.98761H82.5809C82.6267 6.98761 82.6661 6.97451 82.6923 6.94176C82.7185 6.90902 82.7382 6.86973 82.7382 6.82389V5.30457C82.7382 5.18014 82.7316 5.06226 82.7185 4.95093C82.7054 4.8396 82.6857 4.73482 82.653 4.64314C82.7382 4.64314 82.83 4.65624 82.9217 4.66279C83.0135 4.66279 83.1053 4.66933 83.2036 4.66933H83.8592L83.8461 4.67588ZM82.7382 1.78132V0.772806C82.7251 0.523952 82.6989 0.307842 82.653 0.137573C82.7316 0.150671 82.8169 0.15722 82.9086 0.15722H83.8526V4.00791C83.8526 4.07994 83.8264 4.13888 83.7805 4.19127C83.7346 4.24366 83.6756 4.26986 83.6035 4.26986H82.7447V2.83567H81.7745C81.7286 2.83567 81.6893 2.82258 81.6565 2.78983C81.6238 2.75709 81.6041 2.7178 81.6041 2.67195V1.78132H82.7447H82.7382Z" fill="white"/>
<path d="M89.8574 2.31181C89.8574 2.61306 89.7984 2.88156 89.6869 3.13041C89.5755 3.37927 89.4247 3.59538 89.2346 3.77874C89.0379 3.96866 88.815 4.11273 88.5528 4.21096C88.2906 4.30919 88.0218 4.36158 87.7268 4.36158C87.4318 4.36158 87.163 4.30919 86.9074 4.21096C86.6517 4.10618 86.4288 3.96211 86.2387 3.77874C86.042 3.59538 85.8913 3.37927 85.7798 3.13041C85.6684 2.88156 85.6094 2.60651 85.6094 2.31181C85.6094 2.01712 85.6684 1.74862 85.7798 1.49322C85.8913 1.24436 86.042 1.0217 86.2387 0.844885C86.4288 0.661519 86.6517 0.523995 86.9074 0.419214C87.163 0.314434 87.4384 0.262043 87.7268 0.262043C88.0153 0.262043 88.2971 0.314434 88.5528 0.419214C88.8085 0.523995 89.0379 0.661519 89.2346 0.844885C89.4247 1.02825 89.5755 1.24436 89.6869 1.49322C89.7984 1.74207 89.8574 2.01712 89.8574 2.31181ZM92.4468 6.94181C92.4927 6.94181 92.5255 6.9549 92.5451 6.98765C92.5648 7.02039 92.5648 7.05969 92.5451 7.09898L92.3616 7.82589C92.3419 7.87828 92.3157 7.91758 92.2698 7.95032C92.2239 7.98306 92.178 7.99616 92.1256 7.99616H86.7107C86.632 7.99616 86.5599 7.96997 86.5075 7.91758C86.455 7.86519 86.4288 7.7997 86.4288 7.71456V5.96604C86.4288 5.84816 86.4223 5.73683 86.4091 5.6255C86.396 5.51417 86.3764 5.40939 86.3436 5.31771C86.4288 5.31771 86.5206 5.33081 86.6124 5.33081C86.7041 5.33081 86.7959 5.33081 86.8943 5.33081H87.5498V6.77809C87.5498 6.82393 87.5629 6.86322 87.5957 6.88942C87.6219 6.91561 87.6613 6.93526 87.7071 6.93526H92.4402L92.4468 6.94181ZM86.6976 2.31181C86.6976 2.46898 86.7238 2.61961 86.7763 2.75058C86.8287 2.88811 86.9074 2.99944 87.0057 3.09112C87.0975 3.1828 87.2089 3.26139 87.3335 3.31378C87.458 3.36617 87.5957 3.39236 87.7465 3.39236C87.8973 3.39236 88.0218 3.36617 88.1529 3.31378C88.2775 3.26139 88.3889 3.18935 88.4872 3.09112C88.579 2.99944 88.6511 2.88156 88.7036 2.75058C88.756 2.61306 88.7822 2.46898 88.7822 2.31181C88.7822 2.15464 88.756 2.01057 88.7036 1.87959C88.6511 1.74862 88.579 1.63729 88.4872 1.53906C88.3889 1.44737 88.2775 1.37534 88.1529 1.3164C88.0284 1.26401 87.8907 1.23781 87.7465 1.23781C87.6023 1.23781 87.458 1.26401 87.3335 1.3164C87.2089 1.36879 87.0975 1.44082 87.0057 1.53906C86.9074 1.63074 86.8353 1.74862 86.7763 1.87959C86.7238 2.01057 86.6976 2.15464 86.6976 2.31181ZM92.4402 0.176909V5.31116C92.4402 5.3832 92.414 5.44213 92.3681 5.48798C92.3222 5.54037 92.2632 5.56001 92.1911 5.56001H91.3258V0.674617C91.3258 0.556739 91.3192 0.465056 91.3061 0.393019C91.293 0.320982 91.2733 0.242397 91.2406 0.144165C91.411 0.163811 91.588 0.17036 91.765 0.17036H92.4468L92.4402 0.176909Z" fill="white"/>
<path d="M64.8593 36.7976L66.4064 31.7289H67.5929L65.6131 37.78H64.1906L63.299 35.2128L62.4272 37.78H61.0046L59.0117 31.7289H60.2114L61.7585 36.7976L62.7484 33.5953L62.1125 31.7289H63.2794L64.8658 36.7976H64.8593Z" fill="white"/>
<path d="M67.5652 35.5731C67.5652 35.2522 67.6242 34.9509 67.7356 34.6628C67.8536 34.3812 68.0175 34.1323 68.2338 33.9228C68.4436 33.7132 68.7058 33.5429 69.0205 33.4251C69.3351 33.3072 69.6891 33.2417 70.0825 33.2417C70.443 33.2417 70.7774 33.3006 71.0855 33.4185C71.3936 33.5364 71.6558 33.7001 71.8852 33.9031C72.1081 34.1127 72.2851 34.3615 72.4097 34.6431C72.5342 34.9247 72.5998 35.2325 72.5998 35.5665C72.5998 35.8612 72.5408 36.1428 72.4228 36.4244C72.3048 36.706 72.1344 36.9549 71.918 37.171C71.7017 37.3936 71.4395 37.5704 71.1248 37.7014C70.8167 37.8324 70.4693 37.8979 70.0825 37.8979C69.7416 37.8979 69.4138 37.8389 69.1123 37.7211C68.8107 37.6032 68.5419 37.4395 68.3125 37.2299C68.083 37.0269 67.8995 36.778 67.7618 36.4964C67.6242 36.2083 67.5586 35.9005 67.5586 35.5665L67.5652 35.5731ZM68.673 35.5731C68.673 35.763 68.6993 35.9529 68.7583 36.1428C68.8173 36.3327 68.8959 36.4964 69.0139 36.6536C69.1254 36.8042 69.2696 36.9287 69.4466 37.0204C69.6236 37.112 69.8399 37.1579 70.089 37.1579C70.325 37.1579 70.5348 37.112 70.7118 37.0204C70.8888 36.9287 71.0396 36.8042 71.1576 36.6536C71.269 36.5095 71.3542 36.3393 71.4132 36.1494C71.4722 35.9594 71.505 35.7695 71.505 35.5731C71.505 35.3766 71.4788 35.1998 71.4198 35.0099C71.3608 34.82 71.2756 34.6497 71.1576 34.4991C71.0396 34.355 70.8888 34.2306 70.7118 34.1389C70.5348 34.0472 70.325 34.0014 70.089 34.0014C69.853 34.0014 69.6564 34.0472 69.4794 34.1389C69.3024 34.2306 69.1581 34.355 69.0401 34.4991C68.9221 34.6497 68.8304 34.82 68.7648 35.0099C68.6993 35.1998 68.673 35.3897 68.673 35.5796V35.5731Z" fill="white"/>
<path d="M79.4928 35.1474C79.4928 35.0164 79.4862 34.8854 79.4666 34.7544C79.4469 34.6169 79.4207 34.4925 79.3748 34.3746C79.3223 34.2633 79.2502 34.1716 79.1584 34.0995C79.0667 34.0275 78.9487 33.9882 78.8044 33.9882C78.6143 33.9882 78.4504 34.0341 78.3128 34.1257C78.1751 34.2174 78.0637 34.3419 77.9719 34.4859C77.8801 34.6365 77.8146 34.8134 77.7687 35.0033C77.7228 35.1932 77.7031 35.3897 77.7031 35.5796V37.3346C77.7031 37.4001 77.7031 37.4787 77.7031 37.5704C77.7031 37.6621 77.7097 37.7341 77.7162 37.7931H76.5952C76.5952 37.6555 76.6083 37.4984 76.6149 37.3346C76.6149 37.1709 76.6215 37.0138 76.6215 36.8631V35.1474C76.6215 35.0164 76.6215 34.8854 76.6018 34.7479C76.5887 34.6104 76.5559 34.4859 76.51 34.3746C76.4576 34.2633 76.3855 34.1716 76.2937 34.0995C76.2019 34.0275 76.0773 33.9882 75.9266 33.9882C75.7365 33.9882 75.5726 34.0341 75.4349 34.1126C75.2972 34.1978 75.1858 34.3091 75.1006 34.4532C75.0153 34.5907 74.9498 34.7544 74.9105 34.9378C74.8646 35.1212 74.8449 35.3045 74.8384 35.501V37.3412C74.8384 37.4067 74.8384 37.4853 74.8384 37.577C74.8384 37.6686 74.8449 37.7407 74.8515 37.7996H73.7305C73.7436 37.6621 73.7501 37.5049 73.7567 37.3412C73.7567 37.1775 73.7567 37.0203 73.7567 36.8697V34.2764C73.7567 34.1257 73.7567 33.9686 73.7567 33.8114C73.7567 33.6542 73.7436 33.4971 73.7305 33.3464H74.8515C74.8449 33.3923 74.8384 33.4447 74.8384 33.4905C74.8384 33.5364 74.8384 33.5822 74.8384 33.6149V33.8049C75.0088 33.6018 75.1989 33.4512 75.3956 33.3661C75.5988 33.2809 75.8545 33.2351 76.1626 33.2351C76.4445 33.2351 76.7001 33.294 76.9165 33.4119C77.1328 33.5298 77.3163 33.7328 77.4671 34.0144C77.5589 33.8703 77.6638 33.7459 77.7818 33.6477C77.8998 33.5494 78.0178 33.4643 78.1423 33.3988C78.2669 33.3399 78.3914 33.3006 78.516 33.2744C78.6406 33.2482 78.7586 33.2351 78.8634 33.2351C79.1716 33.2351 79.4338 33.2809 79.6501 33.3661C79.8664 33.4512 80.0369 33.5756 80.168 33.7263C80.2991 33.8769 80.3974 34.0603 80.4564 34.2698C80.5154 34.4794 80.5482 34.7086 80.5482 34.9509V36.7387C80.5482 36.909 80.5482 37.0858 80.5482 37.2757C80.5482 37.4656 80.5613 37.6359 80.5744 37.7931H79.4469C79.46 37.6555 79.4731 37.4984 79.4731 37.3346C79.4797 37.1709 79.4862 37.0138 79.4862 36.8631V35.1474H79.4928Z" fill="white"/>
<path d="M86.072 37.5901C85.8032 37.6818 85.5279 37.7604 85.2526 37.8193C84.9773 37.8782 84.6757 37.9044 84.3348 37.9044C83.889 37.9044 83.4957 37.8455 83.1614 37.7342C82.827 37.6228 82.5517 37.4591 82.3223 37.2496C82.0994 37.0465 81.9289 36.7911 81.824 36.4964C81.7126 36.1952 81.6602 35.8678 81.6602 35.4945C81.6602 35.167 81.7192 34.8658 81.8372 34.5908C81.9552 34.3157 82.119 34.0734 82.3288 33.8704C82.5386 33.6739 82.7943 33.5167 83.0958 33.4054C83.3974 33.2941 83.7317 33.2417 84.0988 33.2417C84.5184 33.2417 84.8789 33.3072 85.1739 33.4382C85.4689 33.5691 85.7049 33.7525 85.8885 33.9752C86.072 34.2044 86.2031 34.4729 86.2818 34.7872C86.3605 35.1016 86.3998 35.4355 86.3998 35.8023H82.768C82.768 36.0053 82.827 36.1952 82.9188 36.3589C83.0106 36.5226 83.1286 36.6667 83.2728 36.7846C83.417 36.9025 83.5875 36.9942 83.771 37.0596C83.9611 37.1251 84.1578 37.1579 84.361 37.1579C84.6823 37.1579 84.9838 37.112 85.2591 37.0204C85.5345 36.9287 85.7639 36.8108 85.954 36.6667L86.0524 37.5901H86.072ZM85.3116 35.1081C85.2985 34.9575 85.2591 34.8134 85.2001 34.6759C85.1411 34.5384 85.0559 34.4205 84.951 34.3157C84.8461 34.2175 84.7216 34.1389 84.5774 34.0799C84.4331 34.021 84.2758 33.9948 84.1054 33.9948C83.9087 33.9948 83.7317 34.0276 83.5678 34.093C83.4105 34.1585 83.2794 34.2437 83.1745 34.3484C83.063 34.4532 82.9713 34.5711 82.9057 34.7021C82.8402 34.8331 82.8008 34.9706 82.7877 35.1081H85.3247H85.3116Z" fill="white"/>
<path d="M90.1497 33.2417C90.8184 33.2417 91.3035 33.4119 91.6116 33.7525C91.9197 34.093 92.0705 34.5645 92.0705 35.167V37.2626C92.0705 37.4591 92.0836 37.6424 92.0967 37.8062H90.9691C90.9822 37.6686 90.9888 37.5115 90.9953 37.3477C90.9953 37.184 90.9953 37.0269 90.9953 36.8762V35.501C90.9953 34.9902 90.9232 34.6169 90.7856 34.3811C90.6479 34.1454 90.3922 34.0144 90.0251 34.0013C89.7957 34.0013 89.5925 34.0472 89.4155 34.1323C89.2385 34.2174 89.0942 34.3419 88.9762 34.4925C88.8582 34.6496 88.7665 34.833 88.7075 35.0491C88.6485 35.2652 88.6157 35.4944 88.6157 35.7433V37.3477C88.6157 37.4329 88.6157 37.5115 88.6157 37.5835C88.6157 37.6621 88.6222 37.7341 88.6288 37.7996H87.5078C87.5209 37.6621 87.5275 37.5049 87.534 37.3412C87.534 37.1775 87.534 37.0203 87.534 36.8697V34.2764C87.534 34.1257 87.534 33.9686 87.534 33.8114C87.534 33.6542 87.5209 33.4971 87.5078 33.3464H88.6288C88.6222 33.3923 88.6157 33.4316 88.6157 33.4578C88.6157 33.484 88.6157 33.5167 88.6157 33.5429V33.8507C88.9369 33.4447 89.4482 33.2351 90.1431 33.2351L90.1497 33.2417Z" fill="white"/>
<path d="M97.6574 36.9483H100.201C100.273 36.9483 100.365 36.9483 100.476 36.9483C100.588 36.9483 100.673 36.9418 100.752 36.9287V37.8127C100.417 37.7931 100.109 37.7865 99.8404 37.7865H96.5561C96.5692 37.649 96.5757 37.4984 96.5823 37.3281C96.5823 37.1579 96.5823 37.0007 96.5823 36.8566V32.5082C96.5823 32.3772 96.5823 32.2528 96.5692 32.1153C96.5561 31.9778 96.5495 31.8533 96.543 31.7355H100.188C100.253 31.7355 100.339 31.7355 100.444 31.7355C100.548 31.7355 100.64 31.7224 100.712 31.7158V32.5999C100.588 32.5868 100.43 32.5803 100.247 32.5803C100.063 32.5803 99.8994 32.5803 99.7617 32.5803H97.664V34.2437H99.9518C100.017 34.2437 100.103 34.2437 100.201 34.2437C100.306 34.2437 100.391 34.2306 100.463 34.224V35.1081C100.135 35.0884 99.8338 35.0819 99.5716 35.0819H97.664V36.9679L97.6574 36.9483Z" fill="white"/>
<path d="M104.466 33.2417C105.135 33.2417 105.62 33.4119 105.928 33.7525C106.236 34.093 106.387 34.5645 106.387 35.167V37.2626C106.387 37.4591 106.4 37.6424 106.413 37.8062H105.286C105.299 37.6686 105.305 37.5115 105.312 37.3477C105.312 37.184 105.312 37.0269 105.312 36.8762V35.501C105.312 34.9902 105.24 34.6169 105.102 34.3811C104.964 34.1454 104.709 34.0144 104.342 34.0013C104.112 34.0013 103.909 34.0472 103.732 34.1323C103.555 34.2174 103.411 34.3419 103.293 34.4925C103.175 34.6496 103.083 34.833 103.024 35.0491C102.965 35.2652 102.932 35.4944 102.932 35.7433V37.3477C102.932 37.4329 102.932 37.5115 102.932 37.5835C102.932 37.6621 102.939 37.7341 102.945 37.7996H101.824C101.837 37.6621 101.844 37.5049 101.85 37.3412C101.85 37.1775 101.85 37.0203 101.85 36.8697V34.2764C101.85 34.1257 101.85 33.9686 101.85 33.8114C101.85 33.6542 101.837 33.4971 101.824 33.3464H102.945C102.939 33.3923 102.932 33.4316 102.932 33.4578C102.932 33.484 102.932 33.5167 102.932 33.5429V33.8507C103.253 33.4447 103.765 33.2351 104.46 33.2351L104.466 33.2417Z" fill="white"/>
<path d="M108.258 32.9731C108.258 32.8225 108.258 32.6653 108.258 32.5082C108.258 32.351 108.244 32.1938 108.231 32.0432H109.352C109.339 32.1545 109.333 32.2724 109.333 32.4034V33.3268H109.969C110.067 33.3268 110.178 33.3268 110.303 33.3268C110.427 33.3268 110.545 33.3137 110.65 33.3071V34.1126C110.552 34.0995 110.441 34.093 110.323 34.093C110.205 34.093 110.1 34.093 110.008 34.093H109.333V36.444C109.333 36.719 109.385 36.909 109.497 37.0072C109.608 37.1054 109.778 37.1578 110.014 37.1578C110.119 37.1578 110.231 37.1382 110.349 37.0989C110.467 37.0596 110.585 37.0072 110.709 36.9483V37.7734C110.585 37.8127 110.447 37.8454 110.303 37.8716C110.159 37.8978 110.008 37.9044 109.857 37.9044C109.365 37.9044 108.972 37.8061 108.69 37.6031C108.408 37.4001 108.264 37.0727 108.264 36.6143V34.0995H107.799C107.707 34.0995 107.602 34.0995 107.477 34.0995C107.353 34.0995 107.248 34.1126 107.156 34.1192V33.3137C107.268 33.3268 107.386 33.3333 107.51 33.3333C107.635 33.3333 107.74 33.3333 107.845 33.3333H108.271V32.9797L108.258 32.9731Z" fill="white"/>
<path d="M115.83 37.5901C115.561 37.6818 115.286 37.7604 115.01 37.8193C114.735 37.8782 114.434 37.9044 114.093 37.9044C113.647 37.9044 113.254 37.8455 112.919 37.7342C112.585 37.6228 112.31 37.4591 112.08 37.2496C111.857 37.0465 111.687 36.7911 111.582 36.4964C111.47 36.1952 111.418 35.8678 111.418 35.4945C111.418 35.167 111.477 34.8658 111.595 34.5908C111.713 34.3157 111.877 34.0734 112.087 33.8704C112.296 33.6739 112.552 33.5167 112.854 33.4054C113.155 33.2941 113.49 33.2417 113.857 33.2417C114.276 33.2417 114.637 33.3072 114.932 33.4382C115.227 33.5691 115.463 33.7525 115.646 33.9752C115.83 34.2044 115.961 34.4729 116.04 34.7872C116.118 35.1016 116.158 35.4355 116.158 35.8023H112.526C112.526 36.0053 112.585 36.1952 112.677 36.3589C112.768 36.5226 112.886 36.6667 113.031 36.7846C113.175 36.9025 113.345 36.9942 113.529 37.0596C113.719 37.1251 113.916 37.1579 114.119 37.1579C114.44 37.1579 114.742 37.112 115.017 37.0204C115.292 36.9287 115.522 36.8108 115.712 36.6667L115.81 37.5901H115.83ZM115.069 35.1081C115.056 34.9575 115.017 34.8134 114.958 34.6759C114.899 34.5384 114.814 34.4205 114.709 34.3157C114.604 34.2175 114.479 34.1389 114.335 34.0799C114.191 34.021 114.034 33.9948 113.863 33.9948C113.667 33.9948 113.49 34.0276 113.326 34.093C113.168 34.1585 113.037 34.2437 112.932 34.3484C112.821 34.4532 112.729 34.5711 112.664 34.7021C112.598 34.8331 112.559 34.9706 112.546 35.1081H115.083H115.069Z" fill="white"/>
<path d="M119.729 34.0798C119.539 34.0798 119.356 34.1191 119.192 34.2043C119.028 34.2894 118.877 34.4007 118.759 34.5448C118.634 34.6889 118.536 34.8657 118.464 35.0753C118.392 35.2848 118.359 35.514 118.359 35.7629V37.3411C118.359 37.5049 118.366 37.6555 118.385 37.7995H117.258C117.271 37.662 117.284 37.5049 117.284 37.3411C117.284 37.1774 117.291 37.0202 117.291 36.8696V34.1846C117.291 34.0405 117.291 33.8965 117.284 33.7655C117.284 33.6345 117.264 33.4904 117.258 33.3398H118.366C118.366 33.3988 118.359 33.4446 118.359 33.4773V33.9096C118.398 33.831 118.457 33.7589 118.536 33.6869C118.615 33.6149 118.713 33.5428 118.825 33.4839C118.936 33.425 119.061 33.3791 119.205 33.3398C119.349 33.3005 119.506 33.2809 119.677 33.2809C119.795 33.2809 119.946 33.294 120.129 33.3136C120.313 33.3333 120.477 33.366 120.621 33.4119L120.463 34.2632C120.352 34.2174 120.234 34.1715 120.103 34.1388C119.972 34.0995 119.847 34.0798 119.729 34.0798Z" fill="white"/>
<path d="M122.495 33.3595C122.495 33.4316 122.488 33.484 122.488 33.5298V33.8703C122.54 33.8049 122.619 33.7394 122.717 33.6673C122.816 33.5953 122.94 33.5298 123.078 33.4643C123.216 33.4054 123.373 33.353 123.537 33.3137C123.707 33.2744 123.884 33.2548 124.074 33.2548C124.461 33.2548 124.796 33.3202 125.077 33.4447C125.353 33.5691 125.582 33.7394 125.759 33.9489C125.936 34.165 126.067 34.4139 126.153 34.6955C126.238 34.9771 126.284 35.2718 126.284 35.573C126.284 35.8612 126.231 36.1362 126.133 36.3916C126.035 36.6536 125.89 36.8828 125.707 37.0793C125.517 37.2823 125.281 37.446 125.005 37.5639C124.73 37.6817 124.415 37.7407 124.068 37.7407C123.72 37.7407 123.399 37.6817 123.13 37.5639C122.862 37.446 122.652 37.3085 122.495 37.1447V38.0288C122.495 38.1925 122.495 38.3694 122.495 38.5527C122.495 38.7426 122.508 38.9195 122.521 39.0897H121.393C121.413 38.9391 121.426 38.7819 121.426 38.6248C121.426 38.4676 121.426 38.3104 121.426 38.1598V34.2829C121.426 34.1388 121.426 33.9817 121.413 33.8114C121.413 33.6477 121.393 33.4905 121.387 33.353H122.488L122.495 33.3595ZM125.176 35.5206C125.176 35.3307 125.15 35.1408 125.104 34.9574C125.058 34.7741 124.979 34.6104 124.874 34.4728C124.769 34.3353 124.632 34.2174 124.474 34.1323C124.31 34.0472 124.12 34.0079 123.897 34.0079C123.648 34.0079 123.432 34.0537 123.262 34.1454C123.085 34.2371 122.94 34.3615 122.829 34.5056C122.717 34.6497 122.639 34.8134 122.586 34.9902C122.534 35.167 122.514 35.3373 122.514 35.501C122.514 35.704 122.547 35.9005 122.606 36.0773C122.665 36.2607 122.757 36.4178 122.875 36.5488C122.993 36.6863 123.137 36.7977 123.307 36.8762C123.478 36.9548 123.675 36.9941 123.904 36.9941C124.133 36.9941 124.31 36.9548 124.474 36.8762C124.638 36.7977 124.769 36.6929 124.874 36.5554C124.973 36.4178 125.051 36.2672 125.104 36.0838C125.156 35.907 125.182 35.7171 125.182 35.5075L125.176 35.5206Z" fill="white"/>
<path d="M129.839 34.0798C129.649 34.0798 129.465 34.1191 129.301 34.2043C129.137 34.2894 128.986 34.4007 128.868 34.5448C128.744 34.6889 128.646 34.8657 128.573 35.0753C128.501 35.2848 128.469 35.514 128.469 35.7629V37.3411C128.469 37.5049 128.475 37.6555 128.495 37.7995H127.367C127.38 37.662 127.393 37.5049 127.393 37.3411C127.393 37.1774 127.4 37.0202 127.4 36.8696V34.1846C127.4 34.0405 127.4 33.8965 127.393 33.7655C127.393 33.6345 127.374 33.4904 127.367 33.3398H128.475C128.475 33.3988 128.469 33.4446 128.469 33.4773V33.9096C128.508 33.831 128.567 33.7589 128.646 33.6869C128.724 33.6149 128.823 33.5428 128.934 33.4839C129.045 33.425 129.17 33.3791 129.314 33.3398C129.458 33.3005 129.616 33.2809 129.786 33.2809C129.904 33.2809 130.055 33.294 130.239 33.3136C130.422 33.3333 130.586 33.366 130.73 33.4119L130.573 34.2632C130.461 34.2174 130.343 34.1715 130.212 34.1388C130.081 34.0995 129.957 34.0798 129.839 34.0798Z" fill="white"/>
<path d="M132.676 32.482H131.477V31.4669H132.676V32.482ZM132.63 37.0727C132.63 37.184 132.63 37.3019 132.63 37.4329C132.63 37.5638 132.637 37.6752 132.643 37.7865H131.503C131.503 37.649 131.516 37.4918 131.522 37.3281C131.522 37.1644 131.536 37.0072 131.536 36.8566V34.2502C131.536 34.1061 131.536 33.9489 131.536 33.7917C131.536 33.628 131.522 33.4774 131.509 33.3202H132.65C132.643 33.4054 132.637 33.5167 132.637 33.6411C132.637 33.7655 132.637 33.8769 132.637 33.9686V37.0727H132.63Z" fill="white"/>
<path d="M133.66 36.7976C133.772 36.8565 133.91 36.9089 134.067 36.9482C134.224 36.9941 134.382 37.0268 134.545 37.0596C134.696 37.0923 134.84 37.1185 134.972 37.1316C135.103 37.1447 135.201 37.1512 135.26 37.1512C135.385 37.1512 135.516 37.1447 135.653 37.125C135.791 37.1054 135.909 37.0727 136.027 37.0268C136.132 36.9875 136.217 36.9286 136.289 36.8565C136.361 36.7845 136.394 36.6863 136.394 36.5684C136.394 36.4898 136.355 36.4112 136.283 36.3457C136.204 36.2803 136.112 36.2148 136.001 36.1558C135.889 36.0969 135.771 36.0445 135.64 35.9987C135.509 35.9528 135.391 35.907 135.28 35.8677C135.07 35.7891 134.867 35.7171 134.663 35.6385C134.467 35.5599 134.29 35.4682 134.139 35.37C133.982 35.2717 133.857 35.1604 133.765 35.036C133.674 34.9116 133.628 34.7675 133.628 34.5972C133.628 34.1322 133.818 33.7852 134.198 33.5625C134.578 33.3398 135.096 33.2285 135.758 33.2285C136.093 33.2285 136.368 33.2482 136.584 33.2875C136.801 33.3267 137.01 33.3791 137.22 33.4381L137.128 34.2632C137.017 34.2239 136.899 34.1846 136.774 34.1519C136.65 34.1192 136.532 34.0864 136.42 34.0537C136.302 34.0275 136.191 34.0144 136.086 34.0013C135.981 33.9882 135.902 33.9816 135.843 33.9816C135.522 33.9816 135.253 34.0209 135.037 34.0995C134.821 34.1781 134.716 34.296 134.716 34.4531C134.716 34.5383 134.755 34.6169 134.827 34.6889C134.906 34.7609 134.998 34.8264 135.109 34.8788C135.214 34.9377 135.332 34.9901 135.457 35.0294C135.581 35.0753 135.699 35.108 135.804 35.1408C135.968 35.1932 136.152 35.2521 136.348 35.3176C136.545 35.3831 136.728 35.4682 136.905 35.5795C137.076 35.6843 137.22 35.8087 137.332 35.9594C137.443 36.1034 137.502 36.2802 137.502 36.4833C137.502 36.7256 137.45 36.9351 137.351 37.1119C137.246 37.2888 137.109 37.4394 136.932 37.5573C136.748 37.6686 136.532 37.7537 136.276 37.8061C136.02 37.8585 135.758 37.8913 135.463 37.8913C135.345 37.8913 135.208 37.8913 135.05 37.8847C134.893 37.8847 134.729 37.8651 134.559 37.852C134.388 37.8258 134.218 37.7996 134.054 37.7668C133.89 37.7341 133.746 37.6882 133.621 37.6293L133.68 36.7976H133.66Z" fill="white"/>
<path d="M142.58 37.5901C142.311 37.6818 142.036 37.7604 141.76 37.8193C141.485 37.8782 141.184 37.9044 140.843 37.9044C140.397 37.9044 140.004 37.8455 139.669 37.7342C139.335 37.6228 139.06 37.4591 138.83 37.2496C138.607 37.0465 138.437 36.7911 138.332 36.4964C138.22 36.1952 138.168 35.8678 138.168 35.4945C138.168 35.167 138.227 34.8658 138.345 34.5908C138.463 34.3157 138.627 34.0734 138.837 33.8704C139.046 33.6739 139.302 33.5167 139.604 33.4054C139.905 33.2941 140.24 33.2417 140.607 33.2417C141.026 33.2417 141.387 33.3072 141.682 33.4382C141.977 33.5691 142.213 33.7525 142.396 33.9752C142.58 34.2044 142.711 34.4729 142.79 34.7872C142.868 35.1016 142.908 35.4355 142.908 35.8023H139.276C139.276 36.0053 139.335 36.1952 139.427 36.3589C139.518 36.5226 139.636 36.6667 139.781 36.7846C139.925 36.9025 140.095 36.9942 140.279 37.0596C140.469 37.1251 140.666 37.1579 140.869 37.1579C141.19 37.1579 141.492 37.112 141.767 37.0204C142.042 36.9287 142.272 36.8108 142.462 36.6667L142.56 37.5901H142.58ZM141.813 35.1081C141.8 34.9575 141.76 34.8134 141.701 34.6759C141.642 34.5384 141.557 34.4205 141.452 34.3157C141.347 34.2175 141.223 34.1389 141.079 34.0799C140.934 34.021 140.777 33.9948 140.607 33.9948C140.41 33.9948 140.233 34.0276 140.069 34.093C139.912 34.1585 139.781 34.2437 139.676 34.3484C139.564 34.4532 139.473 34.5711 139.407 34.7021C139.341 34.8331 139.302 34.9706 139.289 35.1081H141.826H141.813Z" fill="white"/>
<path d="M150.725 32.7505C150.43 32.6588 150.174 32.5867 149.964 32.5409C149.755 32.4951 149.525 32.4689 149.283 32.4689C149.138 32.4689 148.988 32.482 148.83 32.5016C148.673 32.5278 148.535 32.5671 148.411 32.626C148.28 32.685 148.168 32.7636 148.089 32.8552C148.004 32.9535 147.965 33.0713 147.965 33.2089C147.965 33.3268 148.004 33.4315 148.083 33.5298C148.162 33.628 148.266 33.7131 148.398 33.7983C148.522 33.8769 148.679 33.9554 148.863 34.0275C149.047 34.0995 149.243 34.1781 149.446 34.2698C149.65 34.3549 149.859 34.4531 150.063 34.5579C150.266 34.6627 150.456 34.7806 150.62 34.9247C150.777 35.0622 150.908 35.2259 151.013 35.4093C151.118 35.5926 151.164 35.8087 151.164 36.051C151.164 36.385 151.085 36.6666 150.935 36.8958C150.784 37.125 150.581 37.315 150.331 37.459C150.076 37.6031 149.781 37.7144 149.446 37.7799C149.112 37.8454 148.765 37.8782 148.404 37.8782C148.155 37.8782 147.893 37.852 147.624 37.793C147.355 37.7341 147.086 37.6686 146.824 37.59L146.962 36.7059C147.054 36.7387 147.165 36.778 147.296 36.8173C147.427 36.8565 147.565 36.8893 147.709 36.9286C147.853 36.9679 147.998 36.9941 148.142 37.0137C148.286 37.0399 148.417 37.0465 148.542 37.0465C148.699 37.0465 148.87 37.0334 149.047 37.0006C149.224 36.9679 149.387 36.9155 149.545 36.8369C149.696 36.7649 149.82 36.6732 149.925 36.5488C150.03 36.4309 150.076 36.2803 150.076 36.0969C150.076 35.9594 150.03 35.8349 149.945 35.7236C149.859 35.6123 149.748 35.5206 149.617 35.4289C149.486 35.3372 149.335 35.2652 149.165 35.1932C148.994 35.1211 148.83 35.0556 148.666 34.9836C148.457 34.8985 148.24 34.8002 148.024 34.702C147.808 34.6038 147.611 34.4793 147.44 34.3353C147.27 34.1977 147.126 34.0471 147.021 33.8768C146.916 33.7066 146.857 33.5101 146.857 33.2875C146.857 33.019 146.923 32.7832 147.047 32.5736C147.172 32.3641 147.342 32.1938 147.565 32.0497C147.775 31.9122 148.024 31.8009 148.319 31.7354C148.614 31.6699 148.922 31.6306 149.25 31.6306C149.486 31.6306 149.755 31.6503 150.05 31.683C150.345 31.7158 150.633 31.7747 150.902 31.8598L150.731 32.7439L150.725 32.7505Z" fill="white"/>
<path d="M155.009 37.6817C154.754 37.8324 154.426 37.9044 154.033 37.9044C153.384 37.9044 152.912 37.7341 152.61 37.4001C152.308 37.0662 152.158 36.5946 152.158 35.9856V33.9096C152.158 33.818 152.158 33.7197 152.158 33.628C152.158 33.5364 152.151 33.4447 152.145 33.3661H153.266C153.252 33.5036 153.246 33.6608 153.239 33.8245C153.239 33.9882 153.239 34.1454 153.239 34.296V35.6582C153.239 36.1755 153.305 36.5488 153.436 36.7911C153.567 37.0334 153.81 37.1578 154.17 37.1709C154.387 37.1709 154.583 37.1251 154.76 37.0334C154.937 36.9417 155.088 36.8173 155.219 36.6536C155.344 36.4899 155.442 36.2934 155.514 36.0707C155.586 35.8481 155.619 35.5992 155.619 35.3373V33.9162C155.619 33.8245 155.619 33.7263 155.619 33.6346C155.619 33.5429 155.612 33.4512 155.606 33.3726H156.733C156.72 33.5102 156.707 33.6673 156.701 33.8311C156.701 33.9948 156.694 34.1519 156.694 34.3026V36.8893C156.694 37.0334 156.694 37.1906 156.701 37.3478C156.701 37.5115 156.72 37.6621 156.733 37.8193H155.612C155.612 37.7538 155.612 37.7014 155.612 37.649C155.612 37.5966 155.612 37.5508 155.612 37.5049V37.0923C155.481 37.3412 155.285 37.5442 155.029 37.6948L155.009 37.6817Z" fill="white"/>
<path d="M159.159 33.3595C159.159 33.4316 159.152 33.484 159.152 33.5298V33.8703C159.205 33.8049 159.283 33.7394 159.382 33.6673C159.48 33.5953 159.604 33.5298 159.742 33.4643C159.88 33.4054 160.037 33.353 160.201 33.3137C160.371 33.2744 160.548 33.2548 160.739 33.2548C161.125 33.2548 161.46 33.3202 161.742 33.4447C162.017 33.5691 162.246 33.7394 162.423 33.9489C162.6 34.165 162.731 34.4139 162.817 34.6955C162.902 34.9771 162.948 35.2718 162.948 35.573C162.948 35.8612 162.895 36.1362 162.797 36.3916C162.699 36.6536 162.554 36.8828 162.371 37.0793C162.181 37.2823 161.945 37.446 161.669 37.5639C161.394 37.6817 161.079 37.7407 160.732 37.7407C160.385 37.7407 160.063 37.6817 159.795 37.5639C159.526 37.446 159.316 37.3085 159.159 37.1447V38.0288C159.159 38.1925 159.159 38.3694 159.159 38.5527C159.159 38.7426 159.172 38.9195 159.185 39.0897H158.057C158.077 38.9391 158.09 38.7819 158.09 38.6248C158.09 38.4676 158.09 38.3104 158.09 38.1598V34.2829C158.09 34.1388 158.09 33.9817 158.077 33.8114C158.077 33.6477 158.057 33.4905 158.051 33.353H159.152L159.159 33.3595ZM161.84 35.5206C161.84 35.3307 161.814 35.1408 161.768 34.9574C161.722 34.7741 161.643 34.6104 161.538 34.4728C161.433 34.3353 161.296 34.2174 161.138 34.1323C160.975 34.0472 160.784 34.0079 160.562 34.0079C160.312 34.0079 160.096 34.0537 159.926 34.1454C159.749 34.2371 159.604 34.3615 159.493 34.5056C159.382 34.6497 159.303 34.8134 159.25 34.9902C159.198 35.167 159.178 35.3373 159.178 35.501C159.178 35.704 159.211 35.9005 159.27 36.0773C159.329 36.2607 159.421 36.4178 159.539 36.5488C159.657 36.6863 159.801 36.7977 159.972 36.8762C160.142 36.9548 160.339 36.9941 160.568 36.9941C160.798 36.9941 160.975 36.9548 161.138 36.8762C161.302 36.7977 161.433 36.6929 161.538 36.5554C161.637 36.4178 161.715 36.2672 161.768 36.0838C161.82 35.907 161.846 35.7171 161.846 35.5075L161.84 35.5206Z" fill="white"/>
<path d="M165.206 33.3595C165.206 33.4316 165.199 33.484 165.199 33.5298V33.8703C165.251 33.8049 165.33 33.7394 165.428 33.6673C165.527 33.5953 165.651 33.5298 165.789 33.4643C165.927 33.4054 166.084 33.353 166.248 33.3137C166.418 33.2744 166.595 33.2548 166.785 33.2548C167.172 33.2548 167.507 33.3202 167.788 33.4447C168.064 33.5691 168.293 33.7394 168.47 33.9489C168.647 34.165 168.778 34.4139 168.864 34.6955C168.949 34.9771 168.995 35.2718 168.995 35.573C168.995 35.8612 168.942 36.1362 168.844 36.3916C168.746 36.6536 168.601 36.8828 168.418 37.0793C168.228 37.2823 167.992 37.446 167.716 37.5639C167.441 37.6817 167.126 37.7407 166.779 37.7407C166.431 37.7407 166.11 37.6817 165.841 37.5639C165.573 37.446 165.363 37.3085 165.206 37.1447V38.0288C165.206 38.1925 165.206 38.3694 165.206 38.5527C165.206 38.7426 165.219 38.9195 165.232 39.0897H164.104C164.124 38.9391 164.137 38.7819 164.137 38.6248C164.137 38.4676 164.137 38.3104 164.137 38.1598V34.2829C164.137 34.1388 164.137 33.9817 164.124 33.8114C164.124 33.6477 164.104 33.4905 164.098 33.353H165.199L165.206 33.3595ZM167.893 35.5206C167.893 35.3307 167.867 35.1408 167.821 34.9574C167.775 34.7741 167.697 34.6104 167.592 34.4728C167.487 34.3353 167.349 34.2174 167.192 34.1323C167.028 34.0472 166.838 34.0079 166.615 34.0079C166.366 34.0079 166.15 34.0537 165.979 34.1454C165.802 34.2371 165.658 34.3615 165.546 34.5056C165.435 34.6497 165.356 34.8134 165.304 34.9902C165.251 35.167 165.232 35.3373 165.232 35.501C165.232 35.704 165.265 35.9005 165.324 36.0773C165.383 36.2607 165.474 36.4178 165.592 36.5488C165.71 36.6863 165.855 36.7977 166.025 36.8762C166.195 36.9548 166.392 36.9941 166.622 36.9941C166.851 36.9941 167.028 36.9548 167.192 36.8762C167.356 36.7977 167.487 36.6929 167.592 36.5554C167.69 36.4178 167.769 36.2672 167.821 36.0838C167.874 35.907 167.9 35.7171 167.9 35.5075L167.893 35.5206Z" fill="white"/>
<path d="M169.897 35.5731C169.897 35.2522 169.956 34.9509 170.068 34.6628C170.186 34.3812 170.35 34.1323 170.566 33.9228C170.776 33.7132 171.038 33.5429 171.353 33.4251C171.667 33.3006 172.021 33.2417 172.415 33.2417C172.775 33.2417 173.109 33.3006 173.418 33.4185C173.726 33.5364 173.988 33.7001 174.217 33.9031C174.44 34.1127 174.617 34.3615 174.742 34.6431C174.866 34.9247 174.932 35.2325 174.932 35.5665C174.932 35.8612 174.873 36.1428 174.755 36.4244C174.637 36.706 174.466 36.9549 174.25 37.171C174.034 37.3936 173.765 37.5704 173.457 37.7014C173.149 37.8324 172.801 37.8979 172.415 37.8979C172.074 37.8979 171.746 37.8389 171.444 37.7211C171.143 37.6032 170.874 37.4395 170.645 37.2299C170.415 37.0269 170.232 36.778 170.094 36.4964C169.956 36.2083 169.891 35.9005 169.891 35.5665L169.897 35.5731ZM171.005 35.5731C171.005 35.763 171.031 35.9529 171.09 36.1428C171.149 36.3327 171.228 36.4964 171.339 36.6536C171.451 36.8042 171.595 36.9287 171.779 37.0204C171.956 37.112 172.172 37.1579 172.421 37.1579C172.657 37.1579 172.867 37.112 173.044 37.0204C173.221 36.9287 173.372 36.8042 173.49 36.6536C173.601 36.5095 173.686 36.3393 173.745 36.1494C173.804 35.9594 173.837 35.7695 173.837 35.5731C173.837 35.3766 173.811 35.1998 173.752 35.0099C173.693 34.82 173.608 34.6497 173.49 34.4991C173.372 34.355 173.221 34.2306 173.044 34.1389C172.867 34.0472 172.657 34.0014 172.421 34.0014C172.185 34.0014 171.988 34.0472 171.811 34.1389C171.634 34.2306 171.49 34.355 171.372 34.4991C171.254 34.6497 171.162 34.82 171.097 35.0099C171.031 35.1998 171.005 35.3897 171.005 35.5796V35.5731Z" fill="white"/>
<path d="M178.491 34.0798C178.301 34.0798 178.117 34.1191 177.953 34.2043C177.79 34.2894 177.639 34.4007 177.521 34.5448C177.396 34.6889 177.298 34.8657 177.226 35.0753C177.154 35.2848 177.121 35.514 177.121 35.7629V37.3411C177.121 37.5049 177.127 37.6555 177.147 37.7995H176.02C176.033 37.662 176.046 37.5049 176.046 37.3411C176.046 37.1774 176.052 37.0202 176.052 36.8696V34.1846C176.052 34.0405 176.052 33.8965 176.046 33.7655C176.046 33.6345 176.026 33.4904 176.02 33.3398H177.127C177.127 33.3988 177.121 33.4446 177.121 33.4773V33.9096C177.16 33.831 177.219 33.7589 177.298 33.6869C177.377 33.6149 177.475 33.5428 177.586 33.4839C177.698 33.425 177.822 33.3791 177.967 33.3398C178.111 33.3005 178.268 33.2809 178.439 33.2809C178.557 33.2809 178.707 33.294 178.891 33.3136C179.074 33.3333 179.238 33.366 179.383 33.4119L179.225 34.2632C179.114 34.2174 178.996 34.1715 178.865 34.1388C178.734 34.0995 178.609 34.0798 178.491 34.0798Z" fill="white"/>
<path d="M180.687 32.9731C180.687 32.8225 180.687 32.6653 180.687 32.5082C180.687 32.351 180.674 32.1938 180.661 32.0432H181.782C181.769 32.1545 181.762 32.2724 181.762 32.4034V33.3268H182.398C182.497 33.3268 182.608 33.3268 182.733 33.3268C182.857 33.3268 182.975 33.3137 183.08 33.3071V34.1126C182.982 34.0995 182.87 34.093 182.752 34.093C182.634 34.093 182.529 34.093 182.438 34.093H181.762V36.444C181.762 36.719 181.815 36.909 181.926 37.0072C182.038 37.1054 182.208 37.1578 182.444 37.1578C182.549 37.1578 182.66 37.1382 182.778 37.0989C182.896 37.0596 183.014 37.0072 183.139 36.9483V37.7734C183.014 37.8127 182.877 37.8454 182.733 37.8716C182.588 37.8978 182.438 37.9044 182.287 37.9044C181.795 37.9044 181.402 37.8061 181.12 37.6031C180.838 37.4001 180.694 37.0727 180.694 36.6143V34.0995H180.228C180.137 34.0995 180.032 34.0995 179.907 34.0995C179.783 34.0995 179.678 34.1126 179.586 34.1192V33.3137C179.697 33.3268 179.815 33.3333 179.94 33.3333C180.064 33.3333 180.169 33.3333 180.274 33.3333H180.7V32.9797L180.687 32.9731Z" fill="white"/>
<path d="M185.289 32.482H184.09V31.4669H185.289V32.482ZM185.244 37.0727C185.244 37.184 185.244 37.3019 185.244 37.4329C185.244 37.5638 185.25 37.6752 185.257 37.7865H184.116C184.116 37.649 184.129 37.4918 184.136 37.3281C184.136 37.1644 184.149 37.0072 184.149 36.8566V34.2502C184.149 34.1061 184.149 33.9489 184.149 33.7917C184.149 33.628 184.136 33.4774 184.123 33.3202H185.263C185.257 33.4054 185.25 33.5167 185.25 33.6411C185.25 33.7655 185.25 33.8769 185.25 33.9686V37.0727H185.244Z" fill="white"/>
<path d="M189.263 33.2417C189.932 33.2417 190.417 33.4119 190.725 33.7525C191.033 34.093 191.184 34.5645 191.184 35.167V37.2626C191.184 37.4591 191.197 37.6424 191.21 37.8062H190.082C190.096 37.6686 190.102 37.5115 190.109 37.3477C190.109 37.184 190.109 37.0269 190.109 36.8762V35.501C190.109 34.9902 190.037 34.6169 189.899 34.3811C189.761 34.1454 189.506 34.0144 189.138 34.0013C188.909 34.0013 188.706 34.0472 188.529 34.1323C188.352 34.2174 188.208 34.3419 188.09 34.4925C187.972 34.6496 187.88 34.833 187.821 35.0491C187.762 35.2652 187.729 35.4944 187.729 35.7433V37.3477C187.729 37.4329 187.729 37.5115 187.729 37.5835C187.729 37.6621 187.736 37.7341 187.742 37.7996H186.621C186.634 37.6621 186.641 37.5049 186.647 37.3412C186.647 37.1775 186.647 37.0203 186.647 36.8697V34.2764C186.647 34.1257 186.647 33.9686 186.647 33.8114C186.647 33.6542 186.634 33.4971 186.621 33.3464H187.742C187.736 33.3923 187.729 33.4316 187.729 33.4578C187.729 33.484 187.729 33.5167 187.729 33.5429V33.8507C188.05 33.4447 188.562 33.2351 189.256 33.2351L189.263 33.2417Z" fill="white"/>
<path d="M197.109 37.1774C197.109 37.8323 196.893 38.33 196.46 38.6706C196.027 39.0111 195.365 39.1814 194.467 39.1814C194.336 39.1814 194.198 39.1814 194.067 39.1683C193.929 39.1617 193.792 39.1421 193.648 39.1224C193.497 39.0962 193.333 39.07 193.169 39.0242C193.005 38.9784 192.815 38.926 192.618 38.8605L192.736 38.0288C192.913 38.1008 193.077 38.1598 193.228 38.2122C193.379 38.2645 193.53 38.3104 193.674 38.3431C193.818 38.3693 193.962 38.3955 194.106 38.4152C194.251 38.4348 194.408 38.4414 194.572 38.4414C195.09 38.4414 195.457 38.3104 195.693 38.0419C195.922 37.7734 196.04 37.387 196.04 36.8697C195.87 37.0399 195.654 37.184 195.404 37.3019C195.155 37.4198 194.841 37.4787 194.467 37.4787C194.12 37.4787 193.805 37.4263 193.53 37.3215C193.254 37.2167 193.025 37.0727 192.841 36.8828C192.651 36.6994 192.507 36.4833 192.409 36.241C192.31 35.9921 192.258 35.7302 192.258 35.4486C192.258 35.1342 192.31 34.8395 192.409 34.5776C192.507 34.3091 192.651 34.0799 192.841 33.89C193.031 33.7 193.261 33.5429 193.536 33.4315C193.805 33.3202 194.12 33.2678 194.467 33.2678C194.69 33.2678 194.887 33.2875 195.064 33.3202C195.234 33.353 195.385 33.3988 195.516 33.4577C195.64 33.5167 195.752 33.5822 195.837 33.6542C195.929 33.7262 196.001 33.8048 196.06 33.8769V33.6738C196.06 33.5887 196.053 33.4905 196.04 33.3726H197.142C197.129 33.5101 197.122 33.6673 197.115 33.831C197.115 33.9947 197.115 34.1519 197.115 34.3025V37.1905L197.109 37.1774ZM193.359 35.3962C193.359 35.7891 193.471 36.11 193.687 36.3589C193.903 36.6077 194.238 36.7321 194.683 36.7321C195.129 36.7321 195.47 36.6077 195.686 36.3654C195.909 36.1165 196.021 35.7957 196.021 35.4027C196.021 35.2194 195.994 35.0491 195.935 34.8788C195.883 34.7086 195.798 34.5579 195.686 34.4335C195.568 34.3091 195.424 34.2108 195.26 34.1323C195.096 34.0537 194.906 34.0209 194.683 34.0209C194.454 34.0209 194.251 34.0602 194.087 34.1323C193.923 34.2043 193.779 34.3025 193.674 34.427C193.562 34.5579 193.484 34.702 193.431 34.8723C193.379 35.036 193.359 35.2194 193.359 35.4093V35.3962Z" fill="white"/>
<path d="M206.309 32.8684C206.053 32.7309 205.804 32.6261 205.575 32.5606C205.345 32.4951 205.109 32.4624 204.88 32.4624C204.513 32.4624 204.178 32.5213 203.877 32.6392C203.575 32.7571 203.319 32.9143 203.11 33.1238C202.9 33.3334 202.736 33.5691 202.625 33.8442C202.513 34.1192 202.454 34.4205 202.454 34.7414C202.454 35.0623 202.507 35.357 202.611 35.6386C202.716 35.9201 202.874 36.1625 203.077 36.3655C203.28 36.575 203.536 36.7453 203.837 36.8632C204.139 36.9811 204.486 37.0465 204.88 37.0465C205.116 37.0465 205.378 37.0138 205.66 36.9549C205.942 36.8959 206.197 36.7977 206.44 36.6602L206.492 37.6228C206.204 37.7342 205.909 37.8062 205.62 37.8324C205.332 37.8586 205.07 37.8782 204.84 37.8782C204.329 37.8782 203.864 37.8062 203.437 37.6556C203.011 37.505 202.644 37.2954 202.336 37.0203C202.028 36.7518 201.785 36.4244 201.615 36.038C201.445 35.6516 201.359 35.2194 201.359 34.7414C201.359 34.2633 201.438 33.8638 201.595 33.484C201.753 33.1042 201.982 32.7702 202.29 32.4951C202.585 32.2201 202.952 32.004 203.385 31.8534C203.818 31.7027 204.303 31.6241 204.847 31.6241C205.122 31.6241 205.384 31.6438 205.627 31.6765C205.87 31.7093 206.132 31.7879 206.414 31.9057L206.322 32.8619L206.309 32.8684Z" fill="white"/>
<path d="M211.697 37.5901C211.428 37.6818 211.153 37.7604 210.878 37.8193C210.602 37.8782 210.301 37.9044 209.96 37.9044C209.514 37.9044 209.121 37.8455 208.786 37.7342C208.452 37.6228 208.177 37.4591 207.947 37.2496C207.724 37.0465 207.554 36.7911 207.449 36.4964C207.338 36.1952 207.285 35.8678 207.285 35.4945C207.285 35.167 207.344 34.8658 207.462 34.5908C207.58 34.3157 207.744 34.0734 207.954 33.8704C208.164 33.6739 208.419 33.5167 208.721 33.4054C209.022 33.2941 209.357 33.2417 209.724 33.2417C210.143 33.2417 210.504 33.3072 210.799 33.4382C211.094 33.5691 211.33 33.7525 211.513 33.9752C211.697 34.2044 211.828 34.4729 211.907 34.7872C211.985 35.1016 212.025 35.4355 212.025 35.8023H208.393C208.393 36.0053 208.452 36.1952 208.544 36.3589C208.636 36.5226 208.754 36.6667 208.898 36.7846C209.042 36.9025 209.212 36.9942 209.396 37.0596C209.586 37.1251 209.783 37.1579 209.986 37.1579C210.307 37.1579 210.609 37.112 210.884 37.0204C211.159 36.9287 211.389 36.8108 211.579 36.6667L211.677 37.5901H211.697ZM210.93 35.1081C210.917 34.9575 210.878 34.8134 210.819 34.6759C210.76 34.5384 210.674 34.4205 210.569 34.3157C210.465 34.2175 210.34 34.1389 210.196 34.0799C210.052 34.021 209.894 33.9948 209.724 33.9948C209.527 33.9948 209.35 34.0276 209.186 34.093C209.029 34.1585 208.898 34.2437 208.793 34.3484C208.681 34.4532 208.59 34.5711 208.524 34.7021C208.459 34.8331 208.419 34.9706 208.406 35.1081H210.943H210.93Z" fill="white"/>
<path d="M215.775 33.2417C216.443 33.2417 216.928 33.4119 217.237 33.7525C217.545 34.093 217.695 34.5645 217.695 35.167V37.2626C217.695 37.4591 217.709 37.6424 217.722 37.8062H216.594C216.607 37.6686 216.614 37.5115 216.62 37.3477C216.62 37.184 216.62 37.0269 216.62 36.8762V35.501C216.62 34.9902 216.548 34.6169 216.411 34.3811C216.273 34.1454 216.017 34.0144 215.65 34.0013C215.421 34.0013 215.217 34.0472 215.04 34.1323C214.863 34.2174 214.719 34.3419 214.601 34.4925C214.483 34.6496 214.391 34.833 214.332 35.0491C214.273 35.2652 214.241 35.4944 214.241 35.7433V37.3477C214.241 37.4329 214.241 37.5115 214.241 37.5835C214.241 37.6621 214.247 37.7341 214.254 37.7996H213.133C213.146 37.6621 213.152 37.5049 213.159 37.3412C213.159 37.1775 213.159 37.0203 213.159 36.8697V34.2764C213.159 34.1257 213.159 33.9686 213.159 33.8114C213.159 33.6542 213.146 33.4971 213.133 33.3464H214.254C214.247 33.3923 214.241 33.4316 214.241 33.4578C214.241 33.484 214.241 33.5167 214.241 33.5429V33.8507C214.562 33.4447 215.073 33.2351 215.768 33.2351L215.775 33.2417Z" fill="white"/>
<path d="M219.562 32.9731C219.562 32.8225 219.562 32.6653 219.562 32.5082C219.562 32.351 219.549 32.1938 219.536 32.0432H220.657C220.644 32.1545 220.637 32.2724 220.637 32.4034V33.3268H221.273C221.372 33.3268 221.483 33.3268 221.608 33.3268C221.732 33.3268 221.85 33.3137 221.955 33.3071V34.1126C221.857 34.0995 221.745 34.093 221.627 34.093C221.509 34.093 221.404 34.093 221.313 34.093H220.637V36.444C220.637 36.719 220.69 36.909 220.801 37.0072C220.913 37.1054 221.083 37.1578 221.319 37.1578C221.424 37.1578 221.535 37.1382 221.653 37.0989C221.771 37.0596 221.889 37.0072 222.014 36.9483V37.7734C221.889 37.8127 221.752 37.8454 221.608 37.8716C221.463 37.8978 221.313 37.9044 221.162 37.9044C220.67 37.9044 220.277 37.8061 219.995 37.6031C219.713 37.4001 219.569 37.0727 219.569 36.6143V34.0995H219.103C219.012 34.0995 218.907 34.0995 218.782 34.0995C218.658 34.0995 218.553 34.1126 218.461 34.1192V33.3137C218.572 33.3268 218.69 33.3333 218.815 33.3333C218.939 33.3333 219.044 33.3333 219.149 33.3333H219.575V32.9797L219.562 32.9731Z" fill="white"/>
<path d="M227.135 37.5901C226.866 37.6818 226.59 37.7604 226.315 37.8193C226.04 37.8782 225.738 37.9044 225.397 37.9044C224.952 37.9044 224.558 37.8455 224.224 37.7342C223.89 37.6228 223.614 37.4591 223.385 37.2496C223.162 37.0465 222.991 36.7911 222.887 36.4964C222.775 36.1952 222.723 35.8678 222.723 35.4945C222.723 35.167 222.782 34.8658 222.9 34.5908C223.018 34.3157 223.182 34.0734 223.391 33.8704C223.601 33.6739 223.857 33.5167 224.158 33.4054C224.46 33.2941 224.794 33.2417 225.161 33.2417C225.581 33.2417 225.941 33.3072 226.236 33.4382C226.531 33.5691 226.767 33.7525 226.951 33.9752C227.135 34.2044 227.266 34.4729 227.344 34.7872C227.423 35.1016 227.462 35.4355 227.462 35.8023H223.831C223.831 36.0053 223.89 36.1952 223.981 36.3589C224.073 36.5226 224.191 36.6667 224.335 36.7846C224.48 36.9025 224.65 36.9942 224.834 37.0596C225.024 37.1251 225.22 37.1579 225.424 37.1579C225.745 37.1579 226.046 37.112 226.322 37.0204C226.597 36.9287 226.826 36.8108 227.017 36.6667L227.115 37.5901H227.135ZM226.374 35.1081C226.361 34.9575 226.322 34.8134 226.263 34.6759C226.204 34.5384 226.118 34.4205 226.014 34.3157C225.909 34.2175 225.784 34.1389 225.64 34.0799C225.496 34.021 225.338 33.9948 225.168 33.9948C224.971 33.9948 224.794 34.0276 224.63 34.093C224.473 34.1585 224.342 34.2437 224.237 34.3484C224.126 34.4532 224.034 34.5711 223.968 34.7021C223.903 34.8331 223.863 34.9706 223.85 35.1081H226.387H226.374Z" fill="white"/>
<path d="M231.034 34.0798C230.844 34.0798 230.66 34.1191 230.496 34.2043C230.332 34.2894 230.182 34.4007 230.064 34.5448C229.939 34.6889 229.841 34.8657 229.769 35.0753C229.697 35.2848 229.664 35.514 229.664 35.7629V37.3411C229.664 37.5049 229.67 37.6555 229.69 37.7995H228.562C228.576 37.662 228.589 37.5049 228.589 37.3411C228.589 37.1774 228.595 37.0202 228.595 36.8696V34.1846C228.595 34.0405 228.595 33.8965 228.589 33.7655C228.589 33.6345 228.569 33.4904 228.562 33.3398H229.67C229.67 33.3988 229.664 33.4446 229.664 33.4773V33.9096C229.703 33.831 229.762 33.7589 229.841 33.6869C229.919 33.6149 230.018 33.5428 230.129 33.4839C230.241 33.425 230.365 33.3791 230.509 33.3398C230.654 33.3005 230.811 33.2809 230.981 33.2809C231.099 33.2809 231.25 33.294 231.434 33.3136C231.617 33.3333 231.781 33.366 231.925 33.4119L231.768 34.2632C231.657 34.2174 231.539 34.1715 231.408 34.1388C231.276 34.0995 231.152 34.0798 231.034 34.0798Z" fill="white"/>
</g>
<defs>
<clipPath id="clip0_1637_7153">
<rect width="232" height="40" fill="white"/>
</clipPath>
</defs>
</svg>
