<svg width="218" height="32" viewBox="0 0 218 32" fill="none" xmlns="http://www.w3.org/2000/svg">
<g clip-path="url(#clip0_1637_6135)">
<path d="M45.7695 15.8889L45.3895 15.6489C44.1095 14.3689 42.3195 13.8189 39.9395 13.9489C37.9495 14.0689 36.3795 14.8589 35.1695 15.5889V15.5389C35.1695 14.9189 35.2395 14.2389 35.3095 13.5889C35.3795 12.9189 35.4495 12.2489 35.4495 11.6089C35.4495 10.9689 35.3795 10.3289 35.1495 9.79891C35.0895 9.66891 34.9695 9.57891 34.8095 9.57891C34.1695 9.58891 32.9095 10.0289 32.6095 10.2989L32.4495 10.6589C32.4495 11.3689 32.2795 13.3489 32.1195 13.5989L32.0395 13.8389C31.7695 16.6689 31.7595 19.1689 32.0095 21.3089C32.0395 21.5189 32.4495 21.8389 32.7695 21.9589C33.1195 22.0889 34.2095 21.7989 34.8395 21.5589L35.0795 21.5189C35.2795 21.4989 35.3995 21.3289 35.3895 21.1089L35.4095 20.4889C35.8595 18.6389 37.6995 16.4389 39.8795 16.1089C41.1095 15.9089 42.0795 16.2289 42.8495 17.0689C42.9595 17.2189 43.1795 18.5489 42.3695 20.0789C41.7695 21.2089 40.5595 22.1589 38.9695 22.7589C37.4695 23.3289 35.8095 23.5589 33.7695 23.4889C33.6895 23.4389 31.8595 22.1989 31.8595 22.1989C30.2395 21.0589 28.2295 19.6489 26.3995 18.9589C26.0795 18.8389 25.5095 18.3589 25.1595 18.0689L24.9695 17.9089C23.9195 17.0689 21.9195 15.7289 20.3095 14.6589C20.3095 14.6589 19.5895 14.1689 19.4495 14.0789V13.8989C19.4995 13.8489 20.5095 13.2389 20.5095 13.2389C21.9295 12.4089 22.5795 12.0089 22.7195 11.7989C22.6895 11.8289 22.9095 11.6889 22.9095 11.6889C22.9195 11.6889 26.4195 9.69891 26.4195 9.69891C29.7895 7.84891 33.5995 5.74891 35.5995 3.67891L35.6995 3.35891L35.7395 3.07891C35.8695 2.63891 35.8795 2.29891 35.7695 1.89891C35.7395 1.78891 35.6395 1.65891 35.4995 1.62891C33.9395 1.46891 31.9195 2.40891 30.0795 4.12891C29.6695 4.51891 29.3195 4.70891 28.9495 4.90891L28.6695 5.06891C26.6395 6.21891 22.0795 9.04891 19.6995 10.5789C19.8495 8.00891 20.3295 4.35891 20.9195 1.31891L20.8495 0.958906L20.5995 0.498906L20.4095 0.168906H20.3595C19.8795 -0.0810937 19.4895 0.00890625 19.2095 0.0789062L18.7295 0.258906L18.0995 0.488906C17.9795 0.508906 17.8895 0.588906 17.8395 0.708906C16.6995 3.46891 15.7495 7.99891 15.5195 11.6289C13.2395 10.1789 11.1395 9.13891 10.0995 8.62891H10.0695L9.94953 8.58891C9.57953 8.53891 9.11953 8.26891 8.68953 7.99891C8.63953 7.96891 7.81953 7.43891 7.81953 7.43891L6.49953 6.58891L6.14953 6.50891C5.57953 6.60891 4.48953 7.33891 4.15953 7.83891C4.11953 7.90891 4.09953 7.97891 4.09953 8.04891C4.09953 8.15891 4.12953 8.25891 4.15953 8.35891L4.21953 8.62891L4.27953 8.78891C4.90953 9.43891 6.51953 10.5289 8.08953 11.3689L9.90953 12.3289L12.6995 13.8489L13.1795 14.2289L13.5095 14.4189C13.5095 14.4189 13.5495 14.4389 13.5695 14.4589C12.8295 14.9589 8.49953 17.8389 8.49953 17.8389L5.82953 19.6089C5.57953 19.7789 4.52953 20.2489 4.28953 20.3489C3.70953 20.5789 3.27953 20.9489 3.08953 21.3389L3.01953 21.4889L3.08953 21.5889L3.28953 21.7389L3.55953 21.9189L3.84953 22.1189L4.12953 22.1589C4.59953 22.1789 5.28953 21.9089 6.58953 21.3389C7.77953 20.8089 11.0195 18.8589 12.3995 18.0289L12.9895 17.6689C13.2295 17.6889 13.4995 17.4789 13.7395 17.2989C14.0195 17.0789 14.6195 16.7089 14.9895 16.5389C14.9995 16.5389 15.2095 16.4189 15.4095 16.3089C15.4095 16.3689 15.4095 16.4689 15.4095 16.4689C15.4695 20.7089 15.7095 23.7789 16.1795 26.1489V26.1889L16.2295 26.2889C16.4595 26.6289 16.7195 27.6289 16.9495 28.5089L17.4795 30.2789L17.6295 30.4389C17.9295 30.6389 18.8495 30.9989 19.4595 30.9189L19.6095 30.8989L19.7095 30.6889C19.7595 30.4289 19.7795 30.1589 19.7795 29.8789C19.7795 29.5589 19.7495 29.1989 19.7295 28.7689L19.6895 28.1389C19.4895 25.1789 19.2995 20.9189 19.2995 18.0789V17.8589C19.7995 18.1689 21.9995 19.5589 21.9995 19.5589C25.7395 21.9789 31.3795 25.6489 34.7895 26.6089C34.9695 26.6589 35.1495 26.6189 35.2795 26.4989L35.8095 26.1589L35.9095 26.1189C36.1095 26.0189 36.2395 25.6889 36.2595 25.3389C39.1395 25.1989 43.1495 24.0889 45.2895 21.3889C46.1195 20.3389 46.4895 19.0589 46.4895 17.9689C46.4895 17.0689 46.2395 16.2989 45.7895 15.8689" fill="white"/>
<path d="M136.251 24.1516C132.821 24.1516 130.051 23.3716 130.051 21.6216C130.051 19.8716 132.821 19.0916 136.251 19.0916C139.681 19.0916 142.451 19.8816 142.451 21.6216C142.451 23.3616 139.671 24.1516 136.251 24.1516ZM136.251 16.8516C131.301 16.8516 127.281 18.4216 127.281 21.6116C127.281 24.8016 131.301 26.3716 136.251 26.3716C141.201 26.3716 145.221 24.7816 145.221 21.6116C145.221 18.4416 141.201 16.8516 136.251 16.8516Z" fill="white"/>
<path d="M56.3516 4.30078H59.7016V13.7108L70.9916 4.30078H75.7416L63.8116 13.7908L76.7316 25.3108H71.9916L59.7016 14.0508V25.3108H56.3516V4.30078Z" fill="white"/>
<path d="M79.0703 4.33984H89.4003C94.3103 4.33984 96.8803 5.96984 96.8803 9.53984C96.8803 12.0798 95.1103 13.8198 92.7503 14.2898V14.3798C96.1303 14.7798 97.7303 16.9998 97.7303 19.4998C97.7303 22.6298 95.4303 25.3498 89.7303 25.3498H79.0703V4.33984ZM82.4203 13.1998H89.2303C91.7603 13.1998 93.6303 12.2398 93.6303 9.99984C93.6303 8.04984 92.7103 6.74984 88.8403 6.74984H82.4103V13.2098L82.4203 13.1998ZM82.4203 22.9698H89.0203C93.1203 22.9698 94.2103 21.3698 94.2103 19.3298C94.2103 16.9098 92.5403 15.5798 88.8403 15.5798H82.4103V22.9698H82.4203Z" fill="white"/>
<path d="M122.612 4.46875H120.002V7.41875H107.602V4.46875H104.992V14.7488H122.612V4.46875ZM107.602 9.67875H120.002V12.4788H107.602V9.67875Z" fill="white"/>
<path d="M137.662 13.7286V11.9786H144.962V9.71859H130.472V6.57859H144.852V4.30859H127.862V11.9786H135.022V13.7286H125.492V15.9986H147.042V13.7286H137.662Z" fill="white"/>
<path d="M124.452 16.6992V18.9892H115.042V25.3792H112.412V18.9892H102.992V16.6992H124.452Z" fill="white"/>
<path d="M167.288 25.2288H150.578V17.4688H153.218V22.9488H167.288V25.2288Z" fill="white"/>
<path d="M164.422 19.5688H167.082V10.7287H169.762V8.43875H167.082V4.21875H164.422V19.5688Z" fill="white"/>
<path d="M190.159 25.2288H173.449V17.4688H176.099V22.9488H190.159V25.2288Z" fill="white"/>
<path d="M194.129 17.0508H210.839V25.3408H208.189V19.3408H194.129V17.0508Z" fill="white"/>
<path d="M189.939 4.21875H187.289V19.5688H189.939V4.21875Z" fill="white"/>
<path d="M195.481 12.7987V10.8288H204.531V8.55875H195.481V6.72875H205.061V4.46875H192.871V15.0588H205.581V12.7987H195.481Z" fill="white"/>
<path d="M208.172 15.4487H210.832V10.7287H213.512V8.43875H210.832V4.21875H208.172V15.4487Z" fill="white"/>
<path d="M156.919 6.53906V4.28906H154.009V6.53906C153.609 12.2391 148.309 13.6991 148.309 13.6991V15.8791C150.649 15.3091 153.689 13.3391 155.479 10.6391C157.329 13.3491 160.479 15.3091 162.819 15.8791V13.6991C162.819 13.6991 157.319 12.2391 156.909 6.53906" fill="white"/>
<path d="M179.06 6.53906V4.28906H176.16V6.53906C175.75 12.2391 170.25 13.6991 170.25 13.6991V15.8791C172.59 15.3091 175.73 13.3491 177.59 10.6391C179.4 13.3391 182.53 15.1991 185.29 15.8791V13.6991C185.29 13.6991 179.47 12.2391 179.07 6.53906" fill="white"/>
</g>
<defs>
<clipPath id="clip0_1637_6135">
<rect width="211" height="31" fill="white" transform="translate(3)"/>
</clipPath>
</defs>
</svg>
