<svg width="202" height="40" viewBox="0 0 202 40" fill="none" xmlns="http://www.w3.org/2000/svg">
<mask id="mask0_1637_6384" style="mask-type:luminance" maskUnits="userSpaceOnUse" x="53" y="9" width="149" height="20">
<path d="M201.999 9.46228H53.0234V28.3867H201.999V9.46228Z" fill="white"/>
</mask>
<g mask="url(#mask0_1637_6384)">
<path d="M53.0234 10.8718H58.3913V9.46228H61.3261V10.8718H66.694V13.3904H53.0234V10.8718ZM56.9211 14.5457C55.791 14.5457 54.9204 14.8693 54.3207 15.5105C53.7211 16.1574 53.4213 17.0008 53.4213 18.0521C53.4213 19.1036 53.7211 19.9759 54.3207 20.6228C54.9204 21.2756 55.791 21.5991 56.9211 21.5991H62.7732C63.9495 21.5991 64.8375 21.2756 65.437 20.6228C66.0367 19.97 66.3365 19.1151 66.3365 18.0521C66.3365 16.9893 66.0367 16.1517 65.437 15.5105C64.8375 14.8693 63.9495 14.5457 62.7732 14.5457H56.9211ZM68.1181 10.1786H71.0298V14.2338H72.8979V16.816H71.0298V28.3867H55.9178C55.5661 28.3867 55.2663 28.3231 55.0069 28.196C54.7474 28.069 54.5341 27.9014 54.3669 27.6819C54.1996 27.4624 54.0728 27.2198 53.9921 26.9483C53.9113 26.6768 53.8652 26.3937 53.8652 26.0991V22.9912H56.7596V25.3019C56.7596 25.6254 56.9211 25.7872 57.2439 25.7872H68.1239V10.1786H68.1181ZM57.4688 19.2307C57.0652 19.2307 56.7711 19.1209 56.5982 18.9071C56.4252 18.6876 56.3388 18.4046 56.3388 18.058C56.3388 17.7345 56.4252 17.4687 56.5982 17.2608C56.7711 17.0528 57.0652 16.943 57.4688 16.943H62.2486C62.6407 16.943 62.929 17.047 63.1077 17.2608C63.2864 17.4687 63.3787 17.7345 63.3787 18.058C63.3787 18.4104 63.2864 18.6934 63.1077 18.9071C62.9232 19.1267 62.6407 19.2307 62.2486 19.2307H57.4688Z" fill="white"/>
<path d="M75.1023 12.7204V10.1786H91.5577C91.8921 10.1786 92.1919 10.2421 92.4456 10.3692C92.7051 10.4963 92.9184 10.6696 93.0969 10.8833C93.2701 11.1029 93.4032 11.3455 93.4833 11.617C93.5698 11.8884 93.6098 12.1715 93.6098 12.4661V19.3578H85.7689V21.5009H91.6154C92.3303 21.5009 92.8377 21.7262 93.1435 22.171C93.4488 22.6216 93.6043 23.2628 93.6043 24.1062V28.3924H90.6295V25.0131C90.6295 24.6377 90.566 24.3834 90.4392 24.2564C90.3123 24.1293 90.1567 24.0658 89.9779 24.0658H75.0273V21.5009H82.8284V19.3578H75.0273V16.816H90.6871V13.2056C90.6871 12.882 90.5314 12.7204 90.2258 12.7204H75.0907H75.1023Z" fill="white"/>
<path d="M104.597 13.3268C104.804 13.7601 105.087 14.1298 105.433 14.4417C105.854 14.8346 106.304 15.1292 106.794 15.3256C107.284 15.522 107.86 15.6491 108.535 15.7011V18.3294C107.18 18.2428 105.992 17.9367 104.972 17.4052C103.952 16.8737 103.196 16.1227 102.706 15.1581C102.118 16.1227 101.334 16.8737 100.347 17.4052C99.3614 17.9367 98.1913 18.2486 96.8359 18.3294V15.7011C97.5052 15.6433 98.0815 15.522 98.5655 15.3256C99.0505 15.1292 99.5001 14.8346 99.9209 14.4417C100.244 14.1645 100.52 13.789 100.757 13.3268H96.9225V10.8082H101.282V9.46228H104.089V10.8082H108.368V13.3268H104.597ZM100.383 25.0073V25.3828C100.383 25.6485 100.428 25.8218 100.52 25.9085C100.612 25.9951 100.757 26.0356 100.953 26.0356H115.419V28.3867H99.6099C98.8541 28.3867 98.3123 28.1903 97.9716 27.7859C97.6374 27.3873 97.4708 26.8096 97.4708 26.0529V22.8411H112.502V22.4829C112.502 22.2172 112.456 22.0439 112.363 21.9573C112.271 21.8706 112.127 21.8301 111.931 21.8301H97.4643V19.479H113.274C114.029 19.479 114.572 19.6813 114.912 20.0798C115.246 20.4784 115.413 21.056 115.413 21.8128V25.0073H100.383ZM109.019 13.3904H112.502V10.1786H115.413V18.5605H112.502V15.8108H109.019V13.3961V13.3904Z" fill="white"/>
<path d="M134.304 17.8211V13.1998C134.304 12.8763 134.149 12.7146 133.843 12.7146H118.708V10.1786H135.163C135.497 10.1786 135.798 10.2421 136.057 10.3692C136.317 10.4963 136.53 10.6696 136.709 10.8833C136.882 11.1029 137.014 11.3455 137.095 11.617C137.176 11.8884 137.221 12.1715 137.221 12.4661V20.3629H118.645V17.8211H134.304ZM137.216 25.7814V28.3867H120.714C120.38 28.3867 120.08 28.3231 119.821 28.1961C119.562 28.069 119.348 27.9015 119.169 27.6819C118.997 27.4624 118.864 27.2198 118.772 26.9483C118.679 26.6768 118.633 26.3938 118.633 26.0991V22.1479H121.568V25.2962C121.568 25.4522 121.597 25.5677 121.66 25.6543C121.723 25.741 121.839 25.7814 122.006 25.7814H137.205H137.216Z" fill="white"/>
<path d="M140.445 12.7204V10.1786H150.697V17.5092C150.697 18.757 150.461 19.947 149.982 21.0791C149.504 22.2114 148.823 23.2108 147.93 24.0715C147.036 24.9323 145.957 25.6138 144.689 26.1164C143.426 26.6191 142.008 26.8674 140.445 26.8501V24.2853C141.454 24.2275 142.4 24.0484 143.299 23.7364C144.193 23.4303 144.971 22.9912 145.628 22.4367C146.286 21.8764 146.805 21.1947 147.191 20.3918C147.578 19.5888 147.768 18.653 147.768 17.59V12.7204H140.451H140.445ZM151.683 15.7646H156.105V10.1786H159.016V28.3867H156.105V18.3064H151.683V15.7646Z" fill="white"/>
<path d="M167.93 17.1279V13.6388C167.93 13.2749 167.874 13.0207 167.752 12.882C167.631 12.7434 167.458 12.6741 167.215 12.6741H161.617V10.1786H168.6C169.355 10.1786 169.897 10.3807 170.237 10.7793C170.571 11.1779 170.739 11.7556 170.739 12.5124V19.6351H164.408V23.0779C164.408 23.4418 164.471 23.696 164.598 23.8347C164.725 23.9733 164.904 24.0426 165.146 24.0426H170.934V26.5439H163.762C162.995 26.5439 162.442 26.3418 162.119 25.9431C161.79 25.5445 161.629 24.9669 161.629 24.2101V17.1338H167.942L167.93 17.1279ZM177.594 19.2711H175.478V28.3867H172.67V10.1786H175.478V16.6716H177.594V10.1786H180.402V28.3867H177.594V19.2711Z" fill="white"/>
<path d="M183.422 27.2083V24.603H191.223V20.2763H194.158V24.603H201.999V27.2083H183.422ZM193.898 18.0522C194.434 18.5143 195.098 18.9476 195.882 19.352C196.234 19.5368 196.654 19.6986 197.15 19.843C197.646 19.9874 198.159 20.1145 198.689 20.2127C199.22 20.3109 199.745 20.386 200.263 20.4438C200.783 20.5016 201.232 20.5304 201.624 20.5304V18.0118C201.122 18.0118 200.598 17.9713 200.05 17.8963C199.503 17.8211 198.978 17.7056 198.465 17.5497C197.952 17.3937 197.467 17.2031 197.006 16.972C196.544 16.7409 196.141 16.4694 195.789 16.1632C195.172 15.6144 194.712 14.9617 194.394 14.1876C194.082 13.4193 193.921 12.5297 193.921 11.5188V10.1786H191.114V11.5245C191.114 12.5354 190.957 13.4251 190.641 14.2049C190.329 14.9848 189.874 15.6376 189.291 16.169C188.997 16.4348 188.639 16.6774 188.213 16.8911C187.787 17.1106 187.325 17.2954 186.83 17.4572C186.334 17.619 185.826 17.746 185.307 17.8443C184.788 17.9424 184.298 18.0002 183.843 18.0118V20.5304C184.218 20.5304 184.644 20.5073 185.111 20.4553C185.578 20.4091 186.057 20.334 186.536 20.2358C187.02 20.1376 187.487 20.0163 187.942 19.8661C188.397 19.7217 188.807 19.5484 189.17 19.352C189.926 18.9476 190.578 18.5143 191.119 18.0522C191.667 17.59 192.134 17.0008 192.526 16.2903C192.901 17.0066 193.362 17.59 193.898 18.0522Z" fill="white"/>
</g>
<path d="M3.70907 19.5327V23.2671L29.0472 15.3623V24.8388L3.70907 30.0074V30.0188L0.132812 30.8047V14.215L3.65167 12.649L29.0472 0.0804443V10.2397L3.70907 19.5385V19.5327Z" fill="url(#paint0_linear_1637_6384)"/>
<path d="M29.043 0.0804443V10.2339L35.6099 14.2322V5.27765L29.043 0.0804443Z" fill="white"/>
<path d="M29.043 28.1832L35.6099 29.2617V18.7066L29.043 15.3566V28.1832Z" fill="white"/>
<path d="M0.421875 38.9966L27.1147 38.4918V30.3289L0.421875 34.2066V38.9966Z" fill="white"/>
<path d="M38.1204 20.7373L43.7632 24.139V38.4915H38.1204H29.0391V30.3287L38.1204 31.6709V20.7373ZM38.1204 7.15344V15.6778L43.7632 18.9189V10.7674L38.1204 7.15344Z" fill="white"/>
<path d="M58.8839 33.3417V32.9906C58.8839 32.8335 58.6993 32.7041 58.4778 32.7041H54.9892C54.7677 32.7041 54.5923 32.8335 54.5831 32.9906V33.0091C54.5831 33.1014 54.6569 33.1938 54.7677 33.2493L59.3915 35.3748C60.0098 35.6613 60.3975 36.1972 60.3975 36.7794C60.3975 37.2045 60.2037 37.6019 59.8529 37.9068C59.4837 38.2211 58.9669 38.4058 58.4316 38.4058H54.9892C54.4723 38.4058 53.9833 38.2395 53.6141 37.9438C53.2357 37.6388 53.0234 37.223 53.0234 36.7887V36.4837H54.5923V36.7887C54.5923 36.8719 54.6477 36.9365 54.6939 36.9734C54.7677 37.0382 54.8785 37.0751 54.9984 37.0751H58.4409C58.5608 37.0751 58.6716 37.0382 58.7547 36.9734C58.8008 36.9365 58.847 36.8811 58.847 36.7887C58.847 36.6962 58.7731 36.6039 58.6624 36.5576L54.0386 34.4321C53.4203 34.1457 53.0327 33.6004 53.0327 33.0183V32.9998C53.0327 32.1126 53.9187 31.3826 54.9984 31.3826H58.487C59.5761 31.3826 60.4528 32.1126 60.4528 32.9998V33.3509H58.8839V33.3417Z" fill="white"/>
<path d="M63.6197 32.9624V34.1822H68.7326V35.513H63.6197V36.7421C63.6197 36.8899 63.7582 37.0008 63.9243 37.0008H69.7016V38.3408H63.9243C62.8906 38.3408 62.0508 37.62 62.0508 36.7421V32.9532C62.0508 32.0753 62.8906 31.3545 63.9243 31.3545H69.7016V32.6944H63.9243C63.7582 32.6944 63.6197 32.8146 63.6197 32.9532V32.9624Z" fill="white"/>
<path d="M79.7894 33.0922V36.6131C79.7894 37.6481 78.8296 38.4798 77.6391 38.4798H73.4121C72.2309 38.4798 71.2617 37.6389 71.2617 36.6131V33.0922C71.2617 32.0572 72.2215 31.2255 73.4121 31.2255H77.6391C78.8203 31.2255 79.7894 32.0664 79.7894 33.0922ZM78.2205 33.0922C78.2205 32.7964 77.9621 32.5562 77.6391 32.5562H73.4121C73.0891 32.5562 72.8307 32.7964 72.8307 33.0922V36.6131C72.8307 36.9088 73.0891 37.1491 73.4121 37.1491H77.6391C77.9621 37.1491 78.2205 36.9088 78.2205 36.6131V33.0922Z" fill="white"/>
<path d="M88.7503 31.3363V36.7794C88.7503 37.6665 87.9013 38.3873 86.8584 38.3873H83.056C82.0131 38.3873 81.1641 37.6665 81.1641 36.7794V35.8737H82.733V36.7794C82.733 36.9364 82.8807 37.0566 83.056 37.0566H86.8584C87.0337 37.0566 87.1814 36.9364 87.1814 36.7794V31.3363H88.7503Z" fill="white"/>
<path d="M99.1332 33.0922V36.6131C99.1332 37.6481 98.1735 38.4798 96.9829 38.4798H92.7558C91.5745 38.4798 90.6055 37.6389 90.6055 36.6131V33.0922C90.6055 32.0572 91.5653 31.2255 92.7558 31.2255H96.9829C98.1642 31.2255 99.1332 32.0664 99.1332 33.0922ZM97.5638 33.0922C97.5638 32.7964 97.3059 32.5562 96.9829 32.5562H92.7558C92.4328 32.5562 92.1744 32.7964 92.1744 33.0922V36.6131C92.1744 36.9088 92.4328 37.1491 92.7558 37.1491H96.9829C97.3059 37.1491 97.5638 36.9088 97.5638 36.6131V33.0922Z" fill="white"/>
<path d="M109.442 33.0922V36.6131C109.442 37.6481 108.482 38.4798 107.291 38.4798H103.064C101.883 38.4798 100.914 37.6389 100.914 36.6131V33.0922C100.914 32.0572 101.874 31.2255 103.064 31.2255H107.291C108.473 31.2255 109.442 32.0664 109.442 33.0922ZM107.873 33.0922C107.873 32.7964 107.615 32.5562 107.291 32.5562H103.064C102.741 32.5562 102.484 32.7964 102.484 33.0922V36.6131C102.484 36.9088 102.741 37.1491 103.064 37.1491H107.291C107.615 37.1491 107.873 36.9088 107.873 36.6131V33.0922Z" fill="white"/>
<path d="M117.194 32.9624V34.1822H122.307V35.513H117.194V36.7421C117.194 36.8899 117.332 37.0008 117.499 37.0008H123.276V38.3408H117.499C116.465 38.3408 115.625 37.62 115.625 36.7421V32.9532C115.625 32.0753 116.465 31.3545 117.499 31.3545H123.276V32.6944H117.499C117.332 32.6944 117.194 32.8146 117.194 32.9532V32.9624Z" fill="white"/>
<path d="M133.399 31.3086V37.8143C133.399 38.0823 133.205 38.3319 132.91 38.4336C132.818 38.4705 132.716 38.4797 132.614 38.4797C132.411 38.4797 132.208 38.4151 132.061 38.2857L126.514 33.5172V38.3874H124.945V31.9001C124.945 31.6321 125.139 31.3826 125.434 31.2809C125.729 31.1793 126.061 31.2347 126.292 31.4288L131.839 36.1972V31.3086H133.408H133.399Z" fill="white"/>
<path d="M142.712 31.3545V32.6852H139.566V38.3777H137.997V32.6852H134.785V31.3545H142.712Z" fill="white"/>
<path d="M145.557 32.9624V34.1822H150.67V35.513H145.557V36.7421C145.557 36.8899 145.696 37.0008 145.861 37.0008H151.639V38.3408H145.861C144.828 38.3408 143.988 37.62 143.988 36.7421V32.9532C143.988 32.0753 144.828 31.3545 145.861 31.3545H151.639V32.6944H145.861C145.696 32.6944 145.557 32.8146 145.557 32.9532V32.9624Z" fill="white"/>
<path d="M161.504 38.4148H159.686L157.96 35.9198H154.878V38.3963H153.309V31.3453H159.243C160.212 31.3453 161.006 32.0291 161.006 32.8702V34.3949C161.006 35.088 160.461 35.6795 159.723 35.8643L161.495 38.4241L161.504 38.4148ZM159.446 32.8609C159.446 32.7592 159.354 32.6668 159.243 32.6668H154.869V34.5705H159.243C159.354 34.5705 159.446 34.4874 159.446 34.3765V32.8517V32.8609Z" fill="white"/>
<path d="M170.64 32.9165V34.543C170.64 35.4209 169.846 36.1325 168.877 36.1325H164.503V38.3873H162.934V31.3363H168.868C169.837 31.3363 170.631 32.0478 170.631 32.9258L170.64 32.9165ZM169.08 32.9165C169.08 32.7687 168.979 32.6671 168.877 32.6671H164.503V34.7925H168.877C168.969 34.7925 169.08 34.6816 169.08 34.543V32.9165Z" fill="white"/>
<path d="M180.496 38.4148H178.678L176.952 35.9198H173.869V38.3963H172.301V31.3453H178.235C179.204 31.3453 179.997 32.0291 179.997 32.8702V34.3949C179.997 35.088 179.453 35.6795 178.715 35.8643L180.487 38.4241L180.496 38.4148ZM178.438 32.8609C178.438 32.7592 178.346 32.6668 178.235 32.6668H173.86V34.5705H178.235C178.346 34.5705 178.438 34.4874 178.438 34.3765V32.8517V32.8609Z" fill="white"/>
<path d="M182.039 38.3781V31.3363H183.608V38.3781H182.039Z" fill="white"/>
<path d="M191.176 33.3417V32.9906C191.176 32.8335 190.99 32.7041 190.778 32.7041H187.29C187.069 32.7041 186.893 32.8335 186.883 32.9906V33.0091C186.883 33.1014 186.958 33.1938 187.069 33.2493L191.692 35.3748C192.31 35.6613 192.699 36.1972 192.699 36.7794C192.699 37.2045 192.504 37.6019 192.154 37.9068C191.785 38.2211 191.268 38.4058 190.733 38.4058H187.29C186.773 38.4058 186.284 38.2395 185.914 37.9438C185.527 37.6388 185.324 37.223 185.324 36.7887V36.4837H186.893V36.7887C186.893 36.8719 186.949 36.9365 186.994 36.9734C187.069 37.0382 187.179 37.0751 187.3 37.0751H190.742C190.862 37.0751 190.973 37.0382 191.056 36.9734C191.092 36.9365 191.148 36.8811 191.148 36.7887C191.148 36.6962 191.074 36.6039 190.963 36.5576L186.34 34.4321C185.721 34.1457 185.334 33.6004 185.334 33.0183V32.9998C185.334 32.1126 186.22 31.3826 187.3 31.3826H190.788C191.877 31.3826 192.754 32.1126 192.754 32.9998V33.3509H191.185L191.176 33.3417Z" fill="white"/>
<path d="M195.917 32.9624V34.1822H201.029V35.513H195.917V36.7421C195.917 36.8899 196.055 37.0008 196.222 37.0008H201.999V38.3408H196.222C195.187 38.3408 194.348 37.62 194.348 36.7421V32.9532C194.348 32.0753 195.187 31.3545 196.222 31.3545H201.999V32.6944H196.222C196.055 32.6944 195.917 32.8146 195.917 32.9532V32.9624Z" fill="white"/>
<path fill-rule="evenodd" clip-rule="evenodd" d="M155.936 5.55839C155.936 5.55839 157.393 3.62519 160.2 5.49526C163.008 7.36534 164.637 5.83373 164.637 5.83373C164.637 5.83373 163.731 7.59481 161.378 7.87015C161.378 7.87015 160.792 7.92178 160.114 7.82999C159.735 7.77836 159.402 7.8013 159.127 7.81851C158.478 7.85866 157.858 8.05373 157.325 8.42086C156.922 8.69047 156.349 9.01744 155.918 9.59111L155.941 5.5641L155.936 5.55839Z" fill="white"/>
<defs>
<linearGradient id="paint0_linear_1637_6384" x1="14.5871" y1="0.0804443" x2="14.5871" y2="30.799" gradientUnits="userSpaceOnUse">
<stop offset="0.26" stop-color="#F0F2F5"/>
<stop offset="0.67" stop-color="white"/>
</linearGradient>
</defs>
</svg>
