<svg width="225" height="42" viewBox="0 0 225 42" fill="none" xmlns="http://www.w3.org/2000/svg">
<g clip-path="url(#clip0_1637_7217)">
<mask id="mask0_1637_7217" style="mask-type:luminance" maskUnits="userSpaceOnUse" x="0" y="0" width="225" height="42">
<path d="M225 0H0V42H225V0Z" fill="white"/>
</mask>
<g mask="url(#mask0_1637_7217)">
<path d="M30.7562 19.5337C27.4295 17.2648 23.1701 18.1864 20.9291 21.6002C19.0639 24.4487 16.2452 24.8047 15.1595 24.8047C11.5961 24.8047 9.16722 22.2914 8.4434 19.6944C8.4434 19.6944 8.42948 19.6455 8.42252 19.6175C8.41556 19.5897 8.40861 19.5617 8.40165 19.5337C8.11631 18.4447 8.04671 17.9351 8.04671 16.7831C8.04671 10.5767 14.4009 3.6581 23.5459 3.6581C32.691 3.6581 38.2796 10.8141 39.6646 14.7935C39.6368 14.7166 39.6159 14.6538 39.595 14.5839C36.9294 6.79972 29.58 1.20764 20.9151 1.20764C10.0302 1.20764 1.19141 10.067 1.19141 20.9998C1.19141 30.7738 8.21373 39.1306 17.9643 39.1306C25.7313 39.1306 30.958 34.7602 33.3522 28.7353C34.6675 25.44 33.7349 21.5654 30.7562 19.5337Z" fill="white"/>
<path d="M39.7792 15.1706C38.6239 11.289 33.2231 3.65137 23.5422 3.65137C14.3972 3.65137 8.04297 10.5699 8.04297 16.7764C8.04297 17.9283 8.11257 18.4449 8.39792 19.527C8.2796 19.0523 8.21696 18.5776 8.21696 18.1168C8.21696 11.645 14.6686 7.16998 21.3081 7.16998C30.2931 7.16998 37.5799 14.4725 37.5799 23.4855C37.5799 30.5506 33.5294 36.6663 27.6415 39.6055C35.2345 36.8548 40.6491 29.5593 40.6491 20.9931C40.6491 18.9685 40.3778 17.1813 39.7862 15.1706" fill="#8A949E"/>
<path d="M63.4263 26.3829V28.4563H51.3164V26.3829H55.1234V20.2392H57.4201V26.3829H63.4193H63.4263ZM59.9813 24.1976V14.696H52.0124V12.6434H62.257V24.1976H59.9813ZM67.1706 30.3273H64.853V11.6172H67.1706V19.5061H69.5508V21.7123H67.1706V30.3343V30.3273Z" fill="white"/>
<path d="M81.6797 12.79V14.8006H70.8086V12.79H75.0749V11.2401H77.5248V12.79H81.6867H81.6797ZM71.5811 23.9463H86.2591V30.1527H83.9555V25.9987H71.5742V23.9392L71.5811 23.9463ZM80.6149 19.143C80.6149 19.6876 80.4966 20.2042 80.2669 20.6929C80.0372 21.1816 79.731 21.6074 79.3552 21.9704C78.9515 22.3195 78.4921 22.6058 77.9771 22.8222C77.4621 23.0387 76.9053 23.1434 76.3068 23.1434C75.7083 23.1434 75.1445 23.0387 74.6225 22.8222C74.1006 22.6058 73.6412 22.3195 73.2515 21.9704C72.8617 21.6074 72.5485 21.1816 72.3189 20.6929C72.0892 20.2042 71.9709 19.6876 71.9709 19.143C71.9709 18.5985 72.0892 18.0818 72.3189 17.6002C72.5485 17.1184 72.8617 16.6926 73.2515 16.3296C73.6412 15.9805 74.1006 15.6942 74.6225 15.4778C75.1445 15.2614 75.7083 15.1566 76.3068 15.1566C76.9053 15.1566 77.4621 15.2684 77.9771 15.4778C78.4921 15.6942 78.9515 15.9805 79.3552 16.3296C79.731 16.6926 80.0372 17.1184 80.2669 17.6002C80.4966 18.0818 80.6149 18.5985 80.6149 19.143ZM78.3947 19.1221C78.3947 18.5636 78.1859 18.0818 77.7753 17.684C77.3647 17.286 76.8705 17.0836 76.2998 17.0836C75.7291 17.0836 75.242 17.286 74.8383 17.684C74.4346 18.0818 74.2328 18.5636 74.2328 19.1221C74.2328 19.6806 74.4346 20.1623 74.8383 20.5673C75.242 20.9722 75.7291 21.1746 76.2998 21.1746C76.8705 21.1746 77.3647 20.9722 77.7753 20.5673C78.1859 20.1623 78.3947 19.6806 78.3947 19.1221ZM86.2591 22.899H83.9555V11.6171H86.2591V16.0014H88.9386V18.2913H86.2591V22.906V22.899Z" fill="white"/>
<path d="M100.036 27.8699H97.7179V14.8635H90.5703V12.7691H100.042V27.8699H100.036ZM104.699 11.6172H107.016V30.3273H104.699V11.6172Z" fill="white"/>
<path d="M117.604 22.2288V20.7837H110.199V18.8778H127.348V20.7837H119.922V22.2288H125.963V26.9692H113.853V28.1001H126.213V30.0061H111.577V25.1401H123.666V24.0719H111.577V22.2288H117.598H117.604ZM118.773 13.8162L112.252 18.4519L110.874 16.8392L118.781 11.2611L126.687 16.8392L125.309 18.4519L118.787 13.8162H118.773Z" fill="white"/>
<path d="M129.666 14.1514V12.1618H140.37V14.1514H135.811L140.558 19.9599L138.95 21.3004L135.102 16.4972L131.315 21.6145L129.645 20.2742L134.391 14.1514H129.666ZM144.496 26.341C144.496 26.9692 144.365 27.5627 144.107 28.1142C143.85 28.6658 143.502 29.1545 143.07 29.5733C142.638 29.9922 142.123 30.3273 141.532 30.5717C140.94 30.816 140.307 30.9417 139.639 30.9417C138.971 30.9417 138.359 30.823 137.76 30.5717C137.161 30.3204 136.646 29.9922 136.215 29.5733C135.783 29.1545 135.435 28.6658 135.178 28.1142C134.921 27.5627 134.788 26.9692 134.788 26.341C134.788 25.7126 134.921 25.1192 135.178 24.5677C135.435 24.0162 135.783 23.5274 136.215 23.1086C136.646 22.6896 137.161 22.3546 137.76 22.1102C138.359 21.8659 138.985 21.7402 139.639 21.7402C140.293 21.7402 140.94 21.8659 141.532 22.1102C142.123 22.3546 142.638 22.6896 143.07 23.1086C143.502 23.5274 143.85 24.0162 144.107 24.5677C144.365 25.1192 144.496 25.7126 144.496 26.341ZM142.214 26.32C142.214 25.6219 141.957 25.0215 141.448 24.5188C140.94 24.0162 140.328 23.7648 139.618 23.7648C138.909 23.7648 138.323 24.0162 137.823 24.5188C137.321 25.0215 137.07 25.6219 137.07 26.32C137.07 27.0181 137.321 27.6394 137.823 28.1351C138.323 28.6308 138.922 28.8821 139.618 28.8821C140.314 28.8821 140.94 28.6308 141.448 28.1351C141.957 27.6394 142.214 27.032 142.214 26.32ZM143.759 21.5378V17.4885H140.286V15.4779H143.759V11.6172H146.077V21.5378H143.759Z" fill="white"/>
<path d="M162.724 15.2822V12.4059H165.021V23.1014H158.98V26.8783H166.406V28.9308H149.258V26.8783H156.663V23.1014H150.642V12.4059H152.918V15.2822H162.724ZM162.724 21.0768V17.2998H152.918V21.0768H162.724Z" fill="white"/>
<path d="M170.171 19.3943V11.7986H184.535V13.6835H172.467V14.6679H184.452V16.49H172.467V17.5372H184.598V19.3803H178.516V20.5741H185.942V22.48H168.793V20.5741H176.198V19.3803H170.178L170.171 19.3943ZM181.926 27.0319C181.926 27.5904 181.808 28.121 181.578 28.6167C181.348 29.1124 181.028 29.5522 180.625 29.9292C180.193 30.3062 179.699 30.6064 179.149 30.8298C178.6 31.0532 178.001 31.1649 177.36 31.1649C176.72 31.1649 176.143 31.0532 175.586 30.8298C175.029 30.6064 174.542 30.3062 174.124 29.9292C173.707 29.5522 173.38 29.1124 173.15 28.6167C172.92 28.121 172.802 27.5904 172.802 27.0319C172.802 26.4734 172.92 25.9288 173.15 25.4402C173.38 24.9515 173.707 24.5116 174.124 24.1207C174.542 23.7437 175.029 23.4435 175.586 23.2271C176.143 23.0107 176.734 22.8989 177.36 22.8989C177.987 22.8989 178.6 23.0107 179.149 23.2271C179.699 23.4435 180.193 23.7437 180.625 24.1207C181.028 24.5116 181.348 24.9515 181.578 25.4402C181.808 25.9288 181.926 26.4594 181.926 27.0319ZM179.623 27.011C179.623 26.3966 179.399 25.873 178.954 25.4402C178.509 25.0073 177.98 24.7909 177.367 24.7909C176.755 24.7909 176.219 25.0073 175.766 25.4402C175.314 25.873 175.084 26.3966 175.084 27.011C175.084 27.6253 175.314 28.156 175.766 28.5957C176.219 29.0356 176.755 29.2589 177.367 29.2589C177.98 29.2589 178.509 29.0356 178.954 28.5957C179.399 28.156 179.623 27.6253 179.623 27.011Z" fill="white"/>
<path d="M193.926 11.5123L199.8 21.056L197.921 22.2288L193.926 15.5197L189.951 22.3754L188.031 21.2025L193.926 11.5123ZM189.555 29.9433V23.6949H191.851V27.8907H204.839V29.9433H189.555ZM202.354 23.5902V11.6101H204.672V23.5902H202.354Z" fill="white"/>
<path d="M207.852 23.4437H225V25.4963H217.574V30.3203H215.257V25.4963H207.852V23.4437ZM211.512 14.2981H221.318V11.9314H223.615V20.9304H209.229V11.9314H211.505V14.2981H211.512ZM221.318 16.3157H211.512V18.8988H221.318V16.3157Z" fill="white"/>
</g>
</g>
<defs>
<clipPath id="clip0_1637_7217">
<rect width="225" height="42" fill="white"/>
</clipPath>
</defs>
</svg>
