<svg width="211" height="31" viewBox="0 0 211 31" fill="none" xmlns="http://www.w3.org/2000/svg">
<g clip-path="url(#clip0_955_1435)">
<path d="M42.7695 15.8889L42.3895 15.6489C41.1095 14.3689 39.3195 13.8189 36.9395 13.9489C34.9495 14.0689 33.3795 14.8589 32.1695 15.5889V15.5389C32.1695 14.9189 32.2395 14.2389 32.3095 13.5889C32.3795 12.9189 32.4495 12.2489 32.4495 11.6089C32.4495 10.9689 32.3795 10.3289 32.1495 9.79891C32.0895 9.66891 31.9695 9.57891 31.8095 9.57891C31.1695 9.58891 29.9095 10.0289 29.6095 10.2989L29.4495 10.6589C29.4495 11.3689 29.2795 13.3489 29.1195 13.5989L29.0395 13.8389C28.7695 16.6689 28.7595 19.1689 29.0095 21.3089C29.0395 21.5189 29.4495 21.8389 29.7695 21.9589C30.1195 22.0889 31.2095 21.7989 31.8395 21.5589L32.0795 21.5189C32.2795 21.4989 32.3995 21.3289 32.3895 21.1089L32.4095 20.4889C32.8595 18.6389 34.6995 16.4389 36.8795 16.1089C38.1095 15.9089 39.0795 16.2289 39.8495 17.0689C39.9595 17.2189 40.1795 18.5489 39.3695 20.0789C38.7695 21.2089 37.5595 22.1589 35.9695 22.7589C34.4695 23.3289 32.8095 23.5589 30.7695 23.4889C30.6895 23.4389 28.8595 22.1989 28.8595 22.1989C27.2395 21.0589 25.2295 19.6489 23.3995 18.9589C23.0795 18.8389 22.5095 18.3589 22.1595 18.0689L21.9695 17.9089C20.9195 17.0689 18.9195 15.7289 17.3095 14.6589C17.3095 14.6589 16.5895 14.1689 16.4495 14.0789V13.8989C16.4995 13.8489 17.5095 13.2389 17.5095 13.2389C18.9295 12.4089 19.5795 12.0089 19.7195 11.7989C19.6895 11.8289 19.9095 11.6889 19.9095 11.6889C19.9195 11.6889 23.4195 9.69891 23.4195 9.69891C26.7895 7.84891 30.5995 5.74891 32.5995 3.67891L32.6995 3.35891L32.7395 3.07891C32.8695 2.63891 32.8795 2.29891 32.7695 1.89891C32.7395 1.78891 32.6395 1.65891 32.4995 1.62891C30.9395 1.46891 28.9195 2.40891 27.0795 4.12891C26.6695 4.51891 26.3195 4.70891 25.9495 4.90891L25.6695 5.06891C23.6395 6.21891 19.0795 9.04891 16.6995 10.5789C16.8495 8.00891 17.3295 4.35891 17.9195 1.31891L17.8495 0.958906L17.5995 0.498906L17.4095 0.168906H17.3595C16.8795 -0.0810937 16.4895 0.00890625 16.2095 0.0789062L15.7295 0.258906L15.0995 0.488906C14.9795 0.508906 14.8895 0.588906 14.8395 0.708906C13.6995 3.46891 12.7495 7.99891 12.5195 11.6289C10.2395 10.1789 8.13953 9.13891 7.09953 8.62891H7.06953L6.94953 8.58891C6.57953 8.53891 6.11953 8.26891 5.68953 7.99891C5.63953 7.96891 4.81953 7.43891 4.81953 7.43891L3.49953 6.58891L3.14953 6.50891C2.57953 6.60891 1.48953 7.33891 1.15953 7.83891C1.11953 7.90891 1.09953 7.97891 1.09953 8.04891C1.09953 8.15891 1.12953 8.25891 1.15953 8.35891L1.21953 8.62891L1.27953 8.78891C1.90953 9.43891 3.51953 10.5289 5.08953 11.3689L6.90953 12.3289L9.69953 13.8489L10.1795 14.2289L10.5095 14.4189C10.5095 14.4189 10.5495 14.4389 10.5695 14.4589C9.82953 14.9589 5.49953 17.8389 5.49953 17.8389L2.82953 19.6089C2.57953 19.7789 1.52953 20.2489 1.28953 20.3489C0.709531 20.5789 0.279531 20.9489 0.0895313 21.3389L0.0195312 21.4889L0.0895313 21.5889L0.289531 21.7389L0.559531 21.9189L0.849531 22.1189L1.12953 22.1589C1.59953 22.1789 2.28953 21.9089 3.58953 21.3389C4.77953 20.8089 8.01953 18.8589 9.39953 18.0289L9.98953 17.6689C10.2295 17.6889 10.4995 17.4789 10.7395 17.2989C11.0195 17.0789 11.6195 16.7089 11.9895 16.5389C11.9995 16.5389 12.2095 16.4189 12.4095 16.3089C12.4095 16.3689 12.4095 16.4689 12.4095 16.4689C12.4695 20.7089 12.7095 23.7789 13.1795 26.1489V26.1889L13.2295 26.2889C13.4595 26.6289 13.7195 27.6289 13.9495 28.5089L14.4795 30.2789L14.6295 30.4389C14.9295 30.6389 15.8495 30.9989 16.4595 30.9189L16.6095 30.8989L16.7095 30.6889C16.7595 30.4289 16.7795 30.1589 16.7795 29.8789C16.7795 29.5589 16.7495 29.1989 16.7295 28.7689L16.6895 28.1389C16.4895 25.1789 16.2995 20.9189 16.2995 18.0789V17.8589C16.7995 18.1689 18.9995 19.5589 18.9995 19.5589C22.7395 21.9789 28.3795 25.6489 31.7895 26.6089C31.9695 26.6589 32.1495 26.6189 32.2795 26.4989L32.8095 26.1589L32.9095 26.1189C33.1095 26.0189 33.2395 25.6889 33.2595 25.3389C36.1395 25.1989 40.1495 24.0889 42.2895 21.3889C43.1195 20.3389 43.4895 19.0589 43.4895 17.9689C43.4895 17.0689 43.2395 16.2989 42.7895 15.8689" fill="white"/>
<path d="M133.25 24.1516C129.82 24.1516 127.05 23.3716 127.05 21.6216C127.05 19.8716 129.82 19.0916 133.25 19.0916C136.68 19.0916 139.45 19.8816 139.45 21.6216C139.45 23.3616 136.67 24.1516 133.25 24.1516ZM133.25 16.8516C128.3 16.8516 124.28 18.4216 124.28 21.6116C124.28 24.8016 128.3 26.3716 133.25 26.3716C138.2 26.3716 142.22 24.7816 142.22 21.6116C142.22 18.4416 138.2 16.8516 133.25 16.8516Z" fill="white"/>
<path d="M53.3496 4.30078H56.6996V13.7108L67.9896 4.30078H72.7396L60.8096 13.7908L73.7296 25.3108H68.9896L56.6996 14.0508V25.3108H53.3496V4.30078Z" fill="white"/>
<path d="M76.0703 4.33984H86.4003C91.3103 4.33984 93.8803 5.96984 93.8803 9.53984C93.8803 12.0798 92.1103 13.8198 89.7503 14.2898V14.3798C93.1303 14.7798 94.7303 16.9998 94.7303 19.4998C94.7303 22.6298 92.4303 25.3498 86.7303 25.3498H76.0703V4.33984ZM79.4203 13.1998H86.2303C88.7603 13.1998 90.6303 12.2398 90.6303 9.99984C90.6303 8.04984 89.7103 6.74984 85.8403 6.74984H79.4103V13.2098L79.4203 13.1998ZM79.4203 22.9698H86.0203C90.1203 22.9698 91.2103 21.3698 91.2103 19.3298C91.2103 16.9098 89.5403 15.5798 85.8403 15.5798H79.4103V22.9698H79.4203Z" fill="white"/>
<path d="M119.61 4.46875H117V7.41875H104.6V4.46875H101.99V14.7488H119.61V4.46875ZM104.6 9.67875H117V12.4788H104.6V9.67875Z" fill="white"/>
<path d="M134.66 13.7286V11.9786H141.96V9.71859H127.47V6.57859H141.85V4.30859H124.86V11.9786H132.02V13.7286H122.49V15.9986H144.04V13.7286H134.66Z" fill="white"/>
<path d="M121.45 16.6992V18.9892H112.04V25.3792H109.41V18.9892H99.9902V16.6992H121.45Z" fill="white"/>
<path d="M164.29 25.2288H147.58V17.4688H150.22V22.9488H164.29V25.2288Z" fill="white"/>
<path d="M161.42 19.5688H164.08V10.7287H166.76V8.43875H164.08V4.21875H161.42V19.5688Z" fill="white"/>
<path d="M187.16 25.2288H170.45V17.4688H173.1V22.9488H187.16V25.2288Z" fill="white"/>
<path d="M191.13 17.0508H207.84V25.3408H205.19V19.3408H191.13V17.0508Z" fill="white"/>
<path d="M186.94 4.21875H184.29V19.5688H186.94V4.21875Z" fill="white"/>
<path d="M192.48 12.7987V10.8288H201.53V8.55875H192.48V6.72875H202.06V4.46875H189.87V15.0588H202.58V12.7987H192.48Z" fill="white"/>
<path d="M205.17 15.4487H207.83V10.7287H210.51V8.43875H207.83V4.21875H205.17V15.4487Z" fill="white"/>
<path d="M153.92 6.53906V4.28906H151.01V6.53906C150.61 12.2391 145.31 13.6991 145.31 13.6991V15.8791C147.65 15.3091 150.69 13.3391 152.48 10.6391C154.33 13.3491 157.48 15.3091 159.82 15.8791V13.6991C159.82 13.6991 154.32 12.2391 153.91 6.53906" fill="white"/>
<path d="M176.06 6.53906V4.28906H173.16V6.53906C172.75 12.2391 167.25 13.6991 167.25 13.6991V15.8791C169.59 15.3091 172.73 13.3491 174.59 10.6391C176.4 13.3391 179.53 15.1991 182.29 15.8791V13.6991C182.29 13.6991 176.47 12.2391 176.07 6.53906" fill="white"/>
</g>
<defs>
<clipPath id="clip0_955_1435">
<rect width="211" height="31" fill="white"/>
</clipPath>
</defs>
</svg>
