<svg width="273" height="54" viewBox="0 0 273 54" fill="none" xmlns="http://www.w3.org/2000/svg">
<g clip-path="url(#clip0_955_1263)">
<path d="M15.7042 23.5414V30.4607H16.6513V32.4435H12.7627V30.4607H13.7098V23.5414H12.7627V21.5586H16.6513V23.5414H15.7042Z" fill="white"/>
<path d="M0 32.4415V21.5586H2.20441L9.06303 29.5093V21.5586H11.0849V32.4415H8.88047L2.00714 24.4752V32.4406H0V32.4415Z" fill="white"/>
<path d="M20.2079 32.4406C19.8231 32.4406 19.4708 32.3449 19.1518 32.1537C18.8328 31.9624 18.5766 31.7077 18.3843 31.3906C18.1919 31.0735 18.0957 30.7232 18.0957 30.3397V23.6595C18.0957 23.277 18.1919 22.9266 18.3843 22.6085C18.5766 22.2914 18.8328 22.0367 19.1518 21.8455C19.4708 21.6542 19.8231 21.5586 20.2079 21.5586H27.6298V23.5687H20.6338C20.4719 23.5687 20.3423 23.6146 20.2461 23.7053C20.15 23.7961 20.1019 23.9268 20.1019 24.0986V29.9025C20.1019 30.0635 20.15 30.1924 20.2461 30.288C20.3423 30.3836 20.4719 30.4314 20.6338 30.4314H27.6298V32.4415H20.2079V32.4406Z" fill="white"/>
<path d="M29.2423 32.4415V21.5586H38.2808V23.5687H31.2642V25.9867H38.2808V28.0124H31.2642V30.4314H38.2808V32.4415H29.2423Z" fill="white"/>
<path d="M39.8203 32.4415V21.5586H42.0247L45.9929 26.259L49.9453 21.5586H52.1654V32.4415H50.1436V24.4606L45.9929 29.3727L41.8275 24.4752V32.4406H39.8213L39.8203 32.4415Z" fill="white"/>
<path d="M52.1659 17.247H50.3561C46.8188 11.9309 40.7454 8.42494 33.8573 8.42494C26.9692 8.42494 20.8929 11.9309 17.3517 17.247H0C4.27044 7.11543 14.3405 0 26.083 0C37.8254 0 47.8955 7.11543 52.1659 17.247Z" fill="white"/>
<path d="M52.1659 36.7578C47.8916 46.8855 37.8254 54.0009 26.083 54.0009C14.3405 54.0009 4.27437 46.8855 0 36.7578H1.80986C5.34713 42.0739 11.4206 45.576 18.3086 45.576C25.1967 45.576 31.273 42.0739 34.8142 36.7578H52.1649H52.1659Z" fill="white"/>
<path d="M71.437 24.3908C70.8991 23.7449 70.4908 23.0081 70.2121 22.1797C69.9343 21.3522 69.7949 20.4848 69.7949 19.5783V17.293H67.9969V19.5783C67.991 20.4955 67.8467 21.3815 67.5631 22.2353C67.2794 23.0891 66.8603 23.8581 66.3058 24.5411C65.7512 25.2242 65.0946 25.7394 64.3369 26.0877L65.4588 27.5192C66.291 27.0977 67.0066 26.4819 67.6062 25.672C68.1755 24.9041 68.6074 24.0269 68.9136 23.0452C69.2129 23.9517 69.6173 24.7714 70.1561 25.4818C70.7421 26.2536 71.4546 26.8469 72.2918 27.2577L73.3577 25.8487C72.6157 25.5218 71.9748 25.0358 71.436 24.3899L71.437 24.3908Z" fill="white"/>
<path d="M74.7828 20.7727H71.7677V22.1876H74.7828V30.4681H76.5338V16.1445H74.7828V20.7727Z" fill="white"/>
<path d="M78.2432 23.3339H83.8838V24.417H79.7792V25.7138H87.9658V26.6701H79.787V28.9729V29.3447V30.3176H90.1054V28.9729H81.537V27.9132H89.7157V24.417H85.6504V23.3339H91.3391V21.9492H78.2432V23.3339Z" fill="white"/>
<path d="M81.9827 20.9162C82.7571 21.1036 83.6924 21.1992 84.7907 21.2051C85.8782 21.1992 86.8086 21.1036 87.584 20.9162C88.3584 20.7289 88.9463 20.4508 89.3487 20.0819C89.7521 19.7121 89.9533 19.2672 89.9533 18.7461C89.9533 18.225 89.7521 17.7791 89.3487 17.4122C88.9463 17.0453 88.3555 16.7672 87.5791 16.5779C86.8027 16.3876 85.8733 16.293 84.7907 16.293C83.7081 16.293 82.7571 16.3876 81.9827 16.5779C81.2073 16.7682 80.6164 17.0463 80.2081 17.4122C79.7999 17.7791 79.5957 18.2231 79.5957 18.7461C79.5957 19.2691 79.7999 19.7131 80.2081 20.0819C80.6164 20.4518 81.2073 20.7299 81.9827 20.9162ZM81.8188 18.1206C82.071 17.9518 82.443 17.824 82.9377 17.7371C83.4304 17.6493 84.0487 17.6044 84.7907 17.5986C85.5278 17.6044 86.1461 17.6493 86.6437 17.7371C87.1423 17.824 87.5173 17.9518 87.7656 18.1206C88.0149 18.2894 88.1386 18.4973 88.1386 18.7461C88.1386 18.9949 88.0139 19.2174 87.7656 19.3862C87.5163 19.555 87.1453 19.6828 86.6516 19.7697C86.1579 19.8575 85.5376 19.9004 84.7897 19.9004C84.0418 19.9004 83.4156 19.8575 82.9278 19.7697C82.44 19.6828 82.07 19.555 81.8178 19.3862C81.5655 19.2174 81.4429 19.0037 81.4478 18.7461C81.4419 18.4973 81.5655 18.2894 81.8178 18.1206H81.8188Z" fill="white"/>
<path d="M102.691 21.7446H101.061V16.4138H99.4453V29.7255H101.061V23.1604H102.691V30.4291H104.363V16.1445H102.691V21.7446Z" fill="white"/>
<path d="M96.1956 25.5476C95.6263 25.5827 94.9658 25.6051 94.211 25.6139V19.2596H97.8072V17.8359H92.4365V27.0981H93.4151C94.5605 27.0922 95.5203 27.0639 96.2938 27.0103C97.0691 26.9576 97.8582 26.8522 98.665 26.6941L98.5296 25.2548C97.7336 25.4032 96.9553 25.4998 96.1946 25.5476H96.1956Z" fill="white"/>
<path d="M117.092 16.1445H115.325V25.1071H117.092V21.3884H119.105V19.9413H117.092V16.1445Z" fill="white"/>
<path d="M110.027 24.6941C110.712 24.6941 111.32 24.5838 111.853 24.3652C112.386 24.1467 112.799 23.8393 113.094 23.4431C113.387 23.0489 113.537 22.5913 113.543 22.0751C113.537 21.5589 113.388 21.1022 113.094 20.707C112.799 20.3108 112.387 20.0054 111.856 19.7898C111.325 19.5732 110.716 19.4619 110.026 19.457C109.336 19.4629 108.725 19.5732 108.193 19.7898C107.659 20.0054 107.245 20.3108 106.949 20.707C106.651 21.1012 106.503 21.5589 106.503 22.0751C106.503 22.5913 106.651 23.0479 106.949 23.4431C107.245 23.8393 107.662 24.1467 108.197 24.3652C108.732 24.5838 109.342 24.6941 110.026 24.6941H110.027ZM108.436 21.392C108.586 21.1998 108.797 21.0515 109.072 20.949C109.348 20.8456 109.667 20.7919 110.027 20.7861C110.394 20.7919 110.714 20.8456 110.99 20.949C111.265 21.0515 111.481 21.1998 111.634 21.392C111.787 21.5842 111.865 21.8126 111.865 22.076C111.865 22.3395 111.788 22.5659 111.634 22.7523C111.481 22.9396 111.265 23.0831 110.99 23.1836C110.714 23.2841 110.394 23.3338 110.027 23.3338C109.661 23.3338 109.342 23.2841 109.07 23.1836C108.797 23.0831 108.586 22.9396 108.436 22.7523C108.287 22.5649 108.214 22.3395 108.214 22.076C108.214 21.8126 108.287 21.5852 108.436 21.392Z" fill="white"/>
<path d="M114.292 17.5213H110.918V16.082H109.145V17.5213H105.755V18.9128H114.292V17.5213Z" fill="white"/>
<path d="M107.505 27.1698H115.325V30.4279H117.092V25.7617H107.505V27.1698Z" fill="white"/>
<path d="M129.525 18.9109V19.0056C129.525 19.8175 129.515 20.4995 129.497 21.0499C129.478 21.6012 129.433 22.2364 129.362 22.9566C129.291 23.6757 129.178 24.4397 129.024 25.2457L130.767 25.4126C130.926 24.5588 131.043 23.7587 131.12 23.0122C131.197 22.2657 131.245 21.6041 131.263 21.0274C131.282 20.4498 131.292 19.7716 131.292 18.991V17.4492H120.822V18.8641H129.526V18.9119L129.525 18.9109Z" fill="white"/>
<path d="M127.775 22.5977H126.033V27.1614H124.203V22.5977H122.437V27.1614H119.509V28.5929H132.605V27.1614H127.775V22.5977Z" fill="white"/>
<path d="M146.006 25.4617C145.261 25.2558 144.374 25.1523 143.345 25.1523C142.317 25.1523 141.411 25.2558 140.66 25.4617C139.909 25.6676 139.335 25.9681 138.935 26.3633C138.534 26.7585 138.334 27.2337 138.334 27.787C138.334 28.3402 138.534 28.8154 138.935 29.2106C139.335 29.6058 139.909 29.9064 140.657 30.1123C141.405 30.3182 142.301 30.4216 143.346 30.4216C144.392 30.4216 145.269 30.3182 146.011 30.1123C146.754 29.9064 147.325 29.6058 147.726 29.2106C148.126 28.8154 148.326 28.3402 148.326 27.787C148.326 27.2337 148.126 26.7585 147.726 26.3633C147.325 25.9681 146.752 25.6676 146.007 25.4617H146.006ZM146.178 28.4827C145.929 28.673 145.565 28.8174 145.088 28.9169C144.611 29.0174 144.03 29.0701 143.345 29.075C142.651 29.0701 142.065 29.0174 141.587 28.9169C141.11 28.8174 140.748 28.672 140.501 28.4827C140.255 28.2924 140.134 28.0612 140.14 27.787C140.134 27.5079 140.255 27.2727 140.501 27.0824C140.748 26.8922 141.109 26.7517 141.583 26.656C142.057 26.5614 142.645 26.5126 143.345 26.5126C144.046 26.5126 144.619 26.5614 145.099 26.656C145.579 26.7507 145.941 26.8922 146.186 27.0824C146.429 27.2727 146.551 27.5079 146.551 27.787C146.551 28.066 146.426 28.2934 146.178 28.4827Z" fill="white"/>
<path d="M144.236 21.2871H148.437V19.8634H140.275V16.3906H138.509V19.8634V20.5123V21.2871H142.486V22.862H136.813V24.2925H149.933V22.862H144.236V21.2871Z" fill="white"/>
<path d="M159.741 21.1972H161.173V24.9305H162.86V16.1602H161.173V19.7667H159.741V16.4207H158.095V24.4807H159.741V21.1972Z" fill="white"/>
<path d="M154.223 21.3972C154.453 21.8948 154.733 22.3603 155.108 22.7652C155.592 23.2863 156.193 23.6825 156.91 23.9508L157.848 22.6149C157.237 22.3837 156.725 22.0675 156.308 21.6694C155.892 21.2713 155.579 20.8263 155.37 20.3336C155.16 19.8408 155.056 19.3275 155.056 18.7947V17.0315H153.346V18.7947C153.34 19.349 153.232 19.8954 153.019 20.436C152.807 20.9766 152.481 21.4762 152.04 21.9348C151.601 22.3934 151.064 22.7603 150.434 23.0336L151.396 24.3938C152.117 24.0884 152.73 23.6434 153.234 23.0609C153.662 22.5662 153.979 22.0031 154.223 21.3972Z" fill="white"/>
<path d="M160.609 25.4724C159.866 25.2636 158.999 25.1602 158.007 25.1602C157.015 25.1602 156.124 25.2646 155.382 25.4724C154.64 25.6812 154.069 25.9827 153.672 26.3779C153.274 26.7731 153.077 27.2454 153.082 27.7938C153.077 28.3363 153.274 28.8047 153.672 29.197C154.069 29.5893 154.64 29.8917 155.382 30.1035C156.124 30.3143 156.999 30.4196 158.007 30.4196C159.015 30.4196 159.866 30.3133 160.609 30.1035C161.351 29.8927 161.924 29.5902 162.328 29.197C162.73 28.8047 162.932 28.3363 162.932 27.7938C162.932 27.2513 162.73 26.7731 162.328 26.3779C161.924 25.9827 161.351 25.6812 160.609 25.4724ZM160.784 28.5012C160.535 28.6935 160.174 28.8398 159.702 28.9404C159.23 29.0409 158.666 29.0906 158.008 29.0906C157.351 29.0906 156.77 29.0409 156.297 28.9404C155.825 28.8398 155.466 28.6935 155.22 28.5012C154.972 28.309 154.85 28.0729 154.85 27.7938C154.85 27.5147 154.972 27.2757 155.22 27.0776C155.466 26.8805 155.825 26.7312 156.297 26.6307C156.771 26.5302 157.34 26.4804 158.008 26.4804C158.677 26.4804 159.224 26.5302 159.698 26.6307C160.172 26.7312 160.536 26.8805 160.784 27.0776C161.034 27.2757 161.161 27.5138 161.166 27.7938C161.161 28.0729 161.034 28.308 160.784 28.5012Z" fill="white"/>
<path d="M171.692 22.5906H174.595V24.5519H176.361V16.1445H174.595V18.3196H171.692V17.212H164.945V23.6903H171.692V22.5906ZM174.595 19.7198V21.1523H171.692V19.7198H174.595ZM169.957 22.291H166.703V18.6123H169.957V22.291Z" fill="white"/>
<path d="M174.118 25.2615C173.381 25.0487 172.508 24.9414 171.501 24.9414C170.494 24.9414 169.615 25.0487 168.884 25.2615C168.151 25.4752 167.588 25.7903 167.193 26.207C166.799 26.6237 166.601 27.1194 166.601 27.6941C166.601 28.2688 166.798 28.7606 167.193 29.1685C167.589 29.5764 168.151 29.8886 168.884 30.1014C169.616 30.3151 170.487 30.4224 171.501 30.4224C172.515 30.4224 173.381 30.3151 174.118 30.1014C174.855 29.8886 175.421 29.5764 175.817 29.1685C176.212 28.7606 176.41 28.2688 176.41 27.6941C176.41 27.1194 176.212 26.6178 175.817 26.2031C175.421 25.7884 174.856 25.4752 174.118 25.2615ZM174.281 28.4406C174.039 28.6494 173.683 28.8065 173.211 28.9119C172.739 29.0173 172.17 29.0729 171.501 29.0778C170.833 29.0729 170.263 29.0173 169.794 28.9119C169.325 28.8065 168.969 28.6494 168.725 28.4406C168.48 28.2318 168.358 27.9839 168.358 27.6931C168.358 27.3867 168.48 27.1301 168.725 26.9213C168.969 26.7125 169.323 26.5544 169.79 26.447C170.258 26.3397 170.828 26.2851 171.501 26.2851C172.174 26.2851 172.746 26.3387 173.215 26.447C173.685 26.5554 174.039 26.7134 174.281 26.9213C174.522 27.1301 174.643 27.3867 174.643 27.6931C174.643 27.9839 174.522 28.2318 174.281 28.4406Z" fill="white"/>
<path d="M182.717 25.9254C182.639 25.9283 182.55 25.9302 182.47 25.9332V21.7227H180.737V25.9849C179.845 26.0064 178.919 26.0239 177.937 26.0327L178.119 27.4408C179.688 27.4505 181.215 27.4212 182.693 27.35C184.174 27.2798 185.584 27.1353 186.925 26.9187L186.822 25.6053C185.539 25.7634 184.17 25.8707 182.717 25.9254Z" fill="white"/>
<path d="M189.353 16.1445H187.579V30.4291H189.353V23.4444H191.429V21.9661H189.353V16.1445Z" fill="white"/>
<path d="M184.273 21.3154C184.228 22.1009 184.123 23.0084 183.959 24.0359L185.709 24.1862C185.879 23.1314 185.988 22.1927 186.035 21.3701C186.084 20.5475 186.109 19.6722 186.115 18.7442V17.6289H178.708V19.037H184.343C184.335 19.8527 184.312 20.6197 184.273 21.3145V21.3154Z" fill="white"/>
<path d="M203.172 16.1445H201.406V25.1071H203.172V21.3884H205.186V19.9413H203.172V16.1445Z" fill="white"/>
<path d="M200.372 17.5213H196.998V16.082H195.225V17.5213H191.835V18.9128H200.372V17.5213Z" fill="white"/>
<path d="M196.108 24.6941C196.793 24.6941 197.401 24.5838 197.934 24.3652C198.467 24.1467 198.88 23.8393 199.175 23.4431C199.468 23.0489 199.618 22.5913 199.624 22.0751C199.618 21.5589 199.469 21.1022 199.175 20.707C198.88 20.3108 198.468 20.0054 197.937 19.7898C197.406 19.5732 196.797 19.4619 196.108 19.457C195.418 19.4629 194.806 19.5732 194.274 19.7898C193.74 20.0054 193.326 20.3108 193.03 20.707C192.732 21.1012 192.584 21.5589 192.584 22.0751C192.584 22.5913 192.732 23.0479 193.03 23.4431C193.326 23.8393 193.743 24.1467 194.278 24.3652C194.813 24.5838 195.423 24.6941 196.108 24.6941H196.108ZM194.517 21.392C194.666 21.1998 194.877 21.0515 195.153 20.949C195.428 20.8456 195.747 20.7919 196.108 20.7861C196.474 20.7919 196.795 20.8456 197.07 20.949C197.345 21.0515 197.561 21.1998 197.714 21.392C197.867 21.5842 197.945 21.8126 197.945 22.076C197.945 22.3395 197.868 22.5659 197.714 22.7523C197.56 22.9386 197.345 23.0831 197.07 23.1836C196.795 23.2841 196.474 23.3338 196.108 23.3338C195.741 23.3338 195.422 23.2841 195.15 23.1836C194.877 23.0831 194.666 22.9396 194.517 22.7523C194.367 22.5649 194.294 22.3395 194.294 22.076C194.294 21.8126 194.367 21.5852 194.517 21.392Z" fill="white"/>
<path d="M193.586 27.1698H201.406V30.4279H203.172V25.7617H193.586V27.1698Z" fill="white"/>
<path d="M214.768 25.4021C214.001 25.1933 213.099 25.0898 212.059 25.0898C211.018 25.0898 210.133 25.1943 209.369 25.4021C208.606 25.6109 208.016 25.9173 207.6 26.3232C207.184 26.7301 206.976 27.2093 206.976 27.7635C206.976 28.3177 207.184 28.791 207.6 29.1872C208.016 29.5814 208.606 29.8868 209.369 30.0995C210.133 30.3132 211.03 30.4206 212.059 30.4206C213.087 30.4206 214.001 30.3132 214.768 30.0995C215.534 29.8868 216.124 29.5814 216.537 29.1872C216.951 28.791 217.16 28.3158 217.166 27.7635C217.16 27.2044 216.951 26.7233 216.537 26.3193C216.124 25.9163 215.534 25.6099 214.768 25.4021ZM215.003 28.4748C214.738 28.67 214.356 28.8183 213.858 28.9179C213.359 29.0184 212.759 29.0711 212.06 29.0759C211.365 29.0711 210.77 29.0184 210.274 28.9179C209.779 28.8183 209.399 28.67 209.136 28.4748C208.874 28.2807 208.742 28.0435 208.742 27.7635C208.742 27.4834 208.874 27.2327 209.136 27.0278C209.399 26.8219 209.779 26.6667 210.277 26.5613C210.776 26.455 211.37 26.4033 212.06 26.4033C212.75 26.4033 213.352 26.455 213.854 26.5613C214.354 26.6667 214.738 26.8219 215.003 27.0278C215.268 27.2336 215.404 27.4786 215.409 27.7635C215.404 28.0426 215.268 28.2797 215.003 28.4748Z" fill="white"/>
<path d="M212.418 20.0352H210.668V22.621H205.608V24.0447H218.67V22.621H212.418V20.0352Z" fill="white"/>
<path d="M215.237 19.9253C215.192 20.4317 215.09 21.0035 214.931 21.6407L216.673 21.8154C216.848 21.1772 216.96 20.5829 217.007 20.0355C217.055 19.4871 217.08 18.8334 217.086 18.0742V16.8242H207.11V18.2167H215.311C215.304 18.8675 215.28 19.4403 215.237 19.9253Z" fill="white"/>
<path d="M228.543 25.5203C227.801 25.3173 226.913 25.2148 225.879 25.2148C224.844 25.2148 223.937 25.3173 223.189 25.5203C222.441 25.7232 221.868 26.0208 221.467 26.4131C221.066 26.8054 220.866 27.2796 220.866 27.8329C220.866 28.3861 221.066 28.8487 221.467 29.237C221.867 29.6244 222.441 29.922 223.189 30.1299C223.937 30.3387 224.833 30.4451 225.879 30.4509C226.913 30.4451 227.804 30.3387 228.551 30.1299C229.299 29.9211 229.871 29.6254 230.266 29.24C230.66 28.8545 230.859 28.3861 230.859 27.8319C230.859 27.2777 230.658 26.8044 230.258 26.4121C229.858 26.0199 229.286 25.7213 228.543 25.5193V25.5203ZM228.71 28.5257C228.461 28.713 228.099 28.8535 227.625 28.9482C227.151 29.0429 226.568 29.0916 225.879 29.0916C225.19 29.0916 224.591 29.0429 224.116 28.9482C223.642 28.8535 223.281 28.713 223.034 28.5257C222.788 28.3383 222.667 28.108 222.673 27.8339C222.667 27.5597 222.788 27.3274 223.034 27.1381C223.282 26.9478 223.642 26.8063 224.116 26.7107C224.59 26.6161 225.178 26.5683 225.879 26.5683C226.579 26.5683 227.143 26.6161 227.621 26.7107C228.098 26.8054 228.462 26.9488 228.711 27.142C228.961 27.3343 229.084 27.5655 229.084 27.8339C229.084 28.1022 228.96 28.3393 228.711 28.5257H228.71Z" fill="white"/>
<path d="M226.761 21.6338H230.954V20.2336H222.704V18.1688H230.865V16.793H220.961V20.2336V21.1352V21.6338H225.034V23.0009H219.346V24.3934H232.465V23.0009H226.761V21.6338Z" fill="white"/>
<path d="M245.106 16.1445H243.316V30.4291H245.106V16.1445Z" fill="white"/>
<path d="M239.06 17.6641H233.913V19.0565H239.004C238.92 19.923 238.742 20.7271 238.455 21.4608C238.052 22.4942 237.418 23.429 236.554 24.2643C235.689 25.0996 234.565 25.8451 233.181 26.4998L234.119 27.9069C235.742 27.1428 237.049 26.2383 238.038 25.1942C239.027 24.1501 239.737 23.0075 240.166 21.7653C240.597 20.5241 240.814 19.157 240.82 17.6641H239.061H239.06Z" fill="white"/>
<path d="M252.816 17.6641H247.669V19.0565H252.76C252.676 19.923 252.498 20.7271 252.211 21.4608C251.808 22.4942 251.174 23.429 250.31 24.2643C249.445 25.0996 248.32 25.8451 246.937 26.4998L247.875 27.9069C249.498 27.1428 250.805 26.2383 251.794 25.1942C252.783 24.1501 253.493 23.0075 253.922 21.7653C254.353 20.5241 254.57 19.157 254.575 17.6641H252.817H252.816Z" fill="white"/>
<path d="M258.861 16.1445H257.071V30.4291H258.861V16.1445Z" fill="white"/>
<path d="M268.066 24.5041V25.7219H270.899V26.9719H272.665V16.1602H270.899V24.5041H268.066Z" fill="white"/>
<path d="M264.225 28.737V25.9297H262.45V28.737V29.1244V30.1763H272.999V28.737H264.225Z" fill="white"/>
<path d="M263.357 21.4096C263.898 21.6184 264.521 21.7218 265.226 21.7218C265.931 21.7218 266.548 21.6174 267.092 21.4096C267.636 21.2007 268.057 20.91 268.356 20.5353C268.655 20.1615 268.806 19.7215 268.806 19.215C268.806 18.7086 268.655 18.2783 268.356 17.8899C268.057 17.5025 267.634 17.2029 267.088 16.9922C266.541 16.7814 265.921 16.679 265.225 16.6838C264.525 16.678 263.904 16.7814 263.359 16.9922C262.815 17.2029 262.392 17.5035 262.091 17.8899C261.788 18.2783 261.638 18.7193 261.638 19.215C261.638 19.7107 261.789 20.1615 262.091 20.5353C262.392 20.91 262.814 21.2017 263.355 21.4096H263.357ZM263.557 18.5505C263.716 18.3602 263.938 18.2187 264.225 18.1231C264.511 18.0285 264.844 17.9806 265.226 17.9806C265.608 17.9806 265.926 18.0285 266.212 18.1231C266.499 18.2178 266.722 18.3602 266.881 18.5505C267.04 18.7408 267.12 18.9613 267.12 19.215C267.12 19.4687 267.04 19.6883 266.881 19.8756C266.722 20.063 266.499 20.2054 266.212 20.303C265.926 20.4006 265.597 20.4494 265.226 20.4494C264.855 20.4494 264.511 20.4006 264.225 20.303C263.938 20.2054 263.716 20.064 263.557 19.8795C263.398 19.6951 263.317 19.4736 263.317 19.215C263.317 18.9564 263.398 18.7408 263.557 18.5505Z" fill="white"/>
<path d="M264.511 26.5766H266.285V23.8268C267.536 23.7429 268.753 23.618 269.912 23.4297L269.817 22.1641C268.475 22.327 267.074 22.4344 265.612 22.488C264.151 22.5407 262.46 22.5758 260.54 22.5905L260.755 23.9907C262.056 23.9946 263.299 23.9663 264.51 23.9205V26.5766H264.511Z" fill="white"/>
<path d="M69.9901 39.8191H69.254L66.5775 35.9803H66.5304V39.8191H65.7285V34.5703H66.4725L69.1451 38.413H69.1922V34.5703H69.9911V39.8191H69.9901Z" fill="white"/>
<path d="M72.9774 38.0519C72.9185 38.0558 72.8302 38.0617 72.7134 38.0715C72.5505 38.0783 72.3974 38.089 72.2541 38.1007C71.992 38.1193 71.7879 38.1807 71.6456 38.2822C71.5032 38.3837 71.4296 38.5291 71.4267 38.7174C71.4267 38.8404 71.4591 38.9448 71.5248 39.0307C71.5906 39.1165 71.6789 39.1809 71.7889 39.2248C71.8988 39.2687 72.0283 39.2892 72.1775 39.2863C72.3817 39.2863 72.5603 39.2453 72.7134 39.1653C72.8665 39.0843 72.9843 38.976 73.0667 38.8414C73.1502 38.7067 73.1904 38.5584 73.1904 38.3993L73.1865 37.1601C73.1865 37.0108 73.1561 36.883 73.0972 36.7776C73.0383 36.6722 72.947 36.5931 72.8253 36.5385C72.7036 36.4839 72.5554 36.4565 72.3807 36.4565C72.1569 36.4565 71.9753 36.5014 71.836 36.5922C71.6966 36.6829 71.6073 36.8039 71.568 36.9561H70.7877C70.8123 36.7385 70.8947 36.5444 71.0341 36.3746C71.1735 36.2048 71.3609 36.0711 71.5975 35.9755C71.834 35.8798 72.1029 35.832 72.4072 35.832C72.6624 35.832 72.9058 35.8701 73.1384 35.9462C73.371 36.0223 73.5663 36.1628 73.7234 36.3668C73.8814 36.5707 73.9599 36.8508 73.9599 37.2059V39.8191H73.2051V39.2795H73.1757C73.0883 39.4532 72.946 39.6015 72.7487 39.7215C72.5515 39.8425 72.3031 39.904 72.0009 39.9059C71.7457 39.903 71.517 39.8562 71.3158 39.7625C71.1146 39.6688 70.9546 39.5332 70.8378 39.3527C70.721 39.1721 70.6631 38.9584 70.6631 38.7096C70.6631 38.3008 70.8015 38.01 71.0783 37.8363C71.355 37.6626 71.7103 37.5611 72.1432 37.5318C72.26 37.5221 72.3915 37.5123 72.5367 37.5045C72.683 37.4967 72.8243 37.4879 72.9637 37.4811C73.054 37.4782 73.1433 37.4762 73.2336 37.4743L73.2405 38.0363C73.1237 38.0432 73.0353 38.049 72.9764 38.0529L72.9774 38.0519Z" fill="white"/>
<path d="M76.6007 36.4997H74.4346V35.883H76.6007V36.4997ZM75.7988 34.9414V38.664C75.7988 38.8016 75.8194 38.909 75.8607 38.9851C75.9019 39.0612 75.9569 39.1139 76.0246 39.1431C76.0923 39.1724 76.1738 39.1871 76.269 39.1871C76.3102 39.1871 76.3553 39.1871 76.4054 39.1831C76.4554 39.1802 76.5045 39.1792 76.5526 39.1792L76.6586 39.1724V39.8399C76.5153 39.8613 76.3553 39.8721 76.1777 39.8721C75.9667 39.8721 75.7723 39.833 75.5957 39.754C75.42 39.6749 75.2786 39.5569 75.1726 39.4007C75.0666 39.2436 75.0136 39.0504 75.0136 38.8211V34.9424H75.7979L75.7988 34.9414Z" fill="white"/>
<path d="M77.3596 35.2093C77.286 35.1664 77.2261 35.1117 77.183 35.0424C77.1388 34.9731 77.1172 34.898 77.1172 34.816C77.1172 34.7341 77.1388 34.657 77.183 34.5877C77.2271 34.5175 77.286 34.4618 77.3596 34.4209C77.4332 34.3799 77.5157 34.3594 77.606 34.3594C77.6963 34.3594 77.7748 34.3799 77.8504 34.4209C77.9259 34.4618 77.9858 34.5175 78.0309 34.5877C78.0761 34.658 78.0987 34.7341 78.0987 34.816C78.0987 34.898 78.0761 34.9741 78.0309 35.0424C77.9868 35.1117 77.9259 35.1664 77.8504 35.2093C77.7748 35.2522 77.6933 35.2727 77.606 35.2727C77.5186 35.2727 77.4332 35.2522 77.3596 35.2093ZM77.2193 35.8826H77.9956V39.8189H77.2193V35.8826Z" fill="white"/>
<path d="M79.4928 39.6452C79.2131 39.4754 78.9972 39.2383 78.844 38.9328C78.6909 38.6274 78.6144 38.2722 78.6144 37.8692C78.6144 37.4662 78.6909 37.1071 78.844 36.7998C78.9972 36.4924 79.2131 36.2553 79.4928 36.0855C79.7725 35.9157 80.0984 35.8318 80.4704 35.8318C80.8424 35.8318 81.1604 35.9157 81.4401 36.0855C81.7198 36.2553 81.9347 36.4924 82.0859 36.7998C82.2361 37.1071 82.3116 37.4633 82.3116 37.8692C82.3116 38.2752 82.2361 38.6274 82.0859 38.9328C81.9357 39.2383 81.7208 39.4754 81.4401 39.6452C81.1604 39.8149 80.8374 39.8989 80.4704 39.8989C80.1033 39.8989 79.7735 39.8149 79.4928 39.6452ZM81.0544 39.0694C81.2143 38.9465 81.3321 38.7796 81.4097 38.5689C81.4872 38.3591 81.5264 38.1239 81.5264 37.8653C81.5264 37.6067 81.4872 37.3726 81.4097 37.1618C81.3321 36.952 81.2134 36.7842 81.0544 36.6602C80.8954 36.5363 80.7 36.4739 80.4694 36.4739C80.2387 36.4739 80.0395 36.5363 79.8785 36.6602C79.7176 36.7842 79.5988 36.952 79.5193 37.1618C79.4398 37.3716 79.3996 37.6067 79.3976 37.8653C79.4006 38.1239 79.4408 38.3581 79.5193 38.5689C79.5988 38.7787 79.7176 38.9455 79.8785 39.0694C80.0395 39.1934 80.2358 39.2539 80.4694 39.2539C80.703 39.2539 80.8954 39.1924 81.0544 39.0694Z" fill="white"/>
<path d="M83.7139 39.8191H82.9375V35.8828H83.6815V36.5248H83.7325C83.8277 36.3072 83.9739 36.1374 84.1722 36.0155C84.3705 35.8935 84.6139 35.832 84.9034 35.832C85.1763 35.832 85.4118 35.8886 85.613 36.0008C85.8142 36.1131 85.9693 36.2809 86.0792 36.5043C86.1892 36.7278 86.2451 36.9981 86.2451 37.3143V39.8191H85.4687V37.405C85.4687 37.2196 85.4364 37.0576 85.3706 36.921C85.3048 36.7844 85.2096 36.681 85.084 36.6097C84.9584 36.5385 84.8092 36.5024 84.6335 36.5024C84.4578 36.5024 84.2949 36.5404 84.1555 36.6166C84.0161 36.6927 83.9082 36.8049 83.8306 36.9532C83.7531 37.1015 83.7139 37.2781 83.7139 37.484V39.8181V39.8191Z" fill="white"/>
<path d="M89.1698 38.0519C89.1109 38.0558 89.0226 38.0617 88.9058 38.0715C88.7429 38.0783 88.5897 38.089 88.4465 38.1007C88.1844 38.1193 87.9803 38.1807 87.8379 38.2822C87.6956 38.3837 87.622 38.5291 87.6191 38.7174C87.6191 38.8404 87.6514 38.9448 87.7172 39.0307C87.783 39.1165 87.8713 39.1809 87.9812 39.2248C88.0912 39.2687 88.2207 39.2892 88.3699 39.2863C88.574 39.2863 88.7527 39.2453 88.9058 39.1653C89.0589 39.0843 89.1767 38.976 89.2591 38.8414C89.3426 38.7067 89.3828 38.5584 89.3828 38.3993L89.3789 37.1601C89.3789 37.0108 89.3484 36.883 89.2895 36.7776C89.2307 36.6722 89.1394 36.5931 89.0177 36.5385C88.896 36.4839 88.7478 36.4565 88.5731 36.4565C88.3493 36.4565 88.1677 36.5014 88.0283 36.5922C87.889 36.6829 87.7997 36.8039 87.7604 36.9561H86.9801C87.0047 36.7385 87.0871 36.5444 87.2265 36.3746C87.3658 36.2048 87.5533 36.0711 87.7898 35.9755C88.0264 35.8798 88.2953 35.832 88.5996 35.832C88.8547 35.832 89.0982 35.8701 89.3308 35.9462C89.5634 36.0223 89.7587 36.1628 89.9157 36.3668C90.0738 36.5707 90.1523 36.8508 90.1523 37.2059V39.8191H89.3975V39.2795H89.3681C89.2807 39.4532 89.1384 39.6015 88.9411 39.7215C88.7438 39.8425 88.4955 39.904 88.1932 39.9059C87.938 39.903 87.7094 39.8562 87.5082 39.7625C87.3069 39.6688 87.147 39.5332 87.0302 39.3527C86.9134 39.1721 86.8555 38.9584 86.8555 38.7096C86.8555 38.3008 86.9939 38.01 87.2706 37.8363C87.5474 37.6626 87.9027 37.5611 88.3355 37.5318C88.4523 37.5221 88.5839 37.5123 88.7291 37.5045C88.8754 37.4967 89.0167 37.4879 89.1561 37.4811C89.2464 37.4782 89.3357 37.4762 89.426 37.4743L89.4328 38.0363C89.3161 38.0432 89.2277 38.049 89.1688 38.0529L89.1698 38.0519Z" fill="white"/>
<path d="M91.7256 39.8191H90.9492V34.5703H91.7256V39.8191Z" fill="white"/>
<path d="M95.0616 39.8191H94.2598V34.5703H95.0616V39.8191Z" fill="white"/>
<path d="M96.7021 39.8191H95.9258V35.8828H96.6697V36.5248H96.7208C96.816 36.3072 96.9622 36.1374 97.1605 36.0155C97.3588 35.8935 97.6022 35.832 97.8917 35.832C98.1646 35.832 98.4001 35.8886 98.6013 36.0008C98.8025 36.1131 98.9576 36.2809 99.0675 36.5043C99.1774 36.7278 99.2334 36.9981 99.2334 37.3143V39.8191H98.457V37.405C98.457 37.2196 98.4246 37.0576 98.3589 36.921C98.2931 36.7844 98.1979 36.681 98.0723 36.6097C97.9467 36.5385 97.7975 36.5024 97.6218 36.5024C97.4461 36.5024 97.2832 36.5404 97.1438 36.6166C97.0044 36.6927 96.8965 36.8049 96.8189 36.9532C96.7414 37.1015 96.7021 37.2781 96.7021 37.484V39.8181V39.8191Z" fill="white"/>
<path d="M102.007 36.5792C101.881 36.4875 101.713 36.4417 101.504 36.4417C101.357 36.4417 101.228 36.4641 101.112 36.5109C100.996 36.5568 100.905 36.6202 100.838 36.7012C100.771 36.7822 100.738 36.873 100.738 36.9715C100.741 37.0876 100.792 37.1872 100.891 37.2701C100.99 37.353 101.147 37.4194 101.361 37.4672L101.992 37.6126C102.355 37.6955 102.626 37.8234 102.805 38C102.985 38.1766 103.076 38.402 103.079 38.6782C103.076 38.9172 103.01 39.129 102.882 39.3124C102.753 39.4968 102.567 39.6393 102.322 39.7437C102.078 39.8481 101.789 39.8998 101.457 39.8998C101.143 39.8998 100.873 39.855 100.644 39.7642C100.415 39.6735 100.234 39.5417 100.099 39.371C99.9647 39.1992 99.8793 38.9914 99.8459 38.7474H100.645C100.678 38.9241 100.764 39.0568 100.898 39.1465C101.033 39.2363 101.217 39.2802 101.451 39.2773C101.619 39.2773 101.765 39.2568 101.891 39.2139C102.018 39.1709 102.115 39.1095 102.181 39.0294C102.248 38.9484 102.281 38.8528 102.281 38.7416C102.281 38.6157 102.232 38.5113 102.134 38.4284C102.036 38.3454 101.881 38.2791 101.669 38.2312L101.052 38.0937C100.698 38.0166 100.428 37.8858 100.242 37.7024C100.057 37.5179 99.9657 37.2896 99.9657 37.0174C99.9657 36.7881 100.029 36.5831 100.157 36.4026C100.285 36.2221 100.464 36.0826 100.695 35.984C100.926 35.8855 101.195 35.8357 101.501 35.8357C101.788 35.8357 102.041 35.8816 102.259 35.9752C102.478 36.0689 102.65 36.1987 102.776 36.3685C102.9 36.5383 102.975 36.7344 102.999 36.9598H102.255C102.216 36.8007 102.134 36.6739 102.007 36.5831V36.5792Z" fill="white"/>
<path d="M105.54 36.4997H103.374V35.883H105.54V36.4997ZM104.738 34.9414V38.664C104.738 38.8016 104.759 38.909 104.8 38.9851C104.841 39.0612 104.896 39.1139 104.964 39.1431C105.032 39.1724 105.113 39.1871 105.208 39.1871C105.25 39.1871 105.295 39.1871 105.345 39.1831C105.395 39.1792 105.444 39.1792 105.492 39.1792L105.598 39.1724V39.8399C105.455 39.8613 105.295 39.8721 105.117 39.8721C104.906 39.8721 104.712 39.833 104.535 39.754C104.359 39.6749 104.218 39.5569 104.112 39.4007C104.006 39.2436 103.953 39.0504 103.953 38.8211V34.9424H104.737L104.738 34.9414Z" fill="white"/>
<path d="M106.16 35.8818H106.911V36.5121H106.955C107.026 36.2994 107.152 36.1316 107.334 36.0086C107.516 35.8857 107.722 35.8232 107.95 35.8203C108.136 35.8252 108.247 35.832 108.286 35.8418V36.5814C108.24 36.5697 108.179 36.558 108.104 36.5473C108.028 36.5365 107.953 36.5307 107.878 36.5307C107.7 36.5307 107.54 36.5697 107.399 36.6468C107.256 36.7239 107.145 36.8303 107.061 36.9639C106.978 37.0976 106.937 37.2498 106.937 37.4187V39.8181H106.161V35.8818H106.16Z" fill="white"/>
<path d="M111.235 35.8828H112.009V39.8191H111.25V39.138H111.206C111.109 39.3586 110.958 39.5352 110.755 39.6689C110.552 39.8025 110.309 39.8699 110.024 39.8699C109.764 39.8699 109.536 39.8123 109.34 39.6991C109.144 39.5859 108.993 39.4171 108.885 39.1937C108.776 38.9702 108.723 38.6999 108.723 38.3838V35.8828H109.499V38.293C109.499 38.4696 109.532 38.6228 109.601 38.7536C109.67 38.8843 109.763 38.9858 109.884 39.058C110.004 39.1302 110.144 39.1663 110.301 39.1663C110.451 39.1693 110.599 39.1322 110.744 39.0561C110.889 38.98 111.006 38.8687 111.097 38.7204C111.188 38.5731 111.233 38.3935 111.233 38.1808V35.8828H111.235Z" fill="white"/>
<path d="M112.811 35.8828H113.555V36.5248H113.606C113.689 36.3072 113.823 36.1374 114.01 36.0155C114.196 35.8935 114.421 35.832 114.681 35.832C114.854 35.832 115.01 35.8584 115.149 35.912C115.289 35.9657 115.41 36.0438 115.509 36.1472C115.608 36.2516 115.687 36.3765 115.745 36.5239H115.785C115.851 36.3834 115.941 36.2614 116.055 36.156C116.169 36.0506 116.305 35.9706 116.46 35.915C116.616 35.8594 116.788 35.832 116.978 35.832C117.221 35.832 117.434 35.8828 117.618 35.9843C117.801 36.0857 117.945 36.238 118.048 36.4409C118.151 36.6439 118.203 36.8917 118.203 37.1845V39.8201H117.423V37.2577C117.42 37.0039 117.351 36.8146 117.214 36.6888C117.079 36.5629 116.901 36.5004 116.682 36.5004C116.518 36.5004 116.375 36.5346 116.258 36.6039C116.14 36.6732 116.048 36.7678 115.986 36.8898C115.923 37.0118 115.889 37.1523 115.887 37.3123V39.821H115.114V37.204C115.114 37.0664 115.085 36.9434 115.027 36.8361C114.969 36.7278 114.883 36.6458 114.774 36.5883C114.664 36.5307 114.537 36.5014 114.397 36.5014C114.256 36.5014 114.117 36.5385 113.994 36.6136C113.872 36.6888 113.772 36.7942 113.699 36.9308C113.625 37.0674 113.588 37.2216 113.588 37.3933V39.822H112.812V35.8857L112.811 35.8828Z" fill="white"/>
<path d="M119.707 39.6483C119.422 39.4815 119.203 39.2463 119.05 38.9419C118.897 38.6374 118.82 38.2832 118.82 37.8802C118.82 37.4772 118.897 37.123 119.05 36.8107C119.203 36.4985 119.417 36.2575 119.694 36.0877C119.97 35.9169 120.29 35.832 120.655 35.832C120.973 35.832 121.265 35.9003 121.531 36.0369C121.797 36.1736 122.01 36.3892 122.171 36.6858C122.332 36.9825 122.412 37.3552 122.412 37.808V38.0802H119.258V37.5036H121.65C121.65 37.3074 121.609 37.1308 121.528 36.9727C121.447 36.8137 121.33 36.6907 121.18 36.6009C121.03 36.5112 120.856 36.4673 120.663 36.4673C120.452 36.4673 120.265 36.518 120.105 36.6195C119.945 36.721 119.819 36.8576 119.731 37.0293C119.643 37.2011 119.597 37.3845 119.595 37.5806V38.0305C119.595 38.2891 119.642 38.5106 119.737 38.696C119.832 38.8804 119.963 39.0219 120.131 39.1204C120.298 39.219 120.493 39.2668 120.714 39.2668C120.855 39.2639 120.983 39.2444 121.096 39.2053C121.21 39.1663 121.307 39.1155 121.386 39.0531C121.465 38.9906 121.527 38.9184 121.573 38.8355H122.364C122.304 39.0502 122.199 39.2375 122.049 39.3976C121.9 39.5566 121.711 39.6815 121.48 39.7693C121.25 39.8571 120.993 39.902 120.709 39.902C120.325 39.902 119.99 39.8191 119.706 39.6522L119.707 39.6483Z" fill="white"/>
<path d="M123.811 39.8191H123.034V35.8828H123.778V36.5248H123.829C123.924 36.3072 124.071 36.1374 124.269 36.0155C124.467 35.8935 124.711 35.832 125 35.832C125.273 35.832 125.508 35.8886 125.71 36.0008C125.911 36.1131 126.066 36.2809 126.176 36.5043C126.286 36.7278 126.342 36.9981 126.342 37.3143V39.8191H125.565V37.405C125.565 37.2196 125.533 37.0576 125.467 36.921C125.402 36.7844 125.306 36.681 125.181 36.6097C125.055 36.5385 124.906 36.5024 124.73 36.5024C124.554 36.5024 124.392 36.5404 124.252 36.6166C124.113 36.6927 124.005 36.8049 123.927 36.9532C123.85 37.1015 123.811 37.2781 123.811 37.484V39.8181V39.8191Z" fill="white"/>
<path d="M128.988 36.4997H126.822V35.883H128.988V36.4997ZM128.187 34.9414V38.664C128.187 38.8016 128.207 38.909 128.248 38.9851C128.29 39.0612 128.345 39.1139 128.412 39.1431C128.481 39.1724 128.561 39.1871 128.657 39.1871C128.698 39.1871 128.743 39.1871 128.793 39.1831C128.843 39.1802 128.892 39.1792 128.94 39.1792L129.046 39.1724V39.8399C128.903 39.8613 128.743 39.8721 128.565 39.8721C128.354 39.8721 128.16 39.833 127.983 39.754C127.808 39.6749 127.666 39.5569 127.56 39.4007C127.454 39.2436 127.401 39.0504 127.401 38.8211V34.9424H128.186L128.187 34.9414Z" fill="white"/>
<path d="M131.732 38.0519C131.673 38.0558 131.585 38.0617 131.468 38.0715C131.305 38.0783 131.152 38.089 131.009 38.1007C130.747 38.1193 130.543 38.1807 130.4 38.2822C130.257 38.3837 130.185 38.5291 130.182 38.7174C130.182 38.8404 130.214 38.9448 130.28 39.0307C130.345 39.1165 130.434 39.1809 130.544 39.2248C130.654 39.2687 130.783 39.2892 130.932 39.2863C131.137 39.2863 131.315 39.2453 131.468 39.1653C131.621 39.0843 131.739 38.976 131.822 38.8414C131.905 38.7067 131.945 38.5584 131.945 38.3993L131.941 37.1601C131.941 37.0108 131.911 36.883 131.852 36.7776C131.793 36.6722 131.702 36.5931 131.58 36.5385C131.458 36.4839 131.31 36.4565 131.136 36.4565C130.912 36.4565 130.73 36.5014 130.591 36.5922C130.451 36.6829 130.362 36.8039 130.323 36.9561H129.543C129.567 36.7385 129.65 36.5444 129.789 36.3746C129.928 36.2038 130.116 36.0711 130.352 35.9755C130.589 35.8798 130.858 35.832 131.162 35.832C131.417 35.832 131.661 35.8701 131.893 35.9462C132.126 36.0223 132.321 36.1628 132.478 36.3668C132.636 36.5707 132.715 36.8508 132.715 37.2059V39.8191H131.96V39.2795H131.931C131.843 39.4532 131.701 39.6015 131.504 39.7215C131.306 39.8425 131.058 39.904 130.756 39.9059C130.501 39.903 130.272 39.8562 130.071 39.7625C129.869 39.6688 129.709 39.5332 129.593 39.3527C129.476 39.1721 129.418 38.9584 129.418 38.7096C129.418 38.3008 129.556 38.01 129.833 37.8363C130.11 37.6626 130.465 37.5611 130.898 37.5318C131.015 37.5221 131.146 37.5123 131.292 37.5045C131.438 37.4967 131.579 37.4879 131.719 37.4811C131.809 37.4782 131.898 37.4762 131.988 37.4743L131.995 38.0363C131.879 38.0432 131.79 38.049 131.731 38.0529L131.732 38.0519Z" fill="white"/>
<path d="M135.354 36.4997H133.188V35.883H135.354V36.4997ZM134.552 34.9414V38.664C134.552 38.8016 134.572 38.909 134.614 38.9851C134.655 39.0612 134.71 39.1139 134.778 39.1431C134.845 39.1724 134.927 39.1871 135.022 39.1871C135.063 39.1871 135.108 39.1871 135.158 39.1831C135.208 39.1792 135.257 39.1792 135.306 39.1792L135.412 39.1724V39.8399C135.268 39.8613 135.108 39.8721 134.931 39.8721C134.72 39.8721 134.525 39.833 134.349 39.754C134.173 39.6749 134.032 39.5569 133.926 39.4007C133.82 39.2436 133.767 39.0504 133.767 38.8211V34.9424H134.551L134.552 34.9414Z" fill="white"/>
<path d="M136.114 35.2093C136.041 35.1664 135.981 35.1117 135.938 35.0424C135.894 34.9731 135.872 34.898 135.872 34.816C135.872 34.7341 135.894 34.657 135.938 34.5877C135.982 34.5184 136.041 34.4618 136.114 34.4209C136.188 34.3799 136.271 34.3594 136.361 34.3594C136.451 34.3594 136.53 34.3799 136.605 34.4209C136.681 34.4618 136.741 34.5175 136.786 34.5877C136.831 34.658 136.854 34.7341 136.854 34.816C136.854 34.898 136.831 34.9741 136.786 35.0424C136.742 35.1117 136.681 35.1664 136.605 35.2093C136.53 35.2522 136.448 35.2727 136.361 35.2727C136.273 35.2727 136.188 35.2522 136.114 35.2093ZM135.974 35.8826H136.751V39.8189H135.974V35.8826Z" fill="white"/>
<path d="M138.246 39.6452C137.967 39.4754 137.751 39.2383 137.598 38.9328C137.445 38.6274 137.368 38.2722 137.368 37.8692C137.368 37.4662 137.445 37.1071 137.598 36.7998C137.751 36.4924 137.967 36.2553 138.246 36.0855C138.526 35.9157 138.852 35.8318 139.224 35.8318C139.596 35.8318 139.914 35.9157 140.194 36.0855C140.473 36.2553 140.688 36.4924 140.84 36.7998C140.99 37.1071 141.065 37.4633 141.065 37.8692C141.065 38.2752 140.99 38.6274 140.84 38.9328C140.689 39.2383 140.474 39.4754 140.194 39.6452C139.914 39.8149 139.591 39.8989 139.224 39.8989C138.857 39.8989 138.527 39.8149 138.246 39.6452ZM139.809 39.0694C139.969 38.9465 140.087 38.7796 140.164 38.5689C140.242 38.3591 140.281 38.1239 140.281 37.8653C140.281 37.6067 140.242 37.3726 140.164 37.1618C140.087 36.951 139.968 36.7842 139.809 36.6602C139.65 36.5363 139.455 36.4739 139.224 36.4739C138.993 36.4739 138.794 36.5363 138.633 36.6602C138.473 36.7842 138.353 36.952 138.274 37.1618C138.194 37.3716 138.154 37.6067 138.152 37.8653C138.155 38.1239 138.195 38.3581 138.274 38.5689C138.353 38.7787 138.472 38.9455 138.633 39.0694C138.793 39.1924 138.99 39.2539 139.224 39.2539C139.458 39.2539 139.65 39.1924 139.809 39.0694Z" fill="white"/>
<path d="M142.469 39.8191H141.692V35.8828H142.436V36.5248H142.487C142.583 36.3072 142.729 36.1374 142.927 36.0155C143.125 35.8935 143.369 35.832 143.658 35.832C143.931 35.832 144.167 35.8886 144.368 36.0008C144.569 36.1131 144.724 36.2809 144.834 36.5043C144.944 36.7278 145 36.9981 145 37.3143V39.8191H144.224V37.405C144.224 37.2196 144.191 37.0576 144.125 36.921C144.06 36.7844 143.965 36.681 143.839 36.6097C143.713 36.5385 143.564 36.5024 143.388 36.5024C143.213 36.5024 143.05 36.5404 142.91 36.6166C142.771 36.6927 142.663 36.8049 142.586 36.9532C142.508 37.1015 142.469 37.2781 142.469 37.484V39.8181V39.8191Z" fill="white"/>
<path d="M150.852 35.7119C150.722 35.5529 150.562 35.4319 150.372 35.3499C150.181 35.267 149.972 35.227 149.746 35.227C149.44 35.227 149.167 35.304 148.928 35.4572C148.688 35.6104 148.5 35.8349 148.362 36.1315C148.225 36.4282 148.156 36.7824 148.156 37.1951C148.156 37.6079 148.225 37.965 148.362 38.2587C148.5 38.5524 148.688 38.7759 148.926 38.9291C149.163 39.0823 149.436 39.1604 149.742 39.1633C149.968 39.1604 150.177 39.1184 150.368 39.0384C150.558 38.9574 150.719 38.8393 150.849 38.6832C150.979 38.5271 151.066 38.3417 151.113 38.127L151.918 38.1309C151.862 38.4744 151.735 38.7788 151.538 39.0462C151.339 39.3136 151.085 39.5214 150.776 39.6697C150.466 39.818 150.12 39.8922 149.738 39.8922C149.279 39.8922 148.87 39.7839 148.512 39.5663C148.153 39.3487 147.873 39.0364 147.67 38.6295C147.466 38.2226 147.365 37.7445 147.365 37.1961C147.365 36.6477 147.467 36.1696 147.671 35.7627C147.876 35.3558 148.157 35.0435 148.516 34.8259C148.874 34.6083 149.282 34.5 149.738 34.5C150.113 34.5 150.454 34.5703 150.763 34.7098C151.072 34.8503 151.327 35.0552 151.529 35.3245C151.73 35.5939 151.86 35.9139 151.918 36.2837H151.113C151.068 36.0632 150.982 35.8739 150.851 35.7149L150.852 35.7119Z" fill="white"/>
<path d="M153.283 39.6483C152.998 39.4815 152.779 39.2463 152.626 38.9419C152.473 38.6374 152.396 38.2832 152.396 37.8802C152.396 37.4772 152.473 37.123 152.626 36.8107C152.779 36.4985 152.993 36.2575 153.27 36.0877C153.546 35.9169 153.866 35.832 154.231 35.832C154.549 35.832 154.841 35.9003 155.107 36.0369C155.373 36.1736 155.586 36.3892 155.747 36.6858C155.908 36.9825 155.988 37.3552 155.988 37.808V38.0802H152.834V37.5036H155.226C155.226 37.3074 155.185 37.1308 155.104 36.9727C155.023 36.8137 154.906 36.6907 154.756 36.6009C154.606 36.5112 154.432 36.4673 154.238 36.4673C154.027 36.4673 153.84 36.518 153.68 36.6195C153.52 36.721 153.395 36.8576 153.306 37.0293C153.218 37.2011 153.172 37.3845 153.17 37.5806V38.0305C153.17 38.2891 153.217 38.5106 153.312 38.696C153.407 38.8804 153.538 39.0219 153.706 39.1204C153.874 39.219 154.068 39.2668 154.289 39.2668C154.43 39.2639 154.558 39.2444 154.672 39.2053C154.785 39.1663 154.883 39.1155 154.961 39.0531C155.04 38.9906 155.102 38.9184 155.149 38.8355H155.94C155.879 39.0502 155.774 39.2375 155.625 39.3976C155.475 39.5566 155.286 39.6815 155.055 39.7693C154.826 39.8571 154.569 39.902 154.284 39.902C153.9 39.902 153.565 39.8191 153.281 39.6522L153.283 39.6483Z" fill="white"/>
<path d="M157.388 39.8191H156.611V35.8828H157.355V36.5248H157.406C157.502 36.3072 157.648 36.1374 157.846 36.0155C158.044 35.8935 158.288 35.832 158.577 35.832C158.85 35.832 159.086 35.8886 159.287 36.0008C159.488 36.1131 159.643 36.2809 159.753 36.5043C159.863 36.7278 159.919 36.9981 159.919 37.3143V39.8191H159.143V37.405C159.143 37.2196 159.11 37.0576 159.044 36.921C158.979 36.7844 158.883 36.681 158.758 36.6097C158.632 36.5385 158.483 36.5024 158.307 36.5024C158.132 36.5024 157.969 36.5404 157.829 36.6166C157.69 36.6927 157.582 36.8049 157.504 36.9532C157.427 37.1015 157.388 37.2781 157.388 37.484V39.8181V39.8191Z" fill="white"/>
<path d="M162.565 36.4997H160.398V35.883H162.565V36.4997ZM161.763 34.9414V38.664C161.763 38.8016 161.783 38.909 161.825 38.9851C161.866 39.0612 161.921 39.1139 161.988 39.1431C162.056 39.1724 162.138 39.1871 162.233 39.1871C162.274 39.1871 162.319 39.1871 162.369 39.1831C162.419 39.1802 162.468 39.1792 162.516 39.1792L162.622 39.1724V39.8399C162.479 39.8613 162.319 39.8721 162.142 39.8721C161.931 39.8721 161.736 39.833 161.56 39.754C161.384 39.6749 161.243 39.5569 161.137 39.4007C161.031 39.2436 160.978 39.0504 160.978 38.8211V34.9424H161.762L161.763 34.9414Z" fill="white"/>
<path d="M163.849 39.6483C163.565 39.4815 163.346 39.2463 163.193 38.9419C163.039 38.6374 162.963 38.2832 162.963 37.8802C162.963 37.4772 163.039 37.123 163.193 36.8107C163.346 36.4985 163.56 36.2575 163.836 36.0877C164.112 35.9169 164.432 35.832 164.797 35.832C165.115 35.832 165.408 35.9003 165.674 36.0369C165.94 36.1736 166.153 36.3892 166.314 36.6858C166.475 36.9825 166.554 37.3552 166.554 37.808V38.0802H163.401V37.5036H165.793C165.793 37.3074 165.751 37.1308 165.671 36.9727C165.589 36.8137 165.473 36.6907 165.322 36.6009C165.172 36.5112 164.998 36.4673 164.804 36.4673C164.593 36.4673 164.407 36.518 164.247 36.6195C164.087 36.721 163.961 36.8576 163.873 37.0293C163.784 37.2011 163.738 37.3845 163.736 37.5806V38.0305C163.736 38.2891 163.783 38.5106 163.879 38.696C163.974 38.8804 164.104 39.0219 164.272 39.1204C164.44 39.219 164.634 39.2668 164.855 39.2668C164.997 39.2639 165.124 39.2444 165.238 39.2053C165.352 39.1663 165.449 39.1155 165.528 39.0531C165.607 38.9906 165.669 38.9184 165.715 38.8355H166.506C166.445 39.0502 166.34 39.2375 166.191 39.3976C166.042 39.5566 165.852 39.6815 165.622 39.7693C165.392 39.8571 165.135 39.902 164.85 39.902C164.467 39.902 164.132 39.8191 163.847 39.6522L163.849 39.6483Z" fill="white"/>
<path d="M167.179 35.8818H167.93V36.5121H167.974C168.044 36.2994 168.171 36.1316 168.353 36.0086C168.534 35.8857 168.74 35.8232 168.969 35.8203C169.154 35.8252 169.265 35.832 169.305 35.8418V36.5814C169.258 36.5697 169.198 36.558 169.122 36.5473C169.046 36.5365 168.972 36.5307 168.896 36.5307C168.719 36.5307 168.559 36.5697 168.417 36.6468C168.275 36.7239 168.163 36.8303 168.08 36.9639C167.996 37.0976 167.956 37.2498 167.956 37.4187V39.8181H167.18V35.8818H167.179Z" fill="white"/>
<path d="M173.3 36.4992H171.057V35.8825H173.3V36.4992ZM171.816 34.8336C171.913 34.6677 172.051 34.5418 172.226 34.455C172.402 34.3681 172.612 34.3242 172.856 34.3242C172.946 34.3242 173.036 34.3291 173.127 34.3389C173.219 34.3486 173.304 34.3603 173.385 34.375V35.02C173.316 35.0131 173.231 35.0024 173.129 34.9907H173.053C172.846 34.9907 172.695 35.0346 172.597 35.1214C172.5 35.2083 172.452 35.3459 172.455 35.5342V39.8189H171.671V35.4259C171.671 35.1966 171.719 34.9995 171.817 34.8336H171.816Z" fill="white"/>
<path d="M174.398 39.6454C174.118 39.4756 173.902 39.2385 173.749 38.9331C173.596 38.6277 173.52 38.2725 173.52 37.8695C173.52 37.4665 173.596 37.1074 173.749 36.8C173.902 36.4926 174.118 36.2555 174.398 36.0857C174.678 35.9159 175.004 35.832 175.376 35.832C175.747 35.832 176.065 35.9159 176.345 36.0857C176.625 36.2555 176.84 36.4926 176.991 36.8C177.141 37.1074 177.217 37.4635 177.217 37.8695C177.217 38.2754 177.141 38.6277 176.991 38.9331C176.841 39.2385 176.626 39.4756 176.345 39.6454C176.065 39.8152 175.743 39.8991 175.376 39.8991C175.008 39.8991 174.679 39.8152 174.398 39.6454ZM175.96 39.0697C176.12 38.9467 176.238 38.7799 176.316 38.5691C176.393 38.3593 176.433 38.1242 176.433 37.8656C176.433 37.607 176.393 37.3728 176.316 37.162C176.238 36.9513 176.119 36.7844 175.96 36.6605C175.801 36.5365 175.606 36.4741 175.376 36.4741C175.145 36.4741 174.946 36.5365 174.785 36.6605C174.624 36.7844 174.505 36.9522 174.425 37.162C174.346 37.3718 174.306 37.607 174.304 37.8656C174.307 38.1242 174.347 38.3583 174.425 38.5691C174.505 38.7789 174.624 38.9458 174.785 39.0697C174.946 39.1936 175.142 39.2541 175.376 39.2541C175.609 39.2541 175.801 39.1926 175.96 39.0697Z" fill="white"/>
<path d="M177.843 35.8818H178.594V36.5121H178.638C178.708 36.2994 178.835 36.1316 179.017 36.0086C179.198 35.8857 179.404 35.8232 179.633 35.8203C179.819 35.8252 179.929 35.832 179.969 35.8418V36.5814C179.923 36.5697 179.862 36.558 179.786 36.5473C179.711 36.5365 179.636 36.5307 179.56 36.5307C179.383 36.5307 179.223 36.5697 179.081 36.6468C178.939 36.7239 178.827 36.8303 178.744 36.9639C178.66 37.0976 178.62 37.2498 178.62 37.4187V39.8181H177.844V35.8818H177.843Z" fill="white"/>
<path d="M182.142 34.571H185.457V35.256H182.945V36.8505H185.282V37.5316H182.945V39.1338H185.482V39.8188H182.142V34.5701V34.571Z" fill="white"/>
<path d="M186.995 39.8191H186.219V35.8828H186.963V36.5248H187.014C187.109 36.3072 187.255 36.1374 187.453 36.0155C187.652 35.8935 187.895 35.832 188.185 35.832C188.458 35.832 188.693 35.8886 188.894 36.0008C189.095 36.1131 189.251 36.2809 189.36 36.5043C189.47 36.7278 189.526 36.9981 189.526 37.3143V39.8191H188.75V37.405C188.75 37.2196 188.718 37.0576 188.652 36.921C188.586 36.7844 188.491 36.681 188.365 36.6097C188.24 36.5385 188.09 36.5024 187.915 36.5024C187.739 36.5024 187.576 36.5404 187.437 36.6166C187.297 36.6927 187.189 36.8049 187.112 36.9532C187.034 37.1015 186.995 37.2781 186.995 37.484V39.8181V39.8191Z" fill="white"/>
<path d="M192.136 39.8191H191.301L189.864 35.8828H190.702L191.698 38.9097H191.742L192.741 35.8828H193.579L192.135 39.8191H192.136Z" fill="white"/>
<path d="M194.209 35.2093C194.136 35.1664 194.076 35.1117 194.033 35.0424C193.988 34.9731 193.967 34.898 193.967 34.816C193.967 34.7341 193.988 34.657 194.033 34.5877C194.077 34.5175 194.136 34.4618 194.209 34.4209C194.283 34.3799 194.365 34.3594 194.456 34.3594C194.546 34.3594 194.624 34.3799 194.7 34.4209C194.776 34.4618 194.835 34.5175 194.881 34.5877C194.925 34.658 194.948 34.7341 194.948 34.816C194.948 34.898 194.926 34.9741 194.881 35.0424C194.835 35.1117 194.776 35.1664 194.7 35.2093C194.624 35.2522 194.543 35.2727 194.456 35.2727C194.368 35.2727 194.283 35.2522 194.209 35.2093ZM194.069 35.8826H194.845V39.8189H194.069V35.8826Z" fill="white"/>
<path d="M195.644 35.8818H196.394V36.5121H196.439C196.509 36.2994 196.636 36.1316 196.817 36.0086C196.999 35.8857 197.205 35.8232 197.434 35.8203C197.619 35.8252 197.73 35.832 197.769 35.8418V36.5814C197.723 36.5697 197.662 36.558 197.587 36.5473C197.511 36.5365 197.437 36.5307 197.361 36.5307C197.184 36.5307 197.024 36.5697 196.882 36.6468C196.74 36.7239 196.628 36.8303 196.545 36.9639C196.461 37.0976 196.421 37.2498 196.421 37.4187V39.8181H195.645V35.8818H195.644Z" fill="white"/>
<path d="M198.776 39.6452C198.496 39.4754 198.28 39.2383 198.127 38.9328C197.974 38.6274 197.897 38.2722 197.897 37.8692C197.897 37.4662 197.974 37.1071 198.127 36.7998C198.28 36.4924 198.496 36.2553 198.776 36.0855C199.055 35.9157 199.381 35.8318 199.753 35.8318C200.125 35.8318 200.443 35.9157 200.723 36.0855C201.003 36.2553 201.218 36.4924 201.369 36.7998C201.519 37.1071 201.594 37.4633 201.594 37.8692C201.594 38.2752 201.519 38.6274 201.369 38.9328C201.219 39.2383 201.004 39.4754 200.723 39.6452C200.443 39.8149 200.12 39.8989 199.753 39.8989C199.386 39.8989 199.056 39.8149 198.776 39.6452ZM200.338 39.0694C200.498 38.9465 200.616 38.7796 200.693 38.5689C200.771 38.3591 200.81 38.1239 200.81 37.8653C200.81 37.6067 200.771 37.3726 200.693 37.1618C200.616 36.952 200.497 36.7842 200.338 36.6602C200.179 36.5363 199.984 36.4739 199.753 36.4739C199.523 36.4739 199.323 36.5363 199.162 36.6602C199.001 36.7842 198.883 36.952 198.803 37.1618C198.724 37.3716 198.683 37.6067 198.681 37.8653C198.684 38.1239 198.725 38.3581 198.803 38.5689C198.883 38.7787 199.001 38.9455 199.162 39.0694C199.323 39.1934 199.52 39.2539 199.753 39.2539C199.987 39.2539 200.179 39.1924 200.338 39.0694Z" fill="white"/>
<path d="M202.998 39.8191H202.222V35.8828H202.966V36.5248H203.017C203.112 36.3072 203.258 36.1374 203.456 36.0155C203.655 35.8935 203.898 35.832 204.188 35.832C204.46 35.832 204.696 35.8886 204.897 36.0008C205.098 36.1131 205.253 36.2809 205.363 36.5043C205.473 36.7278 205.529 36.9981 205.529 37.3143V39.8191H204.753V37.405C204.753 37.2196 204.721 37.0576 204.655 36.921C204.589 36.7844 204.494 36.681 204.368 36.6097C204.243 36.5385 204.093 36.5024 203.918 36.5024C203.742 36.5024 203.579 36.5404 203.44 36.6166C203.3 36.6927 203.192 36.8049 203.115 36.9532C203.037 37.1015 202.998 37.2781 202.998 37.484V39.8181V39.8191Z" fill="white"/>
<path d="M206.33 35.8828H207.074V36.5248H207.125C207.209 36.3072 207.343 36.1374 207.529 36.0155C207.716 35.8935 207.941 35.832 208.201 35.832C208.374 35.832 208.53 35.8584 208.669 35.912C208.808 35.9657 208.929 36.0438 209.028 36.1472C209.127 36.2506 209.207 36.3765 209.265 36.5239H209.305C209.371 36.3834 209.461 36.2614 209.575 36.156C209.689 36.0506 209.824 35.9706 209.979 35.915C210.134 35.8594 210.307 35.832 210.496 35.832C210.74 35.832 210.953 35.8828 211.136 35.9843C211.32 36.0857 211.463 36.238 211.566 36.4409C211.669 36.6439 211.721 36.8917 211.721 37.1845V39.8201H210.941V37.2577C210.938 37.0039 210.869 36.8146 210.733 36.6888C210.598 36.5629 210.42 36.5004 210.201 36.5004C210.036 36.5004 209.894 36.5346 209.776 36.6039C209.658 36.6732 209.567 36.7678 209.504 36.8898C209.441 37.0118 209.408 37.1523 209.406 37.3123V39.821H208.633V37.204C208.633 37.0664 208.603 36.9434 208.545 36.8361C208.487 36.7278 208.402 36.6458 208.292 36.5883C208.182 36.5307 208.056 36.5014 207.915 36.5014C207.775 36.5014 207.635 36.5385 207.513 36.6136C207.39 36.6888 207.291 36.7942 207.217 36.9308C207.144 37.0674 207.106 37.2216 207.106 37.3933V39.822H206.33V35.8857V35.8828Z" fill="white"/>
<path d="M213.225 39.6483C212.941 39.4815 212.722 39.2463 212.569 38.9419C212.415 38.6374 212.339 38.2832 212.339 37.8802C212.339 37.4772 212.415 37.123 212.569 36.8107C212.722 36.4985 212.936 36.2575 213.212 36.0877C213.488 35.9169 213.808 35.832 214.173 35.832C214.491 35.832 214.784 35.9003 215.05 36.0369C215.316 36.1736 215.529 36.3892 215.69 36.6858C215.851 36.9825 215.93 37.3552 215.93 37.808V38.0802H212.777V37.5036H215.168C215.168 37.3074 215.127 37.1308 215.047 36.9727C214.965 36.8137 214.849 36.6907 214.698 36.6009C214.548 36.5112 214.374 36.4673 214.181 36.4673C213.97 36.4673 213.784 36.518 213.624 36.6195C213.464 36.721 213.338 36.8576 213.25 37.0293C213.161 37.2011 213.115 37.3845 213.113 37.5806V38.0305C213.113 38.2891 213.16 38.5106 213.256 38.696C213.351 38.8804 213.481 39.0219 213.649 39.1204C213.817 39.218 214.011 39.2668 214.232 39.2668C214.373 39.2639 214.501 39.2444 214.615 39.2053C214.729 39.1663 214.826 39.1155 214.904 39.0531C214.984 38.9906 215.046 38.9184 215.092 38.8355H215.883C215.822 39.0502 215.717 39.2375 215.568 39.3976C215.419 39.5566 215.229 39.6815 214.999 39.7693C214.769 39.8571 214.512 39.902 214.227 39.902C213.843 39.902 213.509 39.8191 213.224 39.6522L213.225 39.6483Z" fill="white"/>
<path d="M217.331 39.8191H216.555V35.8828H217.299V36.5248H217.35C217.445 36.3072 217.591 36.1374 217.789 36.0155C217.988 35.8935 218.231 35.832 218.521 35.832C218.793 35.832 219.029 35.8886 219.23 36.0008C219.431 36.1131 219.586 36.2809 219.696 36.5043C219.806 36.7278 219.862 36.9981 219.862 37.3143V39.8191H219.086V37.405C219.086 37.2196 219.054 37.0576 218.988 36.921C218.922 36.7844 218.827 36.681 218.701 36.6097C218.576 36.5385 218.426 36.5024 218.251 36.5024C218.075 36.5024 217.912 36.5404 217.773 36.6166C217.633 36.6927 217.525 36.8049 217.448 36.9532C217.37 37.1015 217.331 37.2781 217.331 37.484V39.8181V39.8191Z" fill="white"/>
<path d="M222.508 36.4997H220.342V35.883H222.508V36.4997ZM221.706 34.9414V38.664C221.706 38.8016 221.727 38.909 221.768 38.9851C221.809 39.0612 221.864 39.1139 221.932 39.1431C222 39.1724 222.081 39.1871 222.176 39.1871C222.217 39.1871 222.263 39.1871 222.313 39.1831C222.363 39.1792 222.412 39.1792 222.46 39.1792L222.566 39.1724V39.8399C222.423 39.8613 222.263 39.8721 222.085 39.8721C221.874 39.8721 221.68 39.833 221.503 39.754C221.327 39.6749 221.186 39.5569 221.08 39.4007C220.974 39.2436 220.921 39.0504 220.921 38.8211V34.9424H221.705L221.706 34.9414Z" fill="white"/>
<path d="M225.252 38.0519C225.193 38.0558 225.105 38.0617 224.988 38.0715C224.825 38.0783 224.672 38.089 224.528 38.1007C224.266 38.1193 224.062 38.1807 223.92 38.2822C223.777 38.3837 223.704 38.5291 223.701 38.7174C223.701 38.8404 223.733 38.9448 223.799 39.0307C223.865 39.1165 223.953 39.1809 224.063 39.2248C224.173 39.2687 224.303 39.2892 224.452 39.2863C224.656 39.2863 224.835 39.2453 224.988 39.1653C225.141 39.0843 225.259 38.976 225.341 38.8414C225.425 38.7067 225.465 38.5584 225.465 38.3993L225.461 37.1601C225.461 37.0108 225.43 36.883 225.372 36.7776C225.313 36.6722 225.221 36.5931 225.1 36.5385C224.978 36.4839 224.83 36.4565 224.655 36.4565C224.431 36.4565 224.25 36.5014 224.11 36.5922C223.971 36.6829 223.882 36.8039 223.842 36.9561H223.062C223.087 36.7385 223.169 36.5444 223.309 36.3746C223.448 36.2048 223.635 36.0711 223.872 35.9755C224.108 35.8798 224.377 35.832 224.682 35.832C224.937 35.832 225.18 35.8701 225.413 35.9462C225.645 36.0223 225.841 36.1628 225.998 36.3668C226.156 36.5707 226.234 36.8508 226.234 37.2059V39.8191H225.48V39.2795H225.45C225.363 39.4532 225.22 39.6015 225.023 39.7215C224.826 39.8425 224.578 39.904 224.275 39.9059C224.02 39.903 223.791 39.8562 223.59 39.7625C223.389 39.6688 223.229 39.5332 223.112 39.3527C222.995 39.1721 222.938 38.9584 222.938 38.7096C222.938 38.3008 223.076 38.01 223.353 37.8363C223.629 37.6626 223.985 37.5611 224.418 37.5318C224.534 37.5221 224.666 37.5123 224.811 37.5045C224.957 37.4967 225.099 37.4879 225.238 37.4811C225.328 37.4782 225.418 37.4762 225.508 37.4743L225.515 38.0363C225.398 38.0432 225.31 38.049 225.251 38.0529L225.252 38.0519Z" fill="white"/>
<path d="M227.806 39.8191H227.029V34.5703H227.806V39.8191Z" fill="white"/>
<path d="M231.313 34.5703L232.991 38.6374H233.053L234.73 34.5703H235.704V39.8191H234.938V36.0272H234.887L233.334 39.8113H232.703L231.151 36.0272H231.106V39.8191H230.341V34.5703H231.314H231.313Z" fill="white"/>
<path d="M238.694 38.0519C238.635 38.0558 238.547 38.0617 238.43 38.0715C238.267 38.0783 238.114 38.089 237.971 38.1007C237.709 38.1193 237.505 38.1807 237.362 38.2822C237.219 38.3837 237.146 38.5291 237.143 38.7174C237.143 38.8404 237.176 38.9448 237.242 39.0307C237.307 39.1165 237.396 39.1809 237.506 39.2248C237.616 39.2687 237.745 39.2892 237.894 39.2863C238.098 39.2863 238.277 39.2453 238.43 39.1653C238.583 39.0843 238.701 38.976 238.784 38.8414C238.867 38.7067 238.907 38.5584 238.907 38.3993L238.903 37.1601C238.903 37.0108 238.873 36.883 238.814 36.7776C238.755 36.6722 238.664 36.5931 238.542 36.5385C238.42 36.4839 238.272 36.4565 238.097 36.4565C237.874 36.4565 237.692 36.5014 237.553 36.5922C237.413 36.6829 237.324 36.8039 237.285 36.9561H236.505C236.529 36.7385 236.612 36.5444 236.751 36.3746C236.89 36.2038 237.078 36.0711 237.314 35.9755C237.551 35.8798 237.82 35.832 238.124 35.832C238.379 35.832 238.623 35.8701 238.855 35.9462C239.088 36.0223 239.283 36.1628 239.44 36.3668C239.598 36.5707 239.677 36.8508 239.677 37.2059V39.8191H238.922V39.2795H238.892C238.805 39.4532 238.663 39.6015 238.466 39.7215C238.268 39.8425 238.02 39.904 237.718 39.9059C237.462 39.903 237.234 39.8562 237.033 39.7625C236.831 39.6688 236.671 39.5332 236.555 39.3527C236.438 39.1721 236.38 38.9584 236.38 38.7096C236.38 38.3008 236.518 38.01 236.795 37.8363C237.072 37.6626 237.427 37.5611 237.86 37.5318C237.977 37.5221 238.108 37.5123 238.254 37.5045C238.4 37.4967 238.541 37.4879 238.681 37.4811C238.771 37.4782 238.86 37.4762 238.95 37.4743L238.957 38.0363C238.84 38.0432 238.752 38.049 238.693 38.0529L238.694 38.0519Z" fill="white"/>
<path d="M241.249 39.8191H240.473V35.8828H241.217V36.5248H241.268C241.363 36.3072 241.509 36.1374 241.707 36.0155C241.906 35.8935 242.149 35.832 242.439 35.832C242.711 35.832 242.947 35.8886 243.148 36.0008C243.349 36.1131 243.504 36.2809 243.614 36.5043C243.724 36.7278 243.78 36.9981 243.78 37.3143V39.8191H243.004V37.405C243.004 37.2196 242.971 37.0576 242.906 36.921C242.84 36.7844 242.745 36.681 242.619 36.6097C242.494 36.5385 242.344 36.5024 242.169 36.5024C241.993 36.5024 241.83 36.5404 241.691 36.6166C241.551 36.6927 241.443 36.8049 241.366 36.9532C241.288 37.1015 241.249 37.2781 241.249 37.484V39.8181V39.8191Z" fill="white"/>
<path d="M246.706 38.0519C246.647 38.0558 246.559 38.0617 246.442 38.0715C246.279 38.0783 246.126 38.089 245.983 38.1007C245.721 38.1193 245.516 38.1807 245.374 38.2822C245.231 38.3837 245.158 38.5291 245.155 38.7174C245.155 38.8404 245.188 38.9448 245.253 39.0307C245.319 39.1165 245.407 39.1809 245.517 39.2248C245.627 39.2687 245.757 39.2892 245.906 39.2863C246.11 39.2863 246.289 39.2453 246.442 39.1653C246.595 39.0843 246.713 38.976 246.795 38.8414C246.879 38.7067 246.919 38.5584 246.919 38.3993L246.915 37.1601C246.915 37.0108 246.885 36.883 246.826 36.7776C246.767 36.6722 246.676 36.5931 246.554 36.5385C246.432 36.4839 246.284 36.4565 246.109 36.4565C245.885 36.4565 245.704 36.5014 245.564 36.5922C245.425 36.6829 245.336 36.8039 245.297 36.9561H244.516C244.541 36.7385 244.623 36.5444 244.763 36.3746C244.902 36.2038 245.089 36.0711 245.326 35.9755C245.563 35.8798 245.831 35.832 246.136 35.832C246.391 35.832 246.634 35.8701 246.867 35.9462C247.1 36.0223 247.295 36.1628 247.452 36.3668C247.61 36.5707 247.688 36.8508 247.688 37.2059V39.8191H246.934V39.2795H246.904C246.817 39.4532 246.675 39.6015 246.477 39.7215C246.28 39.8425 246.032 39.904 245.729 39.9059C245.474 39.903 245.245 39.8562 245.044 39.7625C244.843 39.6688 244.683 39.5332 244.566 39.3527C244.45 39.1721 244.392 38.9584 244.392 38.7096C244.392 38.3008 244.53 38.01 244.807 37.8363C245.084 37.6626 245.439 37.5611 245.872 37.5318C245.988 37.5221 246.12 37.5123 246.265 37.5045C246.412 37.4967 246.553 37.4879 246.692 37.4811C246.782 37.4782 246.872 37.4762 246.962 37.4743L246.969 38.0363C246.852 38.0432 246.764 38.049 246.705 38.0529L246.706 38.0519Z" fill="white"/>
<path d="M249.269 41.2398C249.018 41.1462 248.818 41.0115 248.672 40.8339C248.526 40.6563 248.44 40.4465 248.419 40.2045H249.21C249.246 40.389 249.346 40.5265 249.51 40.6192C249.674 40.7129 249.888 40.7578 250.154 40.7549C250.472 40.7578 250.72 40.6856 250.896 40.5412C251.072 40.3958 251.16 40.1753 251.16 39.8776V39.1058H251.113L251.098 39.1273C251.029 39.2434 250.955 39.3449 250.872 39.4317C250.789 39.5186 250.672 39.5956 250.519 39.662C250.366 39.7283 250.18 39.7615 249.964 39.7615C249.648 39.7615 249.366 39.6854 249.114 39.5332C248.864 39.381 248.667 39.1575 248.522 38.8628C248.376 38.5681 248.305 38.2169 248.305 37.808C248.305 37.3991 248.376 37.0459 248.52 36.7473C248.663 36.4487 248.86 36.2214 249.112 36.0662C249.364 35.9101 249.65 35.832 249.971 35.832C250.18 35.832 250.359 35.8642 250.507 35.9296C250.655 35.995 250.77 36.0711 250.852 36.1579C250.933 36.2448 251.013 36.3492 251.09 36.4692C251.1 36.4839 251.11 36.4995 251.12 36.5161H251.167V35.8818H251.932V39.905C251.932 40.2309 251.856 40.5041 251.703 40.7246C251.549 40.9452 251.338 41.1081 251.07 41.2154C250.801 41.3238 250.491 41.3764 250.142 41.3764C249.811 41.3764 249.521 41.3306 249.269 41.2369L249.269 41.2398ZM250.699 38.9653C250.853 38.8609 250.97 38.7126 251.05 38.5193C251.129 38.3261 251.171 38.0949 251.171 37.8265C251.171 37.5582 251.13 37.324 251.05 37.121C250.969 36.9181 250.852 36.7639 250.699 36.6556C250.544 36.5473 250.357 36.4926 250.135 36.4926C249.913 36.4926 249.722 36.5502 249.566 36.6634C249.41 36.7766 249.293 36.9356 249.215 37.1386C249.135 37.3416 249.096 37.5709 249.096 37.8275C249.096 38.0841 249.136 38.3125 249.216 38.5076C249.297 38.7028 249.415 38.8531 249.568 38.9604C249.722 39.0687 249.911 39.1214 250.135 39.1214C250.359 39.1214 250.544 39.0697 250.699 38.9653Z" fill="white"/>
<path d="M253.434 39.6483C253.15 39.4815 252.931 39.2463 252.778 38.9419C252.624 38.6374 252.548 38.2832 252.548 37.8802C252.548 37.4772 252.624 37.123 252.778 36.8107C252.931 36.4985 253.145 36.2575 253.421 36.0877C253.697 35.9169 254.017 35.832 254.382 35.832C254.7 35.832 254.993 35.9003 255.259 36.0369C255.525 36.1736 255.738 36.3892 255.899 36.6858C256.06 36.9825 256.139 37.3552 256.139 37.808V38.0802H252.986V37.5036H255.377C255.377 37.3074 255.336 37.1308 255.256 36.9727C255.174 36.8137 255.058 36.6907 254.907 36.6009C254.757 36.5112 254.583 36.4673 254.39 36.4673C254.179 36.4673 253.993 36.518 253.833 36.6195C253.673 36.721 253.547 36.8576 253.459 37.0293C253.37 37.2011 253.324 37.3845 253.322 37.5806V38.0305C253.322 38.2891 253.369 38.5106 253.465 38.696C253.56 38.8804 253.69 39.0219 253.858 39.1204C254.026 39.219 254.22 39.2668 254.441 39.2668C254.582 39.2639 254.71 39.2444 254.824 39.2053C254.938 39.1663 255.035 39.1155 255.113 39.0531C255.193 38.9906 255.255 38.9184 255.301 38.8355H256.092C256.031 39.0502 255.926 39.2375 255.777 39.3976C255.628 39.5566 255.438 39.6815 255.209 39.7693C254.979 39.8571 254.722 39.902 254.437 39.902C254.053 39.902 253.719 39.8191 253.434 39.6522V39.6483Z" fill="white"/>
<path d="M256.764 35.8828H257.508V36.5248H257.559C257.642 36.3072 257.777 36.1374 257.963 36.0155C258.15 35.8935 258.374 35.832 258.634 35.832C258.807 35.832 258.963 35.8584 259.103 35.912C259.242 35.9657 259.363 36.0438 259.462 36.1472C259.561 36.2516 259.64 36.3765 259.698 36.5239H259.739C259.804 36.3834 259.895 36.2614 260.008 36.156C260.122 36.0506 260.258 35.9706 260.413 35.915C260.569 35.8594 260.741 35.832 260.93 35.832C261.173 35.832 261.386 35.8828 261.57 35.9843C261.754 36.0857 261.897 36.238 262 36.4409C262.103 36.6439 262.155 36.8917 262.155 37.1845V39.8201H261.375V37.2577C261.372 37.0039 261.303 36.8146 261.167 36.6888C261.031 36.5629 260.854 36.5004 260.635 36.5004C260.47 36.5004 260.327 36.5346 260.21 36.6039C260.092 36.6732 260.001 36.7678 259.938 36.8898C259.875 37.0118 259.842 37.1523 259.84 37.3123V39.821H259.066V37.204C259.066 37.0664 259.037 36.9434 258.979 36.8361C258.921 36.7278 258.836 36.6458 258.726 36.5883C258.616 36.5307 258.489 36.5014 258.349 36.5014C258.208 36.5014 258.069 36.5385 257.946 36.6136C257.824 36.6888 257.725 36.7942 257.651 36.9308C257.577 37.0674 257.54 37.2216 257.54 37.3933V39.822H256.764V35.8857V35.8828Z" fill="white"/>
<path d="M263.658 39.6483C263.373 39.4815 263.154 39.2463 263.001 38.9419C262.848 38.6374 262.771 38.2832 262.771 37.8802C262.771 37.4772 262.848 37.123 263.001 36.8107C263.154 36.4985 263.368 36.2575 263.645 36.0877C263.921 35.9169 264.241 35.832 264.606 35.832C264.924 35.832 265.216 35.9003 265.482 36.0369C265.748 36.1736 265.961 36.3892 266.122 36.6858C266.283 36.9825 266.363 37.3552 266.363 37.808V38.0802H263.209V37.5036H265.601C265.601 37.3074 265.56 37.1308 265.479 36.9727C265.398 36.8137 265.281 36.6907 265.131 36.6009C264.981 36.5112 264.807 36.4673 264.614 36.4673C264.403 36.4673 264.216 36.518 264.056 36.6195C263.896 36.721 263.771 36.8576 263.682 37.0293C263.594 37.2011 263.548 37.3845 263.546 37.5806V38.0305C263.546 38.2891 263.593 38.5106 263.688 38.696C263.783 38.8804 263.914 39.0219 264.082 39.1204C264.25 39.219 264.444 39.2668 264.665 39.2668C264.806 39.2639 264.934 39.2444 265.048 39.2053C265.161 39.1663 265.259 39.1155 265.337 39.0531C265.417 38.9906 265.478 38.9184 265.525 38.8355H266.316C266.255 39.0502 266.15 39.2375 266.001 39.3976C265.851 39.5566 265.662 39.6815 265.431 39.7693C265.202 39.8571 264.944 39.902 264.66 39.902C264.276 39.902 263.941 39.8191 263.657 39.6522L263.658 39.6483Z" fill="white"/>
<path d="M267.764 39.8191H266.987V35.8828H267.731V36.5248H267.782C267.878 36.3072 268.024 36.1374 268.222 36.0155C268.42 35.8935 268.664 35.832 268.953 35.832C269.226 35.832 269.462 35.8886 269.663 36.0008C269.864 36.1131 270.019 36.2809 270.129 36.5043C270.239 36.7278 270.295 36.9981 270.295 37.3143V39.8191H269.519V37.405C269.519 37.2196 269.486 37.0576 269.42 36.921C269.355 36.7844 269.259 36.681 269.134 36.6097C269.008 36.5385 268.859 36.5024 268.683 36.5024C268.508 36.5024 268.345 36.5404 268.205 36.6166C268.066 36.6927 267.958 36.8049 267.88 36.9532C267.803 37.1015 267.764 37.2781 267.764 37.484V39.8181V39.8191Z" fill="white"/>
<path d="M272.941 36.4997H270.774V35.883H272.941V36.4997ZM272.139 34.9414V38.664C272.139 38.8016 272.159 38.909 272.201 38.9851C272.242 39.0612 272.297 39.1139 272.364 39.1431C272.433 39.1724 272.514 39.1871 272.609 39.1871C272.65 39.1871 272.695 39.1871 272.745 39.1831C272.795 39.1802 272.844 39.1792 272.892 39.1792L272.998 39.1724V39.8399C272.855 39.8613 272.695 39.8721 272.518 39.8721C272.307 39.8721 272.112 39.833 271.935 39.754C271.76 39.6749 271.618 39.5569 271.512 39.4007C271.406 39.2436 271.353 39.0504 271.353 38.8211V34.9424H272.138L272.139 34.9414Z" fill="white"/>
</g>
<defs>
<clipPath id="clip0_955_1263">
<rect width="273" height="54" fill="white"/>
</clipPath>
</defs>
</svg>
