<svg width="229" height="26" viewBox="0 0 229 26" fill="none" xmlns="http://www.w3.org/2000/svg">
<g clip-path="url(#clip0_955_1371)">
<path d="M12.0313 0H0V25.7909H3.63218V16.2726H12.0313C16.4477 16.2726 20.0354 12.6213 20.0354 8.13913C20.0354 3.65696 16.4422 0 12.0313 0ZM11.9645 12.8361H3.63218V3.43652H11.9645C14.5176 3.43652 16.5923 5.54478 16.5923 8.13913C16.5923 10.7335 14.5176 12.8417 11.9645 12.8417" fill="white"/>
<path d="M38.5297 0H35.476L24.2068 25.7343L24.1846 25.7909H28.0448L30.6925 19.7487H43.3189L45.9554 25.7683L45.9665 25.7909H49.8268L38.5409 0.0226087L38.5297 0ZM32.083 16.3122L37.0001 5.0813L41.9172 16.3122H32.0775H32.083Z" fill="white"/>
<path d="M215.934 0H206.522V25.7909H215.934C222.931 25.7909 228.627 20.0087 228.627 12.8926C228.627 5.77652 222.931 0 215.934 0ZM215.728 22.083H210.26V3.70783H215.728C220.717 3.70783 224.772 7.82826 224.772 12.8983C224.772 17.9683 220.717 22.0887 215.728 22.0887" fill="white"/>
<path d="M121.041 0H117.409V25.7909H135.114L136.621 22.36H121.041V0Z" fill="white"/>
<path d="M155.189 0H152.135L140.866 25.7343L140.838 25.7909H144.698L147.346 19.7487H159.972L162.609 25.7683L162.62 25.7909H166.48L155.194 0.0226087L155.183 0H155.189ZM148.742 16.3122L153.659 5.0813L158.576 16.3122H148.736H148.742Z" fill="white"/>
<path d="M75.5805 18.997C74.5793 17.437 72.9774 16.4083 71.1974 16.1426C74.9464 15.4643 77.7943 12.1409 77.7943 8.13348C77.7943 3.64 74.2066 0 69.7902 0H57.7589V25.7909H61.3911V16.2726H69.5844L75.6862 25.7909H79.9302L75.575 18.997H75.5805ZM61.3911 12.8361V3.43652H69.7902C72.3433 3.43652 74.418 5.53913 74.418 8.13913C74.418 10.7391 72.3488 12.8417 69.7902 12.8417H61.3911V12.8361Z" fill="white"/>
<path d="M94.1757 13.0113C95.3771 12.7909 96.5007 12.22 97.4018 11.3552L109.211 0H104.332L91.5892 12.2483V0H87.957V25.7909H91.5892V13.78L104.305 25.7909H109.216L97.4129 14.6391C96.5063 13.78 95.3827 13.2204 94.1757 13.0113Z" fill="white"/>
<path d="M192.711 23.2926C192.461 20.9809 191.621 18.7822 190.258 16.8774L178.155 0H174.027V25.7909H177.66V2.63391C177.91 4.94565 178.75 7.1387 180.113 9.04913L192.116 25.7909H196.343V0H192.711V23.2926Z" fill="white"/>
</g>
<defs>
<clipPath id="clip0_955_1371">
<rect width="229" height="26" fill="white"/>
</clipPath>
</defs>
</svg>
