<svg width="189" height="64" viewBox="0 0 189 64" fill="none" xmlns="http://www.w3.org/2000/svg">
<g clip-path="url(#clip0_955_1480)">
<mask id="mask0_955_1480" style="mask-type:luminance" maskUnits="userSpaceOnUse" x="9" y="27" width="33" height="27">
<path d="M9.765 53.9739L27.7397 50.1799C27.7397 50.1799 25.1541 31.4853 41.3995 27.1431C38.3841 27.9472 10.7625 35.7717 9.76172 53.9739M41.4028 27.1431C41.4422 27.1333 41.4783 27.1235 41.5111 27.1136C41.475 27.1235 41.4389 27.1333 41.4028 27.1431ZM41.5111 27.1136C41.5603 27.1005 41.6095 27.0873 41.6588 27.0742C41.6391 27.0808 41.5898 27.0906 41.5111 27.1136ZM41.6588 27.0775H41.6686C41.6653 27.0775 41.662 27.0775 41.6588 27.0775Z" fill="white"/>
</mask>
<g mask="url(#mask0_955_1480)">
<path d="M9.95395 24.6333L7.70898 53.8164L41.4815 56.4157L43.7265 27.2326L9.95395 24.6333Z" fill="url(#paint0_linear_955_1480)"/>
</g>
<mask id="mask1_955_1480" style="mask-type:luminance" maskUnits="userSpaceOnUse" x="0" y="17" width="57" height="16">
<path d="M0.140625 22.3625V22.8417L18.5714 32.5467C18.5714 32.5467 35.0466 19.1592 56.0958 25.999C56.0958 25.999 41.8814 17.8464 23.152 17.8398C15.9595 17.8398 8.11078 19.0411 0.140625 22.3625Z" fill="white"/>
</mask>
<g mask="url(#mask1_955_1480)">
<path d="M0.469642 13.5597L-0.984375 32.4609L55.7644 36.8286L57.2185 17.9273L0.469642 13.5597Z" fill="url(#paint1_linear_955_1480)"/>
</g>
<mask id="mask2_955_1480" style="mask-type:luminance" maskUnits="userSpaceOnUse" x="36" y="0" width="29" height="32">
<path d="M36.4912 0.160156L36.7734 15.7696C36.7734 15.7696 62.1604 19.882 64.3162 31.5497C63.6862 25.4484 59.7946 9.07092 36.4945 0.160156H36.4912Z" fill="white"/>
</mask>
<g mask="url(#mask2_955_1480)">
<path d="M36.6579 -1.96916L34.0938 31.3633L64.153 33.6768L66.7172 0.34434L36.6579 -1.96916Z" fill="white"/>
<path d="M36.6579 -1.96916L34.0938 31.3633L64.153 33.6768L66.7172 0.34434L36.6579 -1.96916Z" fill="url(#paint2_linear_955_1480)"/>
</g>
<mask id="mask3_955_1480" style="mask-type:luminance" maskUnits="userSpaceOnUse" x="32" y="35" width="19" height="29">
<path d="M45.344 63.8051L50.512 55.3276C29.7187 47.3686 34.9129 36.354 35.1754 35.8322C24.8264 56.1908 45.344 63.8084 45.344 63.8084M35.1754 35.8289C35.1754 35.8289 35.1787 35.8158 35.182 35.8125C35.182 35.8125 35.182 35.8191 35.1754 35.8289Z" fill="white"/>
</mask>
<g mask="url(#mask3_955_1480)">
<path d="M24.9803 33.8489L22.6885 63.6406L50.3628 65.7706L52.6546 35.9788L24.9803 33.8489Z" fill="url(#paint3_linear_955_1480)"/>
</g>
<path d="M178.733 47.3071H182.073V40.9859C182.073 40.6708 182.116 40.336 182.204 40.1326C182.424 39.5057 182.972 38.8558 183.897 38.8558C185.105 38.8558 185.59 39.8208 185.59 41.232V47.3071H188.931V40.8054C188.931 37.5758 187.284 36.0956 185.085 36.0956C183.307 36.0956 182.208 37.1492 181.768 37.845H181.702L181.548 36.3418H178.647C178.69 37.3067 178.736 38.4718 178.736 39.8405V47.3071H178.733ZM171.747 38.5178C173.263 38.5178 173.876 40.1785 173.876 41.813C173.876 43.7855 173.043 45.1082 171.747 45.1082C170.32 45.1082 169.548 43.6969 169.548 41.813C169.548 40.1982 170.142 38.5178 171.747 38.5178ZM171.832 36.0956C168.384 36.0956 166.1 38.3603 166.1 41.9016C166.1 45.4429 168.515 47.55 171.658 47.55C174.536 47.55 177.325 45.712 177.325 41.6981C177.325 38.4029 175.127 36.0924 171.832 36.0924M163.025 31.5664C161.949 31.5664 161.247 32.3049 161.267 33.2928C161.244 34.2347 161.949 34.9961 163.002 34.9961C164.056 34.9961 164.804 34.2347 164.804 33.2928C164.781 32.3049 164.102 31.5664 163.025 31.5664ZM164.695 36.3418H161.355V47.3071H164.695V36.3418ZM154.412 33.9656V36.3418H152.985V38.8526H154.412V43.3358C154.412 44.8817 154.72 45.9352 155.334 46.5884C155.862 47.1496 156.761 47.5303 157.838 47.5303C158.783 47.5303 159.573 47.4187 160.013 47.2382L159.99 44.6585C159.747 44.7045 159.419 44.7471 159.002 44.7471C157.992 44.7471 157.683 44.1399 157.683 42.8173V38.8493H160.079V36.3385H157.683V33.2009L154.409 33.9623L154.412 33.9656ZM148.9 43.3161C148.9 43.5164 148.877 43.7198 148.834 43.9004C148.614 44.5961 147.932 45.1574 147.098 45.1574C146.35 45.1574 145.779 44.7307 145.779 43.8577C145.779 42.535 147.141 42.1084 148.9 42.1313V43.3194V43.3161ZM152.305 47.3071C152.197 46.7032 152.151 45.6924 152.151 44.6388V40.8284C152.151 38.2487 151.009 36.0989 147.43 36.0989C145.474 36.0989 144.004 36.6372 143.256 37.0638L143.869 39.2595C144.572 38.8099 145.736 38.4292 146.836 38.4292C148.483 38.4292 148.791 39.2595 148.791 39.8405V39.998C144.992 39.975 142.488 41.3436 142.488 44.1925C142.488 45.9418 143.784 47.5566 145.96 47.5566C147.233 47.5566 148.332 47.0872 149.034 46.2109H149.1L149.297 47.3104H152.305V47.3071ZM131.217 36.3418L135.128 47.3071H138.468L142.468 36.3418H138.954L137.569 41.4323C137.327 42.3742 137.153 43.2046 136.975 44.1006H136.91C136.756 43.2275 136.559 42.3512 136.296 41.4323L134.846 36.3418H131.22H131.217ZM125.57 38.5178C127.086 38.5178 127.699 40.1785 127.699 41.813C127.699 43.7855 126.866 45.1082 125.57 45.1082C124.142 45.1082 123.371 43.6969 123.371 41.813C123.371 40.1982 123.965 38.5178 125.57 38.5178ZM125.658 36.0956C122.21 36.0956 119.926 38.3603 119.926 41.9016C119.926 45.4429 122.344 47.55 125.485 47.55C128.362 47.55 131.151 45.712 131.151 41.6981C131.151 38.4029 128.956 36.0924 125.658 36.0924M108.324 47.3071H111.664V40.9859C111.664 40.6708 111.707 40.336 111.795 40.1326C112.015 39.5057 112.563 38.8558 113.485 38.8558C114.692 38.8558 115.178 39.8208 115.178 41.232V47.3071H118.518V40.8054C118.518 37.5758 116.871 36.0956 114.673 36.0956C112.894 36.0956 111.795 37.1492 111.355 37.845H111.29L111.136 36.3418H108.235C108.278 37.3067 108.324 38.4718 108.324 39.8405V47.3071ZM96.1108 47.3071H99.4511V40.9859C99.4511 40.6708 99.4937 40.336 99.5823 40.1326C99.8022 39.5057 100.35 38.8558 101.275 38.8558C102.483 38.8558 102.969 39.8208 102.969 41.232V47.3071H106.309V40.8054C106.309 37.5758 104.662 36.0956 102.463 36.0956C100.685 36.0956 99.5856 37.1492 99.1459 37.845H99.0803L98.9261 36.3418H96.0255C96.0681 37.3067 96.1141 38.4718 96.1141 39.8405V47.3071H96.1108ZM90.5523 47.3071H93.9123V32.1966H90.5523V47.3071ZM81.3058 41.7014C81.3058 44.0546 80.4264 44.7045 79.022 44.7045C78.3625 44.7045 77.7686 44.5929 77.3092 44.4353L76.9352 47.1923C77.5947 47.4154 78.6053 47.55 79.3731 47.55C82.6248 47.55 84.6461 46.0468 84.6461 41.744V32.1933H81.3058V41.7014ZM75.4848 44.2122C74.8253 44.4813 73.7064 44.7045 72.6958 44.7045C69.7098 44.7045 67.9511 42.7976 67.9511 39.7715C67.9511 36.4074 70.015 34.7697 72.6728 34.7697C73.8606 34.7697 74.8056 35.0388 75.4848 35.3309L76.1641 32.6167C75.5702 32.3016 74.2544 31.9438 72.5186 31.9438C68.0364 31.9438 64.4336 34.8156 64.4336 39.9717C64.4336 44.2778 67.0684 47.527 72.1872 47.527C73.9886 47.527 75.3733 47.1923 75.9869 46.8772L75.4816 44.2089L75.4848 44.2122Z" fill="white"/>
</g>
<defs>
<linearGradient id="paint0_linear_955_1480" x1="45.493" y1="42.7964" x2="-0.86539" y2="39.2302" gradientUnits="userSpaceOnUse">
<stop stop-color="#E6E8EA"/>
<stop offset="1" stop-color="#1E2124"/>
</linearGradient>
<linearGradient id="paint1_linear_955_1480" x1="46.6403" y1="26.3946" x2="0.281864" y2="22.8284" gradientUnits="userSpaceOnUse">
<stop stop-color="#E6E8EA"/>
<stop offset="1" stop-color="#1E2124"/>
</linearGradient>
<linearGradient id="paint2_linear_955_1480" x1="47.3217" y1="15.3053" x2="0.96652" y2="11.7393" gradientUnits="userSpaceOnUse">
<stop stop-color="#E6E8EA"/>
<stop offset="1" stop-color="#1E2124"/>
</linearGradient>
<linearGradient id="paint3_linear_955_1480" x1="44.7182" y1="50.5857" x2="-2.00333" y2="46.9915" gradientUnits="userSpaceOnUse">
<stop stop-color="#E6E8EA"/>
<stop offset="1" stop-color="#1E2124"/>
</linearGradient>
<clipPath id="clip0_955_1480">
<rect width="189" height="64" fill="white"/>
</clipPath>
</defs>
</svg>
