<svg width="92" height="30" viewBox="0 0 92 30" fill="none" xmlns="http://www.w3.org/2000/svg">
<g clip-path="url(#clip0_955_1504)">
<path d="M3.62344 22.832V25.6715H5.06574V22.832H6.44601V29.9177H5.06574V26.9544H3.62344V29.9177H2.24316V22.832H3.62344Z" fill="white"/>
<path d="M9.44852 28.2992L9.13188 29.9177H7.79297L9.32962 22.832H10.9839L12.3629 29.9177H11.0265L10.7215 28.2992H9.44852ZM10.5936 27.2254L10.3635 25.7438C10.2873 25.3114 10.1955 24.608 10.1309 24.1343H10.0973C10.0262 24.6067 9.92024 25.3424 9.84658 25.7528L9.58293 27.2254H10.5936Z" fill="white"/>
<path d="M13.7969 29.9138V22.8281H15.0582L16.1529 25.6056C16.3623 26.149 16.7125 27.055 16.9102 27.6771H16.9322C16.8909 26.9285 16.7965 25.6985 16.7965 24.395V22.8281H18.0075V29.9138H16.7448L15.6592 27.2215C15.4292 26.6227 15.1022 25.7295 14.9419 25.0868H14.9213C14.9536 25.8005 15.0053 26.8976 15.0053 28.3263V29.9125H13.7969V29.9138Z" fill="white"/>
<path d="M20.6677 29.9151V27.2022L19.1104 22.8281H20.5863L21.0683 24.5202C21.195 24.9719 21.332 25.4985 21.4392 26.0251H21.4599C21.5413 25.5088 21.6589 24.9951 21.7843 24.4905L22.2069 22.8281H23.6363L22.0467 27.1492V29.9138H20.6677V29.9151Z" fill="white"/>
<path d="M25.5641 28.2992L25.2488 29.9177H23.9111L25.4491 22.832H27.0995L28.481 29.9177H27.1447L26.8384 28.2992H25.5641ZM26.7117 27.2254L26.4791 25.7438C26.408 25.3114 26.3111 24.608 26.2478 24.1343H26.218C26.1444 24.6067 26.0384 25.3424 25.9647 25.7528L25.7011 27.2254H26.7104H26.7117Z" fill="white"/>
<path d="M29.9131 29.9177V22.832H31.1757L32.2704 25.6095C32.4811 26.1529 32.8274 27.0589 33.029 27.681H33.0497C33.0084 26.9324 32.9114 25.7024 32.9114 24.3989V22.832H34.1211V29.9177H32.8597L31.7754 27.2254C31.5428 26.6266 31.2171 25.7334 31.0594 25.0907H31.0388C31.0698 25.8044 31.1228 26.9015 31.1228 28.3302V29.9164H29.9131V29.9177Z" fill="white"/>
<path d="M39.9359 29.7262C39.6322 29.8539 38.9782 29.9778 38.4639 29.9778C37.6535 29.9778 37.0422 29.7481 36.5692 29.2744C35.9579 28.6885 35.6297 27.6353 35.6503 26.4156C35.6852 23.8382 37.156 22.7695 38.6616 22.7695C39.2005 22.7695 39.5986 22.8728 39.8222 22.9786L39.5779 24.166C39.3802 24.0705 39.1165 24.0086 38.7676 24.0086C37.8293 24.0086 37.0836 24.6487 37.0836 26.5008C37.0836 28.2045 37.7479 28.815 38.3889 28.815C38.5156 28.815 38.6099 28.8072 38.6629 28.7827V27.0687H38.0309V25.942H39.9372V29.7275L39.9359 29.7262Z" fill="white"/>
<path d="M45.2852 22.8294V27.4345C45.2852 28.4735 45.6006 28.7922 45.9611 28.7922C46.3618 28.7922 46.6448 28.5083 46.6448 27.4345V22.8294H48.0225V27.1931C48.0225 29.0104 47.3401 29.9977 45.9702 29.9977C44.4852 29.9977 43.9062 28.9794 43.9062 27.2022V22.8281H45.2865L45.2852 22.8294Z" fill="white"/>
<path d="M49.8652 29.9177V22.832H51.1305L52.2238 25.6095C52.4332 26.1529 52.7809 27.0589 52.9825 27.681H53.0006C52.9579 26.9324 52.8636 25.7024 52.8636 24.3989V22.832H54.0745V29.9177H52.8119L51.7289 27.2254C51.4962 26.6266 51.1693 25.7334 51.0116 25.0907H50.9883C51.0206 25.8044 51.0749 26.9015 51.0749 28.3302V29.9164H49.8652V29.9177Z" fill="white"/>
<path d="M57.3308 22.8281V29.9138H55.9492V22.8281H57.3308Z" fill="white"/>
<path d="M60.2029 29.9177L58.6133 22.832H60.1409L60.6462 25.8922C60.7729 26.6485 60.9202 27.521 61.0132 28.3522H61.0339C61.1283 27.5107 61.2446 26.6601 61.3725 25.8599L61.8546 22.832H63.3731L61.7486 29.9177H60.2029Z" fill="white"/>
<path d="M67.625 26.806H66.003V28.7187H67.8382V29.9177H64.624V22.832H67.7115V24.0336H66.003V25.6612H67.625V26.8073V26.806Z" fill="white"/>
<path d="M69.4238 22.9363C69.8581 22.8524 70.4035 22.8008 70.9295 22.8008C71.6894 22.8008 72.364 22.904 72.8241 23.3261C73.2583 23.7133 73.385 24.1882 73.385 24.7974C73.385 25.5538 73.0141 26.2365 72.2891 26.5747V26.594C72.7737 26.7837 73.0141 27.2381 73.1537 27.9931C73.2894 28.7817 73.4806 29.6555 73.6073 29.9162H72.1663C72.081 29.7161 71.922 29.0024 71.816 28.2241C71.6894 27.3413 71.471 27.0883 71.007 27.0883H70.8067V29.9149H69.4251V22.9337L69.4238 22.9363ZM70.8054 26.0287H71.0484C71.6467 26.0287 71.9931 25.5434 71.9931 24.9226C71.9931 24.3018 71.7514 23.8927 71.1324 23.8707C71.0135 23.8707 70.8791 23.8811 70.8041 23.9133V26.0287H70.8054Z" fill="white"/>
<path d="M74.8703 28.5091C75.1546 28.6652 75.6379 28.7814 76.036 28.7814C76.6912 28.7814 77.004 28.4445 77.004 27.9825C77.004 27.4675 76.6912 27.2171 76.0916 26.8261C75.121 26.2362 74.7539 25.4902 74.7539 24.8501C74.7539 23.713 75.5113 22.7695 76.9949 22.7695C77.4602 22.7695 77.8996 22.8934 78.1116 23.0199L77.8906 24.2099C77.6928 24.0821 77.384 23.966 76.9859 23.966C76.3966 23.966 76.1097 24.3248 76.1097 24.7042C76.1097 25.1224 76.3203 25.3431 77.0906 25.8064C78.0263 26.3756 78.3739 27.0906 78.3739 27.8354C78.3739 29.1312 77.4163 29.9804 76.0269 29.9804C75.4596 29.9804 74.8974 29.8359 74.6699 29.6978L74.8703 28.5117V28.5091Z" fill="white"/>
<path d="M81.2052 22.8281V29.9138H79.8301V22.8281H81.2052Z" fill="white"/>
<path d="M83.8578 24.0981H82.6055V22.8281H86.502V24.0981H85.2394V29.9138H83.8578V24.0981Z" fill="white"/>
<path d="M89.0293 29.9151V27.2022L87.4707 22.8281H88.9453L89.43 24.5202C89.5566 24.9719 89.6923 25.4985 89.797 26.0251H89.8177C89.9017 25.5088 90.018 24.9951 90.1434 24.4905L90.5647 22.8281H91.9992L90.4096 27.1492V29.9138H89.0306L89.0293 29.9151Z" fill="white"/>
<path d="M14.9232 0.623387H12.2208V14.1533H14.9232V6.83015H17.5855V5.25297H14.9232V0.623387ZM5.96696 12.5761H3.26199V19.4824H15.2411V17.8846H5.96696V12.5761ZM88.3309 15.1329H90.8756V0.601446H77.7799V2.20057H88.3309V15.1329ZM24.6459 0.214249C17.9435 0.214249 17.9435 9.99355 24.6459 9.99355C31.3482 9.99355 31.3314 0.214249 24.6459 0.214249ZM24.6459 1.72044C27.9169 1.72044 27.9169 8.50413 24.6459 8.50413C21.3748 8.50413 21.3567 1.72044 24.6459 1.72044ZM8.37339 3.11693H10.8212V1.5191H6.76307V0H4.05681V1.52039H0V3.11822H2.44262C-0.550558 5.42592 0.436828 11.2068 5.41253 11.2068C10.3882 11.2068 11.3549 5.42463 8.37468 3.11822L8.37339 3.11693ZM5.41123 3.59319C8.48195 3.59319 8.48195 9.7935 5.41123 9.7935C2.34052 9.7935 2.31596 3.59319 5.41123 3.59319ZM60.4153 14.1533H69.8653V19.4837H72.5689V12.5774H60.4153V14.1533ZM72.5689 0.623387H69.8653V11.7037H72.5689V6.82886H75.2313V5.25168H72.5689V0.623387ZM66.0204 3.11693H68.4682V1.5191H64.4088V0H61.7012V1.52039H57.6483V3.11822H60.0909C57.0939 5.42592 58.0825 11.2068 63.0621 11.2068C68.0417 11.2068 68.9981 5.42463 66.0217 3.11822L66.0204 3.11693ZM63.0544 3.59319C66.1277 3.59319 66.1277 9.7935 63.0544 9.7935C59.9811 9.7935 59.9591 3.59319 63.0544 3.59319ZM29.0374 10.7886C22.1335 10.7886 22.1102 20.1316 29.0374 20.1316C35.9646 20.1316 35.9207 10.7886 29.0374 10.7886ZM29.0374 18.6332C25.6578 18.6332 25.6578 12.2393 29.0374 12.2393C32.417 12.2393 32.395 18.6332 29.0374 18.6332ZM86.6469 16.6301V8.44605H84.1487V16.6301H82.3562V8.44605H79.8554V16.6301H77.122V18.2292H91.9315V16.6301H86.6469ZM33.9717 0.641456H31.2513V10.7112H33.9717V8.06273H36.6379V6.46102H33.9717V4.17785H36.6379V2.59938H33.9717V0.641456ZM51.7925 6.46102H50.5376V0.623387H47.9916V11.381H42.9383V2.2238H46.6669V0.623387H40.2334V12.9827H47.9916V19.5031H50.5376V8.06402H51.7925V19.5031H54.3359V0.623387H51.7925V6.46102Z" fill="white"/>
</g>
<defs>
<clipPath id="clip0_955_1504">
<rect width="92" height="30" fill="white"/>
</clipPath>
</defs>
</svg>
