<svg width="130" height="40" viewBox="0 0 130 40" fill="none" xmlns="http://www.w3.org/2000/svg">
<g clip-path="url(#clip0_955_1257)">
<path d="M63.6968 2.75681H67.0256V13.2673C67.0256 15.1187 66.462 16.5411 65.2923 17.488C64.0138 18.4319 62.4634 18.9417 60.8707 18.9417C59.278 18.9417 57.7276 18.4319 56.4492 17.488C55.2794 16.5411 54.7158 15.1187 54.7158 13.2673V2.75681H58.0528V13.2673C58.0528 14.3431 58.3143 15.0805 58.8333 15.5499C59.4281 16.0101 60.1605 16.26 60.9143 16.26C61.6682 16.26 62.4005 16.0101 62.9953 15.5499C63.5143 15.0764 63.7312 14.3008 63.7312 13.2673L63.6968 2.75681ZM74.3604 9.17551C73.9508 9.15433 73.5434 9.24815 73.1849 9.44624C72.8264 9.64433 72.5312 9.93869 72.3331 10.2957V18.6948H69.1138V6.84858H72.1061L72.1932 8.18429C72.6012 7.67369 73.1227 7.26404 73.7168 6.98753C74.3109 6.71102 74.9615 6.57519 75.6173 6.5907C76.116 6.56654 76.6146 6.64179 77.0835 6.81202C77.5525 6.98225 77.9825 7.24402 78.3481 7.58191C79.0415 8.27092 79.3881 9.43338 79.3881 11.1136V18.6525H76.1809V11.1559C76.1809 10.3803 76.0066 9.86452 75.7025 9.60463C75.5194 9.44705 75.3061 9.32781 75.0755 9.25408C74.8449 9.18034 74.6017 9.15362 74.3604 9.17551ZM81.5553 3.79033C81.5545 3.35573 81.7256 2.93822 82.0317 2.62787C82.4009 2.33443 82.8595 2.17457 83.3323 2.17457C83.805 2.17457 84.2636 2.33443 84.6328 2.62787C84.7922 2.77573 84.9174 2.95627 84.9997 3.157C85.082 3.35772 85.1193 3.57383 85.1092 3.79033C85.11 4.22492 84.9389 4.64243 84.6328 4.95278C84.2636 5.24622 83.805 5.40608 83.3323 5.40608C82.8595 5.40608 82.4009 5.24622 82.0317 4.95278C81.7256 4.64243 81.5545 4.22492 81.5553 3.79033ZM84.9794 6.84858V18.6948H81.7722V6.84858H84.9794ZM93.259 18.6525C92.6448 18.8592 91.9997 18.9607 91.3513 18.9526C90.4419 18.9873 89.5501 18.6972 88.8374 18.1347C88.2306 17.6163 87.9271 16.7117 87.9271 15.4209V9.17551H86.1492V6.84858H87.9271V3.91926H91.1343V6.84858H93.1779V9.17551H91.1343V15.1187C91.107 15.2961 91.1202 15.4772 91.1728 15.6488C91.2255 15.8203 91.3162 15.9779 91.4384 16.11C91.711 16.2802 92.0268 16.3696 92.3487 16.3678C92.5228 16.3748 92.6971 16.3606 92.8677 16.3255C93.042 16.3255 93.1718 16.2832 93.259 16.2832V18.6525ZM104.788 16.799C104.327 17.4091 103.735 17.9095 103.055 18.2636C102.157 18.7237 101.16 18.9601 100.15 18.9526C98.2867 18.9526 96.8128 18.3926 95.7728 17.2724C94.7355 16.18 94.1745 14.7245 94.2118 13.223V12.7938C94.1343 11.1902 94.6776 9.61786 95.7302 8.39986C96.233 7.82437 96.8611 7.37018 97.5667 7.07173C98.2724 6.77328 99.0372 6.63841 99.8031 6.67733C101.538 6.67733 102.844 7.19308 103.706 8.27092C104.567 9.34877 105.048 10.7691 105.048 12.4916V13.8274H97.4636C97.5394 14.5314 97.8615 15.1867 98.3739 15.6788C98.6437 15.9189 98.9588 16.1034 99.3008 16.2217C99.6429 16.34 100.005 16.3896 100.367 16.3678C100.918 16.3991 101.468 16.2933 101.967 16.0601C102.467 15.8269 102.9 15.4736 103.227 15.0321L104.788 16.799ZM99.7605 9.17551C99.4635 9.15507 99.166 9.20718 98.8939 9.32728C98.6218 9.44738 98.3834 9.63182 98.1995 9.86452C97.8064 10.3806 97.553 10.9882 97.4636 11.6294H101.895V11.3715C101.896 10.7989 101.713 10.241 101.374 9.77789C101.169 9.56229 100.917 9.39599 100.637 9.29161C100.358 9.18724 100.058 9.14753 99.7605 9.17551ZM113.935 18.7371L113.761 17.488C113.411 17.9357 112.968 18.3033 112.462 18.5658C111.579 18.9725 110.582 19.0617 109.641 18.818C108.699 18.5743 107.873 18.013 107.302 17.2301C106.437 15.9636 106.01 14.4517 106.086 12.9228V12.7072C106.086 10.894 106.475 9.43338 107.302 8.31323C107.692 7.76626 108.214 7.32563 108.82 7.03198C109.426 6.73833 110.097 6.60112 110.771 6.63301C111.317 6.60781 111.861 6.71195 112.358 6.93683C112.855 7.16172 113.292 7.50091 113.631 7.92642V1.89453H116.839V18.7371H113.935ZM109.252 12.9228C109.207 13.7603 109.386 14.5949 109.773 15.3404C109.937 15.6627 110.193 15.9292 110.51 16.1057C110.827 16.2823 111.189 16.361 111.551 16.3316C111.979 16.3515 112.402 16.2479 112.772 16.0334C113.141 15.8188 113.439 15.5025 113.631 15.1228V10.4286C113.451 10.037 113.156 9.70841 112.785 9.48563C112.414 9.26285 111.984 9.15619 111.551 9.17954C111.185 9.1574 110.821 9.24381 110.504 9.42782C110.188 9.61183 109.933 9.88513 109.773 10.2131C109.387 10.9875 109.207 11.8479 109.252 12.7112V12.9228ZM67.8953 21.8396V37.8199H64.607L58.148 27.2671V37.8199H54.8111V21.8396H58.148L64.607 32.3924V21.8396H67.8953ZM77.2209 37.8199C77.0538 37.483 76.9507 37.1182 76.9169 36.7441C76.5812 37.1286 76.1664 37.4371 75.7005 37.6487C74.9394 37.9838 74.1003 38.1046 73.2747 37.998C72.4492 37.8915 71.6691 37.5615 71.0194 37.0443C70.6447 36.7343 70.3451 36.3444 70.143 35.9035C69.9408 35.4626 69.8412 34.9821 69.8517 34.4977C69.8289 33.9407 69.9433 33.3866 70.185 32.8835C70.4266 32.3804 70.7882 31.9435 71.2384 31.6107C72.1486 30.9217 73.5353 30.5772 75.3558 30.5772H76.7871V29.8882C76.8171 29.4045 76.6621 28.9275 76.3533 28.5525C76.1781 28.3801 75.9668 28.2483 75.7345 28.1665C75.5021 28.0846 75.2544 28.0548 75.0092 28.079C73.882 28.079 73.3184 28.5532 73.3184 29.5014H70.1112C70.1204 28.9819 70.2504 28.4716 70.4909 28.0102C70.7315 27.5489 71.0761 27.1491 71.4979 26.842C72.5684 26.0747 73.8642 25.6809 75.1835 25.7219C76.4095 25.6727 77.6162 26.037 78.6076 26.7554C79.5179 27.4444 79.9517 28.4779 79.9517 29.9003V34.9007C79.9516 35.4492 79.995 35.9969 80.0815 36.5386C80.1508 36.9103 80.2673 37.2718 80.4281 37.6144V37.83L77.2209 37.8199ZM74.5854 35.6239C75.0689 35.6173 75.5443 35.4994 75.9742 35.2794C76.3072 35.0903 76.5895 34.8242 76.7972 34.5038V32.4347H75.4957C74.833 32.3865 74.1741 32.5697 73.6326 32.9525C73.4453 33.1134 73.2943 33.3117 73.1895 33.5346C73.0847 33.7575 73.0284 33.9999 73.0244 34.2459C73.0194 34.4283 73.0513 34.6098 73.1182 34.7797C73.185 34.9496 73.2855 35.1045 73.4137 35.2351C73.7522 35.4848 74.1619 35.6209 74.5834 35.6239H74.5854ZM88.1542 37.7333C87.8706 37.8259 87.5806 37.898 87.2865 37.9489C86.9421 37.9997 86.5947 38.0286 86.2465 38.0355C85.3372 38.0693 84.4457 37.7792 83.7326 37.2175C83.1258 36.6991 82.8224 35.7945 82.8224 34.5038V28.2523H81.0343V25.9314H82.8123V23.0021H86.0194V25.9314H88.0468V28.2523H86.0194V34.1955C85.9921 34.3729 86.0053 34.554 86.0579 34.7256C86.1106 34.8971 86.2013 35.0547 86.3235 35.1868C86.5965 35.3561 86.912 35.4454 87.2338 35.4446C87.4079 35.4516 87.5822 35.4374 87.7528 35.4023C87.9271 35.4023 88.0569 35.358 88.1441 35.358L88.1542 37.7333ZM89.4983 22.8732C89.4975 22.4386 89.6686 22.0211 89.9747 21.7107C90.3439 21.4173 90.8025 21.2574 91.2752 21.2574C91.748 21.2574 92.2066 21.4173 92.5758 21.7107C92.8878 22.0271 93.0626 22.4524 93.0626 22.8953C93.0626 23.3383 92.8878 23.7636 92.5758 24.0799C92.2061 24.3723 91.7477 24.5316 91.2752 24.5316C90.8028 24.5316 90.3443 24.3723 89.9747 24.0799C89.8075 23.9281 89.677 23.7407 89.5927 23.5318C89.5085 23.3229 89.4728 23.0977 89.4882 22.8732H89.4983ZM92.8778 25.9314V37.8179H89.6605V25.9314H92.8778ZM94.7024 32.0056V31.79C94.6594 30.2253 95.1824 28.6971 96.1763 27.4827C97.1737 26.3182 98.5604 25.7582 100.338 25.7582C102.163 25.7582 103.546 26.3182 104.543 27.4827C105.538 28.6966 106.061 30.2252 106.017 31.79V32.0056C106.056 33.5712 105.529 35.0989 104.531 36.3109C103.533 37.4734 102.147 38.0335 100.369 38.0335C98.5441 38.0335 97.1615 37.4734 96.1641 36.3109C95.1708 35.0962 94.648 33.5682 94.6902 32.0036L94.7024 32.0056ZM97.9116 31.7457V31.9613C97.8746 32.8153 98.0693 33.6635 98.4752 34.4172C98.6831 34.731 98.9661 34.9885 99.2989 35.1668C99.6317 35.345 100.004 35.4383 100.382 35.4383C100.76 35.4383 101.132 35.345 101.465 35.1668C101.798 34.9885 102.081 34.731 102.289 34.4172C102.669 33.6543 102.862 32.8127 102.852 31.9613V31.7457C102.883 30.8929 102.689 30.047 102.289 29.2919C102.108 28.9524 101.831 28.6733 101.491 28.4895C101.152 28.3057 100.766 28.2253 100.381 28.2583C99.9975 28.2346 99.6152 28.319 99.278 28.5019C98.9408 28.6847 98.6625 28.9586 98.4752 29.2919C98.0787 30.0482 97.8846 30.8933 97.9116 31.7457ZM112.843 28.3007C112.428 28.2795 112.016 28.3778 111.657 28.5837C111.297 28.7895 111.005 29.0942 110.815 29.4611V37.8179H107.606V25.9314H110.596L110.726 27.3094C111.132 26.7959 111.653 26.3842 112.248 26.1075C112.844 25.8307 113.496 25.6966 114.152 25.7158C114.658 25.6888 115.164 25.7626 115.64 25.9328C116.116 26.1031 116.553 26.3663 116.926 26.7071C117.619 27.3961 117.966 28.5585 117.966 30.2388V37.8199H114.759V30.2388C114.759 29.4631 114.584 28.9474 114.282 28.6875C113.865 28.3976 113.359 28.2609 112.851 28.3007H112.843ZM126.549 34.4977C126.552 34.3251 126.509 34.1549 126.425 34.0037C126.341 33.8525 126.219 33.7256 126.071 33.6355C125.468 33.2992 124.806 33.0797 124.121 32.9888C123.037 32.7879 122.004 32.3772 121.08 31.78C120.69 31.5216 120.373 31.168 120.16 30.7532C119.947 30.3383 119.845 29.8761 119.863 29.4107C119.87 28.9148 119.986 28.4264 120.203 27.9799C120.421 27.5333 120.734 27.1395 121.12 26.8259C121.988 26.0926 123.113 25.7058 124.632 25.7058C126.15 25.7058 127.405 26.0503 128.315 26.7836C128.742 27.1078 129.087 27.5268 129.322 28.0071C129.557 28.4874 129.676 29.0157 129.669 29.5497H126.462C126.47 29.3436 126.436 29.138 126.361 28.9454C126.286 28.7529 126.173 28.5774 126.028 28.4296C125.638 28.1158 125.142 27.9616 124.642 27.9985C124.195 27.9646 123.751 28.0864 123.385 28.343C123.252 28.4541 123.144 28.5924 123.069 28.7485C122.994 28.9045 122.954 29.0747 122.951 29.2475C122.948 29.42 122.991 29.5902 123.074 29.7414C123.158 29.8926 123.279 30.0196 123.427 30.1098C123.964 30.4047 124.552 30.5948 125.161 30.6699C126.287 30.882 127.371 31.2746 128.37 31.8324C129.236 32.3501 129.669 33.2104 129.669 34.3749C129.665 34.8802 129.541 35.3775 129.307 35.8265C129.074 36.2755 128.738 36.6637 128.325 36.9597C127.415 37.6487 126.203 37.9932 124.642 37.9932C122.993 37.9932 121.694 37.562 120.826 36.6998C120.425 36.3645 120.099 35.9502 119.868 35.4831C119.636 35.0159 119.505 34.5062 119.482 33.986H122.523C122.524 34.2473 122.588 34.5046 122.708 34.7368C122.829 34.969 123.003 35.1694 123.216 35.3217C123.67 35.6049 124.201 35.7401 124.735 35.7086C125.905 35.7952 126.559 35.364 126.559 34.4998L126.549 34.4977Z" fill="white"/>
<path d="M37.7757 36.1365C36.5246 36.7445 35.1026 36.9114 33.7434 36.61C32.819 36.4004 31.9188 36.0966 31.0572 35.7034L29.1495 34.9298C27.4902 34.4131 25.7185 34.3677 24.0346 34.7988H23.8603C22.1816 34.3245 20.3973 34.3701 18.7454 34.9298C18.0966 35.1453 17.4884 35.4455 16.8397 35.7034C15.9755 36.1026 15.0755 36.4203 14.1515 36.6523C12.7928 36.9501 11.3727 36.7832 10.1212 36.1788L9.94687 36.0922C9.9043 36.0922 9.9043 36.0922 9.9043 36.1345C10.7368 36.9881 11.7884 37.5991 12.9453 37.9014C13.7218 38.1083 14.5309 38.1664 15.3294 38.0726C16.5424 37.9097 17.7003 37.4675 18.7109 36.7812L20.5355 35.5724C21.2151 35.1379 22.0389 34.9853 22.8304 35.1473C23.2642 35.1897 22.9176 35.4052 22.875 35.4475C21.7823 35.97 20.7481 36.6055 19.7894 37.3433C19.1387 37.8168 17.9649 38.9369 17.9649 38.9369L18.8305 39.6703L19.7854 38.6347C20.9571 37.4271 22.3006 36.3967 23.7731 35.5765C23.8295 35.5352 23.8977 35.513 23.9677 35.513C24.0377 35.513 24.1059 35.5352 24.1623 35.5765C25.6348 36.3967 26.9784 37.4271 28.1501 38.6347L29.1049 39.6703L29.9706 38.9369L28.146 37.3433C27.1899 36.606 26.1584 35.9705 25.0685 35.4475C24.9814 35.4052 24.6793 35.1897 25.1131 35.1473C25.9058 34.9862 26.7304 35.1403 27.4101 35.5765L29.2347 36.7853C30.2445 37.4715 31.4018 37.9137 32.6142 38.0767C33.4126 38.1705 34.2217 38.1124 34.9983 37.9054C36.1405 37.5688 37.1838 36.9626 38.0392 36.1386C38.0157 36.1152 37.985 36.1004 37.9521 36.0962L37.7798 36.1386M42.027 32.3913C41.4773 32.8081 40.8603 33.1289 40.2024 33.3402C39.2729 33.6117 38.3106 33.7561 37.3419 33.7693C36.0947 33.8059 34.8503 33.9068 33.6136 34.0715C33.5265 34.0715 33.4839 34.0715 33.5265 34.0292C34.606 33.5898 35.4761 32.7575 35.9592 31.7023L37.1756 29.2464V29.1618C37.0905 29.2041 35.8761 30.2376 35.3125 30.7554L33.2852 32.7358C32.3697 33.5143 31.2873 34.0745 30.1206 34.3737H30.078L30.0354 34.416L32.3587 34.9741C33.3618 35.2683 34.3933 35.456 35.4362 35.5342C36.7265 35.6601 38.0272 35.4387 39.2018 34.8932C40.3764 34.3477 41.3816 33.4981 42.1121 32.4336C42.1121 32.3893 42.0695 32.3893 42.0249 32.3893M45.8403 26.6173C45.2231 27.3589 44.4917 27.9988 43.6731 28.5131C42.975 28.983 42.2346 29.3877 41.4613 29.7219C40.477 30.1172 39.5568 30.6548 38.7306 31.3175L38.5582 31.4464C38.5136 31.4464 38.5136 31.4464 38.5136 31.4021C38.5136 31.3578 39.8152 30.0684 40.2044 27.3546C40.2612 26.3813 40.4064 25.415 40.6383 24.4676V24.381C39.7384 25.4897 39.035 26.7426 38.5582 28.086L37.7777 30.2819C37.4651 31.2714 36.9147 32.1703 36.1741 32.901L36.087 32.9856V33.0299C36.1741 33.0299 36.2593 32.9856 36.3464 32.9856L38.8603 32.4699C40.2418 32.2487 41.55 31.7023 42.6757 30.8763C43.8302 30.0471 44.7669 28.9539 45.4065 27.6891C45.5691 27.3516 45.7139 27.006 45.8403 26.6535C45.9255 26.5689 45.8829 26.5689 45.8403 26.6112M47.4865 20.1502C47.0861 21.3296 46.4021 22.3939 45.4937 23.2508C44.4605 24.2528 43.5043 25.3303 42.6331 26.4742C42.6331 26.5165 42.5459 26.4742 42.5885 26.4319C42.9363 25.2433 43.0247 23.9946 42.848 22.7693C42.6757 21.7358 42.2398 20.6156 42.1121 19.3665L42.0695 19.3242C42.0695 19.3665 42.0249 19.4088 42.0249 19.4532C41.7644 20.2655 41.5904 21.1028 41.5059 21.9513C41.4613 22.9849 41.6357 24.3206 41.5485 25.3541C41.4613 26.5629 41.3742 27.81 40.8126 28.8858V28.9724L43.4116 27.3788C44.4822 26.7068 45.4105 25.8336 46.1444 24.8081C47.083 23.4857 47.5795 21.9034 47.5635 20.2852V20.1119C47.5304 20.117 47.4999 20.1326 47.4764 20.1563" fill="white"/>
<path d="M44.7116 20.8458C44.7191 20.5007 44.7042 20.1555 44.667 19.8123C44.5819 18.6035 43.8439 17.6143 43.1932 16.5888C42.7532 15.929 42.3623 15.2381 42.0234 14.5218C41.9999 14.4985 41.9692 14.4836 41.9362 14.4795C41.9327 14.71 41.9476 14.9404 41.9809 15.1685C42.1993 16.91 42.6359 18.6175 43.2804 20.2515C43.6592 21.2664 43.8067 22.3522 43.7122 23.4306C43.7122 23.5172 43.7122 23.5172 43.7547 23.5595C44.146 22.9995 44.9265 22.2238 45.4029 21.6214C45.8794 21.0191 48.4804 18.0897 47.2275 14.0403C47.1744 13.8603 47.1017 13.6867 47.0106 13.5225L46.968 13.5668C46.968 16.4941 45.5367 17.7452 44.9732 19.7256C44.8638 20.0934 44.7772 20.4675 44.7137 20.8458M44.7562 14.8159L44.4967 14.1249L44.3204 13.7441C43.8856 12.9598 43.2786 12.2829 42.5444 11.7637C41.9462 11.2635 41.4208 10.6831 40.9834 10.0392H40.8537C40.8962 10.1681 41.2875 11.4615 41.547 12.0639C41.9753 12.8968 42.4991 13.6776 43.108 14.3908L43.2378 14.5621C43.968 15.5418 44.5386 16.6296 44.9286 17.7855C44.9286 17.7968 44.933 17.8075 44.941 17.8154C44.949 17.8234 44.9598 17.8278 44.9711 17.8278L45.7091 15.5875C45.9716 14.7946 46.1882 13.9875 46.3578 13.1699C46.6193 11.2318 46.0111 8.77598 44.884 7.39795C44.8605 7.42134 44.8455 7.45181 44.8414 7.48458L44.884 7.65583L44.9711 7.91572C45.2021 8.96432 45.2166 10.0486 45.0137 11.1029C44.8549 11.9402 44.7829 12.7915 44.7988 13.6434C44.7988 13.7723 44.884 14.8522 44.884 14.8925C44.884 14.9328 44.8414 14.8925 44.7988 14.8925M41.2794 4.00325C41.6403 4.34079 41.9214 4.75362 42.1025 5.21204C42.4066 5.94337 42.4917 7.02524 42.7107 7.8311L43.102 9.25143C43.102 9.29576 43.0574 9.33807 43.0148 9.29576C42.3569 8.51684 41.563 7.86233 40.6712 7.3637C40.0892 7.01245 39.5756 6.56 39.1548 6.02798L38.9379 5.72578C38.9322 5.71999 38.9254 5.7154 38.9179 5.71225C38.9104 5.70911 38.9024 5.70749 38.8943 5.70749C38.8862 5.70749 38.8781 5.70911 38.8706 5.71225C38.8631 5.7154 38.8564 5.71999 38.8507 5.72578V5.85472C39.058 6.8203 39.5221 7.71293 40.1948 8.43953C40.7584 8.95729 41.3646 9.43074 41.9281 9.90418C42.6753 10.5382 43.3714 11.2294 44.0102 11.9712C44.0102 11.9712 44.0528 12.0155 44.0528 11.9712V11.2822L44.0953 9.21517V8.52616C44.098 7.81946 43.9681 7.11847 43.7122 6.45912C43.2794 5.39955 42.4799 4.52854 41.4578 4.00325C41.4152 3.96094 41.3281 3.96094 41.2409 3.91662C41.244 3.95012 41.26 3.98114 41.2855 4.00325M36.8254 1.98859C37.4289 2.56012 37.9674 3.19587 38.431 3.88438C38.85 4.56681 39.3601 5.18964 39.9475 5.73586C40.3367 6.12468 41.5085 7.02927 41.8106 7.28714C41.768 6.94264 41.2024 4.48677 39.688 3.27999C38.8091 2.58211 37.7881 2.08236 36.6957 1.81533V1.90196L36.8254 1.98859ZM12.5484 35.5347C13.5607 35.4562 14.5613 35.2684 15.5326 34.9746L17.8742 34.4145H17.9167C17.9167 34.409 17.9156 34.4035 17.9135 34.3983C17.9114 34.3932 17.9082 34.3885 17.9043 34.3846C17.9003 34.3807 17.8956 34.3776 17.8904 34.3754C17.8853 34.3733 17.8797 34.3722 17.8742 34.3722H17.8296C16.6538 34.0634 15.5595 33.5045 14.6224 32.7343L12.5951 30.7962L10.732 29.2026V29.2892C10.9043 29.5471 11.555 30.9695 11.9483 31.7431C12.4178 32.8079 13.2925 33.6445 14.3811 34.07C14.4237 34.1123 14.3811 34.1123 14.2939 34.1123C13.0574 33.9465 11.8129 33.8463 10.5657 33.8121C9.59693 33.7983 8.63456 33.6532 7.70519 33.381C7.04746 33.1693 6.43055 32.8485 5.88062 32.4321H5.79344C6.65534 33.6401 7.85715 34.568 9.24797 35.0995C10.312 35.4349 11.4272 35.5809 12.5423 35.5306M11.5449 32.9881C11.6321 32.9881 11.6747 33.0325 11.8044 33.0325V32.9881L11.7193 32.9035C10.9925 32.1621 10.4442 31.2667 10.1157 30.2845L9.33514 28.0885C8.85769 26.7451 8.15363 25.4922 7.2531 24.3835V24.4702C7.5007 25.416 7.66084 26.3824 7.73155 27.3572C8.12079 30.0266 9.42232 31.32 9.42232 31.3623C9.42232 31.4046 9.42232 31.4489 9.37772 31.4046L9.2054 31.2757C8.37853 30.6145 7.45846 30.0776 6.47462 29.6821C5.701 29.3487 4.9605 28.944 4.26283 28.4733C3.4439 27.9603 2.71235 27.321 2.09564 26.5795H2.05306C2.17857 26.9316 2.3234 27.2767 2.48691 27.613C3.14167 28.8805 4.09271 29.9734 5.26026 30.8002C6.36468 31.6615 7.68175 32.2119 9.07362 32.3938C9.89874 32.6094 10.7218 32.825 11.5449 32.9982M4.56692 27.3995L7.16796 28.9931C7.19141 28.9697 7.20638 28.9392 7.21053 28.9064C6.64694 27.7863 6.55976 26.5815 6.47462 25.3747C6.38744 24.2969 6.55976 23.0055 6.51719 21.972C6.43489 21.1072 6.26301 20.2532 6.00428 19.4234C6.00428 19.3811 5.96171 19.3388 5.96171 19.2945L5.91913 19.3388C5.83196 20.5879 5.35554 21.7081 5.1812 22.7416C5.0086 23.9664 5.09701 25.2136 5.44069 26.4022C5.48529 26.4465 5.39812 26.4889 5.39812 26.4465C4.53776 25.2938 3.58084 24.2155 2.53759 23.2231C1.63095 22.3812 0.945977 21.331 0.542719 20.1648C0.520187 20.1409 0.490176 20.1253 0.457573 20.1205C0.412972 20.1205 0.457573 20.2071 0.457573 20.2938C0.451777 21.912 0.951129 23.4922 1.88682 24.8167C2.60362 25.8452 3.51704 26.7234 4.57503 27.4015M4.09861 23.6099C4.14119 23.5676 4.14119 23.5676 4.14119 23.481C4.03652 22.3959 4.20006 21.3018 4.6176 20.2938C5.22881 18.6492 5.66503 16.9456 5.91913 15.2108C5.91913 14.9952 5.96171 14.6064 5.96171 14.5218C5.91913 14.5218 5.91913 14.5218 5.91913 14.5641C5.58082 15.2818 5.18914 15.9734 4.74735 16.6331C4.05401 17.58 3.36067 18.6136 3.2735 19.8203C3.231 20.1635 3.231 20.5106 3.2735 20.8539C3.2735 20.8651 3.26901 20.8758 3.26103 20.8838C3.25305 20.8917 3.24222 20.8962 3.23093 20.8962V20.8539L2.92683 19.8203C2.31864 17.8379 0.933989 16.5969 0.933989 13.6595L0.889389 13.6172C0.804242 13.7884 0.759641 13.9617 0.674494 14.133C-0.584463 18.1824 1.974 21.1117 2.49907 21.7161C3.02414 22.3205 3.71545 23.0498 4.10267 23.6099M2.27809 15.5513L3.01401 17.7916C3.0196 17.7916 3.02513 17.7905 3.0303 17.7884C3.03546 17.7862 3.04016 17.7831 3.04411 17.7792C3.04806 17.7753 3.0512 17.7706 3.05334 17.7655C3.05548 17.7603 3.05658 17.7548 3.05658 17.7493C3.46343 16.6005 4.03273 15.5151 4.74735 14.5258L4.8771 14.3525C5.4765 13.633 5.99961 12.8539 6.43812 12.0276C6.69762 11.4232 7.08889 10.1318 7.13146 10.0029H7.00172C6.56482 10.6467 6.03938 11.2265 5.44069 11.7254C4.68165 12.2494 4.05674 12.9428 3.61612 13.7502C3.57354 13.8791 3.48637 14.008 3.44379 14.137L3.1843 14.8703C3.1843 14.8703 3.1397 14.9569 3.1397 14.8703C3.1397 14.7837 3.22687 13.7925 3.22687 13.6212C3.22757 12.763 3.13925 11.9069 2.96332 11.0666C2.76018 10.0123 2.77466 8.92802 3.0059 7.87945C3.01486 7.78803 3.04467 7.69983 3.09307 7.62158C3.09307 7.57927 3.13564 7.49264 3.13564 7.44832C3.13564 7.40399 3.13564 7.40601 3.09307 7.3637C1.96589 8.74173 1.31512 11.2399 1.57665 13.1357C1.79154 13.9536 2.00846 14.7716 2.26998 15.5533M3.82898 9.26352L3.87358 11.3326V11.9773H3.91616C4.52765 11.2126 5.20977 10.5064 5.9536 9.86792L7.68695 8.40326C8.36489 7.67602 8.83397 6.78127 9.04524 5.81241V5.68549H9.00267L8.78574 5.98567C8.38114 6.51705 7.88152 6.96984 7.31189 7.32139C6.27189 7.9681 5.57855 8.44154 4.97036 9.25949C4.92778 9.30382 4.88318 9.30382 4.92778 9.21719L5.31702 7.79484C5.53395 6.97689 5.62112 5.90106 5.92522 5.17578C6.1165 4.72275 6.39625 4.3119 6.7483 3.96699V3.8723C6.66113 3.8723 6.61855 3.9146 6.53138 3.95893C5.49268 4.49569 4.6789 5.38076 4.23444 6.4571C3.95071 7.10855 3.81703 7.81477 3.84317 8.52414V9.25546M6.14214 7.23073L8.03159 5.68549C8.60688 5.12693 9.11631 4.5051 9.55004 3.832C9.99867 3.13357 10.5378 2.49685 11.1536 1.93822L11.2834 1.80727V1.72266C10.1843 1.96963 9.15965 2.47152 8.29311 3.18731C6.68748 4.4364 6.16849 6.89026 6.12592 7.23476M23.5587 20.594C23.6885 20.4207 23.3844 20.2918 23.2972 20.594C23.21 20.8962 23.429 20.8095 23.5587 20.594ZM26.8531 13.0128C26.7233 12.9685 26.2449 13.5286 26.3321 13.6172C26.5598 13.4688 26.7405 13.2592 26.8531 13.0128ZM26.9403 12.9262C27.0254 12.9685 27.3295 12.7972 27.2869 12.7529C27.2444 12.7086 26.8531 12.5373 26.8531 12.624C26.8465 12.6776 26.8508 12.732 26.8658 12.7839C26.8808 12.8358 26.9061 12.8842 26.9403 12.9262ZM32.7911 18.267C32.9654 18.2247 32.9208 17.9648 32.7911 17.9648C32.6613 17.9648 32.487 18.1804 32.5316 18.1804C32.5762 18.1804 32.7039 18.3093 32.7911 18.267ZM30.6665 12.5353C30.5367 12.5353 30.4941 12.6663 30.6239 12.7509C30.6745 12.7668 30.7281 12.7712 30.7807 12.7639C30.8334 12.7566 30.8837 12.7377 30.928 12.7086C30.9783 12.6862 31.0211 12.65 31.0516 12.6044C31.0821 12.5588 31.099 12.5055 31.1003 12.4507C31.1003 12.3198 30.928 12.1485 31.0131 12.0619C31.0983 11.9753 31.23 12.1062 31.3172 12.0619C31.3571 12.0418 31.3904 12.0108 31.4134 11.9727C31.4364 11.9346 31.448 11.8907 31.447 11.8463C31.447 11.7617 31.4044 11.5018 31.23 11.5018C31.0557 11.5018 30.8834 11.8463 30.8834 11.8463C30.8623 11.8939 30.8514 11.9454 30.8514 11.9974C30.8514 12.0494 30.8623 12.1009 30.8834 12.1485C30.928 12.3198 30.8834 12.5353 30.6665 12.5353Z" fill="white"/>
<path d="M33.527 12.5757C33.6008 12.8385 33.6881 13.0974 33.7886 13.3513C33.8311 13.4802 33.8757 13.9557 33.9609 13.9114C34.046 13.867 34.0481 13.6092 34.0055 13.4802C33.9585 13.1733 33.8859 12.8707 33.7886 12.5757C33.744 12.4024 33.4419 11.7577 33.3547 11.8C33.2675 11.8423 33.4845 12.2311 33.527 12.4044C33.5696 12.5777 33.4845 12.491 33.527 12.5777M32.0106 5.25438C32.1404 5.29669 32.1404 5.03882 31.9234 4.86757C31.7065 4.69632 31.3599 4.78094 31.447 4.86757C31.6173 5.02018 31.8067 5.1502 32.0106 5.25438ZM25.509 3.40291C25.205 3.22965 25.4665 2.97178 25.2496 2.79852C25.1335 2.75274 25.0068 2.74056 24.8841 2.76338C24.7614 2.7862 24.6477 2.84308 24.5562 2.92745C24.3393 3.18734 24.8157 3.10071 24.9455 3.18734C25.0752 3.27397 25.509 3.57416 25.5537 3.53185C25.5617 3.52121 25.5671 3.50878 25.5693 3.49563C25.5715 3.48247 25.5705 3.46899 25.5663 3.45632C25.5621 3.44365 25.5549 3.43217 25.5453 3.42287C25.5357 3.41357 25.5239 3.40672 25.5111 3.40291M27.2444 2.54064C26.8552 2.36738 25.4198 2.36738 25.4685 2.75621C25.5172 3.14504 26.2916 2.75621 26.5085 2.75621C26.7254 2.75621 27.5911 2.71189 27.2444 2.54064ZM23.2973 19.1656C23.2121 19.1233 23.0824 19.2079 23.0378 19.1233C22.9932 19.0387 22.908 19.079 22.908 19.1233C22.8956 19.1598 22.8931 19.1989 22.9005 19.2367C22.908 19.2745 22.9253 19.3097 22.9506 19.3389C22.999 19.3797 23.0604 19.4022 23.1239 19.4022C23.1874 19.4022 23.2489 19.3797 23.2973 19.3389C23.3189 19.3151 23.3309 19.2843 23.3309 19.2522C23.3309 19.2202 23.3189 19.1893 23.2973 19.1656ZM22.4742 16.2806C22.6039 16.2806 22.6039 16.194 22.6485 16.194C22.6931 16.194 22.6485 16.2806 22.7783 16.2806C22.908 16.2806 23.0378 15.9784 22.6485 15.9784C22.3444 15.9784 22.387 16.2806 22.4742 16.2806ZM22.9952 16.6251C22.7783 16.5808 22.8208 16.7097 22.6485 16.7097C22.387 16.7541 22.6039 16.5385 22.5188 16.4519C22.4742 16.4095 22.3444 16.6251 22.3019 16.7541C22.3019 16.8407 22.3019 17.0119 22.387 17.0542L23.2121 17.1409C23.3844 17.1409 23.2121 16.6674 22.9952 16.6251ZM20.307 19.4235C20.3942 19.4235 20.4367 19.1656 20.3942 19.0367C20.3516 18.9077 20.0901 18.9944 20.0901 19.079C20.1255 19.213 20.2012 19.3332 20.307 19.4235ZM16.8403 19.4235C16.8403 19.3389 16.8403 18.9944 16.7531 18.9077C16.6659 18.8211 16.6659 18.95 16.6234 18.95C16.5808 18.95 16.5788 18.7788 16.5362 18.7788C16.4936 18.7788 16.5362 19.0367 16.6234 19.2079C16.7105 19.3792 16.8403 19.639 16.8403 19.4235ZM16.7531 18.6498C16.8384 18.4 16.8822 18.138 16.8829 17.8742C16.8878 17.8004 16.8747 17.7265 16.8447 17.6588C16.8147 17.5911 16.7686 17.5316 16.7105 17.4854C16.6659 17.4854 16.7105 17.6143 16.7531 17.8299C16.7304 18.049 16.687 18.2656 16.6234 18.4766C16.6234 18.5189 16.7105 18.7345 16.7531 18.6498Z" fill="white"/>
<path d="M12.3311 28.2996C14.6369 30.5924 17.5752 32.154 20.7742 32.787C23.9732 33.4201 27.2893 33.0961 30.303 31.8561C33.3167 30.616 35.8927 28.5156 37.705 25.8206C39.5174 23.1255 40.4848 19.9568 40.4848 16.7154C40.4848 13.4739 39.5174 10.3052 37.705 7.61015C35.8927 4.91509 33.3167 2.8147 30.303 1.57466C27.2893 0.334619 23.9732 0.0106315 20.7742 0.643678C17.5752 1.27673 14.6369 2.83837 12.3311 5.13108C10.7967 6.65036 9.57929 8.45573 8.74857 10.4436C7.91786 12.4315 7.49023 14.5629 7.49023 16.7154C7.49023 18.8679 7.91786 20.9992 8.74857 22.9871C9.57929 24.975 10.7967 26.7804 12.3311 28.2996ZM8.21367 17.0558H10.7275C10.7675 18.327 10.9866 19.5863 11.3783 20.7971C11.2406 20.7572 11.1089 20.6989 10.987 20.6238C10.8147 20.5372 10.685 20.6661 10.6404 20.6661C10.468 20.6661 10.2511 20.5372 10.2511 20.6661C10.2511 20.795 10.4234 20.7104 10.4234 20.7971C10.4234 20.8837 9.98959 20.8817 9.94702 20.7104C9.90445 20.5392 9.81727 20.3659 9.7747 20.5815C9.73212 20.7971 9.55778 20.7527 9.4706 20.7971C9.4167 20.8555 9.38575 20.9313 9.38343 21.0106C9.38343 21.0972 9.16651 21.0549 9.16651 21.1839C9.16651 21.3128 9.29625 21.3571 9.34086 21.4861C9.38546 21.615 9.51318 21.7016 9.42803 21.7439C9.34288 21.7863 9.38343 21.7016 9.29625 21.7439C9.20908 21.7863 9.68752 23.0797 9.7747 23.0353C9.86187 22.991 9.64292 22.6062 9.64292 22.4309C9.63548 22.3687 9.64841 22.3056 9.67981 22.2512C9.71121 22.1968 9.75941 22.1538 9.81727 22.1287C9.94702 22.0441 10.2937 22.6465 10.4255 22.5599C10.5572 22.4733 10.3829 22.3886 10.5126 22.3443C10.6424 22.3 11.0337 22.9044 11.1634 22.7331C11.2506 22.6042 11.3357 22.8178 11.3357 22.8621C11.4655 23.0777 11.6824 23.0777 11.8121 23.3355C11.9419 23.5934 12.246 24.0689 12.4629 24.0689C12.6798 24.0689 12.5501 23.8533 12.6373 23.8533C12.7244 23.8533 12.8096 24.1535 12.9393 24.3267C13.0315 24.4596 13.1716 24.5519 13.3306 24.5846C13.6327 24.9734 13.9814 25.3603 14.328 25.7471L12.5501 27.5139C9.79461 24.7114 8.24078 20.9558 8.2157 17.0377M22.5629 13.4637L22.3886 13.5503C22.1506 13.6578 21.9315 13.8027 21.7399 13.9795L19.9619 12.2146C20.9804 11.3135 22.2793 10.7872 23.6415 10.7238V13.2219C23.3297 13.2532 23.0236 13.3257 22.7312 13.4375C22.8016 13.3115 22.8889 13.1956 22.9907 13.093C22.8202 13.1909 22.6724 13.3234 22.5569 13.4818M21.2087 17.5736V17.6602C21.2087 17.5736 21.1661 17.5313 21.1215 17.4447C21.079 17.4003 21.0364 17.358 20.9918 17.358H20.783L20.6978 17.4003H20.0896C20.0045 17.4003 19.9599 17.4003 19.9599 17.358C19.9173 17.1868 20.1768 17.3157 20.3512 16.798C20.3937 16.7557 20.3937 16.669 20.4363 16.6267L20.4809 16.5401L20.5235 16.4958L20.566 16.4535C20.6004 16.4206 20.6417 16.3957 20.687 16.3808C20.7322 16.3658 20.7802 16.361 20.8276 16.3668H20.9147L20.9999 16.4535L21.1296 16.7113C21.1742 16.7557 21.2168 16.7557 21.2168 16.798C21.2823 16.8302 21.3413 16.8739 21.3912 16.9269L21.4337 16.9712V17.0135C21.4763 17.0558 21.4763 17.0558 21.5209 17.0558H21.6932C21.7804 17.0135 21.7804 17.0558 21.825 17.0558V17.1002C21.825 17.1425 21.825 17.1425 21.7804 17.1868C21.7804 17.2291 21.7378 17.2291 21.7378 17.2714C21.6932 17.3157 21.6507 17.358 21.6081 17.358C21.535 17.3482 21.4626 17.3341 21.3912 17.3157C21.3466 17.3157 21.304 17.3157 21.304 17.358V17.5736M16.5459 21.7097C16.4231 21.4699 16.3638 21.203 16.3736 20.9341C16.3649 20.6705 16.2843 20.4142 16.1404 20.1927C16.0898 20.025 16.0605 19.8518 16.0533 19.6769C16.0533 19.3747 15.7938 19.4613 15.7938 19.3747C15.7938 19.2881 16.0087 19.3747 16.0087 19.2881C15.9135 19.0698 15.7452 18.8911 15.5322 18.7824C15.3153 18.6958 15.4025 18.5668 15.4025 18.4379C15.4118 18.3776 15.4089 18.3161 15.3939 18.2569C15.379 18.1977 15.3522 18.1421 15.3153 18.0934C15.2728 17.9201 15.3153 17.6179 15.5322 17.6179C15.6194 17.6179 15.7492 17.7046 15.8789 17.6179C16.0087 17.5313 15.9235 17.2734 15.9235 17.0579H17.1399C17.1399 17.2311 17.1845 17.4467 17.1845 17.6179C17.0973 17.6623 17.0548 17.7489 17.0973 17.7912C17.1399 17.8335 17.1845 17.8778 17.2271 17.8335C17.4419 19.0894 18.0146 20.2577 18.8773 21.2L17.0994 22.9668C16.9593 22.817 16.8293 22.6581 16.7101 22.4914V22.3624C16.7101 22.0623 16.4932 21.889 16.406 21.6311M14.845 18.7018C14.7282 18.1626 14.6556 17.6148 14.6281 17.0639H15.6681C15.5829 17.1949 15.366 17.3238 15.3214 17.4527C15.2768 17.5817 15.0193 18.0128 15.1917 18.184C15.5829 18.6152 15.1045 18.7884 14.845 18.7018ZM15.0619 25.0762L14.845 25.2918L14.5409 24.9916C14.6263 24.9525 14.7216 24.9397 14.8144 24.9548C14.9072 24.9699 14.9934 25.0121 15.0619 25.0762ZM17.7501 13.9956C17.7055 13.9956 17.7055 14.0399 17.6629 14.0399C17.5332 14.1688 17.1865 14.1245 17.2291 14.2555C17.2717 14.3864 18.184 13.9533 18.184 14.0399C18.184 14.1265 17.7927 14.2555 17.5332 14.3844C17.2737 14.5133 17.1865 14.7289 16.7527 14.7289C16.5358 14.7289 16.4486 14.9002 16.3634 15.0291C16.2461 15.1919 16.1443 15.3653 16.0593 15.5469C16.0639 15.8155 16.0041 16.0813 15.885 16.3225H14.6281C14.7159 14.1121 15.5918 12.0048 17.0994 10.3772L18.8773 12.1441C18.4448 12.7253 18.0674 13.3451 17.7501 13.9956ZM19.3963 12.7042L20.9573 14.2555H20.783C20.6106 14.2555 20.6107 14.1245 20.4809 14.1245C20.2194 14.1688 20.1768 14.2555 20.1342 14.2111C19.9411 14.0348 19.7216 13.8893 19.4835 13.78C19.1988 13.6866 18.8893 13.7024 18.6158 13.8243C18.5732 13.8243 18.5732 13.8666 18.5306 13.8666C18.8327 13.4798 19.1388 13.091 19.3963 12.7042ZM17.2291 15.8491C17.2291 16.0203 17.1865 16.1936 17.1865 16.3648H16.2763C16.2588 16.2981 16.2576 16.2282 16.2727 16.1609C16.2879 16.0936 16.319 16.0309 16.3634 15.978C16.4145 15.8908 16.4929 15.8226 16.5865 15.7837C16.6802 15.7448 16.7841 15.7373 16.8824 15.7624C17.0015 15.7751 17.1182 15.8043 17.2291 15.8491ZM18.0096 17.8738L18.0968 18.0027C18.184 18.0894 18.2691 18.174 18.3563 18.1317C18.4708 18.1103 18.5884 18.1103 18.703 18.1317C18.8205 18.1777 18.925 18.2517 19.0071 18.3472C19.0942 18.4762 19.2665 18.3895 19.3963 18.4762C19.526 18.5628 19.6558 18.6494 19.4835 18.734C19.3111 18.8187 19.6558 18.9939 19.7004 18.9939C19.745 18.9939 19.7876 18.9073 19.7876 18.7784C19.7876 18.7341 19.8727 18.5628 20.0045 18.6051C20.1363 18.6474 20.5235 19.1229 20.6532 18.9496C20.783 18.7764 20.6978 18.5628 20.7404 18.4762C20.7418 18.4537 20.7515 18.4325 20.7675 18.4165C20.7836 18.4006 20.8049 18.391 20.8276 18.3895C20.9319 18.5925 21.0628 18.7808 21.2168 18.9496L19.4409 20.7165C18.6887 19.9323 18.1902 18.9422 18.0096 17.8738ZM19.3963 11.713L17.6629 9.94813C19.3001 8.45263 21.4194 7.58493 23.6415 7.50032V9.99849C22.0609 10.049 20.5507 10.66 19.3841 11.721M17.1298 9.43842L15.3538 7.67156C17.6019 5.5632 20.5516 4.34994 23.6415 4.26276V6.76094C21.2193 6.8379 18.9079 7.78735 17.1379 9.43237M16.6189 9.90582C14.9728 11.6687 14.02 13.9614 13.9347 16.3648H11.4209C11.5084 13.2977 12.727 10.3695 14.845 8.13695L16.6189 9.90582ZM13.9307 17.0558C13.9316 17.5188 13.9751 17.9807 14.0604 18.4359C14.0179 18.4359 14.0179 18.3049 13.8881 18.3493C13.7584 18.3936 13.2799 19.2095 13.065 19.558C12.8907 19.8582 13.1502 20.5049 12.8907 20.7205C12.6393 20.8055 12.3757 20.8491 12.1102 20.8494H12.0676C11.6449 19.6576 11.411 18.4077 11.3742 17.1445L13.9307 17.0558ZM23.5969 32.3914C19.6566 32.3148 15.891 30.7612 13.0549 28.0418L14.8308 26.2749C17.2008 28.5135 20.3184 29.8047 23.5867 29.9013L23.5969 32.3914ZM23.5969 29.2042C20.515 29.1134 17.5735 27.9028 15.3295 25.8015L15.6336 25.4993C15.6991 25.5526 15.7722 25.5961 15.8505 25.6282C16.0381 25.723 16.2519 25.7535 16.4587 25.7148C16.6331 25.6725 16.9797 25.3703 17.1967 25.3703C17.4136 25.3703 17.7603 25.457 17.9772 25.328C18.1941 25.1991 17.8454 24.768 17.7157 24.5524C17.6731 24.5081 17.6731 24.4658 17.6305 24.4234C19.3319 25.8498 21.4729 26.6553 23.6982 26.7061L23.5969 29.2042ZM23.5969 25.9808C21.3732 25.8951 19.253 25.0252 17.6163 23.5269L19.3922 21.7601C20.2277 22.5155 21.2416 23.0491 22.3399 23.3114C21.9507 23.4826 21.7764 23.7405 21.821 23.956C21.8656 24.1716 21.5594 24.3006 21.5594 24.5604C21.5594 24.8203 21.9061 24.9916 21.9507 25.2495C21.9933 25.3784 22.2974 25.594 22.5589 25.7652C22.8827 25.8572 23.2213 25.8866 23.5563 25.8518L23.5969 25.9808ZM23.5097 22.5357C23.38 22.4491 23.2928 22.6223 23.1205 22.707C21.9318 22.5358 20.8181 22.0272 19.9133 21.2423L21.6892 19.4775C22.2334 19.9186 22.8976 20.1886 23.5969 20.2531C23.5969 20.3377 23.684 20.4243 23.684 20.5976C23.684 20.7709 23.5543 20.8555 23.5969 20.9421C23.6394 21.0287 24.0307 20.9421 24.0733 20.8132C24.1159 20.6842 23.9435 20.5976 23.901 20.4687C23.8564 20.382 23.8564 20.3377 23.8138 20.2531H23.9435C24.0755 20.2603 24.2078 20.2453 24.3348 20.2088C24.3573 20.2073 24.3784 20.1977 24.3941 20.1817C24.4098 20.1657 24.419 20.1445 24.42 20.1221C24.42 20.0798 24.4646 20.0375 24.4646 19.9932C24.4646 19.9489 24.5071 19.9509 24.5071 19.9086L24.5517 19.9509C24.5943 20.0375 24.6815 20.2954 24.7666 20.2531C24.8518 20.2108 24.8984 19.822 24.8538 19.7353C24.8114 19.6797 24.7884 19.6118 24.7884 19.5419C24.7884 19.4721 24.8114 19.4042 24.8538 19.3485C24.8538 19.3042 24.8984 19.0463 24.9835 19.0886C25.0687 19.1309 24.9835 19.3485 24.9835 19.4331C24.9835 19.5641 25.0707 19.7353 25.2005 19.6487C25.2876 19.6064 25.3748 19.4775 25.462 19.5198C25.5492 19.5621 25.2451 19.6487 25.2005 19.7353C25.1559 19.822 25.3302 19.8643 25.2876 19.9086C25.2451 19.9529 25.2005 19.9086 25.1579 19.9509C25.1153 19.9932 25.2451 20.2531 25.1579 20.2954C25.0707 20.3377 24.7666 20.4243 24.6815 20.4687C24.5963 20.513 24.5071 20.4243 24.5517 20.382C24.5963 20.3397 24.5517 20.1665 24.4646 20.1665C24.3774 20.1665 24.3774 20.2088 24.3774 20.2954C24.3774 20.382 24.4646 20.511 24.4646 20.5533C24.4646 20.5956 24.3348 20.6399 24.2476 20.6822C24.1555 20.8182 24.0378 20.9351 23.901 21.0267C23.7712 21.1134 23.5097 21.1134 23.5097 21.2C23.5097 21.2866 23.6415 21.2866 23.684 21.3289C23.7712 21.4579 23.8138 21.6311 23.6415 21.7178C23.4692 21.8044 23.2502 21.5868 23.163 21.6311C23.0759 21.6755 23.0333 21.889 22.9907 22.1469C22.9481 22.4048 23.4671 22.4914 23.7266 22.3624C23.901 22.2778 23.8564 22.0179 24.0307 21.9313C24.2051 21.8447 24.1605 21.6734 24.3348 21.7178C24.5092 21.7621 24.4646 21.5868 24.6369 21.5868C24.8092 21.5868 24.8112 21.7178 25.0282 21.7601C25.3748 21.8467 25.3748 22.1046 25.4174 21.9756C25.46 21.8467 25.5046 21.7601 25.2451 21.6734C24.9856 21.5868 24.8538 21.2866 25.0707 21.3733C25.3302 21.5022 25.5471 21.5022 25.5917 21.6311C25.6363 21.7601 25.8938 21.7178 25.9384 21.8467C25.981 22.0623 26.1553 21.8467 26.0256 21.7178C25.8958 21.5888 25.9384 21.5445 26.0256 21.4579C26.1128 21.3712 26.1553 21.5022 26.2851 21.3289C26.4148 21.1557 26.2405 21.2 26.1979 21.1134C26.1553 21.0267 26.1979 20.5533 26.3723 20.6399C26.5466 20.7265 26.7189 20.5976 26.6317 20.5533C26.5446 20.509 26.6743 20.2531 26.7189 20.2531C26.7635 20.2531 26.7189 20.4243 26.7615 20.4687C26.8041 20.513 27.2379 20.3377 27.2825 20.5533C27.3271 20.7689 26.9784 20.8978 26.8912 20.8978C26.7189 20.8978 26.5871 21.0711 26.4574 21.2423C26.3277 21.4135 26.1979 21.4579 26.2851 21.6311C26.3723 21.8044 26.5446 21.7601 26.7189 21.6734C26.8933 21.5868 27.021 21.4579 27.1082 21.4156C27.2825 21.3289 27.4123 21.8467 27.3251 21.9313C27.2379 22.0159 27.0656 22.0623 26.9784 22.1469C26.7289 22.2977 26.4467 22.3868 26.1553 22.4068C25.981 22.4491 25.981 22.4914 25.9384 22.6646C25.8958 22.8379 25.1153 22.707 24.941 22.707C24.7666 22.707 25.0707 22.3201 24.8112 22.3624L24.0307 22.4914C23.9881 22.4914 23.7266 22.707 23.5097 22.5357ZM25.8087 26.5409C26.03 26.6352 26.2238 26.7835 26.3723 26.972C26.502 27.1876 26.5446 27.2742 26.4574 27.4898C26.2405 27.8766 26.3277 28.1344 26.7615 28.2654C27.021 28.35 27.1082 28.6099 27.2825 28.7812C26.319 29.0328 25.3304 29.1774 24.3348 29.2123V26.7141C24.8112 26.6698 25.3302 26.6275 25.8087 26.5409ZM24.3348 26.0251V25.7229C24.8984 25.6363 24.7666 25.9808 25.1579 25.8518C25.2181 25.8327 25.2824 25.8307 25.3437 25.846C25.4049 25.8613 25.4607 25.8933 25.5046 25.9385C25.1133 25.9453 24.7228 25.9742 24.3348 26.0251ZM24.3348 32.4418V29.8932C25.6462 29.8563 26.9446 29.624 28.1867 29.2042C28.2038 29.2205 28.2243 29.2327 28.2467 29.24C28.2692 29.2473 28.293 29.2496 28.3164 29.2465C28.4884 29.2357 28.6537 29.1763 28.7929 29.0753C29.2095 28.9114 29.6028 28.6939 29.9626 28.4286C31.1052 27.8514 32.157 27.1116 33.0847 26.2326L34.8606 27.9974C32.0353 30.7378 28.2751 32.3202 24.3287 32.4297M31.3493 9.90179L31.9575 9.29739C32.1162 9.47599 32.3301 9.59717 32.5657 9.6419C32.6557 9.6476 32.7406 9.68572 32.8044 9.74914C32.8682 9.81255 32.9066 9.8969 32.9123 9.9864C32.9569 10.202 33.1718 10.2886 33.3888 10.3309C33.6057 10.3732 33.7354 10.6331 33.9098 10.6331C34.0841 10.6331 34.6457 11.4067 34.8626 11.6666C34.9924 11.7956 35.1667 12.0111 35.2965 11.8379C35.4262 11.6646 35.4262 11.7089 35.5134 11.6666C36.1804 13.148 36.5548 14.743 36.6162 16.3648H34.0902C34.0826 15.7985 34.0106 15.2348 33.8753 14.6846C33.9632 14.511 34.0078 14.3189 34.0051 14.1245C34.0094 14.0878 34.0017 14.0506 33.983 14.0186C33.9644 13.9867 33.9358 13.9615 33.9015 13.947C33.8673 13.9325 33.8293 13.9294 33.7931 13.9381C33.757 13.9469 33.7246 13.967 33.701 13.9956C33.6113 13.6712 33.4953 13.3545 33.3543 13.0487C33.3117 12.8754 33.2671 12.6619 33.2245 12.4886C33.2245 12.4463 33.1374 12.402 33.0502 12.3153C32.9873 12.1678 32.9149 12.0244 32.8333 11.8862C32.9651 11.7996 33.0076 11.584 32.8333 11.6263C32.5738 11.6707 32.7481 11.4974 32.661 11.4108C32.5738 11.3241 32.5738 11.4108 32.5312 11.4551C32.1943 10.9385 31.8175 10.4488 31.404 9.99043V9.94813C31.3169 9.94813 31.3169 9.9038 31.3594 9.9038M32.8779 24.506C32.7907 24.3348 32.7481 24.1192 32.661 23.946C32.6164 23.7747 32.2697 23.7747 32.2697 23.8614C32.2767 24.0344 32.2624 24.2076 32.2271 24.3771V24.4234L31.3169 23.5189C32.9653 21.7555 33.9196 19.4612 34.0051 17.0558H36.5189C36.4382 20.1119 35.2179 23.0291 33.0948 25.2414L32.9651 25.1125C32.9975 24.9069 32.9672 24.6963 32.8779 24.5081M30.7958 26.2366C30.9276 26.0211 31.1871 25.6322 31.3169 25.4167C31.4466 25.2011 30.9702 24.9009 30.7087 24.8123C30.4471 24.7236 30.4471 24.5967 30.4471 24.3811C30.5883 24.2789 30.7193 24.1636 30.8384 24.0366L32.6143 25.8035C32.0283 26.3519 31.3901 26.8424 30.7087 27.2681C30.6641 27.1815 30.9682 26.8793 31.0553 26.7504C31.1425 26.6214 30.7087 26.4502 30.7938 26.2346M31.8784 15.9377C31.6615 15.6375 31.9656 15.5932 32.2677 15.4643C32.442 15.3796 32.6589 15.5086 32.6589 15.422C32.6657 15.3626 32.6844 15.3053 32.7141 15.2534C32.7437 15.2014 32.7835 15.156 32.8313 15.1198C32.9365 15.0728 33.0269 14.9983 33.0928 14.9042C33.0928 14.9908 33.1353 15.0774 33.1353 15.1641C33.0519 15.3082 33.0073 15.4713 33.0056 15.6375C33.0056 15.7665 33.0056 15.9377 33.1353 15.6375C33.1353 15.5932 33.1779 15.5932 33.1779 15.5509C33.2477 15.8177 33.2771 16.0934 33.2651 16.3688H31.402V16.3265C31.5317 16.111 32.0102 16.1533 31.8784 15.9377ZM32.2251 12.406C32.2254 12.4117 32.2245 12.4174 32.2224 12.4228C32.2204 12.4282 32.2173 12.4331 32.2134 12.4372C32.2094 12.4414 32.2046 12.4447 32.1993 12.4469C32.194 12.4492 32.1883 12.4503 32.1825 12.4503C32.1379 12.4926 31.921 12.1481 31.921 12.406C31.921 12.6639 32.0082 12.7505 32.1825 12.7948C32.3569 12.8392 32.2677 12.9238 32.3994 12.9661C32.4642 12.9774 32.5242 13.0075 32.5718 13.0527C32.7762 13.5251 32.9357 14.0154 33.0482 14.5174C32.9835 14.5498 32.9251 14.5935 32.8759 14.6463C32.7887 14.7329 32.8313 14.9042 32.7461 15.0331C32.6143 15.2487 32.5718 15.3796 32.2251 15.293C32.0082 15.2064 32.1825 14.9485 32.2251 14.7329C32.2677 14.5174 32.3548 14.5597 32.3548 14.4307C32.3548 14.3018 31.921 13.8263 31.7041 13.9996C31.4871 14.1729 31.5317 14.3441 31.3574 14.5174C31.2723 14.604 31.1851 14.604 31.0553 14.5174C30.9256 14.4307 30.881 14.3441 30.9256 14.2595C30.9702 14.1749 30.6215 13.784 30.4917 13.6128C30.409 13.508 30.3039 13.4227 30.184 13.3631C30.0641 13.3036 29.9324 13.2712 29.7984 13.2683C29.5631 12.8675 29.2866 12.4921 28.9733 12.1481L30.7512 10.3813C31.331 10.9843 31.8267 11.6619 32.2251 12.3959M29.2348 13.6047L29.1476 13.7337C29.1051 13.8203 28.8881 13.647 28.8435 13.6914C28.7989 13.7357 29.1476 14.1648 28.801 14.0359C28.4543 13.9069 28.6712 13.9069 28.6712 13.776C28.6712 13.645 28.3671 13.5624 28.5415 13.4758C28.7158 13.3892 28.5415 13.2602 28.7138 13.2159C28.8861 13.1716 28.8435 13.0023 28.6266 12.958C28.4097 12.9137 28.4543 13.4315 28.3246 13.3469C28.1976 13.3103 28.0653 13.2953 27.9333 13.3025L28.5415 12.6981C28.6082 12.7326 28.6835 12.7472 28.7584 12.7404C28.8632 13.0542 29.0246 13.3464 29.2348 13.6027M28.5415 22.3463C28.8198 22.3838 29.0949 22.4417 29.3646 22.5196C29.5369 22.6062 29.6687 22.7775 29.7984 22.5619C30.0589 22.1715 30.2356 21.7319 30.3174 21.2705C30.4046 20.6238 30.2748 20.4082 30.1876 20.4082C30.1005 20.4082 29.9281 20.5815 29.7538 20.5815C29.6687 20.5815 29.6687 20.7527 29.6687 20.8817C29.6687 21.0106 29.4943 21.1416 29.4517 21.0549C29.4092 20.9683 29.32 21.0106 29.3646 21.0972C29.4092 21.1839 29.0179 21.1416 28.8435 21.0549C28.584 20.926 29.1476 20.926 29.4071 20.7104C29.6345 20.5204 29.8518 20.3187 30.0579 20.106C30.1876 19.8925 30.1876 19.6326 30.4046 19.4613C30.6215 19.2901 30.9682 19.3324 31.0128 19.0725C31.0574 18.8126 31.0999 18.8569 31.2297 18.9013C31.3594 18.9456 32.5738 18.8569 32.5738 18.4701C32.5738 18.2969 32.3143 18.0833 32.0548 18.039C31.8804 18.039 31.8379 17.6945 31.7507 17.5232C31.6654 17.3418 31.5636 17.1685 31.4466 17.0055H33.2712C33.1839 19.216 32.3079 21.3234 30.7999 22.9507L30.7573 22.9064V22.7352C30.7999 22.3907 30.5404 21.8306 30.4532 21.9152C30.366 21.9998 30.4532 22.0018 30.1937 22.3907C30.1066 22.5196 29.9768 22.7352 29.8045 22.7352C29.6322 22.7352 29.6301 22.6485 29.3706 22.6908C29.1417 22.7352 28.9063 22.7352 28.6773 22.6908C28.2628 22.5583 27.8685 22.3698 27.5055 22.1308C27.5501 22.0885 27.6799 22.1751 27.6799 22.0461C27.6799 21.9172 28.3732 22.304 28.5476 22.3463M35.3512 27.5583L33.5753 25.8015C35.8279 23.4462 37.1272 20.3481 37.2244 17.1002H39.7809C39.6997 21.0236 38.1188 24.7693 35.3593 27.5764M39.7687 16.3648H37.2123C37.1719 14.512 36.7278 12.6899 35.9107 11.024L35.9553 10.9816C36.1277 10.8084 35.1322 9.51699 34.9579 9.38805C34.7572 9.21252 34.5664 9.02622 34.3862 8.82999C34.0334 8.48764 33.7143 8.11255 33.4334 7.70984L35.2965 5.85635C38.082 8.66348 39.6782 12.4252 39.7565 16.3668M24.3389 1.03326C28.2872 1.11977 32.0601 2.67139 34.9153 5.38291L33.1799 7.09738C33.0948 7.05508 33.0076 7.01277 33.0502 6.92614C33.1374 6.7972 32.9205 6.7972 32.8779 6.45269C32.7782 6.10481 32.5443 5.81011 32.2271 5.63273C32.0102 5.50379 31.8804 5.33254 31.6635 5.24591C31.4466 5.15928 31.0128 4.90141 30.7958 4.98804C30.6567 5.03647 30.5113 5.06496 30.364 5.07265C28.5209 4.09409 26.4707 3.56318 24.3814 3.52338L24.3389 1.03326ZM24.3389 4.25672C26.1925 4.31268 28.0118 4.76845 29.6707 5.59243C29.7216 5.87499 29.8405 6.14111 30.0174 6.36808C30.115 6.57918 30.231 6.78141 30.364 6.97248C30.4938 7.10141 30.4066 7.3613 30.4492 7.57687C30.4492 7.66149 30.5363 7.74812 30.5809 7.83475V8.17926C30.5809 8.22156 30.7533 8.22156 30.883 8.13493C31.0128 8.0483 31.0999 7.87706 31.2743 7.92138C31.4486 7.9657 31.6635 8.30819 31.7933 8.52578L30.9702 9.34373C30.883 9.17248 30.7958 8.95691 30.8404 8.95691C30.885 8.95691 30.9702 8.99922 31.0128 8.99922C31.1871 8.99922 30.883 8.87028 30.883 8.82798C30.7533 8.69702 30.7533 8.52578 30.5809 8.39684C30.4086 8.2679 30.1471 8.35252 30.0599 8.18127C29.8896 7.8748 29.6528 7.60985 29.3666 7.40563C29.322 7.40563 29.7133 7.87907 29.5835 7.9657C29.4538 8.05233 28.9753 7.6635 28.9327 7.75013C28.8902 7.83676 29.4538 8.05233 29.6261 8.22358C29.7133 8.31021 29.8856 8.56808 30.0599 8.78365C28.4073 7.54113 26.4098 6.83421 24.3389 6.75892V4.25672ZM24.3389 7.44391C26.5625 7.53113 28.6824 8.40166 30.3194 9.89977L28.5435 11.6666C27.3784 10.6363 25.8961 10.029 24.3389 9.9441V7.44391ZM24.3389 10.6674C25.7038 10.7371 27.0037 11.2689 28.0225 12.1743L27.9353 12.261L27.8502 12.2186C27.6332 12.132 27.1994 12.5632 27.2866 12.6055C27.3737 12.6478 27.5461 12.4342 27.6332 12.4765H27.6758L26.9399 13.2522C26.723 13.3388 26.5061 13.51 26.5061 13.639V13.6833L26.2445 13.9472L26.1148 13.8183C25.9094 13.6478 25.6744 13.5161 25.4214 13.4295C25.4816 13.3825 25.5317 13.3241 25.5689 13.2577C25.6062 13.1913 25.6298 13.1182 25.6384 13.0426C25.6384 12.7848 25.5512 12.8694 25.4214 13.0003C25.2917 13.1313 25.162 13.1716 25.0748 13.3005C24.8535 13.216 24.6185 13.1723 24.3814 13.1716V10.6734L24.3389 10.6674ZM24.0348 13.8545C24.0494 13.8907 24.0532 13.9303 24.0457 13.9686C24.0381 14.0069 24.0195 14.0421 23.9922 14.0701C23.905 14.1567 23.6455 13.8545 23.6009 14.1124C23.5138 14.3723 23.7753 14.2434 23.7753 14.2857C23.9029 14.4488 24.0887 14.557 24.2943 14.5879C24.4686 14.5879 24.7281 14.5879 24.7281 14.7591C24.7281 14.8458 24.945 14.8458 24.9876 14.9324C24.9876 15.0613 25.1194 15.2769 25.2045 15.2326C25.2897 15.1883 25.4214 15.2769 25.466 15.3635C25.5106 15.4502 25.466 15.4925 25.4214 15.5771C25.2917 15.708 25.5512 15.6637 25.5958 15.9216C25.6404 16.1795 25.3789 16.0082 25.3343 16.1815C25.2491 16.3104 25.162 16.397 25.0748 16.526C25.0322 16.5683 25.1194 16.6549 25.162 16.6126C25.2045 16.5703 25.2917 16.4394 25.4214 16.4394C25.5512 16.4394 25.6809 16.9128 25.8127 16.9571C25.9445 17.0014 25.8979 17.1727 25.9425 17.215C25.9871 17.2573 25.7255 17.215 25.7681 17.3016C25.8107 17.3883 26.0722 17.4306 26.0722 17.5595C26.0578 17.6301 26.02 17.6938 25.9649 17.7405C25.9098 17.7873 25.8405 17.8143 25.7681 17.8174C25.6384 17.8174 25.4214 17.5172 25.4214 17.6018C25.4214 17.6864 25.5086 17.9463 25.6384 17.9463C25.7681 17.9463 26.0722 17.8174 25.9425 17.9906C25.8127 18.1639 25.8553 18.4218 25.7681 18.4218C25.6809 18.4218 25.6384 18.4218 25.7255 18.5507C25.7425 18.6175 25.7435 18.6873 25.7284 18.7545C25.7132 18.8216 25.6824 18.8844 25.6384 18.9375C25.5904 18.9659 25.5341 18.9772 25.4788 18.9695C25.4235 18.9618 25.3726 18.9356 25.3343 18.8952C25.3343 18.8509 25.5958 18.8509 25.5958 18.722C25.5958 18.593 25.466 18.5507 25.2045 18.6373C25.0748 18.6797 25.0322 18.593 24.945 18.593C24.8579 18.593 24.5984 18.8952 24.5984 18.9375V19.1531C24.6023 19.3069 24.5569 19.4579 24.4686 19.5842C24.3124 19.6191 24.1522 19.6333 23.9922 19.6265C23.2909 19.6066 22.6176 19.3485 22.0845 18.8952C22.1921 18.8411 22.3106 18.8115 22.4312 18.8086C22.5609 18.8509 22.6035 18.7663 22.6907 18.722C22.7778 18.6776 22.9948 18.8086 23.1245 18.722C23.2543 18.6353 23.5584 18.0773 23.5138 17.9463C23.4692 17.8154 23.8178 17.6018 23.7753 17.5595C23.7327 17.5172 23.6881 17.6018 23.6881 17.5595C23.6881 17.5172 23.7753 17.5172 23.6881 17.3439C23.6009 17.1707 23.4712 17.2573 23.384 17.2573C23.2543 17.1727 23.0373 17.1284 22.9948 17.1727C22.9522 17.217 22.8204 17.0861 22.7778 17.1284C22.7442 17.1307 22.7126 17.1451 22.6887 17.1687C22.6649 17.1924 22.6505 17.2239 22.6481 17.2573C22.6035 17.3439 22.6907 17.4306 22.6907 17.5172C22.6481 17.6884 22.3866 17.8174 22.3866 17.9463C22.3866 18.0753 22.2568 17.9906 22.2142 18.0329C22.1717 18.0753 22.2142 18.1619 22.1271 18.1619C22.0399 18.1619 21.9102 18.3775 21.825 18.5507C21.6932 18.3775 21.5635 18.1619 21.4337 17.9906C21.5209 17.9463 21.6081 17.904 21.6507 17.9463C21.7804 18.033 22.3014 17.1284 22.2142 16.8705C22.1271 16.6126 21.9973 16.7839 21.8676 16.8262C21.7378 16.8685 21.7378 16.7416 21.7804 16.6972C21.823 16.6529 22.3886 16.6549 22.0845 16.4817C21.9548 16.397 21.6081 16.397 21.6507 16.2681C21.6932 16.1392 21.8676 16.2681 21.9102 16.2681C22.1271 16.3527 22.2568 15.9216 22.3866 15.9216C22.6035 15.9216 22.5183 15.4925 22.3014 15.6214C22.0845 15.7503 21.9973 15.708 21.9102 15.837C21.823 15.9659 21.6081 16.1372 21.6081 15.9659C21.6081 15.8793 22.0845 15.6214 22.1717 15.4925C22.2674 15.3943 22.3407 15.2768 22.3866 15.148C22.4312 15.017 23.0373 14.9324 23.1671 14.8458C23.2665 14.7566 23.3287 14.6337 23.3414 14.5013C23.3414 14.3723 23.1671 14.4146 23.1245 14.328C23.0819 14.2414 23.3414 14.328 23.3414 14.1991C23.3414 14.0701 23.1245 14.1991 23.0373 14.1124C23.0373 14.0701 23.0373 14.0701 23.0819 14.0278C23.3869 13.9152 23.7094 13.8566 24.0348 13.8545H24.1219ZM23.6415 1.03326V3.53144C20.3729 3.62674 17.2548 4.91813 14.8855 7.15782L13.1076 5.39097C15.9437 2.67158 19.7093 1.11789 23.6496 1.04132M12.5521 5.90874L14.3301 7.67358C12.0766 10.0283 10.7772 13.1268 10.6809 16.3749H8.16907C8.28984 12.471 9.84799 8.74688 12.5481 5.90874" fill="white"/>
</g>
<defs>
<clipPath id="clip0_955_1257">
<rect width="130" height="40" fill="white"/>
</clipPath>
</defs>
</svg>
