<svg width="200" height="42" viewBox="0 0 200 42" fill="none" xmlns="http://www.w3.org/2000/svg">
<g clip-path="url(#clip0_955_1533)">
<path d="M59.0498 10.1577C58.4061 10.1577 57.9847 10.1195 57.4176 10.0508V14.2202C57.4176 15.1977 57.3333 16.6639 57.1417 17.7253C56.9655 18.741 56.7126 19.6344 56.3908 20.3675C56.0306 21.177 55.4789 22.0322 54.7663 22.8875C54.2069 23.5519 53.4406 24.2162 52.6973 24.8577C52.6973 24.8577 52.3448 25.1479 52.1992 25.2777C53.1417 25.9573 53.9234 26.6599 54.5211 27.3701C55.5862 26.5301 56.9042 25.1402 57.4789 24.4377L58.544 23.0479C58.7893 22.7042 58.8735 22.4751 58.9195 22.3301L59.0498 21.9482L59.1647 22.2766C59.1877 22.353 59.295 22.5515 59.6475 23.0479C59.6475 23.0479 60.7203 24.4377 60.7203 24.4453C61.226 25.0715 62.59 26.553 63.6781 27.3777C64.3601 26.5606 65.0958 25.881 65.9004 25.293C65.7624 25.1708 65.4023 24.8653 65.4023 24.8653C64.659 24.2239 63.885 23.5671 63.3333 22.9028C62.6053 22.0399 62.0613 21.1922 61.7011 20.3828C61.387 19.6573 61.1341 18.7639 60.9502 17.7406C60.7586 16.6715 60.6743 15.213 60.6743 14.2355V10.0661C60.1073 10.1348 59.6858 10.173 59.0498 10.173V10.1577Z" fill="white"/>
<path d="M74.8889 35.2209C74.8889 35.2209 76.1762 35.2361 76.5364 35.2819C76.4521 31.2729 76.3984 27.0499 76.3984 23.0638C76.3984 19.406 76.4368 13.8238 76.5364 9.57031C76.1839 9.60849 74.8889 9.62377 74.8889 9.62377C74.8889 9.62377 73.6092 9.60086 73.249 9.57031C73.3333 13.755 73.387 19.3525 73.387 23.0638C73.387 27.0958 73.341 31.3187 73.249 35.2819C73.6092 35.2438 74.8889 35.2209 74.8889 35.2209Z" fill="white"/>
<path d="M69.1492 35.2171C69.1492 35.2171 70.4366 35.24 70.7891 35.2782C70.7048 31.6509 70.6511 26.9164 70.6511 22.892C70.6511 19.1808 70.7048 13.4382 70.7891 9.57422C70.4366 9.6124 69.1492 9.62767 69.1492 9.62767C69.1492 9.62767 67.8695 9.60476 67.517 9.57422C67.517 9.73458 67.6243 15.7139 67.6243 15.7139C67.6243 15.7139 63.9998 15.6604 63.8389 15.6528C63.9002 16.1109 63.9385 16.5768 63.9385 17.0349C63.9385 17.4931 63.9002 17.9666 63.8389 18.4248C63.9998 18.4248 66.9347 18.3789 66.9347 18.3789L67.6473 18.3637V22.892C67.655 26.924 67.609 31.6509 67.517 35.2782C67.8695 35.24 69.1492 35.2171 69.1492 35.2171Z" fill="white"/>
<path d="M136.651 35.152C136.651 35.152 137.984 35.1672 138.352 35.2054C138.26 30.9825 138.222 27.4087 138.222 23.6363C138.222 19.864 138.268 13.6174 138.352 9.57014C137.984 9.60832 136.651 9.62359 136.651 9.62359C136.651 9.62359 135.364 9.60832 135.003 9.57014C135.003 9.7305 135.118 17.8785 135.118 17.8785H134.82L133.525 17.909L132.046 17.8785C132.046 17.8785 132.153 9.72286 132.161 9.5625C131.8 9.60068 130.528 9.61595 130.528 9.61595C130.528 9.61595 129.241 9.59305 128.881 9.5625C128.973 13.3196 129.019 19.5127 129.019 23.4683C129.019 27.424 128.973 31.4712 128.881 35.2054C129.241 35.1749 130.528 35.152 130.528 35.152C130.528 35.152 131.8 35.1749 132.161 35.2054C132.069 31.3796 132.023 27.2178 132.023 23.4683V20.5589L133.525 20.5283L135.141 20.5589V23.6363C135.141 27.3858 135.103 30.952 135.003 35.2054C135.364 35.1672 136.651 35.152 136.651 35.152Z" fill="white"/>
<path d="M98.9575 12.622L98.9422 12.5303H99.0341C101.632 12.5609 105.241 12.622 107.41 12.706C107.348 12.2402 107.31 11.7209 107.31 11.2474C107.31 10.774 107.348 10.2394 107.41 9.78125C104.306 9.90343 99.9307 9.97216 96.9805 9.97216C94.0303 9.97216 89.6472 9.90343 86.5514 9.78125C86.6204 10.2394 86.6587 10.774 86.6587 11.2474C86.6587 11.7209 86.6204 12.2402 86.5514 12.706C88.7276 12.6296 92.3292 12.5609 94.9422 12.538H95.0341L95.0188 12.6296C93.6242 15.1802 87.3253 16.6311 86.4824 16.8067C86.5437 16.9671 87.5016 19.4336 87.5476 19.5482C92.1299 18.4638 95.6472 16.1576 96.9805 15.1267C98.3215 16.1576 101.831 18.4638 106.413 19.5482C106.452 19.4336 107.417 16.9671 107.479 16.8067C106.636 16.6311 100.329 15.1802 98.9499 12.6296L98.9575 12.622Z" fill="white"/>
<path d="M166.835 35.2106C166.743 33.5382 166.69 30.6898 166.69 28.8648C166.69 27.7269 166.72 27.4138 166.759 26.864C166.759 26.864 166.828 25.856 166.835 25.7109C164.046 25.7797 160.322 25.8178 157.877 25.8178C155.433 25.8178 151.693 25.7873 148.896 25.7109C148.942 26.1768 148.973 26.6349 148.973 27.0855C148.973 27.536 148.942 27.9942 148.896 28.4524C151.678 28.3684 155.395 28.3455 157.877 28.3455L163.548 28.376H163.624V28.4753C163.64 28.4829 163.647 28.5135 163.655 28.5593V28.5746C163.655 28.628 163.655 28.712 163.655 28.8571C163.655 30.6746 163.594 33.5229 163.51 35.2029C163.67 35.2029 165.088 35.1571 165.088 35.1571C165.088 35.1571 166.682 35.2029 166.835 35.2029V35.2106Z" fill="white"/>
<path d="M166.805 24.4369C166.743 22.4591 166.69 20.5041 166.674 18.4729V18.3889C166.674 18.3889 170.713 18.4576 170.881 18.4576C170.812 17.9536 170.774 17.4725 170.774 17.0143C170.774 16.5561 170.812 16.0674 170.881 15.5787C170.713 15.5787 166.667 15.6398 166.667 15.6398V15.5634C166.674 13.4176 166.713 12.3027 166.774 10.4623C166.774 10.4623 166.797 9.81324 166.797 9.67578C166.215 9.72924 165.648 9.75978 165.096 9.75978C164.544 9.75978 164.077 9.72924 163.456 9.68342C163.556 12.6463 163.594 14.8838 163.594 17.3656C163.594 20.1223 163.533 21.8634 163.456 24.4521C164.031 24.4063 164.537 24.3758 165.096 24.3758C165.655 24.3758 166.253 24.4063 166.805 24.4521V24.4369Z" fill="white"/>
<path d="M127.341 25.8191C127.28 25.2235 127.249 24.6431 127.249 24.1162C127.249 23.6809 127.272 23.2838 127.318 22.9326H120.475L119.433 22.902H119.356L119.303 18.3202L119.356 13.2267H126.122C126.092 12.8144 126.069 12.4249 126.069 12.0431C126.069 11.4704 126.115 10.9206 126.184 10.3631C124.575 10.4089 122.873 10.4471 121.241 10.4471C119.433 10.4471 117.586 10.4089 115.893 10.3555C115.977 12.822 116.031 15.7238 116.031 18.3202C116.031 20.9166 115.946 24.9409 115.893 25.8344C119.755 25.7351 123.08 25.7351 127.333 25.8115L127.341 25.8191Z" fill="white"/>
<path d="M159.088 15.9977C158.82 15.3792 158.406 14.7912 157.885 14.2413L157.747 14.1039C157.747 14.1039 160.973 14.2184 161.119 14.2261C161.057 13.7526 161.027 13.2792 161.027 12.8133C161.027 12.3475 161.057 11.8893 161.111 11.4006C159.065 11.4846 156.789 11.5457 154.544 11.5686H154.46L154.475 10.8966C154.475 10.8966 154.521 8.44534 154.529 8.27734C153.939 8.35371 153.448 8.39953 152.789 8.39953C152.13 8.39953 151.64 8.35371 151.05 8.27734C151.05 8.44534 151.126 11.5686 151.126 11.5686H151.042C148.713 11.5533 146.368 11.4923 144.26 11.393C144.322 11.897 144.352 12.3552 144.352 12.8133C144.352 13.2715 144.314 13.7297 144.245 14.2261C144.398 14.2261 147.755 14.0963 147.755 14.0963L147.624 14.2413C147.103 14.7988 146.697 15.3868 146.414 16.0053C146.092 16.685 145.931 17.4257 145.931 18.1893V18.3039V18.3573V18.4184C145.992 20.0373 146.644 21.4653 147.893 22.6566C149.203 23.8861 150.827 24.5199 152.736 24.5199C154.644 24.5199 156.283 23.8937 157.601 22.6566L157.77 22.4963C157.77 22.4963 157.785 22.4886 157.808 22.4963C158.077 22.229 158.329 21.9159 158.575 21.5264C158.766 21.2286 158.935 20.9384 159.073 20.6253C159.41 19.9304 159.586 19.1973 159.586 18.4337C159.586 18.4337 159.586 18.3192 159.586 18.3115V18.197C159.586 17.441 159.41 16.7003 159.08 16.013L159.088 15.9977ZM155.103 20.885C154.467 21.6333 153.678 22.0075 152.759 22.0075C151.839 22.0075 151.027 21.6333 150.368 20.9003C149.709 20.1748 149.379 19.2584 149.379 18.1741C149.379 17.0897 149.701 16.2497 150.337 15.5013C150.973 14.753 151.762 14.3788 152.667 14.3788C153.571 14.3788 154.398 14.753 155.057 15.4861C155.724 16.2192 156.061 17.1279 156.061 18.1741C156.061 19.2203 155.747 20.1443 155.111 20.885H155.103Z" fill="white"/>
<path d="M104.084 30.6814C104.084 28.9861 103.394 27.5123 102.023 26.3134C100.651 25.0992 98.9651 24.4883 96.9804 24.4883C94.9957 24.4883 93.3406 25.0992 91.9536 26.3134C90.5819 27.5199 89.877 28.9937 89.877 30.6814C89.877 32.369 90.5819 33.8199 91.9536 35.0265C93.3482 36.2406 95.0417 36.8516 96.9804 36.8516C98.9191 36.8516 100.651 36.2406 102.023 35.0265C103.394 33.8123 104.084 32.3537 104.084 30.6814ZM99.5168 33.4381C98.7812 34.1865 97.9076 34.5606 96.8961 34.5606C95.8846 34.5606 95.0417 34.1788 94.3214 33.4076C93.6241 32.6516 93.2639 31.7352 93.2639 30.689C93.2639 29.5894 93.6317 28.6501 94.352 27.9017C95.0953 27.1457 95.9612 26.7716 96.9804 26.7716C97.9996 26.7716 98.8655 27.1534 99.5628 27.917C100.252 28.673 100.613 29.6046 100.613 30.6814C100.613 31.7581 100.237 32.6745 99.5168 33.4305V33.4381Z" fill="white"/>
<path d="M110.069 23.8548C109.985 23.3508 109.939 22.8392 109.939 22.3428C109.939 21.8465 109.985 21.3425 110.069 20.8385C106.59 20.9072 102.72 20.9454 98.5749 20.953H98.4906L98.5136 19.9297C98.5136 19.9297 98.5442 17.8908 98.5519 17.7305C98.0231 17.7992 97.5787 17.8374 96.981 17.8374C96.3833 17.8374 95.9312 17.7992 95.4101 17.7305C95.4101 17.8985 95.4561 20.6323 95.4561 20.6323V20.953H95.3871C91.2339 20.9454 87.3795 20.9072 83.9082 20.8385C83.9848 21.3348 84.0308 21.8465 84.0308 22.3428C84.0308 22.8392 83.9848 23.3508 83.9082 23.8548C88.3756 23.7708 92.7741 23.7327 96.981 23.7327C101.188 23.7327 105.609 23.7708 110.069 23.8548Z" fill="white"/>
<path d="M196.046 24.6958C195.954 22.9089 195.893 19.7245 195.893 17.762C195.893 16.0438 195.939 12.638 196.046 10.6602C193.272 10.7365 190.138 10.7747 187.165 10.7747C184.475 10.7747 180.529 10.7365 177.518 10.6602C177.564 11.1794 177.602 11.6682 177.602 12.1569C177.602 12.6456 177.571 13.1343 177.518 13.646C180.514 13.5696 184.468 13.5314 187.165 13.5314L192.514 13.5696V13.646C192.544 14.7991 192.56 15.4711 192.56 15.8758C192.56 16.0514 192.56 16.166 192.56 16.25V16.4027H192.552C192.552 18.434 192.498 22.8783 192.406 24.7034C192.552 24.6958 194.383 24.6423 194.383 24.6423C194.383 24.6423 195.901 24.6958 196.062 24.6958H196.046Z" fill="white"/>
<path d="M199.839 31.1504C199.763 30.6159 199.709 30.0813 199.709 29.5697C199.709 29.0581 199.763 28.5235 199.839 27.9966C196.483 28.0577 193.249 28.0959 189.878 28.1112H189.801L189.824 25.805C189.824 25.805 189.901 20.5664 189.901 20.3984C189.303 20.4672 188.774 20.5053 188.238 20.5053C187.701 20.5053 187.165 20.4672 186.567 20.3984C186.567 20.5664 186.644 26.0417 186.644 26.0417L186.667 28.1188H183.594L183.617 25.9653C183.617 25.9653 183.694 20.5664 183.694 20.3984C183.096 20.4672 182.575 20.5053 182.023 20.5053C181.471 20.5053 180.958 20.4672 180.36 20.3984C180.36 20.5664 180.437 26.1486 180.437 26.1486L180.46 28.0883C180.46 28.0883 174.276 27.9966 174.107 27.9966C174.192 28.5235 174.238 29.0581 174.238 29.5697C174.238 30.0813 174.192 30.6083 174.107 31.1504C178.445 31.0741 182.567 31.0283 186.912 31.0283C191.257 31.0283 195.487 31.0741 199.824 31.1504H199.839Z" fill="white"/>
<path d="M21.0498 41.9542C32.659 41.9542 42.0996 32.5385 42.0996 20.9771C42.0996 9.41564 32.6513 0 21.0498 0C9.44827 0 0 9.41564 0 20.9771C0 32.5385 9.44061 41.9542 21.0498 41.9542ZM0.881226 20.9771C0.881226 9.88909 9.92337 0.878182 21.0498 0.878182C32.1762 0.878182 41.2107 9.88909 41.2107 20.9695C41.2107 32.0498 32.1686 41.0607 21.0498 41.0607C9.93103 41.0607 0.881226 32.0498 0.881226 20.9771Z" fill="white"/>
<path d="M35.5553 18.8834C34.5515 11.751 28.3369 6.375 21.1032 6.375C13.8695 6.375 7.64724 11.7434 6.63574 18.8681L7.42501 18.9826C8.38287 12.2474 14.2603 7.16918 21.0955 7.16918C27.9308 7.16918 33.8158 12.255 34.766 18.9979L35.5553 18.8834Z" fill="white"/>
<path d="M17.2418 30.6672V30.4992L17.6173 30.4534L17.7093 30.4229L17.7476 30.316C17.7629 30.2091 17.7706 29.98 17.7706 29.6287V29.1552C17.7706 28.9949 17.7706 28.8116 17.7706 28.6207V28.4527L17.7552 28.3687L17.7246 28.3458L17.6403 28.3763C17.3798 28.4909 17.2188 28.5596 17.1422 28.6054L17.1192 28.5901L17.0962 28.468L17.0732 28.3458V28.3305C17.3185 28.2694 17.5024 28.2083 17.6403 28.1625C17.7782 28.1167 18.0004 28.0403 18.2993 27.9258L18.3453 27.9563C18.3453 27.9563 18.3453 28.0403 18.3376 28.1472C18.3299 28.2465 18.3223 28.3152 18.3223 28.3458C18.3223 28.4527 18.3146 28.7505 18.307 29.224V29.5218C18.307 29.8043 18.307 30.0105 18.3223 30.1174C18.3223 30.2854 18.3299 30.3847 18.3453 30.4152L18.3836 30.4534C18.3836 30.4534 18.5062 30.484 18.6671 30.4916H18.7974V30.6672C18.5062 30.6596 18.2763 30.652 18.0924 30.652C17.9698 30.652 17.6863 30.652 17.2495 30.6672H17.2418Z" fill="white"/>
<path d="M20.3759 29.1565L20.2456 29.3016L20.0617 29.355L19.8625 29.2863L19.7169 29.0954C19.6786 29.0114 19.6633 28.8892 19.6633 28.7441C19.6633 28.5456 19.6939 28.4081 19.7629 28.3241C19.8319 28.2401 19.9161 28.1943 20.0158 28.1943C20.146 28.1943 20.2456 28.2554 20.3146 28.3776C20.3836 28.4997 20.4142 28.6754 20.4142 28.8968C20.4142 29.0114 20.4066 29.0954 20.3836 29.1565H20.3759ZM20.0158 30.6227C20.1843 30.5539 20.3299 30.447 20.4755 30.3096C20.6135 30.1721 20.7284 30.0117 20.805 29.8132C20.8893 29.6147 20.9353 29.3779 20.9353 29.103C20.9353 28.8587 20.9047 28.6601 20.8433 28.5074C20.782 28.347 20.6824 28.2248 20.5522 28.1256C20.4219 28.0263 20.261 27.9805 20.0617 27.9805C19.8012 27.9805 19.5943 28.0645 19.4257 28.2401C19.2571 28.4157 19.1729 28.6525 19.1729 28.9503C19.1729 29.1947 19.2342 29.3856 19.3491 29.5154C19.464 29.6376 19.6096 29.7139 19.7859 29.7139L20.0694 29.6681L20.1384 29.6223C20.1843 29.5841 20.2686 29.5077 20.3989 29.3932C20.3759 29.5994 20.3529 29.7445 20.3223 29.8514C20.284 29.9812 20.2303 30.0957 20.1537 30.2027C20.0771 30.3096 19.9851 30.3859 19.8702 30.4547C19.7552 30.5157 19.6326 30.5539 19.5024 30.5539L19.3568 30.5234L19.3108 30.5997L19.464 30.7219C19.6556 30.7219 19.8395 30.6914 20.0081 30.615L20.0158 30.6227Z" fill="white"/>
<path d="M21.8394 28.9647C21.9237 28.8196 22.054 28.5981 22.2379 28.3003V28.6669L22.2226 28.9265V29.6443H21.4946C21.6402 29.3389 21.7475 29.1098 21.8318 28.9647H21.8394ZM22.4295 30.6523H22.9352L23.0961 30.6676V30.4996L22.8433 30.469L22.759 30.4385L22.7283 30.3698C22.7207 30.301 22.713 30.1712 22.713 29.9727H23.0885L23.0732 29.8276L23.0885 29.652L23.0732 29.629H22.7896L22.713 29.6367V29.1938C22.713 28.7738 22.7207 28.5065 22.7283 28.3843C22.7283 28.201 22.736 28.056 22.7513 27.972L22.713 27.9414C22.713 27.9414 22.6057 27.9567 22.4525 27.9949L22.2149 28.0407C22.1613 28.117 22.0693 28.2469 21.9391 28.453C21.8165 28.6516 21.6555 28.9418 21.4716 29.293C21.3337 29.5527 21.2494 29.7283 21.2188 29.8352L21.2417 30.0032C21.4793 30.0032 21.7168 29.9956 21.962 29.9956H22.2302C22.2226 30.2018 22.2226 30.3163 22.2149 30.3392L22.1766 30.4614L22.1153 30.492C22.1153 30.492 21.962 30.5072 21.7475 30.5225V30.6905L22.4371 30.6752L22.4295 30.6523Z" fill="white"/>
<path d="M24.0076 28.4765C24.0383 28.3772 24.0766 28.3085 24.1302 28.2627L24.3141 28.2016L24.4827 28.255L24.6053 28.4154C24.636 28.4918 24.659 28.6063 24.682 28.7514C24.7203 29.0263 24.7356 29.3012 24.7356 29.5761C24.7356 30.0038 24.6973 30.2634 24.6283 30.3779C24.5594 30.4848 24.4674 30.5383 24.3678 30.5383L24.1379 30.4238C24.0689 30.3398 24.023 30.187 23.9923 29.9503C23.9617 29.7136 23.9463 29.4387 23.9463 29.1408C23.9463 28.843 23.9693 28.6292 24.0076 28.4841V28.4765ZM23.4942 29.9656C23.5249 30.1336 23.5708 30.2787 23.6398 30.3779C23.7088 30.4925 23.8007 30.5841 23.9157 30.6376C24.0306 30.691 24.1609 30.7216 24.3141 30.7216C24.4444 30.7216 24.5517 30.7063 24.636 30.6681L24.8812 30.5154C24.9502 30.4467 25.0191 30.355 25.0728 30.2328C25.1264 30.1183 25.1724 29.9732 25.1954 29.8128C25.2184 29.6525 25.2337 29.4616 25.2337 29.2401C25.2337 28.927 25.203 28.6903 25.1494 28.5147C25.0958 28.339 25.0038 28.2016 24.8889 28.1023C24.7662 28.0107 24.5977 27.9648 24.3678 27.9648C24.2605 27.9648 24.1609 27.9801 24.0613 28.0107L23.8084 28.1634C23.7394 28.2245 23.6705 28.3085 23.6168 28.4154C23.5555 28.5223 23.5172 28.6292 23.5019 28.759C23.4712 28.9499 23.4482 29.1561 23.4482 29.3852C23.4482 29.599 23.4636 29.7823 23.4866 29.9579L23.4942 29.9656Z" fill="white"/>
<path d="M15.3637 3.18234L15.4326 3.22816L15.4939 3.35798C15.5399 3.52598 15.5936 3.70161 15.6395 3.91543L15.7698 4.47289L15.8618 4.89289C15.9231 5.12961 15.9537 5.26707 15.9767 5.32052L16.1223 5.57252C16.1913 5.64889 16.2756 5.71761 16.3905 5.77107C16.4978 5.82452 16.628 5.85507 16.7813 5.87034C16.9882 5.88561 17.2104 5.87034 17.4326 5.81689C17.6242 5.77107 17.7851 5.70998 17.9231 5.64125C18.061 5.56489 18.1683 5.47325 18.2602 5.37398C18.3445 5.26707 18.4058 5.15252 18.4441 5.04561C18.4825 4.93107 18.4901 4.80125 18.4748 4.65616C18.4595 4.51107 18.4441 4.37361 18.4058 4.23616L18.2909 3.71689C18.2526 3.5718 18.2143 3.35798 18.1606 3.0907C18.107 2.82343 18.084 2.6707 18.0917 2.63252L18.1146 2.55616C18.1146 2.55616 18.2296 2.49507 18.3675 2.46452L18.3292 2.28125L17.8388 2.41107L17.7775 2.42634C17.7315 2.43398 17.5706 2.46452 17.3024 2.51798L17.3484 2.70125C17.5169 2.66307 17.6242 2.65543 17.6779 2.6707L17.7392 2.70889C17.7392 2.70889 17.8005 2.85398 17.8464 3.03725C17.8694 3.12125 17.9231 3.35798 18.015 3.74743L18.1146 4.19798C18.1913 4.51107 18.2143 4.73252 18.1836 4.8547C18.1606 4.97689 18.0916 5.0838 17.9844 5.1907C17.8771 5.28234 17.7238 5.36634 17.5169 5.40452C17.333 5.4427 17.1874 5.45034 17.0572 5.42743C16.9346 5.40452 16.8273 5.3587 16.7583 5.28234C16.6817 5.21361 16.6204 5.1067 16.5744 4.96925C16.5514 4.90816 16.5131 4.74016 16.4518 4.48052L16.3905 4.22089L16.2679 3.70925C16.1989 3.39616 16.1606 3.19761 16.1606 3.09834L16.1836 3.0067C16.2219 2.96852 16.3215 2.93034 16.4748 2.89216L16.4288 2.70889L16.3445 2.7318L16.0533 2.80816L15.7545 2.88452L15.0342 3.02961L15.0802 3.21289L15.3713 3.1747L15.3637 3.18234Z" fill="white"/>
<path d="M20.1918 5.27579V5.09252H20.1458L19.9313 5.07725L19.8546 5.0467L19.824 5.00852C19.8086 4.97034 19.801 4.86343 19.801 4.69543C19.7933 4.44343 19.7857 4.2067 19.7857 3.96997V2.8627C20.6745 3.93943 21.3565 4.74888 21.8393 5.29107C21.9696 5.30634 22.0998 5.32161 22.2224 5.34452L22.2531 5.32161C22.2301 5.10779 22.2224 4.50452 22.2224 3.51943C22.2224 3.38961 22.2224 3.1987 22.2301 2.93143C22.2378 2.66416 22.2531 2.48852 22.2761 2.41979L22.3067 2.38925C22.3067 2.38925 22.4447 2.35107 22.6286 2.35107V2.16016C22.391 2.16779 22.2071 2.16779 22.0539 2.16779C21.9006 2.16779 21.732 2.16779 21.5481 2.16016V2.35107C21.7473 2.35107 21.8623 2.37397 21.9006 2.39688L21.9466 2.50379C21.9542 2.64888 21.9696 3.1147 21.9696 3.91652V4.43579C21.7627 4.22961 21.5021 3.92416 21.188 3.54997C20.7512 3.0307 20.3757 2.57252 20.0692 2.16779H19.8623L19.5328 2.17543C19.4408 2.17543 19.3029 2.17543 19.1113 2.16779V2.3587C19.2646 2.37397 19.3642 2.38161 19.3949 2.38925L19.4715 2.42743L19.5021 2.49616C19.5021 2.49616 19.5098 2.60307 19.5098 2.71761L19.5251 3.3667V4.08452C19.5251 4.28307 19.5251 4.44343 19.5098 4.56561C19.5098 4.77943 19.4868 4.91688 19.4791 4.97797L19.4485 5.06197L19.4102 5.09252C19.4102 5.09252 19.2876 5.10779 19.1113 5.11543V5.31397C19.3642 5.2987 19.5558 5.2987 19.7014 5.2987C19.7397 5.2987 19.9006 5.2987 20.1918 5.2987V5.27579Z" fill="white"/>
<path d="M6.39058 9.39394L6.4672 9.3634L6.54383 9.38631L6.71242 9.51613L7.2105 9.93613L7.75456 10.4096C7.90782 10.5394 8.02276 10.6463 8.11471 10.7303C8.26797 10.883 8.37525 10.9823 8.4059 11.0205L8.45188 11.0969V11.1503C8.45188 11.1503 8.37525 11.2572 8.26031 11.3947L8.4059 11.5245C8.56682 11.3336 8.68943 11.1809 8.78904 11.0663C8.81203 11.0434 8.91931 10.9289 9.11088 10.7074L8.97295 10.5929L8.9423 10.6234L8.78904 10.7761L8.72008 10.8143H8.66644C8.66644 10.8143 8.54383 10.7303 8.4059 10.6234C8.21433 10.463 8.03042 10.3027 7.85418 10.1576L7.01127 9.41685C8.4059 9.47031 9.47104 9.48558 10.199 9.47794C10.2986 9.39394 10.3982 9.30994 10.4902 9.23358V9.1954C10.3216 9.07322 9.86184 8.68376 9.11855 8.02703C9.01893 7.94303 8.87333 7.81322 8.68176 7.62994C8.48253 7.44667 8.36759 7.32449 8.32161 7.25576V7.21758C8.32161 7.1794 8.38291 7.08776 8.49786 6.95031L8.35226 6.82812C8.20667 7.0114 8.09173 7.15649 7.99211 7.27103C7.89249 7.38558 7.77755 7.50776 7.64728 7.63758L7.78521 7.75976C7.92314 7.61467 8.00743 7.53831 8.05341 7.53067L8.16069 7.56885C8.2833 7.64522 8.64345 7.95067 9.24881 8.47758L9.63962 8.82122C9.34077 8.83649 8.9423 8.83649 8.45188 8.82122C7.76989 8.80594 7.17219 8.78303 6.66644 8.74485L6.53617 8.90522L6.32927 9.15722C6.26797 9.22594 6.17602 9.32522 6.03809 9.46267L6.18368 9.59249C6.29862 9.47794 6.36759 9.41685 6.39058 9.39394Z" fill="white"/>
<path d="M24.2913 5.61194L24.3219 5.42866C24.184 5.40576 24.092 5.38285 24.0614 5.36757L24.0001 5.33703L23.9771 5.29121C23.9771 5.23776 23.9771 5.07739 24.0001 4.9323L24.0537 4.53521L24.184 3.6723C24.184 3.6723 24.2146 3.45085 24.2759 3.09957C24.2913 3.0003 24.3066 2.93157 24.3143 2.89339L24.3602 2.76357L24.3832 2.73303L24.4445 2.71012C24.4445 2.71012 24.5595 2.71012 24.7051 2.73303L24.7357 2.54212C24.4982 2.51157 24.253 2.48103 23.9848 2.44285C23.7472 2.40466 23.548 2.37412 23.3641 2.33594L23.3334 2.52685C23.4867 2.55739 23.5786 2.57266 23.6093 2.58794L23.6553 2.61848V2.6643C23.6706 2.71012 23.6553 2.82466 23.6399 3.00794C23.6323 3.09194 23.6016 3.27521 23.5556 3.56539L23.4254 4.45885C23.4024 4.60394 23.3794 4.7643 23.3334 4.9323C23.3028 5.04685 23.2951 5.17666 23.2874 5.19194L23.2645 5.22248L23.1955 5.23776C23.1955 5.23776 23.0805 5.23776 22.9349 5.21485L22.9043 5.39812C23.0882 5.42103 23.2951 5.44394 23.525 5.48212C23.7855 5.5203 24.0384 5.55848 24.2683 5.6043L24.2913 5.61194Z" fill="white"/>
<path d="M36.46 11.2467C36.3987 11.2926 36.2378 11.3918 35.9926 11.5446L35.2186 12.0257C35.0883 12.102 34.9504 12.186 34.7971 12.2624C34.6899 12.3158 34.5826 12.3846 34.5673 12.3998H34.5289L34.4753 12.354C34.46 12.3387 34.4063 12.27 34.3221 12.1478L34.1611 12.2471C34.2684 12.3998 34.3834 12.5678 34.506 12.7664C34.6516 13.0031 34.7742 13.2169 34.8968 13.4231L35.0577 13.3162C34.9887 13.2017 34.9427 13.1253 34.9351 13.0947V13.026L34.9427 12.9726C34.9734 12.9344 35.1037 12.8427 35.2263 12.7587L35.5634 12.5449L36.3067 12.0791C36.3067 12.0791 36.4906 11.9646 36.7971 11.7889L36.9811 11.682L37.1113 11.6209H37.1573L37.2109 11.6591C37.2263 11.682 37.2799 11.7507 37.3642 11.8806L37.5251 11.7737C37.3948 11.5751 37.2569 11.3689 37.119 11.1398C36.9964 10.9413 36.8891 10.758 36.7971 10.5977L36.6362 10.7046C36.7129 10.842 36.7588 10.926 36.7665 10.9489V11.01L36.7512 11.0482C36.7205 11.0787 36.6209 11.1475 36.4676 11.2467H36.46Z" fill="white"/>
<path d="M25.7012 3.22257C25.7165 3.35239 25.7471 3.72657 25.8008 4.35276L25.8621 5.16221C25.8851 5.46003 25.908 5.77312 25.9234 6.10148L26.2452 6.20839C26.4061 5.99457 26.705 5.6433 27.1341 5.15457L27.6398 4.58185L27.9004 4.28403C28.1149 4.03966 28.2452 3.90985 28.2989 3.88694C28.3295 3.88694 28.4061 3.88694 28.5441 3.92512L28.6054 3.74185L28.1533 3.60439L27.6322 3.42112L27.5709 3.60439L27.7931 3.69603L27.8621 3.72657L27.8851 3.76476V3.81821L27.8544 3.87166C27.8238 3.92512 27.7471 4.02439 27.6322 4.16948C27.4636 4.37566 27.3793 4.49021 27.3563 4.52076L26.5134 5.50585L26.4138 4.05494V4.00912C26.4138 4.00912 26.4138 3.91748 26.3985 3.77239C26.3755 3.52039 26.3755 3.36766 26.3908 3.32948L26.4215 3.28366H26.4904C26.5517 3.28366 26.6437 3.29894 26.751 3.33712L26.8123 3.16148L26.0613 2.92476C25.9847 2.90185 25.7854 2.83312 25.4559 2.71094L25.3946 2.88657C25.5249 2.93239 25.6015 2.97821 25.6398 3.01639C25.6628 3.0393 25.6858 3.11566 25.7012 3.23785V3.22257Z" fill="white"/>
<path d="M29.0962 5.09306L28.5982 5.94833C28.5445 6.0476 28.4449 6.20033 28.307 6.41415C28.238 6.52869 28.1767 6.61269 28.1384 6.65851H27.8855L27.8242 6.76542C28.2227 6.97924 28.4372 7.10142 28.4602 7.12433C28.5752 7.18542 28.7821 7.3076 29.0809 7.49088L29.3874 7.67415C29.5407 7.75815 29.6556 7.81924 29.7399 7.84978H29.7782C29.8779 7.67415 30.0081 7.48324 30.1844 7.25415L30.0311 7.16251C29.9008 7.32287 29.8166 7.42215 29.7553 7.46797L29.7093 7.48324C29.7093 7.48324 29.5943 7.46033 29.4794 7.39924C29.3568 7.33815 29.2265 7.26942 29.0886 7.19306C28.9507 7.10906 28.8357 7.04033 28.7361 6.9716L28.8664 6.73487L29.3338 5.92542C29.4181 5.97124 29.5254 6.02469 29.648 6.09342C29.7859 6.17742 29.8932 6.24615 29.9698 6.30724L30.0235 6.39887C30.0235 6.44469 29.9851 6.54397 29.8932 6.68906L30.0541 6.78833L30.2916 6.36069L30.5369 5.95597L30.3836 5.87197C30.3146 5.97887 30.261 6.05524 30.215 6.09342L30.169 6.11633L30.0388 6.06287C29.8549 5.9636 29.7476 5.90251 29.7169 5.88724L29.4564 5.72687L29.6786 5.33742C29.8089 5.11597 29.9238 4.94033 30.0235 4.81051C30.1461 4.8716 30.2687 4.92506 30.3759 4.99378C30.4909 5.06251 30.6135 5.13887 30.7284 5.23051L30.8664 5.34506V5.39851C30.851 5.43669 30.8051 5.52833 30.7208 5.68106L30.8664 5.76506C30.9736 5.60469 31.0349 5.52069 31.0426 5.50542L31.2342 5.25342V5.22287L31.1729 5.17706C31.0426 5.09306 30.9507 5.03197 30.9047 5.00906L30.5139 4.79524C30.2917 4.67306 30.1001 4.56615 29.9315 4.46687L29.6786 4.32178L29.2495 4.04688L29.1499 4.21487C29.2955 4.30651 29.3798 4.3676 29.4028 4.40578L29.4181 4.4516C29.4181 4.4516 29.3644 4.58142 29.2955 4.72651C29.1729 4.94033 29.1039 5.07015 29.0886 5.10069L29.0962 5.09306Z" fill="white"/>
<path d="M2.57424 17.9308L2.61256 17.9079C2.65087 17.9002 2.75049 17.9079 2.91141 17.946C3.15662 17.9995 3.28688 18.0224 3.3252 18.03L4.29072 18.2515C4.40566 18.2744 4.5819 18.3279 4.81945 18.3966C4.95738 18.4348 5.04934 18.4577 5.11064 18.4882L5.17961 18.7249L5.29455 18.7555C5.3865 18.3126 5.44014 18.0682 5.4478 18.0377C5.47846 17.9155 5.5321 17.6788 5.61639 17.3428L5.70068 16.9991C5.73899 16.8311 5.76198 16.7013 5.77731 16.6097L5.75432 16.5715C5.57041 16.5333 5.34052 16.4646 5.06466 16.3653L5.02635 16.5409C5.21026 16.6097 5.34052 16.6631 5.40183 16.7089L5.43248 16.7395C5.4478 16.7777 5.44014 16.854 5.42482 16.9915C5.40183 17.1289 5.37118 17.2664 5.34052 17.4191C5.30221 17.5795 5.2639 17.7093 5.23324 17.8239C5.15662 17.8009 5.07233 17.7933 4.97271 17.7628L4.06849 17.5566C4.08382 17.4649 4.09915 17.3504 4.13746 17.213C4.17577 17.0602 4.21409 16.938 4.2524 16.8388L4.32903 16.7624C4.37501 16.7471 4.47462 16.7624 4.64321 16.8006L4.68152 16.6097L4.21409 16.5104L3.74665 16.3959L3.70068 16.5715C3.83095 16.602 3.9229 16.6326 3.96888 16.6708L4.00719 16.7089L3.99187 16.8464C3.95355 17.0526 3.9229 17.1671 3.9229 17.2053C3.89225 17.3122 3.86926 17.4115 3.83861 17.5031L3.40183 17.4039C3.14895 17.3428 2.94972 17.2893 2.7888 17.2359C2.81179 17.106 2.83478 16.9686 2.86543 16.8464C2.89608 16.7089 2.93439 16.5715 2.98803 16.434L3.06466 16.2737L3.10298 16.2508C3.14129 16.2508 3.24857 16.2737 3.41715 16.3042L3.45547 16.1439C3.27922 16.0904 3.17194 16.0522 3.15662 16.0522L2.85777 15.9453H2.82711L2.79646 16.014C2.75049 16.1668 2.7275 16.2737 2.71217 16.3271L2.62022 16.7624C2.57424 17.0068 2.52826 17.2206 2.47462 17.4115L2.40566 17.694L2.27539 18.1828L2.4593 18.2209C2.51294 18.0529 2.54359 17.9613 2.56658 17.9231L2.57424 17.9308Z" fill="white"/>
<path d="M31.7091 6.77985L31.188 7.40603L30.7666 7.89476L30.5827 8.0704L30.529 8.10858H30.4831C30.4831 8.10858 30.3681 8.03222 30.2378 7.93294L30.1152 8.07803C30.2685 8.19258 30.4371 8.33003 30.6133 8.46749C30.8126 8.62785 31.0041 8.79585 31.1957 8.95622L31.3183 8.81113C31.211 8.71949 31.1497 8.6584 31.1344 8.63549L31.0961 8.5744V8.53622L31.1804 8.39876C31.211 8.36058 31.3106 8.23076 31.4945 7.9864C31.6478 7.79549 31.7934 7.61985 31.9313 7.44422C32.0233 7.33731 32.2072 7.13113 32.4677 6.81803C32.5903 6.68058 32.667 6.59658 32.6976 6.55076L32.8739 6.67294C33.0041 6.77222 33.0731 6.84858 33.1114 6.90967C33.165 6.99367 33.188 7.09294 33.1804 7.19985C33.1804 7.30676 33.1267 7.42131 33.0424 7.51294C32.9581 7.61222 32.8585 7.68858 32.7436 7.72676C32.6286 7.78022 32.5214 7.78785 32.4294 7.75731C32.3298 7.7344 32.2149 7.66567 32.0846 7.55113L32.0156 7.58931L32.0309 7.78785C32.0233 7.94058 32.0003 8.1544 31.962 8.4064L31.8317 9.29985L31.7934 9.42967L32.0693 9.64349C32.1459 9.70458 32.2685 9.81149 32.4447 9.95658L32.5597 9.81149L32.4601 9.71222L32.4371 9.62822C32.4371 9.62822 32.4371 9.48313 32.4447 9.29985C32.4447 9.29222 32.4524 9.20058 32.4677 9.04022L32.5367 8.42931V8.38349L32.552 8.2384L32.5827 8.00167C32.8126 8.07803 33.0194 8.10094 33.1957 8.05513C33.3719 8.01694 33.5175 7.92531 33.6248 7.78785C33.7244 7.67331 33.7704 7.55113 33.7781 7.42131C33.7781 7.29149 33.7474 7.17694 33.6861 7.08531C33.6171 6.98603 33.4945 6.86385 33.3183 6.71876C33.2263 6.6424 33.1037 6.55076 32.9658 6.44385C32.8739 6.37512 32.7742 6.29113 32.6516 6.19949C32.5137 6.08494 32.4064 6.00094 32.3375 5.93222C32.1842 5.8024 32.0999 5.72603 32.0693 5.70312L31.9543 5.84058C32.0846 5.9704 32.1536 6.04676 32.1765 6.08494V6.1384C32.1765 6.1384 32.0999 6.26058 31.985 6.40567L31.7014 6.76458L31.7091 6.77985Z" fill="white"/>
<path d="M33.2641 10.8222C33.1645 10.6924 33.1032 10.5549 33.0802 10.4098C33.0495 10.2571 33.0572 10.1349 33.0955 10.0356C33.2105 9.92872 33.3101 9.83709 33.402 9.776L33.2871 9.63091C33.0189 9.84472 32.7967 9.97454 32.6357 10.0356C32.6741 10.2265 32.72 10.3869 32.7813 10.5167C32.8426 10.6465 32.9269 10.7916 33.0342 10.9291C33.1798 11.1276 33.3407 11.2804 33.5093 11.3644C33.6089 11.4255 33.7315 11.4713 33.8695 11.4942C33.9997 11.5247 34.13 11.5324 34.2526 11.5171C34.4135 11.4865 34.5744 11.4178 34.72 11.3033L34.9269 11.0895L35.0342 10.8756V10.6465C35.0342 10.5625 35.0036 10.4633 34.9576 10.3564C34.9346 10.3105 34.8886 10.2265 34.812 10.0815C34.743 9.95163 34.6894 9.83709 34.6511 9.76072C34.6051 9.64618 34.5744 9.56218 34.5744 9.49345L34.6051 9.30254L34.766 9.11927C34.8733 9.04291 34.9959 9.01236 35.1492 9.03527C35.2947 9.06581 35.425 9.15745 35.5553 9.31781C35.6319 9.42472 35.6932 9.53927 35.7239 9.66145C35.7545 9.776 35.7545 9.87527 35.7315 9.95163C35.6779 10.0127 35.5859 10.0891 35.4557 10.196L35.5706 10.3335C35.6932 10.2495 35.7928 10.1807 35.8771 10.1273L36.13 9.99745L36.1606 9.95163C36.1377 9.83709 36.0917 9.71491 36.0227 9.57745C35.9614 9.44 35.8771 9.31781 35.7775 9.19563C35.6855 9.07345 35.5859 8.96654 35.471 8.87491C35.3637 8.78327 35.2334 8.72218 35.1032 8.67636C34.9729 8.62291 34.8273 8.62291 34.6817 8.65345C34.5285 8.684 34.3905 8.74509 34.2526 8.852L34.0227 9.08872C33.9614 9.188 33.9308 9.27963 33.9231 9.38654C33.9154 9.49345 33.9308 9.608 33.9767 9.73018C34.0074 9.80654 34.084 9.97454 34.199 10.2265C34.2833 10.4022 34.3216 10.5244 34.3446 10.6084L34.3139 10.8298L34.1606 11.0131L33.8771 11.1429C33.7775 11.1429 33.6779 11.1276 33.5706 11.0665C33.4633 11.0055 33.3714 10.9291 33.2794 10.8222H33.2641Z" fill="white"/>
<path d="M3.37915 21.2195C3.47877 21.1813 3.57072 21.1355 3.64735 21.0591C3.72398 20.9828 3.77762 20.8835 3.8236 20.7537C3.84659 20.6697 3.89256 20.4941 3.95387 20.2268C4.00751 20.0435 4.04582 19.9137 4.0918 19.845L4.25272 19.6846L4.49026 19.6311C4.60521 19.6311 4.69716 19.6617 4.78911 19.7151C4.87341 19.7686 4.94237 19.8526 4.98835 19.9595C5.03433 20.0664 5.05731 20.1962 5.05731 20.3337C5.05731 20.4941 5.01134 20.6391 4.94237 20.7766C4.86574 20.9141 4.78911 21.0057 4.6895 21.0591C4.53624 21.0744 4.39831 21.0744 4.29103 21.0744V21.2577C4.63586 21.2653 4.88873 21.2959 5.05731 21.3493C5.14927 21.1737 5.20291 21.0286 5.24888 20.8835C5.27954 20.7384 5.30252 20.5781 5.31019 20.4024C5.31785 20.1581 5.2872 19.9366 5.2259 19.761C5.17992 19.6541 5.11862 19.5395 5.03433 19.4326C4.95003 19.3257 4.85042 19.2417 4.7508 19.1806C4.60521 19.1042 4.43662 19.0584 4.25272 19.0508C4.13777 19.0508 4.04582 19.0584 3.96153 19.089L3.74697 19.1882L3.59371 19.3562C3.54774 19.4326 3.50942 19.5242 3.47111 19.6464C3.45578 19.6922 3.44046 19.7915 3.40214 19.9442C3.37149 20.097 3.3485 20.2115 3.33318 20.3031C3.29486 20.4101 3.26421 20.4941 3.2259 20.5551L3.0803 20.6773L2.84275 20.7231C2.71249 20.7231 2.58988 20.6621 2.49026 20.5551C2.39831 20.4406 2.34467 20.2879 2.35233 20.0893C2.35233 19.9519 2.38298 19.8221 2.43662 19.7151C2.49026 19.6006 2.55157 19.5242 2.61287 19.4784C2.68184 19.4708 2.80444 19.4631 2.97302 19.4631V19.2799C2.82743 19.2799 2.70482 19.257 2.61287 19.2493L2.32934 19.1959L2.2757 19.2111C2.2144 19.3181 2.17609 19.4402 2.14544 19.593C2.11479 19.7381 2.09946 19.8831 2.0918 20.0435C2.0918 20.1886 2.09946 20.3413 2.13011 20.4864C2.16076 20.6315 2.20674 20.7613 2.29103 20.8682C2.36766 20.9828 2.47494 21.0744 2.60521 21.1508C2.74314 21.2271 2.89639 21.2577 3.05731 21.2653C3.17992 21.2653 3.2872 21.2501 3.39448 21.2119L3.37915 21.2195Z" fill="white"/>
<path d="M39.9156 19.9404C39.8773 19.803 39.816 19.6732 39.7394 19.5662C39.6551 19.4517 39.5478 19.3677 39.4022 19.3066C39.2566 19.2379 39.1034 19.2073 38.9424 19.2226C38.8275 19.2226 38.7126 19.2455 38.6129 19.2913C38.5133 19.3371 38.429 19.3982 38.3601 19.4822C38.2911 19.5586 38.2375 19.6655 38.2068 19.7953C38.1838 19.8793 38.1532 20.055 38.0995 20.3222C38.0689 20.5055 38.0306 20.6353 37.9922 20.7193L37.839 20.8873L37.6014 20.9484C37.4865 20.9484 37.3869 20.9331 37.2949 20.8873C37.203 20.8415 37.134 20.7575 37.0804 20.6582C37.0267 20.5513 36.9961 20.4215 36.9961 20.2917C36.9884 20.1313 37.0267 19.9862 37.0804 19.8411C37.1493 19.7037 37.226 19.6044 37.3179 19.5433C37.4712 19.5204 37.6014 19.5052 37.7087 19.5052V19.3219C37.3562 19.3295 37.1034 19.3219 36.9348 19.2761C36.8581 19.4441 36.8045 19.6044 36.7739 19.7495C36.7509 19.8946 36.7355 20.055 36.7432 20.2382C36.7432 20.4826 36.7968 20.6964 36.8735 20.8644C36.9271 20.979 36.9884 21.0859 37.088 21.1851C37.18 21.2844 37.2796 21.3684 37.3945 21.4219C37.5401 21.4906 37.7087 21.5288 37.8926 21.5211C37.9999 21.5211 38.0995 21.4982 38.1838 21.4677L38.3984 21.3531L38.544 21.1699C38.5823 21.0935 38.6129 21.0019 38.6436 20.8797C38.6436 20.8339 38.6666 20.727 38.6819 20.5742C38.7049 20.4215 38.7202 20.307 38.7355 20.2153C38.7585 20.1008 38.7892 20.0168 38.8275 19.9633L38.9654 19.8259L39.203 19.7648C39.3409 19.7648 39.4558 19.8106 39.5631 19.9175C39.6704 20.0244 39.724 20.1771 39.7317 20.3757C39.7317 20.5131 39.7164 20.643 39.6704 20.7575C39.6244 20.8721 39.5708 20.9561 39.5095 21.0019C39.4329 21.0171 39.3179 21.0248 39.1493 21.0401V21.2233C39.3026 21.2233 39.4329 21.2233 39.5171 21.2233L39.8007 21.2615L39.8543 21.2462C39.9003 21.1393 39.9386 21.0095 39.9616 20.8644C39.9846 20.7117 39.9922 20.5666 39.9846 20.4062C39.9846 20.2535 39.9539 20.1084 39.9156 19.971V19.9404Z" fill="white"/>
<path d="M37.2563 12.7824C37.3712 12.7366 37.4862 12.6984 37.5858 12.6755H37.6701L37.7161 12.7442C37.7697 12.8511 37.831 12.9809 37.8923 13.1184L38.0226 13.4086C38.0226 13.4086 37.8004 13.5079 37.4709 13.6529L36.2525 14.1722C35.9613 14.302 35.7774 14.3708 35.7161 14.386L35.6088 14.3479C35.6088 14.3479 35.5245 14.2409 35.4479 14.0806L35.2793 14.1493C35.4019 14.3937 35.5015 14.6151 35.5781 14.806C35.6624 14.9817 35.7467 15.2108 35.854 15.478L36.0226 15.4017C35.9613 15.2413 35.9306 15.1344 35.9306 15.0962L35.9843 15.0046C36.0379 14.9588 36.2065 14.8824 36.5053 14.7526L37.7237 14.2333C38.0456 14.0882 38.2295 14.0195 38.2831 13.9966L38.4057 14.2868C38.4747 14.4471 38.5283 14.5769 38.5667 14.6915L38.582 14.7679L38.5054 14.8366C38.4134 14.89 38.3138 14.9435 38.2142 14.9969L38.2831 15.1573C38.5743 15.0428 38.7199 14.9817 38.7352 14.974L38.9575 14.9053L38.9728 14.8748L38.8808 14.6991C38.8272 14.5846 38.7276 14.3555 38.582 14.0195L38.2295 13.2024C38.0839 12.874 37.9919 12.6449 37.946 12.5304L37.877 12.3242H37.8463L37.6624 12.4159C37.6241 12.4311 37.4709 12.4999 37.195 12.622L37.2716 12.79L37.2563 12.7824Z" fill="white"/>
<path d="M37.3491 16.2282C37.0579 16.1901 36.8664 16.1595 36.7667 16.1442C36.5598 16.1061 36.4372 16.0831 36.3989 16.0755L36.3223 16.045L36.2763 15.9915C36.2763 15.9915 36.238 15.9075 36.1997 15.793L36.0234 15.8388L36.1537 16.3275L36.261 16.8315L36.4449 16.7857C36.4066 16.6101 36.3913 16.5031 36.4066 16.465L36.4755 16.4115C36.5215 16.3962 36.6518 16.4115 36.8664 16.4344L37.1499 16.465L37.4181 17.5722L36.989 17.8701L36.828 17.9541L36.7591 17.9388C36.7591 17.9388 36.7131 17.8242 36.6595 17.6562L36.4832 17.7021L36.6748 18.4504L36.805 19.0537L36.9813 19.0079V18.9162L36.9583 18.7788L36.9736 18.733L37.0273 18.6795L37.1959 18.5497L37.4564 18.3435L39.4717 16.8468L39.4027 16.5413L38.8664 16.4726L37.3491 16.2359V16.2282ZM37.648 17.3966C37.6096 17.2744 37.5713 17.1217 37.533 16.9613C37.4947 16.7933 37.4564 16.6406 37.4334 16.5032L38.6441 16.6788L37.648 17.3966Z" fill="white"/>
<path d="M38.8041 23.0781C38.3444 23.0781 37.9766 23.4523 37.9766 23.9029C37.9766 24.3534 38.3444 24.7276 38.8041 24.7276C39.2639 24.7276 39.6317 24.361 39.6317 23.9029C39.6317 23.4447 39.2639 23.0781 38.8041 23.0781Z" fill="white"/>
<path d="M39.2107 26.5975L39.1724 26.6204H39.1264C39.1264 26.6204 39.0115 26.5975 38.8736 26.544C38.8506 26.544 38.7739 26.5059 38.636 26.4524L38.0919 26.2309L37.6475 26.0477L37.4559 25.9637L37.3257 25.8644C37.3257 25.8644 37.3257 25.7575 37.3716 25.6429V25.6277L37.249 25.5742L37.0728 26.04C37.0575 26.0782 37.0192 26.1699 36.9578 26.2997L37.1341 26.4753C37.1801 26.5211 37.3027 26.6509 37.5019 26.8648L37.8544 27.2466C37.9464 27.3459 38.069 27.4833 38.2375 27.6742L37.0115 27.7582H36.728L36.3601 27.7888C36.3218 27.8957 36.2835 28.0102 36.2375 28.1171C36.2069 28.2011 36.1456 28.3386 36.0536 28.56L36.1839 28.6135L36.2835 28.4302L36.3218 28.3844H36.3601C36.3601 28.3844 36.4981 28.4149 36.659 28.476C36.8199 28.5371 37.0115 28.6135 37.2261 28.6975C37.4636 28.7891 37.6322 28.8579 37.7318 28.9037C37.931 28.9877 38.0536 29.0488 38.1149 29.0793L38.1686 29.1175V29.1557C38.1686 29.1557 38.1609 29.2626 38.1226 29.3771L38.2529 29.4306C38.2835 29.3313 38.3295 29.2091 38.3985 29.0488C38.4444 28.9266 38.4981 28.812 38.5517 28.6899L38.4215 28.6364C38.3678 28.7433 38.3372 28.8044 38.3295 28.8197L38.2835 28.8579H38.2222C38.2222 28.8579 38.0919 28.812 37.9157 28.7433C37.7395 28.6822 37.5862 28.6211 37.4559 28.5677L36.682 28.2622L37.6935 28.1859C37.8467 28.1782 38.0843 28.1629 38.3908 28.1477C38.567 28.14 38.7126 28.1324 38.8123 28.1324L38.8506 28.0255L38.6283 27.7964C38.4828 27.636 38.3601 27.5139 38.2835 27.4299L37.9923 27.1091L37.4023 26.4524L38.5441 26.9106C38.7663 26.9946 38.8965 27.0557 38.9272 27.0786L38.9885 27.1473C38.9885 27.1473 38.9655 27.2466 38.9195 27.3764L39.0498 27.4299L39.2414 26.9411L39.4483 26.4524L39.318 26.3989C39.2644 26.5135 39.2337 26.5746 39.226 26.5899L39.2107 26.5975Z" fill="white"/>
<path d="M37.295 29.7733L37.0344 29.5824L36.6973 29.3762C36.59 29.3075 36.4597 29.2235 36.2911 29.1013C36.1226 28.9868 36.0306 28.9257 36.0076 28.8951L35.9846 28.8417L36.0689 28.6584L35.9463 28.582L35.7547 28.9104L35.7318 28.9486C35.7318 28.9486 35.6475 29.0784 35.5249 29.254L35.6475 29.3304C35.7164 29.2235 35.7701 29.1548 35.8084 29.1395H35.862C35.862 29.1395 35.9693 29.17 36.0919 29.2464C36.1455 29.2769 36.2988 29.3762 36.5593 29.5366L36.8582 29.7198C37.0651 29.8497 37.1954 29.9489 37.2413 30.0329C37.295 30.1093 37.318 30.2086 37.318 30.3078C37.318 30.4224 37.2643 30.5446 37.18 30.6744C37.1034 30.7966 37.0344 30.8806 36.9501 30.934L36.7049 31.018L36.4444 30.9493C36.4061 30.9264 36.2911 30.8577 36.1149 30.7508L35.9463 30.6438L35.6092 30.4377C35.4023 30.3078 35.272 30.2162 35.2183 30.1704L35.1877 30.1093C35.1877 30.0711 35.2183 29.9948 35.2796 29.8878L35.1647 29.8191L35.1341 29.8726L35.0191 30.0711L34.8965 30.2697L34.5977 30.7355L34.7203 30.8118L34.8582 30.6362H34.9195L35.0268 30.6668C35.1417 30.7278 35.2643 30.8042 35.4023 30.8806L35.7701 31.1173L36.0536 31.2929C36.2068 31.3846 36.2988 31.4457 36.3371 31.4609L36.544 31.5144L36.7969 31.4838L37.0498 31.3311C37.1724 31.2318 37.2796 31.102 37.3716 30.9569C37.4482 30.8348 37.5019 30.7126 37.5325 30.598C37.5632 30.4835 37.5785 30.3842 37.5632 30.2773C37.5632 30.178 37.5325 30.0864 37.4865 30.01L37.295 29.7886V29.7733Z" fill="white"/>
<path d="M36.1687 32.3165L36.1227 32.3471H36.0767L35.8851 32.2172L35.6399 32.034L35.0882 31.614C35.0882 31.614 34.9503 31.5071 34.7357 31.3314L34.6054 31.2245L34.5288 31.1405V31.11V31.0565L34.6438 30.8885L34.5212 30.7969C34.4139 30.9496 34.2989 31.11 34.1687 31.2703C34.0537 31.4231 33.9541 31.5452 33.8545 31.6598L33.9694 31.7514L34.115 31.5911L34.1533 31.5758H34.1917C34.1917 31.5758 34.2989 31.6445 34.4139 31.7285C34.4675 31.7667 34.5825 31.8583 34.7587 31.9958L35.3258 32.4311C35.4177 32.4998 35.5173 32.5761 35.6169 32.6754L35.7395 32.7823L35.7549 32.8129L35.7395 32.8663L35.6246 33.0267L35.7472 33.1183C35.8315 33.0038 35.9235 32.8663 36.0384 32.7212C36.1687 32.5532 36.2913 32.4005 36.4062 32.2554L36.2913 32.1638L36.1533 32.3165H36.1687Z" fill="white"/>
<path d="M33.5251 35.1411L33.4715 35.1564L33.4331 35.1411L33.2722 34.9808L33.0653 34.7441L32.6209 34.2171C32.6209 34.2171 32.5136 34.0873 32.3297 33.8659L32.2301 33.7361L32.1688 33.6368V33.6062L32.1918 33.5604L32.3374 33.423L32.2377 33.3008C32.0998 33.4306 31.9542 33.5604 31.7933 33.6979C31.6554 33.8124 31.5174 33.9193 31.4102 34.011L31.5098 34.1255L31.686 33.9957H31.732L31.7626 34.0033C31.7933 34.0262 31.8546 34.0873 31.9542 34.1942C32.0002 34.2401 32.0921 34.3546 32.2377 34.5226L32.6975 35.0648C32.7741 35.1564 32.8508 35.2557 32.9351 35.3626L33.027 35.5001V35.5306L33.004 35.5764L32.8584 35.7139L32.9504 35.8361C33.0577 35.7368 33.1803 35.6299 33.3182 35.5077C33.4791 35.3702 33.6324 35.2481 33.778 35.1335L33.686 35.019L33.5251 35.1411Z" fill="white"/>
<path d="M14.8886 36.4567C14.7124 36.388 14.5591 36.3269 14.4288 36.2734L14.3752 36.4109C14.4902 36.4643 14.5515 36.4873 14.5744 36.4949L14.6051 36.5331V36.5713C14.6051 36.5713 14.5821 36.7011 14.5285 36.8309C14.5131 36.892 14.4595 37.0294 14.3752 37.2433L14.1223 37.9076C14.084 38.0145 14.038 38.1367 13.9767 38.2589L13.9078 38.404L13.8848 38.4193H13.8388C13.8388 38.4193 13.7545 38.3963 13.6396 38.3582L13.5859 38.4956C13.7239 38.5414 13.8771 38.5949 14.0457 38.6636C14.2449 38.7323 14.4288 38.8087 14.5974 38.8927L14.6511 38.7476C14.5515 38.7094 14.4902 38.6789 14.4672 38.6636L14.4288 38.6254V38.5873C14.4288 38.5873 14.4442 38.4727 14.4825 38.3658L14.5898 38.0756L14.835 37.4342C14.835 37.4342 14.8963 37.2738 14.9959 37.0142L15.0649 36.8538L15.1185 36.7545L15.1415 36.7393H15.1951C15.1951 36.7393 15.2794 36.7622 15.3867 36.8003L15.4403 36.6629C15.2641 36.6018 15.0802 36.5331 14.881 36.4643L14.8886 36.4567Z" fill="white"/>
<path d="M11.5016 34.6616C11.3484 34.5624 11.2104 34.4631 11.0955 34.3867L11.0112 34.5089C11.1108 34.5776 11.1721 34.6234 11.1875 34.6387L11.2104 34.6769V34.7151C11.2104 34.7151 11.1415 34.8296 11.0725 34.9518C11.0342 35.0129 10.9576 35.1351 10.835 35.326L10.4442 35.9216C10.3752 36.0209 10.3062 36.1202 10.2219 36.2347L10.13 36.3645L10.0993 36.3798L10.0457 36.3645C10.0457 36.3645 9.96906 36.3264 9.86945 36.2653L9.78516 36.3951C9.91542 36.4714 10.0457 36.5478 10.2066 36.6547C10.3829 36.7693 10.5438 36.8762 10.697 36.9831L10.7813 36.8609L10.6127 36.7387L10.5821 36.6929V36.6547L10.6894 36.4562L10.858 36.1889L11.2334 35.6162C11.2334 35.6162 11.3254 35.4711 11.4863 35.242L11.5859 35.1045L11.6549 35.0205L11.6855 35.0053H11.7315L11.9154 35.1198L11.9997 34.99C11.8388 34.8984 11.6702 34.7914 11.494 34.6845L11.5016 34.6616Z" fill="white"/>
<path d="M34.8893 33.8072H34.805C34.759 33.769 34.6518 33.6774 34.4755 33.5018L33.7399 32.7916C33.5407 32.6007 33.4334 32.4938 33.4027 32.4632L33.5713 32.2876L33.8165 32.0508L33.8625 32.0279L33.9315 32.0585L34.1307 32.2188L34.2303 32.1196C34.0541 31.9439 33.9698 31.8676 33.9621 31.8523L33.8472 31.7148H33.8242L33.7246 31.837C33.6556 31.9058 33.5253 32.0432 33.3261 32.2494L32.8433 32.7458C32.6518 32.9443 32.5138 33.0741 32.4449 33.1428L32.3223 33.2574V33.2803L32.4525 33.3796C32.4755 33.3948 32.5675 33.4865 32.7437 33.6468L32.8433 33.5476L32.6671 33.3414L32.6364 33.2803L32.6748 33.2268L32.8893 32.9825L33.0579 32.8068C33.0579 32.8068 33.2035 32.9367 33.4027 33.1276L34.1307 33.8454C34.3146 34.0134 34.4142 34.1279 34.4372 34.1661L34.4525 34.2501L34.3069 34.4487L34.4066 34.5479C34.5445 34.3876 34.6748 34.2501 34.7897 34.1356C34.897 34.0287 35.0349 33.9065 35.1958 33.7538L35.0962 33.6545L34.9046 33.8072H34.8893Z" fill="white"/>
<path d="M17.356 37.4399L17.4096 37.4705V37.5469L17.3637 37.7912L17.4939 37.837C17.5629 37.6003 17.6012 37.4858 17.6089 37.4781L17.6778 37.3101L17.6625 37.2949L17.5092 37.2643C17.4173 37.2338 17.2257 37.1879 16.9499 37.1116L16.2832 36.9207C16.015 36.8443 15.8387 36.7909 15.7391 36.7603L15.5782 36.6992L15.5629 36.7145L15.5322 36.8749C15.5322 36.8749 15.4863 37.0276 15.4326 37.2567L15.5705 37.2949L15.6702 37.0429L15.7085 36.997H15.7774C15.8694 37.0199 15.9767 37.0429 16.0916 37.081L16.3292 37.1498C16.3292 37.1498 16.2832 37.333 16.1989 37.6003L15.9154 38.5854C15.8464 38.8221 15.8004 38.9672 15.7774 39.0054L15.7085 39.0589C15.7085 39.0589 15.6012 39.0512 15.4709 39.0207L15.4326 39.1505C15.6395 39.2039 15.8158 39.2498 15.9767 39.2879C16.1223 39.3261 16.2985 39.3872 16.5131 39.4636L16.5514 39.3261C16.4211 39.2803 16.3445 39.2498 16.3292 39.2345L16.2985 39.1581C16.2985 39.097 16.3292 38.9596 16.4058 38.7305L16.6893 37.7454C16.766 37.4858 16.8043 37.333 16.8273 37.2949L17.0571 37.3636C17.1874 37.4018 17.2947 37.4323 17.379 37.4705L17.356 37.4399Z" fill="white"/>
<path d="M9.31799 35.1181L9.96933 34.3239C10.1379 34.1101 10.2375 33.9956 10.2682 33.965L10.4597 34.1178C10.5594 34.1941 10.6513 34.2705 10.7126 34.3392L10.7509 34.385L10.7203 34.4538L10.5747 34.6676L10.6896 34.7592C10.8429 34.5759 10.9272 34.4767 10.9348 34.469L11.0651 34.3392V34.3163L10.9348 34.2247C10.8582 34.1636 10.705 34.0414 10.4827 33.8658L9.94634 33.4305C9.73178 33.2548 9.57852 33.1327 9.50956 33.0716L9.38695 32.957H9.36396L9.27967 33.0869C9.27967 33.0869 9.18005 33.2167 9.03446 33.3999L9.1494 33.4916L9.34097 33.3007L9.39461 33.2625L9.45592 33.293L9.71645 33.4916L9.90802 33.6443C9.90802 33.6443 9.79308 33.797 9.61684 34.0109L8.97316 34.805C8.8199 35.0036 8.72028 35.1105 8.68197 35.1334L8.59768 35.1563C8.59768 35.1563 8.49806 35.1028 8.39078 35.0188L8.29883 35.1334C8.46741 35.2556 8.62067 35.3701 8.74327 35.4694C8.85822 35.5687 9.00381 35.6832 9.17239 35.8283L9.25668 35.7214C9.1494 35.6298 9.09576 35.5687 9.0881 35.5458V35.4618C9.11109 35.4159 9.19538 35.2938 9.34864 35.1105L9.31799 35.1181Z" fill="white"/>
<path d="M31.4099 35.0827L31.3562 34.7773C31.3103 34.5329 31.2949 34.3878 31.3026 34.3573L31.4482 34.2198L31.3639 34.0977L31.065 34.3038L30.6972 34.5406L30.7739 34.6627L30.9424 34.5711L30.9961 34.5482H31.0267L31.065 34.5864L31.088 34.6169C31.1034 34.6627 31.1263 34.762 31.157 34.8995C31.203 35.1057 31.226 35.2126 31.226 35.2431L31.4252 36.2358L30.4827 35.5944L30.452 35.5715L30.3064 35.4722C30.1455 35.3577 30.0536 35.2889 30.0306 35.2584V35.2126L30.0459 35.1667L30.2145 35.0369L30.1302 34.9147L29.6168 35.2507C29.5708 35.2889 29.4252 35.3729 29.1953 35.518L29.2796 35.6402L29.4712 35.5486L29.6398 35.6173C29.724 35.6631 29.9693 35.8311 30.3754 36.106L30.8965 36.4573C31.088 36.5871 31.2949 36.7246 31.5018 36.8773L31.7241 36.7322C31.6781 36.5337 31.6014 36.1824 31.5095 35.6784L31.4022 35.0904L31.4099 35.0827Z" fill="white"/>
<path d="M14.0996 36.3109C14.0996 36.3109 14.1916 36.3262 14.2912 36.3643L14.3602 36.2345L14.023 36.0742L13.6398 35.868L13.5709 35.9978L13.7318 36.0971L13.7854 36.1353V36.1658V36.204L13.7625 36.2422C13.7625 36.2422 13.6552 36.3491 13.5479 36.4407C13.4023 36.5782 13.3103 36.6545 13.295 36.6698L12.5287 37.3342L12.6284 36.1963V36.1658C12.6284 36.1658 12.636 36.0971 12.6437 35.9825C12.659 35.784 12.682 35.6694 12.6973 35.6465L12.728 35.616H12.7893L12.9808 35.6923L13.0498 35.5625L12.4981 35.3029C12.4444 35.2723 12.2989 35.196 12.0536 35.0662L11.9923 35.196L12.1609 35.3182C12.1609 35.3182 12.1839 35.4022 12.1839 35.5014C12.1839 35.5931 12.1609 35.8909 12.1226 36.3796L12.0766 37.0058C12.0536 37.2349 12.0383 37.4793 12.0153 37.7313L12.2452 37.8458C12.3985 37.7083 12.659 37.4716 13.0575 37.1433L13.5172 36.7538L13.7548 36.5629C13.954 36.3949 14.0613 36.3109 14.1073 36.3033L14.0996 36.3109Z" fill="white"/>
<path d="M30.3449 37.3941H30.276C30.276 37.3941 30.1764 37.333 30.0461 37.272C30.0461 37.272 29.9771 37.2338 29.8699 37.1727L29.4561 36.9283L29.4254 36.913L29.3258 36.852L29.1649 36.7527C29.2951 36.6152 29.3718 36.4778 29.4024 36.3403C29.4254 36.1952 29.4024 36.0654 29.3488 35.9432C29.2951 35.8363 29.2262 35.7676 29.1342 35.7218L28.8584 35.6836C28.7664 35.6989 28.6361 35.7447 28.4829 35.821C28.3986 35.8592 28.299 35.9127 28.1687 35.989C28.0997 36.0272 28.0001 36.073 27.8928 36.1341C27.7626 36.1952 27.6706 36.241 27.6017 36.2792C27.4637 36.3403 27.3794 36.3861 27.3564 36.3938L27.4101 36.516C27.548 36.4625 27.6246 36.432 27.6553 36.432L27.6936 36.4472C27.6936 36.4472 27.7626 36.5389 27.8239 36.6687L27.9925 36.9894L28.276 37.5545L28.4829 38.005L28.5518 38.196V38.2418L28.5442 38.2723C28.5289 38.2876 28.4599 38.3334 28.345 38.3945L28.4139 38.532C28.5442 38.4556 28.6898 38.3792 28.8507 38.2952C29.0269 38.2036 29.2108 38.1196 29.3871 38.0432L29.3258 37.9058C29.2262 37.9516 29.1649 37.9745 29.1419 37.9898H29.0499L28.981 37.8752C28.9656 37.8523 28.9043 37.7301 28.7971 37.524C28.7051 37.356 28.6208 37.1956 28.5518 37.0352C28.4982 36.9436 28.4063 36.745 28.276 36.4549C28.2147 36.325 28.1764 36.241 28.1534 36.2029L28.299 36.1189C28.4063 36.0578 28.4905 36.0272 28.5365 36.0272L28.7664 36.073L28.9503 36.2792L29.0116 36.5618L28.9273 36.7985C28.8813 36.8596 28.7971 36.9207 28.6745 36.9741V37.0276L28.8277 37.081C28.9427 37.1345 29.0806 37.2261 29.2492 37.3254L29.8392 37.6996L29.9235 37.7683L30.161 37.6461C30.23 37.608 30.345 37.5545 30.5059 37.4858L30.4446 37.356L30.3449 37.3941Z" fill="white"/>
<path d="M4.82792 30.3785C4.82792 30.3785 4.86624 30.3098 4.91988 30.1953L5.14976 29.7753L5.16509 29.7371L5.21873 29.6302L5.31068 29.4774C5.45628 29.5996 5.59421 29.676 5.7398 29.6989C5.87773 29.7218 6.008 29.6989 6.1306 29.6302C6.23022 29.5767 6.30685 29.508 6.34516 29.4087L6.37582 29.1338C6.35283 29.0422 6.29919 28.92 6.22256 28.7596C6.17658 28.6756 6.12294 28.5763 6.05398 28.4542C6.008 28.3854 5.96202 28.2938 5.90072 28.1869C5.83942 28.0647 5.78578 27.9731 5.74746 27.8967C5.6785 27.7593 5.64018 27.6753 5.62486 27.6523L5.50225 27.7211C5.56356 27.8433 5.59421 27.9273 5.59421 27.9578L5.57888 27.996C5.57888 27.996 5.48693 28.0647 5.36432 28.1334L5.05015 28.3091L4.4831 28.6145L4.03865 28.836L3.85474 28.9123H3.80877L3.77811 28.9047C3.75513 28.8894 3.71681 28.8283 3.64785 28.7062L3.51758 28.7825C3.59421 28.9123 3.6785 29.0574 3.75513 29.2102C3.84708 29.3858 3.93903 29.5614 4.02333 29.7294L4.15359 29.6607L4.0693 29.4851V29.4393V29.4087L4.16892 29.3323C4.16892 29.3323 4.31451 29.2483 4.51375 29.1414C4.68233 29.0422 4.84325 28.9582 4.99651 28.8818C5.08846 28.8283 5.28003 28.7291 5.57122 28.584C5.70149 28.5229 5.77811 28.4847 5.82409 28.4618L5.90838 28.5993C5.96202 28.7062 6.00034 28.7902 6.008 28.836L5.96202 29.0727L5.77045 29.2636L5.48693 29.3323L5.24938 29.2636C5.18808 29.2178 5.12677 29.1338 5.06547 29.0116H5.01183L4.96585 29.1643C4.91988 29.2789 4.83559 29.4163 4.72831 29.592L4.36815 30.1953L4.29919 30.2716L4.42946 30.5083C4.46777 30.5771 4.52141 30.6916 4.59804 30.8443L4.72064 30.7756L4.68233 30.6687L4.69765 30.6C4.69765 30.6 4.74363 30.4931 4.79727 30.3633L4.82792 30.3785Z" fill="white"/>
<path d="M27.6627 38.1518C27.6856 38.3045 27.701 38.4114 27.701 38.4725L27.6856 38.503L27.5171 38.6023C27.4251 38.6405 27.3178 38.6787 27.1952 38.7169C27.0726 38.755 26.9653 38.7856 26.881 38.8161L26.8121 38.61L26.5822 37.9227C26.6512 37.8921 26.7354 37.8692 26.8427 37.831C26.9577 37.7929 27.0573 37.77 27.1339 37.7547L27.2182 37.7776C27.2182 37.7776 27.2795 37.8769 27.3178 37.999L27.4558 37.9532L27.3331 37.602L27.2259 37.2354L27.0956 37.2812C27.1263 37.3805 27.1416 37.4492 27.1416 37.495V37.5332L27.0343 37.579C26.881 37.6325 26.7891 37.6631 26.7661 37.6707L26.5362 37.7394L26.4213 37.4034C26.36 37.2125 26.314 37.0598 26.291 36.93C26.3906 36.8918 26.4826 36.8612 26.5822 36.823C26.6818 36.7849 26.7891 36.762 26.904 36.739L27.042 36.7238L27.0726 36.7467C27.0726 36.7467 27.1186 36.8536 27.1646 36.9758L27.2948 36.93C27.2642 36.7849 27.2335 36.7161 27.2335 36.6932L27.1876 36.4565L27.1722 36.4336H27.1109C26.996 36.4794 26.9117 36.5023 26.8657 36.5176L26.5362 36.6321C26.3523 36.6932 26.1914 36.7543 26.0381 36.8001L25.8236 36.8689L25.4404 36.9834L25.4864 37.1209C25.6167 37.0903 25.701 37.0674 25.7316 37.075L25.7623 37.0903C25.7623 37.0903 25.8159 37.182 25.8619 37.3041C25.9232 37.4798 25.9615 37.5943 25.9692 37.6172L26.2067 38.3503C26.2374 38.4343 26.2757 38.5718 26.3293 38.755C26.36 38.862 26.383 38.9383 26.3906 38.9841L26.2604 39.1292L26.291 39.2209C26.6205 39.1063 26.8044 39.0376 26.8274 39.03C26.927 38.9994 27.1109 38.946 27.3638 38.862L27.632 38.7856C27.7546 38.7398 27.8542 38.7016 27.9232 38.671V38.6405C27.8849 38.503 27.8466 38.3198 27.8006 38.106L27.6627 38.1441V38.1518Z" fill="white"/>
<path d="M6.27632 32.142C6.13839 32.2183 6.03877 32.2565 5.98513 32.2718H5.94682L5.80889 32.1343L5.60199 31.8671C5.53303 31.7678 5.47172 31.6762 5.42575 31.5998L5.59433 31.47L6.18437 31.05L6.35295 31.2638L6.51387 31.5234V31.6074C6.51387 31.6074 6.4449 31.6914 6.33763 31.7678L6.42958 31.8823L6.72843 31.6609L7.04261 31.4471L6.95831 31.3325L6.76674 31.4394H6.72077L6.6518 31.3631C6.55218 31.2332 6.49854 31.1569 6.48322 31.134L6.34529 30.9278L6.62881 30.7216C6.78973 30.6071 6.92766 30.5231 7.04261 30.4543L7.23418 30.6987C7.29548 30.7903 7.35678 30.882 7.41042 30.9812L7.47172 31.1034L7.4564 31.1416C7.4564 31.1416 7.37211 31.218 7.26483 31.2943L7.34146 31.4012C7.46406 31.3249 7.53303 31.2791 7.55602 31.2714L7.77058 31.1569L7.7859 31.134L7.76291 31.0805C7.69395 30.9812 7.64797 30.9125 7.62498 30.8743L7.41808 30.5918C7.30314 30.4391 7.19586 30.3016 7.11157 30.1718L6.9813 29.9885L6.75908 29.6602L6.64414 29.7442C6.7131 29.8587 6.75908 29.9274 6.75908 29.958V29.9962C6.75908 29.9962 6.68245 30.0802 6.57517 30.1565C6.42192 30.2711 6.32996 30.3398 6.30697 30.3474L5.67862 30.7903C5.60199 30.8438 5.47939 30.9202 5.31847 31.0271L5.11923 31.1492L4.94299 31.0652L4.87402 31.1187C5.08092 31.4012 5.19586 31.554 5.21119 31.5769C5.27249 31.6609 5.37977 31.8136 5.53303 32.0351L5.68628 32.2642C5.76291 32.3787 5.82421 32.4627 5.87785 32.5162H5.90851C6.02345 32.4322 6.18437 32.3405 6.3836 32.226L6.30697 32.1114L6.27632 32.142Z" fill="white"/>
<path d="M25.5018 38.3884L25.3945 38.2433L25.2336 38.1516L24.996 38.1135C24.996 38.1135 24.8811 38.1135 24.7661 38.1135C24.6512 38.1135 24.5516 38.1135 24.4826 38.1135L24.2757 38.0829L24.1531 37.9913L24.0842 37.8157C24.0612 37.7164 24.0842 37.6171 24.1531 37.5255C24.2221 37.4338 24.3294 37.3651 24.4826 37.3422C24.5899 37.3193 24.6819 37.3193 24.7815 37.3422L24.9884 37.4415C25.0114 37.4873 25.0343 37.5789 25.065 37.7164L25.2029 37.6858C25.1876 37.5713 25.1799 37.4797 25.1646 37.4033V37.1818L25.134 37.1436C25.0497 37.1207 24.9501 37.1055 24.8275 37.1055C24.7048 37.1055 24.5976 37.1131 24.475 37.136C24.36 37.1589 24.2527 37.1971 24.1531 37.2353C24.0458 37.2811 23.9616 37.3422 23.8849 37.4186C23.8083 37.4949 23.7547 37.5942 23.724 37.7087C23.6934 37.8157 23.6857 37.9455 23.7087 38.0676L23.8006 38.3044L23.9769 38.48C24.0382 38.5258 24.1301 38.5564 24.2298 38.564C24.2987 38.564 24.4366 38.5793 24.6435 38.5793C24.7891 38.5793 24.8964 38.5946 24.9577 38.6175L25.1033 38.7167L25.1723 38.8924L25.157 39.1291L25.0114 39.32C24.9347 39.3735 24.8428 39.4116 24.7355 39.4346C24.6129 39.4575 24.4903 39.4575 24.383 39.4193C24.2681 39.3887 24.1838 39.3429 24.1301 39.2818C24.0918 39.1596 24.0688 39.068 24.0535 38.984L23.9156 39.0069C23.9616 39.2666 23.9845 39.4651 23.9692 39.6026C24.1071 39.6407 24.2374 39.6636 24.3524 39.6636C24.4596 39.6636 24.5899 39.6637 24.7278 39.6331C24.9117 39.5949 25.065 39.5415 25.1953 39.4575L25.4098 39.2513L25.5554 38.9993C25.5937 38.8771 25.6014 38.7473 25.5707 38.6022L25.4941 38.3884H25.5018Z" fill="white"/>
<path d="M21.5867 38.7525L21.4564 38.638L21.2265 38.5464C21.2265 38.5464 21.1192 38.5311 20.9966 38.5082C20.8817 38.4853 20.7897 38.47 20.7208 38.4471L20.5215 38.3707L20.4219 38.2562L20.3836 38.0729C20.3836 37.966 20.4296 37.8744 20.5215 37.798C20.6058 37.7216 20.7208 37.6834 20.8817 37.6834C20.989 37.6834 21.0886 37.7064 21.1729 37.7445L21.3568 37.882C21.3644 37.9431 21.3721 38.0271 21.3721 38.1645H21.51C21.51 38.05 21.5254 37.9584 21.533 37.8896L21.5713 37.6758L21.556 37.6376C21.4794 37.5918 21.3798 37.5613 21.2648 37.5384C21.1499 37.5154 21.0273 37.5078 20.9123 37.5078C20.7974 37.5078 20.6824 37.5078 20.5675 37.5384C20.4526 37.5613 20.3606 37.6071 20.2687 37.6605C20.1844 37.7216 20.1077 37.798 20.0541 37.9049C20.0005 38.0118 19.9698 38.1264 19.9698 38.2562L20.0081 38.5158L20.1384 38.7144C20.1997 38.7755 20.2763 38.8213 20.3759 38.8518C20.4449 38.8671 20.5752 38.9053 20.7821 38.9587C20.9277 38.9893 21.0273 39.0198 21.0809 39.0504L21.2035 39.1725L21.2418 39.3634L21.1805 39.5925L20.9966 39.7453C20.9123 39.7834 20.8127 39.7987 20.7054 39.7987C20.5752 39.7987 20.4679 39.7682 20.3606 39.7147C20.261 39.6613 20.1844 39.6002 20.1461 39.5238C20.1307 39.4093 20.1231 39.3024 20.1307 39.2184H19.9851C19.9851 39.4856 19.9621 39.6765 19.9238 39.8064C20.0541 39.8751 20.169 39.9209 20.2763 39.9438C20.3913 39.9744 20.5139 39.9896 20.6518 39.9896C20.8434 39.9896 21.012 39.9744 21.1422 39.9133L21.3951 39.7605L21.5867 39.5391C21.648 39.4245 21.6786 39.3024 21.6786 39.1496L21.648 38.9282L21.5637 38.7602L21.5867 38.7525Z" fill="white"/>
<path d="M19.3255 39.7101L19.2949 39.6872L19.2719 39.6414L19.2336 39.4734L19.1646 39.2291L18.7048 37.3505L18.4596 37.3047L18.2527 37.6636L17.6244 38.6716C17.5094 38.8625 17.4251 38.9923 17.3868 39.0611C17.2949 39.1909 17.2412 39.2749 17.2259 39.2978L17.1799 39.3436L17.1263 39.3589H16.9654L16.9424 39.4887L17.3332 39.5421L17.724 39.6185L17.747 39.4811C17.6167 39.4581 17.5401 39.4276 17.5094 39.4123L17.4941 39.3512C17.5018 39.3131 17.5477 39.2138 17.6244 39.0763L17.7317 38.8854L18.5976 39.0305L18.6818 39.4276L18.6972 39.5727L18.6589 39.6185C18.6589 39.6185 18.5592 39.6185 18.429 39.6032L18.406 39.7407L19.0037 39.8247L19.4711 39.9163L19.5018 39.7712L19.4251 39.7483L19.3255 39.7178V39.7101ZM18.2068 38.7632C18.0765 38.7403 17.9539 38.7251 17.8543 38.7021L18.3447 37.8851L18.5592 38.8167C18.452 38.8014 18.337 38.7861 18.2068 38.7632Z" fill="white"/>
<path d="M7.88475 34.2935L7.99203 34.0568L8.79663 32.2928L8.62805 32.1172L8.23724 32.2623L7.11847 32.6746C6.90391 32.7586 6.76598 32.8045 6.69701 32.8274C6.53609 32.8808 6.4518 32.9114 6.42881 32.919H6.35985L6.31387 32.9037L6.19126 32.7968L6.08398 32.8961L6.35985 33.1786L6.61272 33.4765L6.72 33.3772C6.63571 33.2779 6.58207 33.2092 6.58207 33.1786L6.60506 33.1175C6.60506 33.1175 6.72766 33.0488 6.88092 32.9801L7.08015 32.9037L7.67019 33.5528L7.49395 33.9117L7.41732 34.0339L7.36368 34.0492C7.36368 34.0492 7.28705 33.9881 7.18743 33.8965L7.08015 33.9881L7.49395 34.4234L7.80812 34.7746L7.90774 34.683L7.86176 34.6219L7.80046 34.5379V34.4997V34.4463L7.86943 34.2859L7.88475 34.2935ZM7.76215 33.3619C7.69318 33.2932 7.60889 33.2092 7.51693 33.1023L7.27939 32.835L8.16828 32.5066L7.76215 33.3696V33.3619Z" fill="white"/>
<path d="M3.67817 28.2481C3.57089 28.1641 3.4866 28.0801 3.4253 27.9885C3.364 27.9045 3.31036 27.8052 3.27204 27.6983C3.20308 27.5303 3.17242 27.3852 3.17242 27.2478C3.18009 27.1561 3.20308 27.0416 3.25672 26.9194C3.30269 26.8125 3.38698 26.698 3.49426 26.5987C3.60154 26.4994 3.73947 26.4154 3.91572 26.3467C4.19925 26.2321 4.44446 26.2245 4.65901 26.3085C4.88124 26.4001 5.03449 26.5605 5.13411 26.8125C5.18775 26.95 5.2184 27.0721 5.21074 27.1714C5.21074 27.2783 5.18775 27.3776 5.14177 27.4769C5.07281 27.515 4.98085 27.5609 4.87357 27.6067L4.91955 27.7289C5.01917 27.6983 5.14177 27.6601 5.26438 27.6296L5.47128 27.5914L5.4866 27.5685C5.4866 27.4005 5.46361 27.2554 5.44062 27.1332C5.41764 27.011 5.37166 26.8812 5.31802 26.7361C5.14944 26.3161 4.91189 26.0489 4.61304 25.9038C4.30652 25.7587 3.99235 25.7587 3.65518 25.8885C3.46361 25.9725 3.29503 26.0794 3.1571 26.2245C3.06515 26.3161 2.99618 26.4307 2.93488 26.5605C2.87357 26.6903 2.85059 26.8354 2.85059 26.9958C2.85059 27.1943 2.89656 27.4081 2.98085 27.6296C3.04216 27.79 3.11112 27.9198 3.18009 28.0038C3.24905 28.103 3.34101 28.2023 3.46361 28.3016L3.65518 28.3169L3.67817 28.2558V28.2481Z" fill="white"/>
<path d="M3.37153 24.6104C3.8313 24.6104 4.19912 24.2438 4.19912 23.7857C4.19912 23.3275 3.82364 22.9609 3.37153 22.9609C2.91942 22.9609 2.54395 23.3275 2.54395 23.7857C2.54395 24.2438 2.91942 24.6104 3.37153 24.6104Z" fill="white"/>
<path d="M3.34129 14.961L3.39493 14.8923L3.44091 14.877C3.44091 14.877 3.55585 14.8999 3.70144 14.9381C3.84704 14.9915 4.00796 15.045 4.19187 15.1061L5.83171 15.6788C5.83171 15.6788 6.02328 15.7552 6.31447 15.8697C6.46773 15.9232 6.55202 15.969 6.598 15.9919L6.68229 16.0912V16.221L6.59033 16.3432L6.41409 16.4653V16.5264C6.58267 16.5799 6.70528 16.6257 6.80489 16.6715L6.88918 16.5112C6.91984 16.4348 6.9275 16.3508 6.91984 16.2439C6.91984 16.1446 6.88918 16.0377 6.85853 15.9155C6.82022 15.801 6.76658 15.6864 6.71294 15.5948C6.62865 15.465 6.52903 15.3428 6.40643 15.2588C6.29148 15.1672 6.11524 15.0908 5.89302 15.0068L4.99646 14.7013L4.23784 14.4341C4.03861 14.3577 3.87769 14.2966 3.77041 14.2508L3.67846 14.1821L3.66313 14.0904C3.66313 14.0904 3.69378 13.9759 3.73976 13.8384L3.55585 13.7773C3.50987 13.9453 3.44091 14.1439 3.36428 14.373C3.26466 14.6479 3.16505 14.9228 3.06543 15.1824L3.24934 15.2512L3.35662 14.9686L3.34129 14.961Z" fill="white"/>
<path d="M4.55173 13.3407C4.67433 13.5163 4.85058 13.6767 5.08046 13.8218C5.37165 14.0127 5.65517 14.112 5.93104 14.1272C6.19924 14.1425 6.45211 14.0814 6.68199 13.9516C6.91188 13.8142 7.11878 13.608 7.29502 13.3254C7.4636 13.0734 7.57088 12.8214 7.61686 12.5618C7.64751 12.3785 7.63985 12.1876 7.60153 11.9967C7.55556 11.8134 7.48659 11.6378 7.37165 11.4851C7.22606 11.2712 7.03448 11.0956 6.8046 10.9429C6.66667 10.8512 6.52874 10.7902 6.39847 10.7443C6.2682 10.6985 6.13793 10.668 6.00766 10.668C5.8774 10.668 5.7318 10.6756 5.57088 10.7291C5.40996 10.7749 5.26437 10.8512 5.12644 10.9582C4.95019 11.1032 4.78161 11.2865 4.63602 11.508C4.49042 11.7371 4.38314 11.9662 4.3295 12.1952C4.28353 12.3785 4.28353 12.5694 4.31418 12.7756C4.35249 12.9818 4.42912 13.1727 4.55173 13.3483V13.3407ZM4.81993 11.6836C4.91954 11.5232 5.03448 11.4087 5.14943 11.3552C5.26437 11.2942 5.39464 11.256 5.54023 11.2483C5.68583 11.2483 5.84675 11.2636 6.01533 11.3171C6.18391 11.3782 6.35249 11.4622 6.52874 11.5691C6.78927 11.7371 6.98084 11.9051 7.11111 12.0883C7.24138 12.2716 7.30268 12.4472 7.30268 12.6229C7.30268 12.7985 7.24138 12.9589 7.14176 13.1192C7.03448 13.2796 6.90422 13.4094 6.7433 13.4782C6.58238 13.5545 6.38314 13.5698 6.1456 13.524C5.90039 13.4858 5.63985 13.3636 5.34866 13.188C5.14943 13.0505 4.98084 12.9054 4.85824 12.7451C4.72797 12.5847 4.65901 12.4091 4.65901 12.2334C4.65901 12.0502 4.71265 11.8669 4.82759 11.6912L4.81993 11.6836Z" fill="white"/>
<path d="M9.92336 7.52911C10.069 7.7582 10.2452 7.94911 10.4521 8.07893C10.5824 8.17056 10.7433 8.22402 10.9119 8.2622C11.0881 8.30038 11.272 8.30802 11.4636 8.27747C11.7395 8.23929 12.023 8.13238 12.2988 7.94911C12.4751 7.8422 12.636 7.72002 12.7816 7.57493C12.9349 7.43747 13.1034 7.24656 13.2797 7.00984L13.0804 6.72729C13.0421 6.6662 12.9808 6.56693 12.8889 6.4142L12.8429 6.29965L12.9502 6.14693L12.8736 6.02474L12.3142 6.38365L11.7471 6.72729L11.8391 6.87238C12.0383 6.76547 12.1686 6.70438 12.2222 6.69674H12.2988C12.2988 6.69674 12.3678 6.78074 12.4444 6.89529L12.5517 7.07093L12.6667 7.26947L12.4751 7.49856L12.2529 7.6742C11.9693 7.84984 11.6552 7.89565 11.318 7.80402C10.9808 7.71238 10.6973 7.48329 10.4674 7.10911C10.2529 6.76547 10.1839 6.44474 10.2452 6.13165C10.3142 5.81856 10.5057 5.56656 10.8122 5.37565C10.9502 5.29165 11.0728 5.23056 11.2031 5.20002C11.3257 5.16184 11.4483 5.14656 11.5632 5.14656L11.7241 5.17711L11.8314 5.30693L11.954 5.47493L12.0996 5.38329C11.954 5.08547 11.8544 4.87929 11.8161 4.74947L11.7778 4.72656C11.6475 4.74184 11.4713 4.79529 11.2644 4.86402C11.0575 4.94038 10.8506 5.04729 10.636 5.17711C10.4598 5.28402 10.3065 5.39856 10.1839 5.51311C10.0536 5.63529 9.95401 5.76511 9.86206 5.91784C9.77777 6.06293 9.7088 6.23093 9.67815 6.39893C9.63984 6.57456 9.63984 6.7502 9.67815 6.93347C9.7088 7.11674 9.78543 7.30765 9.9157 7.49856L9.92336 7.52911Z" fill="white"/>
<path d="M7.01172 20.1756C7.01172 20.1756 7.37187 21.1989 7.61708 22.016L7.12666 20C7.08068 20.0229 7.04237 20.0764 7.01172 20.1833V20.1756Z" fill="white"/>
<path d="M35.1797 20.1755C35.1491 20.0686 35.1108 20.0151 35.0725 19.9922L34.582 22.0082C34.8272 21.1911 35.1874 20.1678 35.1874 20.1678L35.1797 20.1755Z" fill="white"/>
<path d="M33.9698 20.0434C33.4027 21.2271 33.5483 22.5252 33.5483 22.5252C32.3376 21.4332 30.4296 22.3191 30.4296 22.3191C30.4909 22.5252 31.1269 23.0063 31.1269 23.0063C31.1575 25.2972 32.5215 25.7631 32.5215 25.7631C32.0388 26.122 31.9162 26.5114 31.9162 26.5114C31.2188 25.6332 29.6709 25.8165 29.6709 25.8165C29.6709 27.4125 31.3721 28.1991 31.3721 28.1991C31.2188 28.894 31.3108 29.23 31.3108 29.23C30.7361 29.4972 30.1077 30.2838 30.1077 30.2838C30.284 28.5885 29.6786 28.0158 29.6786 28.0158C28.6518 28.6191 28.2227 29.7645 28.2227 29.7645C26.4985 29.9478 25.556 31.1849 25.556 31.1849L25.6786 30.6351C22.4679 31.33 22.4985 33.5903 22.4985 33.5903L22.3529 33.5369C22.1844 32.506 21.2188 32.5289 21.1192 32.5442C21.0196 32.5365 20.0617 32.506 19.8855 33.5369L19.7322 33.5903C19.7322 33.5903 19.7629 31.33 16.5522 30.6351L16.6748 31.1849C16.6748 31.1849 15.7322 29.9478 14.0081 29.7645C14.0081 29.7645 13.579 28.6191 12.5522 28.0158C12.5522 28.0158 11.9468 28.5885 12.1307 30.2838C12.1307 30.2838 11.4947 29.4972 10.92 29.23C10.92 29.23 11.0119 28.8863 10.8587 28.1991C10.8587 28.1991 12.5598 27.4125 12.5598 25.8165C12.5598 25.8165 11.0119 25.6332 10.3146 26.5114C10.3146 26.5114 10.192 26.122 9.70926 25.7631C9.70926 25.7631 11.0732 25.2972 11.1039 23.0063C11.1039 23.0063 11.7399 22.5252 11.8012 22.3191C11.8012 22.3191 9.8855 21.4409 8.68244 22.5252C8.68244 22.5252 9.01194 19.5623 6.74374 18.5391C6.74374 18.5391 5.98512 20.2954 6.83569 22.1282C6.83569 22.1282 6.13838 21.7692 5.83186 21.7387C5.83186 21.7387 5.62497 23.0063 6.40658 23.9151C6.40658 23.9151 5.77056 23.7929 5.07324 24.19C5.07324 24.19 5.80121 25.7249 7.4334 26.2442C7.4334 26.2442 7.556 26.5496 7.67861 26.7634C7.67861 26.7634 6.59048 26.5802 5.52535 27.0383C5.52535 27.0383 6.40658 28.0082 6.73608 28.1532C6.73608 28.1532 7.556 28.6649 7.97746 28.726L7.64029 28.8405C7.64029 28.8405 9.15753 30.8642 10.5215 31.1085C10.5215 31.1085 9.556 31.3682 9.18818 31.834C9.18818 31.834 10.92 33.43 13.1882 32.9489C13.1882 32.9489 12.7054 33.4605 12.4602 33.9798C12.4602 33.9798 13.9775 34.3998 15.4947 33.85L15.3414 34.2165C15.3414 34.2165 16.3453 34.4227 17.7935 33.4605L18.3989 33.8882C18.3989 33.8882 16.6441 34.186 15.487 34.6136L16.6978 35.4918C16.6978 35.4918 16.8204 35.3696 17.6326 34.9802C17.6326 34.9802 19.9085 35.446 21.1116 35.4002C22.3146 35.446 24.5905 34.9802 24.5905 34.9802C25.4104 35.3696 25.533 35.4918 25.533 35.4918L26.7437 34.6136C25.5943 34.186 23.8395 33.8882 23.8395 33.8882L24.4449 33.4605C25.9008 34.4227 26.9047 34.2165 26.9047 34.2165L26.7514 33.85C28.2686 34.3998 29.7859 33.9798 29.7859 33.9798C29.5407 33.4605 29.0503 32.9489 29.0503 32.9489C31.3261 33.43 33.0503 31.834 33.0503 31.834C32.6824 31.3758 31.7169 31.1085 31.7169 31.1085C33.0809 30.8642 34.5981 28.8405 34.5981 28.8405L34.261 28.726C34.6901 28.6649 35.5024 28.1532 35.5024 28.1532C35.8395 28.0005 36.7131 27.0383 36.7131 27.0383C35.6556 26.5802 34.5598 26.7634 34.5598 26.7634C34.6824 26.5496 34.7974 26.2442 34.7974 26.2442C36.4372 25.7325 37.1652 24.19 37.1652 24.19C36.4602 23.8005 35.8319 23.9151 35.8319 23.9151C36.6211 23.0063 36.4066 21.7387 36.4066 21.7387C36.1077 21.7692 35.4027 22.1282 35.4027 22.1282C36.2533 20.2878 35.4947 18.5391 35.4947 18.5391C34.966 18.7758 34.5752 19.1194 34.2993 19.5089L33.9775 20.0434H33.9698ZM36.6671 24.3427L36.5368 24.5107C36.5368 24.5107 36.4296 24.3045 36.2763 24.3427C36.2763 24.3427 34.5828 24.9078 33.579 25.4958C33.579 25.4958 34.3376 23.8692 36.6671 24.3427ZM33.5024 26.2136C33.7093 26.3358 34.3683 26.2976 34.3683 26.2976L34.0924 26.8245L33.5177 27.2216C33.579 26.8551 33.5024 26.2212 33.5024 26.2212V26.2136ZM33.3185 23.8769L33.9085 23.8922C33.8319 24.0449 33.6786 24.7551 33.6786 24.7551L33.3185 25.1751C33.4104 24.8162 33.3185 23.8769 33.3185 23.8769ZM35.3031 23.9532H35.1499C35.1499 23.9532 35.6403 23.4569 35.9698 22.7238C35.9698 22.7238 35.9545 23.3271 35.3031 23.9532ZM35.7629 22.3802C35.7629 22.3802 35.3798 23.2049 34.6135 24.1365L34.1231 24.4038C34.1231 24.4038 34.4449 22.846 35.7629 22.3802ZM35.2955 19.066C35.2955 19.066 35.9928 21.4943 34.3683 22.8918C34.3836 22.7238 34.4755 22.3878 34.5828 22.0136L35.0732 19.9976C34.966 19.9442 34.851 20.0892 34.851 20.0892C34.5905 20.4634 34.0004 22.8154 34.0004 22.8154C34.0004 22.8154 33.2878 20.5627 35.2955 19.066ZM33.6556 23.3194C32.9736 22.7925 31.5637 22.3649 31.5637 22.3649C33.3414 22.1358 33.6556 23.3194 33.6556 23.3194ZM33.1958 23.4569C32.1537 23.4034 31.3185 22.6856 31.3185 22.6856C32.2303 22.8842 33.1958 23.4569 33.1958 23.4569ZM33.1192 26.1907C33.3951 27.718 32.6978 28.7565 32.6978 28.7565L32.2916 28.8176C32.4602 28.6649 32.805 27.4889 32.805 27.4889C32.7591 27.2292 33.1269 26.1907 33.1269 26.1907H33.1192ZM32.4219 23.6631L32.9047 23.7852C33.0732 24.3274 32.966 25.2209 32.966 25.2209C32.7054 24.9078 32.4219 23.6631 32.4219 23.6631ZM31.5177 23.2431L32.0158 23.5485C32.1997 24.4878 32.6365 25.3965 32.6365 25.3965C31.4411 24.8009 31.51 23.2431 31.51 23.2431H31.5177ZM32.7744 26.1143C32.6518 26.2518 32.5062 27.13 32.5062 27.13C32.4449 27.9318 31.7936 29.0162 31.7936 29.0162L31.6403 29.062C31.7476 26.4351 32.7744 26.1143 32.7744 26.1143ZM31.6786 26.8322L31.602 27.0612C31.602 27.0612 30.8893 26.4274 30.5368 26.2136C30.5368 26.2136 31.2495 26.1907 31.6786 26.8322ZM30.1537 26.3892C30.1537 26.3892 31.1422 27.0154 31.4564 27.4278L31.3951 27.7943C31.3951 27.7943 30.3223 27.2827 30.1537 26.3892ZM29.5637 28.558C29.5637 28.558 29.6173 28.6802 29.6326 28.8482C29.6326 28.8482 29.3798 28.7718 29.3414 29.0085C29.3414 29.0085 28.5828 31.3834 27.9928 31.6431C27.9928 31.6431 28.1001 29.7263 29.556 28.5656L29.5637 28.558ZM27.9851 32.1089C27.9851 32.1089 28.6824 32.0554 29.7093 29.0849C29.7093 29.0849 30.1844 31.3758 27.9851 32.2234V32.1089ZM27.8472 30.2074C26.5905 32.7732 25.3644 32.8802 25.3644 32.8802C26.3529 31.7042 27.5483 30.6351 27.5483 30.6351C27.6863 30.406 27.5024 30.3067 27.5024 30.3067C27.7016 30.2303 27.8472 30.2151 27.8472 30.2151V30.2074ZM27.3874 32.2387L26.9966 32.2005C27.1345 32.0478 27.6326 31.3071 27.6326 31.3071L27.6173 31.9409C27.3568 32.002 27.3874 32.2387 27.3874 32.2387ZM27.1805 30.4442C27.1805 30.4442 25.3951 32.17 25.3338 32.3456C25.3338 32.3456 25.9085 30.7878 27.1805 30.4442ZM16.8663 32.3532C16.805 32.17 15.0196 30.4518 15.0196 30.4518C16.2916 30.7954 16.8663 32.3532 16.8663 32.3532ZM14.6978 30.2991C14.6978 30.2991 14.5139 30.406 14.6518 30.6274C14.6518 30.6274 15.8549 31.6965 16.8357 32.8725C16.8357 32.8725 15.6096 32.7732 14.3453 30.1998C14.3453 30.1998 14.4985 30.2151 14.6901 30.2914L14.6978 30.2991ZM14.5752 31.9409L14.5598 31.3071C14.5598 31.3071 15.0579 32.0478 15.1958 32.2005L14.805 32.2387C14.805 32.2387 14.8357 32.002 14.5828 31.9409H14.5752ZM12.6365 28.558C14.0924 29.7187 14.192 31.6354 14.192 31.6354C13.602 31.3758 12.8434 29.0009 12.8434 29.0009C12.8127 28.7718 12.5522 28.8405 12.5522 28.8405C12.5675 28.6725 12.6288 28.5503 12.6288 28.5503L12.6365 28.558ZM12.4832 29.0849C13.51 32.0631 14.215 32.1089 14.215 32.1089V32.2234C12.0158 31.3758 12.4832 29.0849 12.4832 29.0849ZM10.805 27.7943L10.7437 27.4278C11.0656 27.0154 12.0464 26.3892 12.0464 26.3892C11.8778 27.2751 10.805 27.7943 10.805 27.7943ZM11.648 26.2136C11.2955 26.4274 10.5828 27.0612 10.5828 27.0612L10.5062 26.8322C10.9353 26.1907 11.648 26.2136 11.648 26.2136ZM10.5598 29.0543L10.4066 29.0085C10.4066 29.0085 9.75523 27.9242 9.69393 27.1223C9.69393 27.1223 9.54068 26.2442 9.41807 26.1067C9.41807 26.1067 10.4449 26.4274 10.5522 29.0543H10.5598ZM9.39508 27.4889C9.39508 27.4889 9.73991 28.6649 9.90849 28.8176L9.50236 28.7565C9.50236 28.7565 8.80504 27.7103 9.07324 26.1907C9.07324 26.1907 9.44106 27.2369 9.39508 27.4889ZM9.2878 23.7852L9.77056 23.6631C9.77056 23.6631 9.47937 24.9002 9.2265 25.2209C9.2265 25.2209 9.11922 24.3274 9.2878 23.7852ZM9.556 25.3965C9.556 25.3965 9.99278 24.4954 10.1767 23.5485L10.6824 23.2431C10.6824 23.2431 10.7514 24.8009 9.556 25.3965ZM8.99661 23.4569C8.99661 23.4569 9.96979 22.8765 10.874 22.6856C10.874 22.6856 10.0388 23.4034 8.99661 23.4569ZM10.6365 22.3649C10.6365 22.3649 9.23416 22.7849 8.54451 23.3194C8.54451 23.3194 8.86635 22.1358 10.6365 22.3649ZM8.88167 25.1751L8.51385 24.7551C8.51385 24.7551 8.3606 24.0449 8.28397 23.8922L8.87401 23.8769C8.87401 23.8769 8.78205 24.8085 8.87401 25.1751H8.88167ZM8.68244 27.214L8.10006 26.8169L7.83186 26.29C7.83186 26.29 8.4832 26.3282 8.6901 26.206C8.6901 26.206 8.62113 26.8398 8.68244 27.2063V27.214ZM6.897 19.066C8.90466 20.5627 8.19202 22.8154 8.19202 22.8154C8.19202 22.8154 7.60198 20.4634 7.34144 20.0892C7.34144 20.0892 7.2265 19.9365 7.11922 19.9976L7.60964 22.0136C7.71692 22.3954 7.80887 22.7238 7.8242 22.8918C6.19202 21.4867 6.88933 19.066 6.88933 19.066H6.897ZM8.07707 24.4038L7.59431 24.1365C6.82037 23.1972 6.44489 22.3802 6.44489 22.3802C7.7629 22.8536 8.07707 24.4038 8.07707 24.4038ZM6.22267 22.7238C6.55217 23.4569 7.04259 23.9532 7.04259 23.9532H6.88933C6.23799 23.3271 6.22267 22.7238 6.22267 22.7238ZM5.66328 24.5107L5.52535 24.3427C7.86251 23.8616 8.62113 25.4958 8.62113 25.4958C7.6173 24.9078 5.92382 24.3427 5.92382 24.3427C5.77056 24.3045 5.66328 24.5107 5.66328 24.5107ZM5.83186 24.7092C7.08857 25.0452 8.57516 25.9005 8.57516 25.9005C6.91999 26.2671 5.83186 24.7092 5.83186 24.7092ZM6.13071 27.214C8.6901 26.5649 8.93531 28.3747 8.93531 28.3747C7.97746 27.4049 6.57516 27.1529 6.57516 27.1529C6.22267 27.1529 6.43723 27.4354 6.43723 27.4354C7.95447 27.8554 8.52918 28.5274 8.52918 28.5274C7.37976 28.4052 6.13838 27.214 6.13838 27.214H6.13071ZM8.54451 29.3598C8.39125 29.2834 8.24566 29.0543 8.24566 29.0543C11.0503 28.8405 11.9162 30.6656 11.9162 30.6656C10.2303 29.5354 8.80504 29.1536 8.80504 29.1536C8.52918 29.0467 8.54451 29.3522 8.54451 29.3522V29.3598ZM8.65179 29.4667C8.65179 29.4667 9.66328 29.6958 11.6786 30.9482C11.6786 30.9482 9.90849 31.0245 8.65179 29.4667ZM9.78589 31.8111C11.0119 30.8565 12.7208 31.5743 12.7208 31.5743C12.7514 31.6812 13.3261 32.1623 13.3261 32.1623C12.4142 31.8874 10.6748 31.6049 10.6748 31.6049C10.3529 31.6889 10.6135 31.918 10.6135 31.918C11.9928 32.1776 13.4027 32.5747 13.4027 32.5747C11.2955 33.1627 9.78589 31.8187 9.78589 31.8187V31.8111ZM13.2265 33.7507H13.0196C13.0196 33.7507 14.0541 32.0554 15.7935 32.7732C15.7935 32.7732 13.579 33.4376 13.3414 33.5598C13.3414 33.5598 13.2035 33.6056 13.2342 33.7583L13.2265 33.7507ZM13.8319 33.7507C13.8319 33.7507 15.8319 33.0863 16.238 33.0252L16.4066 33.1169C16.4066 33.1169 15.3568 33.8271 13.8319 33.7507ZM16.0311 33.8423C16.307 33.6285 16.7744 33.2849 16.7744 33.2849L17.1729 33.3612C16.7437 33.7431 16.0311 33.8423 16.0311 33.8423ZM16.9966 31.1238C19.4257 31.9409 19.3874 33.6743 19.3874 33.6743C19.0732 33.5674 17.51 31.5896 17.51 31.5896C17.1039 31.4063 17.2572 31.834 17.2572 31.834C17.8472 32.5594 18.7131 33.5903 18.7131 33.5903C17.3031 33.3154 16.9966 31.1238 16.9966 31.1238ZM21.1116 34.8885H21.0886C20.9276 34.8885 19.7169 34.8962 18.5598 34.6442C18.5598 34.6442 19.7399 34.2242 21.0962 34.186C22.4602 34.2165 23.6326 34.6442 23.6326 34.6442C22.4755 34.8962 21.2725 34.8962 21.1116 34.8885ZM23.4794 33.5903C23.4794 33.5903 24.3453 32.5594 24.9353 31.834C24.9353 31.834 25.0886 31.414 24.6748 31.5896C24.6748 31.5896 23.1116 33.5674 22.7974 33.6743C22.7974 33.6743 22.7667 31.9409 25.1882 31.1238C25.1882 31.1238 24.8893 33.3154 23.4794 33.5903ZM25.0273 33.3612L25.4257 33.2849C25.4257 33.2849 25.8932 33.6362 26.169 33.8423C26.169 33.8423 25.4564 33.7431 25.0273 33.3612ZM25.7859 33.1169L25.9545 33.0252C26.3606 33.0863 28.3606 33.7507 28.3606 33.7507C26.828 33.8271 25.7782 33.1169 25.7782 33.1169H25.7859ZM29.1805 33.7431H28.966C28.9966 33.6056 28.8587 33.5598 28.8587 33.5598C28.6211 33.4376 26.4066 32.7732 26.4066 32.7732C28.1537 32.0631 29.1805 33.7431 29.1805 33.7431ZM32.4066 31.8111C32.4066 31.8111 30.8893 33.1551 28.7897 32.5671C28.7897 32.5671 30.1997 32.17 31.579 31.9103C31.579 31.9103 31.8395 31.6889 31.5177 31.5972C31.5177 31.5972 29.7782 31.8798 28.8663 32.1547C28.8663 32.1547 29.4411 31.6736 29.4717 31.5667C29.4717 31.5667 31.1882 30.8565 32.4066 31.8034V31.8111ZM30.5139 30.9482C32.5292 29.6958 33.5407 29.4667 33.5407 29.4667C32.284 31.0245 30.5139 30.9482 30.5139 30.9482ZM33.6556 29.3598C33.6556 29.3598 33.6709 29.0543 33.3951 29.1612C33.3951 29.1612 31.9698 29.5431 30.2916 30.6732C30.2916 30.6732 31.1499 28.8482 33.9545 29.062C33.9545 29.062 33.8012 29.2834 33.6556 29.3674V29.3598ZM36.0617 27.214C36.0617 27.214 34.8204 28.4052 33.6633 28.5274C33.6633 28.5274 34.238 27.8554 35.7552 27.4354C35.7552 27.4354 35.9621 27.1529 35.6173 27.1529C35.6173 27.1529 34.2073 27.4125 33.2572 28.3747C33.2572 28.3747 33.5024 26.5572 36.0617 27.214ZM33.625 25.8929C33.625 25.8929 35.1116 25.0376 36.3683 24.7016C36.3683 24.7016 35.2801 26.2594 33.625 25.8929Z" fill="white"/>
<path d="M21.9695 23.3594C20.866 24.0619 20.207 23.3594 20.207 23.3594V26.9866C21.2339 27.4983 21.9695 26.9866 21.9695 26.9866V23.3594Z" fill="white"/>
<path d="M11.9846 22.1929C11.9846 22.1929 11.6935 26.8206 16.6666 27.0802C16.6666 27.0802 20.5747 27.2482 19.7624 23.7966H18.1072C18.1072 23.7966 19.249 25.5759 17.2184 25.866C17.2184 25.866 14.8582 26.2708 15.0115 22.5289C15.0115 22.5289 15.2643 18.1991 18.5823 15.6257C18.5823 15.6257 17.4712 14.3809 18.0689 12.8689C18.0689 12.8689 18.5517 11.1813 20.4291 10.7537L20.2605 16.6719L21.0574 17.1529V17.1682H21.0651V17.1529L21.8544 16.6719L21.6935 10.7613C23.5479 11.1889 24.0306 12.8689 24.0306 12.8689C24.6207 14.3733 23.5172 15.6257 23.5172 15.6257C26.8352 18.1991 27.0881 22.5289 27.0881 22.5289C27.2337 26.2708 24.8812 25.866 24.8812 25.866C22.8582 25.5759 23.9923 23.7966 23.9923 23.7966H22.3371C21.5249 27.2482 25.4329 27.0802 25.4329 27.0802C30.3984 26.8282 30.1149 22.1929 30.1149 22.1929C30.4061 17.9013 25.249 15.5493 25.249 15.5493C26.567 11.2042 23.1341 10.1275 21.6705 9.86785L21.6398 8.79876L21.0728 8.21076L21.0651 8.20312V8.21076L20.4904 8.79876L20.4674 9.86022C19.0191 10.1122 15.5479 11.1813 16.8659 15.5493C16.8659 15.5493 11.7088 17.9013 12.0076 22.1929H11.9846Z" fill="white"/>
<path d="M26.529 22.7779L25.0194 17.6692C22.7359 16.4779 21.096 18.0204 21.0501 18.0739C21.0041 18.0204 19.3566 16.4779 17.0731 17.6692L15.5635 22.7779C15.5635 22.7779 18.1075 21.3804 20.575 23.0681C20.6746 23.1368 20.8508 23.1826 21.0501 23.1826C21.2493 23.1826 21.4102 23.1368 21.5175 23.0681H21.5252C23.9926 21.3804 26.529 22.7779 26.529 22.7779ZM21.0501 22.8161C21.0041 22.7855 18.7052 21.2888 16.2301 22.083L17.3336 17.9059C17.3336 17.9059 18.8432 16.9513 21.0577 18.2266C23.2646 16.9437 24.7742 17.9059 24.7742 17.9059L25.8777 22.083C23.3949 21.2888 21.1037 22.7855 21.0577 22.8161H21.0501Z" fill="white"/>
<path d="M18.6053 21.1356H18.544L18.521 21.105L18.498 21.0592L18.4367 20.8836L18.3448 20.6316L17.6934 18.7148L17.5402 18.7301L17.4789 19.1654L17.2796 20.3948C17.249 20.6316 17.2183 20.7843 17.203 20.8607C17.18 21.0287 17.157 21.1279 17.1493 21.1508L17.134 21.2119L17.1034 21.2425L16.9961 21.2654V21.4181L17.2566 21.3876H17.5172L17.5018 21.2196L17.3409 21.1967L17.3179 21.1356C17.3179 21.0974 17.3179 20.9828 17.3486 20.8072L17.3792 20.5781L17.9539 20.5323L18.0842 20.937L18.1225 21.0898L18.1072 21.1432L17.9539 21.1814L17.9693 21.3341L18.3524 21.2959L18.6589 21.2807V21.1279H18.5976L18.6053 21.1356ZM17.6551 20.3643L17.4175 20.3796L17.5631 19.3945L17.8773 20.3414L17.6474 20.3643H17.6551Z" fill="white"/>
<path d="M19.4104 20.0838V20.2365C19.5253 20.2518 19.5943 20.2594 19.6173 20.2747L19.6479 20.3052C19.6479 20.3052 19.6633 20.3968 19.6633 20.519V20.687C19.6633 20.7863 19.6633 20.855 19.6479 20.8856L19.5177 20.9619L19.3721 20.9925C19.1958 20.9925 19.0502 20.8856 18.9353 20.6641C18.8203 20.4503 18.759 20.1525 18.759 19.7783C18.759 19.4423 18.8203 19.175 18.9276 18.9765C19.0426 18.7779 19.1882 18.6863 19.3721 18.6863L19.5866 18.7321L19.7552 18.8619L19.8165 18.9536V19.0987L19.8395 19.2743H19.9315C19.9468 18.9918 19.9621 18.8008 19.9774 18.6863V18.6558C19.9008 18.6099 19.8165 18.5718 19.7092 18.5183C19.602 18.4801 19.4793 18.4648 19.3567 18.4648C19.2571 18.4648 19.1652 18.4801 19.0732 18.5107L18.828 18.6558C18.7514 18.7245 18.6824 18.8161 18.6134 18.923C18.5521 19.0299 18.5062 19.1598 18.4755 19.3048C18.4449 19.4499 18.4219 19.6256 18.4219 19.8165C18.4219 20.0456 18.4449 20.2594 18.4985 20.4579C18.5292 20.5801 18.5828 20.6947 18.6441 20.8016C18.7054 20.9085 18.782 20.9925 18.874 21.0612C19.0042 21.1528 19.1498 21.2063 19.3184 21.2063C19.4257 21.2063 19.5253 21.1834 19.6249 21.1528C19.7246 21.107 19.8472 21.0536 19.9928 20.9696V20.6718C19.9851 20.6107 19.9851 20.5038 19.9928 20.3587V20.2594L20.0847 20.1907V20.0685H19.7475H19.418L19.4104 20.0838Z" fill="white"/>
<path d="M21.793 20.955L21.77 20.9397L21.7547 20.8863L21.7087 20.7183L21.6398 20.4586L21.1417 18.4961H20.9807L20.8811 18.9237L20.5899 20.1379C20.5363 20.367 20.498 20.5197 20.4827 20.5961C20.4367 20.7641 20.4137 20.8557 20.406 20.8863L20.383 20.9397L20.3524 20.9626L20.2451 20.9855V21.1383L20.498 21.123L20.7585 21.1383V20.9855L20.5976 20.9474L20.5823 20.8863C20.5823 20.8405 20.5976 20.7335 20.6359 20.5655L20.6896 20.3365H21.2643L21.3639 20.7565L21.3869 20.9092L21.3716 20.9626L21.2183 20.9932V21.1459L21.6091 21.1306L21.9156 21.1459V20.9932L21.8696 20.9779L21.8007 20.9626L21.793 20.955ZM20.9731 20.1226H20.7355L20.9654 19.1452L21.203 20.1226H20.9731Z" fill="white"/>
<path d="M23.4411 18.7547L23.3031 18.5638L23.0732 18.495L22.5752 18.4798L22.2533 18.4492L22.238 18.6096L22.3606 18.6249L22.3989 18.6478L22.4142 18.6783V18.7623C22.4142 18.7623 22.4142 18.8998 22.4142 19.0449L22.3989 19.4038L22.3606 20.0681C22.3529 20.3125 22.3299 20.5416 22.3146 20.7401L22.2916 20.8776L22.2763 20.9005L22.123 20.9234V21.0914C22.2073 21.0914 22.3146 21.0914 22.4142 21.0914C22.5139 21.099 22.6518 21.1067 22.8434 21.1296V20.9616L22.6978 20.9387L22.6594 20.9081L22.6441 20.8776C22.6441 20.8776 22.6441 20.7783 22.6441 20.6714C22.6441 20.4805 22.6594 20.3049 22.6748 20.1216L22.7131 19.4114L22.7437 19.0372C22.7437 18.8921 22.7591 18.7776 22.7744 18.6936L22.9123 18.6783L23.1116 18.8234C23.1499 18.915 23.1729 19.0372 23.1575 19.2205C23.1499 19.3885 23.1192 19.503 23.0656 19.587L22.8817 19.7092L22.8434 19.6939L22.7974 19.671L22.7667 19.7092L22.7974 19.8467L22.8663 19.8696H22.9353L23.2112 19.7779C23.2955 19.7092 23.3644 19.6099 23.4104 19.4878C23.4564 19.3656 23.487 19.2358 23.4947 19.0983C23.4947 18.9609 23.4947 18.8387 23.4564 18.747L23.4411 18.7547Z" fill="white"/>
<path d="M24.5133 21.3224L24.5286 21.2995C24.5516 21.1392 24.5899 20.9406 24.6436 20.6962L24.5516 20.681C24.5133 20.8413 24.4827 20.9559 24.4597 21.017L24.4443 21.0475L24.3141 21.0704L24.0842 21.0475L23.8773 21.0093L23.9079 20.7802L24.0229 19.9937H24.1991L24.3907 20.0548L24.429 20.1082C24.429 20.1082 24.429 20.2304 24.406 20.3755L24.498 20.3908L24.5516 19.9861L24.6206 19.5737L24.5286 19.5584C24.5133 19.6653 24.498 19.7493 24.4827 19.7952L24.4597 19.8333H24.3907C24.2834 19.8333 24.2221 19.8104 24.2068 19.8104L24.0535 19.7799L24.1072 19.3981C24.1378 19.1766 24.1685 19.001 24.2068 18.8635L24.406 18.8788L24.6129 18.9322L24.6972 18.9704V19.0086C24.6972 19.0086 24.6972 19.1308 24.6742 19.2759L24.7585 19.2912C24.7892 19.1308 24.8045 19.0392 24.8122 19.0239L24.8658 18.7566V18.7261L24.8275 18.7108L24.6666 18.6802L24.4443 18.6573C24.3217 18.6421 24.2068 18.6268 24.1072 18.6115L23.9616 18.5886L23.7087 18.5352L23.6857 18.6955L23.839 18.749L23.8543 18.7795C23.8543 18.7795 23.8543 18.8941 23.8313 19.0315C23.8007 19.2453 23.7853 19.3675 23.7777 19.3981L23.6551 20.2304C23.6397 20.3297 23.6168 20.4824 23.5784 20.6962C23.5555 20.8108 23.5478 20.8948 23.5325 20.9482L23.4099 21.0399L23.3945 21.1392C23.6244 21.1697 23.747 21.1773 23.77 21.1773C23.839 21.185 23.9539 21.2079 24.1302 21.2384L24.3064 21.269L24.5056 21.2842L24.5133 21.3224Z" fill="white"/>
</g>
<defs>
<clipPath id="clip0_955_1533">
<rect width="200" height="42" fill="white"/>
</clipPath>
</defs>
</svg>
