<svg width="248" height="30" viewBox="0 0 248 30" fill="none" xmlns="http://www.w3.org/2000/svg">
<g clip-path="url(#clip0_955_1380)">
<path d="M96.9009 27.5645L94.1305 23.3502L94.121 23.3359H93.2166V29.5407H94.2114V25.3026L96.9865 29.5217L96.9961 29.5407H97.9005V23.3359H96.9009V27.5645Z" fill="white"/>
<path d="M101.923 23.3368H101.128L98.8716 29.4939L98.8573 29.5368H99.9188L100.342 28.3035H102.713L103.137 29.5368H104.198L101.932 23.3558L101.923 23.332V23.3368ZM102.432 27.4463H100.638L101.547 24.8606L102.432 27.4463Z" fill="white"/>
<path d="M104.112 24.2407H105.802V29.5407H106.802V24.2407H108.487V23.3359H104.112V24.2407Z" fill="white"/>
<path d="M110.439 23.3359H109.439V29.5407H110.439V23.3359Z" fill="white"/>
<path d="M113.942 23.3359C113.299 23.3359 112.747 23.555 112.309 23.9883C111.705 24.5836 111.705 25.2645 111.705 26.3883V26.4836C111.705 27.6074 111.705 28.2883 112.309 28.8836C112.752 29.3169 113.299 29.5359 113.942 29.5359C114.585 29.5359 115.146 29.3169 115.584 28.8836C116.179 28.2978 116.179 27.6312 116.179 26.5312V26.3455C116.179 25.2455 116.179 24.5788 115.584 23.9931C115.142 23.5597 114.589 23.3407 113.942 23.3407V23.3359ZM115.184 26.4359C115.184 27.6455 115.123 27.974 114.832 28.2836C114.618 28.5121 114.285 28.6455 113.942 28.6455C113.599 28.6455 113.266 28.5121 113.052 28.2836C112.762 27.974 112.7 27.6455 112.7 26.4359C112.7 25.2264 112.762 24.8978 113.052 24.5883C113.266 24.3597 113.599 24.2264 113.942 24.2264C114.285 24.2264 114.618 24.3597 114.832 24.5883C115.123 24.8978 115.184 25.2264 115.184 26.4359Z" fill="white"/>
<path d="M121.134 27.5645L118.364 23.3502L118.354 23.3359H117.45V29.5407H118.445V25.3026L121.215 29.5217L121.229 29.5407H122.134V23.3359H121.134V27.5645Z" fill="white"/>
<path d="M126.138 23.3359H125.343L123.072 29.5407H124.134L124.557 28.3074H126.928L127.351 29.5407H128.413L126.147 23.3597L126.138 23.3359ZM126.642 27.4455H124.848L125.757 24.8597L126.642 27.4455Z" fill="white"/>
<path d="M130.34 23.3359H129.345V29.5407H133.296V28.6359H130.34V23.3359Z" fill="white"/>
<path d="M140.037 26.4693C139.76 26.2264 139.427 26.0931 138.875 26.0121L138.175 25.9121C137.899 25.8693 137.652 25.774 137.504 25.6407C137.357 25.5121 137.285 25.3312 137.285 25.1074C137.285 24.555 137.714 24.1978 138.371 24.1978C138.942 24.1978 139.346 24.3407 139.684 24.655L139.708 24.6788L140.351 24.055L140.322 24.0312C139.794 23.5455 139.218 23.3359 138.394 23.3359C137.128 23.3359 136.309 24.0455 136.309 25.1407C136.309 25.6455 136.462 26.0312 136.766 26.3217C137.042 26.574 137.452 26.7455 137.947 26.8121L138.67 26.9121C139.023 26.9597 139.175 27.0169 139.323 27.1597C139.475 27.2931 139.551 27.5026 139.551 27.7645C139.551 28.3312 139.104 28.655 138.318 28.655C137.637 28.655 137.176 28.4836 136.776 28.0883L136.752 28.0645L136.086 28.7121L136.109 28.7359C136.676 29.3026 137.333 29.5455 138.304 29.5455C139.665 29.5455 140.541 28.8359 140.541 27.7407C140.541 27.2026 140.365 26.7645 140.032 26.4788L140.037 26.4693Z" fill="white"/>
<path d="M144.173 23.3359H141.812V29.5407H142.812V27.1264H144.173C145.349 27.1264 146.172 26.3455 146.172 25.2312C146.172 24.1169 145.349 23.3359 144.173 23.3359ZM145.178 25.2312C145.178 25.8359 144.773 26.2121 144.126 26.2121H142.817V24.2359H144.126C144.773 24.2359 145.178 24.6169 145.178 25.2264V25.2312Z" fill="white"/>
<path d="M149.376 23.3359C148.733 23.3359 148.181 23.555 147.743 23.9883C147.138 24.5836 147.138 25.2645 147.138 26.3883V26.4836C147.138 27.6074 147.138 28.2883 147.743 28.8836C148.186 29.3169 148.733 29.5359 149.376 29.5359C150.018 29.5359 150.58 29.3169 151.018 28.8836C151.613 28.2978 151.613 27.6312 151.613 26.5312V26.3455C151.613 25.2455 151.613 24.5788 151.018 23.9931C150.575 23.5597 150.023 23.3407 149.376 23.3407V23.3359ZM150.613 26.4407C150.613 27.655 150.551 27.9836 150.261 28.2931C150.047 28.5217 149.714 28.655 149.371 28.655C149.028 28.655 148.695 28.5217 148.481 28.2931C148.19 27.9836 148.129 27.655 148.129 26.4407C148.129 25.2264 148.19 24.8978 148.481 24.5883C148.695 24.3597 149.028 24.2264 149.371 24.2264C149.714 24.2264 150.047 24.3597 150.261 24.5883C150.551 24.8978 150.613 25.2264 150.613 26.4407Z" fill="white"/>
<path d="M157.23 25.1637C157.23 24.0732 156.45 23.3398 155.293 23.3398H152.88V29.5446H153.879V26.9589H154.988L156.278 29.5446H157.44L156.021 26.816C156.778 26.5922 157.23 25.9779 157.23 25.1684V25.1637ZM156.231 25.1684C156.231 25.7398 155.845 26.0922 155.222 26.0922H153.879V24.2398H155.222C155.836 24.2398 156.231 24.6065 156.231 25.1732V25.1684Z" fill="white"/>
<path d="M158.187 24.2407H159.877V29.5407H160.872V24.2407H162.562V23.3359H158.187V24.2407Z" fill="white"/>
<path d="M167.254 26.4762C166.978 26.2334 166.645 26.1 166.093 26.0191L165.393 25.9191C165.117 25.8762 164.87 25.781 164.722 25.6477C164.574 25.5191 164.503 25.3381 164.503 25.1143C164.503 24.5619 164.931 24.2096 165.588 24.2096C166.16 24.2096 166.564 24.3524 166.902 24.6667L166.926 24.6905L167.568 24.0667L167.54 24.0429C167.012 23.5572 166.436 23.3477 165.612 23.3477C164.346 23.3477 163.527 24.0572 163.527 25.1524C163.527 25.6572 163.68 26.0429 163.984 26.3286C164.26 26.581 164.67 26.7524 165.165 26.8191L165.888 26.9191C166.24 26.9667 166.393 27.0238 166.54 27.1667C166.693 27.3 166.769 27.5048 166.769 27.7667C166.769 28.3334 166.321 28.6572 165.536 28.6572C164.855 28.6572 164.394 28.4858 163.994 28.0905L163.97 28.0667L163.303 28.7143L163.327 28.7381C163.894 29.3048 164.551 29.5429 165.522 29.5429C166.883 29.5429 167.759 28.8334 167.759 27.7381C167.759 27.2 167.583 26.7619 167.25 26.4762H167.254Z" fill="white"/>
<path d="M173.5 27.1074L171.729 23.3359H170.744V29.5407H171.744V25.5502L173.129 28.4074L173.133 28.4264H173.867L175.223 25.555V29.5407H176.223V23.3359H175.237L173.5 27.1074Z" fill="white"/>
<path d="M180.964 27.3359C180.964 28.1217 180.478 28.6312 179.721 28.6312C178.965 28.6312 178.489 28.1359 178.489 27.3359V23.3359H177.489V27.3788C177.489 28.6264 178.427 29.5312 179.721 29.5312C181.016 29.5312 181.959 28.6264 181.959 27.3788V23.3359H180.959V27.3359H180.964Z" fill="white"/>
<path d="M186.948 26.4762C186.672 26.2334 186.338 26.1 185.786 26.0191L185.086 25.9191C184.81 25.8762 184.563 25.781 184.415 25.6477C184.268 25.5191 184.196 25.3381 184.196 25.1143C184.196 24.5619 184.625 24.2096 185.282 24.2096C185.853 24.2096 186.257 24.3524 186.595 24.6667L186.619 24.6905L187.262 24.0667L187.233 24.0429C186.705 23.5572 186.129 23.3477 185.305 23.3477C184.039 23.3477 183.221 24.0572 183.221 25.1524C183.221 25.6572 183.373 26.0429 183.678 26.3286C183.954 26.581 184.363 26.7524 184.858 26.8191L185.582 26.9191C185.934 26.9667 186.086 27.0238 186.234 27.1667C186.386 27.3 186.462 27.5048 186.462 27.7667C186.462 28.3334 186.015 28.6572 185.229 28.6572C184.549 28.6572 184.087 28.4858 183.687 28.0905L183.663 28.0667L182.997 28.7143L183.021 28.7381C183.587 29.3048 184.244 29.5429 185.215 29.5429C186.576 29.5429 187.452 28.8334 187.452 27.7381C187.452 27.2 187.276 26.7619 186.943 26.4762H186.948Z" fill="white"/>
<path d="M188.513 29.5407H192.502V28.6359H189.513V26.8597H192.064V25.9645H189.513V24.2407H192.502V23.3359H188.513V29.5407Z" fill="white"/>
<path d="M197.243 27.3359C197.243 28.1217 196.758 28.6312 196.001 28.6312C195.244 28.6312 194.768 28.1359 194.768 27.3359V23.3359H193.768V27.3788C193.768 28.6264 194.706 29.5312 196.001 29.5312C197.296 29.5312 198.238 28.6264 198.238 27.3788V23.3359H197.238V27.3359H197.243Z" fill="white"/>
<path d="M202.261 27.1074L200.49 23.3359H199.505V29.5407H200.504V25.5502L201.889 28.4074L201.899 28.4264H202.627L203.984 25.555V29.5407H204.983V23.3359H203.998L202.261 27.1074Z" fill="white"/>
<path d="M210.205 23.3359C209.562 23.3359 209.01 23.555 208.572 23.9883C207.968 24.5836 207.968 25.2645 207.968 26.3883V26.4836C207.968 27.6074 207.968 28.2883 208.572 28.8836C209.015 29.3169 209.562 29.5359 210.205 29.5359C210.847 29.5359 211.409 29.3169 211.847 28.8836C212.442 28.2978 212.442 27.6312 212.442 26.5312V26.3455C212.442 25.2455 212.442 24.5788 211.847 23.9931C211.404 23.5597 210.852 23.3407 210.205 23.3407V23.3359ZM211.447 26.4359C211.447 27.6455 211.385 27.974 211.095 28.2836C210.881 28.5121 210.547 28.6455 210.205 28.6455C209.862 28.6455 209.529 28.5121 209.315 28.2836C209.024 27.974 208.962 27.6455 208.962 26.4359C208.962 25.2264 209.024 24.8978 209.315 24.5883C209.529 24.3597 209.862 24.2264 210.205 24.2264C210.547 24.2264 210.881 24.3597 211.095 24.5883C211.385 24.8978 211.447 25.2264 211.447 26.4359Z" fill="white"/>
<path d="M213.709 29.5407H214.708V26.9455H217.26V26.0407H214.708V24.2407H217.698V23.3359H213.709V29.5407Z" fill="white"/>
<path d="M225.337 23.3359H224.114L221.653 26.3597V23.3359H220.658V29.5407H221.653V27.7359L222.648 26.5407L224.347 29.5217L224.357 29.5407H225.532L223.314 25.7788L225.337 23.3359Z" fill="white"/>
<path d="M228.503 23.3359C227.86 23.3359 227.308 23.555 226.87 23.9883C226.265 24.5836 226.265 25.2645 226.265 26.3883V26.4836C226.265 27.6074 226.265 28.2883 226.87 28.8836C227.313 29.3169 227.86 29.5359 228.503 29.5359C229.145 29.5359 229.707 29.3169 230.145 28.8836C230.74 28.2978 230.74 27.6312 230.74 26.5312V26.3455C230.74 25.2455 230.74 24.5788 230.145 23.9931C229.702 23.5597 229.15 23.3407 228.503 23.3407V23.3359ZM229.74 26.4359C229.74 27.6455 229.678 27.974 229.388 28.2836C229.174 28.5121 228.841 28.6455 228.498 28.6455C228.155 28.6455 227.822 28.5121 227.608 28.2836C227.317 27.974 227.255 27.6455 227.255 26.4359C227.255 25.2264 227.317 24.8978 227.608 24.5883C227.822 24.3597 228.155 24.2264 228.498 24.2264C228.841 24.2264 229.174 24.3597 229.388 24.5883C229.678 24.8978 229.74 25.2264 229.74 26.4359Z" fill="white"/>
<path d="M236.371 25.1637C236.371 24.0732 235.59 23.3398 234.434 23.3398H232.02V29.5446H233.02V26.9589H234.129L235.419 29.5446H236.58L235.162 26.816C235.919 26.5922 236.371 25.9779 236.371 25.1684V25.1637ZM233.02 24.2398H234.362C234.976 24.2398 235.371 24.6065 235.371 25.1732C235.371 25.7398 234.986 26.097 234.362 26.097H233.02V24.2446V24.2398Z" fill="white"/>
<path d="M237.676 29.5407H241.664V28.6359H238.675V26.8597H241.227V25.9645H238.675V24.2407H241.664V23.3359H237.676V29.5407Z" fill="white"/>
<path d="M245.677 23.3597L245.668 23.3359H244.873L242.602 29.5407H243.664L244.087 28.3074H246.458L246.882 29.5407H247.943L245.677 23.3597ZM246.172 27.4455H244.378L245.287 24.8597L246.172 27.4455Z" fill="white"/>
<path d="M107.835 1.25134V0.765625H95.8441V2.96086H105.412V3.09896C105.412 4.50372 104.845 6.03229 104.293 7.5561H93.2213V9.75134H100.519V12.6228H95.806V14.818H105.631V19.7799H108.035V12.6228H102.946V9.75134H110.362V7.5561H106.773C107.135 6.45134 107.835 4.90848 107.835 1.24658V1.25134Z" fill="white"/>
<path d="M125.338 13.6588H119.031V11.6445H116.646V19.7826H127.723V11.6445H125.338V13.6588ZM119.026 17.4064V15.6541H125.333V17.4064H119.026Z" fill="white"/>
<path d="M123.834 10.042L124.053 10.0135L123.829 7.86109L123.6 7.88966C121.168 8.19918 119.345 8.26109 117.198 8.26109H115.765V6.69442H121.939V0.851562H113.38V3.02775H119.554V4.57061H113.38V10.4611H116.998C119.716 10.4611 121.439 10.3563 123.834 10.042Z" fill="white"/>
<path d="M133.239 12.3C134.629 11.4619 135.843 10.681 137.176 9.75718C138.256 9.0048 138.975 8.38099 139.327 7.89051C139.775 8.50004 140.694 9.20004 141.45 9.71908C142.541 10.4715 143.826 11.2762 145.42 12.2572L145.611 12.3715L146.753 10.381L146.563 10.2667C145.073 9.38575 143.969 8.70956 142.75 7.84766C140.77 6.43813 140.489 5.69051 140.489 3.67147V1.34766H138.137V3.67147C138.137 5.69528 137.733 6.48575 136.086 7.7048C134.843 8.60956 133.677 9.33813 132.083 10.2905L131.892 10.4048L133.054 12.4143L133.239 12.3Z" fill="white"/>
<path d="M147.881 14.8516H130.74V17.0468H147.881V14.8516Z" fill="white"/>
<path d="M160.662 11.5207H166.146V9.36834H163.623V3.79691H166.146V1.64453H152.775V3.79691H155.335V9.36834H152.775V11.5207H158.296V14.8493H150.899V17.0445H168.04V14.8493H160.662V11.5207ZM161.224 3.79691V9.36834H157.735V3.79691H161.224Z" fill="white"/>
<path d="M188.204 14.8516H171.063V17.0468H188.204V14.8516Z" fill="white"/>
<path d="M173.662 12.7423C175.28 11.8851 176.427 11.2042 177.627 10.3804C178.579 9.72321 179.274 9.13274 179.64 8.67559C179.993 9.10893 180.673 9.68988 181.616 10.3375C182.958 11.2518 184.048 11.8756 185.595 12.7185L185.781 12.8185L186.895 10.7804L186.69 10.6756C185.067 9.82321 184.153 9.30893 182.696 8.2994C181.302 7.33274 180.783 6.48036 180.783 5.14226V5.05655H186.024V2.81845H180.783V0.4375H178.45V2.82798H173.248V5.06607H178.45V5.15179C178.45 6.46607 177.898 7.39464 176.537 8.35179C175.266 9.2375 174.109 9.88512 172.543 10.7042L172.339 10.8137L173.476 12.847L173.662 12.747V12.7423Z" fill="white"/>
<path d="M193.94 14.4291H202.77V19.7863H205.174V12.2148H193.94V14.4291Z" fill="white"/>
<path d="M200.199 0.871094H197.834V3.96633H193.607V0.871094H191.241V10.4806H200.195V0.871094H200.199ZM193.611 8.28538V6.13776H197.838V8.28538H193.611Z" fill="white"/>
<path d="M224.581 0.4375H213.338V7.05655H224.581V0.4375ZM215.699 4.8994V2.58512H222.215V4.8994H215.699Z" fill="white"/>
<path d="M210.319 10.1289H217.678V11.4861H213.046V13.6194H222.386V14.5813H213.046V19.7861H224.752V17.6528H215.374V16.6718H224.752V11.4861H220.101V10.1289H227.593V7.97656H210.319V10.1289Z" fill="white"/>
<path d="M238.504 3.67109C238.504 5.52347 237.685 7.86633 237.685 7.86633L239.894 8.41395C239.894 8.41395 240.888 5.40443 240.888 3.38062V0.871094H231.502V3.08538H238.504V3.67109Z" fill="white"/>
<path d="M245.378 5.8381V0H242.993V14.6571H245.378V8.07143H247.943V5.8381H245.378Z" fill="white"/>
<path d="M236.423 13.5898H234.019V19.7946H245.391V17.5756H236.423V13.5898Z" fill="white"/>
<path d="M242.203 11.321L242.003 9.1686L241.779 9.19241C239.789 9.39241 238.195 9.49717 236.167 9.55908V6.07812H233.782V9.61146H230.15V11.8257H230.374C236.433 11.8257 238.851 11.6781 241.979 11.3448L242.198 11.321H242.203Z" fill="white"/>
<path d="M127.722 0H125.338V10.4619H127.722V0Z" fill="white"/>
<path d="M205.174 4.50476V0H202.789V11.119H205.174V6.74286H207.758V4.50476H205.174Z" fill="white"/>
<path d="M78.6322 0H76.871H67.7221H65.9561H56.8072H55.046H45.8971L44.5786 2.9619H53.7275L53.7322 2.95238H55.4935L43.6504 29.5619H52.7993L64.6423 2.95238H66.4036L54.5605 29.5619H63.7141L75.5572 2.95238H77.3184L65.4753 29.5619H74.6242L87.7811 0H78.6322Z" fill="white"/>
<path d="M25.9424 26.6095H21.3775L33.2206 0H24.0717H22.3057H13.1569L0 29.5619H9.14887L20.9919 2.95238H22.7532L10.9149 29.5619H18.193H20.0637H21.825H25.9424H30.9738L32.2828 26.6238H25.9424V26.6095Z" fill="white"/>
<path d="M36.2337 17.7476L44.1307 0H34.9818L27.0848 17.7476H36.2337Z" fill="white"/>
<path d="M40.6276 11.8398L32.7354 29.5637H41.889L49.7764 11.8398H40.6276Z" fill="white"/>
</g>
<defs>
<clipPath id="clip0_955_1380">
<rect width="248" height="30" fill="white"/>
</clipPath>
</defs>
</svg>
