<svg width="179" height="64" viewBox="0 0 179 64" fill="none" xmlns="http://www.w3.org/2000/svg">
<g clip-path="url(#clip0_955_1452)">
<path d="M85.7998 12.7504V25.1637C86.2196 25.145 86.6487 25.1045 87.076 25.0509C90.153 24.6532 93.4875 22.8167 93.6098 18.8626C93.7239 15.1697 91.3986 12.9549 87.2301 12.7884C86.7342 12.7673 86.2882 12.7573 85.7998 12.7504ZM87.3723 9.4671C93.4252 9.72455 97.1995 13.4368 97.028 18.9586C96.8758 23.9338 93.1463 27.6167 87.5276 28.346C86.9533 28.4191 86.3763 28.4686 85.7979 28.4944V36.1145C86.1098 36.1258 86.4217 36.132 86.7236 36.132C92.1901 36.132 96.824 34.3716 100.129 31.044C103.192 27.9745 104.88 23.9288 104.88 19.6537C104.88 10.6247 97.3136 3.2801 88.0154 3.2801H87.7459C78.9834 3.41662 74.5548 8.95905 74.1469 14.0533C73.8799 17.4102 74.9515 20.378 77.1708 22.4177C78.573 23.7044 80.3233 24.5553 82.3767 24.9511V9.55998C84.2142 9.43157 85.7193 9.39666 87.3723 9.4671ZM82.3767 39.1404V28.3261C79.4432 27.8854 76.8334 26.6822 74.818 24.8321C71.8365 22.0911 70.3869 18.1707 70.7368 13.7939C71.0262 10.169 72.7484 6.78721 75.5896 4.275C78.8861 1.35823 82.8357 0.000518448 88.0154 0.000518448C99.1774 0.000518448 108.257 8.81754 108.257 19.6537C108.257 24.7809 106.235 29.6327 102.562 33.3156C98.6029 37.3046 93.1139 39.4141 86.6874 39.4141H86.6849C84.7762 39.4141 82.7316 39.1647 82.3767 39.1404Z" fill="white"/>
<path d="M137.249 49.3831C138.731 49.3831 139.457 49.6792 140.749 50.6411L140.723 48.8489C139.16 48.3115 137.974 48.2298 136.821 48.2298C131.948 48.2298 128.482 51.5524 128.482 55.9772C128.482 60.4106 131.626 64 137.652 64C138.948 64 139.858 63.8423 140.395 63.6534L140.696 62.502C139.858 62.8243 138.84 62.9839 138.082 62.9839C134.208 62.9839 131.358 60.4648 131.276 56.4341C131.276 52.6658 133.456 49.6237 137.249 49.3831Z" fill="white"/>
<path d="M154.454 50.4794H154.603C154.832 49.7918 155.147 49.6098 156.122 49.6098H158.006V63.6719H160.725V49.6098H162.607C163.588 49.6098 163.903 49.7918 164.13 50.4794H164.276V48.512H154.454V50.4794Z" fill="white"/>
<path d="M176.001 48.512V48.6803C176.63 48.7589 176.894 49.3748 176.651 49.8298L173.859 55.1734L170.63 48.512H167.031V48.6803C167.753 48.7894 168.045 49.5312 168.42 50.2275L171.868 56.7424V63.6719H174.584V56.7424L178.999 48.512H176.001Z" fill="white"/>
<path d="M98.1007 53.9161C96.502 52.8769 96.1914 52.3794 96.2263 51.4494C96.2594 50.5511 97.0372 49.5612 98.4974 49.3237C99.9588 49.0874 101.171 49.6328 102.115 50.48V48.8119C100.989 48.3742 99.0363 48.0632 97.1027 48.5382C95.1678 49.0107 94.2796 50.1964 93.9228 51.0174C93.5685 51.839 93.4706 53.3937 94.36 54.4148C95.247 55.4365 97.2343 56.6994 98.3595 57.4282C99.4848 58.1588 100.571 58.9822 100.516 60.5319C100.475 61.7338 99.2727 63.0921 96.9181 62.7929C95.5552 62.6215 94.1679 61.7887 93.5049 60.785V62.796C95.3568 63.9642 98.7843 64.5477 101.171 62.9363C103.307 61.4969 103.464 59.35 102.794 57.8545C102.123 56.3584 99.7006 54.9552 98.1007 53.9161Z" fill="white"/>
<path d="M16.924 57.1358L19.4938 50.4139L22.0525 57.1358H16.924ZM17.8939 48.512V48.6816C18.8208 48.8349 18.643 49.6783 18.4466 50.1521L13.0811 63.6713H14.429L16.6065 58.0309H22.3868L24.1845 62.7312C24.3853 63.2785 24.8057 63.6719 25.6291 63.6719H27.4629L21.4936 48.512H17.8939Z" fill="white"/>
<path d="M50.7642 57.1358L53.3322 50.4139L55.8939 57.1358H50.7642ZM51.7354 48.512V48.6816C52.6623 48.8349 52.4832 49.6783 52.2855 50.1521L46.9219 63.6713H48.2692L50.4473 58.0309H56.2258L58.0259 62.7312C58.2267 63.2785 58.6465 63.6719 59.4693 63.6719H61.3043L55.3338 48.512H51.7354Z" fill="white"/>
<path d="M84.1533 48.6816C84.9037 48.8817 85.1669 49.4072 85.1669 50.0736V63.6719H87.8915V48.512H84.1533V48.6816Z" fill="white"/>
<path d="M145.283 48.6816C146.034 48.8817 146.297 49.4072 146.297 50.0736V63.6719H149.021V48.512H145.283V48.6816Z" fill="white"/>
<path d="M111.068 56.1708H116.98V55.2033H111.068V49.409H117.234V48.512H107.328V48.6816C108.077 48.8823 108.342 49.4072 108.342 50.0742V63.6719L117.864 63.67V62.7025H111.068V56.1708Z" fill="white"/>
<path d="M71.0922 62.8054H68.561V49.4053H70.7704C74.7761 49.4053 77.1039 51.9125 77.1039 56.091C77.1039 60.2682 74.1629 62.8054 71.0922 62.8054ZM71.6848 48.5114H64.8223V48.6816C65.5358 48.8717 65.8103 49.3598 65.8327 49.9813V63.6719H71.0061C78.2142 63.6719 79.7649 58.7466 79.7649 55.8523C79.7649 51.4656 76.0816 48.5114 71.6848 48.5114Z" fill="white"/>
<path d="M36.5414 55.6802H34.876V49.4115H36.6387C38.4564 49.4115 39.7887 50.6221 39.7887 52.4118C39.7887 54.449 38.5767 55.6802 36.5414 55.6802ZM42.4016 52.4349C42.4016 50.5766 41.0693 48.5133 37.7971 48.5133H31.1348V48.6803C31.8739 48.8785 32.1409 49.391 32.149 50.0449V63.6706H34.876V56.5305H36.2657L40.0051 62.7206C40.3813 63.2686 40.9283 63.6669 41.751 63.6719L43.7988 63.6706L39.1125 56.2468C40.9214 55.7076 42.4016 54.4023 42.4016 52.4349Z" fill="white"/>
<path d="M5.07048 55.6733H3.73814V49.4053H5.16716C6.98664 49.4053 8.31897 50.6146 8.31897 52.4056C8.31897 54.4422 7.1064 55.6733 5.07048 55.6733ZM6.32484 48.512H0V48.6816C0.748502 48.8817 1.0136 49.4072 1.0136 50.0742V63.6719H3.73814V56.566H5.7198C8.26346 56.566 10.93 55.068 10.93 52.4287C10.93 50.5698 9.59579 48.512 6.32484 48.512Z" fill="white"/>
</g>
<defs>
<clipPath id="clip0_955_1452">
<rect width="179" height="64" fill="white"/>
</clipPath>
</defs>
</svg>
