<svg width="1751" height="157" viewBox="0 0 1751 157" fill="none" xmlns="http://www.w3.org/2000/svg">
<path opacity="0.05" d="M124.95 153.3H102.9L102.9 88.6198L22.05 88.6198L22.05 153.3H-4.87342e-05L-4.87342e-05 3.1498L22.05 3.1498L22.05 68.1448L102.9 68.1448L102.9 3.1498L124.95 3.1498L124.95 153.3ZM136.119 78.2248C136.119 70.4548 136.889 63.1398 138.429 56.2798C139.969 49.3848 142.192 43.0498 145.097 37.2748C148.037 31.4648 151.589 26.2673 155.754 21.6823C159.919 17.0623 164.627 13.1598 169.877 9.9748C175.127 6.7548 180.867 4.2873 187.097 2.5723C193.327 0.857301 199.959 -0.000199318 206.994 -0.000199318C214.029 -0.000199318 220.662 0.857301 226.892 2.5723C233.122 4.2873 238.862 6.7548 244.112 9.9748C249.362 13.1598 254.069 17.0623 258.234 21.6823C262.434 26.2673 265.987 31.4648 268.892 37.2748C271.797 43.0498 274.019 49.3848 275.559 56.2798C277.134 63.1398 277.922 70.4548 277.922 78.2248C277.922 85.9598 277.134 93.2748 275.559 100.17C274.019 107.065 271.797 113.417 268.892 119.227C265.987 125.002 262.434 130.2 258.234 134.82C254.069 139.405 249.362 143.307 244.112 146.527C238.862 149.712 233.122 152.162 226.892 153.877C220.662 155.592 214.029 156.45 206.994 156.45C199.959 156.45 193.327 155.592 187.097 153.877C180.867 152.162 175.127 149.712 169.877 146.527C164.627 143.307 159.919 139.405 155.754 134.82C151.589 130.2 148.037 125.002 145.097 119.227C142.192 113.417 139.969 107.065 138.429 100.17C136.889 93.2748 136.119 85.9598 136.119 78.2248ZM158.169 78.2248C158.169 87.2548 159.272 95.3398 161.477 102.48C163.717 109.62 166.937 115.675 171.137 120.645C175.337 125.58 180.447 129.377 186.467 132.037C192.522 134.662 199.364 135.975 206.994 135.975C214.624 135.975 221.449 134.662 227.469 132.037C233.524 129.377 238.652 125.58 242.852 120.645C247.052 115.675 250.272 109.62 252.512 102.48C254.752 95.3398 255.872 87.2548 255.872 78.2248C255.872 69.1948 254.752 61.1098 252.512 53.9698C250.272 46.8298 247.052 40.7923 242.852 35.8573C238.652 30.8873 233.524 27.0898 227.469 24.4648C221.449 21.8048 214.624 20.4748 206.994 20.4748C199.364 20.4748 192.522 21.8048 186.467 24.4648C180.447 27.0898 175.337 30.8873 171.137 35.8573C166.937 40.7923 163.717 46.8298 161.477 53.9698C159.272 61.1098 158.169 69.1948 158.169 78.2248ZM463.534 3.1498V153.3H441.484V21.7348L391.241 153.3H360.266L310.654 21.6823V153.3H289.129V3.1498L326.561 3.1498L376.016 135.24L426.206 3.1498L463.534 3.1498ZM577.677 3.1498V23.6248L498.297 23.6248V68.1448L571.377 68.1448V88.6198L498.297 88.6198V132.825H579.777V153.3H476.247V3.1498L577.677 3.1498ZM588.102 3.1498L657.717 3.1498C662.967 3.1498 667.937 3.6923 672.627 4.77729C677.317 5.8623 681.639 7.4198 685.594 9.44979C689.584 11.4448 693.172 13.8773 696.357 16.7473C699.577 19.6173 702.307 22.8373 704.547 26.4073C706.787 29.9773 708.502 33.8798 709.692 38.1148C710.917 42.3148 711.529 46.7598 711.529 51.4498C711.529 56.1398 710.917 60.6023 709.692 64.8373C708.502 69.0723 706.769 72.9923 704.494 76.5973C702.254 80.1673 699.542 83.4048 696.357 86.3098C693.172 89.1798 689.584 91.6473 685.594 93.7123C681.604 95.7423 677.264 97.2998 672.574 98.3848C667.884 99.4698 662.932 100.012 657.717 100.012L610.152 100.012V153.3L588.102 153.3V3.1498ZM655.984 79.5373C661.094 79.5373 665.714 78.8898 669.844 77.5948C673.974 76.2648 677.492 74.3748 680.397 71.9248C683.302 69.4748 685.542 66.5348 687.117 63.1048C688.692 59.6398 689.479 55.7548 689.479 51.4498C689.479 47.1798 688.709 43.3298 687.169 39.8998C685.629 36.4698 683.424 33.5473 680.554 31.1323C677.684 28.7173 674.202 26.8623 670.107 25.5673C666.047 24.2723 661.479 23.6248 656.404 23.6248L610.152 23.6248V79.5373L655.984 79.5373ZM693.484 153.3L749.449 3.1498L782.524 3.1498L837.754 153.3H814.339L800.636 115.657L730.286 115.657L716.374 153.3H693.484ZM793.339 95.7073L765.724 19.7923L737.636 95.7073L793.339 95.7073ZM853.819 78.2248C853.819 87.2548 854.869 95.3573 856.969 102.532C859.104 109.707 862.184 115.797 866.209 120.802C870.234 125.772 875.151 129.587 880.961 132.247C886.806 134.907 893.456 136.237 900.911 136.237C905.566 136.237 910.011 135.747 914.246 134.767C918.481 133.752 922.419 132.335 926.059 130.515C929.699 128.66 933.006 126.437 935.981 123.847C938.956 121.222 941.511 118.317 943.646 115.132C945.816 111.912 947.514 108.43 948.739 104.685C949.964 100.94 950.664 97.0198 950.839 92.9248L898.916 92.9248V72.9748L971.891 72.9748V153.3L950.891 153.3V110.932C949.106 117.792 946.481 124.022 943.016 129.622C939.551 135.222 935.404 140.017 930.574 144.007C925.744 147.962 920.301 151.025 914.246 153.195C908.226 155.365 901.751 156.45 894.821 156.45C888.661 156.45 882.834 155.557 877.339 153.772C871.844 152.022 866.751 149.52 862.061 146.265C857.406 142.975 853.206 139.002 849.461 134.347C845.716 129.692 842.531 124.477 839.906 118.702C837.281 112.892 835.269 106.592 833.869 99.8023C832.469 92.9773 831.769 85.7848 831.769 78.2248C831.769 70.4548 832.539 63.1398 834.079 56.2798C835.619 49.3848 837.841 43.0498 840.746 37.2748C843.651 31.4648 847.186 26.2673 851.351 21.6823C855.516 17.0623 860.224 13.1598 865.474 9.9748C870.724 6.7548 876.464 4.2873 882.694 2.5723C888.924 0.857301 895.539 -0.000199318 902.539 -0.000199318C911.149 -0.000199318 919.199 1.2948 926.689 3.88479C934.179 6.43979 940.846 10.1148 946.691 14.9098C952.571 19.6698 957.506 25.4448 961.496 32.2348C965.486 39.0248 968.286 46.6548 969.896 55.1248H947.846C946.551 49.5948 944.556 44.6773 941.861 40.3723C939.166 36.0673 935.876 32.4448 931.991 29.5048C928.106 26.5648 923.679 24.3248 918.709 22.7848C913.774 21.2448 908.401 20.4748 902.591 20.4748C894.996 20.4748 888.171 21.8048 882.116 24.4648C876.096 27.0898 870.986 30.8873 866.786 35.8573C862.586 40.7923 859.366 46.8298 857.126 53.9698C854.921 61.1098 853.819 69.1948 853.819 78.2248ZM1086.21 3.1498V23.6248L1006.83 23.6248V68.1448L1079.91 68.1448V88.6198L1006.83 88.6198V132.825H1088.31V153.3H984.779V3.1498L1086.21 3.1498ZM1138.63 79.8523L1227.25 153.3H1193.71L1118.68 89.7223V153.3H1096.63V3.1498L1118.68 3.1498V71.4523L1190.56 3.1498L1221.48 3.1498L1138.63 79.8523ZM1211.42 78.2248C1211.42 70.4548 1212.19 63.1398 1213.73 56.2798C1215.27 49.3848 1217.5 43.0498 1220.4 37.2748C1223.34 31.4648 1226.89 26.2673 1231.06 21.6823C1235.22 17.0623 1239.93 13.1598 1245.18 9.9748C1250.43 6.7548 1256.17 4.2873 1262.4 2.5723C1268.63 0.857301 1275.26 -0.000199318 1282.3 -0.000199318C1289.33 -0.000199318 1295.97 0.857301 1302.2 2.5723C1308.43 4.2873 1314.17 6.7548 1319.42 9.9748C1324.67 13.1598 1329.37 17.0623 1333.54 21.6823C1337.74 26.2673 1341.29 31.4648 1344.2 37.2748C1347.1 43.0498 1349.32 49.3848 1350.86 56.2798C1352.44 63.1398 1353.23 70.4548 1353.23 78.2248C1353.23 85.9598 1352.44 93.2748 1350.86 100.17C1349.32 107.065 1347.1 113.417 1344.2 119.227C1341.29 125.002 1337.74 130.2 1333.54 134.82C1329.37 139.405 1324.67 143.307 1319.42 146.527C1314.17 149.712 1308.43 152.162 1302.2 153.877C1295.97 155.592 1289.33 156.45 1282.3 156.45C1275.26 156.45 1268.63 155.592 1262.4 153.877C1256.17 152.162 1250.43 149.712 1245.18 146.527C1239.93 143.307 1235.22 139.405 1231.06 134.82C1226.89 130.2 1223.34 125.002 1220.4 119.227C1217.5 113.417 1215.27 107.065 1213.73 100.17C1212.19 93.2748 1211.42 85.9598 1211.42 78.2248ZM1233.47 78.2248C1233.47 87.2548 1234.58 95.3398 1236.78 102.48C1239.02 109.62 1242.24 115.675 1246.44 120.645C1250.64 125.58 1255.75 129.377 1261.77 132.037C1267.83 134.662 1274.67 135.975 1282.3 135.975C1289.93 135.975 1296.75 134.662 1302.77 132.037C1308.83 129.377 1313.96 125.58 1318.16 120.645C1322.36 115.675 1325.58 109.62 1327.82 102.48C1330.06 95.3398 1331.18 87.2548 1331.18 78.2248C1331.18 69.1948 1330.06 61.1098 1327.82 53.9698C1325.58 46.8298 1322.36 40.7923 1318.16 35.8573C1313.96 30.8873 1308.83 27.0898 1302.77 24.4648C1296.75 21.8048 1289.93 20.4748 1282.3 20.4748C1274.67 20.4748 1267.83 21.8048 1261.77 24.4648C1255.75 27.0898 1250.64 30.8873 1246.44 35.8573C1242.24 40.7923 1239.02 46.8298 1236.78 53.9698C1234.58 61.1098 1233.47 69.1948 1233.47 78.2248ZM1364.43 153.3V3.1498L1437.09 3.1498C1442.1 3.1498 1446.82 3.6398 1451.27 4.6198C1455.71 5.5998 1459.81 7.0173 1463.55 8.8723C1467.33 10.6923 1470.73 12.9148 1473.74 15.5398C1476.75 18.1298 1479.3 21.0698 1481.4 24.3598C1483.5 27.6148 1485.11 31.1848 1486.23 35.0698C1487.35 38.9198 1487.91 43.0148 1487.91 47.3548C1487.91 53.1298 1486.92 58.3973 1484.92 63.1573C1482.96 67.8823 1480.16 71.9423 1476.52 75.3373C1472.88 78.7323 1468.51 81.4098 1463.4 83.3698C1458.29 85.2948 1452.58 86.3448 1446.28 86.5198C1451.85 86.9748 1456.8 89.1973 1461.14 93.1873C1465.48 97.1423 1469.29 102.777 1472.58 110.092L1491.96 153.3H1467.75L1448.43 110.145C1447.17 107.31 1445.72 104.93 1444.08 103.005C1442.47 101.045 1440.51 99.4698 1438.2 98.2798C1435.89 97.0898 1433.16 96.2323 1430.01 95.7073C1426.86 95.1823 1423.11 94.9198 1418.77 94.9198H1386.48V153.3H1364.43ZM1434.26 74.4448C1439.19 74.4448 1443.62 73.8498 1447.54 72.6598C1451.46 71.4698 1454.77 69.7723 1457.46 67.5673C1460.19 65.3273 1462.28 62.5973 1463.71 59.3773C1465.15 56.1573 1465.86 52.5173 1465.86 48.4573C1465.86 44.4673 1465.16 40.9323 1463.76 37.8523C1462.36 34.7723 1460.32 32.1823 1457.62 30.0823C1454.93 27.9823 1451.6 26.3898 1447.65 25.3048C1443.73 24.1848 1439.23 23.6248 1434.15 23.6248L1386.48 23.6248V74.4448H1434.26ZM1602.94 3.1498V23.6248L1523.56 23.6248V68.1448L1596.64 68.1448V88.6198L1523.56 88.6198V132.825H1605.04V153.3H1501.51V3.1498L1602.94 3.1498ZM1606.28 153.3L1662.25 3.1498L1695.32 3.1498L1750.55 153.3H1727.14L1713.43 115.657H1643.08L1629.17 153.3H1606.28ZM1706.14 95.7073L1678.52 19.7923L1650.43 95.7073H1706.14Z" fill="#F0F2F5"/>
</svg>
