<svg width="191" height="105" viewBox="0 0 191 105" fill="none" xmlns="http://www.w3.org/2000/svg">
<path d="M-0.000136226 2.09995H34.7199C39.8065 2.09995 44.6015 2.63661 49.1049 3.70995C53.6082 4.78328 57.7499 6.33495 61.5299 8.36494C65.3099 10.3949 68.6932 12.8799 71.6799 15.8199C74.6899 18.7366 77.2332 22.0499 79.3099 25.76C81.3865 29.4699 82.9732 33.5416 84.0699 37.9749C85.1899 42.385 85.7499 47.1099 85.7499 52.1499C85.7499 57.1899 85.1899 61.9266 84.0699 66.3599C82.9732 70.7699 81.3865 74.8299 79.3099 78.5399C77.2332 82.25 74.6899 85.575 71.6799 88.515C68.6932 91.4316 65.3099 93.905 61.5299 95.935C57.7499 97.965 53.6082 99.5166 49.1049 100.59C44.6015 101.663 39.8065 102.2 34.7199 102.2H-0.000136226V2.09995ZM34.4749 85.89C39.6315 85.89 44.2399 85.1316 48.2999 83.615C52.3599 82.0983 55.7899 79.905 58.5899 77.0349C61.4132 74.1416 63.5599 70.6066 65.0299 66.4299C66.5232 62.2533 67.2699 57.4933 67.2699 52.1499C67.2699 46.8066 66.5232 42.0466 65.0299 37.8699C63.5599 33.6933 61.4132 30.1699 58.5899 27.2999C55.7899 24.4066 52.3599 22.2016 48.2999 20.685C44.2399 19.1683 39.6315 18.4099 34.4749 18.4099H18.1299V85.89H34.4749ZM94.3796 52.1499C94.3796 46.9466 94.9046 42.0466 95.9546 37.4499C97.0046 32.8533 98.5212 28.6299 100.505 24.7799C102.488 20.9066 104.891 17.4416 107.715 14.3849C110.561 11.3049 113.758 8.70328 117.305 6.57995C120.851 4.45661 124.725 2.83495 128.925 1.71495C133.148 0.571615 137.616 -5.14984e-05 142.33 -5.14984e-05C147.043 -5.14984e-05 151.5 0.571615 155.7 1.71495C159.923 2.83495 163.808 4.45661 167.355 6.57995C170.901 8.70328 174.086 11.3049 176.91 14.3849C179.756 17.4416 182.171 20.9066 184.155 24.7799C186.138 28.6299 187.655 32.8533 188.705 37.4499C189.778 42.0466 190.315 46.9466 190.315 52.1499C190.315 57.3533 189.778 62.2533 188.705 66.85C187.655 71.4466 186.138 75.6816 184.155 79.555C182.171 83.405 179.756 86.87 176.91 89.95C174.086 93.0066 170.901 95.5966 167.355 97.72C163.808 99.8433 159.923 101.465 155.7 102.585C151.5 103.728 147.043 104.3 142.33 104.3C137.616 104.3 133.148 103.728 128.925 102.585C124.725 101.465 120.851 99.8433 117.305 97.72C113.758 95.5966 110.561 93.0066 107.715 89.95C104.891 86.87 102.488 83.405 100.505 79.555C98.5212 75.6816 97.0046 71.4466 95.9546 66.85C94.9046 62.2533 94.3796 57.3533 94.3796 52.1499ZM112.86 52.1499C112.86 57.8199 113.525 62.8833 114.855 67.3399C116.185 71.7733 118.11 75.5299 120.63 78.61C123.15 81.6666 126.23 83.9999 129.87 85.6099C133.533 87.1966 137.686 87.99 142.33 87.99C146.973 87.99 151.115 87.1966 154.755 85.6099C158.418 83.9999 161.51 81.6666 164.03 78.61C166.573 75.5299 168.51 71.7733 169.84 67.3399C171.17 62.8833 171.835 57.8199 171.835 52.1499C171.835 46.4799 171.17 41.4283 169.84 36.9949C168.51 32.5383 166.573 28.7816 164.03 25.7249C161.51 22.6449 158.418 20.3116 154.755 18.7249C151.115 17.1149 146.973 16.3099 142.33 16.3099C137.686 16.3099 133.533 17.1149 129.87 18.7249C126.23 20.3116 123.15 22.6449 120.63 25.7249C118.11 28.7816 116.185 32.5383 114.855 36.9949C113.525 41.4283 112.86 46.4799 112.86 52.1499Z" fill="white"/>
</svg>
