<svg width="625" height="101" viewBox="0 0 625 101" fill="none" xmlns="http://www.w3.org/2000/svg">
<path d="M75.95 -2.90871e-05L105.805 94.185L136.15 -2.90871e-05H143.325L110.95 100.1H101.29L71.61 7.62997L41.58 100.1H31.92L-3.15234e-05 -2.90871e-05H7.27997L37.135 94.185L67.48 -2.90871e-05H75.95ZM226.889 100.1H220.029V53.375H154.194V100.1H147.334V-2.90871e-05H154.194V46.935H220.029V-2.90871e-05H226.889V100.1ZM230.355 100.1L271.97 -2.90871e-05H281.595L322.825 100.1H315.475L303.365 70.56H249.85L237.565 100.1H230.355ZM300.775 64.26L276.73 5.77497L252.44 64.26H300.775ZM387.695 6.40497H351.61V100.1H344.75V6.40497H308.7V-2.90871e-05H387.695V6.40497ZM488.048 -2.90871e-05L517.903 94.185L548.248 -2.90871e-05H555.423L523.048 100.1H513.388L483.708 7.62997L453.678 100.1H444.018L412.098 -2.90871e-05H419.378L449.233 94.185L479.578 -2.90871e-05H488.048ZM623.306 -2.90871e-05V6.40497H566.291V46.935H619.106V53.375H566.291V93.695H624.706V100.1H559.431V-2.90871e-05H623.306Z" fill="white"/>
</svg>
